<svg version="1.1" xmlns="http://www.w3.org/2000/svg" xmlns:xlink="http://www.w3.org/1999/xlink" width="95.63156" height="112.14347" viewBox="0,0,95.63156,112.14347"><g transform="translate(-193.16129,-123.92826)"><g data-paper-data="{&quot;isPaintingLayer&quot;:true}" fill-rule="nonzero" stroke="#000000" stroke-linecap="butt" stroke-linejoin="miter" stroke-miterlimit="10" stroke-dasharray="" stroke-dashoffset="0" style="mix-blend-mode: normal"><g><path d="M195.16129,180v-52.58064l89.67742,52.58064l-89.67742,52.58064v-52.58064" data-paper-data="{&quot;index&quot;:null}" fill="#740000" stroke-width="0"/><path d="M195.16129,127.41936l89.67742,52.58064l-21.90685,12.84466c-21.25631,-9.08893 -42.45565,-18.2594 -64.04609,-26.52539c-1.0133,-0.38795 -2.27872,-0.91493 -3.72448,-1.51533z" data-paper-data="{&quot;index&quot;:null}" fill="#8e1919" stroke-width="0"/><path d="M195.16129,127.41936l89.67742,52.58064l-6.22411,3.64938c-0.1555,-0.06529 -0.29467,-0.1261 -0.41465,-0.18207c-8.84639,-4.12673 -17.75113,-8.12889 -26.68504,-12.06257c-18.785,-8.2712 -37.20119,-16.26069 -56.35362,-22.42612z" data-paper-data="{&quot;index&quot;:null}" fill="#a73737" stroke-width="0"/><path d="M195.16129,232.58064l0,-41.90241c14.65136,6.76575 30.04974,11.84344 45.85993,15.01332z" data-paper-data="{&quot;index&quot;:null}" fill="#580101" stroke-width="0"/><path d="M195.16129,232.58064l0,-28.12281c10.72467,4.15876 21.84169,7.04339 33.26832,8.61657z" data-paper-data="{&quot;index&quot;:null}" fill="#430000" stroke-width="0"/><path d="M195.16129,180v-52.58064l89.67742,52.58064l-89.67742,52.58064v-52.58064" data-paper-data="{&quot;index&quot;:null}" fill="none" stroke-width="4"/></g></g></g></svg>