<svg version="1.1" xmlns="http://www.w3.org/2000/svg" xmlns:xlink="http://www.w3.org/1999/xlink" width="73.6987" height="72.86517" viewBox="0,0,73.6987,72.86517"><g transform="translate(-263.33664,-188.58961)"><g data-paper-data="{&quot;isPaintingLayer&quot;:true}" fill-rule="nonzero" stroke-width="3" stroke-linejoin="miter" stroke-miterlimit="10" stroke-dasharray="" stroke-dashoffset="0" style="mix-blend-mode: normal"><g><path d="M266.30747,235.01995c-5.52161,-18.48041 4.98358,-37.9379 23.46399,-43.45951c18.48041,-5.52161 37.93791,4.98358 43.45952,23.46399c5.52161,18.48041 -4.98358,37.93791 -23.46399,43.45952c-18.48041,5.52161 -37.9379,-4.98358 -43.45952,-23.464z" fill="#fff584" stroke="#b3a934" stroke-linecap="butt"/><path d="M280.19684,230.87006c-4.46141,-14.932 4.02668,-30.65346 18.95869,-35.11487c14.932,-4.46141 30.65347,4.02669 35.11488,18.95869c4.46141,14.93201 -4.02669,30.65347 -18.95869,35.11488c-14.93201,4.46141 -30.65347,-4.02668 -35.11488,-18.95869z" fill="#000000" stroke="#b3a934" stroke-linecap="butt"/><path d="M309.32944,247.96306c0,0 0.3859,-0.63001 0.6625,-0.87764c0.27818,-0.24903 1.00188,-0.61239 1.00188,-0.61239" fill="none" stroke="#ffffff" stroke-linecap="round"/><path d="M296.92612,240.12333c0,0 -6.04277,3.10386 -9.50236,3.74206c-3.68175,0.6792 -11.96317,0.21783 -11.96317,0.21783" fill="none" stroke="#b3a934" stroke-linecap="round"/><path d="M296.92611,240.12333c0,0 -4.48991,2.30622 -7.94503,3.35156" fill="none" stroke="#ffffff" stroke-linecap="round"/><path d="M280.27335,230.91138c-4.46141,-14.932 4.02668,-30.65347 18.95869,-35.11488c14.932,-4.46141 30.65347,4.02669 35.11488,18.95869c4.46141,14.93201 -4.02669,30.65347 -18.95869,35.11488c-14.93201,4.46141 -30.65347,-4.02668 -35.11488,-18.95869z" fill="none" stroke="#b3a934" stroke-linecap="butt"/><path d="M331.41627,227.3647c0,0 -6.67091,4.92885 -10.12179,6.38075c-3.24265,1.36429 -9.9977,2.08419 -9.9977,2.08419" data-paper-data="{&quot;index&quot;:null}" fill="none" stroke="#ffffff" stroke-linecap="round"/></g></g></g></svg>