<svg version="1.1" xmlns="http://www.w3.org/2000/svg" xmlns:xlink="http://www.w3.org/1999/xlink" width="156.62454" height="146.37435" viewBox="0,0,156.62454,146.37435"><g transform="translate(-170.42243,-106.2697)"><g data-paper-data="{&quot;isPaintingLayer&quot;:true}" fill-rule="nonzero" stroke="#000000" stroke-linecap="butt" stroke-linejoin="miter" stroke-miterlimit="10" stroke-dasharray="" stroke-dashoffset="0" style="mix-blend-mode: normal"><path d="M173.20955,251.64405v-144.37435h144.37435v144.37435z" fill="#af3a59" stroke-width="2"/><g><g fill="#ebe9ff" stroke-width="0"><path d="M202.30983,220.09411c16.31223,-1.69733 30.91187,10.15038 32.60921,26.46261c0.00161,0.01546 -0.0403,1.85394 -0.10162,4.49939c-9.76274,0.02195 -19.52546,0.05394 -29.28811,0.09567z" data-paper-data="{&quot;index&quot;:null}"/><path d="" data-paper-data="{&quot;index&quot;:null}"/><path d="M202.72766,220.05062l3.24814,31.09925c-9.94039,0.04218 -19.88071,0.09447 -29.82093,0.15657c-0.92636,-15.75894 10.71309,-29.60556 26.57279,-31.25582z"/><path d=""/></g><path d="M184.4793,228.91666c0,0 4.4297,15.10637 8.08549,22.29623c-5.47,0.02818 -10.93998,0.05938 -16.40992,0.09355c-0.50465,-8.58501 2.71992,-16.60249 8.32443,-22.38978z" fill="#ac9cc3" stroke-width="0"/><path d="" fill="#ac9cc3" stroke-width="0"/><g fill="none" stroke-width="2"><path d="M202.52823,220.07139c16.31223,-1.69733 30.91187,10.15038 32.60921,26.46261c0.00161,0.01551 -0.04053,1.86425 -0.10214,4.52162" data-paper-data="{&quot;index&quot;:null}"/><path d="" data-paper-data="{&quot;index&quot;:null}"/><path d=""/><path d="M175.93522,251.30781c-0.9146,-15.7501 10.7215,-29.58495 26.57404,-31.23446"/></g></g><g><path d="M171.57277,191.88786c-1.57681,-15.15396 9.42965,-28.71695 24.58361,-30.29376c15.15397,-1.57681 28.71695,9.42965 30.29376,24.58361c1.57681,15.15396 -9.42965,28.71695 -24.58361,30.29376c-15.15396,1.57681 -28.71695,-9.42965 -30.29376,-24.58361z" fill="#ebe9ff" stroke-width="2"/><path d="M171.40319,192.09683c-0.44982,-4.32295 0.86324,-10.50004 3.21992,-15.06726c2.99593,-5.80609 7.26794,-9.55719 7.26794,-9.55719c0,0 4.29009,15.91053 7.43019,23.71216c3.43531,8.53508 12.37572,25.49592 12.37572,25.49592c0,0 -10.15453,1.0967 -18.57106,-4.51428c-6.10898,-4.07263 -11.05954,-13.69603 -11.7227,-20.06933z" fill="#ac9cc3" stroke-width="0"/><path d="M171.57277,191.88786c-1.57681,-15.15396 9.42965,-28.71695 24.58361,-30.29376c15.15397,-1.57681 28.71695,9.42965 30.29376,24.58361c1.57681,15.15396 -9.42965,28.71695 -24.58361,30.29376c-15.15396,1.57681 -28.71695,-9.42965 -30.29376,-24.58361z" fill="none" stroke-width="2"/></g><g data-paper-data="{&quot;index&quot;:null}"><g fill="#ebe9ff" stroke-width="0"><path d="M293.61594,219.80561c15.30138,2.43314 26.00237,16.14954 24.96723,31.31502c-9.98198,-0.03863 -19.96403,-0.06591 -29.94611,-0.08215z" data-paper-data="{&quot;index&quot;:null}"/><path d="" data-paper-data="{&quot;index&quot;:null}"/><path d="M260.0405,244.53508c2.57553,-16.19681 17.79351,-27.23903 33.99032,-24.66351l-4.94373,31.16765c-9.74973,-0.01619 -19.4995,-0.02184 -29.24926,-0.01724c0.11275,-3.66719 0.19966,-6.46794 0.20267,-6.48691z"/><path d=""/></g><path d="M260.0405,244.53508c1.43559,-9.02809 6.79914,-16.45468 14.07069,-20.81412c0,0 0.40086,16.79468 2.21946,24.38356c0.21605,0.90158 0.49252,1.88409 0.8141,2.92013c-5.76897,-0.00451 -11.53795,-0.00538 -17.30692,-0.00266c0.11275,-3.66719 0.19966,-6.46794 0.20267,-6.48691z" fill="#ac9cc3" stroke-width="0"/><path d="" fill="#ac9cc3" stroke-width="0"/><g fill="none" stroke-width="2"><path d="M293.83279,219.84009c15.29007,2.43134 25.98655,16.12927 24.96951,31.28138" data-paper-data="{&quot;index&quot;:null}"/><path d="" data-paper-data="{&quot;index&quot;:null}"/><path d=""/><path d="M259.61991,251.02209c0.11327,-3.68415 0.20071,-6.50247 0.20374,-6.52149c2.57553,-16.19681 17.7935,-27.23904 33.99031,-24.66351"/></g></g><g data-paper-data="{&quot;index&quot;:null}"><path d="M271.21157,184.61465c2.39265,-15.04674 16.53007,-25.3049 31.5768,-22.91225c15.04674,2.39265 25.3049,16.53007 22.91225,31.57681c-2.39265,15.04674 -16.53007,25.3049 -31.5768,22.91225c-15.04674,-2.39265 -25.3049,-16.53007 -22.91225,-31.5768z" fill="#ebe9ff" stroke-width="2"/><path d="M270.99375,184.7727c0.68255,-4.29236 3.54721,-9.92034 7.00406,-13.72346c4.39452,-4.83472 9.49075,-7.3545 9.49075,-7.3545c0,0 0.03297,16.47874 1.05042,24.82681c1.1131,9.13291 5.36704,27.82796 5.36704,27.82796c0,0 -10.09303,-1.56456 -16.77378,-9.15987c-4.84909,-5.51292 -7.14475,-16.08873 -6.13847,-22.41693z" fill="#ac9cc3" stroke-width="0"/><path d="M271.21157,184.61465c2.39265,-15.04674 16.53007,-25.3049 31.5768,-22.91225c15.04674,2.39265 25.3049,16.53007 22.91225,31.57681c-2.39265,15.04674 -16.53007,25.3049 -31.5768,22.91225c-15.04674,-2.39265 -25.3049,-16.53007 -22.91225,-31.5768z" fill="none" stroke-width="2"/></g><g><g><g fill="#ebe9ff" stroke-width="0"><path d="M246.81268,189.50779c19.1514,0 34.67669,15.52528 34.67669,34.67669c0,0.05971 -2.93066,22.97213 -3.42556,26.84091c-10.42498,-0.00886 -20.84997,-0.0058 -31.27495,0.00884z" data-paper-data="{&quot;index&quot;:null}"/><path d="M212.62654,224.18447c0,-19.15141 15.52528,-34.67669 34.67669,-34.67669l0.02383,61.52571c-10.42139,0.01423 -20.84275,0.04003 -31.26405,0.07706c-0.46093,-3.60315 -3.43647,-26.86591 -3.43647,-26.92607z"/></g><path d="M212.62654,224.18447c0,-10.67498 4.82362,-20.22335 12.41014,-26.5844c0,0 3.54219,19.29509 7.03119,27.71352c3.56333,8.59778 13.37248,23.27537 15.02232,25.72022c-10.34243,0.0143 -20.68483,0.03999 -31.02718,0.07673c-0.46093,-3.60315 -3.43647,-26.86591 -3.43647,-26.92607z" fill="#ac9cc3" stroke-width="0"/><g fill="none" stroke-width="2"><path d="M247.06909,189.50779c19.1514,0 34.67669,15.52528 34.67669,34.67669c0,0.05971 -2.93078,22.973 -3.42559,26.84113" data-paper-data="{&quot;index&quot;:null}"/><path d="M215.80671,251.11146c-0.46054,-3.60014 -3.43659,-26.86682 -3.43659,-26.92699c0,-19.15141 15.52528,-34.67669 34.67669,-34.67669"/></g></g><g><path d="M214.52117,153.03216c0,-17.79154 14.4229,-32.21444 32.21444,-32.21444c17.79155,0 32.21444,14.4229 32.21444,32.21444c0,17.79154 -14.4229,32.21444 -32.21444,32.21444c-17.79154,0 -32.21444,-14.4229 -32.21444,-32.21444z" fill="#ebe9ff" stroke-width="2"/><path d="M214.29895,153.25438c0,-5.07537 2.27161,-12.09122 5.56081,-17.11113c4.1814,-6.38157 9.59658,-10.22209 9.59658,-10.22209c0,0 3.05997,18.99819 5.76426,28.43909c2.95853,10.32847 11.2928,31.10858 11.2928,31.10858c0,0 -11.92679,0.04657 -21.02428,-7.48764c-6.60324,-5.46857 -11.19016,-17.24422 -11.19016,-24.7268z" fill="#ac9cc3" stroke-width="0"/><path d="M214.52117,153.03216c0,-17.79154 14.4229,-32.21444 32.21444,-32.21444c17.79155,0 32.21444,14.4229 32.21444,32.21444c0,17.79154 -14.4229,32.21444 -32.21444,32.21444c-17.79154,0 -32.21444,-14.4229 -32.21444,-32.21444z" fill="none" stroke-width="2"/></g></g><path d="M173.20955,251.64405h144.37435z" fill="none" stroke-width="2"/></g></g></svg>