<svg version="1.1" xmlns="http://www.w3.org/2000/svg" xmlns:xlink="http://www.w3.org/1999/xlink" width="157.56409" height="158.52013" viewBox="0,0,157.56409,158.52013"><g transform="translate(-161.52285,-109.04701)"><g data-paper-data="{&quot;isPaintingLayer&quot;:true}" fill-rule="nonzero" stroke-linecap="butt" stroke-linejoin="miter" stroke-miterlimit="10" stroke-dasharray="" stroke-dashoffset="0" style="mix-blend-mode: normal"><path d="M162.73308,253.28555c0,0 10.97951,-48.5154 10.97951,-72.94439c0,-23.67196 -3.40743,-70.29415 -3.40743,-70.29415h144.37435c0,0 3.40744,41.71838 3.40744,64.23649c0,25.28524 -6.81488,92.25319 -6.81488,92.25319c0,0 -56.06063,-1.86203 -81.9627,-4.17275c-23.34458,-2.08256 -66.57629,-9.07839 -66.57629,-9.07839z" fill="#ffffff" stroke="#000000" stroke-width="2"/><g data-paper-data="{&quot;isHelperItem&quot;:true}"><text transform="translate(210.45939,150.01847) scale(0.5,0.5)" font-size="40" xml:space="preserve" fill="#fdfdfd" fill-rule="nonzero" stroke="none" stroke-width="1" stroke-linecap="butt" stroke-linejoin="miter" stroke-miterlimit="10" stroke-dasharray="" stroke-dashoffset="0" font-family="Sans Serif" font-weight="normal" text-anchor="start" style="mix-blend-mode: normal"><tspan x="0" dy="0">Gallery</tspan></text><g data-paper-data="{&quot;isSelectionBound&quot;:true,&quot;isHelperItem&quot;:true}" fill="none" stroke="#009dec" stroke-width="0.21092"><path d="M210.45939,155.78722v-11.5375v-11.5375h33.68998h33.68999v11.5375v11.5375h-33.68999z"/><path d="M243.93846,145.30429v-0.84365h-0.84366c-0.11649,0 -0.21091,-0.09443 -0.21091,-0.21091c0,-0.11649 0.09443,-0.21091 0.21091,-0.21091h0.84366v-0.84365c0,-0.11649 0.09443,-0.21091 0.21091,-0.21091c0.11649,0 0.21091,0.09443 0.21091,0.21091v0.84365h0.84365c0.11649,0 0.21091,0.09443 0.21091,0.21091c0,0.11649 -0.09443,0.21091 -0.21091,0.21091h-0.84365v0.84365c0,0.11649 -0.09443,0.21091 -0.21091,0.21091c-0.11649,0 -0.21091,-0.09443 -0.21091,-0.21091z"/></g></g><text transform="translate(194.7087,235.04589) rotate(4.45342) scale(0.62725,0.50087) skewX(-2.04349)" font-size="40" xml:space="preserve" fill="#020000" fill-rule="nonzero" stroke="none" stroke-width="1" stroke-linecap="butt" stroke-linejoin="miter" stroke-miterlimit="10" stroke-dasharray="" stroke-dashoffset="0" font-family="Sans Serif" font-weight="normal" text-anchor="start" style="mix-blend-mode: normal"><tspan x="0" dy="0">Gallery</tspan></text><path d="M176.95099,201.02973c0.98058,-7.53422 1.63794,-14.7311 1.63794,-20.48589c0,-21.94127 -3.15831,-65.15485 -3.15831,-65.15485h133.81895c0,0 3.15832,38.6683 3.15832,59.54008c0,8.20094 -0.77344,21.13254 -1.77902,34.47994c0,0 -52.49029,-1.59993 -76.08988,-3.07922c-20.53085,-1.28693 -57.588,-5.30006 -57.588,-5.30006z" fill="#000000" stroke="#000000" stroke-width="0.5"/></g></g></svg>