<svg version="1.1" xmlns="http://www.w3.org/2000/svg" xmlns:xlink="http://www.w3.org/1999/xlink" width="219.37268" height="476.78518" viewBox="0,0,219.37268,476.78518"><defs><linearGradient x1="239.44796" y1="61.55771" x2="239.44796" y2="207.72728" gradientUnits="userSpaceOnUse" id="color-1"><stop offset="0" stop-color="#daa060"/><stop offset="1" stop-color="#9d5000"/></linearGradient><linearGradient x1="240.37869" y1="61.55771" x2="240.37869" y2="207.72728" gradientUnits="userSpaceOnUse" id="color-2"><stop offset="0" stop-color="#daa060"/><stop offset="1" stop-color="#9d5000"/></linearGradient><linearGradient x1="239.45803" y1="61.55771" x2="239.45803" y2="207.72728" gradientUnits="userSpaceOnUse" id="color-3"><stop offset="0" stop-color="#daa060"/><stop offset="1" stop-color="#9d5000"/></linearGradient><linearGradient x1="240.36863" y1="61.55771" x2="240.36863" y2="207.72728" gradientUnits="userSpaceOnUse" id="color-4"><stop offset="0" stop-color="#daa060"/><stop offset="1" stop-color="#9d5000"/></linearGradient></defs><g transform="translate(-130.31366,58.2657)"><g data-paper-data="{&quot;isPaintingLayer&quot;:true}" fill-rule="nonzero" stroke-linejoin="miter" stroke-miterlimit="10" stroke-dasharray="" stroke-dashoffset="0" style="mix-blend-mode: normal"><g stroke-width="3"><g fill="#fff584" stroke="#b3a934"><path d="M183.78914,252.44914l-49.67418,-11.63774c0,0 -1.62387,-7.78854 0.66398,-19.22981c0.83102,-4.15579 4.85709,-8.36701 5.87544,-13.46518c8.69037,-43.50657 23.09119,-115.8253 24.2408,-123.04651c1.98974,-12.49845 13.73474,-21.01743 26.23319,-19.02769c12.49844,1.98974 21.01743,13.73474 19.02769,26.23318c-1.98974,12.49845 -26.36691,160.17376 -26.36691,160.17376z" stroke-linecap="butt"/><path d="M185.70674,239.3075c0.71225,3.69468 0.77207,8.16311 0.02161,12.87709c-1.83362,11.51781 -2.52085,20.98207 -13.34882,19.25826c-10.82798,-1.72381 -8.54231,-10.93359 -6.70868,-22.4514c0.6948,-4.36433 1.98443,-8.31293 3.61969,-11.48623" stroke-linecap="butt"/><path d="M171.88084,235.67786c0.71225,3.69468 0.77207,9.59168 0.02161,14.30566c-1.83363,11.51781 -2.52085,20.98207 -13.34882,19.25826c-10.82797,-1.72381 -8.54231,-10.93359 -6.70868,-22.4514c0.5176,-3.25129 1.16124,-5.45552 2.23605,-8.0967" stroke-linecap="butt"/><path d="M157.21965,238.40824c0.195,2.82724 0.06095,5.93895 -0.45275,9.16572c-1.83362,11.51781 -2.52084,20.98207 -13.34882,19.25826c-10.82797,-1.72381 -8.54231,-10.93359 -6.70868,-22.4514c0.6948,-4.36433 1.98443,-8.31292 3.61969,-11.48622" stroke-linecap="butt"/><path d="M148.3435,222.28407c0.66618,2.54606 0.81422,5.60757 0.30291,8.81931c-1.24928,7.84732 -5.96163,13.61985 -10.52532,12.89331c-4.56369,-0.72654 -7.25054,-7.67701 -6.00126,-15.52433c0.47338,-2.97351 1.44399,-5.64912 2.71533,-7.78612" stroke-linecap="butt"/><path d="M178.32786,235.5336c0,0 -9.08991,2.22007 -13.67769,2.60239c-4.3824,0.36519 -13.26109,-0.3575 -13.26109,-0.3575" stroke-linecap="round"/></g><path d="M163.73284,83.39087c2.13105,-13.38608 14.71018,-22.51008 28.09626,-20.37903c13.38608,2.13105 22.51008,14.71018 20.37903,28.09625c-0.82986,5.21272 -10.43989,63.84239 -10.43989,63.84239c0,0 -13.58703,4.79441 -16.87108,6.95371c-2.86342,1.88273 -1.74485,5.28647 -1.74485,5.28647c0,0 -5.22569,-1.53059 -6.14858,-2.50578c-1.29433,-1.36767 -0.88723,-4.92867 -0.88723,-4.92867c0,0 -2.22199,5.05189 -8.09971,6.94462c-3.76403,1.21209 -14.02006,-0.4367 -14.02006,-0.4367c0,0 2.12107,-3.22572 1.53048,-5.00908c-0.71547,-2.16046 -5.52098,-7.0407 -5.52098,-7.0407c0,0 12.9666,-66.04942 13.72662,-70.82347z" fill="#544945" stroke="#413530" stroke-linecap="butt"/></g><g stroke-width="3"><g data-paper-data="{&quot;index&quot;:null}" fill="#fff584" stroke="#b3a934"><path d="M269.84395,92.27538c-1.98974,-12.49845 6.52924,-24.24344 19.02769,-26.23318c12.49845,-1.98974 24.24345,6.52925 26.23319,19.02769c1.14961,7.22122 15.55043,79.53994 24.2408,123.04652c1.01835,5.09817 5.04442,9.30939 5.87544,13.46518c2.28786,11.44127 0.66398,19.22981 0.66398,19.22981l-49.67418,11.63774c0,0 -24.37717,-147.67531 -26.36691,-160.17376z" stroke-linecap="butt"/><path d="M310.70946,237.50523c1.63526,3.1733 2.92489,7.12189 3.61969,11.48623c1.83363,11.51781 4.1193,20.72759 -6.70868,22.4514c-10.82798,1.72381 -11.5152,-7.74045 -13.34882,-19.25826c-0.75046,-4.71398 -0.69065,-9.18241 0.02161,-12.87709" stroke-linecap="butt"/><path d="M325.91899,238.69368c1.07481,2.64118 1.71845,4.84542 2.23605,8.0967c1.83363,11.51781 4.1193,20.72759 -6.70868,22.4514c-10.82798,1.72381 -11.5152,-7.74045 -13.34882,-19.25826c-0.75046,-4.71398 -0.69065,-10.61097 0.02161,-14.30566" stroke-linecap="butt"/><path d="M339.67091,232.89459c1.63526,3.1733 2.92489,7.12189 3.61969,11.48622c1.83363,11.51781 4.11929,20.7276 -6.70868,22.4514c-10.82798,1.72381 -11.51519,-7.74045 -13.34882,-19.25826c-0.5137,-3.22677 -0.64775,-6.33847 -0.45275,-9.16572" stroke-linecap="butt"/><path d="M345.16483,220.68623c1.27134,2.137 2.24196,4.81261 2.71534,7.78612c1.24928,7.84732 -1.43757,14.7978 -6.00126,15.52433c-4.56369,0.72654 -9.27604,-5.04599 -10.52532,-12.89331c-0.5113,-3.21174 -0.36327,-6.27324 0.30292,-8.81931" stroke-linecap="butt"/><path d="M328.61091,237.77849c0,0 -8.87868,0.72269 -13.26108,0.3575c-4.58778,-0.38232 -13.67769,-2.60239 -13.67769,-2.60239" stroke-linecap="round"/></g><path d="M329.94072,154.21435c0,0 -1.65591,8.75477 -4.99495,12.02875c-2.95148,2.89398 -14.02042,6.61614 -14.02042,6.61614c0,0 1.66992,-5.63313 0.68975,-8.35523c-1.32858,-3.68966 -5.62387,-4.76542 -7.78465,-4.74779c-0.54793,0.00447 -2.74598,7.95998 -6.94146,12.08762c-4.52231,4.44917 -11.04358,5.09441 -11.04358,5.09441c0,0 2.63808,-8.39935 1.78711,-10.83988c-1.41008,-4.04404 -9.45383,-11.14787 -9.45383,-11.14787c0,0 -9.61003,-58.62967 -10.43989,-63.84239c-2.13105,-13.38608 6.99295,-25.9652 20.37903,-28.09625c13.38608,-2.13105 25.96521,6.99295 28.09626,20.37903c0.76002,4.77405 13.72662,70.82348 13.72662,70.82348z" data-paper-data="{&quot;index&quot;:null}" fill="#544945" stroke="#413530" stroke-linecap="butt"/></g><g fill="#443d3b" stroke="#302826" stroke-width="3" stroke-linecap="round"><path d="M238.02807,189.6757l1.02566,213.84525l-7.16867,13.24477l-54.9742,-13.24477l-3.57143,-213.84526"/><path d="M307.47136,189.67569l-3.57143,213.84526l-56.88353,13.24477l-5.25934,-13.24477l1.02566,-213.84525" data-paper-data="{&quot;index&quot;:null}"/></g><g fill="#7a706c" stroke-width="0" stroke-linecap="round"><path d="M242.03607,61.77476l-0.00957,145.83297l-5.76377,0.11955l-66.04861,-16.81051l20.05616,-74.52081c0,0 -6.51383,-6.24356 -8.98193,-9.93119c-2.4355,-3.63893 -5.73021,-12.05043 -5.73021,-12.05043c0,0 8.60089,-17.25094 13.58162,-22.54199c1.62111,-1.7221 6.58882,-5.50231 11.90731,-7.48331c6.39774,-2.383 13.14889,-2.83132 13.14889,-2.83132" stroke="url(#color-1)"/><path d="M265.6307,61.55771c0,0 6.75114,0.44832 13.14889,2.83132c5.31848,1.981 10.2862,5.76121 11.90731,7.48331c4.98073,5.29105 13.58162,22.54199 13.58162,22.54199c0,0 -3.2947,8.4115 -5.73021,12.05043c-2.4681,3.68763 -8.98193,9.93119 -8.98193,9.93119l20.05616,74.52081l-66.04862,16.81051l-3.55093,-0.11955l-0.00958,-145.83296" data-paper-data="{&quot;index&quot;:null}" stroke="url(#color-2)"/></g><g stroke-linecap="round"><g><path d="M241.99015,61.77476l-0.00936,145.83297l-5.63908,0.11955l-64.61977,-16.81051l19.62228,-74.52081c0,0 -6.37291,-6.24356 -8.78762,-9.93119c-2.38281,-3.63893 -5.60625,-12.05043 -5.60625,-12.05043c0,0 8.41482,-17.25094 13.2878,-22.54199c1.58604,-1.7221 6.44629,-5.50231 11.64972,-7.48331c6.25934,-2.383 12.86443,-2.83132 12.86443,-2.83132" fill="#7b716e" stroke="url(#color-3)" stroke-width="0"/><path d="M265.07435,61.55771c0,0 6.60509,0.44832 12.86443,2.83132c5.20342,1.981 10.06367,5.76121 11.64971,7.48331c4.87299,5.29105 13.28781,22.54199 13.28781,22.54199c0,0 -3.22343,8.4115 -5.60625,12.05043c-2.41471,3.68763 -8.78762,9.93119 -8.78762,9.93119l19.62228,74.52081l-64.61977,16.81051l-3.47411,-0.11955l-0.00937,-145.83296" data-paper-data="{&quot;index&quot;:null}" fill="#7b716e" stroke="url(#color-4)" stroke-width="0"/><path d="M239.81582,207.60773l-3.47411,0.11955l-64.61977,-16.81051l19.62228,-74.52081c0,0 -6.37291,-6.24356 -8.78762,-9.93119c-2.38281,-3.63893 -5.60625,-12.05043 -5.60625,-12.05043c0,0 8.41482,-17.25094 13.2878,-22.54199c1.58604,-1.7221 6.44629,-5.50231 11.64972,-7.48331c6.25934,-2.383 12.86443,-2.83132 12.86443,-2.83132" fill="none" stroke="#5e524e" stroke-width="3"/><path d="M265.07435,61.55771c0,0 6.60509,0.44832 12.86443,2.83132c5.20342,1.981 10.06367,5.76121 11.64971,7.48331c4.87299,5.29105 13.28781,22.54199 13.28781,22.54199c0,0 -3.22343,8.4115 -5.60625,12.05043c-2.41471,3.68763 -8.78762,9.93119 -8.78762,9.93119l19.62228,74.52081l-64.61977,16.81051l-3.47411,-0.11955" data-paper-data="{&quot;index&quot;:null}" fill="none" stroke="#5e524e" stroke-width="3"/></g><path d="M295.72765,95.54619c0,0 -38.04912,3.49168 -56.81818,3.49168c-7.3217,0 -17.47361,-0.55081 -27.0526,-1.21488c-0.65454,-0.04538 -1.30642,-0.09128 -1.95452,-0.13757c-13.74781,-0.98202 -25.80335,-2.13922 -25.80335,-2.13922" fill="none" stroke="#5e524e" stroke-width="3"/></g><g fill="#544945" stroke="#413530" stroke-width="0" stroke-linecap="round"><path d="M244.59808,240.56436c-27.55219,0.23846 -72.30998,-11.943 -72.30998,-11.943l-2.07398,-37.70459l20.05616,-74.52081c0,0 -6.51383,-6.24356 -8.98193,-9.93119c-2.4355,-3.63893 -5.73021,-12.05043 -5.73021,-12.05043c0,0 8.60089,-17.25094 13.58162,-22.54199c1.62111,-1.7221 6.58882,-5.50231 11.90731,-7.48331c6.39774,-2.383 41.36666,-2.83132 41.36666,-2.83132"/><path d="M234.6127,61.55771c0,0 37.76915,0.44832 44.16689,2.83132c5.31848,1.981 10.2862,5.76121 11.90731,7.48331c4.98073,5.29105 13.58162,22.54199 13.58162,22.54199c0,0 -3.2947,8.4115 -5.73021,12.05043c-2.4681,3.68763 -8.98193,9.93119 -8.98193,9.93119l20.05616,74.52081c0,0 1.5117,17.7164 1.41917,25.46603c-0.07771,6.5083 -1.93767,17.96115 -1.93767,17.96115c0,0 -57.51535,8.02894 -68.11496,6.33997" data-paper-data="{&quot;index&quot;:null}"/></g><path d="M240.63083,240.56436c-27.68839,-0.30631 -68.34274,-11.943 -68.34274,-11.943l-2.07398,-37.70459l20.05616,-74.52081c0,0 -6.51383,-6.24356 -8.98193,-9.93119c-2.4355,-3.63893 -5.73021,-12.05043 -5.73021,-12.05043c0,0 8.60089,-17.25094 13.58162,-22.54199c1.62111,-1.7221 6.58882,-5.50231 11.90731,-7.48331c6.39774,-2.383 13.14889,-2.83132 13.14889,-2.83132" fill="none" stroke="#413530" stroke-width="3" stroke-linecap="round"/><path d="M265.6307,61.55771c0,0 6.75114,0.44832 13.14889,2.83132c5.31848,1.981 10.2862,5.76121 11.90731,7.48331c4.98073,5.29105 13.58162,22.54199 13.58162,22.54199c0,0 -3.2947,8.4115 -5.73021,12.05043c-2.4681,3.68763 -8.98193,9.93119 -8.98193,9.93119l20.05616,74.52081c0,0 1.5117,17.7164 1.41917,25.46603c-0.07771,6.5083 -1.93767,17.96115 -1.93767,17.96115c0,0 -58.7411,7.34797 -69.34071,6.20377" data-paper-data="{&quot;index&quot;:null}" fill="none" stroke="#413530" stroke-width="3" stroke-linecap="round"/><path d="M180.68015,0.03375c0,-31.36946 25.42998,-56.79945 56.79945,-56.79945c31.36947,0 56.79945,25.42998 56.79945,56.79945c0,31.36947 -25.42998,56.79945 -56.79945,56.79945c-31.36947,0 -56.79945,-25.42998 -56.79945,-56.79945z" fill="#fff584" stroke="#b3a934" stroke-width="3" stroke-linecap="butt"/><path d="M203.89943,0.03375c0,-25.34623 20.54719,-45.89342 45.89342,-45.89342c25.34623,0 45.89342,20.54719 45.89342,45.89342c0,25.34624 -20.54719,45.89342 -45.89342,45.89342c-25.34623,0 -45.89342,-20.54718 -45.89342,-45.89342z" fill="#000000" stroke="#b3a934" stroke-width="3" stroke-linecap="butt"/><g stroke-width="3" stroke-linecap="butt"><path d="M226.50696,6.12667c-0.18252,13.49333 -10.12535,23.86908 -22.20799,23.17488c-12.08262,-0.6942 -21.72956,-12.19546 -21.54703,-25.68878c0.18252,-13.49333 10.12535,-23.86907 22.20795,-23.17489c12.08262,0.69421 21.72957,12.19544 21.54704,25.68876z" fill="#ffe1c2" stroke="#d4a676"/><path d="M226.72735,5.32007c0,10.5979 -5.21107,19.18919 -11.63925,19.18919c-6.42819,0 -11.63926,-8.59129 -11.63926,-19.18919c0,-10.59789 5.21107,-19.18919 11.63926,-19.18919c6.42819,0 11.63925,8.5913 11.63925,19.18919z" fill="#080808" stroke="#27104d"/></g><g data-paper-data="{&quot;index&quot;:null}" stroke="#ffffff" stroke-width="3" stroke-linecap="butt"><path d="M248.45226,6.12664c-0.18253,-13.49332 9.46443,-24.99455 21.54705,-25.68876c12.0826,-0.69418 22.02543,9.68156 22.20795,23.17489c0.18253,13.49332 -9.46441,24.99458 -21.54703,25.68878c-12.08265,0.6942 -22.02547,-9.68155 -22.20799,-23.17488z" fill="#000000"/><path d="M259.87108,-13.86912c6.42819,0 11.63926,8.5913 11.63926,19.18919c0,10.5979 -5.21107,19.18919 -11.63926,19.18919c-6.42818,0 -11.63925,-8.59129 -11.63925,-19.18919c0,-10.59789 5.21106,-19.18919 11.63925,-19.18919z" fill="#080808"/></g><g stroke="#6c5b55" stroke-width="3" stroke-linecap="round"><path d="M211.35284,44.67358c0,0 19.95551,-3.90164 29.62873,-3.90164c9.28354,0 27.28962,3.90164 27.28962,3.90164l-5.19802,19.6858c0,0 -4.30989,3.25099 -24.25832,2.72998c-17.68923,-0.22529 -21.72172,-4.12342 -21.72172,-4.12342z" data-paper-data="{&quot;index&quot;:null}" fill="#857a76"/><path d="M222.93114,47.65627l1.16027,3.77087l-5.51126,3.28741l-4.44769,-10.44239" fill="none"/><path d="M250.7775,64.19006l-6.96159,-3.67418l6.96159,-3.86755l10.15232,7.34834" fill="none"/><path d="M218.00001,62.44965l11.31259,-7.54172l4.15762,2.41721l6.8649,-5.70463" fill="none"/><path d="M229.21591,42.04833l-0.77351,6.18808l6.18808,0.67682l8.12185,-3.67417l3.67418,6.38146l-7.7351,6.96159" fill="none"/><path d="M262.67022,47.75297l-2.41722,0.8702l-1.93378,-3.67418l-9.08874,3.28742l-0.8702,-6.96159" fill="none"/><path d="M266.2477,50.07349l-7.05828,7.34834l-4.64106,-4.54437l-1.83709,0.58013" fill="none"/><path d="M223.99472,64.96356l6.09139,-3.48079l3.86755,1.16026l3.67417,-1.25696l4.73775,4.54437" fill="none"/></g><g><path d="M266.88462,60.91742c0.10892,1.34192 -1.91197,2.29404 -2.25864,2.60656c-5.4323,4.89714 -16.33964,7.33018 -24.33666,7.33018c-7.90389,0 -18.83111,-2.17324 -24.66582,-6.8887c-0.55284,-0.44679 -2.85917,-1.3489 -2.80216,-2.93098" fill="none" stroke="#3c2b24" stroke-width="4" stroke-linecap="round"/><g stroke-width="2" stroke-linecap="butt"><g fill="#ffcd97" stroke="#e89031"><path d="M228.67323,74.66808l11.39325,-11.39325l11.39325,11.39325l-11.39325,11.39325z"/><path d="M232.01025,82.72432v-16.11248h16.11248v16.11248z"/></g><path d="M233.25798,74.45531c0,-3.81899 3.0959,-6.91489 6.91489,-6.91489c3.81899,0 6.91489,3.0959 6.91489,6.91489c0,3.81899 -3.0959,6.91489 -6.91489,6.91489c-3.81899,0 -6.91489,-3.0959 -6.91489,-6.91489z" fill="#ff8200" stroke="#9a4e00"/><path d="M238.07304,74.23697c0,1.46203 -0.81089,2.64723 -1.81117,2.64723c-1.00028,0 -1.81117,-1.18521 -1.81117,-2.64723c0,-1.46202 0.81089,-2.64723 1.81117,-2.64723c1.00028,0 1.81117,1.18521 1.81117,2.64723z" fill="#080808" stroke="#27104d"/><path d="M245.7326,74.23697c0,1.46202 -0.81089,2.64723 -1.81117,2.64723c-1.00028,0 -1.81117,-1.18521 -1.81117,-2.64723c0,-1.46202 0.81089,-2.64723 1.81117,-2.64723c1.00028,0 1.81117,1.18521 1.81117,2.64723z" fill="#080808" stroke="#27104d"/></g></g><path d="M296.96179,95.54619c0,0 -38.89044,3.49168 -58.07452,3.49168c-7.48359,0 -17.85998,-0.55081 -27.65078,-1.21488c-0.66902,-0.04538 -1.33531,-0.09128 -1.99774,-0.13757c-14.0518,-0.98202 -26.3739,-2.13922 -26.3739,-2.13922" fill="none" stroke="#413530" stroke-width="3" stroke-linecap="round"/></g></g></svg>