<svg version="1.1" xmlns="http://www.w3.org/2000/svg" xmlns:xlink="http://www.w3.org/1999/xlink" width="118.00612" height="116.5989" viewBox="0,0,118.00612,116.5989"><g transform="translate(-180.99694,-121.70055)"><g data-paper-data="{&quot;isPaintingLayer&quot;:true}" fill-rule="nonzero" stroke-width="3" stroke-linecap="butt" stroke-linejoin="miter" stroke-miterlimit="10" stroke-dasharray="" stroke-dashoffset="0" style="mix-blend-mode: normal"><path d="M182.49694,180c0,-31.36946 25.42998,-56.79945 56.79945,-56.79945c31.36947,0 56.79945,25.42998 56.79945,56.79945c0,31.36947 -25.42998,56.79945 -56.79945,56.79945c-31.36947,0 -56.79945,-25.42998 -56.79945,-56.79945z" fill="#fff584" stroke="#b3a934"/><path d="M205.71622,180c0,-25.34623 20.54719,-45.89342 45.89342,-45.89342c25.34623,0 45.89342,20.54719 45.89342,45.89342c0,25.34624 -20.54719,45.89342 -45.89342,45.89342c-25.34623,0 -45.89342,-20.54718 -45.89342,-45.89342z" fill="#000000" stroke="#b3a934"/><g><path d="M228.32375,186.09292c-0.18252,13.49333 -10.12535,23.86908 -22.20799,23.17488c-12.08262,-0.6942 -21.72956,-12.19546 -21.54703,-25.68878c0.18252,-13.49333 10.12535,-23.86907 22.20795,-23.17489c12.08262,0.69421 21.72957,12.19544 21.54704,25.68876z" fill="#ffe1c2" stroke="#d4a676"/><path d="M228.54414,185.28632c0,10.5979 -5.21107,19.18919 -11.63925,19.18919c-6.42819,0 -11.63926,-8.59129 -11.63926,-19.18919c0,-10.59789 5.21107,-19.18919 11.63926,-19.18919c6.42819,0 11.63925,8.5913 11.63925,19.18919z" fill="#080808" stroke="#27104d"/></g><g data-paper-data="{&quot;index&quot;:null}" stroke="#ffffff"><path d="M250.26905,186.09289c-0.18253,-13.49332 9.46443,-24.99455 21.54705,-25.68876c12.0826,-0.69418 22.02543,9.68156 22.20795,23.17489c0.18253,13.49332 -9.46441,24.99458 -21.54703,25.68878c-12.08265,0.6942 -22.02547,-9.68155 -22.20799,-23.17488z" fill="#000000"/><path d="M261.68787,166.09712c6.42819,0 11.63926,8.5913 11.63926,19.18919c0,10.5979 -5.21107,19.18919 -11.63926,19.18919c-6.42818,0 -11.63925,-8.59129 -11.63925,-19.18919c0,-10.59789 5.21106,-19.18919 11.63925,-19.18919z" fill="#080808"/></g></g></g></svg>