<svg version="1.1" xmlns="http://www.w3.org/2000/svg" xmlns:xlink="http://www.w3.org/1999/xlink" width="201.59543" height="481.47403" viewBox="0,0,201.59543,481.47403"><defs><linearGradient x1="239.53464" y1="61.55774" x2="239.53464" y2="207.7273" gradientUnits="userSpaceOnUse" id="color-1"><stop offset="0" stop-color="#daa060"/><stop offset="1" stop-color="#9d5000"/></linearGradient><linearGradient x1="240.46537" y1="61.55774" x2="240.46537" y2="207.7273" gradientUnits="userSpaceOnUse" id="color-2"><stop offset="0" stop-color="#daa060"/><stop offset="1" stop-color="#9d5000"/></linearGradient><linearGradient x1="239.5447" y1="61.55774" x2="239.5447" y2="207.7273" gradientUnits="userSpaceOnUse" id="color-3"><stop offset="0" stop-color="#daa060"/><stop offset="1" stop-color="#9d5000"/></linearGradient><linearGradient x1="240.4553" y1="61.55774" x2="240.4553" y2="207.7273" gradientUnits="userSpaceOnUse" id="color-4"><stop offset="0" stop-color="#daa060"/><stop offset="1" stop-color="#9d5000"/></linearGradient></defs><g transform="translate(-122.12361,58.26568)"><g data-paper-data="{&quot;isPaintingLayer&quot;:true}" fill-rule="nonzero" stroke-linejoin="miter" stroke-miterlimit="10" stroke-dasharray="" stroke-dashoffset="0" style="mix-blend-mode: normal"><g data-paper-data="{&quot;index&quot;:null}" stroke-width="3"><path d="M313.36816,84.4979c0.27077,2.76842 3.35156,26.03189 5.9189,45.28763c-9.78483,1.25937 -19.30808,3.29056 -29.22041,4.82412c-6.33265,0.97974 -12.81036,0.97377 -19.09734,2.06277c-0.43251,0.07492 -0.98534,0.21039 -1.58112,0.39476c-1.8323,-17.90424 -4.53671,-44.35655 -4.87264,-47.79112c-1.31946,-13.49026 8.54694,-25.49593 22.03722,-26.81538c13.49027,-1.31945 25.49595,8.54695 26.8154,22.03722z" fill="#544945" stroke="#413530" stroke-linecap="butt"/><g><g data-paper-data="{&quot;index&quot;:null}" fill="#fff584" stroke="#b3a934"><path d="M285.93529,257.88273l-46.80332,-20.3079c0,0 -0.2092,-7.95327 4.0819,-18.80331c1.55865,-3.94103 6.27106,-7.36695 8.18206,-12.20187c6.29807,-15.93433 14.20034,-35.94515 21.66774,-54.90477c10.9748,-27.86483 56.93816,-17.31548 46.88027,10.89327c-15.50011,43.47221 -34.00865,95.32459 -34.00865,95.32459z" stroke-linecap="butt"/><path d="M290.16525,245.29355c0.04209,3.76247 -0.69575,8.16997 -2.27466,12.67462c-3.8578,11.00633 -6.22143,20.19642 -16.56857,16.56967c-10.34714,-3.62676 -6.45604,-12.28145 -2.59823,-23.28778c1.4618,-4.17052 3.43478,-7.82591 5.60962,-10.65681" stroke-linecap="butt"/><path d="M277.20802,239.25699c0.0421,3.76247 -0.95045,9.57565 -2.52936,14.0803c-3.85781,11.00634 -6.22143,20.19642 -16.56857,16.56967c-10.34713,-3.62675 -6.45604,-12.28145 -2.59823,-23.28778c1.08899,-3.10691 2.11532,-5.16107 3.64382,-7.5683" stroke-linecap="butt"/><path d="M262.29492,239.32961c-0.31221,2.81671 -0.9989,5.85465 -2.07969,8.93813c-3.85779,11.00633 -6.22143,20.19643 -16.56857,16.56967c-10.34714,-3.62675 -6.45604,-12.28145 -2.59823,-23.28779c1.4618,-4.17052 3.43478,-7.82591 5.60962,-10.65681" stroke-linecap="butt"/><path d="M256.43584,221.88123c0.20156,2.62404 -0.19862,5.66289 -1.27437,8.73201c-2.6284,7.49884 -8.29445,12.3387 -12.65548,10.81012c-4.36103,-1.52858 -5.7656,-8.84674 -3.1372,-16.34558c0.99596,-2.84146 2.42806,-5.30115 4.06004,-7.17723" stroke-linecap="butt"/><path d="M283.57746,240.2645c0,0 -9.34009,0.56382 -13.92253,0.12204c-4.37729,-0.42201 -12.98487,-2.71615 -12.98487,-2.71615" stroke-linecap="round"/></g><path d="M318.71687,124.38844c0,0 6.20556,30.69632 2.0958,40.60833l-0.00001,0.00001c-1.85152,4.46554 -9.8592,24.37497 -9.8592,24.37497c0,0 -6.64918,1.6426 -8.38974,3.10887c-1.43675,1.21033 -1.3181,5.06912 -1.3181,5.06912c0,0 -9.60165,-3.96393 -12.17426,-6.96706c-4.01727,-4.68952 -3.26596,-10.1571 -3.26596,-10.1571c0,0 -1.51722,3.24722 -3.33598,3.73498c-1.29683,0.34779 -6.55056,-1.0836 -6.55056,-1.0836c0,0 2.73484,-2.31458 1.28065,-5.41768c-1.66781,-3.55893 -10.73476,-14.75643 -10.73476,-14.75643c0,0 6.98356,-11.83043 9.00521,-16.70629c3.57536,-8.62312 11.42539,-15.02027 11.42539,-15.02027" data-paper-data="{&quot;index&quot;:null}" fill="#544945" stroke="#413530" stroke-linecap="butt"/></g></g><g stroke-width="3"><path d="M161.8607,84.49789c1.31946,-13.49027 13.32513,-23.35667 26.8154,-22.03722c13.49027,1.31945 23.35667,13.32512 22.03722,26.81539c-0.33593,3.43457 -3.04033,29.88688 -4.87264,47.79112c-0.59578,-0.18437 -1.14861,-0.31984 -1.58112,-0.39476c-6.28698,-1.089 -12.76469,-1.08303 -19.09734,-2.06277c-9.91233,-1.53356 -19.43558,-3.56475 -29.22041,-4.82412c2.56733,-19.25575 5.64812,-42.51921 5.91889,-45.28763z" fill="#544945" stroke="#413530" stroke-linecap="butt"/><g><g data-paper-data="{&quot;index&quot;:null}" fill="#fff584" stroke="#b3a934"><path d="M189.29357,257.88274c0,0 -18.50854,-51.85239 -34.00865,-95.32459c-10.0579,-28.20875 35.90547,-38.7581 46.88027,-10.89327c7.4674,18.95962 15.36967,38.97044 21.66774,54.90477c1.911,4.83492 6.62341,8.26084 8.18206,12.20188c4.2911,10.85004 4.0819,18.80331 4.0819,18.80331l-46.80331,20.3079z" stroke-linecap="butt"/><path d="M200.89546,240.59323c2.17484,2.8309 4.14781,6.48629 5.60962,10.65681c3.85781,11.00633 7.74891,19.66102 -2.59823,23.28778c-10.34714,3.62675 -12.71077,-5.56333 -16.56857,-16.56967c-1.57891,-4.50465 -2.31675,-8.91214 -2.27466,-12.67462" stroke-linecap="butt"/><path d="M216.0732,239.05087c1.52849,2.40723 2.55482,4.46139 3.64381,7.5683c3.85781,11.00633 7.7489,19.66103 -2.59823,23.28778c-10.34714,3.62675 -12.71076,-5.56333 -16.56857,-16.56967c-1.57891,-4.50465 -2.57145,-10.31782 -2.52936,-14.0803" stroke-linecap="butt"/><path d="M228.57082,230.89283c2.17484,2.8309 4.14781,6.48629 5.60962,10.65681c3.85781,11.00634 7.7489,19.66103 -2.59823,23.28779c-10.34714,3.62676 -12.71077,-5.56334 -16.56857,-16.56967c-1.08078,-3.08348 -1.76748,-6.12143 -2.07969,-8.93813" stroke-linecap="butt"/><path d="M231.80004,217.90054c1.63198,1.87608 3.06408,4.33577 4.06004,7.17723c2.6284,7.49884 1.22383,14.817 -3.1372,16.34558c-4.36103,1.52858 -10.02708,-3.31128 -12.65548,-10.81012c-1.07575,-3.06912 -1.47593,-6.10797 -1.27437,-8.73201" stroke-linecap="butt"/><path d="M218.55881,237.67039c0,0 -8.60758,2.29414 -12.98487,2.71615c-4.58244,0.44178 -13.92253,-0.12204 -13.92253,-0.12204" stroke-linecap="round"/></g><path d="M188.33352,131.1763c0,0 7.85003,6.39715 11.42539,15.02027c2.02165,4.87586 9.00521,16.70629 9.00521,16.70629c0,0 -9.06695,11.1975 -10.73476,14.75643c-1.45419,3.10309 1.28065,5.41768 1.28065,5.41768c0,0 -5.25373,1.43139 -6.55056,1.0836c-1.81877,-0.48776 -3.33598,-3.73498 -3.33598,-3.73498c0,0 0.75131,5.46758 -3.26596,10.1571c-2.57261,3.00313 -12.17426,6.96706 -12.17426,6.96706c0,0 0.11865,-3.85878 -1.31809,-5.06912c-1.74056,-1.46627 -8.38974,-3.10887 -8.38974,-3.10887c0,0 -8.00768,-19.90943 -9.8592,-24.37497l-0.00001,-0.00001c-4.10976,-9.91201 2.09581,-40.60833 2.09581,-40.60833" data-paper-data="{&quot;index&quot;:null}" fill="#544945" stroke="#413530" stroke-linecap="butt"/></g></g><g fill="#443d3b" stroke="#302826" stroke-width="3" stroke-linecap="round"><path d="M238.02807,189.6757l12.48633,114.84894l-11.46067,98.99631l-7.16867,13.24477l-54.9742,-13.24477l9.44653,-93.50817l-11.65532,-77.08349l-2.00781,-43.2536"/><path d="M307.47136,189.67569l-0.33891,49.04787l-12.33675,77.73157l9.10423,87.06582l-56.88353,17.83937l-5.25934,-13.24477l-10.1315,-93.58411l11.15716,-124.85574" data-paper-data="{&quot;index&quot;:null}"/></g><g fill="#7a706c" stroke-width="0" stroke-linecap="round"><path d="M242.12274,61.77478l-0.00956,145.83297l-5.76377,0.11955l-66.04861,-16.81051l20.05616,-74.52081c0,0 -6.51383,-6.24356 -8.98193,-9.93119c-2.43551,-3.63893 -5.73021,-12.05043 -5.73021,-12.05043c0,0 8.60089,-17.25094 13.58162,-22.54199c1.62111,-1.7221 6.58882,-5.50231 11.9073,-7.48331c6.39774,-2.383 13.14889,-2.83132 13.14889,-2.83132" stroke="url(#color-1)"/><path d="M265.71738,61.55774c0,0 6.75114,0.44832 13.14889,2.83132c5.31848,1.981 10.2862,5.76121 11.90731,7.48331c4.98073,5.29105 13.58162,22.54199 13.58162,22.54199c0,0 -3.2947,8.4115 -5.73021,12.05043c-2.4681,3.68763 -8.98193,9.93119 -8.98193,9.93119l20.05616,74.52081l-66.04861,16.81051l-3.55094,-0.11955l-0.00958,-145.83296" data-paper-data="{&quot;index&quot;:null}" stroke="url(#color-2)"/></g><g stroke-linecap="round"><g><path d="M242.07682,61.77478l-0.00936,145.83297l-5.63908,0.11955l-64.61977,-16.81051l19.62228,-74.52081c0,0 -6.37292,-6.24356 -8.78762,-9.93119c-2.38281,-3.63893 -5.60625,-12.05043 -5.60625,-12.05043c0,0 8.41482,-17.25094 13.2878,-22.54199c1.58604,-1.7221 6.44629,-5.50231 11.64972,-7.48331c6.25934,-2.383 12.86443,-2.83132 12.86443,-2.83132" fill="#7b716e" stroke="url(#color-3)" stroke-width="0"/><path d="M265.16103,61.55774c0,0 6.60509,0.44832 12.86443,2.83132c5.20342,1.981 10.06367,5.76121 11.64971,7.48331c4.87298,5.29105 13.2878,22.54199 13.2878,22.54199c0,0 -3.22343,8.4115 -5.60624,12.05043c-2.41471,3.68763 -8.78762,9.93119 -8.78762,9.93119l19.62228,74.52081l-64.61977,16.81051l-3.47411,-0.11955l-0.00938,-145.83296" data-paper-data="{&quot;index&quot;:null}" fill="#7b716e" stroke="url(#color-4)" stroke-width="0"/><path d="M239.9025,207.60775l-3.47411,0.11955l-64.61977,-16.81051l19.62228,-74.52081c0,0 -6.37292,-6.24356 -8.78762,-9.93119c-2.38281,-3.63893 -5.60625,-12.05043 -5.60625,-12.05043c0,0 8.41482,-17.25094 13.2878,-22.54199c1.58604,-1.7221 6.44629,-5.50231 11.64972,-7.48331c6.25934,-2.383 12.86443,-2.83132 12.86443,-2.83132" fill="none" stroke="#5e524e" stroke-width="3"/><path d="M265.16103,61.55774c0,0 6.60509,0.44832 12.86443,2.83132c5.20342,1.981 10.06367,5.76121 11.64971,7.48331c4.87298,5.29105 13.2878,22.54199 13.2878,22.54199c0,0 -3.22343,8.4115 -5.60624,12.05043c-2.41471,3.68763 -8.78762,9.93119 -8.78762,9.93119l19.62228,74.52081l-64.61977,16.81051l-3.47411,-0.11955" data-paper-data="{&quot;index&quot;:null}" fill="none" stroke="#5e524e" stroke-width="3"/></g><path d="M295.81432,95.54621c0,0 -38.04912,3.49168 -56.81818,3.49168c-7.3217,0 -17.47361,-0.55081 -27.0526,-1.21488c-0.65455,-0.04538 -1.30642,-0.09128 -1.95452,-0.13757c-13.74781,-0.98202 -25.80335,-2.13922 -25.80335,-2.13922" fill="none" stroke="#5e524e" stroke-width="3"/></g><g fill="#544945" stroke="#413530" stroke-width="0" stroke-linecap="round"><path d="M244.68475,240.56438c-27.5522,0.23846 -72.30998,-11.943 -72.30998,-11.943l-2.07398,-37.70459l20.05616,-74.52081c0,0 -6.51383,-6.24356 -8.98193,-9.93119c-2.43551,-3.63893 -5.73021,-12.05043 -5.73021,-12.05043c0,0 8.60089,-17.25094 13.58162,-22.54199c1.62111,-1.7221 6.58882,-5.50231 11.9073,-7.48331c6.39774,-2.383 41.36666,-2.83132 41.36666,-2.83132"/><path d="M234.69937,61.55774c0,0 37.76915,0.44832 44.16689,2.83132c5.31848,1.981 10.2862,5.76121 11.90731,7.48331c4.98073,5.29105 13.58162,22.54199 13.58162,22.54199c0,0 -3.2947,8.4115 -5.73021,12.05043c-2.4681,3.68763 -8.98193,9.93119 -8.98193,9.93119l20.05616,74.52081c0,0 1.5117,17.7164 1.41917,25.46603c-0.0777,6.5083 -1.93766,17.96115 -1.93766,17.96115c0,0 -57.51535,8.02894 -68.11496,6.33997" data-paper-data="{&quot;index&quot;:null}"/></g><path d="M240.71751,240.56438c-27.68839,-0.30632 -68.34273,-11.943 -68.34273,-11.943l-2.07398,-37.70459l20.05616,-74.52081c0,0 -6.51383,-6.24356 -8.98193,-9.93119c-2.43551,-3.63893 -5.73021,-12.05043 -5.73021,-12.05043c0,0 8.60089,-17.25094 13.58162,-22.54199c1.62111,-1.7221 6.58882,-5.50231 11.9073,-7.48331c6.39774,-2.383 13.14889,-2.83132 13.14889,-2.83132" fill="none" stroke="#413530" stroke-width="3" stroke-linecap="round"/><path d="M265.71738,61.55774c0,0 6.75114,0.44832 13.14889,2.83132c5.31848,1.981 10.2862,5.76121 11.90731,7.48331c4.98073,5.29105 13.58162,22.54199 13.58162,22.54199c0,0 -3.2947,8.4115 -5.73021,12.05043c-2.4681,3.68763 -8.98193,9.93119 -8.98193,9.93119l20.05616,74.52081c0,0 1.5117,17.7164 1.41917,25.46603c-0.0777,6.5083 -1.93766,17.96115 -1.93766,17.96115c0,0 -58.7411,7.34797 -69.34071,6.20377" data-paper-data="{&quot;index&quot;:null}" fill="none" stroke="#413530" stroke-width="3" stroke-linecap="round"/><path d="M180.76682,0.03378c0,-31.36946 25.42998,-56.79945 56.79945,-56.79945c31.36947,0 56.79945,25.42998 56.79945,56.79945c0,31.36947 -25.42998,56.79945 -56.79945,56.79945c-31.36947,0 -56.79945,-25.42998 -56.79945,-56.79945z" fill="#fff584" stroke="#b3a934" stroke-width="3" stroke-linecap="butt"/><path d="M203.98611,0.03378c0,-25.34623 20.54718,-45.89342 45.89342,-45.89342c25.34623,0 45.89342,20.54719 45.89342,45.89342c0,25.34624 -20.54719,45.89342 -45.89342,45.89342c-25.34624,0 -45.89342,-20.54718 -45.89342,-45.89342z" fill="#000000" stroke="#b3a934" stroke-width="3" stroke-linecap="butt"/><g stroke-width="3" stroke-linecap="butt"><path d="M226.59363,6.12669c-0.18252,13.49333 -10.12535,23.86908 -22.20799,23.17488c-12.08262,-0.6942 -21.72956,-12.19546 -21.54703,-25.68878c0.11574,-8.55614 4.15594,-15.85874 10.17767,-19.88027c3.47475,-2.32056 7.60928,-3.54862 12.03028,-3.29462c12.08262,0.69421 21.72958,12.19544 21.54704,25.68876z" fill="#ffe1c2" stroke="#d4a676"/><path d="M226.81403,5.32009c0,10.5979 -5.21106,19.18919 -11.63924,19.18919c-6.42819,0 -11.63926,-8.59129 -11.63926,-19.18919c0,-10.59789 5.21107,-19.18919 11.63926,-19.18919c6.42819,0 11.63924,8.5913 11.63924,19.18919z" fill="#080808" stroke="#27104d"/></g><g data-paper-data="{&quot;index&quot;:null}" stroke="#ffffff" stroke-width="3" stroke-linecap="butt"><path d="M248.53894,6.12666c-0.18253,-13.49332 9.46442,-24.99455 21.54704,-25.68876c12.0826,-0.69418 22.02543,9.68156 22.20795,23.17489c0.18253,13.49332 -9.46441,24.99458 -21.54703,25.68878c-12.08265,0.6942 -22.02547,-9.68155 -22.20799,-23.17488z" fill="#000000"/><path d="M259.95776,-13.8691c6.42819,0 11.63926,8.5913 11.63926,19.18919c0,10.5979 -5.21107,19.18919 -11.63926,19.18919c-6.42818,0 -11.63925,-8.59129 -11.63925,-19.18919c0,-10.59789 5.21106,-19.18919 11.63925,-19.18919z" fill="#080808"/></g><g stroke="#6c5b55" stroke-width="3" stroke-linecap="round"><path d="M211.43951,44.67361c0,0 19.95551,-3.90164 29.62873,-3.90164c9.28354,0 27.28962,3.90164 27.28962,3.90164l-5.19802,19.6858c0,0 -4.30989,3.25099 -24.25832,2.72998c-17.68923,-0.22529 -21.72172,-4.12342 -21.72172,-4.12342z" data-paper-data="{&quot;index&quot;:null}" fill="#857a76"/><path d="M223.01782,47.65629l1.16027,3.77087l-5.51126,3.28742l-4.44769,-10.44239" fill="none"/><path d="M250.86417,64.19006l-6.96159,-3.67417l6.96159,-3.86755l10.15232,7.34835" fill="none"/><path d="M218.08669,62.44967l11.31259,-7.54172l4.15761,2.41721l6.8649,-5.70463" fill="none"/><path d="M229.30258,42.04835l-0.77351,6.18808l6.18808,0.67682l8.12185,-3.67417l3.67418,6.38146l-7.7351,6.96159" fill="none"/><path d="M262.75689,47.75297l-2.41722,0.8702l-1.93378,-3.67417l-9.08874,3.28742l-0.87019,-6.96159" fill="none"/><path d="M266.33437,50.07351l-7.05827,7.34835l-4.64106,-4.54437l-1.83709,0.58013" fill="none"/><path d="M224.08139,64.96358l6.09139,-3.4808l3.86755,1.16027l3.67417,-1.25696l4.73775,4.54437" fill="none"/></g><g><path d="M266.9713,60.91744c0.10892,1.34192 -1.91197,2.29404 -2.25864,2.60656c-5.4323,4.89715 -16.33964,7.33018 -24.33666,7.33018c-7.9039,0 -18.83111,-2.17325 -24.66582,-6.8887c-0.55284,-0.4468 -2.85917,-1.3489 -2.80216,-2.93097" fill="none" stroke="#3c2b24" stroke-width="4" stroke-linecap="round"/><g stroke-width="2" stroke-linecap="butt"><g fill="#ffcd97" stroke="#e89031"><path d="M228.7599,74.66809l11.39325,-11.39325l11.39325,11.39325l-11.39325,11.39325z"/><path d="M232.09691,82.72432v-16.11248h16.11248v16.11248z"/></g><path d="M233.34464,74.45533c0,-3.81899 3.0959,-6.91489 6.91489,-6.91489c3.81899,0 6.91489,3.0959 6.91489,6.91489c0,3.81899 -3.0959,6.91489 -6.91489,6.91489c-3.81899,0 -6.91489,-3.0959 -6.91489,-6.91489z" fill="#ff8200" stroke="#9a4e00"/><path d="M238.1597,74.23699c0,1.46203 -0.81089,2.64723 -1.81117,2.64723c-1.00028,0 -1.81117,-1.18521 -1.81117,-2.64723c0,-1.46202 0.81089,-2.64723 1.81117,-2.64723c1.00028,0 1.81117,1.18521 1.81117,2.64723z" fill="#080808" stroke="#27104d"/><path d="M245.81927,74.23699c0,1.46202 -0.81089,2.64723 -1.81117,2.64723c-1.00028,0 -1.81117,-1.18521 -1.81117,-2.64723c0,-1.46202 0.81089,-2.64723 1.81117,-2.64723c1.00028,0 1.81117,1.18521 1.81117,2.64723z" fill="#080808" stroke="#27104d"/></g></g><path d="M297.04847,95.54621c0,0 -38.89045,3.49168 -58.07452,3.49168c-7.4836,0 -17.85998,-0.55081 -27.65078,-1.21488c-0.66902,-0.04538 -1.3353,-0.09128 -1.99773,-0.13757c-14.05179,-0.98202 -26.37391,-2.13922 -26.37391,-2.13922" fill="none" stroke="#413530" stroke-width="3" stroke-linecap="round"/><g><path d="M217.02629,-21.81174l4.39563,3.78965c0,0 -32.80966,9.38383 -37.53069,10.73408c-1.09797,0.31403 7.34883,-19.3373 7.34883,-19.3373" fill="#fff584" stroke="#d4a676" stroke-width="0" stroke-linecap="round"/><path d="M218.33642,-21.1529l4.22426,3.78965c0,0 -11.05585,2.04355 -15.83794,3.39381c-1.11216,0.31403 5.07683,-12.53891 5.07683,-12.53891" fill="#000000" stroke="#d4a676" stroke-width="0" stroke-linecap="round"/><path d="M217.02629,-21.81175l4.39563,3.78965l-14.77699,4.2487" fill="none" stroke="#ffffff" stroke-width="3" stroke-linecap="round"/><path d="M214.1558,-15.94392c-6.92672,1.9811 -32.29455,9.2365 -32.29455,9.2365" fill="none" stroke="#d4a676" stroke-width="3" stroke-linecap="round"/><path d="M207.00632,-15.04008c1.31276,-5.86573 4.65811,-10.99464 8.49448,-15.3294" fill="none" stroke="#b3a934" stroke-width="3" stroke-linecap="butt"/></g><g data-paper-data="{&quot;index&quot;:null}" stroke-linecap="round"><path d="M284.31848,-26.62531c0,0 8.44679,19.65133 7.34883,19.3373c-4.72103,-1.35025 -37.53069,-10.73408 -37.53069,-10.73408l4.39563,-3.78965" fill="#000000" stroke="#d4a676" stroke-width="0"/><path d="M268.91361,-13.7734l-14.77699,-4.2487l4.39563,-3.78965" fill="none" stroke="#ffffff" stroke-width="3"/><path d="M293.69729,-6.70742c0,0 -25.36783,-7.2554 -32.29455,-9.2365" fill="none" stroke="#ffffff" stroke-width="3"/></g><path d="M242.47264,37.64827c0,0 0.89468,-0.80209 1.44102,-1.05919c0.54944,-0.25856 1.8464,-0.48783 1.8464,-0.48783" fill="none" stroke="#ffffff" stroke-width="3" stroke-linecap="round"/><path d="M206.54479,-37.98882l-4.02898,6.29527l-2.89583,-4.5326" fill="none" stroke="#b3a934" stroke-width="3" stroke-linecap="round"/><path d="M200.50132,-21.99879l-4.78441,6.54708l-4.28079,-5.91756" fill="none" stroke="#b3a934" stroke-width="3" stroke-linecap="round"/><g><g fill="#ff0033" stroke="#000000" stroke-width="0" stroke-linecap="round"><path d="M155.14455,10.27072c0,0 -3.06364,-2.19814 -6.49301,-4.13703c-4.07074,-2.3015 -10.48802,-4.40378 -15.41338,-8.35447c-5.51369,-4.4226 -9.08571,-10.06299 -9.61455,-15.66025c-0.49391,-5.22761 3.77228,-14.62489 11.341,-15.8321c6.13599,-0.97868 10.59984,1.682 14.33806,7.07897"/><path d="M148.93802,-26.76034c1.92933,-6.2753 5.38627,-9.9808 11.53067,-10.90526c7.57909,-1.1403 14.48952,6.52488 15.60106,11.65678c1.19014,5.49477 -0.50709,11.95176 -4.42353,17.83579c-3.49853,5.25618 -8.97848,9.20222 -12.16165,12.62789c-2.68165,2.88594 -4.93625,5.90827 -4.93625,5.90827" data-paper-data="{&quot;index&quot;:null}"/></g><path d="M154.83156,10.31923c0,0 -2.75065,-2.24664 -6.18002,-4.18553c-4.07074,-2.3015 -10.48802,-4.40378 -15.41338,-8.35447c-5.51369,-4.4226 -9.08571,-10.06299 -9.61455,-15.66025c-0.49391,-5.22761 3.77228,-14.62489 11.341,-15.8321c6.13599,-0.97868 10.39377,1.53124 14.132,6.92821" fill="#fe2b55" stroke="#000000" stroke-width="0" stroke-linecap="round"/><path d="M149.09662,-26.78492c1.92933,-6.2753 5.22769,-9.95622 11.37208,-10.88068c7.57909,-1.1403 14.48952,6.52488 15.60106,11.65678c1.19014,5.49477 -0.50709,11.95176 -4.42353,17.83579c-3.49853,5.25618 -8.97848,9.20222 -12.16165,12.62789c-2.68165,2.88594 -4.50946,5.84213 -4.50946,5.84213" data-paper-data="{&quot;index&quot;:null}" fill="#fe2b55" stroke="#000000" stroke-width="0" stroke-linecap="round"/><g stroke-width="0"><g fill="#ff0033" stroke="#000000" stroke-linecap="round"><path d="M154.02302,5.08974c0,0 -2.38738,-1.83274 -5.37057,-3.4062c-3.5411,-1.86774 -9.13532,-3.5528 -13.41078,-6.77495c-4.78616,-3.60704 -7.86525,-8.23422 -8.28407,-12.84948c-0.39115,-4.31047 3.41186,-12.09915 10.03852,-13.15434c5.37226,-0.85544 9.07527,1.18285 12.30157,5.60784"/><path d="M149.2977,-25.48741c1.73562,-5.19396 4.64798,-8.25747 10.02717,-9.06822c6.63521,-1.00005 12.6173,5.27219 13.54918,9.49886c0.99777,4.52554 -0.53635,9.86764 -4.00623,14.75416c-3.09963,4.36509 -7.92141,7.66437 -10.73108,10.51631c-2.367,2.40261 -3.98803,4.85654 -3.98803,4.85654" data-paper-data="{&quot;index&quot;:null}"/></g><path d="M135.29742,-29.71878c0.81916,0.92055 -0.11781,3.09152 -2.0928,4.84901c-1.97499,1.75749 -4.24011,2.43597 -5.05927,1.51542c-0.81916,-0.92055 0.11781,-3.09153 2.09279,-4.84902c1.97499,-1.75749 4.24011,-2.43596 5.05927,-1.51541z" fill="#ff6181" stroke="none" stroke-linecap="butt"/></g><path d="M154.83156,10.31923c0,0 -2.75065,-2.24664 -6.18002,-4.18553c-4.07074,-2.3015 -10.48802,-4.40378 -15.41338,-8.35447c-5.51369,-4.4226 -9.08571,-10.06299 -9.61455,-15.66025c-0.49391,-5.22761 3.77228,-14.62489 11.341,-15.8321c6.13599,-0.97868 10.39377,1.53124 14.132,6.92821" fill="none" stroke="#670015" stroke-width="3" stroke-linecap="round"/><path d="M149.09662,-26.78492c1.92933,-6.2753 5.22769,-9.95622 11.37208,-10.88068c7.57909,-1.1403 14.48952,6.52488 15.60106,11.65678c1.19014,5.49477 -0.50709,11.95176 -4.42353,17.83579c-3.49853,5.25618 -8.97848,9.20222 -12.16165,12.62789c-2.68165,2.88594 -4.50946,5.84213 -4.50946,5.84213" data-paper-data="{&quot;index&quot;:null}" fill="none" stroke="#670015" stroke-width="3" stroke-linecap="round"/></g></g></g></svg>