<svg version="1.1" xmlns="http://www.w3.org/2000/svg" xmlns:xlink="http://www.w3.org/1999/xlink" width="191.34966" height="446.70928" viewBox="0,0,191.34966,446.70928"><defs><linearGradient x1="207.12777" y1="206.53603" x2="207.12777" y2="401.61065" gradientUnits="userSpaceOnUse" id="color-1"><stop offset="0" stop-color="#520000"/><stop offset="1" stop-color="#320000"/></linearGradient><linearGradient x1="207.12777" y1="206.53603" x2="207.12777" y2="401.61065" gradientUnits="userSpaceOnUse" id="color-2"><stop offset="0" stop-color="#800000"/><stop offset="1" stop-color="#5f0000"/></linearGradient><linearGradient x1="207.12777" y1="206.53603" x2="207.12777" y2="401.61065" gradientUnits="userSpaceOnUse" id="color-3"><stop offset="0" stop-color="#520000"/><stop offset="1" stop-color="#320000"/></linearGradient><linearGradient x1="207.12777" y1="206.53603" x2="207.12777" y2="401.61065" gradientUnits="userSpaceOnUse" id="color-4"><stop offset="0" stop-color="#520000"/><stop offset="1" stop-color="#320000"/></linearGradient><linearGradient x1="272.48491" y1="206.53603" x2="272.48491" y2="401.61065" gradientUnits="userSpaceOnUse" id="color-5"><stop offset="0" stop-color="#800000"/><stop offset="1" stop-color="#5f0000"/></linearGradient><linearGradient x1="272.48491" y1="206.53603" x2="272.48491" y2="401.61065" gradientUnits="userSpaceOnUse" id="color-6"><stop offset="0" stop-color="#520000"/><stop offset="1" stop-color="#320000"/></linearGradient><linearGradient x1="272.48491" y1="206.53603" x2="272.48491" y2="401.61065" gradientUnits="userSpaceOnUse" id="color-7"><stop offset="0" stop-color="#520000"/><stop offset="1" stop-color="#320000"/></linearGradient></defs><g transform="translate(-144.3072,43.11065)"><g data-paper-data="{&quot;isPaintingLayer&quot;:true}" fill-rule="nonzero" stroke-linejoin="miter" stroke-miterlimit="10" stroke-dasharray="" stroke-dashoffset="0" style="mix-blend-mode: normal"><g fill="#5f0000" stroke="#320000" stroke-width="3" stroke-linecap="butt"><path d="M283.45744,276.48466c-0.79673,-7.08225 11.78358,-12.04138 24.61472,-13.40069c12.53357,-1.32779 25.30645,0.77918 26.0847,7.69718c0.79176,7.03807 -11.62716,11.97942 -24.37464,13.37483c-12.61002,1.38036 -25.54156,-0.70914 -26.32479,-7.67132z"/><path d="M283.44543,276.48601c0,0 -15.67908,-160.08929 -15.72413,-161.21911v0c-0.50425,-12.64579 7.60522,-21.70951 20.67123,-22.95812c12.69905,-1.21353 24.61897,8.48631 25.12322,21.13209c0.00237,0.05943 20.62863,157.33736 20.62863,157.33736"/></g><path d="M265.57821,60.24337l-9.14634,25.85366h-37.07317l-7.43903,-22.80488z" fill="#800000" stroke="#520000" stroke-width="3.5" stroke-linecap="round"/><path d="M183.20056,15.1888c0,-31.36946 25.42998,-56.79945 56.79945,-56.79945c31.36947,0 56.79945,25.42998 56.79945,56.79945c0,31.36947 -25.42998,56.79945 -56.79945,56.79945c-31.36947,0 -56.79945,-25.42998 -56.79945,-56.79945z" data-paper-data="{&quot;index&quot;:null}" fill="#800000" stroke="#520000" stroke-width="3" stroke-linecap="butt"/><path d="M280.53031,20.86002c0,10.86754 -17.54755,19.67742 -39.19354,19.67742c-21.646,0 -39.19355,-8.80988 -39.19355,-19.67742c0,-10.86754 17.54755,-19.67742 39.19355,-19.67742c21.646,0 39.19355,8.80988 39.19355,19.67742z" fill="#520000" stroke="none" stroke-width="3" stroke-linecap="butt"/><g data-paper-data="{&quot;index&quot;:null}" fill="none" stroke="#520000" stroke-width="3" stroke-linecap="round"><g><path d="M239.93999,61.26228c0,0 -10.49307,1.82331 -15.40721,1.36749c-4.50763,-0.41812 -12.96355,-3.99907 -12.96355,-3.99907" data-paper-data="{&quot;index&quot;:null}"/></g><g data-paper-data="{&quot;index&quot;:null}"><path d="M268.31075,58.6307c0,0 -8.45592,3.58096 -12.96355,3.99907c-4.91415,0.45582 -15.40721,-1.36749 -15.40721,-1.36749" data-paper-data="{&quot;index&quot;:null}"/></g></g><g data-paper-data="{&quot;index&quot;:null}" stroke-width="3" stroke-linecap="butt"><path d="M233.7793,21.2406c-0.20588,13.49333 -11.42113,23.86908 -25.05004,23.17488c-13.62888,-0.6942 -24.51038,-12.19546 -24.30449,-25.68878c0.20587,-13.49333 11.42113,-23.86907 25.04999,-23.17489c13.62888,0.69421 24.5104,12.19544 24.30451,25.68876z" fill="#ffffff" stroke="#848799"/><path d="M233.78493,20.43401c0,10.5979 -5.87795,19.18919 -13.12877,19.18919c-7.25083,0 -13.12878,-8.59129 -13.12878,-19.18919c0,-10.59789 5.87795,-19.18919 13.12878,-19.18919c7.25083,0 13.12877,8.5913 13.12877,19.18919z" fill="#000000" stroke="#1a0937"/></g><g data-paper-data="{&quot;index&quot;:null}" stroke-width="3" stroke-linecap="butt"><path d="M247.42755,21.24058c-0.20589,-13.49332 10.67563,-24.99455 24.30451,-25.68876c13.62886,-0.69418 24.84412,9.68156 25.04999,23.17489c0.20589,13.49332 -10.67561,24.99458 -24.30449,25.68878c-13.62891,0.6942 -24.84417,-9.68155 -25.05004,-23.17488z" fill="#ffffff" stroke="#848799"/><path d="M260.55064,1.24482c7.25083,0 13.12878,8.5913 13.12878,19.18919c0,10.5979 -5.87795,19.18919 -13.12878,19.18919c-7.25083,0 -13.12878,-8.59129 -13.12878,-19.18919c0,-10.59789 5.87795,-19.18919 13.12878,-19.18919z" fill="#000000" stroke="#1a0937"/></g><g data-paper-data="{&quot;index&quot;:null}" fill="#5f0000" stroke="#320000" stroke-width="3" stroke-linecap="butt"><path d="M170.21777,284.15599c-12.74748,-1.39541 -25.16639,-6.33676 -24.37463,-13.37483c0.77825,-6.918 13.55113,-9.02497 26.0847,-7.69718c12.83114,1.35931 25.41145,6.31844 24.61472,13.40069c-0.78322,6.96218 -13.71477,9.05169 -26.32479,7.67132z"/><path d="M145.85561,270.77821c0,0 20.62626,-157.27793 20.62863,-157.33735c0.50424,-12.64578 12.42417,-22.34562 25.12322,-21.13209c13.066,1.2486 21.17548,10.31233 20.67123,22.95812v0c-0.04505,1.12983 -15.72414,161.21911 -15.72414,161.21911"/></g><g stroke-linecap="round"><g data-paper-data="{&quot;index&quot;:null}"><path d="M227.02984,78.46032c0,0 26.23553,-0.89342 35.56294,0.87528c9.3274,1.7687 32.49791,10.40878 32.49791,10.40878l-5.17373,44.741l11.98697,74.52081l-54.99104,16.81051l-9.2385,-0.11955" fill="#800000" stroke="#0f0047" stroke-width="0"/><g fill="none" stroke="#520000" stroke-width="3.5"><path d="M252.18511,78.1254c0,0 43.58357,10.69108 43.44675,11.80009c-0.64302,5.21198 -5.49752,44.55989 -5.49752,44.55989l11.76958,74.52081l-54.35917,16.81051l-9.87037,-0.11955"/></g></g><g><path d="M239.90803,225.69715l-8.27696,0.11955l-55.95258,-16.81051l11.98697,-74.52081l-5.17372,-44.741c0,0 23.1705,-8.64008 32.49791,-10.40878c9.32741,-1.7687 35.56294,-0.87528 35.56294,-0.87528" fill="#800000" stroke="#0f0047" stroke-width="0"/><g fill="none" stroke="#520000" stroke-width="3.5"><path d="M239.90803,225.69715l-9.04619,0.11955l-55.18335,-16.81051l11.76958,-74.52081c0,0 -4.85449,-39.34791 -5.49751,-44.55989c-0.13682,-1.10901 43.44675,-11.80009 43.44675,-11.80009"/></g></g></g><path d="M231.7544,223.60921l1.80873,52.00225" fill="none" stroke="url(#color-1)" stroke-width="3.5" stroke-linecap="round"/><g><g><path d="M231.7544,223.60921l5.73052,164.75667l-45.12858,13.24477l-12.01429,-13.24477l-3.57143,-181.82985" fill="url(#color-2)" stroke="url(#color-3)" stroke-width="0" stroke-linecap="round"/><path d="M237.48492,388.36588l-45.12858,13.24477l-12.01429,-13.24477l-1.89823,-96.64331l3.23225,-16.44638c0,0 5.54346,10.39867 5.9372,8.05053c1.46596,-8.74265 -1.18549,-39.21853 -1.18549,-39.21853c0,0 3.63508,38.61467 7.44819,42.33436c1.60577,1.56643 4.10424,2.68115 7.08812,3.46053c2.38195,0.62216 1.15431,-25.01678 1.15431,-25.01678c0,0 5.75489,21.72231 9.40043,24.6545c1.30615,1.05057 4.66184,3.00068 4.66184,3.00068c0,0 2.03102,-2.14902 2.43535,-3.6308c0.53427,-1.95797 0.49048,-7.09168 0.49048,-7.09168c0,0 2.04274,5.59934 4.46495,7.01895c1.11323,0.65244 4.74869,-6.88549 4.74869,-6.88549l5.76423,8.64479z" fill="#000000" stroke="#251818" stroke-width="0" stroke-linecap="butt"/><path d="M231.34405,272.50739c0,3.55509 -5.88235,3.55509 -5.88235,0c0,-3.73604 -5.64705,-23.82353 -5.64705,-23.82353c0,0 11.52941,20.08749 11.52941,23.82353z" fill="#000000" stroke="#251818" stroke-width="0" stroke-linecap="butt"/><path d="M231.7544,223.60921l5.73052,164.75667l-45.12858,13.24477l-12.01429,-13.24477l-3.57143,-181.82985" fill="none" stroke="url(#color-4)" stroke-width="3.5" stroke-linecap="round"/><path d="M200.51606,254.80631c0,0 -3.03671,10.80207 -3.03671,12.81113c0,1.91176 -3.16324,1.91176 -3.16324,0c0,-2.00907 6.19995,-12.81113 6.19995,-12.81113z" data-paper-data="{&quot;index&quot;:null}" fill="#000000" stroke="#251818" stroke-width="0" stroke-linecap="butt"/></g><path d="M234.07674,290.37829l3.40818,97.98758l-45.12858,13.24477l-12.01429,-13.24477l-2.01688,-102.68428" fill="none" stroke="#231919" stroke-width="3.5" stroke-linecap="round"/></g><g data-paper-data="{&quot;index&quot;:null}"><g><path d="M302.84206,206.53603l-3.57143,181.82985l-12.01429,13.24477l-45.12858,-13.24477l5.73052,-164.75667" fill="url(#color-5)" stroke="url(#color-6)" stroke-width="0" stroke-linecap="round"/><path d="M245.52832,290.59724l5.76423,-8.64479c0,0 3.63546,7.53793 4.74869,6.88549c2.4222,-1.41961 4.46495,-7.01895 4.46495,-7.01895c0,0 -0.04379,5.13372 0.49048,7.09168c0.40433,1.48178 2.43536,3.6308 2.43536,3.6308c0,0 3.35568,-1.95011 4.66183,-3.00068c3.64554,-2.93219 9.40043,-24.6545 9.40043,-24.6545c0,0 -1.22763,25.63894 1.15431,25.01678c2.98388,-0.77938 5.48235,-1.8941 7.08812,-3.46053c3.81311,-3.7197 7.44819,-42.33436 7.44819,-42.33436c0,0 -2.65145,30.47588 -1.18549,39.21853c0.39373,2.34814 5.93719,-8.05053 5.93719,-8.05053l3.23225,16.44638l-1.89823,96.64331l-12.01429,13.24477l-45.12858,-13.24477z" fill="#000000" stroke="#251818" stroke-width="0" stroke-linecap="butt"/><path d="M259.79804,248.68386c0,0 -5.64705,20.08749 -5.64705,23.82353c0,3.55509 -5.88235,3.55509 -5.88235,0c0,-3.73604 11.52941,-23.82353 11.52941,-23.82353z" fill="#000000" stroke="#251818" stroke-width="0" stroke-linecap="butt"/><path d="M302.84206,206.53603l-3.57143,181.82985l-12.01429,13.24477l-45.12858,-13.24477l5.73052,-164.75667" fill="none" stroke="url(#color-7)" stroke-width="3.5" stroke-linecap="round"/><path d="M285.29658,267.61745c0,1.91176 -3.16325,1.91176 -3.16325,0c0,-2.00907 -3.03671,-12.81113 -3.03671,-12.81113c0,0 6.19995,10.80207 6.19995,12.81113z" data-paper-data="{&quot;index&quot;:null}" fill="#000000" stroke="#251818" stroke-width="0" stroke-linecap="butt"/></g><path d="M301.28752,285.68159l-2.01689,102.68429l-12.01429,13.24477l-45.12858,-13.24477l3.40818,-97.98759" fill="none" stroke="#231919" stroke-width="3.5" stroke-linecap="round"/></g><g stroke="#520000" stroke-linecap="butt"><path d="M260.58007,225.54533c0,1.00008 -0.32711,1.9653 -0.93517,2.87459c-2.69488,4.02991 -10.90823,6.96148 -20.6222,6.96148c-11.90581,0 -21.55737,-4.40376 -21.55737,-9.83607c0,-5.43231 9.65156,-9.83606 21.55737,-9.83606c11.90581,0 21.55737,4.40375 21.55737,9.83606z" fill="#800000" stroke-width="0"/><path d="M252.586,233.19098c-3.70431,1.36976 -8.42376,2.1904 -13.5633,2.1904c-5.43464,0 -10.39957,-0.91759 -14.19123,-2.43174" fill="none" stroke-width="3.5"/></g></g></g></svg>