<svg version="1.1" xmlns="http://www.w3.org/2000/svg" xmlns:xlink="http://www.w3.org/1999/xlink" width="229.08021" height="471.17378" viewBox="0,0,229.08021,471.17378"><defs><linearGradient x1="206.42206" y1="218.49121" x2="206.42206" y2="413.56583" gradientUnits="userSpaceOnUse" id="color-1"><stop offset="0" stop-color="#520000"/><stop offset="1" stop-color="#320000"/></linearGradient><linearGradient x1="206.42206" y1="218.49121" x2="206.42206" y2="413.56583" gradientUnits="userSpaceOnUse" id="color-2"><stop offset="0" stop-color="#800000"/><stop offset="1" stop-color="#5f0000"/></linearGradient><linearGradient x1="206.42206" y1="218.49121" x2="206.42206" y2="413.56583" gradientUnits="userSpaceOnUse" id="color-3"><stop offset="0" stop-color="#520000"/><stop offset="1" stop-color="#320000"/></linearGradient><linearGradient x1="206.42206" y1="218.49121" x2="206.42206" y2="413.56583" gradientUnits="userSpaceOnUse" id="color-4"><stop offset="0" stop-color="#520000"/><stop offset="1" stop-color="#320000"/></linearGradient><linearGradient x1="271.7792" y1="218.49121" x2="271.7792" y2="413.56583" gradientUnits="userSpaceOnUse" id="color-5"><stop offset="0" stop-color="#800000"/><stop offset="1" stop-color="#5f0000"/></linearGradient><linearGradient x1="271.7792" y1="218.49121" x2="271.7792" y2="413.56583" gradientUnits="userSpaceOnUse" id="color-6"><stop offset="0" stop-color="#520000"/><stop offset="1" stop-color="#320000"/></linearGradient><linearGradient x1="271.7792" y1="218.49121" x2="271.7792" y2="413.56583" gradientUnits="userSpaceOnUse" id="color-7"><stop offset="0" stop-color="#520000"/><stop offset="1" stop-color="#320000"/></linearGradient></defs><g transform="translate(-125.39898,55.61996)"><g data-paper-data="{&quot;isPaintingLayer&quot;:true}" fill-rule="nonzero" stroke-linejoin="miter" stroke-miterlimit="10" stroke-dasharray="" stroke-dashoffset="0" style="mix-blend-mode: normal"><g fill="#5f0000" stroke="#320000" stroke-width="3" stroke-linecap="butt"><path d="M303.05518,289.70646c-1.46878,-6.97393 10.58102,-13.11067 23.22394,-15.68794c12.34972,-2.51751 25.26536,-1.63874 26.70007,5.17345c1.45962,6.93043 -10.43122,13.03406 -22.98743,15.63929c-12.4208,2.57713 -25.49271,1.7309 -26.93659,-5.1248z"/><path d="M303.04335,289.70895c0,0 -30.88095,-157.86317 -31.03358,-158.98354v0c-1.70842,-12.54 5.49932,-22.33607 18.38661,-24.82555c12.52535,-2.41955 25.31631,6.09881 27.02474,18.6388c0.00803,0.05893 35.54537,154.65158 35.54537,154.65158"/></g><path d="M264.8725,72.19856l-9.14634,25.85366h-37.07317l-7.43903,-22.80488z" fill="#800000" stroke="#520000" stroke-width="3.5" stroke-linecap="round"/><path d="M182.49485,27.14399c0,-31.36946 25.42998,-56.79945 56.79945,-56.79945c31.36947,0 56.79945,25.42998 56.79945,56.79945c0,31.36947 -25.42998,56.79945 -56.79945,56.79945c-31.36947,0 -56.79945,-25.42998 -56.79945,-56.79945z" data-paper-data="{&quot;index&quot;:null}" fill="#800000" stroke="#520000" stroke-width="3" stroke-linecap="butt"/><path d="M279.8246,32.81521c0,10.86754 -17.54755,19.67742 -39.19354,19.67742c-21.646,0 -39.19355,-8.80988 -39.19355,-19.67742c0,-10.86754 17.54755,-19.67742 39.19355,-19.67742c21.646,0 39.19355,8.80988 39.19355,19.67742z" fill="#520000" stroke="none" stroke-width="3" stroke-linecap="butt"/><g data-paper-data="{&quot;index&quot;:null}" stroke-width="3" stroke-linecap="butt"><path d="M231.53205,23.26234c5.1861,12.4586 -0.96786,26.44311 -13.74533,31.23532c-12.77744,4.7922 -27.33979,-1.42265 -32.52588,-13.88123c-5.18612,-12.45859 0.96786,-26.44311 13.74528,-31.23531c12.77745,-4.79218 27.3398,1.42262 32.52589,13.88121z" fill="#ffffff" stroke="#848799"/><path d="M231.21591,22.52026c4.22158,9.72079 2.25237,19.94247 -4.39836,22.83077c-6.65073,2.88831 -15.46447,-2.65052 -19.68605,-12.37131c-4.22158,-9.72078 -2.25237,-19.94247 4.39836,-22.83077c6.65073,-2.8883 15.46447,2.65054 19.68604,12.37132z" fill="#000000" stroke="#1a0937"/></g><g data-paper-data="{&quot;index&quot;:null}" stroke-width="3" stroke-linecap="butt"><path d="M248.35863,23.01252c5.3206,-12.40174 19.94934,-18.45861 32.67419,-13.52845c12.72482,4.93018 18.72711,18.98047 13.40649,31.38222c-5.3206,12.40174 -19.94934,18.45865 -32.67418,13.52847c-12.72487,-4.93018 -18.72716,-18.98048 -13.40654,-31.38223z" fill="#ffffff" stroke="#848799"/><path d="M268.50148,10.11633c6.61909,2.9601 8.47758,13.2025 4.15107,22.87703c-4.32651,9.67454 -13.19967,15.11767 -19.81876,12.15757c-6.61909,-2.9601 -8.47758,-13.20249 -4.15106,-22.87703c4.32651,-9.67453 13.19967,-15.11767 19.81876,-12.15757z" fill="#000000" stroke="#1a0937"/></g><g data-paper-data="{&quot;index&quot;:null}" fill="#5f0000" stroke="#320000" stroke-width="3" stroke-linecap="butt"><path d="M149.93431,294.73877c-12.54278,-2.6691 -24.40239,-8.83317 -22.90752,-15.75608c1.46937,-6.8048 14.38931,-7.61782 26.72605,-5.0375c12.62965,2.64158 24.64806,8.83957 23.1438,15.80593c-1.47875,6.84826 -14.5548,7.62797 -26.96233,4.98765z"/><path d="M127.03949,278.98101c0,0 36.32366,-154.40978 36.33199,-154.46866c1.77221,-12.53113 14.60638,-20.98429 27.11925,-18.50102c12.87444,2.55503 20.03225,12.38765 18.26002,24.91879v0c-0.15833,1.11959 -31.84231,158.82354 -31.84231,158.82354"/></g><g stroke-linecap="round"><g data-paper-data="{&quot;index&quot;:null}"><path d="M226.32413,90.41551c0,0 26.23553,-0.89342 35.56294,0.87528c9.3274,1.7687 32.49791,10.40878 32.49791,10.40878l-5.17373,44.741l11.98697,74.52081l-54.99104,16.81051l-9.2385,-0.11955" fill="#800000" stroke="#0f0047" stroke-width="0"/><g fill="none" stroke="#520000" stroke-width="3.5"><path d="M251.4794,90.08059c0,0 43.58357,10.69108 43.44675,11.80009c-0.64302,5.21198 -5.49752,44.55989 -5.49752,44.55989l11.76958,74.52081l-54.35917,16.81051l-9.87037,-0.11955"/></g></g><g><path d="M239.20232,237.65234l-8.27696,0.11955l-55.95258,-16.81051l11.98697,-74.52081l-5.17372,-44.741c0,0 23.1705,-8.64008 32.49791,-10.40878c9.32741,-1.7687 35.56294,-0.87528 35.56294,-0.87528" fill="#800000" stroke="#0f0047" stroke-width="0"/><g fill="none" stroke="#520000" stroke-width="3.5"><path d="M239.20232,237.65234l-9.04619,0.11955l-55.18335,-16.81051l11.76958,-74.52081c0,0 -4.85449,-39.34791 -5.49751,-44.55989c-0.13682,-1.10901 43.44675,-11.80009 43.44675,-11.80009"/></g></g></g><path d="M231.04869,235.56439l1.80873,52.00225" fill="none" stroke="url(#color-1)" stroke-width="3.5" stroke-linecap="round"/><g><g><path d="M231.04869,235.56439l5.73052,164.75667l-45.12858,13.24477l-12.01429,-13.24477l-3.57143,-181.82985" fill="url(#color-2)" stroke="url(#color-3)" stroke-width="0" stroke-linecap="round"/><path d="M236.77921,400.32106l-45.12858,13.24477l-12.01429,-13.24477l-1.89823,-96.64331l3.23225,-16.44638c0,0 5.54346,10.39867 5.9372,8.05053c1.46596,-8.74265 -1.18549,-39.21853 -1.18549,-39.21853c0,0 3.63508,38.61467 7.44819,42.33436c1.60577,1.56643 4.10424,2.68115 7.08812,3.46053c2.38195,0.62216 1.15431,-25.01678 1.15431,-25.01678c0,0 5.75489,21.72231 9.40043,24.6545c1.30615,1.05057 4.66184,3.00068 4.66184,3.00068c0,0 2.03102,-2.14902 2.43535,-3.6308c0.53427,-1.95797 0.49048,-7.09168 0.49048,-7.09168c0,0 2.04274,5.59934 4.46495,7.01895c1.11323,0.65244 4.74869,-6.88549 4.74869,-6.88549l5.76423,8.64479z" fill="#000000" stroke="#251818" stroke-width="0" stroke-linecap="butt"/><path d="M230.63834,284.46257c0,3.55509 -5.88235,3.55509 -5.88235,0c0,-3.73604 -5.64705,-23.82353 -5.64705,-23.82353c0,0 11.52941,20.08749 11.52941,23.82353z" fill="#000000" stroke="#251818" stroke-width="0" stroke-linecap="butt"/><path d="M231.04869,235.56439l5.73052,164.75667l-45.12858,13.24477l-12.01429,-13.24477l-3.57143,-181.82985" fill="none" stroke="url(#color-4)" stroke-width="3.5" stroke-linecap="round"/><path d="M199.81035,266.76149c0,0 -3.03671,10.80207 -3.03671,12.81113c0,1.91176 -3.16324,1.91176 -3.16324,0c0,-2.00907 6.19995,-12.81113 6.19995,-12.81113z" data-paper-data="{&quot;index&quot;:null}" fill="#000000" stroke="#251818" stroke-width="0" stroke-linecap="butt"/></g><path d="M233.37103,302.33347l3.40818,97.98758l-45.12858,13.24477l-12.01429,-13.24477l-2.01688,-102.68428" fill="none" stroke="#231919" stroke-width="3.5" stroke-linecap="round"/></g><g data-paper-data="{&quot;index&quot;:null}"><g><path d="M302.13635,218.49121l-3.57143,181.82985l-12.01429,13.24477l-45.12858,-13.24477l5.73052,-164.75667" fill="url(#color-5)" stroke="url(#color-6)" stroke-width="0" stroke-linecap="round"/><path d="M244.82261,302.55242l5.76423,-8.64479c0,0 3.63546,7.53793 4.74869,6.88549c2.4222,-1.41961 4.46495,-7.01895 4.46495,-7.01895c0,0 -0.04379,5.13372 0.49048,7.09168c0.40433,1.48178 2.43536,3.6308 2.43536,3.6308c0,0 3.35568,-1.95011 4.66183,-3.00068c3.64554,-2.93219 9.40043,-24.6545 9.40043,-24.6545c0,0 -1.22763,25.63894 1.15431,25.01678c2.98388,-0.77938 5.48235,-1.8941 7.08812,-3.46053c3.81311,-3.7197 7.44819,-42.33436 7.44819,-42.33436c0,0 -2.65145,30.47588 -1.18549,39.21853c0.39373,2.34814 5.93719,-8.05053 5.93719,-8.05053l3.23225,16.44638l-1.89823,96.64331l-12.01429,13.24477l-45.12858,-13.24477z" fill="#000000" stroke="#251818" stroke-width="0" stroke-linecap="butt"/><path d="M259.09233,260.63903c0,0 -5.64705,20.08749 -5.64705,23.82353c0,3.55509 -5.88235,3.55509 -5.88235,0c0,-3.73604 11.52941,-23.82353 11.52941,-23.82353z" fill="#000000" stroke="#251818" stroke-width="0" stroke-linecap="butt"/><path d="M302.13635,218.49121l-3.57143,181.82985l-12.01429,13.24477l-45.12858,-13.24477l5.73052,-164.75667" fill="none" stroke="url(#color-7)" stroke-width="3.5" stroke-linecap="round"/><path d="M284.59087,279.57263c0,1.91176 -3.16325,1.91176 -3.16325,0c0,-2.00907 -3.03671,-12.81113 -3.03671,-12.81113c0,0 6.19995,10.80207 6.19995,12.81113z" data-paper-data="{&quot;index&quot;:null}" fill="#000000" stroke="#251818" stroke-width="0" stroke-linecap="butt"/></g><path d="M300.58181,297.63677l-2.01689,102.68429l-12.01429,13.24477l-45.12858,-13.24477l3.40818,-97.98759" fill="none" stroke="#231919" stroke-width="3.5" stroke-linecap="round"/></g><g stroke="#520000" stroke-linecap="butt"><path d="M259.87436,237.50051c0,1.00008 -0.32711,1.9653 -0.93517,2.87459c-2.69488,4.02991 -10.90823,6.96148 -20.6222,6.96148c-11.90581,0 -21.55737,-4.40376 -21.55737,-9.83607c0,-5.43231 9.65156,-9.83606 21.55737,-9.83606c11.90581,0 21.55737,4.40375 21.55737,9.83606z" fill="#800000" stroke-width="0"/><path d="M251.88029,245.14616c-3.70431,1.36976 -8.42376,2.1904 -13.5633,2.1904c-5.43464,0 -10.39957,-0.91759 -14.19123,-2.43174" fill="none" stroke-width="3.5"/></g><g data-paper-data="{&quot;index&quot;:null}"><path d="M266.53895,5.80288c-10.46498,0.19639 -30.69987,-3.21696 -30.69987,-3.21696v-17.41379l70,-25.51724l-5.68966,41.72414c0,0 -22.66064,4.21836 -33.61047,4.42386z" fill="#b7c6ed" stroke="none" stroke-width="NaN" stroke-linecap="butt"/><path d="M266.53895,5.63047c-10.46498,0.19639 -30.69987,-3.21697 -30.69987,-3.21697v-4.75169c5.81667,-0.45471 26.29998,1.56609 32.53645,0.81292c18.75837,-2.26544 33.37556,-9.01364 33.37556,-9.01364l-1.60166,11.74553c0,0 -22.66064,4.21837 -33.61047,4.42386z" fill="#5f6d90" stroke="none" stroke-width="NaN" stroke-linecap="butt"/><path d="M305.76168,-39.94996c-1.06149,0.33322 -2.10797,0.6514 -3.11383,0.96099c-1.74525,0.53716 -3.53434,1.06905 -5.35667,1.58742l8.5479,-3.11599z" fill="#b7c6ed" stroke="none" stroke-width="NaN" stroke-linecap="butt"/><path d="M266.53895,5.80288c-10.46498,0.19639 -30.69987,-3.21696 -30.69987,-3.21696v-17.41379l70,-25.51724l-5.68966,41.72414c0,0 -22.66064,4.21836 -33.61047,4.42386z" fill="none" stroke="#344162" stroke-width="3" stroke-linecap="butt"/><path d="M305.83908,-40.5357l38.27586,-13.03012l1.2069,20.11726c0,0 -4.1549,0.06287 -6.10152,0.82719c-1.6778,0.65877 -4.89205,3.48935 -4.89205,3.48935c0,0 -5.49544,0.43727 -8.36337,1.57014c-2.82275,1.11502 -8.71082,5.17438 -8.71082,5.17438c0,0 -4.8111,-0.28965 -7.19037,0.63776c-2.34476,0.91395 -6.98325,4.88692 -6.98325,4.88692z" fill="#000000" stroke="#1a0937" stroke-width="3" stroke-linecap="round"/><path d="M338.15885,-46.31762c-1.41632,-0.15818 -2.20242,-1.35537 -1.75579,-2.674c0.44663,-1.31862 1.95686,-2.25935 3.37318,-2.10117c1.41632,0.15818 2.20242,1.35538 1.75579,2.674c-0.44663,1.31862 -1.95686,2.25935 -3.37318,2.10117z" fill="#ffffff" stroke="#bcc2d1" stroke-width="1.5" stroke-linecap="butt"/><path d="M311.03438,-35.95213c-1.41632,-0.15818 -2.20242,-1.35538 -1.75579,-2.674c0.44663,-1.31862 1.95686,-2.25935 3.37318,-2.10117c1.41632,0.15818 2.20242,1.35537 1.75579,2.674c-0.44663,1.31862 -1.95686,2.25935 -3.37319,2.10117z" fill="#ffffff" stroke="#bcc2d1" stroke-width="1.5" stroke-linecap="butt"/><path d="M323.64155,-40.1536c-1.41632,-0.15818 -2.20242,-1.35538 -1.75579,-2.674c0.44663,-1.31862 1.95686,-2.25935 3.37318,-2.10117c1.41632,0.15818 2.20242,1.35537 1.75579,2.674c-0.44663,1.31862 -1.95686,2.25935 -3.37319,2.10117z" fill="#ffffff" stroke="#bcc2d1" stroke-width="1.5" stroke-linecap="butt"/></g><g data-paper-data="{&quot;index&quot;:null}"><path d="M246.05954,-19.45356c3.46956,-1.3988 7.87639,-2.76796 11.45953,-2.77321l0.74401,-0.0744c0.01853,-0.00208 0.03735,-0.00315 0.05644,-0.00315c0.27614,0 0.5,0.22386 0.5,0.5c0,0.13807 -0.05596,0.26308 -0.14644,0.35356l-0.60965,0.31343c-0.92514,0.8254 -2.11775,1.05351 -2.95895,2.24796c-1.43481,2.03735 -1.43144,4.35735 1.21504,4.3543h0.53847c0.27614,0 0.5,0.22386 0.5,0.5c0,0.1763 -0.09125,0.3313 -0.22911,0.42032l-0.45508,0.30339l-0.14915,-0.22371h-0.14135c-0.6115,0.30348 -1.21441,0.58108 -1.03434,1.09775c0.25525,0.73239 2.65296,0.1716 3.18214,0.06542c2.28258,-0.45801 5.01509,-0.96759 6.27504,1.52965c0.01378,0.95867 0.01863,2.1511 -0.9061,2.76465c-0.3327,0.22074 -1.16685,0.3316 -1.54109,0.19679c-0.24302,-0.08754 -0.37009,-0.69576 -0.56682,-0.52838c-0.24058,0.20468 -0.48024,1.32537 -0.51901,1.53981c-0.6252,3.45774 2.0196,3.18757 3.29516,5.76963c0.62338,5.32032 -3.90229,-0.14146 -5.90332,1.65695c-1.95247,1.75475 4.69731,3.94382 0.46049,5.51005c-5.43159,0.56741 -10.15285,-0.07107 -15.55121,-0.96341c-0.02996,0.13244 -0.11859,0.27628 -0.34812,0.34186c-0.48076,0.13736 -0.61812,-0.3434 -0.61812,-0.3434c-0.88789,-3.11015 -0.58159,-6.77115 -0.45055,-10.1567l-0.23202,0.46403c-0.08017,0.16912 -0.25245,0.28608 -0.45206,0.28608c-0.27614,0 -0.5,-0.22386 -0.5,-0.5v-0.61538h0.04155l-0.03134,-0.10054c0.0769,-0.18674 0.1606,-0.38396 0.25091,-0.58901c-0.03704,-0.44652 0.19334,-0.8514 0.58003,-1.22618c0.93093,-1.83167 2.27233,-3.85171 3.91134,-4.63613c-0.70336,-0.61105 -1.4942,-1.31661 -1.66536,-1.73223c-0.02147,-1.82827 -0.05063,-3.19962 0.71022,-4.70339c-0.16424,-0.43774 0.27491,-0.62595 0.27491,-0.62595c0.03825,-0.01631 0.07666,-0.03263 0.11522,-0.04896c0.01654,-0.02544 0.03331,-0.05094 0.05033,-0.07651l0.21632,-0.23005c0,0 0.3052,-0.3052 0.63204,-0.06491zM242.02203,-5.29923l0.14199,0.07099c0.00529,-0.14335 0.01022,-0.28618 0.01469,-0.42843c-0.04968,0.11829 -0.10055,0.23764 -0.15669,0.35743zM246.60504,-10.29412c-0.85125,0.42614 -1.79995,0.90728 -2.47868,1.49217c1.00519,-0.51703 2.00009,-0.99693 2.47868,-1.49217z" fill="#390000" stroke="none" stroke-width="0.5" stroke-linecap="butt"/><g stroke-linecap="round"><path d="M232.11509,-24.47211c0,0 5.09347,0.26484 8.61613,1.90335c1.89229,0.88017 3.0247,3.50681 3.35977,3.66812c1.2058,0.58047 4.69,0.28252 4.69,0.28252c0,0 -3.02099,0.11322 -5.0772,2.95064c-0.40484,0.55865 0.32198,2.96531 1.45251,3.74455c1.48143,1.02111 3.54488,0.36739 3.54488,0.36739c0,0 -2.04129,-0.19417 -4.0092,0.99021c-1.92696,1.15973 -3.77955,4.00715 -3.77955,4.00715c0,0 0.7365,2.14722 1.25245,2.72008c0.42533,0.47226 1.62422,0.47394 1.62422,0.47394c0,0 -1.01508,0.44887 -1.67003,1.63033c-0.31233,0.56342 -0.4902,1.82572 -0.53529,2.29031c-0.04261,0.43903 1.05721,1.45849 2.11652,1.71867c0.8347,0.20501 1.67935,-0.29929 1.67935,-0.29929c0,0 -1.3906,0.72387 -1.91973,1.35548c-0.24191,0.28876 -0.88192,2.74313 -1.97942,4.21791c-1.18183,1.5881 -12.20199,-2.6531 -12.20199,-2.6531" fill="#800000" stroke="#000000" stroke-width="0"/><path d="M242.11578,-21.82676c0,0 1.01636,1.46453 1.9752,1.92611c1.2058,0.58047 4.69,1.28252 4.69,1.28252c0,0 -3.02099,0.11322 -5.0772,2.95064c-0.40484,0.55865 0.32198,2.58069 1.45251,3.35994c1.48143,1.02111 3.54488,0.75201 3.54488,0.75201c0,0 -2.04129,0.72891 -4.0092,1.91329c-1.92696,1.15973 -3.77955,3.08407 -3.77955,3.08407c0,0 0.7365,2.14722 1.25245,2.72008c0.42533,0.47226 1.62422,0.47394 1.62422,0.47394c0,0 -1.01508,0.44887 -1.67003,1.63033c-0.31233,0.56342 -0.4902,1.82572 -0.53529,2.29031c-0.04261,0.43903 1.05721,1.45849 2.11652,1.71867c0.8347,0.20501 1.67935,-0.29929 1.67935,-0.29929c0,0 -0.96752,1.14695 -1.49666,1.77856c-0.50241,0.59971 -1.6021,1.92034 -1.6021,1.92034" fill="none" stroke="#520000" stroke-width="2"/></g></g><path d="M236.3992,78.924c0,0 1.0123,-1.5067 1.72122,-1.99561c0.90798,-0.62619 3.27878,-1.45267 3.27878,-1.45267" fill="none" stroke="#520000" stroke-width="3" stroke-linecap="round"/><g fill="#800000" stroke-linecap="butt" font-family="Sans Serif" font-weight="normal" font-size="40" text-anchor="start"><text transform="translate(280.4933,85.45876) scale(0.5,0.5)" font-size="40" xml:space="preserve" fill="#800000" fill-rule="nonzero" stroke="#520000" stroke-width="6" stroke-linecap="butt" stroke-linejoin="miter" stroke-miterlimit="10" stroke-dasharray="" stroke-dashoffset="0" font-family="Sans Serif" font-weight="normal" text-anchor="start" style="mix-blend-mode: normal"><tspan x="0" dy="0">ow...</tspan></text><text transform="translate(280.4933,85.45876) scale(0.5,0.5)" font-size="40" xml:space="preserve" fill="#800000" fill-rule="nonzero" stroke="none" stroke-width="1" stroke-linecap="butt" stroke-linejoin="miter" stroke-miterlimit="10" stroke-dasharray="" stroke-dashoffset="0" font-family="Sans Serif" font-weight="normal" text-anchor="start" style="mix-blend-mode: normal"><tspan x="0" dy="0">ow...</tspan></text></g></g></g></svg>