<svg version="1.1" xmlns="http://www.w3.org/2000/svg" xmlns:xlink="http://www.w3.org/1999/xlink" width="157.28568" height="219.58922" viewBox="0,0,157.28568,219.58922"><defs><linearGradient x1="263.02937" y1="172.19119" x2="267.80526" y2="199.87157" gradientUnits="userSpaceOnUse" id="color-1"><stop offset="0" stop-color="#e6b1e5"/><stop offset="1" stop-color="#ffdfc2"/></linearGradient><radialGradient cx="262.47026" cy="182.36886" r="23.21447" gradientUnits="userSpaceOnUse" id="color-2"><stop offset="0" stop-color="#d7a7e1"/><stop offset="1" stop-color="#d7a7e1" stop-opacity="0"/></radialGradient><linearGradient x1="306.40001" y1="91.50699" x2="306.40001" y2="186.0347" gradientUnits="userSpaceOnUse" id="color-3"><stop offset="0" stop-color="#ae2e2e"/><stop offset="1" stop-color="#8e1a1a"/></linearGradient></defs><g transform="translate(-217.94014,-84.17153)"><g data-paper-data="{&quot;isPaintingLayer&quot;:true}" fill-rule="nonzero" stroke-linejoin="miter" stroke-miterlimit="10" stroke-dasharray="" stroke-dashoffset="0" style="mix-blend-mode: normal"><g data-paper-data="{&quot;index&quot;:null}" stroke="#d4a980" stroke-width="3"><path d="M221.8818,295.21326c-0.41595,-1.87394 0.00331,-5.82676 0.00331,-5.82676h38.78146c0,0 2.28652,4.46125 2.71819,6.40652c0.36138,1.62745 -0.17683,3.13955 -1.32091,4.4828c-1.14408,1.34325 -1.83391,0.92925 -3.37617,1.03199c-1.78704,0.11872 -5.70016,-0.36014 -5.70016,-0.36014c0,0 -7.73363,1.30802 -11.15473,1.31308c-2.95635,0.00426 -8.18184,-1.28487 -8.18184,-1.28487c0,0 -3.713,0.43761 -5.31728,0.3173c-0.53019,-0.03967 -3.29917,0.09994 -4.31688,-0.87603c-1.87124,-1.79449 -2.13499,-5.20389 -2.13499,-5.20389z" fill="#fedfc3" stroke-linecap="butt"/><path d="M233.67328,300.77252l0.47136,-3.98397M251.82565,296.90593l1.17923,3.87032" fill="none" stroke-linecap="round"/></g><g><g data-paper-data="{&quot;index&quot;:null}" stroke="none" stroke-width="1" stroke-linecap="butt"><g fill="none" font-family="sans-serif" font-weight="normal" font-size="12" text-anchor="start"/><path d="M282.63009,183.56487l-5.27078,30.87172l-28.20552,-5.97739c0,0 7.37084,-28.06538 8.58614,-34.40739c0.05307,-0.27554 1.93585,-3.9222 5.43706,-5.03274c2.77854,-0.88098 12.59743,-0.3764 17.54882,3.30781c2.34731,1.74696 2.30186,8.14869 2.30186,8.14869" data-paper-data="{&quot;index&quot;:null}" fill="#ffdfc2"/><path d="M282.56718,183.55724l-4.66286,26.90309l-28.46978,-5.78978l8.07445,-29.95932c0,0 3.09837,-6.56397 7.9876,-6.66032c1.49733,-0.02944 11.91898,1.40496 14.45652,3.75116c4.627,4.27825 2.61406,11.75517 2.61406,11.75517" data-paper-data="{&quot;index&quot;:null}" fill="url(#color-1)"/><path d="M282.51586,183.53092l-5.02389,25.75519l-1.87649,0.82351c-3.72975,1.63618 -30.23346,10.85564 -30.23346,10.85564l12.48067,-47.80082c0,0 3.36676,-3.82 7.91921,-5.0188c3.25878,-0.85794 7.63936,0.5783 9.4549,1.34204c1.39573,0.58689 5.47984,2.52832 6.63493,4.8972c1.98075,4.06028 0.64351,9.14599 0.64351,9.14599z" data-paper-data="{&quot;index&quot;:null}" fill="url(#color-2)"/><path d="M263.47628,174.15358c-0.09813,-0.61365 1.78575,-1.4235 3.07497,-1.62828c1.28922,-0.20478 3.11276,0.01371 3.2096,0.62786c0.09819,0.61303 -1.56634,1.38804 -2.85622,1.59337c-1.28866,0.20545 -3.33084,0.02064 -3.42896,-0.59301M279.52366,173.81811c0.76307,0.71724 1.73615,2.0133 1.02838,2.76735c-0.70905,0.75455 -1.50135,-0.73492 -2.2638,-1.4521c-0.76367,-0.7173 -2.16675,-1.71557 -1.41457,-2.51619c0.7528,-0.80057 2.64999,1.20095 2.64999,1.20095M267.27477,170.58254c0.06498,-0.49308 0.82129,-0.79984 1.69024,-0.68495c0.86895,0.1149 1.51927,0.60686 1.45434,1.09932c-0.06498,0.49308 -0.82129,0.79984 -1.68962,0.68501c-0.86906,-0.11367 -1.51993,-0.60631 -1.45557,-1.09943" fill="#3e3571"/><path d="M280.37155,179.70516c-0.48675,-0.10022 -0.73855,-0.87681 -0.5623,-1.73457c0.17625,-0.85776 0.71374,-1.47241 1.20049,-1.37218c0.48742,0.09967 0.73916,0.87687 0.56352,1.73468c-0.17686,0.8577 -0.71435,1.47235 -1.20172,1.37207M272.63901,171.54265c0.08263,-0.49022 0.84999,-0.76942 1.71368,-0.62413c0.86369,0.14529 1.49695,0.66163 1.41432,1.15186c-0.08263,0.49022 -0.84999,0.76942 -1.71368,0.62413c-0.86369,-0.14529 -1.49695,-0.66163 -1.4137,-1.1518M268.58817,177.92601c-0.09813,-0.61365 1.78575,-1.4235 3.07497,-1.62828c1.28922,-0.20478 3.11276,0.01371 3.2096,0.62786c0.09819,0.61303 -1.56634,1.38804 -2.85561,1.59343c-1.28922,0.20478 -3.33079,0.02002 -3.42896,-0.59301M274.06287,173.87687c0.26922,-0.47743 1.16883,-0.4814 2.01043,-0.00771c0.84105,0.47303 1.30522,1.24376 1.03662,1.72125c-0.2686,0.47749 -1.16821,0.48146 -2.00982,0.00777c-0.84105,-0.47303 -1.30522,-1.24376 -1.03662,-1.72125M263.58484,172.05376c-0.17952,-0.41977 0.27416,-1.01616 1.01336,-1.3319c0.73927,-0.31636 1.48385,-0.23264 1.66275,0.18707c0.17958,0.41915 -0.2741,1.01554 -1.01275,1.33196c-0.73865,0.31641 -1.48385,0.23264 -1.66337,-0.18713" fill="#3e3571"/><path d="M262.25288,171.61354c0.85937,0.68407 -0.38553,1.87369 -1.03755,2.69338c-0.65258,0.81902 -1.22247,2.40652 -2.03231,1.76158c-0.80928,-0.64428 -0.03216,-2.06702 0.62042,-2.88604c0,0 1.59014,-2.25361 2.44944,-1.56892" data-paper-data="{&quot;index&quot;:null}" fill="#3e3571"/></g><path d="M254.41293,185.57023l3.10213,-12.39321c0,0 2.96593,-7.50377 16.37959,-3.78958c11.97704,3.31749 8.46998,14.06167 8.46998,14.06167v0c-0.26473,1.3902 -0.68555,3.50638 -1.22832,6.1882" data-paper-data="{&quot;index&quot;:null}" fill="none" stroke="#a96eb5" stroke-width="2.5" stroke-linecap="round"/><path d="M265.90709,282.27132c-0.20698,1.19278 -0.24773,10.45383 -0.24773,10.45383c0,0 -14.48138,0.7687 -21.9606,0.33218c-7.81137,-0.4559 -23.9545,-3.01198 -23.9545,-3.01198l6.28731,-14.13143l27.54,-90.68881l13.4041,0.76111c4.93744,0.28049 15.44806,-0.46083 15.44806,-0.46083z" data-paper-data="{&quot;index&quot;:null}" fill="#1e1e21" stroke="#0a0a0b" stroke-width="2.5" stroke-linecap="round"/><g stroke="#0a0a0b" stroke-width="2.5"><path d="M252.04617,186.05242c0,0 -0.70979,-0.97485 -0.64637,-1.66631c0.06347,-0.69209 0.94435,-1.57601 0.94435,-1.57601c0,0 10.67419,1.5428 15.91082,1.73276c5.03907,0.18235 14.93975,-0.61554 14.93975,-0.61554c0,0 0.90347,1.24026 0.82275,2.12038c-0.08071,0.88011 -1.12011,1.122 -1.12011,1.122c0,0 -10.01596,1.81935 -15.31172,1.62766c-4.96642,-0.18 -15.53884,-2.74489 -15.53884,-2.74489z" fill="#1e1e1f" stroke-linecap="butt"/><path d="M255.913,186.67941c0,0 -0.40638,-1.11809 -0.37902,-1.41636c0.04156,-0.45323 0.66172,-1.66617 0.66172,-1.66617M267.58089,188.5931c0,0 -0.43948,-1.572 -0.50113,-2.19958c-0.04734,-0.48052 0.16375,-1.24678 0.16375,-1.24678M277.63991,184.28379c0,0 0.6224,1.01191 0.64329,1.55177c0.02193,0.57578 -0.51488,1.80254 -0.51488,1.80254" fill="none" stroke-linecap="round"/></g></g><g><path d="M315.14949,162.51486c0,0 9.48937,2.49827 13.11807,4.08998c2.89804,1.27128 6.72294,5.42583 6.72294,5.42583c0,0 0.5646,1.40781 -0.47604,1.65629c-5.21057,1.2436 -22.52502,5.17367 -31.4424,5.19089c-8.13691,0.01538 -26.3776,-5.95722 -26.3776,-5.95722l1.14827,-1.9798c0,0 1.88201,-3.13053 4.61522,-4.39934c3.17358,-1.47239 12.00363,-3.91469 12.00363,-3.91469" fill="#fedfc3" stroke="#d4a980" stroke-width="2.5" stroke-linecap="round"/><g fill="#010100" stroke="#0a0a0b" stroke-width="3" stroke-linecap="butt"><path d="M304.53584,184.22559c0.1679,0.74296 -34.09505,4.13057 -34.09505,4.13057l-0.72574,-4.13057c0,0 7.49911,-9.18861 17.75174,-10.29629c10.10809,-1.0923 15.59789,3.78431 17.06905,10.29629z"/><path d="M290.60351,173.9293l37.06846,2.76928l8.34502,7.52701l-0.72574,4.13057c0,0 -51.9624,-3.38761 -51.79388,-4.13057c1.47055,-6.51198 7.10613,-10.29629 7.10613,-10.29629z" data-paper-data="{&quot;index&quot;:null}"/></g><g data-paper-data="{&quot;index&quot;:null}" stroke="#0a0a0b" stroke-width="2.5"><path d="M342.33432,184.12857c2.67013,4.82502 2.14312,8.95376 -0.43175,13.83028c-1.5093,2.85807 -5.49349,7.69839 -5.49349,7.69839c0,0 13.00729,66.5141 13.90155,72.47501c0.89365,5.96152 -9.93808,8.493 -15.83075,9.64751c-5.89267,1.15451 -25.43737,-1.56212 -25.43737,-1.56212c0,0 -41.06087,2.82147 -43.92346,-4.2046c-1.74284,-4.2777 -1.62741,-14.97206 -1.13641,-18.58747c3.09424,-22.78826 12.54547,-57.76834 12.54547,-57.76834c0,0 -5.93664,-10.59959 -4.00732,-20.58121c1.92933,-9.98162 11.75164,-19.48505 11.75164,-19.48505c0,0 8.49196,6.23569 17.17194,9.87239c4.97562,2.08374 10.15606,3.18588 12.77672,4.29294c0.7608,0.32166 9.18,2.11203 16.43249,3.29843c5.41846,0.88565 10.28338,1.28542 10.28338,1.28542" data-paper-data="{&quot;index&quot;:null}" fill="#1e1e21" stroke-linecap="round"/><path d="M343.4383,185.44275c0,0 -20.82261,-0.17713 -30.85013,-3.16927c-10.10378,-3.0149 -29.54625,-14.85247 -29.54625,-14.85247c0,0 0.43914,-1.17041 1.01973,-1.67966c0.56091,-0.49203 3.91408,-1.3254 3.91408,-1.3254c0,0 16.53397,11.27788 25.60388,14.25588c8.96905,2.9454 28.51607,3.51492 28.51607,3.51492c0,0 1.19193,0.96192 1.47854,1.65629c0.28661,0.69437 -0.13592,1.5997 -0.13592,1.5997z" fill="#1e1e1f" stroke-linecap="butt"/><path d="M335.27556,181.82449c0,0 0.50679,1.26451 0.50679,1.71964c0,0.29952 -0.50679,1.37583 -0.50679,1.37583" fill="none" stroke-linecap="round"/><path d="M290.19723,170.99743c0,0 0.03752,-1.0757 0.18882,-1.37522c0.23064,-0.45513 1.37583,-1.71964 1.37583,-1.71964" data-paper-data="{&quot;index&quot;:null}" fill="none" stroke-linecap="round"/><path d="M321.03443,180.48063c0,0 0.13654,1.35493 0.01046,1.79283c-0.08303,0.28723 -0.86781,1.18087 -0.86781,1.18087" fill="none" stroke-linecap="round"/><path d="M304.57551,178.58081c0,0 -0.13654,-1.35554 -0.01046,-1.79283c0.08242,-0.28784 0.8672,-1.18148 0.8672,-1.18148" data-paper-data="{&quot;index&quot;:null}" fill="none" stroke-linecap="round"/></g></g><g data-paper-data="{&quot;index&quot;:null}" stroke="#d4a980" stroke-width="3"><path d="M368.57761,300.41715c-1.01771,0.97597 -3.78669,0.83636 -4.31688,0.87603c-1.60428,0.12031 -5.31728,-0.3173 -5.31728,-0.3173c0,0 -5.22549,1.28913 -8.18184,1.28487c-3.4211,-0.00506 -11.15473,-1.31308 -11.15473,-1.31308c0,0 -3.91312,0.47886 -5.70016,0.36014c-1.54226,-0.10274 -2.23209,0.31126 -3.37617,-1.03199c-1.14408,-1.34325 -1.68229,-2.85535 -1.32091,-4.4828c0.43167,-1.94527 2.71819,-6.40652 2.71819,-6.40652h38.78146c0,0 0.41926,3.95282 0.00331,5.82676c0,0 -0.26375,3.4094 -2.13499,5.20389z" fill="#fedfc3" stroke-linecap="butt"/><path d="M358.92112,300.77252l-0.47136,-3.98397M340.76875,296.90593l-1.17923,3.87032" fill="none" stroke-linecap="round"/></g><path d="M323.15355,181.45189c0,0 -2.51119,-11.01957 9.71877,-13.22939c13.69682,-2.47428 15.96506,5.26961 15.96506,5.26961c0,0 18.10569,93.07589 21.39887,108.86262c0.91548,4.38859 3.06529,8.41289 3.06529,8.41289c0,0 -13.31728,2.19849 -20.4523,2.77232c-8.01082,0.64456 -23.06973,-2.76027 -23.06973,-2.76027c0,0 1.80599,-6.40245 1.55399,-10.56062c-0.25201,-4.15817 -6.94128,-86.00026 -8.17996,-98.76776z" data-paper-data="{&quot;index&quot;:null}" fill="#1e1e21" stroke="#0a0a0b" stroke-width="2.5" stroke-linecap="round"/><g><path d="M302.21593,186.0347c0,0 -3.19818,-2.83838 -4.49406,-4.41472c-1.25652,-1.52836 -3.16558,-4.90305 -3.16558,-4.90305c0,0 -1.05417,1.0597 -1.45148,1.98533c-0.37948,0.88565 -0.8795,3.45526 -0.8795,3.45526c0,0 -3.08317,-2.06344 -4.31508,-3.99157c-1.3377,-2.09358 -1.5874,-4.40242 -2.1397,-6.12451c-0.12916,-0.40285 -3.10408,1.1618 -3.85873,3.37223c-0.90287,2.64465 0.40285,6.05993 0.40285,6.05993c0,0 -8.89032,-5.28499 -9.50659,-8.10062c-0.64025,-2.92326 0.80077,-9.33622 0.80077,-9.33622c0,0 -4.45285,-0.65686 -6.11652,-1.30756c-1.14765,-0.44898 -2.90911,-3.26583 -2.90911,-3.26583c0,0 2.09973,-0.89918 2.82116,-1.66859c0.68084,-0.72574 1.39367,-2.82608 1.39367,-2.82608c0,0 -5.53592,1.50868 -7.41116,0.3721c-2.36173,-1.43057 -5.63802,-8.27959 -5.63802,-8.27959c0,0 6.2223,-2.09358 8.26545,-6.94374c0.54923,-1.30387 1.01419,-3.31504 0.31121,-4.65581c-1.46071,-2.78734 -5.21857,-5.02729 -4.46638,-8.49117c0.75588,-3.48109 4.65151,-10.38178 4.65151,-10.38178c0,0 -6.42588,-4.51435 -5.21242,-6.38221c0.15745,-0.24171 -0.09226,-2.08189 0.3438,-3.6859c0.47358,-1.74055 1.628,-3.24554 1.628,-3.24554c0,0 9.57855,3.20248 9.49921,2.7492c-0.8549,-4.87722 6.34531,-10.59889 7.2777,-11.28465c2.89989,-2.13417 8.13629,-3.21294 11.36338,-3.23262c2.15631,-0.0123 5.49041,0.99574 8.32757,2.02592c2.94663,1.07016 5.35818,2.16492 5.35818,2.16492c0,0 3.35686,-1.50991 7.84538,-2.40478c3.52107,-0.70114 7.73898,-1.02403 11.57925,0.0572c1.57879,0.44467 3.10469,1.30018 4.50513,2.3851c1.57756,1.22146 2.99645,2.73383 4.15517,4.27818c0.13961,0.18636 6.05501,7.15839 12.38679,10.82768c6.53167,3.78492 13.4834,4.26711 13.4834,4.26711c0,0 -1.49822,5.30467 -6.44126,11.55957c-0.72916,0.92202 -1.46126,1.8417 -2.19629,2.75904c-1.29772,1.62 4.87599,3.47925 4.87599,3.47925l-3.41836,5.66016c0,0 2.09296,8.28759 1.08615,12.27424c-1.71226,6.78383 -6.04825,11.63584 -6.04825,11.63584c0,0 -0.5031,-1.97549 -1.17656,-3.01797c-0.86289,-1.33462 -3.57335,-4.33169 -3.57335,-4.33169c0,0 1.16795,3.87041 1.13412,5.94c-0.02706,1.70426 -1.32048,5.59558 -1.32048,5.59558l-7.2611,1.13166c0,0 -0.29276,4.08075 -1.15503,5.50456c-3.50324,5.78624 -9.89098,9.35652 -9.89098,9.35652c0,0 2.34943,-5.53346 1.83034,-7.29923c-0.49387,-1.68089 -4.87107,-3.05242 -4.87107,-3.05242c0,0 -1.64583,5.21734 -2.22212,5.91848c-1.96565,2.39125 -3.84458,3.8249 -3.84458,3.8249c0,0 -0.67346,-1.49084 -1.02711,-2.23257c-0.37886,-0.79339 -1.17472,-2.38387 -1.17472,-2.38387c0,0 -2.00686,3.77754 -3.23693,5.01868c-2.28916,2.31068 -4.77882,3.25661 -4.71362,3.43312" fill="url(#color-3)" stroke="none" stroke-width="1" stroke-linecap="butt"/><g fill="none" stroke="#670808" stroke-width="2.5"><g><path d="M340.3579,155.30305c0,0 1.39797,3.93622 1.33462,5.93324c-0.06396,2.03453 -1.71472,6.16264 -1.71472,6.16264c0,0 -5.16875,0.50002 -6.95358,-0.13531c-1.62308,-0.5769 -2.63235,-1.99456 -2.63235,-1.99456" stroke-linecap="round"/><path d="M349.27221,138.97389c0.56714,0.8411 1.05295,1.73426 1.45087,2.6674c0.63349,1.50376 1.00128,3.51369 1.0308,5.6534c0.0326,2.3156 -0.33212,4.78374 -1.18517,6.92713c-1.84695,4.6392 -5.64909,7.94255 -6.18971,8.47087c-0.63533,0.62118 0.49264,-1.19993 -0.24355,-2.54317c-0.41515,-0.75649 -1.6526,-1.51667 -2.89128,-1.99825M273.27918,164.47506c0,0 -4.12688,-1.19378 -4.83171,-1.358c-1.38506,-0.32228 -4.71547,-3.30458 -4.71547,-3.30458c0,0 2.54132,-0.71221 3.45649,-1.61447c0.97667,-0.96314 2.23257,-3.99342 2.23257,-3.99342c0,0 -6.10914,2.42324 -8.44319,1.19563c-2.39925,-1.26267 -5.76226,-8.67076 -5.76226,-8.67076c0,0 3.63362,-1.07016 4.94057,-2.39433c1.70734,-1.72948 4.48483,-2.49458 4.42702,-7.09627c-0.03198,-2.54932 -1.62677,-3.81506 -2.94663,-5.30406c-1.06278,-1.1987 -1.9472,-2.54132 -1.69626,-4.81449c0.22756,-2.05421 1.35308,-4.18285 2.64834,-6.08638" stroke-linecap="round"/><path d="M295.60492,177.18105c-0.67285,0.18144 -2.03269,0.67654 -2.49581,1.8039c-0.56891,1.38629 -0.69868,3.66868 -0.69868,3.66868c0,0 -2.93925,-1.79098 -3.9559,-3.4036c-1.87093,-2.96693 -2.50873,-6.69772 -2.50873,-6.69772c0,0 -3.68406,0.28722 -4.18961,2.71845c-0.55845,2.68401 1.39121,7.167 1.39121,7.167c0,0 -8.26791,-4.13549 -9.84301,-8.68675c-1.12797,-3.2603 -0.81246,-5.80223 -0.51663,-7.04522c0.12916,-0.54246 1.7756,-4.26157 1.7756,-4.26157M331.72159,165.86811c0,0 1.35861,3.20002 -0.26262,7.8829c-1.57449,4.55125 -9.8424,8.68675 -9.8424,8.68675c0,0 1.94966,-4.48299 1.39121,-7.167c-0.50556,-2.43123 -4.19023,-2.71845 -4.19023,-2.71845c0,0 -0.63718,3.73141 -2.50811,6.69772c-1.01665,1.61262 -3.9559,3.4036 -3.9559,3.4036c0,0 -0.12977,-2.28178 -0.69929,-3.66868c-0.46251,-1.12736 -1.82296,-1.62246 -2.49581,-1.8039" data-paper-data="{&quot;index&quot;:null}" stroke-linecap="butt"/><path d="M308.23895,89.65674c-2.82239,-1.17841 -4.92028,5.33665 -4.92028,5.33665l-0.07565,0.00123c0,0 -0.44836,-5.70506 -1.48039,-7.12087c-1.38813,-1.90476 -3.65453,-3.27198 -5.57529,-1.88816M331.34641,100.15599c0,0 1.87647,2.41093 4.70932,4.91412c3.109,2.74736 7.9936,5.69153 9.67326,6.65037c3.69943,2.1108 11.48269,3.29351 11.48269,3.29351c0,0 -4.5574,10.92301 -8.09508,13.80137c-0.34676,0.27554 -0.71583,0.52178 -1.10337,0.7362" stroke-linecap="round"/><path d="M347.31948,127.52318c0.26939,5.3385 6.4431,4.50697 6.4431,4.50697c0,0 -3.87103,7.91857 -7.67993,8.33372M262.01544,121.79229c0,0 3.65515,-4.45715 0.97913,-5.7764c-8.27221,-4.07952 -1.62431,-13.02028 -1.62431,-13.02028c0,0 7.67809,4.71731 9.41249,1.31986" data-paper-data="{&quot;index&quot;:null}" stroke-linecap="butt"/><path d="M270.65728,104.60146c0,0 0.74296,-2.07759 2.3851,-4.5082c0.99267,-1.46993 2.31376,-3.06841 3.99772,-4.41472c1.48777,-1.19009 3.35194,-2.21966 5.36864,-2.978c2.25595,-0.84875 4.70194,-1.35677 7.02308,-1.37153c2.1557,-0.0123 5.4898,0.99574 8.32757,2.02654c2.94663,1.07016 5.35756,2.16492 5.35756,2.16492c0,0 3.35686,-1.50991 7.84599,-2.40478c3.52107,-0.70114 7.73898,-1.02465 11.57925,0.0572c1.57879,0.44467 3.10408,1.30018 4.50513,2.3851c1.57695,1.22146 2.99645,2.73383 4.15456,4.27756c1.27312,1.69626 5.12262,5.43075 5.12262,5.43075" stroke-linecap="butt"/></g><path d="M310.27657,176.44263c0,0 -0.78232,2.86114 -1.90292,4.41103c-2.01301,2.78303 -6.04148,5.55007 -6.04148,5.55007c0,0 -4.02848,-2.76704 -6.04087,-5.55007c-1.12121,-1.54989 -1.90353,-4.41103 -1.90353,-4.41103" data-paper-data="{&quot;index&quot;:null}" stroke-linecap="butt"/></g></g></g></g></svg>