<svg version="1.1" xmlns="http://www.w3.org/2000/svg" xmlns:xlink="http://www.w3.org/1999/xlink" width="150.25586" height="270.62135" viewBox="0,0,150.25586,270.62135"><defs><linearGradient x1="182.6505" y1="140.16833" x2="178.91632" y2="242.972" gradientUnits="userSpaceOnUse" id="color-1"><stop offset="0" stop-color="#800000"/><stop offset="1" stop-color="#5f0000"/></linearGradient><linearGradient x1="158.65909" y1="153.82258" x2="153.4495" y2="297.24463" gradientUnits="userSpaceOnUse" id="color-2"><stop offset="0" stop-color="#520000"/><stop offset="1" stop-color="#320000"/></linearGradient><linearGradient x1="158.65909" y1="153.82258" x2="153.4495" y2="297.24463" gradientUnits="userSpaceOnUse" id="color-3"><stop offset="0" stop-color="#520000"/><stop offset="1" stop-color="#320000"/></linearGradient><linearGradient x1="191.77761" y1="153.2908" x2="191.77761" y2="256.16227" gradientUnits="userSpaceOnUse" id="color-4"><stop offset="0" stop-color="#800000"/><stop offset="1" stop-color="#5f0000"/></linearGradient><linearGradient x1="168.29766" y1="167.80693" x2="168.29766" y2="311.32356" gradientUnits="userSpaceOnUse" id="color-5"><stop offset="0" stop-color="#520000"/><stop offset="1" stop-color="#320000"/></linearGradient><linearGradient x1="168.29766" y1="167.80693" x2="168.29766" y2="311.32356" gradientUnits="userSpaceOnUse" id="color-6"><stop offset="0" stop-color="#520000"/><stop offset="1" stop-color="#320000"/></linearGradient></defs><g transform="translate(-84.94103,12.47109)"><g data-paper-data="{&quot;isPaintingLayer&quot;:true}" fill-rule="nonzero" stroke-linejoin="miter" stroke-miterlimit="10" stroke-dasharray="" stroke-dashoffset="0" style="mix-blend-mode: normal"><g><path d="M142.17618,138.69816l81.71832,11.96549l-6.81019,83.94413l-9.18681,9.41692l-32.82556,-10.94295l12.17552,-56.62742l-47.34929,-5.25667" fill="url(#color-1)" stroke="url(#color-2)" stroke-width="0" stroke-linecap="round"/><g fill="#000000" stroke="#251818" stroke-width="0" stroke-linecap="butt"><path d="M185.34273,181.60062l4.37923,-4.6208c0,0 1.84843,4.23501 2.62265,3.90238c1.68458,-0.72374 3.41483,-3.75687 3.41483,-3.75687c0,0 -0.38968,2.82437 -0.17782,3.91466c0.16033,0.82512 1.33802,2.05613 1.33802,2.05613c0,0 2.33262,-0.99352 3.26106,-1.54068c2.59133,-1.52713 7.88412,-13.34555 7.88412,-13.34555c0,0 -2.60624,14.08158 -1.00409,13.79576c2.00703,-0.35803 3.72007,-0.91216 4.88082,-1.7361c2.75634,-1.95657 7.85019,-23.1223 7.85019,-23.1223c0,0 -3.87794,16.70981 -3.53365,21.55629c0.09247,1.30169 4.45059,-4.28962 4.45059,-4.28962l0.95813,9.12831l-4.48138,50.57899l-12.34885,9.56881l-28.59426,-8.36192z"/><path d="M197.62635,158.87213c0,0 -5.10727,10.92123 -5.37001,12.97741c-0.25001,1.95659 -4.09859,1.8168 -3.84857,-0.13979c0.26274,-2.05618 9.21859,-12.83762 9.21859,-12.83762z"/><path d="M212.97744,169.89846c-0.13445,1.05216 -2.20403,0.97699 -2.06958,-0.07517c0.14129,-1.10572 -1.08585,-7.12295 -1.08585,-7.12295c0,0 3.29671,6.09241 3.15542,7.19812z" data-paper-data="{&quot;index&quot;:null}"/></g><path d="M142.17618,138.69816l81.71832,11.96549l-6.81019,83.94413l-9.18681,9.41692l-32.82556,-10.94295l12.17552,-56.62742l-47.34929,-5.25667" fill="none" stroke="url(#color-3)" stroke-width="3.5" stroke-linecap="round"/></g><g><path d="M151.27661,153.2908l82.09881,8.99126l-3.75857,84.13601l-8.83892,9.74419l-33.20115,-9.74419l10.11194,-57.03207l-47.5089,-3.53445" fill="url(#color-4)" stroke="url(#color-5)" stroke-width="0" stroke-linecap="round"/><g fill="#000000" stroke="#251818" stroke-width="0" stroke-linecap="butt"><path d="M195.97204,194.59806l4.20861,-4.77671c0,0 2.00093,4.16511 2.76257,3.80461c1.65719,-0.78441 3.27621,-3.87835 3.27621,-3.87835c0,0 -0.2869,2.83665 -0.0356,3.91853c0.19017,0.81876 1.41177,2.00621 1.41177,2.00621c0,0 2.29502,-1.07754 3.20298,-1.65804c2.53419,-1.62019 7.39449,-13.62294 7.39449,-13.62294c0,0 -2.09337,14.1669 -0.50265,13.82312c1.99272,-0.43065 3.68451,-1.04659 4.81458,-1.91213c2.6835,-2.05534 7.00569,-23.39202 7.00569,-23.39202c0,0 -3.26883,16.83956 -2.74884,21.67035c0.13966,1.29747 4.29195,-4.44835 4.29195,-4.44835l1.28885,9.08751l-2.64243,50.70833l-11.99337,10.01076l-28.87894,-7.31845z"/><path d="M207.42253,171.43866c0,0 -4.70747,11.09942 -4.8954,13.16378c-0.17882,1.96438 -4.02993,1.96438 -3.85111,0c0.18793,-2.06436 8.74651,-13.16378 8.74651,-13.16378z"/><path d="M223.16376,181.90048c-0.09616,1.05635 -2.1671,1.05635 -2.07094,0c0.10106,-1.11012 -1.34369,-7.07884 -1.34369,-7.07884c0,0 3.51568,5.96873 3.41463,7.07884z" data-paper-data="{&quot;index&quot;:null}"/></g><path d="M151.27661,153.2908l82.09881,8.99126l-3.75857,84.13601l-8.83892,9.74419l-33.20115,-9.74419l10.11194,-57.03207l-47.5089,-3.53445" fill="none" stroke="url(#color-6)" stroke-width="3.5" stroke-linecap="round"/></g><path d="M167.61793,63.96304l-6.72897,19.02056h-27.27478l-5.4729,-16.77757z" fill="#800000" stroke="#520000" stroke-width="3.5" stroke-linecap="round"/><path d="M107.0126,30.81634c0,-23.07855 18.70886,-41.78742 41.78742,-41.78742c23.07855,0 41.78743,18.70886 41.78743,41.78742c0,23.07856 -18.70887,41.78743 -41.78743,41.78743c-23.07855,0 -41.78742,-18.70887 -41.78742,-41.78742z" data-paper-data="{&quot;index&quot;:null}" fill="#800000" stroke="#520000" stroke-width="3" stroke-linecap="butt"/><g data-paper-data="{&quot;index&quot;:null}" fill="none"><g stroke="#520000" stroke-width="3" stroke-linecap="round"><path d="M173.17894,64.71264c0,0 -7.71976,1.34141 -11.3351,1.00607c-3.31627,-0.30761 -9.5373,-2.94213 -9.5373,-2.94213" data-paper-data="{&quot;index&quot;:null}"/></g><g data-paper-data="{&quot;index&quot;:null}" stroke="none" stroke-width="1" stroke-linecap="butt" font-family="sans-serif" font-weight="normal" font-size="12" text-anchor="start"/></g><g data-paper-data="{&quot;index&quot;:null}" stroke-width="3" stroke-linecap="butt"><path d="M188.07052,35.26866c-0.11778,9.92706 -6.53378,17.56051 -14.33059,17.04979c-7.79678,-0.51073 -14.02185,-8.97221 -13.90407,-18.89926c0.11777,-9.92706 6.53378,-17.56051 14.33056,-17.0498c7.79679,0.51073 14.02186,8.9722 13.90408,18.89925z" fill="#ffffff" stroke="#848799"/><path d="M188.07374,34.67524c0,7.79689 -3.36265,14.11751 -7.51068,14.11751c-4.14804,0 -7.51069,-6.32062 -7.51069,-14.11751c0,-7.79688 3.36265,-14.11751 7.51069,-14.11751c4.14804,0 7.51068,6.32063 7.51068,14.11751z" fill="#000000" stroke="#1a0937"/></g><g data-paper-data="{&quot;index&quot;:null}" fill="#5f0000" stroke="#320000" stroke-width="3" stroke-linecap="butt"><path d="M104.39992,228.69582c-9.37834,-1.0266 -18.51494,-4.66197 -17.93245,-9.83988c0.57256,-5.08958 9.96958,-6.63968 19.19055,-5.66282c9.43989,1.00005 18.69524,4.64849 18.10908,9.85891c-0.57622,5.12208 -10.08998,6.65934 -19.36718,5.6438z"/><path d="M86.47665,218.85377c0,0 15.17476,-115.70956 15.17651,-115.75327c0.37097,-9.30352 9.14048,-16.4397 18.48318,-15.5469c9.61267,0.91859 15.57882,7.58679 15.20785,16.89032v0c-0.01911,0.47919 -3.86084,39.825 -7.11141,73.06546c-2.38795,24.41927 -4.45686,45.54364 -4.45686,45.54364"/></g><g stroke-linecap="round"><g data-paper-data="{&quot;index&quot;:null}"><path d="M139.25786,77.36527c0,0 19.30151,-0.65729 26.16369,0.64395c6.86218,1.30124 23.90875,7.65775 23.90875,7.65775l-3.80632,32.91601l8.81883,54.82504l-27.12311,16.68983c0,0 -12.89978,1.79305 -16.42964,-0.93589c-3.386,-2.61772 -11.04474,-6.13063 -11.04474,-6.13063" fill="#800000" stroke="#0f0047" stroke-width="0"/><g fill="none" stroke="#520000" stroke-width="3.5"><path d="M157.76462,77.11887c0,0 32.06449,7.86544 31.96383,8.68134c-0.47307,3.83446 -4.04453,32.78277 -4.04453,32.78277l-11.54529,76.51391l-23.19402,-5.27553l-10.401,-5.58832"/></g></g><g><path d="M151.53633,181.1194l-8.89335,4.65614c0,0 -9.5885,-1.61638 -13.52559,-4.39793c-4.6842,-3.30939 -12.7297,-14.15141 -12.7297,-14.15141l-6.09027,-48.64323l-3.80631,-32.91601c0,0 17.04657,-6.35652 23.90875,-7.65775c6.86219,-1.30124 26.1637,-0.64395 26.1637,-0.64395" fill="#800000" stroke="#0f0047" stroke-width="0"/><g fill="none" stroke="#520000" stroke-width="3.5"><path d="M142.07706,185.77554c0,0 -9.21924,-2.87593 -13.12628,-5.68931c-4.50894,-3.2468 -12.38127,-12.6782 -12.38127,-12.6782l-6.43202,-48.82504c0,0 -3.57145,-28.94831 -4.04452,-32.78276c-0.10066,-0.8159 31.96383,-8.68134 31.96383,-8.68134"/></g></g></g><g fill="#5f0000" stroke="#320000" stroke-width="3" stroke-linecap="butt"><path d="M161.29368,223.05202c-0.58615,-5.21042 8.6692,-8.85886 18.10908,-9.85891c9.22096,-0.97686 18.61798,0.57324 19.19054,5.66282c0.5825,5.17792 -8.55411,8.81328 -17.93245,9.83988c-9.27721,1.01553 -18.79095,-0.52172 -19.36718,-5.6438z"/><path d="M161.28484,223.05301c0,0 -11.53511,-117.77788 -11.56826,-118.60909v0c-0.37097,-9.30353 5.59517,-15.97171 15.20785,-16.89031c9.3427,-0.8928 18.11221,6.24338 18.48318,15.5469c0.00174,0.04372 15.17651,115.75329 15.17651,115.75329"/></g></g></g></svg>