<svg version="1.1" xmlns="http://www.w3.org/2000/svg" xmlns:xlink="http://www.w3.org/1999/xlink" width="209.67249" height="200.08402" viewBox="0,0,209.67249,200.08402"><g transform="translate(-134.69165,-79.95799)"><g data-paper-data="{&quot;isPaintingLayer&quot;:true}" fill-rule="nonzero" stroke-linejoin="miter" stroke-miterlimit="10" stroke-dasharray="" stroke-dashoffset="0" style="mix-blend-mode: normal"><g><g fill="#6a4721" stroke="#472b0d" stroke-width="2" stroke-linecap="round"><path d="M256.29134,138.46223l55.03095,4.854l-29.70342,45.02694" data-paper-data="{&quot;index&quot;:null}"/><path d="M193.41393,159.05144l4.854,-55.03095l45.02694,29.70342" data-paper-data="{&quot;index&quot;:null}"/><path d="M213.77917,221.53778l-55.03095,-4.854l29.70342,-45.02694" data-paper-data="{&quot;index&quot;:null}"/><path d="M276.65657,200.94857c0,0 -0.16425,1.86213 -0.34391,3.899c-0.65062,7.3762 -4.51009,51.13195 -4.51009,51.13195l-45.02694,-29.70342" data-paper-data="{&quot;index&quot;:null}"/></g><g fill="#6a4721" stroke="#472b0d" stroke-width="2" stroke-linecap="round"><path d="M220.69394,135.59805l42.34506,-35.48047l10.83536,52.84234" data-paper-data="{&quot;index&quot;:null}"/><path d="M190.79167,194.61786l-35.48047,-42.34506l52.84234,-10.83536" data-paper-data="{&quot;index&quot;:null}"/><path d="M249.37658,224.40196l-42.34506,35.48047l-10.83536,-52.84234" data-paper-data="{&quot;index&quot;:null}"/><path d="M279.27886,165.38215l35.48047,42.34506l-52.84234,10.83536" data-paper-data="{&quot;index&quot;:null}"/></g><g fill="#ffcd97" stroke="#e89031" stroke-width="2" stroke-linecap="round"><path d="M194.75281,216.64003l-58.11693,-27.90936l50.94295,-36.98102" data-paper-data="{&quot;index&quot;:null}"/><path d="M271.89288,219.98085l-27.90936,58.11693l-36.98102,-50.94294" data-paper-data="{&quot;index&quot;:null}"/><path d="M275.3177,143.35998l58.11693,27.90936l-50.94294,36.98102" data-paper-data="{&quot;index&quot;:null}"/><path d="M198.17764,140.01914l27.90936,-58.11693l36.98102,50.94295" data-paper-data="{&quot;index&quot;:null}"/></g><g fill="#ffcd97" stroke="#e89031" stroke-width="2" stroke-linecap="round"><path d="M232.45968,234.3924l-60.82978,21.35998l9.87258,-62.17163" data-paper-data="{&quot;index&quot;:null}"/><path d="M289.36825,182.20844l21.35998,60.82978l-62.17163,-9.87258" data-paper-data="{&quot;index&quot;:null}"/><path d="M237.61083,125.60759l60.82978,-21.35998l-9.87258,62.17163" data-paper-data="{&quot;index&quot;:null}"/><path d="M180.70226,177.79154l-21.35998,-60.82978l62.17163,9.87258" data-paper-data="{&quot;index&quot;:null}"/></g><path d="M178.11486,184.19631c-2.97377,-31.22819 19.93097,-58.95437 51.15917,-61.92814c31.2282,-2.97377 58.95437,19.93097 61.92814,51.15917c2.97377,31.2282 -19.93097,58.95437 -51.15917,61.92814c-31.2282,2.97377 -58.95437,-19.93097 -61.92814,-51.15917z" fill="#ff8200" stroke="#9a4e00" stroke-width="3" stroke-linecap="butt"/><path d="M178.11486,184.19631c-2.97377,-31.22819 19.93097,-58.95437 51.15917,-61.92814c31.2282,-2.97377 58.95437,19.93097 61.92814,51.15917c2.97377,31.2282 -19.93097,58.95437 -51.15917,61.92814c-31.2282,2.97377 -58.95437,-19.93097 -61.92814,-51.15917z" fill="#ff8200" stroke="#9a4e00" stroke-width="3" stroke-linecap="butt"/><path d="M229.03952,185.4261c1.07419,13.45208 -9.10695,24.84429 -22.74029,25.44521c-13.63331,0.60092 -25.5561,-9.817 -26.63028,-23.26907c-1.0742,-13.45208 9.10695,-24.84428 22.74024,-25.44521c13.63331,-0.60091 25.55612,9.81698 26.6303,23.26905z" fill="#ffe1c2" stroke="#020007" stroke-width="0" stroke-linecap="butt"/><g stroke-width="3" stroke-linecap="butt"><path d="M291.71689,184.09777c-1.1908,10.11974 -8.44502,17.83294 -17.7334,20.1103c-3.01301,0.73874 -6.24006,0.9055 -9.54362,0.39686c-13.48762,-2.07664 -23.14303,-14.62491 -21.56596,-28.02733c1.57706,-13.40243 13.78936,-22.5838 27.27696,-20.50717c13.48762,2.07665 23.14306,14.62489 21.56598,28.02731z" fill="#ffe1c2" stroke="#d4a676"/><path d="M286.2231,186.31919c-1.0778,10.54295 -7.79899,18.49192 -15.01222,17.75451c-7.21324,-0.7374 -12.18698,-9.88193 -11.10919,-20.42488c1.07779,-10.54294 7.79899,-18.49192 15.01224,-17.75452c7.21324,0.73739 12.18697,9.88194 11.10918,20.42488z" fill="#080808" stroke="#27104d"/></g><g stroke-width="3" stroke-linecap="butt"><path d="M228.77572,190.27425c-1.57707,13.40243 -13.78937,22.58381 -27.27701,20.50717c-13.48762,-2.07664 -23.14303,-14.6249 -21.56596,-28.02732c1.57706,-13.40243 13.78936,-22.5838 27.27696,-20.50718c13.48762,2.07665 23.14306,14.62489 21.56598,28.02731z" fill="#ffe1c2" stroke="#d4a676"/><path d="M223.97963,190.86774c-1.07779,10.54295 -7.79899,18.49192 -15.01222,17.75451c-7.21324,-0.7374 -12.18698,-9.88193 -11.10919,-20.42488c1.07779,-10.54294 7.79899,-18.49192 15.01223,-17.75453c7.21324,0.73739 12.18697,9.88194 11.10918,20.42488z" fill="#080808" stroke="#27104d"/></g><g fill="none" stroke="#9a4e00" stroke-width="3" stroke-linecap="round"><path d="M200.16291,214.69313l2.71798,8.99092"/><path d="M209.16672,224.07117l-2.71798,-8.99093"/><path d="M215.45254,224.14859l-2.71798,-8.99093"/></g><g data-paper-data="{&quot;index&quot;:null}" fill="none" stroke="#9a4e00" stroke-width="3" stroke-linecap="round"><path d="M270.40666,214.69313l-2.71797,8.99092"/><path d="M261.40288,224.07117l2.71797,-8.99093"/><path d="M257.83502,215.15766l-2.71798,8.99093"/></g></g><path d="M278.0346,214.2738c-0.05149,-0.53452 -16.67132,14.67837 -16.69787,14.14557c-0.31404,-6.30332 1.08541,-16.93899 4.49642,-23.913c0.22777,-0.46568 0.46449,-0.91503 0.71028,-1.34567c5.23517,-9.17244 14.08018,-12.99692 23.06453,-15.68128c0.22745,-0.06796 0.56962,6.61467 -0.31144,8.34747c-3.11647,6.12922 -11.29852,18.60413 -10.49124,18.44058" fill="#ff8200" stroke="#9a4e00" stroke-width="0" stroke-linecap="butt"/><path d="M261.63718,224.97464c-1.56776,-16.27421 8.51766,-31.91622 24.77492,-36.77359c1.032,-0.30834 2.06705,-0.56671 3.10255,-0.7765" fill="none" stroke="#9a4e00" stroke-width="3" stroke-linecap="butt"/><path d="M178.11485,184.19631c-2.97377,-31.22819 19.93097,-58.95437 51.15917,-61.92814c31.2282,-2.97377 58.95437,19.93097 61.92814,51.15917c2.97377,31.2282 -19.93097,58.95437 -51.15917,61.92814c-31.2282,2.97377 -58.95437,-19.93097 -61.92814,-51.15917z" fill="none" stroke="#9a4e00" stroke-width="3" stroke-linecap="butt"/><g stroke="#9a4e00" stroke-linecap="round"><path d="M192.35456,214.2032c0,0 -7.40715,-8.17332 -6.07293,-8.65397c3.777,-1.36065 11.66932,-3.96687 16.70873,-3.96687c6.07631,0 20.05996,1.58997 26.87142,3.31986c2.24547,0.57028 3.40331,7.40512 3.40331,7.40512" fill="#ff8200" stroke-width="0"/><path d="M185.51912,206.35508c0,0 10.65165,-4.77273 17.47123,-4.77273c8.07945,0 26.47727,3.63636 26.47727,3.63636" fill="none" stroke-width="3"/></g><g data-paper-data="{&quot;index&quot;:null}"><g fill="#ff0033" stroke="#000000" stroke-width="0" stroke-linecap="round"><path d="M328.76725,140.29327c2.12175,-3.06322 4.65534,-4.57337 8.13801,-4.01789c4.29586,0.68519 6.71727,6.01891 6.43693,8.986c-0.30016,3.1769 -2.32757,6.37828 -5.45703,8.88846c-2.79554,2.24233 -6.43786,3.43555 -8.74834,4.74184c-1.94645,1.10048 -3.68531,2.3481 -3.68531,2.3481"/><path d="M325.78993,161.29224c0,0 -1.27967,-1.71541 -2.80172,-3.35342c-1.8067,-1.94434 -4.91702,-4.18404 -6.90273,-7.16735c-2.22289,-3.33966 -3.18621,-7.00453 -2.51071,-10.12325c0.63089,-2.91277 4.55312,-7.26338 8.85486,-6.61616c3.48745,0.52471 5.44954,2.62787 6.54459,6.18962" data-paper-data="{&quot;index&quot;:null}"/></g><path d="M328.88422,140.20772c2.12175,-3.06322 4.53839,-4.4878 8.02106,-3.93232c4.29586,0.68519 6.71727,6.01891 6.43693,8.986c-0.30016,3.1769 -2.32757,6.37828 -5.45703,8.88846c-2.79554,2.24233 -6.43786,3.43555 -8.74834,4.74184c-1.94645,1.10048 -3.50766,2.37562 -3.50766,2.37562" fill="#fe2b55" stroke="#000000" stroke-width="0" stroke-linecap="round"/><path d="M325.54769,161.2547c0,0 -1.03743,-1.67788 -2.55948,-3.31588c-1.8067,-1.94434 -4.91702,-4.18404 -6.90273,-7.16735c-2.22289,-3.33966 -3.18621,-7.00453 -2.51071,-10.12325c0.63089,-2.91277 4.55312,-7.26338 8.85486,-6.61616c3.48744,0.52471 5.35953,2.61392 6.45458,6.17566" data-paper-data="{&quot;index&quot;:null}" fill="#fe2b55" stroke="#000000" stroke-width="0" stroke-linecap="round"/><g stroke-width="0"><g fill="#ff0033" stroke="#000000" stroke-linecap="round"><path d="M328.77009,140.94417c1.83119,-2.51154 3.93294,-3.66843 6.98214,-3.1829c3.76117,0.5989 5.91969,5.01962 5.69768,7.46616c-0.23772,2.61953 -1.98534,5.24584 -4.70188,7.29312c-2.42667,1.82883 -5.60184,2.78524 -7.61171,3.84533c-1.6932,0.89307 -3.04824,1.9333 -3.04824,1.9333"/><path d="M326.01674,158.2881c0,0 -0.92006,-1.3928 -2.26353,-2.75648c-1.59472,-1.6187 -4.33147,-3.49132 -6.09076,-5.96886c-1.96944,-2.77349 -2.84018,-5.80557 -2.27386,-8.37418c0.52892,-2.39897 3.92424,-5.95898 7.69026,-5.39137c3.05312,0.46016 4.70612,2.19895 5.69123,5.14695" data-paper-data="{&quot;index&quot;:null}"/></g><path d="M336.71638,138.54251c0.46494,-0.52248 1.75058,-0.1374 2.87154,0.86012c1.12096,0.99752 1.65277,2.22972 1.18783,2.75221c-0.46494,0.52249 -1.75058,0.1374 -2.87155,-0.86012c-1.12097,-0.99752 -1.65277,-2.22972 -1.18783,-2.75221z" fill="#ff6181" stroke="none" stroke-linecap="butt"/></g><path d="M328.88422,140.20772c2.12175,-3.06322 4.53839,-4.4878 8.02106,-3.93232c4.29586,0.68519 6.71727,6.01891 6.43693,8.986c-0.30016,3.1769 -2.32757,6.37828 -5.45703,8.88846c-2.79554,2.24233 -6.43786,3.43555 -8.74834,4.74184c-1.94645,1.10048 -3.50766,2.37562 -3.50766,2.37562" fill="none" stroke="#670015" stroke-width="2" stroke-linecap="round"/><path d="M325.54769,161.2547c0,0 -1.03743,-1.67788 -2.55948,-3.31588c-1.8067,-1.94434 -4.91702,-4.18404 -6.90273,-7.16735c-2.22289,-3.33966 -3.18621,-7.00453 -2.51071,-10.12325c0.63089,-2.91277 4.55312,-7.26338 8.85486,-6.61616c3.48744,0.52471 5.35953,2.61392 6.45458,6.17566" data-paper-data="{&quot;index&quot;:null}" fill="none" stroke="#670015" stroke-width="2" stroke-linecap="round"/></g></g></g></svg>