<svg version="1.1" xmlns="http://www.w3.org/2000/svg" xmlns:xlink="http://www.w3.org/1999/xlink" width="269.55531" height="446.03509" viewBox="0,0,269.55531,446.03509"><g transform="translate(-114.95674,15.19264)"><g data-paper-data="{&quot;isPaintingLayer&quot;:true}" fill-rule="nonzero" stroke-linejoin="miter" stroke-miterlimit="10" stroke-dasharray="" stroke-dashoffset="0" style="mix-blend-mode: normal"><g data-paper-data="{&quot;index&quot;:null}" fill="#14005d" stroke="#080028" stroke-width="3" stroke-linecap="butt"><path d="M139.59878,317.3687c-12.56208,-2.57675 -24.46671,-8.65342 -23.02281,-15.58714c1.41927,-6.81543 14.33288,-7.72346 26.68827,-5.23396c12.64874,2.5486 24.71241,8.65801 23.25944,15.63525c-1.42833,6.85895 -14.49829,7.73482 -26.92491,5.18585z"/><path d="M116.58866,301.77981c0,0 35.1868,-154.67281 35.1947,-154.73175c1.67998,-12.54383 14.45162,-21.09117 26.98241,-18.70002c12.89289,2.46025 20.12283,12.23996 18.44284,24.7838v0c-0.1501,1.12072 -30.67311,159.05348 -30.67311,159.05348"/></g><g fill="#14005d" stroke="#080028" stroke-width="3" stroke-linecap="butt"><path d="M339.60701,276.65589c-3.95359,-5.92977 4.95557,-16.10248 15.73729,-23.19053c10.53167,-6.92367 22.85003,-10.90411 26.71193,-5.11186c3.92893,5.89278 -4.84493,15.97573 -15.53575,23.05753c-10.57553,7.00543 -23.02691,11.0741 -26.91347,5.24487z"/><path d="M339.59696,276.66259c0,0 -87.29676,-135.10622 -87.85454,-136.08978v0c-6.24312,-11.0088 -3.18867,-22.78101 7.85253,-29.8783c10.73112,-6.89795 25.77077,-3.7388 32.01388,7.27c0.02934,0.05174 90.43497,130.39211 90.43497,130.39211"/></g><g stroke-linecap="round"><path d="M239.45581,251.07107l-3.21839,0.62825l-62.82649,-7.11635l6.68152,-76.49367c0,0 -6.90996,-5.23159 -9.73396,-8.51967c-2.7867,-3.24465 -7.09964,-11.08024 -7.09964,-11.08024c0,0 5.15485,-18.27629 8.87153,-24.21841c1.20969,-1.93401 10.98675,-10.69835 19.92507,-13.89759c8.93833,-3.19924 34.99307,-6.4011 34.99307,-6.4011" fill="#1b0080" stroke="#0f0047" stroke-width="0"/><path d="M199.32542,108.38605c0,0 36.46035,-6.88324 42.66347,-5.44846c5.15669,1.19274 12.17439,0.32034 22.60249,6.76125c5.36412,4.51096 15.89027,20.31587 15.89027,20.31587c0,0 -1.69391,8.78229 -3.34758,12.72676c-1.6758,3.99726 -6.64175,11.10053 -6.64175,11.10053l29.88456,70.73073l-57.59231,26.09474l-3.25562,0.39207" data-paper-data="{&quot;index&quot;:null}" fill="#1b0080" stroke="#0f0047" stroke-width="0"/><g fill="none" stroke="#0b0036" stroke-width="3.5"><path d="M239.45581,251.07107l-3.21839,0.62825l-62.82649,-7.11635l6.68152,-76.49367c0,0 -6.90996,-5.23159 -9.73396,-8.51967c-2.7867,-3.24465 -7.09964,-11.08024 -7.09964,-11.08024c0,0 5.15485,-18.27629 8.87153,-24.21841c1.20969,-1.93401 5.14971,-6.38184 9.6896,-9.10279c5.46114,-3.27311 11.54563,-4.6859 11.54563,-4.6859"/><path d="M240.25311,103.09268c0,0 6.22408,-0.52708 12.4272,0.9077c5.15669,1.19274 10.27373,4.21315 12.01962,5.68135c5.36412,4.51096 15.89027,20.31587 15.89027,20.31587c0,0 -1.69391,8.78229 -3.34758,12.72676c-1.6758,3.99726 -6.64175,11.10053 -6.64175,11.10053l29.88456,70.73073l-57.59231,26.09474l-3.25562,0.39207" data-paper-data="{&quot;index&quot;:null}"/></g></g><g fill="#160062" stroke="#0f0047" stroke-width="0" stroke-linecap="round"><path d="M222.51472,143.37383c0,0 7.09922,-0.79245 18.47847,-3.0208c11.47345,-2.2468 34.37969,-7.93038 34.37969,-7.93038c0,0 -1.39534,8.90046 -2.90543,12.44297c-1.5303,3.58991 -6.05627,9.97299 -6.05627,9.97299l-40.38292,10.74" data-paper-data="{&quot;index&quot;:null}"/><path d="M226.00095,165.58291l-41.72868,2.20106c0,0 -6.26982,-4.68163 -8.83006,-7.62684c-2.52644,-2.90634 -6.59164,-10.9462 -6.59164,-10.9462c0,0 23.54396,-1.63712 35.1523,-3.02809c11.51302,-1.37955 18.51186,-2.809 18.51186,-2.809" data-paper-data="{&quot;index&quot;:null}"/></g><g fill="none" stroke-width="3.5" stroke-linecap="round"><path d="M265.25273,155.71755c0,0 -27.50914,7.82065 -41.20529,9.97921c-13.27436,2.09208 -39.74582,2.77895 -39.74582,2.77895" stroke="#0b0036"/><path d="M274.18136,133.45444c0,0 -35.36983,8.89356 -53.06464,11.68232c-17.37363,2.73814 -52.15831,4.90116 -52.15831,4.90116" stroke="#0e0045"/></g><path d="M242.83567,85.53228l-3.152,19.01491c0,0 -3.60792,4.51487 -22.06173,7.65132v0c-18.52397,2.69137 -23.34561,-0.49497 -23.34561,-0.49497l-8.84758,-17.12374" data-paper-data="{&quot;index&quot;:null}" fill="#1b0080" stroke="#0b0036" stroke-width="3" stroke-linecap="round"/><path d="M150.66746,51.95769c-4.88365,-30.98698 16.27729,-60.06589 47.26428,-64.94954c30.98699,-4.88365 60.06589,16.27729 64.94954,47.26428c4.88365,30.98699 -16.27729,60.06589 -47.26428,64.94954c-30.98699,4.88365 -60.06589,-16.27729 -64.94954,-47.26428z" data-paper-data="{&quot;index&quot;:null}" fill="#1b0080" stroke="#0b0036" stroke-width="3" stroke-linecap="butt"/><path d="M201.57166,50.06152c1.89729,13.36086 -5.75387,36.85354 -19.32468,38.28957c-13.57078,1.43603 -27.92217,-19.72837 -29.81946,-33.08923c-0.16213,-1.14171 48.97394,-6.39858 49.1441,-5.20037z" data-paper-data="{&quot;index&quot;:null}" fill="#520000" stroke="#360000" stroke-width="3" stroke-linecap="butt"/><g data-paper-data="{&quot;index&quot;:null}" stroke-width="3" stroke-linecap="butt"><path d="M152.42756,50.0615c1.89728,-13.36085 14.43666,-23.0278 28.00744,-21.59178c13.57076,1.43605 23.03396,13.43129 21.13666,26.79215c-1.89728,13.36085 -14.43664,23.02783 -28.00742,21.5918c-13.57081,-1.43604 -23.034,-13.43129 -21.13671,-26.79215z" fill="#000000" stroke="#441f6b"/><path d="M168.50364,32.35258c7.16242,1.12882 11.6312,10.53046 9.9813,20.99913c-1.6499,10.46868 -8.79369,18.04013 -15.95611,16.91131c-7.16241,-1.12882 -11.63119,-10.53045 -9.98129,-20.99913c1.6499,-10.46867 8.79368,-18.04013 15.9561,-16.91131z" fill="#27104d" stroke="#1a0937"/></g><path d="M215.01682,47.61057c-0.20662,-1.19246 48.16449,-11.30304 48.36137,-10.16681c2.30404,13.29675 -4.84221,37.84926 -18.19685,40.65676c-13.35466,2.80751 -27.86051,-17.19315 -30.16455,-30.48991z" data-paper-data="{&quot;index&quot;:null}" fill="#520000" stroke="#360000" stroke-width="3" stroke-linecap="butt"/><g data-paper-data="{&quot;index&quot;:null}" stroke-width="3" stroke-linecap="butt"><path d="M263.46632,47.93676c-2.30402,13.29676 -14.99785,21.79999 -28.35252,18.99248c-13.35463,-2.8075 -22.31292,-15.86258 -20.00888,-29.15933c2.30402,-13.29676 14.99785,-21.79998 28.35247,-18.9925c13.35463,2.80751 22.31295,15.86256 20.0089,29.15931z" fill="#000000" stroke="#441f6b"/><path d="M263.59746,47.14087c-1.6499,10.46868 -8.79369,18.04013 -15.95611,16.91131c-7.16242,-1.12882 -11.6312,-10.53045 -9.9813,-20.99913c1.6499,-10.46867 8.79369,-18.04013 15.95611,-16.91131c7.16242,1.12882 11.6312,10.53046 9.9813,20.99913z" fill="#27104d" stroke="#1a0937"/></g><g data-paper-data="{&quot;index&quot;:null}" fill="none" stroke="#0b0036" stroke-width="3" stroke-linecap="round"><g><path d="M214.05181,88.63611c0,0 -7.19249,2.97938 -10.7648,3.08094c-3.2768,0.09315 -9.85916,-2.4946 -9.85916,-2.4946" data-paper-data="{&quot;index&quot;:null}"/></g><g data-paper-data="{&quot;index&quot;:null}"><path d="M233.8564,82.85078c0,0 -5.46738,4.48684 -8.614,5.40603c-3.43039,1.00209 -11.19059,0.3793 -11.19059,0.3793" data-paper-data="{&quot;index&quot;:null}"/></g></g><path d="M300.08694,221.87085l24.42773,180.47125l-9.80583,14.95368l-51.57933,-5.27918l-20.04211,-163.63159" data-paper-data="{&quot;index&quot;:null}" fill="#1b0080" stroke="#0b0036" stroke-width="3.5" stroke-linecap="round"/><path d="M236.22811,250.87733l5.73052,164.75667l-50.12858,13.24477l-12.01429,-13.24477l-3.57143,-181.82985" fill="#1b0080" stroke="#0b0036" stroke-width="3.5" stroke-linecap="round"/></g></g></svg>