<svg version="1.1" xmlns="http://www.w3.org/2000/svg" xmlns:xlink="http://www.w3.org/1999/xlink" width="53.79696" height="56.33787" viewBox="0,0,53.79696,56.33787"><defs><linearGradient x1="244.86985" y1="157.65258" x2="244.86985" y2="201.35722" gradientUnits="userSpaceOnUse" id="color-1"><stop offset="0" stop-color="#ff0000"/><stop offset="1" stop-color="#cc00ff"/></linearGradient><linearGradient x1="244.86985" y1="157.65258" x2="244.86985" y2="201.35722" gradientUnits="userSpaceOnUse" id="color-2"><stop offset="0" stop-color="#860000"/><stop offset="1" stop-color="#6b0085"/></linearGradient><linearGradient x1="228.62038" y1="148.44268" x2="228.62038" y2="181.09583" gradientUnits="userSpaceOnUse" id="color-3"><stop offset="0" stop-color="#ff0000"/><stop offset="1" stop-color="#e70079"/></linearGradient><linearGradient x1="228.62038" y1="148.44268" x2="228.62038" y2="181.09583" gradientUnits="userSpaceOnUse" id="color-4"><stop offset="0" stop-color="#c10000"/><stop offset="1" stop-color="#b7005e"/></linearGradient></defs><g transform="translate(-209.04658,-145.9278)"><g data-paper-data="{&quot;isPaintingLayer&quot;:true}" fill-rule="nonzero" stroke-linejoin="miter" stroke-miterlimit="10" stroke-dasharray="" stroke-dashoffset="0" style="mix-blend-mode: normal"><path d="M253.23087,179.70813c0,-8.59874 -25.07197,-7.6274 -25.07197,-7.6274c0,0 -1.04857,-6.98378 0.93189,-9.44093c1.89184,-2.34721 10.69719,-4.98722 10.69719,-4.98722c0,0 20.97163,1.06774 22.05556,18.93928c0.73743,12.1586 -26.66222,24.76536 -26.66222,24.76536c0,0 18.04956,-9.46814 18.04956,-21.64908z" fill="url(#color-1)" stroke="url(#color-2)" stroke-width="2" stroke-linecap="butt"/><path d="M246.57284,148.44268l-22.35589,32.65315l-13.54903,-15.44589z" fill="url(#color-3)" stroke="#000000" stroke-width="0" stroke-linecap="round"/><path d="M239.50412,158.76731l7.06873,-10.32462l-35.90492,17.20726l13.54903,15.44589l6.58211,-9.32931" fill="none" stroke="url(#color-4)" stroke-width="2" stroke-linecap="round"/></g></g></svg>