<svg version="1.1" xmlns="http://www.w3.org/2000/svg" xmlns:xlink="http://www.w3.org/1999/xlink" width="201.50927" height="341.25833" viewBox="0,0,201.50927,341.25833"><g transform="translate(-133.04959,-4.81034)"><g data-paper-data="{&quot;isPaintingLayer&quot;:true}" fill-rule="nonzero" stroke-linejoin="miter" stroke-miterlimit="10" stroke-dasharray="" stroke-dashoffset="0" style="mix-blend-mode: normal"><text transform="translate(133.63427,342.67763) scale(0.23387,0.23387)" font-size="40" xml:space="preserve" fill="#000000" fill-rule="nonzero" stroke="#6c6c6c" stroke-width="5" stroke-linecap="butt" stroke-linejoin="miter" stroke-miterlimit="10" stroke-dasharray="" stroke-dashoffset="0" font-family="Sans Serif" font-weight="normal" text-anchor="start" style="mix-blend-mode: normal"><tspan x="0" dy="0">0`</tspan></text><text transform="translate(133.63427,290.61577) scale(0.23387,0.23387)" font-size="40" xml:space="preserve" fill="#000000" fill-rule="nonzero" stroke="#6c6c6c" stroke-width="5" stroke-linecap="butt" stroke-linejoin="miter" stroke-miterlimit="10" stroke-dasharray="" stroke-dashoffset="0" font-family="Sans Serif" font-weight="normal" text-anchor="start" style="mix-blend-mode: normal"><tspan x="0" dy="0">1`</tspan></text><text transform="translate(133.63427,237.62608) scale(0.23387,0.23387)" font-size="40" xml:space="preserve" fill="#000000" fill-rule="nonzero" stroke="#6c6c6c" stroke-width="5" stroke-linecap="butt" stroke-linejoin="miter" stroke-miterlimit="10" stroke-dasharray="" stroke-dashoffset="0" font-family="Sans Serif" font-weight="normal" text-anchor="start" style="mix-blend-mode: normal"><tspan x="0" dy="0">2`</tspan></text><text transform="translate(133.63427,184.53329) scale(0.23387,0.23387)" font-size="40" xml:space="preserve" fill="#000000" fill-rule="nonzero" stroke="#6c6c6c" stroke-width="5" stroke-linecap="butt" stroke-linejoin="miter" stroke-miterlimit="10" stroke-dasharray="" stroke-dashoffset="0" font-family="Sans Serif" font-weight="normal" text-anchor="start" style="mix-blend-mode: normal"><tspan x="0" dy="0">3`</tspan></text><text transform="translate(133.63427,131.23433) scale(0.23387,0.23387)" font-size="40" xml:space="preserve" fill="#000000" fill-rule="nonzero" stroke="#6c6c6c" stroke-width="5" stroke-linecap="butt" stroke-linejoin="miter" stroke-miterlimit="10" stroke-dasharray="" stroke-dashoffset="0" font-family="Sans Serif" font-weight="normal" text-anchor="start" style="mix-blend-mode: normal"><tspan x="0" dy="0">4`</tspan></text><text transform="translate(133.63427,78.24463) scale(0.23387,0.23387)" font-size="40" xml:space="preserve" fill="#000000" fill-rule="nonzero" stroke="#6c6c6c" stroke-width="5" stroke-linecap="butt" stroke-linejoin="miter" stroke-miterlimit="10" stroke-dasharray="" stroke-dashoffset="0" font-family="Sans Serif" font-weight="normal" text-anchor="start" style="mix-blend-mode: normal"><tspan x="0" dy="0">5`</tspan></text><text transform="translate(133.63427,25.15185) scale(0.23386,0.23386)" font-size="40" xml:space="preserve" fill="#000000" fill-rule="nonzero" stroke="#6c6c6c" stroke-width="5" stroke-linecap="butt" stroke-linejoin="miter" stroke-miterlimit="10" stroke-dasharray="" stroke-dashoffset="0" font-family="Sans Serif" font-weight="normal" text-anchor="start" style="mix-blend-mode: normal"><tspan x="0" dy="0">6`</tspan></text><text transform="translate(133.63427,342.67763) scale(0.23387,0.23387)" font-size="40" xml:space="preserve" fill="#000000" fill-rule="nonzero" stroke="none" stroke-width="1" stroke-linecap="butt" stroke-linejoin="miter" stroke-miterlimit="10" stroke-dasharray="" stroke-dashoffset="0" font-family="Sans Serif" font-weight="normal" text-anchor="start" style="mix-blend-mode: normal"><tspan x="0" dy="0">0`</tspan></text><text transform="translate(133.63427,290.61577) scale(0.23387,0.23387)" font-size="40" xml:space="preserve" fill="#000000" fill-rule="nonzero" stroke="none" stroke-width="1" stroke-linecap="butt" stroke-linejoin="miter" stroke-miterlimit="10" stroke-dasharray="" stroke-dashoffset="0" font-family="Sans Serif" font-weight="normal" text-anchor="start" style="mix-blend-mode: normal"><tspan x="0" dy="0">1`</tspan></text><text transform="translate(133.63427,237.62608) scale(0.23387,0.23387)" font-size="40" xml:space="preserve" fill="#000000" fill-rule="nonzero" stroke="none" stroke-width="1" stroke-linecap="butt" stroke-linejoin="miter" stroke-miterlimit="10" stroke-dasharray="" stroke-dashoffset="0" font-family="Sans Serif" font-weight="normal" text-anchor="start" style="mix-blend-mode: normal"><tspan x="0" dy="0">2`</tspan></text><text transform="translate(133.63427,184.53329) scale(0.23387,0.23387)" font-size="40" xml:space="preserve" fill="#000000" fill-rule="nonzero" stroke="none" stroke-width="1" stroke-linecap="butt" stroke-linejoin="miter" stroke-miterlimit="10" stroke-dasharray="" stroke-dashoffset="0" font-family="Sans Serif" font-weight="normal" text-anchor="start" style="mix-blend-mode: normal"><tspan x="0" dy="0">3`</tspan></text><text transform="translate(133.63427,131.23433) scale(0.23387,0.23387)" font-size="40" xml:space="preserve" fill="#000000" fill-rule="nonzero" stroke="none" stroke-width="1" stroke-linecap="butt" stroke-linejoin="miter" stroke-miterlimit="10" stroke-dasharray="" stroke-dashoffset="0" font-family="Sans Serif" font-weight="normal" text-anchor="start" style="mix-blend-mode: normal"><tspan x="0" dy="0">4`</tspan></text><text transform="translate(133.63427,78.24463) scale(0.23387,0.23387)" font-size="40" xml:space="preserve" fill="#000000" fill-rule="nonzero" stroke="none" stroke-width="1" stroke-linecap="butt" stroke-linejoin="miter" stroke-miterlimit="10" stroke-dasharray="" stroke-dashoffset="0" font-family="Sans Serif" font-weight="normal" text-anchor="start" style="mix-blend-mode: normal"><tspan x="0" dy="0">5`</tspan></text><path d="M334.55886,340.88235h-189.11765v-321.76471" fill="none" stroke="#000000" stroke-width="5" stroke-linecap="butt"/><path d="M142.95288,16.34483c0,-1.38071 1.11929,-2.5 2.5,-2.5c1.38071,0 2.5,1.11929 2.5,2.5c0,1.38071 -1.11929,2.5 -2.5,2.5c-1.38071,0 -2.5,-1.11929 -2.5,-2.5z" fill="#000000" stroke="#000000" stroke-width="0" stroke-linecap="butt"/><path d="M143.7115,10.13793c0,-0.96174 0.77964,-1.74138 1.74138,-1.74138c0.96174,0 1.74138,0.77964 1.74138,1.74138c0,0.96174 -0.77964,1.74138 -1.74138,1.74138c-0.96174,0 -1.74138,-0.77964 -1.74138,-1.74138z" fill="#000000" stroke="#000000" stroke-width="0" stroke-linecap="butt"/><path d="M144.26322,6c0,-0.65703 0.53263,-1.18966 1.18966,-1.18966c0.65703,0 1.18966,0.53263 1.18966,1.18966c0,0.65703 -0.53263,1.18966 -1.18966,1.18966c-0.65703,0 -1.18966,-0.53263 -1.18966,-1.18966z" fill="#000000" stroke="#000000" stroke-width="0" stroke-linecap="butt"/><text transform="translate(133.63427,25.15185) scale(0.23386,0.23386)" font-size="40" xml:space="preserve" fill="#000000" fill-rule="nonzero" stroke="none" stroke-width="1" stroke-linecap="butt" stroke-linejoin="miter" stroke-miterlimit="10" stroke-dasharray="" stroke-dashoffset="0" font-family="Sans Serif" font-weight="normal" text-anchor="start" style="mix-blend-mode: normal"><tspan x="0" dy="0">6`</tspan></text><g data-paper-data="{&quot;index&quot;:null}" fill="none" stroke="#000000" stroke-width="1" stroke-linecap="round"><path d="M153.62659,331.02816h137.57143"/><path d="M153.62659,335.29275h137.57143"/><path d="M153.62659,322.49898h137.57143"/><path d="M153.62659,326.76357h137.57143"/><path d="M153.62659,313.9698h137.57143"/><path d="M153.62659,318.23439h137.57143"/><path d="M153.62659,305.44061h137.57143"/><path d="M153.62659,309.70521h137.57143"/><path d="M291.198,296.91144h-137.57143"/><path d="M153.62659,301.17603h137.57143"/><path d="M153.62659,292.64685h137.57143"/></g><path d="M153.6266,287.82518h137.57143" data-paper-data="{&quot;index&quot;:null}" fill="none" stroke="#000000" stroke-width="6" stroke-linecap="round"/><g data-paper-data="{&quot;index&quot;:null}" fill="none" stroke="#000000" stroke-width="1" stroke-linecap="round"><path d="M291.19803,277.98978h-137.57143"/><path d="M291.19803,282.25436h-137.57143"/><path d="M291.198,269.46059h-137.57143"/><path d="M291.198,273.72519h-137.57143"/><path d="M153.6266,260.93141h137.57143"/><path d="M291.19803,265.196h-137.57143"/><path d="M291.19802,252.40223h-137.57143"/><path d="M153.62659,256.66683h137.57143"/><path d="M291.198,243.87305h-137.57143"/><path d="M153.6266,248.13764h137.57143"/><path d="M153.6266,239.60846h137.57143"/></g><path d="M153.48962,234.7868h137.57143" data-paper-data="{&quot;index&quot;:null}" fill="none" stroke="#000000" stroke-width="6" stroke-linecap="round"/><g data-paper-data="{&quot;index&quot;:null}" fill="none" stroke="#000000" stroke-width="1" stroke-linecap="round"><path d="M291.19804,224.95139h-137.57143"/><path d="M153.62661,229.21598h137.57143"/><path d="M153.62659,216.4222h137.57143"/><path d="M291.198,220.6868h-137.57143"/><path d="M291.19804,207.89303h-137.57143"/><path d="M153.62661,212.15762h137.57143"/><path d="M291.19804,199.36384h-137.57143"/><path d="M291.198,203.62844h-137.57143"/><path d="M291.198,190.83467h-137.57143"/><path d="M291.19804,195.09925h-137.57143"/><path d="M153.62661,186.57008h137.57143"/></g><path d="M291.06104,181.74841h-137.57143" data-paper-data="{&quot;index&quot;:null}" fill="none" stroke="#000000" stroke-width="6" stroke-linecap="round"/><g data-paper-data="{&quot;index&quot;:null}" fill="none" stroke="#000000" stroke-width="1" stroke-linecap="round"><path d="M153.48959,171.65585h137.57143"/><path d="M153.4896,175.92043h137.57143"/><path d="M153.4896,163.12666h137.57143"/><path d="M291.06102,167.39126h-137.57143"/><path d="M291.06103,154.59748h-137.57143"/><path d="M153.4896,158.86207h137.57143"/><path d="M153.4896,146.0683h137.57143"/><path d="M291.06102,150.3329h-137.57143"/><path d="M291.06102,137.53912h-137.57143"/><path d="M153.4896,141.80371h137.57143"/><path d="M153.4896,133.27453h137.57143"/></g><path d="M153.48961,128.45286h137.57143" data-paper-data="{&quot;index&quot;:null}" fill="none" stroke="#000000" stroke-width="6" stroke-linecap="round"/><g data-paper-data="{&quot;index&quot;:null}" fill="none" stroke="#000000" stroke-width="1" stroke-linecap="round"><path d="M153.48961,118.61746h137.57143"/><path d="M153.4896,122.88205h137.57143"/><path d="M153.48961,110.08827h137.57143"/><path d="M153.48961,114.35287h137.57143"/><path d="M153.4896,101.5591h137.57143"/><path d="M153.4896,105.82369h137.57143"/><path d="M153.48961,93.02991h137.57143"/><path d="M291.06102,97.29451h-137.57143"/><path d="M153.48961,84.50074h137.57143"/><path d="M291.06103,88.76532h-137.57143"/><path d="M291.06102,80.23615h-137.57143"/></g><path d="M153.48962,75.41448h137.57143" data-paper-data="{&quot;index&quot;:null}" fill="none" stroke="#000000" stroke-width="6" stroke-linecap="round"/><g data-paper-data="{&quot;index&quot;:null}" fill="none" stroke="#000000" stroke-width="1" stroke-linecap="round"><path d="M153.48961,65.57907h137.57143"/><path d="M291.06102,69.84366h-137.57143"/><path d="M153.48959,57.04989h137.57143"/><path d="M291.06102,61.31449h-137.57143"/><path d="M153.48961,48.52071h137.57143"/><path d="M153.48961,52.7853h137.57143"/><path d="M291.06102,39.99153h-137.57143"/><path d="M291.06102,44.25612h-137.57143"/><path d="M153.48961,31.46235h137.57143"/><path d="M153.48961,35.72694h137.57143"/><path d="M291.06103,27.19776h-137.57143"/></g><path d="M153.48961,22.37609h137.57143" data-paper-data="{&quot;index&quot;:null}" fill="none" stroke="#000000" stroke-width="6" stroke-linecap="round"/></g></g></svg>