<svg version="1.1" xmlns="http://www.w3.org/2000/svg" xmlns:xlink="http://www.w3.org/1999/xlink" width="219.76265" height="528.02756" viewBox="0,0,219.76265,528.02756"><defs><linearGradient x1="304.16391" y1="67.11725" x2="292.32092" y2="111.22586" gradientUnits="userSpaceOnUse" id="color-1"><stop offset="0" stop-color="#e6b1e5"/><stop offset="1" stop-color="#ffdfc2"/></linearGradient><linearGradient x1="176.08458" y1="67.11725" x2="187.92757" y2="111.22586" gradientUnits="userSpaceOnUse" id="color-2"><stop offset="0" stop-color="#e6b1e5"/><stop offset="1" stop-color="#ffdfc2"/></linearGradient><radialGradient cx="176.69055" cy="83.67886" r="37.74536" gradientUnits="userSpaceOnUse" id="color-3"><stop offset="0" stop-color="#d7a7e1"/><stop offset="1" stop-color="#d7a7e1" stop-opacity="0"/></radialGradient><linearGradient x1="278.71569" y1="167.4514" x2="278.71569" y2="308.25347" gradientUnits="userSpaceOnUse" id="color-4"><stop offset="0" stop-color="#6a56c2"/><stop offset="1" stop-color="#94808c"/></linearGradient><linearGradient x1="207.16867" y1="167.4514" x2="207.16867" y2="308.25347" gradientUnits="userSpaceOnUse" id="color-5"><stop offset="0" stop-color="#6a56c2"/><stop offset="1" stop-color="#94808c"/></linearGradient></defs><g transform="translate(-130.11867,83.86759)"><g data-paper-data="{&quot;isPaintingLayer&quot;:true}" fill-rule="nonzero" stroke-linejoin="miter" stroke-miterlimit="10" stroke-dasharray="" stroke-dashoffset="0" style="mix-blend-mode: normal"><g stroke="#000000"><path d="M270.84177,82.61884c0,0 -2.14892,-12.40581 5.97736,-18.64527c4.45693,-3.42208 21.54508,-4.19723 23.9645,-3.92701c7.90148,0.88252 11.9438,11.97062 11.9438,11.97062l4.48671,49.87936l-42.81776,4.97391l-3.55461,-44.25162z" data-paper-data="{&quot;index&quot;:null}" fill="url(#color-1)" stroke-width="0" stroke-linecap="round"/><g stroke-width="3"><path d="M330.69256,284.57098c-1.94089,0.45146 -6.43092,-1.19227 -6.43092,-1.19227c0,0 -6.31895,4.84324 -9.89423,4.82704c-4.13678,-0.01875 -13.48856,-4.93304 -13.48856,-4.93304c0,0 -4.73197,1.79934 -6.8927,1.35265c-1.86487,-0.38552 -5.31529,-3.87641 -5.31529,-3.87641c0,0 -0.80171,-10.7275 -0.36503,-16.84099c0.52204,-7.30856 3.28715,-24.06868 3.28715,-24.06868h46.89646c0,0 0.50723,14.85027 0.00435,21.89075c-0.46875,6.56243 -2.92647,19.01892 -2.92647,19.01892c0,0 -3.05489,3.39872 -4.87477,3.82203z" fill="#fedfc3" stroke-linecap="butt"/><path d="M323.66504,267.64799l0.57017,14.96695" fill="none" stroke-linecap="round"/><path d="M302.28368,268.08859l-1.42543,14.53933" fill="none" stroke-linecap="round"/></g><path d="M270.53276,82.24127c0,0 -4.08229,-17.9163 15.80226,-21.50864c22.27021,-4.02334 25.95765,8.56717 25.95765,8.56717l26.4468,170.57294l-0.0722,11.4463l-49.91669,6.47083l0.47877,-11.93157c0,0 -16.4901,-140.87951 -18.6966,-163.61704z" data-paper-data="{&quot;index&quot;:null}" fill="#fedfc3" stroke-width="0" stroke-linecap="round"/><path d="M288.75059,257.78989l0.47877,-11.93157c0,0 -16.4901,-140.87951 -18.6966,-163.61704v0.00001c0,0 -4.08229,-17.9163 15.80226,-21.50864c22.27021,-4.02334 25.95765,8.56717 25.95765,8.56717l26.4468,170.57294l-0.0722,11.4463" data-paper-data="{&quot;index&quot;:null}" fill="none" stroke-width="3" stroke-linecap="round"/></g><path d="M270.53276,81.97099c0,0 -4.08229,-17.9163 15.80226,-21.50864c22.27021,-4.02334 25.95765,8.56717 25.95765,8.56717c0,0 27.93226,157.29913 29.92201,168.50432c0.22046,1.24152 6.0195,38.15558 6.0195,38.15558c0,0 -17.81758,9.53994 -29.41775,10.4735c-13.02587,1.04829 -34.73984,-4.48794 -34.73984,-4.48794c0,0 -0.08582,-37.1533 -0.24397,-39.11542c-1.65965,-20.59068 -11.28535,-139.82924 -13.29987,-160.58857z" data-paper-data="{&quot;index&quot;:null}" fill="#1e1e1f" stroke="#0a0a0b" stroke-width="3" stroke-linecap="round"/><g data-paper-data="{&quot;index&quot;:null}" stroke="#000000" stroke-width="3"><path d="M143.98348,280.74895c0,0 -2.45771,-12.45649 -2.92646,-19.01892c-0.50289,-7.04048 0.00434,-21.89075 0.00434,-21.89075h46.89646c0,0 2.76511,16.76012 3.28715,24.06868c0.43668,6.11349 -0.36504,16.84099 -0.36504,16.84099c0,0 -3.4504,3.49088 -5.31528,3.87641c-2.16073,0.44669 -6.8927,-1.35265 -6.8927,-1.35265c0,0 -9.35178,4.91429 -13.48856,4.93304c-3.57528,0.01621 -9.89423,-4.82704 -9.89423,-4.82704c0,0 -4.49003,1.64373 -6.43091,1.19227c-1.81988,-0.42331 -4.87477,-3.82203 -4.87477,-3.82203z" fill="#fedfc3" stroke-linecap="butt"/><path d="M155.88577,267.64799l-0.57017,14.96695" fill="none" stroke-linecap="round"/><path d="M178.69256,282.62792l-1.42542,-14.53933" fill="none" stroke-linecap="round"/></g><g><path d="M209.06336,82.47381c-2.20649,22.73753 -18.69659,163.61704 -18.69659,163.61704l0.47877,11.93158l-49.91669,-6.47083l-0.0722,-11.4463l26.4468,-170.57294c0,0 3.68744,-12.59051 25.95765,-8.56717c19.88455,3.59234 15.80226,21.50864 15.80226,21.50864z" data-paper-data="{&quot;index&quot;:null}" fill="#fedfc3" stroke="#000000" stroke-width="0" stroke-linecap="round"/><g data-paper-data="{&quot;index&quot;:null}"><g><g fill="none" stroke="none" stroke-width="1" stroke-linecap="butt" font-family="sans-serif" font-weight="normal" font-size="12" text-anchor="start"/><path d="M209.50956,82.62209l-3.95052,50.76731l-46.55461,-5.48939c0,0 7.7666,-46.53623 8.79287,-56.98561c0.04453,-0.45338 2.55191,-6.6379 8.05554,-8.95539c4.36796,-1.83929 20.34157,-2.48065 28.90525,2.75004c4.05942,2.47948 4.93692,12.85161 4.93692,12.85161" data-paper-data="{&quot;index&quot;:null}" fill="#ffdfc2" stroke="#000000" stroke-width="0" stroke-linecap="round"/><path d="M209.40671,82.61883l-3.55461,44.25162l-46.95569,-5.14632l8.62464,-49.70694c0,0 4.04232,-11.0881 11.9438,-11.97062c2.41942,-0.27022 19.50757,0.50493 23.9645,3.92701c8.12628,6.23946 5.97736,18.64527 5.97736,18.64527z" data-paper-data="{&quot;index&quot;:null}" fill="url(#color-2)" stroke="#000000" stroke-width="0" stroke-linecap="round"/><path d="M209.31933,82.58367l-4.31002,42.44745c0,0 -1.37931,0.76244 -2.91579,1.61177c-5.79505,3.20334 -47.33986,22.06566 -47.33986,22.06566l13.11026,-79.24849c0,0 4.88442,-6.68544 12.07716,-9.30191c5.14868,-1.87291 12.45533,-0.19809 15.50798,0.76829c2.34716,0.74304 9.248,3.27951 11.47051,6.94448c3.80854,6.28038 2.39977,14.71274 2.39977,14.71274z" data-paper-data="{&quot;index&quot;:null}" fill="url(#color-3)" stroke="#000000" stroke-width="0" stroke-linecap="round"/></g><path d="M177.0999,70.22774c-0.2492,-0.97867 2.6802,-2.56941 4.73698,-3.09315c2.05678,-0.52374 5.04164,-0.43898 5.29084,0.53969c0.2492,0.97867 -2.33161,2.48065 -4.38839,3.00438c-2.05678,0.52374 -5.39023,0.52774 -5.63943,-0.45092z" fill="#3e3571" stroke="none" stroke-width="0" stroke-linecap="butt"/><path d="M203.03272,67.30192c1.34223,1.04763 3.11113,3.0015 2.07577,4.32801c-1.03536,1.32652 -2.53872,-0.96753 -3.88095,-2.01519c-1.34223,-1.04763 -3.7621,-2.45597 -2.6631,-3.86403c1.099,-1.40806 4.46829,1.5512 4.46829,1.5512z" fill="#3e3571" stroke="none" stroke-width="0" stroke-linecap="butt"/><path d="M182.71964,63.88186c0.03202,-0.80781 1.21169,-1.41694 2.63487,-1.36053c1.42318,0.0564 2.55095,0.75699 2.51894,1.5648c-0.03202,0.80781 -1.21169,1.41695 -2.63488,1.36055c-1.42318,-0.0564 -2.55095,-0.757 -2.51893,-1.56481z" fill="#3e3571" stroke="none" stroke-width="0" stroke-linecap="butt"/><path d="M205.28047,76.70805c-0.80345,-0.08966 -1.32672,-1.30987 -1.16873,-2.72538c0.15798,-1.41551 0.93737,-2.49032 1.74082,-2.40066c0.80345,0.08966 1.32673,1.30987 1.16875,2.72538c-0.15798,1.41551 -0.93738,2.49032 -1.74084,2.40066z" fill="#3e3571" stroke="none" stroke-width="0" stroke-linecap="butt"/><path d="M191.54819,64.63977c0.06112,-0.80612 1.262,-1.37232 2.68222,-1.26464c1.42022,0.10768 2.52199,0.84848 2.46087,1.65461c-0.06112,0.80612 -1.262,1.37233 -2.68222,1.26465c-1.42022,-0.10768 -2.52199,-0.84848 -2.46087,-1.65461z" fill="#3e3571" stroke="none" stroke-width="0" stroke-linecap="butt"/><path d="M185.93711,75.57656c-0.2492,-0.97867 2.6802,-2.56941 4.73698,-3.09315c2.05678,-0.52374 5.04164,-0.43898 5.29084,0.53969c0.2492,0.97867 -2.33161,2.48065 -4.38839,3.00438c-2.05678,0.52374 -5.39023,0.52774 -5.63943,-0.45092z" fill="#3e3571" stroke="none" stroke-width="0" stroke-linecap="butt"/><path d="M194.20081,68.20759c0.36402,-0.8131 1.82042,-0.95233 3.25293,-0.31099c1.43251,0.64134 2.29869,1.82041 1.93466,2.63351c-0.36402,0.8131 -1.82043,0.95234 -3.25294,0.311c-1.43251,-0.64134 -2.29868,-1.82041 -1.93465,-2.63351z" fill="#3e3571" stroke="none" stroke-width="0" stroke-linecap="butt"/><path d="M176.96371,66.8117c-0.35288,-0.65261 0.29312,-1.68565 1.44288,-2.30736c1.14977,-0.62171 2.36791,-0.59664 2.72079,0.05597c0.35288,0.65261 -0.29312,1.68566 -1.44288,2.30736c-1.14977,0.62171 -2.3679,0.59664 -2.72078,-0.05597z" fill="#3e3571" stroke="none" stroke-width="0" stroke-linecap="butt"/><path d="M174.74237,66.29666c1.493,0.98049 -0.34635,3.09141 -1.281,4.51463c-0.93465,1.42324 -1.62158,4.07858 -3.02813,3.15487c-1.40654,-0.92371 -0.35889,-3.34217 0.57576,-4.76539c0,0 2.24036,-3.8846 3.73336,-2.90411z" data-paper-data="{&quot;index&quot;:null}" fill="#3e3571" stroke="none" stroke-width="0" stroke-linecap="butt"/></g><path d="M140.92884,251.55162l-0.0722,-11.4463l26.4468,-170.57294c0,0 3.68744,-12.59051 25.95765,-8.56717c19.88455,3.59234 15.80226,21.50864 15.80226,21.50864v-0.00001c-2.20649,22.73753 -18.69659,163.61704 -18.69659,163.61704l0.47877,11.93158" data-paper-data="{&quot;index&quot;:null}" fill="none" stroke="#000000" stroke-width="3" stroke-linecap="round"/></g><path d="M196.16738,260.98063c-0.15815,1.96212 -0.24397,39.11543 -0.24397,39.11543c0,0 -21.71398,5.53623 -34.73984,4.48794c-11.60017,-0.93356 -29.41775,-10.4735 -29.41775,-10.4735c0,0 5.79905,-36.91406 6.01951,-38.15557c1.98975,-11.20518 24.92201,-166.3304 24.92201,-166.3304c0,0 14.30003,-0.49657 21.81541,-0.75755c8.03632,-0.27907 24.9445,-3.04012 24.9445,-3.04012z" data-paper-data="{&quot;index&quot;:null}" fill="#1e1e1f" stroke="#0a0a0b" stroke-width="3" stroke-linecap="round"/><g><g data-paper-data="{&quot;index&quot;:null}" stroke-linecap="butt"><path d="M310.09809,215.41058l8.79301,211.95483l-66.13387,15.00218l-5.92356,-25.2978l-0.86337,-187.33771z" data-paper-data="{&quot;index&quot;:null}" fill="url(#color-4)" stroke="#000000" stroke-width="0"/><g fill="none" stroke="none" stroke-width="1" font-family="sans-serif" font-weight="normal" font-size="12" text-anchor="start"/></g><g fill="none" stroke-opacity="0.47039" stroke="#0a0a0b" stroke-width="2.5" stroke-linecap="round"><g><g><path d="M246.25799,240.8762l64.96754,63.99058"/><path d="M311.22553,319.32572l-64.96754,-63.99058"/></g><g><path d="M246.25799,267.84017l64.96754,63.99058"/><path d="M311.22553,346.28969l-64.96754,-63.99058"/></g></g><g data-paper-data="{&quot;index&quot;:null}"><g><path d="M246.25799,304.86678l64.96754,-63.99058"/><path d="M311.22553,255.33514l-64.96754,63.99058"/></g><g><path d="M311.22553,267.84017l-64.96754,63.99058"/><path d="M311.22553,282.29911l-64.96754,63.99058"/></g></g><g><g><path d="M311.22553,248.98493l-64.96754,-63.99058"/><path d="M311.22553,263.44387l-64.96754,-63.99058"/></g><g><path d="M246.25799,211.95832l64.96754,63.99058"/><path d="M311.22553,290.40784l-64.96754,-63.99058"/></g></g><g data-paper-data="{&quot;index&quot;:null}"><g><path d="M269.03895,241.63986l-22.78096,21.80401"/><path d="M246.25799,277.90281l64.96754,-63.99058"/></g><g><path d="M246.25799,290.40784l64.96754,-63.99058"/></g></g></g><path d="M310.0981,215.41059c0,0 1.80904,43.60693 2.96198,71.39834c1.03975,25.06309 -40.40202,40.57614 -40.40202,40.57614c0,0 -26.2965,-12.75593 -26.38009,-30.89361c-0.1176,-25.51842 -0.30767,-66.75937 -0.30767,-66.75937z" data-paper-data="{&quot;index&quot;:null}" fill="none" stroke="#6a4d93" stroke-width="3" stroke-linecap="butt"/><g stroke-linecap="butt"><path d="M247.01342,296.00092c0,0 3.91165,2.782 12.33682,3.22386c8.42517,0.44186 13.23442,-0.14231 21.53999,-1.56459c11.5068,-1.97048 18.71318,-4.2998 22.16621,-5.62538c3.45304,-1.32557 9.63155,-5.73258 9.63155,-5.73258l6.55297,140.9626l-65.7826,14.47776l-6.246,-23.89132z" data-paper-data="{&quot;index&quot;:null}" fill="#0a0a0b" stroke="#000000" stroke-width="0"/><path d="M312.97757,284.81993l5.91354,142.54548l-66.13387,15.00218l-5.92356,-25.2978l-0.56562,-122.72913" data-paper-data="{&quot;index&quot;:null}" fill="none" stroke="#14141a" stroke-width="3"/><path d="M312.30929,286.02515c0,0 -6.05022,4.76904 -9.43156,6.18445c-3.38133,1.41543 -10.43806,3.88903 -21.70592,5.91692c-8.1331,1.46373 -12.84249,2.04821 -21.09271,1.46202c-4.13946,-0.29412 -10.65253,-2.23709 -13.10372,-4.03291" data-paper-data="{&quot;index&quot;:null}" fill="none" stroke="#14141a" stroke-width="3"/></g></g><g><g data-paper-data="{&quot;index&quot;:null}" stroke-linecap="butt"><path d="M239.91406,229.73208l-0.86337,187.33771l-5.92356,25.2978l-66.13387,-15.00218l8.79301,-211.95483z" data-paper-data="{&quot;index&quot;:null}" fill="url(#color-5)" stroke="#000000" stroke-width="0"/><g fill="none" stroke="none" stroke-width="1" font-family="sans-serif" font-weight="normal" font-size="12" text-anchor="start"/></g><g fill="none" stroke-opacity="0.47039" stroke="#0a0a0b" stroke-width="2.5" stroke-linecap="round"><g><g><path d="M174.54391,240.8762l64.96754,63.99058"/><path d="M174.54391,255.33514l64.96754,63.99058"/></g><g><path d="M174.54391,267.84017l64.96754,63.99058"/><path d="M174.54391,282.29911l64.96754,63.99058"/></g></g><g data-paper-data="{&quot;index&quot;:null}"><g><path d="M239.51145,240.8762l-64.96754,63.99058"/><path d="M239.51144,255.33514l-64.96753,63.99058"/></g><g><path d="M239.51144,267.84017l-64.96753,63.99058"/><path d="M239.51144,282.29911l-64.96753,63.99058"/></g></g><g><g><path d="M239.51144,263.44387l-27.98001,-27.00306"/></g><g><path d="M174.54391,211.95832l64.96754,63.99058"/><path d="M174.54391,226.41726l64.96754,63.99058"/></g></g><g data-paper-data="{&quot;index&quot;:null}"><g><path d="M174.54391,263.44387l64.96754,-63.99058"/><path d="M174.54391,277.90281l64.96753,-63.99058"/></g><g><path d="M174.54391,290.40784l64.96753,-63.99058"/></g></g></g><path d="M239.91406,229.73208c0,0 -0.19007,41.24095 -0.30767,66.75937c-0.08359,18.13768 -26.38008,30.89361 -26.38008,30.89361c0,0 -41.44178,-15.51304 -40.40203,-40.57614c1.15294,-27.79141 2.96198,-71.39833 2.96198,-71.39833z" data-paper-data="{&quot;index&quot;:null}" fill="none" stroke="#6a4d93" stroke-width="3" stroke-linecap="butt"/><path d="M238.67201,417.85127l-6.246,23.89132l-65.78259,-14.47776l6.55297,-140.9626c0,0 6.17851,4.40701 9.63155,5.73258c3.45303,1.32558 10.65941,3.6549 22.16621,5.62538c8.30557,1.42228 13.11482,2.00645 21.53999,1.56459c8.42517,-0.44186 12.33682,-3.22386 12.33682,-3.22386z" data-paper-data="{&quot;index&quot;:null}" fill="#0a0a0b" stroke="#000000" stroke-width="0" stroke-linecap="butt"/><path d="M239.61631,294.34066l-0.56562,122.72913l-5.92356,25.2978l-66.13387,-15.00218l5.91353,-142.54548" data-paper-data="{&quot;index&quot;:null}" fill="none" stroke="#14141a" stroke-width="3" stroke-linecap="butt"/><path d="M238.90898,295.55564c-2.45119,1.79582 -8.96426,3.73879 -13.10372,4.03291c-8.25022,0.58619 -12.95961,0.00171 -21.09271,-1.46202c-11.26786,-2.0279 -18.3246,-4.5015 -21.70592,-5.91692c-3.38134,-1.41541 -9.43156,-6.18445 -9.43156,-6.18445" data-paper-data="{&quot;index&quot;:null}" fill="none" stroke="#14141a" stroke-width="3" stroke-linecap="butt"/></g><g data-paper-data="{&quot;index&quot;:null}"><path d="M290.8665,-55.09216c0,0 2.82756,7.0549 4.20962,17.85115c2.02535,15.82139 3.05581,39.21261 1.39723,56.43422c-1.48676,15.43727 -29.68383,44.81093 -57.09757,45.3703c-26.73904,0.5456 -47.3438,-27.43053 -48.76655,-41.46912c-0.90331,-8.91321 -2.95991,-17.91727 -4.43428,-26.07435c-2.62701,-14.53424 0.70861,-25.44461 0.60567,-32.54721c-0.00186,-0.12803 0.31735,-5.1127 1.09837,-9.12374c0.6072,-3.11844 1.72029,-5.50142 1.72029,-5.50142" fill="#ae2e2e" stroke="#000000" stroke-width="3" stroke-linecap="butt"/><g stroke-linecap="butt"><g fill="#ae2e2e" stroke="#000000"><g stroke-width="0"><path d="M237.85168,69.04325c-14.66352,0.30536 -27.38706,-8.5952 -35.79101,-18.79846c17.74594,-2.16633 23.67065,9.83501 37.70594,8.9662c10.42088,-0.64508 28.64081,-14.45735 41.91424,-14.36187c-10.46294,12.25694 -27.29587,23.84982 -43.82915,24.19414z"/></g><path d="M221.39313,62.77402c-8.10054,-1.50732 -4.81062,10.38398 -4.81062,10.38398c0,0 -13.20436,-9.32419 -14.89995,-15.7985c-1.54747,-5.90871 -0.26641,-10.31809 -0.02793,-10.84321" data-paper-data="{&quot;index&quot;:null}" stroke-width="3"/><path d="M254.88069,64.26339c-7.10638,4.74012 -12.14597,17.50622 -12.14597,17.50622c0,0 -5.27781,-2.75633 -8.51651,-7.61649c-2.95575,-4.43556 -2.98628,-9.00406 -2.93901,-9.68472" data-paper-data="{&quot;index&quot;:null}" stroke-width="3"/><path d="M235.50988,64.53654c0,0 -4.30195,5.31433 -4.50981,10.77917c-0.10087,2.65156 0.22897,4.46756 0.22897,4.46756c0,0 -6.01187,-3.02142 -7.70106,-4.6902c-4.75589,-4.69848 -2.24993,-13.5959 -2.24993,-13.5959" data-paper-data="{&quot;index&quot;:null}" stroke-width="3"/><path d="M282.44427,42.46242c3.06742,8.44664 3.01707,8.63851 3.01707,8.63851h-0.00001c0,0 3.43428,12.07487 1.20488,18.97302c-2.16666,6.70398 -15.44682,9.82951 -15.44682,9.82951c0,0 2.79222,-6.43047 1.60956,-11.02871c-1.07124,-4.16506 -7.19525,-6.22888 -7.19525,-6.22888c0,0 -0.69463,5.7784 -3.50354,9.78178c-1.52675,2.17599 -6.21703,3.80879 -6.21703,3.80879c0,0 -0.43528,-3.76103 -1.51079,-6.2578c-0.8747,-2.03055 -3.173,-3.42469 -4.30387,-4.01025" stroke-width="2.5"/></g><g fill="none" stroke="none" stroke-width="1" font-family="sans-serif" font-weight="normal" font-size="12" text-anchor="start"/><g fill="none" stroke="none" stroke-width="1" font-family="sans-serif" font-weight="normal" font-size="12" text-anchor="start"/><g fill="none" stroke="none" stroke-width="1" font-family="sans-serif" font-weight="normal" font-size="12" text-anchor="start"/></g><path d="M248.32583,-76.48692c-4.6946,-1.63915 -7.47007,9.13736 -7.47007,9.13736c0,0 -1.03561,-8.76333 -3.21321,-11.40549c-2.43692,-2.95678 -6.24803,-4.95637 -9.23204,-2.52578" fill="none" stroke="#000000" stroke-width="3" stroke-linecap="round"/><path d="M299.95271,-71.30523c0,-1.58226 1.7672,-1.58226 1.7672,-1.58226h0.40173c1.55913,0.02344 3.18505,0.20078 4.5908,0.80501c6.88062,1.49835 10.81184,13.10922 3.46048,16.5662c-2.24957,1.05788 -5.63108,1.43806 -8.06529,1.9406c-0.11413,0.02357 -3.4382,0.57718 -3.64884,0.73065c-1.77706,1.29487 0.36551,5.47739 0.59157,6.85369c0,0 0.24993,1.56634 -1.49954,1.79013c-1.74945,0.22377 -1.99936,-1.34259 -1.99936,-1.34259c-0.5029,-3.26319 -2.85789,-6.835 0.59157,-9.69186c3.3148,-2.74534 10.46015,-0.63914 13.45985,-3.77505c2.76848,-2.89417 -0.28755,-9.61741 -4.03748,-10.07856c-1.03779,-0.48742 -2.27217,-0.65847 -3.44375,-0.63373h-0.40173c0,0 -1.7672,0 -1.7672,-1.58226z" fill="#000000" stroke="none" stroke-width="0.5" stroke-linecap="butt"/><path d="M282.35449,-61.21126c0,0 22.61901,14.33077 28.00771,16.99449c6.20791,3.06867 18.95414,4.23658 18.95414,4.23658c0,0 -6.34151,18.16907 -11.80511,23.18258c-5.04343,4.62798 -31.64003,1.97314 -31.64003,1.97314" fill="#ae2e2e" stroke="#000000" stroke-width="0" stroke-linecap="round"/><path d="M310.35028,51.74235c0,-1.58226 1.7672,-1.58226 1.7672,-1.58226h0.40173c5.26854,0.16663 6.12211,2.72029 3.95951,6.65988c-0.8777,1.29636 -1.89047,2.54453 -3.11163,3.5946c-0.84613,0.72759 -1.50695,1.72082 -2.58196,2.14141c-4.46984,1.74883 -8.73803,-3.59099 -9.96748,-6.67009c-0.75046,-1.87953 -0.48614,-4.06635 -0.88333,-6.01641c-0.11087,-0.54431 -0.62361,-4.4439 -1.19948,-4.69427c-1.10994,-0.48259 -7.31561,0.73939 -8.86421,0.93978c0,0 -1.74944,0.22377 -1.99936,-1.34259c-0.24993,-1.56636 1.49951,-1.79013 1.49951,-1.79013c2.61277,-0.33061 8.92194,-1.71733 11.2222,-0.49897c1.04829,0.55526 2.13707,3.65638 2.39293,4.56141c0.89798,3.17644 0.30195,6.45814 2.21064,9.27886c1.76391,2.60674 3.02134,4.36639 5.67133,1.85334c0.93397,-0.8857 1.81937,-1.83163 2.51257,-2.87974c1.00591,-1.75889 1.7181,-2.11704 -0.86124,-1.97258h-0.40173c0,0 -1.7672,0 -1.7672,-1.58226z" fill="#000000" stroke="none" stroke-width="0.5" stroke-linecap="butt"/><path d="M169.82405,4.26698c-0.42861,1.53502 -2.14304,1.15127 -2.14304,1.15127l-0.88776,-0.33396c-2.87541,0.40528 -3.71464,0.60348 -3.75024,3.3627c-0.00664,0.51392 -0.38737,1.10628 -0.07976,1.54022c0.19716,0.27814 0.73031,-0.12333 1.09763,-0.10438c2.09531,0.10819 4.19044,0.45826 6.285,0.33893c4.98549,-0.28402 4.66146,-5.64249 8.20352,-7.74542c0.78455,-0.4658 1.87818,-0.1169 2.81728,-0.17536c0,0 1.7672,0 1.7672,1.58224c0,1.58226 -1.7672,1.58226 -1.7672,1.58226c-2.6382,-0.38553 -3.73931,4.57324 -5.66645,6.08348c-3.20908,2.51483 -8.30752,2.1489 -12.1743,1.46191c-1.06729,-0.18962 -2.43173,-0.09345 -3.12519,-0.84419c-1.96001,-2.12195 -0.9922,-6.84039 0.83511,-8.68292c1.17519,-1.18496 3.44475,-1.28217 4.97636,-1.52097l2.32605,0.38541c0,0 1.71444,0.38374 1.28584,1.91877z" fill="#000000" stroke="none" stroke-width="0.5" stroke-linecap="butt"/><path d="M188.77238,-48.01474c0,0 1.00544,-3.44375 3.4357,-7.54776c1.46907,-2.48082 3.45875,-5.2029 6.06171,-7.55141c2.29982,-2.07498 5.22661,-3.92591 8.42586,-5.35128c3.5798,-1.59493 7.50085,-2.65701 11.2665,-2.90398c3.49819,-0.22943 9.00711,1.08508 13.71212,2.48394c4.88605,1.45267 8.90515,2.99636 8.90515,2.99636c0,0 5.30256,-2.77502 12.50169,-4.66052c5.64743,-1.4791 12.46196,-2.41079 18.79936,-1.02605c2.60556,0.56931 5.16417,1.81048 7.54228,3.43583c2.67803,1.83031 5.12713,4.14785 7.15671,6.54184c2.22951,2.62985 3.85424,5.27704 5.04422,7.98514" fill="#ae2e2e" stroke="#000000" stroke-width="0" stroke-linecap="butt"/><g stroke-linecap="round"><path d="M234.97752,36.74603l-26.90732,25.90082c0,0 -2.90838,-0.55269 -3.45288,-3.08838c-0.29944,-1.39447 1.97858,-4.8666 1.48259,-5.71213c-1.60809,-2.74135 -7.13627,-6.72369 -7.13627,-6.72369c0,0 -5.86113,-0.14831 -8.12664,-0.53546c-2.27859,-0.38941 -7.97257,-4.90769 -7.97257,-4.90769c0,0 4.05617,-1.40147 5.45446,-2.95422c1.49271,-1.6576 3.23708,-6.6974 3.23708,-6.6974c0,0 -9.68088,4.52387 -13.58743,2.75584c-4.0161,-1.81762 -10.18969,-13.51685 -10.18969,-13.51685c0,0 5.7939,-2.08734 7.78762,-4.36299c2.6039,-2.97214 7.03788,-4.48204 6.49985,-11.94493c-0.29812,-4.13506 -3.00889,-6.03544 -5.29539,-8.32473c-1.84015,-1.8424 -3.40552,-3.93669 -3.21735,-7.6504c0.19129,-3.77551 2.20359,-7.74558 4.40514,-11.17828c2.65476,-4.13935 2.82945,-9.83933 3.17356,-11.13262c0.62949,-2.36583 -1.11416,-1.9846 -1.11416,-1.9846l20.97861,-3.15847" fill="#ae2e2e" stroke="none" stroke-width="0"/><path d="M201.30569,51.80681c0,0 -1.61228,-3.31666 -3.60627,-4.07842c-2.09639,-0.80088 -5.70134,-0.94279 -6.86245,-1.1412c-2.27859,-0.38941 -7.97257,-4.90769 -7.97257,-4.90769c0,0 4.05617,-1.40147 5.45446,-2.95422c1.49271,-1.6576 3.23708,-6.6974 3.23708,-6.6974c0,0 -9.68088,4.52387 -13.58743,2.75584c-4.0161,-1.81762 -10.18969,-13.51685 -10.18969,-13.51685c0,0 5.7939,-2.08734 7.78762,-4.36299c2.6039,-2.97214 7.03788,-4.48204 6.49985,-11.94493c-0.29812,-4.13506 -3.00889,-6.03544 -5.29539,-8.32473c-1.84015,-1.8424 -3.40552,-3.93669 -3.21735,-7.6504c0.17003,-3.35574 1.79221,-6.91949 3.70988,-10.13355c2.84156,-4.76256 2.48455,-9.80283 2.8604,-11.21537c0.62949,-2.36583 -0.10573,-2.94656 -0.10573,-2.94656" fill="none" stroke="#000000" stroke-width="3"/></g><g stroke="#000000" stroke-linecap="round"><path d="M298.01984,-7.16317c0,0 12.6424,7.27587 16.93999,18.20256c0.97112,2.46908 1.49215,5.75005 1.45836,9.22898c-0.03657,3.76583 -0.72322,7.76358 -2.19281,11.21466c-3.18085,7.46968 -9.48784,12.69363 -10.3869,13.53167c-1.05648,0.98476 0.84725,-1.93224 -0.29811,-4.14343c-1.32366,-2.55544 -5.6937,-4.46414 -6.83416,-3.10001c-3.36332,4.023 -6.08313,11.24523 -3.86456,16.18164c1.24383,2.76757 7.67666,5.01927 7.67666,5.01927c0,0 -3.70021,1.66479 -8.44419,3.24178c-1.90332,0.63272 -11.68706,2.0086 -17.66497,-1.10241c-6.21939,-3.23666 -8.60251,-10.9785 -8.60251,-10.9785" fill="#ae2e2e" stroke-width="0"/><path d="M298.24893,-7.16317c0,0 12.6424,7.27587 16.93999,18.20256c0.97112,2.46908 1.49215,5.75005 1.45835,9.22898c-0.03657,3.76583 -0.72323,7.76358 -2.19281,11.21466c-3.18085,7.46968 -9.48784,12.69363 -10.38689,13.53167c-1.05648,0.98476 0.84725,-1.93224 -0.29811,-4.14343c-1.32366,-2.55544 -5.69369,-4.46414 -6.83415,-3.10001c-3.36332,4.023 -6.08313,11.24523 -3.86456,16.18164c1.24383,2.76757 7.67665,5.01927 7.67665,5.01927c0,0 -3.30423,2.11107 -8.29751,3.9769c-1.7346,0.64817 -13.63046,0.72589 -19.784,-2.47818c-6.07045,-3.1608 -6.41126,-9.59964 -6.41126,-9.59964" fill="none" stroke-width="3"/></g><path d="M285.5073,-61.59741c0,0 3.27841,3.73154 8.11795,7.52098c5.31101,4.15863 13.52334,8.46592 16.34284,9.85965c6.20791,3.06867 18.95414,4.23658 18.95414,4.23658c0,0 -6.34154,18.16907 -11.80513,23.18258c-5.04345,4.62798 -21.87335,9.03334 -21.87335,9.03334" fill="#ae2e2e" stroke="#000000" stroke-width="3" stroke-linecap="round"/><g data-paper-data="{&quot;index&quot;:null}" stroke="#000000" stroke-linecap="butt"><path d="M301.08587,-25.63608c0.54609,4.94942 1.79087,11.74385 6.393,13.97089c3.43064,1.66014 7.691,1.7391 7.691,1.7391c0,0 -5.5177,13.22614 -11.66015,14.26686c-5.60581,0.94978 -21.88051,-4.52255 -22.49502,-4.84786" data-paper-data="{&quot;index&quot;:null}" fill="#ae2e2e" stroke-width="0"/><path d="M304.42997,-16.89129c0.95316,8.63893 10.8929,6.69232 10.8929,6.69232c0,0 -5.51774,13.22614 -11.66017,14.26686" data-paper-data="{&quot;index&quot;:null}" fill="none" stroke-width="3"/></g><path d="M195.43424,-48.46482c0,0 0.90188,-2.82278 3.08183,-6.18678c1.31776,-2.03349 3.10253,-4.26473 5.4374,-6.18975c2.06296,-1.70083 4.68829,-3.21801 7.55803,-4.38637c3.21112,-1.30732 6.72831,-2.17791 10.10611,-2.38034c3.13789,-0.18807 8.07944,0.8894 12.29986,2.03603c4.38283,1.19073 7.98799,2.45606 7.98799,2.45606c0,0 4.75642,-2.27463 11.21408,-3.82017c5.06578,-1.21239 11.17844,-1.9761 16.86315,-0.84103c2.33721,0.46665 4.63229,1.48401 6.76546,2.8163c2.40219,1.50028 4.59908,3.39991 6.41961,5.36222c1.99987,2.15563 3.45728,4.32551 4.5247,6.54528" fill="#ae2e2e" stroke="#000000" stroke-width="0" stroke-linecap="butt"/><g stroke="#000000" stroke-linecap="butt"><path d="M181.92538,-21.54253c-0.20162,-3.54838 -4.59714,-5.85124 -7.18401,-9.72904c-1.32907,-1.99231 -3.66245,-4.95563 -3.69158,-7.88754c-0.04891,-4.92329 2.95363,-9.75804 2.95363,-9.75804c0,0 3.05882,5.563 9.42156,4.72643c2.30157,-0.3026 7.3526,-7.48838 9.50019,-8.6864c3.27077,-1.82456 4.72251,10.6879 5.09177,10.88957" data-paper-data="{&quot;index&quot;:null}" fill="#ae2e2e" stroke-width="0"/><path d="M176.40627,-19.86464c0,0 5.502,-7.5865 1.03191,-9.46962c-13.82085,-5.8223 -3.89483,-20.97555 -3.89483,-20.97555c0,0 5.05987,10.43609 10.76818,5.69663c4.08074,-3.38816 7.02095,-9.17246 7.02095,-9.17246" data-paper-data="{&quot;index&quot;:null}" fill="none" stroke-width="3"/></g><path d="M188.77238,-48.60035c0,0 1.00544,-3.44375 3.4357,-7.54776c1.46907,-2.48082 3.45874,-5.2029 6.06171,-7.55141c2.29982,-2.07498 5.22661,-3.92591 8.42586,-5.35128c3.5798,-1.59491 7.50085,-2.657 11.2665,-2.90398c3.49819,-0.22943 9.00709,1.08508 13.7121,2.48394c4.88605,1.45267 8.90514,2.99636 8.90514,2.99636c0,0 5.30258,-2.77501 12.50169,-4.66051c5.64743,-1.4791 12.46196,-2.41081 18.79937,-1.02606c2.60556,0.56931 5.16417,1.81048 7.54228,3.43583c2.67803,1.83031 5.12716,4.14785 7.15671,6.54184c2.22951,2.62983 3.85424,5.27704 5.04422,7.98514" fill="none" stroke="#000000" stroke-width="3" stroke-linecap="butt"/></g><g stroke="#0a0a0b" stroke-width="3"><path d="M160.36055,91.19043c0,0 -1.29412,-1.4724 -1.29412,-2.60172c0,-1.12932 1.29412,-2.6924 1.29412,-2.6924c0,0 17.51227,0.91383 26.01905,0.44336c8.18683,-0.45278 24.09859,-3.21514 24.09859,-3.21514c0,0 1.64706,1.87397 1.64706,3.31128c0,1.43731 -1.64706,1.98283 -1.64706,1.98283c0,0 -15.94673,4.4329 -24.55035,4.90872c-8.06778,0.44619 -25.56729,-2.13694 -25.56729,-2.13694z" fill="#1e1e1f" stroke-linecap="butt"/><path d="M166.7135,91.63127c0,0 -0.82353,-1.7495 -0.82353,-2.23653c0,-0.73985 0.82353,-2.79565 0.82353,-2.79565" fill="none" stroke-linecap="round"/><path d="M185.88997,92.99753c0,0 -0.94527,-2.47887 -1.13825,-3.48667c-0.14772,-0.77139 0.07942,-2.04274 0.07942,-2.04274" fill="none" stroke-linecap="round"/><path d="M201.53703,84.52694c0,0 1.15811,1.54555 1.27181,2.41723c0.12113,0.92863 -0.56593,2.99453 -0.56593,2.99453" fill="none" stroke-linecap="round"/></g><g stroke="#000000" stroke-linecap="round"><path d="M217.33877,52.30703c3.54583,-0.54357 5.96062,-0.91274 5.96062,-0.91274l-0.30497,-24.07863h34.91904l-0.30497,24.07863c0,0 2.67463,0.41971 6.56422,1.03008" data-paper-data="{&quot;index&quot;:null}" fill="#ffdfc2" stroke-width="0"/><path d="M223.29938,51.39428l-0.30497,-24.07863h34.91904l-0.30497,24.07863" data-paper-data="{&quot;index&quot;:null}" fill="none" stroke-width="3"/><path d="M257.51858,50.85007c0,0 15.42897,4.06208 21.32939,6.64998c4.71175,2.06655 10.93146,8.82205 10.93146,8.82205c0,0 0.91766,2.28838 -0.77454,2.69232c-8.47217,2.02237 -36.62344,8.41198 -51.12266,8.44007c-13.22962,0.02563 -42.88837,-9.68572 -42.88837,-9.68572l1.86739,-3.2187c0,0 3.05937,-5.09101 7.50421,-7.15326c5.16015,-2.39411 19.51678,-6.36492 19.51678,-6.36492" fill="#fedfc3" stroke-width="3"/></g><path d="M191.75394,-48.39317c7.96189,-6.17958 26.93305,-6.14715 49.25847,-7.65046c33.17158,-2.23365 44.81017,10.36952 44.81017,10.36952c0,0 -86.08851,1.09435 -95.7379,1.21701z" fill="#ae2e2e" stroke="#000000" stroke-width="0" stroke-linecap="round"/><path d="M289.67398,66.25145c0,0 5.57904,8.43356 8.00853,12.82533c2.34469,4.23847 6.32308,13.0817 6.32308,13.0817c0,0 -3.27893,9.6133 -5.58301,13.97633c-2.41061,4.56476 -8.57549,12.83443 -8.57549,12.83443h-94.21617c0,0 -6.2687,-7.61521 -8.64392,-12.11297c-2.34386,-4.43837 -5.51457,-14.69779 -5.51457,-14.69779c0,0 4.20327,-9.24976 6.59472,-13.57276c2.38574,-4.31266 7.73688,-12.33427 7.73688,-12.33427" data-paper-data="{&quot;index&quot;:null}" fill="#fedfc3" stroke="#0a0a0b" stroke-width="3" stroke-linecap="round"/><path d="M187.58322,-9.48684c-0.41726,-29.38185 23.06321,-36.62332 52.44507,-37.04057c29.38185,-0.41726 53.53883,6.14771 53.95607,35.52956c0.41726,29.38185 -23.06319,53.53883 -52.44507,53.95607c-29.38185,0.41726 -53.53883,-23.06321 -53.95607,-52.44505z" fill="#ffdfc2" stroke="#000000" stroke-width="3" stroke-linecap="butt"/><path d="M196.0158,18.85468c0,0 6.16419,-4.46424 10.71501,-4.61725c16.5868,-0.55766 15.50071,9.48628 15.50071,9.48628c0,0 -5.56593,0.05863 -7.44551,0.30654c-1.21248,0.15993 -2.73633,1.03646 -2.73633,1.03646c0,0 2.06436,8.25583 2.49929,9.82635c0.17442,0.62984 -5.25718,-2.47298 -5.25718,-2.47298" fill="#000000" stroke="#000000" stroke-width="3" stroke-linecap="round"/><path d="M266.68742,35.57742c0,0 -5.01924,1.95717 -4.79108,1.44261c0.56891,-1.28302 3.37057,-8.05545 3.37057,-8.05545c0,0 -1.18747,-0.93925 -2.20019,-1.22865c-1.56991,-0.44865 -6.38789,2.6913 -6.38789,2.6913c0,0 -0.64296,-8.2157 2.19658,-11.66472c1.36669,-1.66004 6.5692,-2.08927 11.1376,-1.25407c3.85756,0.70526 11.07987,7.61401 11.07987,7.61401" data-paper-data="{&quot;index&quot;:null}" fill="#000000" stroke="#000000" stroke-width="3" stroke-linecap="round"/><path d="M256.84108,24.47664c0,0 -1.80813,1.33435 -4.57213,1.03483c-2.76398,-0.29949 -5.18546,-2.09219 -5.18546,-2.09219c0,0 -3.30202,3.20813 -7.29505,3.307c-3.99304,0.09888 -7.506,-3.05332 -7.506,-3.05332c0,0 -3.89402,1.90474 -5.55852,2.06348c-1.66449,0.15873 -4.2853,-1.05735 -4.2853,-1.05735" data-paper-data="{&quot;index&quot;:null}" fill="none" stroke="#000000" stroke-width="3" stroke-linecap="round"/><path d="M309.69313,23.87352c0,0 -15.56684,12.56613 -15.95101,14.44013c-0.41548,2.0267 -6.99485,3.73498 -6.99485,3.73498c0,0 -7.57646,-5.00915 -8.41288,-8.13868c-0.67907,-2.5408 -0.53762,-6.00729 -1.08023,-5.53327c-0.81709,0.7138 -2.71031,1.59934 -3.33477,3.03885c-1.01513,2.3401 -0.54339,5.32618 -0.54339,5.32618c0,0 -4.1655,-4.55498 -5.07799,-6.50219c-1.08297,-2.31096 -0.9964,-6.46012 -0.9964,-6.46012c0,0 0.14916,-7.47822 3.36664,-10.94456c4.61006,-4.96663 18.69146,-12.18935 21.65106,-16.00817c2.95958,-3.81881 -1.95849,-7.11778 0.34587,-12.37504c2.30437,-5.25727 9.86158,-10.91258 9.86158,-10.91258" fill="#ae2e2e" stroke="#000000" stroke-width="0" stroke-linecap="round"/><g><g stroke-linecap="round"><path d="M220.40543,11.91786c0,0 -11.03346,-0.22787 -15.85082,-1.59036c-4.49535,-1.2714 -13.08724,-5.32529 -13.21155,-7.56387c-0.08599,-1.54879 3.04207,-2.72667 3.04207,-2.72667c0,0 -8.2353,-1.11424 -8.69617,-6.08981c-0.36271,-3.916 2.18544,-5.29945 2.18544,-5.29945c0,0 2.36025,-8.74678 6.19119,-12.62053c3.83094,-3.87377 11.95417,-10.00831 24.99129,-6.43442c13.03711,3.57389 17.91328,12.05216 18.42337,25.39934" fill="#26134d" stroke="#000000" stroke-width="0"/><path d="M220.40543,11.91786c-6.17233,0.83347 -11.03346,-0.22787 -15.85082,-1.59036c-4.49535,-1.2714 -13.08724,-5.32529 -13.21155,-7.56387c-0.08599,-1.54879 3.04207,-2.72667 3.04207,-2.72667c0,0 -8.14656,-1.29173 -8.60742,-6.2673c-0.36271,-3.91599 2.09669,-5.12197 2.09669,-5.12197c0,0 2.36025,-8.74678 6.19119,-12.62053c3.83094,-3.87377 11.95417,-10.00831 24.99129,-6.43442c13.03711,3.57389 17.91328,12.05216 18.42337,25.39934z" fill="none" stroke="#100030" stroke-width="2"/></g><path d="M237.61914,-6.18635c0,10.3206 -9.74659,18.42811 -21.76962,18.10861c-12.02303,-0.3195 -21.7696,-8.945 -21.7696,-19.26559c0,-10.3206 9.74658,-18.42811 21.7696,-18.10861c12.02303,0.3195 21.76962,8.945 21.76962,19.26559z" fill="#050010" stroke="#020007" stroke-width="0" stroke-linecap="butt"/></g><path d="M225.9963,-9.83004l6.21893,-8.38305l2.98569,4.18113c0,0 -3.20249,4.31693 -4.35739,5.87373c-0.76216,1.02737 -1.89771,2.55808 -1.89771,2.55808l6.44698,8.20965l-2.88809,4.28387l-6.4097,-8.16221l-6.21893,8.38308l-2.9857,-4.18114l6.25508,-8.4318l-6.44697,-8.20967l2.88808,-4.28386z" data-paper-data="{&quot;index&quot;:null}" fill="#ff6a00" stroke="#000000" stroke-width="0" stroke-linecap="round"/><path d="M237.61915,-6.18635c0,10.3206 -9.74659,18.42811 -21.76962,18.10861c-12.02303,-0.3195 -21.7696,-8.945 -21.7696,-19.26559c0,-10.3206 9.74658,-18.42811 21.7696,-18.10861c12.02303,0.3195 21.76962,8.945 21.76962,19.26559z" fill="none" stroke="#020007" stroke-width="3" stroke-linecap="butt"/><g data-paper-data="{&quot;index&quot;:null}"><g stroke-linecap="round"><path d="M244.57868,-5.0079c0.51008,-13.34718 5.38625,-21.82545 18.42337,-25.39934c13.03712,-3.57389 21.16036,2.56066 24.99129,6.43442c3.83094,3.87375 6.19119,12.62053 6.19119,12.62053c0,0 2.54815,1.38345 2.18544,5.29945c-0.46087,4.97557 -8.69617,6.08981 -8.69617,6.08981c0,0 3.12806,1.17788 3.04207,2.72667c-0.1243,2.23858 -8.7162,6.29247 -13.21155,7.56387c-4.81735,1.36249 -15.85082,1.59036 -15.85082,1.59036" fill="#26134d" stroke="#000000" stroke-width="0"/><path d="M244.57868,-5.00794c0.51008,-13.34718 5.38625,-21.82545 18.42337,-25.39934c13.03712,-3.57389 21.16036,2.56066 24.99129,6.43442c3.83094,3.87375 6.19119,12.62053 6.19119,12.62053c0,0 2.45941,1.20598 2.09669,5.12197c-0.46087,4.97557 -8.60742,6.2673 -8.60742,6.2673c0,0 3.12806,1.17788 3.04207,2.72667c-0.1243,2.23858 -8.7162,6.29247 -13.21155,7.56387c-4.81735,1.36249 -9.67849,2.42383 -15.85082,1.59036z" fill="none" stroke="#100030" stroke-width="2"/></g><path d="M266.20942,-25.45194c12.02303,-0.3195 21.7696,7.78802 21.7696,18.10861c0,10.3206 -9.74658,18.94609 -21.7696,19.26559c-12.02303,0.3195 -21.76962,-7.78802 -21.76962,-18.10861c0,-10.3206 9.74659,-18.94609 21.76962,-19.26559z" fill="#050010" stroke="#020007" stroke-width="0" stroke-linecap="butt"/></g><g fill="none" stroke-width="3"><path d="M251.84822,5.80114l16.49695,-22.92168" stroke="#ffe200" stroke-linecap="round"/><path d="M268.54807,5.43202l-16.90279,-22.18348" stroke="#00ff31" stroke-linecap="round"/><path d="M251.53062,-16.90201l16.87016,-0.29578l0.26203,22.78041l-16.87017,0.29578z" stroke="#ff0000" stroke-linecap="butt"/></g><path d="M287.97685,-6.18635c0,10.3206 -9.74659,18.42811 -21.76962,18.10861c-12.02303,-0.3195 -21.7696,-8.945 -21.7696,-19.26559c0,-10.3206 9.74658,-18.42811 21.7696,-18.10861c12.02303,0.3195 21.76962,8.945 21.76962,19.26559z" fill="none" stroke="#020007" stroke-width="3" stroke-linecap="butt"/><g data-paper-data="{&quot;index&quot;:null}" stroke="#000000" stroke-linecap="round"><g><path d="M221.74693,-50.17602c0,0 1.22501,3.94099 -0.85222,7.78385c-3.04038,5.6247 -10.16903,12.03456 -13.9595,13.77155c-4.38344,2.00876 -22.40449,6.16721 -23.2259,-0.22489c-0.69452,-5.40461 15.5029,-21.39505 15.5029,-21.39505" fill="#ae2e2e" stroke-width="0"/><path d="M249.67973,-52.62749c6.09486,2.43083 6.61818,25.76853 5.02875,29.45827c-0.93678,2.17465 -3.03851,6.25501 -6.77035,8.1724c-2.82779,1.45288 -7.62568,1.07291 -7.62568,1.07291c0,0 7.35583,-7.83462 1.38774,-12.48971c-5.96809,-4.65511 -15.75138,-0.49352 -19.08151,-3.46937c-3.33012,-2.97587 -2.42856,-24.82612 -2.42856,-24.82612" fill="#ae2e2e" stroke-width="0"/><g><path d="M291.98948,-37.60199c0,0 -0.53442,4.14718 -4.14854,5.18448c-3.97727,1.14152 -13.36012,-5.73214 -17.59848,-7.67441c-8.24031,-3.77618 -21.22835,1.53864 -21.22835,1.53864l-4.05188,-15.23783l38.36862,-2.41034z" data-paper-data="{&quot;index&quot;:null}" fill="#ae2e2e" stroke-width="0"/><g stroke-width="3"><path d="M249.67973,-38.90335c6.09486,2.43083 6.61818,12.04437 5.02875,15.73411c-0.93678,2.17465 -3.03851,6.25501 -6.77035,8.1724c-2.82779,1.45288 -7.62568,1.07291 -7.62568,1.07291c0,0 7.35583,-7.83462 1.38774,-12.48971c-5.96809,-4.65511 -15.75138,-0.49352 -19.08151,-3.46937c-3.33012,-2.97587 -2.42856,-11.10196 -2.42856,-11.10196" fill="#ae2e2e"/><path d="M219.56852,-41.02659c0,0 -6.25313,9.48223 -12.63327,12.40597c-8.0897,3.70716 -22.75425,1.47148 -22.75425,1.47148" fill="#ae2e2e"/><path d="M292.42514,-37.90414c0,0 -0.53442,4.14717 -4.14854,5.18447c-3.97727,1.14152 -13.36012,-5.73214 -17.59848,-7.67439c-8.24031,-3.77618 -21.22835,1.53864 -21.22835,1.53864" data-paper-data="{&quot;index&quot;:null}" fill="none"/></g></g></g><path d="M287.44964,29.56372c0,0 -0.56541,3.94462 -0.94958,5.81862c-0.41548,2.0267 0.24723,6.66629 0.24723,6.66629c0,0 -7.57646,-5.00915 -8.41288,-8.13868c-0.67907,-2.5408 -0.53762,-6.00729 -1.08023,-5.53327c-0.81709,0.7138 -2.71031,1.59934 -3.33477,3.03885c-1.01513,2.3401 -0.54339,5.32618 -0.54339,5.32618c0,0 -4.1655,-4.55498 -5.07799,-6.50219c-1.08297,-2.31096 -0.9964,-6.46012 -0.9964,-6.46012c0,0 0.14916,-7.47822 3.36664,-10.94456c4.61006,-4.96663 18.69146,-12.18935 21.65106,-16.00817c2.95958,-3.81881 -1.95849,-7.11778 0.34587,-12.37504c2.30437,-5.25727 9.86158,-10.91258 9.86158,-10.91258" fill="#ae2e2e" stroke-width="3"/><g><path d="M177.26549,-9.69173c0.94096,-0.34486 3.79901,-21.71273 5.46294,-21.87374c3.2371,-0.31325 9.79661,-0.14187 10.97683,1.04624c2.18049,2.19506 3.87394,5.69161 4.46825,10.14848c1.31706,9.8768 -0.8831,23.30066 -1.83341,29.45415c-0.44147,2.85869 -0.47324,5.51959 0.26028,7.7341c0.76199,2.30046 2.34981,4.11923 5.16204,5.17771c4.24118,1.59631 16.40706,1.73867 16.40706,1.73867c0,0 3.89677,15.19569 -4.66932,17.55721c-3.92107,1.08097 -23.66935,-12.59551 -27.77871,-18.86834c-0.41202,-0.62894 -5.7687,-28.99805 -6.09501,-29.61541" fill="#ae2e2e" stroke-width="0"/><path d="M213.16163,41.69884c8.56608,-2.36151 5.00786,-17.96499 5.00786,-17.96499c0,0 -12.1659,-0.14238 -16.40706,-1.73867c-4.9948,-1.87995 -6.78116,-5.33702 -6.78116,-5.33702c0,0 9.11235,-35.65378 0.19407,-47.69987" fill="none" stroke-width="3"/></g></g><path d="M261.65056,65.92439l17.69107,-7.23189c0,0 3.84043,0.52217 5.75146,1.85903c2.18671,1.5297 6.65353,6.81883 6.65353,6.81883" fill="#1e1e1f" stroke="#0a0a0b" stroke-width="3" stroke-linecap="round"/><path d="M203.56196,72.91319l1.55993,-2.48417c0,0 -0.96927,-5.04348 -0.91631,-7.53356c0.05208,-2.44857 1.23146,-7.2845 1.23146,-7.2845c0,0 1.2844,-3.79581 3.88349,-4.17476c2.59909,-0.37895 6.16037,2.71037 6.16037,2.71037c0,0 -1.34567,5.84934 -1.46664,8.47865c-0.10522,2.28681 0.78145,6.41359 0.78145,6.41359l2.73027,1.8846" fill="#000000" stroke="#0a0a0b" stroke-width="3" stroke-linecap="round"/><g fill="#010100" stroke="#0a0a0b" stroke-width="3" stroke-linecap="butt"><path d="M240.26222,86.14998c0.27285,1.20787 -55.43576,6.71628 -55.43576,6.71628l-1.18034,-6.71628c0,0 12.19289,-14.94011 28.86269,-16.74118c16.4356,-1.77577 25.36165,6.15314 27.75341,16.74118z"/><path d="M262.58501,69.4088c16.66979,1.80107 28.86268,16.74118 28.86268,16.74118l-1.18034,6.71628c0,0 -55.70861,-5.50841 -55.43576,-6.71628c2.39176,-10.58804 11.31781,-18.51695 27.75341,-16.74118z" data-paper-data="{&quot;index&quot;:null}"/></g><g stroke="#0a0a0b" stroke-width="3"><path d="M186.68465,86.14521c0,0 7.91123,-0.65056 16.72048,-2.09107c11.79199,-1.92826 25.48104,-4.84008 26.7174,-5.36232c4.2618,-1.8002 12.68487,-3.59164 20.77464,-6.98065c14.11307,-5.91232 28.69789,-13.71444 29.06783,-13.58007c1.67354,0.60789 4.99912,2.1075 8.13652,5.24618c5.12599,5.12809 10.05777,13.76881 11.40451,16.20329c2.42298,4.37999 6.53419,13.51847 6.53419,13.51847c0,0 -3.3884,9.93427 -5.76941,14.44297c-2.49109,4.71716 -8.86181,13.26295 -8.86181,13.26295c0,0 15.3673,56.87438 20.39845,93.92704c1.88468,13.88008 -0.4209,25.38526 -0.4209,25.38526c0,0 -50.54546,10.32674 -83.23015,13.84622c-32.6847,3.51948 -53.43555,-14.12615 -53.43555,-14.12615c0,0 -2.07297,-15.41304 -0.61952,-25.10533c1.45345,-9.69229 19.94584,-93.92703 19.94584,-93.92703c0,0 -6.47799,-7.86947 -8.93252,-12.5174c-2.42211,-4.58656 -5.69869,-15.18852 -5.69869,-15.18852c0,0 2.52543,-2.83131 4.99672,-7.29865" data-paper-data="{&quot;index&quot;:null}" fill="#1e1e1f" stroke-linecap="round"/><g><path d="M182.61821,88.1292c0,0 -0.68697,-1.4724 -0.22129,-2.60173c0.46568,-1.12932 2.40434,-2.6924 2.40434,-2.6924c0,0 31.78169,-0.92626 46.36504,-5.71487c14.7466,-4.84221 41.63025,-23.17935 41.63025,-23.17935c0,0 5.45166,1.35515 6.36385,2.15502c0.94407,0.82782 1.65719,2.73093 1.65719,2.73093c0,0 -31.61159,19.24684 -48.03901,24.14873c-16.30479,4.8653 -50.16037,5.15367 -50.16037,5.15367z" fill="#1e1e1f" stroke-linecap="butt"/><path d="M195.88997,87.27833c0,0 -0.82353,-1.7495 -0.82353,-2.23653c0,-0.73985 0.82353,-2.79565 0.82353,-2.79565" fill="none" stroke-linecap="round"/><path d="M266.6394,59.60981c0,0 1.863,2.0558 2.2371,2.79566c0.24626,0.48703 0.30733,2.23653 0.30733,2.23653" data-paper-data="{&quot;index&quot;:null}" fill="none" stroke-linecap="round"/><path d="M220.43852,84.89611c0,0 -1.27578,-1.45305 -1.41064,-1.92103c-0.20487,-0.71093 0.01719,-2.91438 0.01719,-2.91438" fill="none" stroke-linecap="round"/><path d="M244.41277,72.13615c0,0 1.27578,1.45305 1.41064,1.92104c0.20487,0.71093 -0.01719,2.91438 -0.01719,2.91438" data-paper-data="{&quot;index&quot;:null}" fill="none" stroke-linecap="round"/></g><path d="M299.54461,93.635c0,0 -38.67654,1.22449 -57.7551,1.22449c-18.73845,0 -55.71429,-1.22449 -55.71429,-1.22449" fill="none" stroke-linecap="round"/></g></g></g></svg>