<svg version="1.1" xmlns="http://www.w3.org/2000/svg" xmlns:xlink="http://www.w3.org/1999/xlink" width="324.16681" height="199.04213" viewBox="0,0,324.16681,199.04213"><g transform="translate(-77.9166,-80.47894)"><g data-paper-data="{&quot;isPaintingLayer&quot;:true}" fill-rule="nonzero" stroke="#000000" stroke-width="0" stroke-linecap="butt" stroke-linejoin="miter" stroke-miterlimit="10" stroke-dasharray="" stroke-dashoffset="0" style="mix-blend-mode: normal"><path d="M77.91661,209.89137v-59.78275c0,0 36.08535,-9.792 64.93643,-9.792c33.66454,0 116.42064,16.73919 179.44806,19.51775c44.8965,1.97926 79.78231,-9.72575 79.78231,-9.72575v59.78275c0,0 -35.42961,11.67353 -80.81052,9.67079c-62.70832,-2.76744 -144.41795,-19.46279 -177.90448,-19.46279c-29.03203,0 -65.4518,9.792 -65.4518,9.792z" fill="#ffffff"/><path d="M77.91661,269.61919v-59.78275c0,0 36.08534,-9.792 64.93643,-9.792c33.66454,0 116.42065,16.73919 179.44807,19.51775c44.8965,1.97926 79.78231,-9.72575 79.78231,-9.72575v59.78275c0,0 -35.42961,11.67354 -80.81052,9.67079c-62.70833,-2.76743 -144.41796,-19.46279 -177.90449,-19.46279c-29.03203,0 -65.4518,9.792 -65.4518,9.792z" fill="#afffff"/><path d="M77.91661,150.05369v-59.78275c0,0 36.08534,-9.792 64.93643,-9.792c33.66454,0 116.42064,16.73919 179.44807,19.51775c44.8965,1.97926 79.78231,-9.72575 79.78231,-9.72575v59.78275c0,0 -35.42961,11.67354 -80.81052,9.67079c-62.70833,-2.76744 -144.41795,-19.46279 -177.90449,-19.46279c-29.03203,0 -65.4518,9.792 -65.4518,9.792z" fill="#afffff"/><path d="M77.91661,235.74049v-37.18311c0,0 36.08534,-6.09033 64.93643,-6.09033c33.66454,0 116.42064,10.41128 179.44807,12.13946c44.8965,1.23104 79.78231,-6.04913 79.78231,-6.04913v37.18311c0,0 -35.42961,7.26059 -80.81052,6.01494c-62.70832,-1.72126 -144.41795,-12.10528 -177.90448,-12.10528c-29.03203,0 -65.4518,6.09034 -65.4518,6.09034z" fill="#facccc"/><path d="M77.91661,161.37428v-37.18311c0,0 36.08534,-6.09033 64.93643,-6.09033c33.66454,0 116.42064,10.41128 179.44807,12.13946c44.8965,1.23104 79.78231,-6.04913 79.78231,-6.04913v37.18311c0,0 -35.42961,7.26059 -80.81052,6.01494c-62.70832,-1.72126 -144.41795,-12.10528 -177.90448,-12.10528c-29.03203,0 -65.4518,6.09034 -65.4518,6.09034z" fill="#facccc"/></g></g></svg>