<svg version="1.1" xmlns="http://www.w3.org/2000/svg" xmlns:xlink="http://www.w3.org/1999/xlink" width="281.98851" height="517.24559" viewBox="0,0,281.98851,517.24559"><defs><linearGradient x1="276.17603" y1="212.41882" x2="275.22691" y2="437.00884" gradientUnits="userSpaceOnUse" id="color-1"><stop offset="0" stop-color="#ff8b13"/><stop offset="1" stop-color="#402507"/></linearGradient><linearGradient x1="272.18317" y1="212.41882" x2="271.23705" y2="436.29795" gradientUnits="userSpaceOnUse" id="color-2"><stop offset="0" stop-color="#a15506"/><stop offset="1" stop-color="#321b02"/></linearGradient><linearGradient x1="207.33204" y1="204.33059" x2="205.22927" y2="437.00884" gradientUnits="userSpaceOnUse" id="color-3"><stop offset="0" stop-color="#ff8b13"/><stop offset="1" stop-color="#402507"/></linearGradient><linearGradient x1="211.3249" y1="204.33059" x2="209.22878" y2="436.27235" gradientUnits="userSpaceOnUse" id="color-4"><stop offset="0" stop-color="#a15506"/><stop offset="1" stop-color="#321b02"/></linearGradient><linearGradient x1="249.94326" y1="81.07931" x2="240.37741" y2="226.93553" gradientUnits="userSpaceOnUse" id="color-5"><stop offset="0" stop-color="#ffcd97"/><stop offset="1" stop-color="#ff8200"/></linearGradient><linearGradient x1="249.94326" y1="81.07931" x2="240.37741" y2="226.93553" gradientUnits="userSpaceOnUse" id="color-6"><stop offset="0" stop-color="#daa060"/><stop offset="1" stop-color="#9d5000"/></linearGradient><linearGradient x1="250.80034" y1="81.13552" x2="241.23449" y2="226.99174" gradientUnits="userSpaceOnUse" id="color-7"><stop offset="0" stop-color="#ffcd97"/><stop offset="1" stop-color="#ff8200"/></linearGradient><linearGradient x1="250.80034" y1="81.13552" x2="241.23449" y2="226.99174" gradientUnits="userSpaceOnUse" id="color-8"><stop offset="0" stop-color="#daa060"/><stop offset="1" stop-color="#9d5000"/></linearGradient><linearGradient x1="249.94326" y1="81.07931" x2="240.37741" y2="226.93553" gradientUnits="userSpaceOnUse" id="color-9"><stop offset="0" stop-color="#daa060"/><stop offset="1" stop-color="#9d5000"/></linearGradient><linearGradient x1="250.80034" y1="81.13552" x2="241.23449" y2="226.99174" gradientUnits="userSpaceOnUse" id="color-10"><stop offset="0" stop-color="#daa060"/><stop offset="1" stop-color="#9d5000"/></linearGradient></defs><g transform="translate(-63.55218,78.54657)"><g data-paper-data="{&quot;isPaintingLayer&quot;:true}" fill-rule="nonzero" stroke-linejoin="miter" stroke-miterlimit="10" stroke-dasharray="" stroke-dashoffset="0" style="mix-blend-mode: normal"><g stroke="#d99f5f" stroke-width="3"><path d="M271.45041,109.29262c-0.85042,-12.62723 8.69655,-23.55304 21.32378,-24.40346c12.62723,-0.85043 23.55304,8.69657 24.40348,21.32379c4.16322,61.816 12.55883,157.88808 12.55883,157.88808l-30.66643,7.09432l-12.68508,-24.61041c0,0 -14.34694,-128.56699 -14.93457,-137.2923z" fill="#ffcd97" stroke-linecap="butt"/><path d="M315.89213,257.62457c1.34136,3.30827 2.26833,7.35737 2.56529,11.76668c0.78371,11.63649 2.22649,21.01534 -8.71306,21.75211c-10.93955,0.73677 -10.76741,-8.75085 -11.55111,-20.38734c-0.32075,-4.76256 0.14322,-9.20724 1.18694,-12.82229" fill="#ffcd97" stroke-linecap="butt"/><path d="M321.30858,253.68693c0.83137,2.72761 1.74996,9.59675 1.97118,12.88153c0.78371,11.63649 2.22648,21.01534 -8.71307,21.75211c-10.93955,0.73677 -10.7674,-8.75084 -11.5511,-20.38733c-0.16738,-2.48526 -0.1263,-5.81297 0.13824,-8.42289" fill="#ffcd97" stroke-linecap="butt"/><path d="M328.55228,254.2485c1.34136,3.30828 2.26833,7.35738 2.56529,11.76667c0.78371,11.63649 2.22648,21.01535 -8.71307,21.75211c-10.93955,0.73677 -10.7674,-8.75085 -11.55111,-20.38734c-0.21956,-3.26002 -0.07144,-6.37108 0.37864,-9.16908" fill="#ffcd97" stroke-linecap="butt"/><path d="M318.00447,257.64339c0,0 -8.73463,1.74914 -13.12978,1.89547c-4.60113,0.15318 -13.88739,-0.99599 -13.88739,-0.99599" fill="none" stroke-linecap="round"/><path d="M321.73114,243.67173c1.07272,2.24329 1.79721,4.99577 1.99953,7.99992c0.53395,7.92818 -2.77091,14.60697 -7.38163,14.91749c-4.61072,0.31053 -8.7813,-5.86479 -9.31525,-13.79297c-0.21853,-3.24483 0.20596,-6.28037 1.09985,-8.7557" fill="#ffcd97" stroke-linecap="butt"/></g><path d="M305.46175,212.41883l-7.90317,106.37684l6.52994,2.19413l4.0509,102.9201l-50.18394,13.09896l-11.95893,-13.09896l-4.01043,-99.72324c0,0 -6.48797,1.12022 -6.5182,-1.26671c-0.45586,-36.00504 7.85096,-110.50112 7.85096,-110.50112" data-paper-data="{&quot;index&quot;:null}" fill="url(#color-1)" stroke="url(#color-2)" stroke-width="3" stroke-linecap="round"/><path d="M108.8189,199.1228c0,0 42.45808,-113.56422 80.95401,-111.12202c12.59177,0.79883 21.65415,11.68554 20.24139,24.31613c-0.37207,3.32648 -48.36629,56.37736 -48.36629,56.37736l32.64959,6.95791l-16.13651,64.79009z" fill="#ffcd97" stroke="#d99f5f" stroke-width="3" stroke-linecap="butt"/><g fill="#6a4721" stroke="#472b0d" stroke-width="2" stroke-linecap="round"><path d="M266.45318,-20.04235l55.03095,4.854l-29.70342,45.02694" data-paper-data="{&quot;index&quot;:null}"/><path d="M203.57577,0.54686l4.854,-55.03095l45.02694,29.70342" data-paper-data="{&quot;index&quot;:null}"/><path d="M223.94101,63.0332l-55.03095,-4.854l29.70342,-45.02694" data-paper-data="{&quot;index&quot;:null}"/><path d="M286.81843,42.44399l-4.854,55.03095l-45.02694,-29.70342" data-paper-data="{&quot;index&quot;:null}"/></g><g fill="#6a4721" stroke="#472b0d" stroke-width="2" stroke-linecap="round"><path d="M230.85578,-22.90653l42.34506,-35.48047l10.83536,52.84234" data-paper-data="{&quot;index&quot;:null}"/><path d="M200.95351,36.11328l-35.48047,-42.34506l52.84234,-10.83536" data-paper-data="{&quot;index&quot;:null}"/><path d="M259.53842,65.89738l-42.34506,35.48047l-10.83536,-52.84234" data-paper-data="{&quot;index&quot;:null}"/><path d="M289.4407,6.87757l35.48047,42.34506l-52.84234,10.83536" data-paper-data="{&quot;index&quot;:null}"/></g><g fill="#ffcd97" stroke="#e89031" stroke-width="2" stroke-linecap="round"><path d="M204.91467,58.13545l-58.11693,-27.90936l50.94295,-36.98102" data-paper-data="{&quot;index&quot;:null}"/><path d="M282.05472,61.47627l-27.90936,58.11693l-36.98102,-50.94294" data-paper-data="{&quot;index&quot;:null}"/><path d="M285.47954,-15.14459l58.11693,27.90936l-50.94294,36.98102" data-paper-data="{&quot;index&quot;:null}"/><path d="M208.33948,-18.48542l27.90936,-58.11693l36.98102,50.94295" data-paper-data="{&quot;index&quot;:null}"/></g><g fill="#ffcd97" stroke="#e89031" stroke-width="2" stroke-linecap="round"><path d="M242.62152,75.88782l-60.82978,21.35998l9.87258,-62.17163" data-paper-data="{&quot;index&quot;:null}"/><path d="M299.5301,23.70388l21.35998,60.82978l-62.17163,-9.87258" data-paper-data="{&quot;index&quot;:null}"/><path d="M247.77267,-32.89696l60.82978,-21.35998l-9.87258,62.17163" data-paper-data="{&quot;index&quot;:null}"/><path d="M190.8641,19.28697l-21.35998,-60.82978l62.17163,9.87258" data-paper-data="{&quot;index&quot;:null}"/></g><path d="M188.2767,25.69175c-2.97377,-31.22819 19.93097,-58.95437 51.15917,-61.92814c31.2282,-2.97377 58.95437,19.93097 61.92814,51.15917c2.97377,31.2282 -19.93097,58.95437 -51.15917,61.92814c-31.2282,2.97377 -58.95437,-19.93097 -61.92814,-51.15917z" fill="#ff8200" stroke="#9a4e00" stroke-width="3" stroke-linecap="butt"/><path d="M240.18919,204.33059c0,0 7.29451,77.17892 6.34939,114.48063c-0.06266,2.47289 -6.53541,1.31233 -6.53541,1.31233l-5.36554,103.31461l-12.13693,13.5707l-50.00593,-13.5707l5.44945,-106.62659l6.55975,-2.27314l-6.45764,-110.20782" data-paper-data="{&quot;index&quot;:null}" fill="url(#color-3)" stroke="url(#color-4)" stroke-width="3" stroke-linecap="round"/><path d="M223.19948,62.40495c0,0 18.80362,-2.6768 27.79471,-2.08713c8.62888,0.56591 25.10988,5.55683 25.10988,5.55683l-6.11978,19.32673c0,0 -4.21872,2.9813 -22.72634,1.24536c-16.42709,-1.30313 -19.92011,-5.43872 -19.92011,-5.43872z" data-paper-data="{&quot;index&quot;:null}" fill="#ffcc96" stroke="#da9f5f" stroke-width="3" stroke-linecap="round"/><path d="M188.2767,25.69175c-2.97377,-31.22819 19.93097,-58.95437 51.15917,-61.92814c31.2282,-2.97377 58.95437,19.93097 61.92814,51.15917c2.97377,31.2282 -19.93097,58.95437 -51.15917,61.92814c-31.2282,2.97377 -58.95437,-19.93097 -61.92814,-51.15917z" fill="#ff8200" stroke="#9a4e00" stroke-width="3" stroke-linecap="butt"/><path d="M239.20136,26.92152c1.07419,13.45208 -9.10695,24.84429 -22.74029,25.44521c-13.63331,0.60092 -25.5561,-9.817 -26.63028,-23.26907c-1.0742,-13.45208 9.10695,-24.84428 22.74024,-25.44521c13.63331,-0.60091 25.55612,9.81698 26.6303,23.26905z" fill="#ffe1c2" stroke="#020007" stroke-width="0" stroke-linecap="butt"/><path d="M252.75847,25.63049c-1.4841,-13.41304 8.25812,-25.89402 21.75981,-27.87709c13.50169,-1.98305 25.65003,7.28278 27.13412,20.69583c1.4841,13.41304 -8.25809,25.89405 -21.75979,27.87711c-13.50172,1.98307 -25.65007,-7.28277 -27.13416,-20.69582z" data-paper-data="{&quot;index&quot;:null}" fill="#ffe1c2" stroke="#020007" stroke-width="0" stroke-linecap="butt"/><g data-paper-data="{&quot;index&quot;:null}" stroke-width="3" stroke-linecap="butt"><path d="M252.78815,25.62766c-1.4841,-13.41304 8.25812,-25.89402 21.75981,-27.87709c13.50168,-1.98304 25.65003,7.28278 27.13411,20.69583c1.4841,13.41304 -8.25809,25.89405 -21.75979,27.87711c-13.50172,1.98307 -25.65008,-7.28277 -27.13416,-20.69582z" fill="#ffe1c2" stroke="#d4a676"/><path d="M263.95661,4.47791c7.21818,-0.68737 13.88409,7.30803 14.88875,17.85819c1.00466,10.55017 -4.03238,19.65999 -11.25056,20.34736c-7.21818,0.68737 -13.88409,-7.30802 -14.88875,-17.85819c-1.00466,-10.55016 4.03238,-19.65999 11.25056,-20.34736z" fill="#080808" stroke="#27104d"/></g><g stroke-width="3" stroke-linecap="butt"><path d="M239.20136,26.92152c1.07419,13.45208 -9.10695,24.84429 -22.74029,25.44521c-13.63331,0.60092 -25.5561,-9.817 -26.63028,-23.26907c-1.0742,-13.45208 9.10695,-24.84428 22.74024,-25.44521c13.63331,-0.60091 25.55612,9.81698 26.6303,23.26905z" fill="#ffe1c2" stroke="#d4a676"/><path d="M239.1305,26.11802c1.00466,10.55017 -4.03238,19.65999 -11.25055,20.34735c-7.21818,0.68737 -13.88409,-7.30802 -14.88875,-17.85819c-1.00466,-10.55016 4.03238,-19.65999 11.25056,-20.34736c7.21818,-0.68737 13.88408,7.30803 14.88874,17.85819z" fill="#080808" stroke="#27104d"/></g><g stroke-linecap="round"><g><path d="M252.31236,81.45219l-9.55263,145.51977l-5.31548,-0.2288l-59.72178,-20.76343l23.34593,-73.14978c0,0 -5.58976,-6.62357 -7.62122,-10.45236c-2.00463,-3.77822 -4.48813,-12.37067 -4.48813,-12.37067c0,0 9.04923,-16.69452 13.98208,-21.67342c1.60553,-1.6205 6.42752,-5.09258 11.45477,-6.74814c6.04742,-1.99151 12.29365,-2.03113 12.29365,-2.03113" fill="url(#color-5)" stroke="url(#color-6)" stroke-width="0"/><path d="M274.05405,82.6606c0,0 6.18756,0.85509 11.92307,3.61937c4.76797,2.29796 9.09517,6.37008 10.4753,8.1864c4.24032,5.58052 11.03163,23.31392 11.03163,23.31392c0,0 -3.58446,8.19449 -6.06538,11.67853c-2.51412,3.53066 -8.92108,9.36744 -8.92108,9.36744l13.59213,75.57234l-61.92205,12.78552l-3.26212,-0.33375l9.535,-145.52091" data-paper-data="{&quot;index&quot;:null}" fill="url(#color-7)" stroke="url(#color-8)" stroke-width="0"/><path d="M240.722,226.83833l-3.27776,-0.09516l-59.72178,-20.76343l23.34593,-73.14978c0,0 -5.58976,-6.62357 -7.62122,-10.45236c-2.00463,-3.77822 -4.48813,-12.37067 -4.48813,-12.37067c0,0 9.04923,-16.69452 13.98208,-21.67342c1.60553,-1.6205 6.42752,-5.09258 11.45477,-6.74814c6.04742,-1.99151 12.29365,-2.03114 12.29365,-2.03114" fill="none" stroke="url(#color-9)" stroke-width="3"/><path d="M274.05405,82.6606c0,0 6.18756,0.85509 11.92307,3.61937c4.76797,2.29796 9.09517,6.37008 10.4753,8.1864c4.24032,5.58052 11.03163,23.31392 11.03163,23.31392c0,0 -3.58446,8.19449 -6.06538,11.67853c-2.51412,3.53066 -8.92108,9.36744 -8.92108,9.36744l13.59213,75.57234l-61.92205,12.78552l-3.26212,-0.33375" data-paper-data="{&quot;index&quot;:null}" fill="none" stroke="url(#color-10)" stroke-width="3"/></g><path d="M300.68145,118.46843c0,0 -36.04138,1.13544 -53.70734,-0.02316c-6.89139,-0.45197 -16.4106,-1.62826 -25.38315,-2.88222c-0.6131,-0.08569 -1.22367,-0.17172 -1.83065,-0.25793c-12.87555,-1.82856 -24.14683,-3.72746 -24.14683,-3.72746" fill="none" stroke="#cd8f4c" stroke-width="3"/></g><path d="M203.88473,216.12956c-1.78593,15.16027 -6.00654,27.19629 -22.68601,25.66959c-16.67948,-1.52669 -18.00454,-14.07031 -16.21861,-29.23057c1.78593,-15.16027 6.00654,-27.19628 22.68603,-25.66959c16.67948,1.52669 18.00453,14.0703 16.2186,29.23057z" fill="#ffcd97" stroke="#d99f5f" stroke-width="3" stroke-linecap="butt"/><g><g fill="#ff0033" stroke="#000000" stroke-width="0" stroke-linecap="round"><path d="M96.57312,63.12787c0,0 -3.06364,-2.19814 -6.49301,-4.13703c-4.07074,-2.3015 -10.48802,-4.40378 -15.41338,-8.35447c-5.51369,-4.4226 -9.08571,-10.06299 -9.61455,-15.66025c-0.49391,-5.22761 3.77228,-14.62489 11.341,-15.8321c6.13599,-0.97868 10.59984,1.682 14.33806,7.07897"/><path d="M90.36659,26.09681c1.92933,-6.2753 5.38627,-9.9808 11.53067,-10.90526c7.57909,-1.1403 14.48952,6.52488 15.60106,11.65678c1.19014,5.49477 -0.50709,11.95176 -4.42353,17.83579c-3.49853,5.25618 -8.97848,9.20222 -12.16165,12.62789c-2.68165,2.88594 -4.93625,5.90827 -4.93625,5.90827" data-paper-data="{&quot;index&quot;:null}"/></g><path d="M96.26013,63.17638c0,0 -2.75065,-2.24664 -6.18002,-4.18553c-4.07074,-2.3015 -10.48802,-4.40378 -15.41338,-8.35447c-5.51369,-4.4226 -9.08571,-10.06299 -9.61455,-15.66025c-0.49391,-5.22761 3.77228,-14.62489 11.341,-15.8321c6.13599,-0.97868 10.39377,1.53124 14.132,6.92821" fill="#fe2b55" stroke="#000000" stroke-width="0" stroke-linecap="round"/><path d="M90.52519,26.07223c1.92933,-6.2753 5.22769,-9.95622 11.37208,-10.88068c7.57909,-1.1403 14.48952,6.52488 15.60106,11.65678c1.19014,5.49477 -0.50709,11.95176 -4.42353,17.83579c-3.49853,5.25618 -8.97848,9.20222 -12.16165,12.62789c-2.68165,2.88594 -4.50946,5.84213 -4.50946,5.84213" data-paper-data="{&quot;index&quot;:null}" fill="#fe2b55" stroke="#000000" stroke-width="0" stroke-linecap="round"/><g stroke-width="0"><g fill="#ff0033" stroke="#000000" stroke-linecap="round"><path d="M95.45159,57.94689c0,0 -2.38738,-1.83274 -5.37057,-3.4062c-3.5411,-1.86774 -9.13532,-3.5528 -13.41078,-6.77495c-4.78616,-3.60704 -7.86525,-8.23422 -8.28407,-12.84948c-0.39115,-4.31047 3.41186,-12.09915 10.03852,-13.15434c5.37226,-0.85544 9.07527,1.18285 12.30157,5.60784"/><path d="M90.72627,27.36974c1.73562,-5.19396 4.64798,-8.25747 10.02717,-9.06822c6.63521,-1.00005 12.6173,5.27219 13.54918,9.49886c0.99777,4.52554 -0.53635,9.86764 -4.00623,14.75416c-3.09963,4.36509 -7.92141,7.66437 -10.73108,10.51631c-2.367,2.40261 -3.98803,4.85654 -3.98803,4.85654" data-paper-data="{&quot;index&quot;:null}"/></g><path d="M76.72599,23.13837c0.81916,0.92055 -0.11781,3.09152 -2.0928,4.84901c-1.97499,1.75749 -4.24011,2.43597 -5.05927,1.51542c-0.81916,-0.92055 0.11781,-3.09153 2.09279,-4.84902c1.97499,-1.75749 4.24011,-2.43596 5.05927,-1.51541z" fill="#ff6181" stroke="none" stroke-linecap="butt"/></g><path d="M96.26013,63.17638c0,0 -2.75065,-2.24664 -6.18002,-4.18553c-4.07074,-2.3015 -10.48802,-4.40378 -15.41338,-8.35447c-5.51369,-4.4226 -9.08571,-10.06299 -9.61455,-15.66025c-0.49391,-5.22761 3.77228,-14.62489 11.341,-15.8321c6.13599,-0.97868 10.39377,1.53124 14.132,6.92821" fill="none" stroke="#670015" stroke-width="3" stroke-linecap="round"/><path d="M90.52519,26.07223c1.92933,-6.2753 5.22769,-9.95622 11.37208,-10.88068c7.57909,-1.1403 14.48952,6.52488 15.60106,11.65678c1.19014,5.49477 -0.50709,11.95176 -4.42353,17.83579c-3.49853,5.25618 -8.97848,9.20222 -12.16165,12.62789c-2.68165,2.88594 -4.50946,5.84213 -4.50946,5.84213" data-paper-data="{&quot;index&quot;:null}" fill="none" stroke="#670015" stroke-width="3" stroke-linecap="round"/></g><path d="M208.11841,171.8958c-0.36176,5.17655 -2.95431,9.2863 -16.78525,8.76501c-13.83095,-0.5213 -15.83697,-4.80438 -15.47521,-9.98092c0.36176,-5.17655 2.95431,-9.2863 16.78526,-8.76501c13.83095,0.5213 15.83696,4.80437 15.4752,9.98092z" fill="#ffcd97" stroke="#d99f5f" stroke-width="3" stroke-linecap="butt"/></g></g></svg>