<svg version="1.1" xmlns="http://www.w3.org/2000/svg" xmlns:xlink="http://www.w3.org/1999/xlink" width="219.37268" height="517.65297" viewBox="0,0,219.37268,517.65297"><defs><linearGradient x1="270.96239" y1="209.91883" x2="270.96239" y2="437.00885" gradientUnits="userSpaceOnUse" id="color-1"><stop offset="0" stop-color="#ff8b13"/><stop offset="1" stop-color="#402507"/></linearGradient><linearGradient x1="274.95525" y1="209.91883" x2="274.95525" y2="436.29005" gradientUnits="userSpaceOnUse" id="color-2"><stop offset="0" stop-color="#a15506"/><stop offset="1" stop-color="#321b02"/></linearGradient><linearGradient x1="209.10147" y1="209.91883" x2="209.10147" y2="437.00885" gradientUnits="userSpaceOnUse" id="color-3"><stop offset="0" stop-color="#ff8b13"/><stop offset="1" stop-color="#402507"/></linearGradient><linearGradient x1="205.10861" y1="209.91883" x2="205.10861" y2="436.29005" gradientUnits="userSpaceOnUse" id="color-4"><stop offset="0" stop-color="#a15506"/><stop offset="1" stop-color="#321b02"/></linearGradient><linearGradient x1="239.57054" y1="81.80088" x2="239.57054" y2="227.97044" gradientUnits="userSpaceOnUse" id="color-5"><stop offset="0" stop-color="#ffcd97"/><stop offset="1" stop-color="#ff8200"/></linearGradient><linearGradient x1="239.57054" y1="81.80088" x2="239.57054" y2="227.97044" gradientUnits="userSpaceOnUse" id="color-6"><stop offset="0" stop-color="#daa060"/><stop offset="1" stop-color="#9d5000"/></linearGradient><linearGradient x1="240.42946" y1="81.80088" x2="240.42946" y2="227.97044" gradientUnits="userSpaceOnUse" id="color-7"><stop offset="0" stop-color="#ffcd97"/><stop offset="1" stop-color="#ff8200"/></linearGradient><linearGradient x1="240.42946" y1="81.80088" x2="240.42946" y2="227.97044" gradientUnits="userSpaceOnUse" id="color-8"><stop offset="0" stop-color="#daa060"/><stop offset="1" stop-color="#9d5000"/></linearGradient><linearGradient x1="239.57054" y1="81.80088" x2="239.57054" y2="227.97044" gradientUnits="userSpaceOnUse" id="color-9"><stop offset="0" stop-color="#daa060"/><stop offset="1" stop-color="#9d5000"/></linearGradient><linearGradient x1="240.42946" y1="81.80088" x2="240.42946" y2="227.97044" gradientUnits="userSpaceOnUse" id="color-10"><stop offset="0" stop-color="#daa060"/><stop offset="1" stop-color="#9d5000"/></linearGradient></defs><g transform="translate(-130.31366,78.96095)"><g data-paper-data="{&quot;isPaintingLayer&quot;:true}" fill-rule="nonzero" stroke-linejoin="miter" stroke-miterlimit="10" stroke-dasharray="" stroke-dashoffset="0" style="mix-blend-mode: normal"><g stroke="#d99f5f" stroke-width="3"><path d="M183.78914,272.68412l-49.67418,-11.63774c0,0 -1.62387,-7.78854 0.66398,-19.22981c0.83102,-4.15579 4.85709,-8.36701 5.87544,-13.46518c8.69037,-43.50657 23.09119,-115.8253 24.2408,-123.04651c1.98974,-12.49845 13.73474,-21.01743 26.23319,-19.02769c12.49844,1.98974 21.01743,13.73474 19.02769,26.23318c-1.98974,12.49845 -26.36691,160.17376 -26.36691,160.17376z" fill="#ffcd97" stroke-linecap="butt"/><path d="M185.70674,259.54248c0.71225,3.69468 0.77207,8.16311 0.02161,12.87709c-1.83362,11.51781 -2.52085,20.98207 -13.34882,19.25826c-10.82798,-1.72381 -8.54231,-10.93359 -6.70868,-22.4514c0.6948,-4.36433 1.98443,-8.31293 3.61969,-11.48623" fill="#ffcd97" stroke-linecap="butt"/><path d="M171.88084,255.91284c0.71225,3.69468 0.77207,9.59168 0.02161,14.30566c-1.83363,11.51781 -2.52085,20.98207 -13.34882,19.25826c-10.82797,-1.72381 -8.54231,-10.93359 -6.70868,-22.4514c0.5176,-3.25129 1.16124,-5.45552 2.23605,-8.0967" fill="#ffcd97" stroke-linecap="butt"/><path d="M157.21965,258.64322c0.195,2.82724 0.06095,5.93895 -0.45275,9.16572c-1.83362,11.51781 -2.52084,20.98207 -13.34882,19.25826c-10.82797,-1.72381 -8.54231,-10.93359 -6.70868,-22.4514c0.6948,-4.36433 1.98443,-8.31292 3.61969,-11.48622" fill="#ffcd97" stroke-linecap="butt"/><path d="M148.3435,242.51905c0.66618,2.54606 0.81422,5.60757 0.30291,8.81931c-1.24928,7.84732 -5.96163,13.61985 -10.52532,12.89331c-4.56369,-0.72654 -7.25054,-7.67701 -6.00126,-15.52433c0.47338,-2.97351 1.44399,-5.64912 2.71533,-7.78612" fill="#ffcd97" stroke-linecap="butt"/><path d="M178.32786,255.76858c0,0 -9.08991,2.22007 -13.67769,2.60239c-4.3824,0.36519 -13.26109,-0.3575 -13.26109,-0.3575" fill="none" stroke-linecap="round"/></g><g data-paper-data="{&quot;index&quot;:null}" stroke="#d99f5f" stroke-width="3"><path d="M269.84395,112.51036c-1.98974,-12.49845 6.52924,-24.24344 19.02769,-26.23318c12.49845,-1.98974 24.24345,6.52925 26.23319,19.02769c1.14961,7.22122 15.55043,79.53994 24.2408,123.04652c1.01835,5.09817 5.04442,9.30939 5.87544,13.46518c2.28786,11.44127 0.66398,19.22981 0.66398,19.22981l-49.67418,11.63774c0,0 -24.37717,-147.67531 -26.36691,-160.17376z" fill="#ffcd97" stroke-linecap="butt"/><path d="M310.70946,257.74021c1.63526,3.1733 2.92489,7.12189 3.61969,11.48623c1.83363,11.51781 4.1193,20.72759 -6.70868,22.4514c-10.82798,1.72381 -11.5152,-7.74045 -13.34882,-19.25826c-0.75046,-4.71398 -0.69065,-9.18241 0.02161,-12.87709" fill="#ffcd97" stroke-linecap="butt"/><path d="M325.91899,258.92866c1.07481,2.64118 1.71845,4.84542 2.23605,8.0967c1.83363,11.51781 4.1193,20.72759 -6.70868,22.4514c-10.82798,1.72381 -11.5152,-7.74045 -13.34882,-19.25826c-0.75046,-4.71398 -0.69065,-10.61097 0.02161,-14.30566" fill="#ffcd97" stroke-linecap="butt"/><path d="M339.67091,253.12957c1.63526,3.1733 2.92489,7.12189 3.61969,11.48622c1.83363,11.51781 4.11929,20.7276 -6.70868,22.4514c-10.82798,1.72381 -11.51519,-7.74045 -13.34882,-19.25826c-0.5137,-3.22677 -0.64775,-6.33847 -0.45275,-9.16572" fill="#ffcd97" stroke-linecap="butt"/><path d="M345.16483,240.92121c1.27134,2.137 2.24196,4.81261 2.71534,7.78612c1.24928,7.84732 -1.43757,14.7978 -6.00126,15.52433c-4.56369,0.72654 -9.27604,-5.04599 -10.52532,-12.89331c-0.5113,-3.21174 -0.36327,-6.27324 0.30292,-8.81931" fill="#ffcd97" stroke-linecap="butt"/><path d="M328.61091,258.01347c0,0 -8.87868,0.72269 -13.26108,0.3575c-4.58778,-0.38232 -13.67769,-2.60239 -13.67769,-2.60239" fill="none" stroke-linecap="round"/></g><g fill="#6a4721" stroke="#472b0d" stroke-width="2" stroke-linecap="round"><path d="M262.92674,-17.84023l54.32297,10.04897l-33.83812,42.00833" data-paper-data="{&quot;index&quot;:null}"/><path d="M198.38067,-3.3044l10.04897,-54.32297l42.00833,33.83812" data-paper-data="{&quot;index&quot;:null}"/><path d="M212.73061,60.83112l-54.32297,-10.04897l33.83812,-42.00833" data-paper-data="{&quot;index&quot;:null}"/><path d="M277.27668,46.29529l-10.04897,54.32297l-42.00833,-33.83812" data-paper-data="{&quot;index&quot;:null}"/></g><g fill="#6a4721" stroke="#472b0d" stroke-width="2" stroke-linecap="round"><path d="M227.76117,-24.06608l45.51784,-31.30645l5.77721,53.63154" data-paper-data="{&quot;index&quot;:null}"/><path d="M192.39859,31.85326l-31.30645,-45.51784l53.63154,-5.77721" data-paper-data="{&quot;index&quot;:null}"/><path d="M247.89619,67.05697l-45.51784,31.30645l-5.77721,-53.63154" data-paper-data="{&quot;index&quot;:null}"/><path d="M283.25877,11.13763l31.30645,45.51784l-53.63154,5.77721" data-paper-data="{&quot;index&quot;:null}"/></g><g fill="#ffcd97" stroke="#e89031" stroke-width="2" stroke-linecap="round"><path d="M194.25425,54.15176l-55.20945,-33.29305l54.21926,-31.98518" data-paper-data="{&quot;index&quot;:null}"/><path d="M270.7302,64.79027l-33.29305,55.20945l-31.98518,-54.21925" data-paper-data="{&quot;index&quot;:null}"/><path d="M281.40311,-11.16086l55.20945,33.29305l-54.21925,31.98518" data-paper-data="{&quot;index&quot;:null}"/><path d="M204.92716,-21.79938l33.29305,-55.20945l31.98518,54.21926" data-paper-data="{&quot;index&quot;:null}"/></g><g fill="#ffcd97" stroke="#e89031" stroke-width="2" stroke-linecap="round"><path d="M230.1084,75.39872l-62.58072,15.49724l15.72187,-60.95574" data-paper-data="{&quot;index&quot;:null}"/><path d="M291.70763,28.84462l15.49724,62.58072l-60.95574,-15.72187" data-paper-data="{&quot;index&quot;:null}"/><path d="M245.54895,-32.40783l62.58072,-15.49724l-15.72187,60.95574" data-paper-data="{&quot;index&quot;:null}"/><path d="M183.94972,14.14627l-15.49724,-62.58072l60.95574,15.72187" data-paper-data="{&quot;index&quot;:null}"/></g><path d="M180.76682,20.27692c0,-31.36946 25.42998,-56.79945 56.79945,-56.79945c31.36947,0 56.79945,25.42998 56.79945,56.79945c0,31.36947 -25.42998,56.79945 -56.79945,56.79945c-31.36947,0 -56.79945,-25.42998 -56.79945,-56.79945z" fill="#ff8200" stroke="#9a4e00" stroke-width="3" stroke-linecap="butt"/><path d="M303.81954,209.91883c0,0 -1.25801,75.32532 -1.86602,111.73115c-0.04031,2.4135 -6.52355,1.28081 -6.52355,1.28081l4.81814,100.8333l-12.01428,13.24477l-50.12857,-13.24477l-4.76416,-104.06574c0,0 6.49436,0.46686 6.53921,-2.21855c0.597,-35.74663 1.79638,-107.56096 1.79638,-107.56096" data-paper-data="{&quot;index&quot;:null}" fill="url(#color-1)" stroke="url(#color-2)" stroke-width="3" stroke-linecap="round"/><path d="M238.38719,209.91884c0,0 1.19938,71.81433 1.79638,107.56096c0.04485,2.68541 6.53921,2.21855 6.53921,2.21855l-4.76416,104.06574l-50.12858,13.24477l-12.01429,-13.24477l4.81814,-100.8333c0,0 -6.48324,1.13269 -6.52355,-1.28081c-0.60802,-36.40583 -1.86602,-111.73115 -1.86602,-111.73115" fill="url(#color-3)" stroke="url(#color-4)" stroke-width="3" stroke-linecap="round"/><path d="M211.34282,64.91675c0,0 19.95551,-3.90164 29.62873,-3.90164c9.28354,0 27.28962,3.90164 27.28962,3.90164l-5.19802,19.6858c0,0 -4.30989,3.25099 -24.25832,2.72998c-17.68923,-0.22529 -21.72172,-4.12342 -21.72172,-4.12342z" data-paper-data="{&quot;index&quot;:null}" fill="#ffcc96" stroke="#da9f5f" stroke-width="3" stroke-linecap="round"/><path d="M180.76682,20.27692c0,-31.36946 25.42998,-56.79945 56.79945,-56.79945c31.36947,0 56.79945,25.42998 56.79945,56.79945c0,31.36947 -25.42998,56.79945 -56.79945,56.79945c-31.36947,0 -56.79945,-25.42998 -56.79945,-56.79945z" fill="#ff8200" stroke="#9a4e00" stroke-width="3" stroke-linecap="butt"/><path d="M231.34556,26.32872c-0.20588,13.49333 -11.42113,23.86908 -25.05004,23.17488c-13.62888,-0.6942 -24.51038,-12.19546 -24.30449,-25.68878c0.20587,-13.49333 11.42113,-23.86907 25.04999,-23.17489c13.62888,0.69421 24.5104,12.19544 24.30451,25.68876z" fill="#ffe1c2" stroke="#020007" stroke-width="0" stroke-linecap="butt"/><path d="M244.964,26.32869c-0.20589,-13.49332 10.67563,-24.99455 24.30451,-25.68876c13.62887,-0.69418 24.84412,9.68156 25.05,23.17489c0.20589,13.49332 -10.67561,24.99458 -24.30449,25.68878c-13.62891,0.6942 -24.84416,-9.68155 -25.05004,-23.17488z" data-paper-data="{&quot;index&quot;:null}" fill="#ffe1c2" stroke="#020007" stroke-width="0" stroke-linecap="butt"/><g data-paper-data="{&quot;index&quot;:null}" stroke-width="3" stroke-linecap="butt"><path d="M244.99381,26.32869c-0.20589,-13.49332 10.67563,-24.99455 24.30451,-25.68876c13.62886,-0.69418 24.84412,9.68156 25.04999,23.17489c0.20589,13.49332 -10.67561,24.99458 -24.30449,25.68878c-13.62891,0.6942 -24.84417,-9.68155 -25.05004,-23.17488z" fill="#ffe1c2" stroke="#d4a676"/><path d="M258.11693,6.33293c7.25083,0 13.12878,8.5913 13.12878,19.18919c0,10.5979 -5.87795,19.18919 -13.12878,19.18919c-7.25083,0 -13.12878,-8.59129 -13.12878,-19.18919c0,-10.59789 5.87795,-19.18919 13.12878,-19.18919z" fill="#080808" stroke="#27104d"/></g><g stroke-width="3" stroke-linecap="butt"><path d="M231.34556,26.32872c-0.20588,13.49333 -11.42113,23.86908 -25.05004,23.17488c-13.62888,-0.6942 -24.51038,-12.19546 -24.30449,-25.68878c0.20587,-13.49333 11.42113,-23.86907 25.04999,-23.17489c13.62888,0.69421 24.5104,12.19544 24.30451,25.68876z" fill="#ffe1c2" stroke="#d4a676"/><path d="M231.35119,25.52212c0,10.5979 -5.87795,19.18919 -13.12877,19.18919c-7.25083,0 -13.12878,-8.59129 -13.12878,-19.18919c0,-10.59789 5.87795,-19.18919 13.12878,-19.18919c7.25083,0 13.12877,8.5913 13.12877,19.18919z" fill="#080808" stroke="#27104d"/></g><g stroke-linecap="round"><g><path d="M241.95896,82.01792l-0.00883,145.83297l-5.31906,0.11955l-60.95258,-16.81051l18.50871,-74.52081c0,0 -6.01125,-6.24356 -8.28892,-9.93119c-2.24759,-3.63893 -5.28809,-12.05043 -5.28809,-12.05043c0,0 7.93728,-17.25094 12.53372,-22.54199c1.49603,-1.7221 6.08046,-5.50231 10.98859,-7.48331c5.90412,-2.383 12.13437,-2.83132 12.13437,-2.83132" fill="url(#color-5)" stroke="url(#color-6)" stroke-width="0"/><path d="M263.73313,81.80088c0,0 6.23025,0.44832 12.13437,2.83132c4.90813,1.981 9.49256,5.76121 10.98859,7.48331c4.59644,5.29105 12.53372,22.54199 12.53372,22.54199c0,0 -3.0405,8.4115 -5.28809,12.05043c-2.27767,3.68763 -8.28892,9.93119 -8.28892,9.93119l18.50871,74.52081l-60.95258,16.81051l-3.27696,-0.11955l-0.00884,-145.83296" data-paper-data="{&quot;index&quot;:null}" fill="url(#color-7)" stroke="url(#color-8)" stroke-width="0"/><path d="M239.90803,227.85089l-3.27696,0.11955l-60.95258,-16.81051l18.50871,-74.52081c0,0 -6.01125,-6.24356 -8.28892,-9.93119c-2.24759,-3.63893 -5.28809,-12.05043 -5.28809,-12.05043c0,0 7.93728,-17.25094 12.53372,-22.54199c1.49603,-1.7221 6.08046,-5.50231 10.98859,-7.48331c5.90412,-2.383 12.13437,-2.83132 12.13437,-2.83132" fill="none" stroke="url(#color-9)" stroke-width="3"/><path d="M263.73313,81.80088c0,0 6.23025,0.44832 12.13437,2.83132c4.90813,1.981 9.49256,5.76121 10.98859,7.48331c4.59644,5.29105 12.53372,22.54199 12.53372,22.54199c0,0 -3.0405,8.4115 -5.28809,12.05043c-2.27767,3.68763 -8.28892,9.93119 -8.28892,9.93119l18.50871,74.52081l-60.95258,16.81051l-3.27696,-0.11955" data-paper-data="{&quot;index&quot;:null}" fill="none" stroke="url(#color-10)" stroke-width="3"/></g><path d="M292.64684,115.78935c0,0 -35.88982,3.49168 -53.59373,3.49168c-6.90619,0 -16.48198,-0.55081 -25.51736,-1.21488c-0.6174,-0.04538 -1.23228,-0.09128 -1.8436,-0.13757c-12.96762,-0.98202 -24.339,-2.13922 -24.339,-2.13922" fill="none" stroke="#cd8f4c" stroke-width="3"/></g><path d="M265.68361,81.62883c-4.99924,5.54438 -16.80025,8.29787 -25.30762,8.29787c-8.6528,0 -20.92898,-2.60459 -26.18029,-8.29787" fill="none" stroke="#620000" stroke-width="4" stroke-linecap="round"/><g stroke="#b3a934" stroke-width="2" stroke-linecap="butt"><path d="M231.34556,98.99646c0,-5.06605 4.10685,-9.1729 9.1729,-9.1729c5.06605,0 9.1729,4.10685 9.1729,9.1729c0,5.06605 -4.10685,9.1729 -9.1729,9.1729c-5.06605,0 -9.1729,-4.10685 -9.1729,-9.1729z" fill="#fff584"/><path d="M235.09539,98.99646c0,-4.09332 3.31829,-7.41162 7.41162,-7.41162c4.09332,0 7.41162,3.31829 7.41162,7.41162c0,4.09332 -3.31829,7.41162 -7.41162,7.41162c-4.09332,0 -7.41162,-3.31829 -7.41162,-7.41162z" fill="#000000"/></g><g data-paper-data="{&quot;index&quot;:null}" stroke="#ffffff" stroke-width="1" stroke-linecap="butt"><path d="M242.41936,99.14389c-0.02832,-2.09378 1.46861,-3.87845 3.34349,-3.98617c1.87488,-0.10772 3.41772,1.5023 3.44605,3.59609c0.02832,2.09378 -1.46861,3.87845 -3.34349,3.98617c-1.87489,0.10772 -3.41773,-1.5023 -3.44605,-3.59609z" fill="#000000"/><path d="M244.19123,96.04112c0.99747,0 1.80608,1.33313 1.80608,2.97762c0,1.64449 -0.80861,2.97762 -1.80608,2.97762c-0.99747,0 -1.80608,-1.33313 -1.80608,-2.97762c0,-1.64449 0.80861,-2.97762 1.80608,-2.97762z" fill="#080808"/></g><g data-paper-data="{&quot;index&quot;:null}" stroke="#ffffff" stroke-width="1" stroke-linecap="butt"><path d="M239.33257,99.1439c-0.02832,2.09378 -1.57117,3.70381 -3.44606,3.59609c-1.87488,-0.10772 -3.37181,-1.89239 -3.34348,-3.98617c0.02832,-2.09378 1.57117,-3.70381 3.44604,-3.59609c1.87488,0.10772 3.37181,1.89239 3.34349,3.98617z" fill="#000000"/><path d="M239.36677,99.01874c0,1.6445 -0.80862,2.97762 -1.80608,2.97762c-0.99748,0 -1.80608,-1.33312 -1.80608,-2.97762c0,-1.6445 0.8086,-2.97761 1.80608,-2.97761c0.99748,0 1.80608,1.33312 1.80608,2.97762z" fill="#080808"/></g></g></g></svg>