<svg version="1.1" xmlns="http://www.w3.org/2000/svg" xmlns:xlink="http://www.w3.org/1999/xlink" width="301.08698" height="203.84097" viewBox="0,0,301.08698,203.84097"><defs><linearGradient x1="240.30327" y1="107.94736" x2="240.30327" y2="261.64216" gradientUnits="userSpaceOnUse" id="color-1"><stop offset="0" stop-color="#ae2e2e"/><stop offset="1" stop-color="#8e1a1a"/></linearGradient><linearGradient x1="199.27283" y1="184.85431" x2="199.27283" y2="228.34135" gradientUnits="userSpaceOnUse" id="color-2"><stop offset="0" stop-color="#9f2425"/><stop offset="1" stop-color="#941e1f"/></linearGradient><linearGradient x1="275.39642" y1="127.0504" x2="275.39642" y2="182.18086" gradientUnits="userSpaceOnUse" id="color-3"><stop offset="0" stop-color="#a92b2b"/><stop offset="1" stop-color="#9f2525"/></linearGradient><linearGradient x1="190.15782" y1="127.53654" x2="190.15782" y2="168.18305" gradientUnits="userSpaceOnUse" id="color-4"><stop offset="0" stop-color="#a92b2b"/><stop offset="1" stop-color="#a02726"/></linearGradient><linearGradient x1="228.44374" y1="123.63656" x2="228.44374" y2="170.31197" gradientUnits="userSpaceOnUse" id="color-5"><stop offset="0" stop-color="#a92b2b"/><stop offset="1" stop-color="#a02726"/></linearGradient></defs><g transform="translate(-23.95531,-60.22134)"><g data-paper-data="{&quot;isPaintingLayer&quot;:true}" fill-rule="nonzero" stroke-linejoin="miter" stroke-miterlimit="10" stroke-dasharray="" stroke-dashoffset="0" style="mix-blend-mode: normal"><g><path d="M233.49961,261.64216c0,0 -5.20002,-4.61518 -7.30689,-7.17828c-2.04214,-2.48435 -5.14622,-7.97145 -5.14622,-7.97145c0,0 -1.71458,1.72244 -2.35986,3.22821c-0.61704,1.43989 -1.4309,5.61757 -1.4309,5.61757c0,0 -5.01277,-3.35522 -7.01508,-6.489c-2.17579,-3.40529 -2.58152,-7.15895 -3.47926,-9.9592c-0.20981,-0.65444 -5.04726,1.88916 -6.27445,5.48288c-1.46821,4.29952 0.65506,9.85328 0.65506,9.85328c0,0 -14.45472,-8.59312 -15.45725,-13.17092c-1.04095,-4.75325 1.30197,-15.18005 1.30197,-15.18005c0,0 -7.23865,-1.06838 -9.94458,-2.12625c-1.86606,-0.72953 -4.7294,-5.31047 -4.7294,-5.31047c0,0 3.41352,-1.461 4.58682,-2.71223c1.10699,-1.18052 2.2656,-4.59534 2.2656,-4.59534c0,0 -9.00128,2.45307 -12.04985,0.60571c-3.83954,-2.32665 -9.16674,-13.46238 -9.16674,-13.46238c0,0 10.11619,-3.40418 13.43839,-11.28907c0.89321,-2.11995 1.64899,-5.39176 0.50643,-7.57108c-2.37571,-4.53142 -8.48489,-8.17423 -7.26223,-13.8055c1.22887,-5.6599 7.56269,-16.88071 7.56269,-16.88071c0,0 -10.44804,-7.33891 -8.47447,-10.37646c0.25541,-0.39311 -0.1508,-3.38505 0.55829,-5.99276c0.76971,-2.83066 2.64785,-5.27716 2.64785,-5.27716c0,0 15.57329,5.20719 15.44422,4.47031c-1.38901,-7.92972 10.31767,-17.2335 11.83336,-18.34866c4.71505,-3.46907 13.22897,-5.22382 18.47594,-5.25557c3.50564,-0.02122 8.92675,1.61822 13.54035,3.29411c4.79113,1.74035 8.71143,3.52007 8.71143,3.52007c0,0 5.45804,-2.45513 12.75647,-3.90964c5.72532,-1.14101 12.58316,-1.66624 18.82711,0.09252c2.56714,0.72308 5.0475,2.11405 7.32486,3.8778c2.56457,1.98616 4.87168,4.4451 6.75546,6.95542c0.22755,0.30324 9.84564,11.63926 20.14045,17.60498c10.61987,6.15409 21.92284,6.9388 21.92284,6.9388c0,0 -2.43599,8.62495 -10.47325,18.79441c-1.13288,1.43342 -2.32568,2.93177 -3.57057,4.48636c-2.10937,2.63412 7.92787,5.65694 7.92787,5.65694l-5.55758,9.20309c0,0 3.40239,13.47456 1.76604,19.95699c-2.78422,11.02966 -9.83439,18.91877 -9.83439,18.91877c0,0 -0.81786,-3.21207 -1.91306,-4.90666c-1.40243,-2.16996 -5.81007,-7.04321 -5.81007,-7.04321c0,0 1.899,6.29332 1.84458,9.65837c-0.0448,2.77095 -2.14786,9.09802 -2.14786,9.09802l-11.80599,1.84006c0,0 -0.47569,6.63485 -1.87725,8.94979c-5.69599,9.40801 -16.08195,15.21246 -16.08195,15.21246c0,0 3.81913,-8.99691 2.97583,-11.86766c-0.80277,-2.73277 -7.92005,-4.96329 -7.92005,-4.96329c0,0 -2.67648,8.48369 -3.61299,9.62319c-3.19575,3.88843 -6.25112,6.21898 -6.25112,6.21898c0,0 -1.0954,-2.42368 -1.67087,-3.63045c-0.61503,-1.28974 -1.90851,-3.87564 -1.90851,-3.87564c0,0 -3.26372,6.14188 -5.26404,8.1609c-3.72182,3.75662 -7.76976,5.29391 -7.66324,5.58163" fill="url(#color-1)" stroke="#000000" stroke-width="0" stroke-linecap="butt"/><path d="M295.51619,211.37977c0,0 2.27256,6.40014 2.17048,9.64614c-0.10404,3.30843 -2.78894,10.02073 -2.78894,10.02073c0,0 -8.40341,0.81218 -11.30559,-0.2197c-2.63883,-0.93825 -4.27949,-3.24365 -4.27949,-3.24365" fill="none" stroke="#670808" stroke-width="3" stroke-linecap="round"/><path d="M310.0107,184.829c0.91074,1.36342 1.7165,2.81198 2.35831,4.33692c1.02923,2.44543 1.62769,5.71317 1.67617,9.19191c0.05248,3.76565 -0.53945,7.77851 -1.92701,11.26337c-3.00333,7.5428 -9.18503,12.91443 -10.06402,13.77349c-1.03289,1.00947 0.80132,-1.95174 -0.39601,-4.13522c-0.67469,-1.23042 -2.68738,-2.46643 -4.70129,-3.24883" fill="none" stroke="#670808" stroke-width="3" stroke-linecap="round"/><path d="M186.45161,226.29228c0,0 -6.70965,-1.94097 -7.85692,-2.208c-2.25143,-0.52408 -7.66696,-5.37262 -7.66696,-5.37262c0,0 4.13226,-1.15804 5.62032,-2.62499c1.58854,-1.566 3.62921,-6.49328 3.62921,-6.49328c0,0 -9.93252,3.9408 -13.72714,1.94383c-3.90103,-2.05298 -9.36874,-14.09829 -9.36874,-14.09829c0,0 5.90766,-1.73947 8.03305,-3.89267c2.77586,-2.81221 7.2917,-4.05605 7.19795,-11.53772c-0.05196,-4.14547 -2.64505,-6.20352 -4.79152,-8.6246c-1.72745,-1.94846 -3.16565,-4.13204 -2.75721,-7.82801c0.36907,-3.33971 2.20009,-6.80081 4.3053,-9.89527" fill="none" stroke="#670808" stroke-width="3" stroke-linecap="round"/><path d="M246.60643,246.04589c0,0 -1.27197,4.65283 -3.09457,7.17287c-3.27239,4.52462 -9.82251,9.02378 -9.82251,9.02378c0,0 -6.55012,-4.49916 -9.82251,-9.02378c-1.8226,-2.52005 -3.09457,-7.17287 -3.09457,-7.17287" data-paper-data="{&quot;index&quot;:null}" fill="none" stroke="#660809" stroke-width="3" stroke-linecap="butt"/><path d="M222.75165,246.95161c-1.09409,0.2942 -3.30552,1.09982 -4.05805,2.93285c-0.92529,2.25391 -1.13638,5.96519 -1.13638,5.96519c0,0 -4.77899,-2.91285 -6.43231,-5.53453c-3.04177,-4.82335 -4.07843,-10.88901 -4.07843,-10.88901c0,0 -5.99059,0.46653 -6.81252,4.4193c-0.90741,4.36387 2.26187,11.65269 2.26187,11.65269c0,0 -13.44237,-6.72345 -16.00345,-14.12372c-1.83467,-5.30133 -1.32164,-9.43372 -0.8406,-11.45525c0.20991,-0.8821 2.88754,-6.92838 2.88754,-6.92838" data-paper-data="{&quot;index&quot;:null}" fill="none" stroke="#670808" stroke-width="2.5" stroke-linecap="butt"/><path d="M281.47454,228.55686c0,0 2.20837,5.20293 -0.42687,12.81753c-2.56108,7.40027 -16.00345,14.12372 -16.00345,14.12372c0,0 3.16928,-7.28882 2.26187,-11.65269c-0.82193,-3.95277 -6.81252,-4.4193 -6.81252,-4.4193c0,0 -1.03666,6.06566 -4.07843,10.88901c-1.65332,2.62167 -6.43231,5.53453 -6.43231,5.53453c0,0 -0.21109,-3.71128 -1.13638,-5.96519c-0.75253,-1.83303 -2.96396,-2.63864 -4.05805,-2.93285" data-paper-data="{&quot;index&quot;:null}" fill="none" stroke="#670808" stroke-width="2.5" stroke-linecap="butt"/><path d="M243.29312,104.6426c-4.58894,-1.91513 -7.99967,8.67747 -7.99967,8.67747l-0.12328,0.00198c0,0 -0.72855,-9.2759 -2.40673,-11.57821c-2.25697,-3.09632 -5.94257,-5.31877 -9.0657,-3.06974" fill="none" stroke="#670808" stroke-width="3" stroke-linecap="round"/><path d="M280.86451,121.71452c0,0 3.05095,3.9197 7.65684,7.98994c5.05459,4.46678 12.99655,9.25431 15.72828,10.81307c6.01466,3.43202 18.669,5.35505 18.669,5.35505c0,0 -7.40965,17.76027 -13.16142,22.44037c-0.50122,0.40783 -1.10718,0.80745 -1.79362,1.19676" fill="none" stroke="#670808" stroke-width="3" stroke-linecap="round"/><path d="M306.83504,166.21177c0.43829,8.6803 10.47611,7.32758 10.47611,7.32758c0,0 -6.29368,12.87501 -12.48708,13.54901" data-paper-data="{&quot;index&quot;:null}" fill="none" stroke="#670808" stroke-width="3" stroke-linecap="butt"/><path d="M168.13699,156.89255c0,0 5.94295,-7.24626 1.59262,-9.3916c-13.45058,-6.63303 -2.64192,-21.16988 -2.64192,-21.16988c0,0 12.48458,7.67006 15.30458,2.14639" data-paper-data="{&quot;index&quot;:null}" fill="none" stroke="#670808" stroke-width="3" stroke-linecap="butt"/><path d="M182.18825,128.9422c0,0 1.20824,-3.37794 3.878,-7.33034c1.61385,-2.38917 3.7617,-4.98825 6.49959,-7.17799c2.41902,-1.9347 5.45059,-3.6085 8.72887,-4.8413c3.66822,-1.37944 7.64544,-2.20673 11.41911,-2.22958c3.50564,-0.02122 8.92673,1.61822 13.54033,3.2941c4.79113,1.74035 8.71142,3.52007 8.71142,3.52007c0,0 5.45806,-2.45512 12.75646,-3.90963c5.72532,-1.14101 12.58316,-1.66626 18.82712,0.09251c2.56714,0.72308 5.0475,2.11405 7.32486,3.8778c2.56457,1.98616 4.87171,4.4451 6.75546,6.95542c2.06935,2.75763 8.32874,8.83093 8.32874,8.83093" fill="none" stroke="#670808" stroke-width="3" stroke-linecap="butt"/></g><path d="M182.26443,177.8052c-3.94397,-29.11893 18.49651,-39.12874 47.61546,-43.0727c29.11893,-3.94397 53.88963,-0.3286 57.83358,28.79034c3.94397,29.11893 -16.46438,55.92174 -45.58334,59.8657c-29.11893,3.94397 -55.92174,-16.4644 -59.86569,-45.58333z" fill="#ffdfc2" stroke="#d4a980" stroke-width="3" stroke-linecap="butt"/><g><g stroke-linecap="round"><path d="M213.07649,193.38479c0,0 -11.65818,-0.44599 -16.72482,-1.9757c-4.72797,-1.42745 -13.73426,-5.87217 -13.82404,-8.24067c-0.0621,-1.63867 3.26618,-2.82555 3.26618,-2.82555c0,0 -8.68404,-1.33087 -9.07867,-6.59863c-0.31057,-4.14598 2.40853,-5.5609 2.40853,-5.5609c0,0 2.65741,-9.2015 6.77875,-13.22485c4.12134,-4.02337 12.82168,-10.35659 26.53553,-6.33659c13.71383,4.02 18.71035,13.07222 19.00137,27.18973" fill="#26134d" stroke="#000000" stroke-width="0"/><path d="M213.07649,193.38479c-6.53967,0.76622 -11.65818,-0.44599 -16.72482,-1.9757c-4.72797,-1.42745 -13.73426,-5.87217 -13.82404,-8.24067c-0.0621,-1.63867 3.26618,-2.82555 3.26618,-2.82555c0,0 -8.58693,-1.51681 -8.98156,-6.7846c-0.31057,-4.14597 2.31143,-5.37497 2.31143,-5.37497c0,0 2.65741,-9.2015 6.77875,-13.22485c4.12134,-4.02337 12.82168,-10.35659 26.53553,-6.33659c13.71383,4.02 18.71035,13.07222 19.00137,27.18973z" fill="none" stroke="#100030" stroke-width="2"/></g><path d="M231.60804,174.56859c-0.19187,10.90893 -10.64479,19.29739 -23.34725,18.73614c-12.70245,-0.56124 -22.84427,-9.85963 -22.65238,-20.76855c0.19187,-10.90893 10.64478,-19.29739 23.34722,-18.73615c12.70245,0.56124 22.84429,9.85963 22.6524,20.76854z" fill="#050010" stroke="#020007" stroke-width="0" stroke-linecap="butt"/></g><g data-paper-data="{&quot;index&quot;:null}"><g stroke-linecap="round"><path d="M238.94238,176.15274c0.7873,-14.09854 6.09905,-22.96946 19.94579,-26.5047c13.84673,-3.53524 22.31898,3.10003 26.29627,7.26583c3.9773,4.16579 6.30947,13.45505 6.30947,13.45505c0,0 2.66768,1.50968 2.21149,5.64218c-0.57965,5.25062 -9.30511,6.27527 -9.30511,6.27527c0,0 3.28447,1.30318 3.16479,2.93866c-0.17301,2.36388 -9.33005,6.48912 -14.10529,7.74942c-5.11728,1.35061 -16.78396,1.38633 -16.78396,1.38633" fill="#26134d" stroke="#000000" stroke-width="0"/><path d="M238.94238,176.15272c0.7873,-14.09854 6.09905,-22.96946 19.94579,-26.5047c13.84673,-3.53524 22.31898,3.10003 26.29627,7.26583c3.9773,4.16579 6.30947,13.45505 6.30947,13.45505c0,0 2.57718,1.32046 2.12099,5.45292c-0.57965,5.25062 -9.21459,6.46454 -9.21459,6.46454c0,0 3.28447,1.30318 3.16479,2.93866c-0.17301,2.36388 -9.33005,6.48912 -14.10529,7.74942c-5.11728,1.35061 -10.27526,2.38206 -16.78396,1.38633z" fill="none" stroke="#100030" stroke-width="2"/></g><path d="M262.18624,154.94545c12.71434,-0.11418 22.86577,8.6367 22.67389,19.54562c-0.19187,10.90893 -10.65441,19.8449 -23.36874,19.95909c-12.71434,0.11418 -22.86579,-8.6367 -22.67391,-19.54561c0.19187,-10.90893 10.65442,-19.8449 23.36876,-19.95909z" fill="#050010" stroke="#020007" stroke-width="0" stroke-linecap="butt"/></g><g fill="none" stroke-width="3"><path d="M259.95691,163.79146l-13.91732,23.92161" stroke="#ffe200" stroke-linecap="round"/><path d="M246.19917,163.87114l13.5982,23.76228" stroke="#00ff31" stroke-linecap="round"/><path d="M246.10694,163.70986l13.89693,0.001l-0.11418,24.08386l-13.89694,-0.001z" stroke="#ff0000" stroke-linecap="butt"/></g><path d="M284.83635,175.71395c-0.19187,10.90893 -10.64479,19.29739 -23.34725,18.73614c-12.70245,-0.56124 -22.84427,-9.85963 -22.65238,-20.76855c0.19187,-10.90893 10.64478,-19.29739 23.34722,-18.73615c12.70245,0.56124 22.84429,9.85963 22.6524,20.76854z" fill="none" stroke="#020007" stroke-width="3" stroke-linecap="butt"/><path d="M262.19223,202.40912c0,0 -1.39937,1.75829 -4.14627,2.18717c-2.74688,0.42889 -5.55096,-0.67312 -5.55096,-0.67312c0,0 -2.35513,3.95586 -6.18536,5.08875c-3.83023,1.13291 -8.04152,-0.99836 -8.04152,-0.99836c0,0 -3.26544,2.85103 -4.83153,3.43677c-1.5661,0.58573 -4.41285,0.09231 -4.41285,0.09231" data-paper-data="{&quot;index&quot;:null}" fill="none" stroke="#d5a880" stroke-width="3" stroke-linecap="round"/><g stroke-linecap="round"><path d="M179.63262,191.0506l3.69062,-6.19629c0,0 6.96392,4.12643 9.41611,8.9972c2.32387,4.61588 5.68129,13.80752 5.68129,13.80752c0,0 5.64239,3.12261 8.87876,4.52378c3.56298,1.54257 11.61364,4.3483 11.61364,4.3483c0,0 -4.34564,9.36103 -7.21123,11.23964c-1.75245,1.14886 -8.72511,0.2076 -8.72511,0.2076" fill="url(#color-2)" stroke="#000000" stroke-width="0"/><path d="M180.64737,183.3614c0,0 10.03125,5.44886 12.45181,10.25514c2.26048,4.48843 5.35662,13.84987 5.35662,13.84987c0,0 5.14409,3.79303 8.15986,5.14369c3.63527,1.62811 12.14252,3.94902 12.14252,3.94902c0,0 -3.81891,9.22052 -5.80568,10.49562c-1.92415,1.23491 -7.59094,0.52698 -7.59094,0.52698" fill="none" stroke="#670808" stroke-width="3"/></g><g fill="#ff6a00" stroke="none" stroke-width="0" stroke-linecap="butt"><path d="M224.3466,189.6719l-11.29976,-25.69564l5.33678,-5.33678l11.29976,25.69564z"/><path d="M213.04685,184.33512l11.29976,-25.69564l5.33679,5.33678l-11.29976,25.69564z" data-paper-data="{&quot;index&quot;:null}"/></g><path d="M231.60806,174.56859c-0.19187,10.90893 -10.64479,19.29739 -23.34725,18.73614c-12.70245,-0.56124 -22.84427,-9.85963 -22.65238,-20.76855c0.19187,-10.90893 10.64478,-19.29739 23.34722,-18.73615c12.70245,0.56124 22.84429,9.85963 22.6524,20.76854z" fill="none" stroke="#020007" stroke-width="3" stroke-linecap="butt"/><g stroke-linecap="round"><g><path d="M300.93545,178.23613c0,0 -4.80761,4.30852 -7.70291,3.91994c-4.18356,-0.56148 -7.00086,-6.08113 -7.5743,-7.9205c-1.40155,-4.49568 -1.61054,-16.85571 -1.61054,-16.85571c0,0 -11.10828,-2.78422 -14.71906,-5.0527c-3.70683,-2.32884 -19.75277,-17.27067 -19.4675,-21.93701c0.38583,-6.31142 27.3031,-1.73933 27.3031,-1.73933" fill="url(#color-3)" stroke="#000000" stroke-width="0"/><path d="M249.63669,132.81786c5.07115,6.00183 13.81229,15.8154 19.69194,19.50931c3.61078,2.26848 14.71906,5.0527 14.71906,5.0527c0,0 0.20899,12.36003 1.61054,16.85571c0.97029,3.11235 5.99158,7.5291 5.99158,7.5291" fill="none" stroke="#670808" stroke-width="3"/></g><g><path d="M211.23621,127.53654c-0.34485,11.11462 -9.0341,22.59112 -14.29988,27.8569c-4.92569,4.92569 -17.20502,16.65352 -27.8569,11.51419" fill="url(#color-4)" stroke="#000000" stroke-width="0"/><path d="M209.75052,136.07933c0,0 -7.5484,14.04834 -12.81418,19.31412c-4.92569,4.92569 -17.82842,11.32847 -17.82842,11.32847" fill="none" stroke="#670808" stroke-width="3"/></g><g><path d="M256.92154,123.63656c2.1293,4.69754 -10.38215,21.88971 -10.38215,21.88971c0,0 4.66103,6.68452 2.83871,9.86835c-7.05234,12.32139 -30.75514,14.91735 -30.75514,14.91735c0,0 6.91082,-10.13181 5.14826,-13.52123c-1.21201,-2.33071 -10.80905,-0.72989 -14.93827,-3.62233c-5.30179,-3.71381 -9.11093,-23.96047 -9.11093,-23.96047" fill="url(#color-5)" stroke="#000000" stroke-width="0"/><path d="M254.69298,130.13652c2.1293,4.69754 -8.15359,15.38977 -8.15359,15.38977c0,0 4.66103,6.68452 2.83871,9.86835c-7.05234,12.32139 -30.75514,14.91735 -30.75514,14.91735c0,0 6.91082,-10.13181 5.14826,-13.52123c-1.21201,-2.33071 -10.80905,-0.72989 -14.93827,-3.62233c-5.3018,-3.71381 -5.21097,-11.70343 -5.21097,-11.70343" fill="none" stroke="#670808" stroke-width="3"/></g></g><path d="M219.64286,95.57848c0,0 -39.73203,-44.37197 -65.44133,-23.23936c-24.55696,20.1854 -34.84906,105.76856 -46.85855,111.88599c-15.64838,7.97103 -20.91441,-20.78948 -20.91441,-20.78948" fill="none" stroke="#d26a6a" stroke-width="5" stroke-linecap="round"/><path d="M221.07143,60.22134v37.14286h-37.14286" fill="none" stroke="#d26a6a" stroke-width="5" stroke-linecap="butt"/><text transform="translate(24.06138,149.09174) scale(0.21214,0.43868)" font-size="40" xml:space="preserve" fill="#000000" fill-rule="nonzero" stroke="none" stroke-width="1" stroke-linecap="butt" stroke-linejoin="miter" stroke-miterlimit="10" stroke-dasharray="" stroke-dashoffset="0" font-family="Sans Serif" font-weight="normal" text-anchor="start" style="mix-blend-mode: normal"><tspan x="0" dy="0">stupid big fish enjoyer</tspan></text></g></g></svg>