<svg version="1.1" xmlns="http://www.w3.org/2000/svg" xmlns:xlink="http://www.w3.org/1999/xlink" width="191.34966" height="446.68498" viewBox="0,0,191.34966,446.68498"><g transform="translate(-144.30721,15.84254)"><g data-paper-data="{&quot;isPaintingLayer&quot;:true}" fill-rule="nonzero" stroke-linejoin="miter" stroke-miterlimit="10" stroke-dasharray="" stroke-dashoffset="0" style="mix-blend-mode: normal"><g data-paper-data="{&quot;index&quot;:null}" fill="#14005d" stroke="#080028" stroke-width="3" stroke-linecap="butt"><path d="M170.21778,311.42411c-12.74748,-1.39541 -25.16639,-6.33676 -24.37463,-13.37483c0.77825,-6.918 13.55113,-9.02497 26.0847,-7.69718c12.83114,1.35931 25.41145,6.31844 24.61472,13.40069c-0.78322,6.96218 -13.71477,9.05169 -26.32479,7.67132z"/><path d="M145.85562,298.04634c0,0 20.62626,-157.27793 20.62863,-157.33735c0.50424,-12.64578 12.42417,-22.34562 25.12322,-21.13209c13.066,1.2486 21.17548,10.31233 20.67123,22.95812v0c-0.04505,1.12983 -15.72414,161.21911 -15.72414,161.21911"/></g><g fill="#14005d" stroke="#080028" stroke-width="3" stroke-linecap="butt"><path d="M283.45745,303.75279c-0.79673,-7.08225 11.78358,-12.04138 24.61472,-13.40069c12.53357,-1.32779 25.30645,0.77918 26.0847,7.69718c0.79176,7.03807 -11.62716,11.97942 -24.37464,13.37483c-12.61002,1.38036 -25.54156,-0.70914 -26.32479,-7.67132z"/><path d="M283.44545,303.75414c0,0 -15.67908,-160.08929 -15.72413,-161.21911v0c-0.50425,-12.64579 7.60522,-21.70951 20.67123,-22.95812c12.69905,-1.21353 24.61897,8.48631 25.12322,21.13209c0.00237,0.05943 20.62863,157.33736 20.62863,157.33736"/></g><g stroke-linecap="round"><path d="M239.90804,252.96528l-3.27696,0.11955l-60.95258,-16.81051l18.50871,-74.52081c0,0 -6.01125,-6.24356 -8.28892,-9.93119c-2.24759,-3.63893 -5.28809,-12.05043 -5.28809,-12.05043c0,0 7.93728,-17.25094 12.53372,-22.54199c1.49603,-1.7221 12.51833,-8.85747 21.84573,-10.62617c9.32741,-1.7687 35.56294,-0.87528 35.56294,-0.87528" fill="#1b0080" stroke="#0f0047" stroke-width="0"/><path d="M222.48039,105.77241c0,0 37.08739,-1.12311 42.99151,1.25989c4.90813,1.981 11.97608,2.21176 21.2743,10.1976c4.59644,5.29105 12.53372,22.54199 12.53372,22.54199c0,0 -3.0405,8.4115 -5.28809,12.05043c-2.27767,3.68763 -8.28892,9.93119 -8.28892,9.93119l18.50871,74.52081l-60.95258,16.81051l-3.27696,-0.11955" data-paper-data="{&quot;index&quot;:null}" fill="#1b0080" stroke="#0f0047" stroke-width="0"/><g fill="none" stroke="#0b0036" stroke-width="3.5"><path d="M239.90804,252.96528l-3.27696,0.11955l-60.95258,-16.81051l18.50871,-74.52081c0,0 -6.01125,-6.24356 -8.28892,-9.93119c-2.24759,-3.63893 -5.28809,-12.05043 -5.28809,-12.05043c0,0 7.93728,-17.25094 12.53372,-22.54199c1.49603,-1.7221 6.08046,-5.50231 10.98859,-7.48331c5.90412,-2.383 12.13437,-2.83132 12.13437,-2.83132"/><path d="M263.73314,106.91527c0,0 6.23025,0.44832 12.13437,2.83132c4.90813,1.981 9.49256,5.76121 10.98859,7.48331c4.59644,5.29105 12.53372,22.54199 12.53372,22.54199c0,0 -3.0405,8.4115 -5.28809,12.05043c-2.27767,3.68763 -8.28892,9.93119 -8.28892,9.93119l18.50871,74.52081l-60.95258,16.81051l-3.27696,-0.11955" data-paper-data="{&quot;index&quot;:null}"/></g></g><g fill="#160062" stroke="#0f0047" stroke-width="0" stroke-linecap="round"><path d="M239.93999,143.94374c0,0 7.13603,0.32243 18.72345,-0.10721c11.68334,-0.4332 35.19512,-2.4814 35.19512,-2.4814c0,0 -2.76397,8.57471 -4.80715,11.83893c-2.07052,3.3079 -7.53504,8.90854 -7.53504,8.90854l-41.56256,4.32217" data-paper-data="{&quot;index&quot;:null}"/><path d="M239.92617,166.42477l-41.56256,-4.32217c0,0 -5.46453,-5.60064 -7.53504,-8.90853c-2.04317,-3.26422 -4.80715,-11.83893 -4.80715,-11.83893c0,0 23.51177,2.0482 35.19512,2.4814c11.58742,0.42964 18.72346,0.10721 18.72346,0.10721" data-paper-data="{&quot;index&quot;:null}"/></g><g fill="none" stroke-width="3.5" stroke-linecap="round"><path d="M280.23522,162.79048c0,0 -28.39126,3.44263 -42.25647,3.44263c-13.43821,0 -39.69384,-3.44263 -39.69384,-3.44263" stroke="#0b0036"/><path d="M292.52094,142.18884c0,0 -36.32314,3.27869 -54.23636,3.27869c-17.58808,0 -52.28538,-3.27869 -52.28538,-3.27869" stroke="#0e0045"/></g><path d="M269.01804,89.97104l-6.07384,18.29236c0,0 -4.26681,3.89813 -22.98391,4.12342v0c-18.71711,-0.22529 -22.98391,-4.12342 -22.98391,-4.12342l-6.07385,-18.29236" data-paper-data="{&quot;index&quot;:null}" fill="#1b0080" stroke="#0b0036" stroke-width="3" stroke-linecap="round"/><path d="M183.20056,42.45691c0,-31.36946 25.42998,-56.79945 56.79945,-56.79945c31.36947,0 56.79945,25.42998 56.79945,56.79945c0,31.36947 -25.42998,56.79945 -56.79945,56.79945c-31.36947,0 -56.79945,-25.42998 -56.79945,-56.79945z" data-paper-data="{&quot;index&quot;:null}" fill="#1b0080" stroke="#0b0036" stroke-width="3" stroke-linecap="butt"/><path d="M233.7793,48.50871c-0.20588,13.49333 -11.42113,35.50842 -25.05004,34.81422c-13.62888,-0.6942 -24.51038,-23.8348 -24.30449,-37.32812c0.01759,-1.15303 49.37296,1.30378 49.3545,2.51387z" data-paper-data="{&quot;index&quot;:null}" fill="#520000" stroke="#360000" stroke-width="3" stroke-linecap="butt"/><g data-paper-data="{&quot;index&quot;:null}" stroke-width="3" stroke-linecap="butt"><path d="M233.7793,48.50871c-0.20588,13.49333 -11.42113,23.86908 -25.05004,23.17488c-13.62888,-0.6942 -24.51038,-12.19546 -24.30449,-25.68878c0.20587,-13.49333 11.42113,-23.86907 25.04999,-23.17489c13.62888,0.69421 24.5104,12.19544 24.30451,25.68876z" fill="#000000" stroke="#441f6b"/><path d="M233.78493,47.70212c0,10.5979 -5.87795,19.18919 -13.12877,19.18919c-7.25083,0 -13.12878,-8.59129 -13.12878,-19.18919c0,-10.59789 5.87795,-19.18919 13.12878,-19.18919c7.25083,0 13.12877,8.5913 13.12877,19.18919z" fill="#27104d" stroke="#1a0937"/></g><path d="M247.44209,48.18082c-0.01846,-1.21009 49.33691,-3.6669 49.3545,-2.51387c0.20589,13.49332 -10.67561,36.63393 -24.30449,37.32813c-13.62891,0.6942 -24.84416,-21.32089 -25.05004,-34.81422z" data-paper-data="{&quot;index&quot;:null}" fill="#520000" stroke="#360000" stroke-width="3" stroke-linecap="butt"/><g data-paper-data="{&quot;index&quot;:null}" stroke-width="3" stroke-linecap="butt"><path d="M247.42755,48.5087c-0.20589,-13.49332 10.67563,-24.99455 24.30451,-25.68876c13.62886,-0.69418 24.84412,9.68156 25.04999,23.17489c0.20589,13.49332 -10.67561,24.99458 -24.30449,25.68878c-13.62891,0.6942 -24.84417,-9.68155 -25.05004,-23.17488z" fill="#000000" stroke="#441f6b"/><path d="M260.55066,28.51294c7.25083,0 13.12878,8.5913 13.12878,19.18919c0,10.5979 -5.87795,19.18919 -13.12878,19.18919c-7.25083,0 -13.12878,-8.59129 -13.12878,-19.18919c0,-10.59789 5.87795,-19.18919 13.12878,-19.18919z" fill="#27104d" stroke="#1a0937"/></g><g data-paper-data="{&quot;index&quot;:null}" fill="none" stroke="#0b0036" stroke-width="3" stroke-linecap="round"><g><path d="M239.93999,88.53039c0,0 -7.56863,1.82331 -11.11319,1.36749c-3.25135,-0.41812 -9.35059,-3.99907 -9.35059,-3.99907" data-paper-data="{&quot;index&quot;:null}"/></g><g data-paper-data="{&quot;index&quot;:null}"><path d="M260.40378,85.89881c0,0 -6.09924,3.58096 -9.35059,3.99907c-3.54457,0.45582 -11.1132,-1.36749 -11.1132,-1.36749" data-paper-data="{&quot;index&quot;:null}"/></g></g><g fill="#1b0080" stroke="#0b0036" stroke-width="3.5" stroke-linecap="round"><path d="M304.34585,233.56023l-3.96617,182.07376l-12.01428,13.24477l-50.12857,-13.24477l5.67669,-164.75667" data-paper-data="{&quot;index&quot;:null}"/><path d="M236.2281,250.87733l5.73052,164.75667l-50.12858,13.24477l-12.01429,-13.24477l-3.57143,-181.82985"/></g></g></g></svg>