<svg version="1.1" xmlns="http://www.w3.org/2000/svg" xmlns:xlink="http://www.w3.org/1999/xlink" width="39.6376" height="120.62327" viewBox="0,0,39.6376,120.62327"><g transform="translate(-219.8113,-119.57513)"><g data-paper-data="{&quot;isPaintingLayer&quot;:true}" fill-rule="nonzero" stroke-linejoin="miter" stroke-miterlimit="10" stroke-dasharray="" stroke-dashoffset="0" style="mix-blend-mode: normal"><path d="M254.17437,163.33512l-2.2043,25.10878l-12.20488,-3.64712" data-paper-data="{&quot;index&quot;:null}" fill="#14005d" stroke="#000000" stroke-width="1.5" stroke-linecap="round"/><path d="M244.62656,179.7195l-15.91369,13.621l-2.63416,-30.00536" data-paper-data="{&quot;index&quot;:null}" fill="#14005d" stroke="#000000" stroke-width="1.5" stroke-linecap="round"/><g fill="#1b0080" stroke="#000000" stroke-linecap="butt"><path d="M228.18996,191.66613l3.15258,-19.33964l-4.64105,-9.04663l2.74305,-8.17673l-0.47771,-4.46137l20.19594,-1.63388l-0.00699,3.9534l4.01711,9.78882l-5.29979,9.49322l5.46135,19.35046z" data-paper-data="{&quot;noHover&quot;:false,&quot;origItem&quot;:[&quot;Path&quot;,{&quot;applyMatrix&quot;:true,&quot;segments&quot;:[[[513.67837,206.27284],[8.90432,0.98294],[-22.10525,0.02816]],[[447.36246,206.28049],[22.10527,0],[-9.54538,0]],[[418.7079,205.60812],[9.3581,1.56701],[0,0]],[441.93616,307.19409],[411.75053,389.70548],[549.66422,393.54479],[518.69207,307.19409],[[540.22009,210.58229],[0,0],[-8.86218,-1.33109]]],&quot;closed&quot;:true}],&quot;index&quot;:null}" stroke-width="3.5"/><path d="M228.18996,191.66613l3.15258,-19.33964l-4.67702,-9.06671l2.73887,-8.08286l-0.42197,-4.49448l20.18034,-1.67455l-0.00378,3.99061l4.03379,9.81038l-5.31968,9.43447l5.46134,19.35046z" data-paper-data="{&quot;noHover&quot;:false,&quot;origItem&quot;:[&quot;Path&quot;,{&quot;applyMatrix&quot;:true,&quot;segments&quot;:[[[513.67837,206.27284],[8.90432,0.98294],[-22.10525,0.02816]],[[447.36246,206.28049],[22.10527,0],[-9.54538,0]],[[418.7079,205.60812],[9.3581,1.56701],[0,0]],[441.93616,307.19409],[411.75053,389.70548],[549.66422,393.54479],[518.69207,307.19409],[[540.22009,210.58229],[0,0],[-8.86218,-1.33109]]],&quot;closed&quot;:true}],&quot;index&quot;:null}" stroke-width="0"/></g><g fill="#1b0080" stroke-linecap="butt"><path d="M222.22576,143.94446c-2.69667,-9.79563 3.05818,-19.92266 12.85381,-22.61933c9.79563,-2.69667 19.92265,3.05817 22.61933,12.85381c2.69667,9.79563 -3.05818,19.92267 -12.85381,22.61934c-9.79563,2.69667 -19.92266,-3.05819 -22.61933,-12.85382z" stroke="#000000" stroke-width="3.5"/><path d="M222.30109,143.98727c-2.69667,-9.79563 3.05819,-19.92266 12.85382,-22.61933c9.79563,-2.69667 19.92265,3.05817 22.61933,12.85381c2.69668,9.79564 -3.05818,19.92266 -12.85381,22.61933c-9.79563,2.69667 -19.92266,-3.05819 -22.61933,-12.85381z" stroke="none" stroke-width="NaN"/></g><g fill="#520000" stroke="none" stroke-linecap="butt"><path d="M222.96522,140.26188c-1.10785,-4.96079 1.25637,-10.08942 5.28064,-11.45509c4.02427,-1.36568 8.18466,1.54875 9.29253,6.50954c1.10785,4.96079 -1.25636,10.08941 -5.28064,11.45508c-4.02427,1.36568 -8.18468,-1.54875 -9.29253,-6.50953z" stroke-width="NaN"/><path d="M228.94291,139.95528c-0.32622,-1.46073 0.36994,-2.97087 1.55491,-3.37301c1.18497,-0.40212 2.41002,0.45601 2.73623,1.91676c0.32621,1.46073 -0.36995,2.97088 -1.5549,3.37301c-1.18496,0.40214 -2.41001,-0.45604 -2.73623,-1.91676z" stroke-width="0.5"/></g><g stroke="none" stroke-linecap="butt"><path d="M222.96522,138.0358c-1.10785,-4.02426 1.25637,-8.18468 5.28064,-9.29254c4.02427,-1.10786 8.18466,1.25637 9.29253,5.28064c1.10785,4.02426 -1.25636,8.18467 -5.28064,9.29252c-4.02427,1.10786 -8.18468,-1.25637 -9.29253,-5.28063z" fill="#000000" stroke-width="NaN"/><path d="M228.94291,137.78708c-0.32622,-1.18497 0.36994,-2.41001 1.55491,-2.73623c1.18497,-0.32621 2.41002,0.36993 2.73623,1.55491c0.32621,1.18497 -0.36995,2.41002 -1.5549,2.73623c-1.18496,0.32622 -2.41001,-0.36995 -2.73623,-1.55491z" fill="#650000" stroke-width="0.5"/></g><path d="M250.1669,152.12451c-0.48478,0.68 -0.9891,1.02227 -1.53154,1.14033c-1.9182,0.41747 -4.31323,-1.9686 -8.00765,-2.1373c-3.20967,-0.14655 -5.78305,1.82419 -7.92403,2.13112c-1.02024,0.14626 -1.94228,-0.08529 -2.78821,-1.10381" data-paper-data="{&quot;index&quot;:null}" fill="none" stroke="#000000" stroke-width="1.5" stroke-linecap="round"/><path d="M253.97796,189.95638l1.62809,48.96552l-10.28607,-1.31778l-2.14475,-46.92966" data-paper-data="{&quot;index&quot;:null}" fill="#1b0080" stroke="#000000" stroke-width="1.5" stroke-linecap="round"/><path d="M237.52601,191.09186l-0.44239,46.92969l-9.65439,1.31779l-0.11013,-48.96551" data-paper-data="{&quot;index&quot;:null}" fill="#1b0080" stroke="#000000" stroke-width="1.5" stroke-linecap="round"/><path d="M230.87028,192.77023v-6.48467l18.25947,-1.42153v7.96069z" fill="#1b0080" stroke="#000000" stroke-width="0" stroke-linecap="butt"/><path d="M234.80264,192.40122h10.51664" fill="none" stroke="#000000" stroke-width="1.5" stroke-linecap="round"/><g fill="#520000" stroke="none" stroke-linecap="butt"><path d="M242.59488,140.26188c-1.10785,-4.96079 1.25637,-10.08942 5.28064,-11.45509c4.02427,-1.36568 8.18466,1.54875 9.29253,6.50954c1.10785,4.96079 -1.25636,10.08941 -5.28064,11.45508c-4.02427,1.36568 -8.18468,-1.54875 -9.29253,-6.50953z" stroke-width="NaN"/><path d="M248.57257,139.95528c-0.32622,-1.46073 0.36994,-2.97087 1.55491,-3.37301c1.18497,-0.40212 2.41002,0.45601 2.73623,1.91676c0.32621,1.46073 -0.36995,2.97088 -1.5549,3.37301c-1.18496,0.40214 -2.41001,-0.45604 -2.73622,-1.91676z" stroke-width="0.5"/></g><g fill="#130056" stroke="none" stroke-width="0" stroke-linecap="butt"><path d="M249.93085,166.69066c-1.11097,3.20198 -4.78413,3.22968 -9.30336,3.22968c-4.51923,0 -8.17318,-0.0277 -7.06221,-3.22968c1.11097,-3.20198 4.78413,-3.22967 9.30336,-3.22967c4.51923,0 8.17318,0.02769 7.06221,3.22967z"/><path d="M237.29183,163.46095c4.51923,0 8.19239,0.02769 9.30336,3.22967c1.11097,3.20198 -2.54298,3.22968 -7.06221,3.22968c-4.51923,0 -8.19239,-0.0277 -9.30336,-3.22968c-1.11097,-3.20198 2.54298,-3.22967 7.06221,-3.22967z" data-paper-data="{&quot;index&quot;:null}"/></g><g stroke="none" stroke-linecap="butt"><path d="M242.25058,136.1632c-0.03178,-4.17304 3.32538,-7.58171 7.4984,-7.61349c4.17303,-0.03178 7.58172,3.32538 7.6135,7.49841c0.03178,4.17304 -3.32538,7.58172 -7.49842,7.61349c-4.17303,0.03178 -7.5817,-3.32538 -7.61348,-7.49841z" fill="#000000" stroke-width="NaN"/><path d="M245.3896,136.28927c-0.00936,-1.22878 0.97918,-2.23247 2.20794,-2.24182c1.22877,-0.00936 2.23246,0.97917 2.24183,2.20794c0.00936,1.22878 -0.97918,2.23247 -2.20794,2.24183c-1.22877,0.00936 -2.23246,-0.97918 -2.24182,-2.20795z" fill="#650000" stroke-width="0.5"/></g><path d="M245.88938,171.8777l-12.5562,-0.15454" fill="none" stroke="#000000" stroke-width="1.5" stroke-linecap="round"/></g></g></svg>