<svg version="1.1" xmlns="http://www.w3.org/2000/svg" xmlns:xlink="http://www.w3.org/1999/xlink" width="224.63432" height="28.01898" viewBox="0,0,224.63432,28.01898"><g transform="translate(-127.68284,-165.99051)"><g data-paper-data="{&quot;isPaintingLayer&quot;:true}" fill="#ff0000" fill-rule="nonzero" stroke="none" stroke-width="0.5" stroke-linecap="butt" stroke-linejoin="miter" stroke-miterlimit="10" stroke-dasharray="" stroke-dashoffset="0" style="mix-blend-mode: normal"><path d="M296.87296,174.39795c-0.70299,-0.05944 -1.35587,-0.1024 -1.93222,-0.10892c-0.28285,-0.0032 -0.56572,-0.00631 -0.8486,-0.00933c-2.4604,0.27328 -4.91809,0.52702 -7.39704,0.62312c-7.26114,0.27927 -14.51532,0.44277 -21.76929,0.53847c1.35379,0.07483 2.70755,0.15024 4.06126,0.22651c0.62062,0.00034 1.24119,0.00052 1.86173,0.00052c4.16667,0 8.33333,0 12.5,0l2.39999,0c0,0 0,0 0,0c0.24167,0 0.46732,0.06858 0.65855,0.18734c3.48951,-0.48632 6.98186,-0.94633 10.46563,-1.45772zM313.18582,169.92623c4.16615,0.06647 8.79917,-0.68751 12.72651,0.54942l0.14852,-0.44557l1.52785,0.50928c0.51078,0.15709 0.88206,0.63267 0.88206,1.19497c0,0.10052 -0.01187,0.19828 -0.03427,0.29193c4.11499,-0.67119 8.20842,-1.46457 12.27517,-2.42012c-1.64465,-0.1084 -3.19751,-0.25061 -4.4021,-0.25061c-9.10269,0 -18.20538,0 -27.30806,0c0.00014,0.00775 0.00021,0.01552 0.00021,0.0233c0,0.1682 -0.03322,0.32865 -0.09346,0.47513c1.42591,0.02519 2.85177,0.04952 4.27757,0.07227zM307.26539,172.32505c0.0693,0.01155 0.13855,0.02332 0.20775,0.03532l0.0007,-0.03156c-0.06948,-0.00125 -0.13897,-0.0025 -0.20845,-0.00376zM315.2719,173.05054c1.13725,-0.19288 2.27441,-0.38631 3.41165,-0.57921c-1.84597,-0.00345 -3.6919,-0.01601 -5.5376,-0.04542c-0.80968,-0.01291 -1.61937,-0.02632 -2.42908,-0.04012c0.29464,0.22867 0.48426,0.58623 0.48426,0.98807c0,0.18407 -0.03979,0.35885 -0.11123,0.5162c1.39857,-0.28811 2.79287,-0.56979 4.18199,-0.83952zM291.8893,181.53814c5.05906,0.02233 10.11474,0.12994 15.14714,0.4175c4.90284,0.28016 9.6741,0.13012 14.26557,1.3861l0.06314,-0.33672l2.43532,0.45662c0.03448,0.00579 0.06849,0.01299 0.10195,0.02154c1.13035,-0.09266 2.26147,-0.18749 3.39349,-0.28443c4.57106,-0.97424 9.29131,-1.73045 13.87658,-2.84024c-2.50585,-0.20411 -5.06199,-0.66176 -6.88389,-0.76054c-11.26442,-0.61072 -22.47471,-0.65057 -33.75175,-0.652c-0.049,0.23128 -0.16195,0.43894 -0.31948,0.60361c-0.01947,0.63098 -0.50655,1.1442 -1.12635,1.20476l-1.71017,0.19002c-1.83167,0.20352 -3.66158,0.40289 -5.49156,0.59377zM309.04571,184.57472c-0.71729,-0.0411 -1.43459,-0.08217 -2.15189,-0.12316c-10.76106,-0.61492 -21.6298,-0.40046 -32.40834,-0.29636c-5.3461,0.05159 -10.70179,0.03014 -16.05374,0.09834c-7.39911,0.51193 -14.80678,0.92548 -22.20101,1.09252c-0.36772,0.04494 -0.7349,0.09385 -1.10174,0.14738c2.26764,0.17302 4.52703,0.50522 6.27468,0.56794c11.31076,0.40591 22.6611,0.14154 33.97721,-0.06673c11.29282,-0.20779 22.47012,-0.6967 33.66483,-1.41993zM308.79756,187.10783c-11.09622,0.71144 -22.17876,1.18046 -33.37069,1.3864c-11.36137,0.20901 -22.75686,0.47308 -34.11286,0.06554c-4.28886,-0.15392 -8.49506,0.0437 -12.57089,-0.83118l-0.05302,0.37112l-2.45668,-0.35095c-0.61548,-0.07792 -1.09142,-0.6034 -1.09142,-1.24004c0,-0.46362 0.2524,-0.86829 0.62729,-1.0841c-1.77271,-0.00113 -3.54541,-0.00275 -5.3181,-0.00387c-7.30767,1.43275 -14.57066,3.12436 -21.79078,4.87721c-0.95884,0.23278 -1.91094,0.4734 -2.85883,0.72254c2.35948,0.11926 4.7257,0.40592 6.43721,0.41256c11.48673,0.04456 22.94959,-0.22841 34.43254,-0.51549c17.22823,-0.43071 34.50602,-0.39363 51.68307,-1.81191c5.72937,-0.47307 11.67276,-0.53859 17.34978,-1.42919c1.03135,-0.1618 2.06265,-0.35441 3.09337,-0.56865zM171.6113,183.3768c-6.50286,-0.09111 -13.00335,-0.22727 -19.50892,-0.45421c-1.28111,-0.04469 -2.55007,-0.0761 -3.80907,-0.11605c-1.71578,0.26877 -3.42623,0.55962 -5.12948,0.87534c1.81552,0.2447 3.56623,0.52633 4.96368,0.54012c7.79287,0.07688 15.65201,-0.39091 23.48379,-0.8452zM165.44577,180.76025c5.97892,0.11762 11.95817,0.19188 17.94381,0.24216c0.43791,-0.07753 0.87583,-0.15506 1.31374,-0.23259c0.78953,-0.13731 1.58025,-0.26763 2.37208,-0.39141c1.60183,-0.41072 3.21225,-0.80363 4.82826,-1.1783c-1.529,0.03009 -3.05803,0.05686 -4.58711,0.0795c-3.98167,0.21237 -7.96887,0.45311 -11.96711,0.72043c-3.28907,0.2199 -6.59469,0.46674 -9.90367,0.76021zM148.16646,180.29678c6.53953,-1.01538 13.15375,-1.71664 19.74092,-2.25469c-0.03162,-0.10993 -0.04855,-0.22607 -0.04855,-0.34617c0,-0.44077 0.22813,-0.82825 0.57276,-1.05082l0.34029,-0.22686c-3.52231,-0.25534 -7.04717,-0.51461 -10.56253,-0.84118c-6.19319,1.28019 -12.35529,2.76642 -18.43982,4.13325c0.78222,0.12144 1.59054,0.29108 2.49286,0.36929c1.94877,0.16891 3.93562,0.17768 5.90409,0.21717zM184.65687,175.08261c0.00932,0.00067 0.01865,0.00134 0.02797,0.00201c-0.00127,-0.0008 -0.00254,-0.00161 -0.00381,-0.00242c-0.00805,0.00014 -0.01611,0.00028 -0.02416,0.00041zM200.39369,176.18433c2.71194,-0.10063 5.42414,-0.18718 8.13833,-0.25909c0.10291,-0.14166 0.23483,-0.26087 0.38704,-0.34891c-2.16075,0 -4.32149,0 -6.48224,0c-4.7342,0 -9.45205,0.35366 -14.03192,-0.42395c-0.16758,0.00577 -0.33519,0.01217 -0.50282,0.01923l-0.09636,0.00404l-0.00557,0.13195c4.19806,0.29974 8.39548,0.59556 12.59354,0.87673zM156.53459,170.05583c3.62631,-0.7952 7.04752,-1.27566 10.55278,-1.56245c-4.77549,-0.01011 -9.55305,0.00611 -14.33496,0.05384c-5.15041,0.04988 -10.69129,0.20634 -15.97556,0.90516c2.58685,0.51327 5.23411,1.35897 7.13283,1.71058c3.53212,0.6541 7.09239,1.14348 10.66757,1.53686c-0.27846,-0.22926 -0.45602,-0.57664 -0.45602,-0.9655c0,-0.56872 0.3798,-1.04873 0.8996,-1.20022l1.45887,-0.46226l0.00627,0.01979zM215.72193,166.83801c13.94075,-1.16101 28.39844,-0.29367 42.19674,-0.09075c6.66847,0.09807 13.33705,0.18847 20.00534,0.29576c7.79973,-0.11876 15.60094,-0.18749 23.41036,-0.18749c10.82506,0 21.65013,0 32.47519,0c4.9065,0 9.91943,-0.40114 14.7576,0.28694v-0.28694h2.5c0.69036,0 1.25,0.55964 1.25,1.25c0,0.5776 -0.39176,1.0637 -0.92407,1.20708l-1.98121,0.58271c-11.74238,3.45008 -23.73364,5.33819 -35.85568,6.59999c6.95423,0.06799 13.90075,0.22859 20.86775,0.60632c4.22788,0.22922 8.39313,0.21315 12.47218,0.99987l0.01758,-0.28032l2.48594,0.15588c0.65823,0.03584 1.18094,0.58094 1.18094,1.24812c0,0.5623 -0.37128,1.03788 -0.88206,1.19497l-2.34436,0.78145c-6.33884,2.10751 -13.15475,3.08981 -19.69013,4.46989c-1.39913,0.12285 -2.79695,0.24206 -4.1937,0.3576l-1.34935,0.38553l-0.00271,-0.00949l-0.02711,0.01762c-5.28444,1.23244 -10.64079,2.88286 -15.9995,3.72352c-5.73834,0.90022 -11.74067,0.97277 -17.53152,1.45092c-17.22496,1.42224 -34.55009,1.38771 -51.82631,1.81961c-10.67134,0.26678 -21.32983,0.56736 -32.00474,0.52595c-5.09062,-0.01975 -10.15597,0.38345 -15.06651,-0.58528l-0.02744,0.31552l-2.47838,-0.21551c-0.64547,-0.04906 -1.15394,-0.58833 -1.15394,-1.24636c0,-0.5708 0.38259,-1.05224 0.90531,-1.20187l1.45302,-0.45266c3.22345,-1.00421 6.42852,-1.89153 9.70947,-2.68805c3.4312,-0.833 6.87198,-1.65183 10.32254,-2.43585c-3.82552,0.01369 -7.65099,0.04033 -11.47636,0.09001c-4.64971,0.06039 -9.12879,0.48584 -13.52403,-0.24995c-0.36876,0.01556 -0.73752,0.03112 -1.10628,0.04668c-8.87557,0.3745 -17.75195,0.73056 -26.62797,1.09433c-6.50313,0.26652 -13.5231,0.68034 -19.96991,-0.73417l-0.01631,0.25795l-2.48578,-0.15722c-0.65795,-0.03615 -1.18033,-0.58111 -1.18033,-1.24809c0,-0.60138 0.42469,-1.10357 0.99051,-1.22303l2.40996,-0.56246c1.14883,-0.26813 2.30223,-0.52293 3.4596,-0.76527c-0.54738,-0.10012 -1.09388,-0.21305 -1.6397,-0.34073l-0.03403,0.23818l-2.45668,-0.35095c-0.61548,-0.07792 -1.09142,-0.6034 -1.09142,-1.24004c0,-0.42818 0.21528,-0.80607 0.54351,-1.03134l1.5394,-1.08589l0.04583,0.06498l0.16521,-0.18499c4.67365,-1.11343 9.43019,-2.27772 14.22907,-3.36911c-2.24648,-0.29999 -4.48522,-0.64784 -6.71301,-1.06039c-4.14957,-0.76844 -8.28968,-1.27736 -12.24077,-2.54747l-0.05025,0.27136l-2.43651,-0.45121c-0.59238,-0.09819 -1.04408,-0.6129 -1.04408,-1.23312c0,-0.60575 0.43088,-1.11087 1.00287,-1.22557l2.2011,-0.48913c6.94617,-1.5349 14.73234,-1.82571 21.84066,-1.89868c17.53178,-0.17497 35.00534,0.07252 52.53261,0.48983c3.48719,0.08308 6.97453,0.18488 10.46185,0.30084zM225.77836,180.11963c-6.94017,0.24838 -13.90238,0.44952 -20.82914,0.89482c8.7403,-0.05365 17.48038,-0.16131 26.22089,-0.25985c0.79543,-0.03356 1.59085,-0.06712 2.38628,-0.10069c0.45841,-0.06493 0.917,-0.12841 1.37577,-0.19038c-1.75355,-0.0618 -3.50696,-0.12529 -5.2602,-0.18975c-1.2982,-0.04773 -2.59605,-0.09922 -3.8936,-0.15415zM172.19097,174.16094c0.81369,0.05968 1.62702,0.1202 2.43986,0.18237c0.00627,-0.00158 0.01254,-0.00316 0.01881,-0.00474c-0.07579,-0.04923 -0.14591,-0.10645 -0.20917,-0.17046c-0.75234,-0.00795 -1.50219,-0.00869 -2.2495,-0.00717zM225.78489,171.78229c1.00703,-0.17293 2.01675,-0.3336 3.02889,-0.48285c-0.67371,-0.02344 -1.34742,-0.04693 -2.02113,-0.07048c-8.11056,-0.05758 -16.17235,0.03661 -24.23918,0.26309c-0.88218,0.04748 -1.76422,0.09747 -2.64612,0.1502c-0.4031,0.07356 -0.8059,0.14749 -1.20843,0.22182c9.02849,-0.08109 18.05659,-0.07759 27.08599,-0.08178zM171.51346,170.72952c-3.1487,0.12905 -6.13113,0.36733 -9.16434,0.80517c1.01226,0.06721 2.03614,0.08615 3.06213,0.08771c2.03513,-0.33655 4.0702,-0.63724 6.10221,-0.89288z"/></g></g></svg>