<svg version="1.1" xmlns="http://www.w3.org/2000/svg" xmlns:xlink="http://www.w3.org/1999/xlink" width="352.7368" height="528.21561" viewBox="0,0,352.7368,528.21561"><defs><linearGradient x1="245.4099" y1="1.42816" x2="245.96526" y2="64.50569" gradientUnits="userSpaceOnUse" id="color-1"><stop offset="0" stop-color="#b62724"/><stop offset="1" stop-color="#ba2320"/></linearGradient><linearGradient x1="195.33946" y1="-40.21442" x2="196.15114" y2="51.97427" gradientUnits="userSpaceOnUse" id="color-2"><stop offset="0" stop-color="#ae2e2e"/><stop offset="1" stop-color="#ba2320"/></linearGradient><linearGradient x1="306.90596" y1="-59.26355" x2="307.38418" y2="-4.9492" gradientUnits="userSpaceOnUse" id="color-3"><stop offset="0" stop-color="#ae2e2e"/><stop offset="1" stop-color="#b82624"/></linearGradient><linearGradient x1="305.14266" y1="-23.67741" x2="305.40774" y2="6.43076" gradientUnits="userSpaceOnUse" id="color-4"><stop offset="0" stop-color="#b52927"/><stop offset="1" stop-color="#ba2320"/></linearGradient><linearGradient x1="278.50324" y1="167.4514" x2="278.50324" y2="308.25347" gradientUnits="userSpaceOnUse" id="color-5"><stop offset="0" stop-color="#6a56c2"/><stop offset="1" stop-color="#94808c"/></linearGradient><linearGradient x1="180.85467" y1="67.31618" x2="174.76883" y2="112.57973" gradientUnits="userSpaceOnUse" id="color-6"><stop offset="0" stop-color="#e6b1e5"/><stop offset="1" stop-color="#ffdfc2"/></linearGradient><radialGradient cx="175.02601" cy="82.83007" r="37.74536" gradientUnits="userSpaceOnUse" id="color-7"><stop offset="0" stop-color="#d7a7e1"/><stop offset="1" stop-color="#d7a7e1" stop-opacity="0"/></radialGradient><linearGradient x1="300.6212" y1="70.77569" x2="301.64511" y2="116.43505" gradientUnits="userSpaceOnUse" id="color-8"><stop offset="0" stop-color="#e6b1e5"/><stop offset="1" stop-color="#ffdfc2"/></linearGradient><linearGradient x1="207.16869" y1="167.4514" x2="207.16869" y2="308.25347" gradientUnits="userSpaceOnUse" id="color-9"><stop offset="0" stop-color="#6a56c2"/><stop offset="1" stop-color="#94808c"/></linearGradient><linearGradient x1="285.80238" y1="-49.48046" x2="281.19816" y2="5.40949" gradientUnits="userSpaceOnUse" id="color-10"><stop offset="0" stop-color="#ae2f2f"/><stop offset="1" stop-color="#b92523"/></linearGradient><linearGradient x1="204.30705" y1="-56.94973" x2="199.24071" y2="-16.48054" gradientUnits="userSpaceOnUse" id="color-11"><stop offset="0" stop-color="#ae2f2f"/><stop offset="1" stop-color="#b32b2b"/></linearGradient></defs><g transform="translate(-50.57896,84.05564)"><g data-paper-data="{&quot;isPaintingLayer&quot;:true}" fill-rule="nonzero" stroke-linejoin="miter" stroke-miterlimit="10" stroke-dasharray="" stroke-dashoffset="0" style="mix-blend-mode: normal"><g><path d="M307.28612,22.03562c-2.26619,15.34224 -47.79727,43.39096 -75.20418,42.56212c-26.73238,-0.80844 -45.89478,-29.79158 -46.60518,-43.8842c-0.31716,-6.2915 -1.20149,-12.65672 -2.06698,-18.73949c2.10969,0.17255 4.21934,0.34542 6.32733,0.5375c36.47211,3.32313 72.50424,6.58747 109.15658,7.02794c2.49194,0.02994 5.06142,0.03739 7.67224,0.03346c0.92645,4.36637 1.29467,8.57351 0.72021,12.46268z" fill="url(#color-1)" stroke="#000000" stroke-width="0" stroke-linecap="butt"/><path d="M289.56278,-52.29847c0,0 2.46687,7.18897 3.30073,18.04132c1.22198,15.90362 14.4226,56.29277 14.4226,56.29277c0,0 -41.87815,-31.20792 -58.02952,-31.38322c-22.38246,-0.24293 -63.77985,30.06116 -63.77985,30.06116c0,0 -2.04927,-18.04412 -3.1089,-26.26536c-1.88801,-14.64857 1.99553,-25.37613 2.2522,-32.47483c0.00463,-0.12795 0.57571,-5.09009 1.55875,-9.05645c0.76425,-3.0837 1.99653,-5.4073 1.99653,-5.4073" fill="#ae2e2e" stroke="#000000" stroke-width="0" stroke-linecap="butt"/><g stroke-linecap="round"><path d="M301.32025,30.45434c0,0 2.32882,6.37988 2.25531,9.62666c-0.07491,3.30922 -2.70061,10.0449 -2.70061,10.0449c0,0 -8.39593,0.88612 -11.30708,-0.12017c-2.64698,-0.91497 -4.30789,-3.20584 -4.30789,-3.20584" fill="#ba2221" stroke="#670808" stroke-width="3"/><g><path d="M300.22623,-9.5429c0,0 12.87182,6.86184 17.52168,17.64334c1.05072,2.43628 1.67793,5.69862 1.75703,9.17679c0.08563,3.76505 -0.47093,7.78297 -1.82777,11.2799c-2.9368,7.56895 -9.07098,12.99478 -9.94238,13.86156c-1.02396,1.01852 0.78412,-1.9587 -0.4324,-4.13157c-0.42323,-0.75597 -0.20791,-2.43534 -3.34233,-2.96016c-7.27739,-1.21852 -21.17239,-0.77846 -21.17239,-0.77846" fill="#ba2221" stroke="#000000" stroke-width="0"/><path d="M300.45518,-9.55034c0,0 12.87182,6.86184 17.52168,17.64334c1.05072,2.43628 1.67792,5.69862 1.75703,9.1768c0.08563,3.76505 -0.47094,7.78295 -1.82777,11.2799c-2.9368,7.56896 -9.07098,12.9948 -9.94237,13.86156c-1.02396,1.01852 0.78411,-1.95871 -0.4324,-4.13157c-1.40587,-2.51115 -8.43947,-4.9963 -9.53508,-3.59588" fill="none" stroke="#670808" stroke-width="3"/></g></g><g stroke-linecap="round"><path d="M229.09724,36.59331l-31.78977,15.37078c0,0 -1.57867,-3.99122 -4.1668,-5.40201c-3.44468,-1.8777 -7.34473,-2.08807 -8.62546,-2.3743c-2.25596,-0.50423 -7.71397,-5.3049 -7.71397,-5.3049c0,0 4.12189,-1.19438 5.59699,-2.67437c1.57469,-1.57993 3.5719,-6.52499 3.5719,-6.52499c0,0 -9.89744,4.0281 -13.7095,2.06462c-3.91895,-2.01856 -9.4925,-14.01526 -9.4925,-14.01526c0,0 5.89211,-1.79142 7.99847,-3.96325c2.75099,-2.83653 7.25571,-4.12008 7.09609,-11.60064c-0.08846,-4.14486 -2.69957,-6.18 -4.86727,-8.58209c-1.74454,-1.93317 -3.20191,-4.10401 -2.82603,-7.80342c0.38214,-3.76099 2.59281,-7.62412 4.96526,-10.94099c2.86085,-3.99968 3.32382,-9.68351 3.73296,-10.95774c0.74844,-2.33094 -1.01229,-2.03844 -1.01229,-2.03844l21.11159,-2.09262" fill="url(#color-2)" stroke="none" stroke-width="0"/><path d="M194.70627,49.93055c0,0 -1.44234,-3.39402 -3.39522,-4.25572c-2.05317,-0.90596 -5.64632,-1.23015 -6.7959,-1.48706c-2.25596,-0.50423 -7.71398,-5.30491 -7.71398,-5.30491c0,0 4.1219,-1.19438 5.59699,-2.67437c1.57469,-1.57993 3.5719,-6.52499 3.5719,-6.52499c0,0 -9.89744,4.0281 -13.70949,2.06462c-3.91895,-2.01856 -9.4925,-14.01526 -9.4925,-14.01526c0,0 5.89211,-1.79141 7.99847,-3.96324c2.75099,-2.83653 7.25571,-4.12008 7.0961,-11.60064c-0.08846,-4.14486 -2.69957,-6.18 -4.86727,-8.58208c-1.74454,-1.93318 -3.2019,-4.10401 -2.82601,-7.80343c0.33965,-3.34284 2.14012,-6.81992 4.21801,-9.93279c3.07897,-4.61264 2.97752,-9.66451 3.42437,-11.05622c0.74844,-2.33094 0.04353,-2.94813 0.04353,-2.94813" fill="none" stroke="#670808" stroke-width="3"/></g><g stroke-linecap="butt"><g><path d="M258.08857,56.17874c0,0 -6.60192,14.03483 -8.40227,16.57082c-3.23243,4.55326 -9.74268,9.1099 -9.74268,9.1099c0,0 -6.58947,-4.44131 -9.90157,-8.93694c-1.84471,-2.50389 -8.73456,-21.16974 -8.73456,-21.16974" data-paper-data="{&quot;index&quot;:null}" fill="#ba2221" stroke="none" stroke-width="0"/><path d="M252.71761,65.54974c0,0 -1.23095,4.66386 -3.03129,7.19984c-3.23243,4.55326 -9.74268,9.1099 -9.74268,9.1099c0,0 -6.58947,-4.44132 -9.90157,-8.93695c-1.84472,-2.5039 -3.1576,-7.14535 -3.1576,-7.14535" data-paper-data="{&quot;index&quot;:null}" fill="none" stroke="#000000" stroke-width="3"/></g><g data-paper-data="{&quot;index&quot;:null}"><path d="M228.87173,66.66544c-1.09146,0.30382 -3.29571,1.12888 -4.03207,2.96847c-0.90541,2.26197 -1.08382,5.97496 -1.08382,5.97496c0,0 -4.80444,-2.87066 -6.48078,-5.47768c-3.08411,-4.79639 -4.17414,-10.85268 -4.17414,-10.85268c0,0 -5.98625,0.51925 -6.77335,4.47911c-0.86895,4.3717 2.36437,11.63233 2.36437,11.63233c0,0 -13.50105,-6.60484 -16.12718,-13.98228c-2.70218,-7.59111 14.34034,-32.88079 14.34034,-32.88079" data-paper-data="{&quot;index&quot;:null}" fill="#ba2221" stroke="#000000" stroke-width="0"/><path d="M228.87173,66.66544c-1.09146,0.30382 -3.29571,1.12888 -4.03207,2.96847c-0.90541,2.26197 -1.08382,5.97496 -1.08382,5.97496c0,0 -4.80444,-2.87066 -6.48078,-5.47768c-3.08411,-4.79639 -4.17414,-10.85268 -4.17414,-10.85268c0,0 -5.98625,0.51925 -6.77335,4.47911c-0.86895,4.3717 2.36437,11.63233 2.36437,11.63233c0,0 -13.50105,-6.60484 -16.12718,-13.98228c-1.88127,-5.28498 -1.40464,-9.42172 -0.94141,-11.44741c0.20213,-0.88392 2.82643,-6.95353 2.82643,-6.95353" data-paper-data="{&quot;index&quot;:null}" fill="#ba2320" stroke="#670808" stroke-width="2.5"/></g><g><path d="M283.97053,28.57464c0,0 26.96731,0.38782 26.13457,0.97213c-2.38945,1.67658 -22.78282,16.0938 -22.78282,16.0938c0,0 0.99802,11.35414 -0.20591,14.93464c-2.49583,7.42253 -15.87848,14.26406 -15.87848,14.26406c0,0 3.10498,-7.31644 2.15919,-11.67214c-0.85669,-3.94537 -6.85117,-4.35914 -6.85117,-4.35914c0,0 -0.98322,6.07455 -3.98241,10.92449c-1.63018,2.63613 -6.38332,5.59094 -6.38332,5.59094c0,0 -0.24376,-3.70927 -1.18886,-5.95495c-0.76864,-1.82634 -7.06544,-3.88384 -8.16207,-4.16841" data-paper-data="{&quot;index&quot;:null}" fill="#ba2221" stroke="#000000" stroke-width="0"/><path d="M287.43039,47.75439c0,0 2.2541,5.18329 -0.31401,12.82079c-2.49583,7.42253 -15.87849,14.26407 -15.87849,14.26407c0,0 3.10499,-7.31645 2.15919,-11.67215c-0.85669,-3.94537 -6.85117,-4.35914 -6.85117,-4.35914c0,0 -0.98322,6.07455 -3.98241,10.92449c-1.63018,2.63613 -6.38333,5.59095 -6.38333,5.59095c0,0 -0.24375,-3.70927 -1.18885,-5.95495c-0.76864,-1.82634 -2.98708,-2.61244 -4.08371,-2.89701" data-paper-data="{&quot;index&quot;:null}" fill="#ba2320" stroke="#660809" stroke-width="3"/></g></g><path d="M248.15948,-75.81891c-4.60561,-1.87466 -7.92297,8.74757 -7.92297,8.74757c0,0 -0.59074,-8.80451 -2.63182,-11.55351c-2.28414,-3.07632 -5.98916,-5.26624 -9.09237,-2.9898" fill="none" stroke="#660809" stroke-width="3" stroke-linecap="round"/><path d="M187.24128,-50.39741c0,0 3.29536,-9.97666 11.90544,-16.42909c4.68433,-3.51045 13.18247,-5.34009 18.42896,-5.41803c3.50531,-0.05209 8.94065,1.53956 13.56883,3.17477c4.80626,1.6981 8.74209,3.44324 8.74209,3.44324c0,0 5.43622,-2.50309 12.72155,-4.02181c5.71505,-1.19138 12.56801,-1.77696 18.8272,-0.07324c2.5734,0.70046 5.06592,2.06953 7.35872,3.81316c2.58195,1.96351 4.91063,4.40204 6.81643,6.89567c2.09354,2.73932 3.58222,5.46536 4.6336,8.23021" fill="#ae2e2e" stroke="#000000" stroke-width="0" stroke-linecap="butt"/><path d="M285.87971,-59.07843c0,0 3.08535,3.89269 7.7269,7.92222c5.09372,4.42211 13.07753,9.13953 15.82288,10.67418c6.04464,3.37894 18.71542,5.19049 18.71542,5.19049c0,0 -7.253,17.82482 -12.96334,22.55538c-5.27122,4.36679 -22.30253,7.91469 -22.30253,7.91469" fill="url(#color-3)" stroke="#670808" stroke-width="3" stroke-linecap="round"/><g data-paper-data="{&quot;index&quot;:null}" stroke-linecap="butt"><path d="M309.34378,-23.71441c0.29489,4.97071 1.19419,11.81945 5.67771,14.27656c3.34222,1.83165 7.59313,2.12612 7.59313,2.12612c0,0 -6.18004,12.92993 -12.36729,13.65842c-5.6467,0.66484 -21.62357,-5.62419 -22.22082,-5.98018" data-paper-data="{&quot;index&quot;:null}" fill="url(#color-4)" stroke="#000000" stroke-width="0"/><path d="M312.241,-14.81155c0.5147,8.6761 10.54022,7.23507 10.54022,7.23507c0,0 -6.18008,12.92993 -12.3673,13.65842" data-paper-data="{&quot;index&quot;:null}" fill="none" stroke="#670808" stroke-width="3"/></g><g stroke-linecap="butt"><path d="M179.06325,-24.30567c-0.02178,-3.55403 -4.29512,-6.07641 -6.68239,-10.08018c-1.22654,-2.05703 -3.40694,-5.13465 -3.28764,-8.06426c0.20033,-4.91946 3.44373,-9.59604 3.44373,-9.59604c0,0 3.12919,2.97184 9.52611,2.45838c2.31394,-0.18572 7.36634,-4.36781 9.57182,-5.4556c3.35893,-1.65667 4.17551,10.91323 4.53409,11.13333" data-paper-data="{&quot;index&quot;:null}" fill="#ae2e2e" stroke="#000000" stroke-width="0"/><path d="M173.46629,-22.90927c0,0 5.87892,-7.29831 1.50987,-9.40526c-13.50846,-6.51436 -2.8282,-21.1458 -2.8282,-21.1458c0,0 12.55162,7.55985 15.32288,2.01156" data-paper-data="{&quot;index&quot;:null}" fill="none" stroke="#670808" stroke-width="3"/></g><path d="M187.27092,-50.98226c0,0 1.17845,-3.38845 3.81331,-7.3642c1.59275,-2.40329 3.71764,-5.02118 6.43615,-7.23493c2.40189,-1.95592 5.41861,-3.65634 8.6859,-4.91796c3.65593,-1.41168 7.62572,-2.27396 11.39904,-2.33003c3.50531,-0.05209 8.94063,1.53957 13.56881,3.17477c4.80626,1.6981 8.74207,3.44323 8.74207,3.44323c0,0 5.43624,-2.50308 12.72155,-4.02178c5.71504,-1.19138 12.56801,-1.77698 18.8272,-0.07326c2.5734,0.70046 5.06592,2.06953 7.35872,3.81316c2.58195,1.96351 4.91065,4.40204 6.81643,6.89567c2.09355,2.73931 8.40616,8.75726 8.40616,8.75726" fill="none" stroke="#670808" stroke-width="3" stroke-linecap="butt"/></g><g data-paper-data="{&quot;index&quot;:null}"><g data-paper-data="{&quot;index&quot;:null}" stroke-linecap="butt"><path d="M309.88563,215.41058l3.64869,76.36369l22.98216,135.59114l-66.13387,15.00218l-5.92356,-25.2978l-17.73541,-120.80729l-0.9658,-66.53042z" data-paper-data="{&quot;index&quot;:null}" fill="url(#color-5)" stroke="#000000" stroke-width="0"/><g fill="none" stroke="none" stroke-width="1" font-family="sans-serif" font-weight="normal" font-size="12" text-anchor="start"/></g><g fill="none" stroke-opacity="0.47039" stroke="#0a0a0b" stroke-width="2.5" stroke-linecap="round"><g><g><path d="M311.128,240.8762l-64.96754,63.99058"/><path d="M251.73008,313.7561l59.39792,-58.42096"/></g><g><path d="M311.128,267.84017l-39.07202,38.09506"/><path d="M262.80602,329.64412l48.32197,-47.34501"/></g></g><g data-paper-data="{&quot;index&quot;:null}"><g><path d="M311.128,304.86678l-64.96754,-63.99058"/><path d="M246.16047,255.33514l64.96753,63.99058"/></g><g><path d="M246.16047,267.84017l64.96753,63.99058"/><path d="M246.16047,282.29911l64.96753,63.99058"/></g></g><g><g><path d="M246.16046,263.44387l27.98001,-27.00306"/></g><g><path d="M246.16046,275.9489l64.96754,-63.99058"/><path d="M246.16046,290.40784l64.96754,-63.99058"/></g></g><g data-paper-data="{&quot;index&quot;:null}"><g><path d="M311.128,263.44387l-64.96754,-63.99058"/><path d="M246.16047,213.91223l64.96753,63.99058"/></g><g><path d="M246.16047,226.41726l64.96753,63.99058"/></g></g></g><path d="M309.88565,215.41059c0,0 1.80904,43.60692 2.96198,71.39833c1.03975,25.0631 -40.40203,40.57614 -40.40203,40.57614c0,0 -26.29649,-12.75593 -26.38008,-30.89361c-0.1176,-25.51842 -0.30767,-66.75937 -0.30767,-66.75937z" data-paper-data="{&quot;index&quot;:null}" fill="none" stroke="#6a4d93" stroke-width="3" stroke-linecap="butt"/><path d="M246.188,303.95968c-0.62118,-4.1965 0.61295,-7.95875 0.61295,-7.95875c0,0 3.91165,2.782 12.33682,3.22386c8.42517,0.44186 13.23442,-0.14231 21.53999,-1.56459c11.5068,-1.97048 18.71318,-4.2998 22.16621,-5.62538c3.45304,-1.32557 9.63155,-5.73258 9.63155,-5.73258l24.39081,140.9626l-65.78259,14.47776l-6.246,-23.89132c0,0 -16.29988,-98.01671 -18.64974,-113.89159z" data-paper-data="{&quot;index&quot;:null}" fill="#0a0a0b" stroke="#000000" stroke-width="0" stroke-linecap="butt"/><path d="M312.76511,284.81993l23.75137,142.54548l-66.13387,15.00218l-5.92356,-25.2978c0,0 -16.0778,-97.2663 -18.56322,-113.84111c-0.69447,-4.63128 0.15976,-8.88802 0.15976,-8.88802" data-paper-data="{&quot;index&quot;:null}" fill="none" stroke="#14141a" stroke-width="3" stroke-linecap="butt"/><path d="M312.09684,286.02516c0,0 -6.05022,4.76904 -9.43156,6.18445c-3.38132,1.41542 -10.43806,3.88902 -21.70592,5.91692c-8.1331,1.46373 -12.84249,2.04821 -21.09271,1.46202c-4.13946,-0.29412 -10.65253,-2.23709 -13.10372,-4.03291" data-paper-data="{&quot;index&quot;:null}" fill="none" stroke="#14141a" stroke-width="3" stroke-linecap="butt"/></g><g><g data-paper-data="{&quot;index&quot;:null}" stroke="#000000" stroke-width="3"><path d="M71.87031,255.59103c0,0 1.57994,-12.59794 3.19652,-18.97539c1.73435,-6.84203 6.88115,-20.78112 6.88115,-20.78112l44.52222,14.73262c0,0 -2.64011,16.78027 -4.44049,23.88281c-1.50599,5.94116 -5.63719,15.8737 -5.63719,15.8737c0,0 -4.37238,2.23019 -6.26396,2.01035c-2.19167,-0.25472 -6.11881,-3.44952 -6.11881,-3.44952c0,0 -10.42216,1.72761 -14.35539,0.44584c-3.39937,-1.10779 -7.87689,-7.69095 -7.87689,-7.69095c0,0 -4.7791,0.14996 -6.47989,-0.88837c-1.59476,-0.9736 -3.42727,-5.15995 -3.42727,-5.15995z" fill="#fedfc3" stroke-linecap="butt"/><path d="M87.28571,246.89246l-5.2432,14.03009" fill="none" stroke-linecap="round"/><path d="M107.44618,254.02775l-3.2143,14.25104" fill="none" stroke-linecap="round"/></g><g><path d="M205.3588,94.20431c-10.80553,20.12721 -80.35632,143.74617 -80.35632,143.74617l-4.16022,11.19305l-43.55868,-25.2228l4.34818,-10.5885c0,0 24.46824,-30.72223 36.98791,-51.15225c16.45466,-26.85128 53.20181,-96.02239 53.20181,-96.02239c0,0 8.25824,-10.1941 27.25353,2.10746c16.96045,10.98377 6.28379,25.93929 6.28379,25.93929z" data-paper-data="{&quot;index&quot;:null}" fill="#fedfc3" stroke="#000000" stroke-width="0" stroke-linecap="round"/><g data-paper-data="{&quot;index&quot;:null}"><g><g fill="none" stroke="none" stroke-width="1" stroke-linecap="butt" font-family="sans-serif" font-weight="normal" font-size="12" text-anchor="start"/><path d="M205.71328,94.51322l-23.22557,45.31555l-40.83527,-23.02056c0,0 25.11449,-39.94 30.09162,-49.18504c0.21596,-0.40112 4.91467,-5.14004 10.88631,-5.15549c4.7394,-0.01228 19.72444,5.55694 25.60806,13.68589c2.789,3.85334 -0.40187,13.76138 -0.40187,13.76138" data-paper-data="{&quot;index&quot;:null}" fill="#ffdfc2" stroke="#000000" stroke-width="0" stroke-linecap="round"/><path d="M205.61965,94.47054l-20.34722,39.4567l-40.54122,-21.76365l26.33264,-43.62951c0,0 8.00618,-8.67106 15.63667,-6.43774c2.33644,0.68385 17.80344,7.98985 20.59564,12.86617c5.09098,8.89096 -1.67653,19.50805 -1.67653,19.50805z" data-paper-data="{&quot;index&quot;:null}" fill="url(#color-6)" stroke="#000000" stroke-width="0" stroke-linecap="round"/><path d="M205.55259,94.4044l-20.34832,37.50077c0,0 -1.56667,0.17145 -3.31184,0.36245c-6.58218,0.72036 -52.18762,2.09959 -52.18762,2.09959l42.66165,-68.06016c0,0 7.08504,-4.28427 14.73041,-3.92408c5.47268,0.25782 11.56801,4.6212 14.01174,6.6902c1.87896,1.59083 7.26756,6.59268 7.90454,10.83129c1.09154,7.26338 -3.46055,14.49993 -3.46055,14.49993z" data-paper-data="{&quot;index&quot;:null}" fill="url(#color-7)" stroke="#000000" stroke-width="0" stroke-linecap="round"/></g><path d="M180.59173,70.5776c0.14755,-0.99906 3.46382,-1.33686 5.56347,-1.02679c2.09965,0.31007 4.82086,1.53952 4.67332,2.53858c-0.14755,0.99906 -3.10798,1.38942 -5.20762,1.07934c-2.09965,-0.31007 -5.17671,-1.59208 -5.02917,-2.59113z" fill="#3e3571" stroke="none" stroke-width="0" stroke-linecap="butt"/><path d="M205.6465,77.88034c0.83431,1.48426 1.71275,3.96921 0.24587,4.79375c-1.46688,0.82455 -1.96912,-1.87184 -2.80342,-3.35613c-0.83431,-1.48426 -2.52375,-3.71697 -0.9667,-4.5922c1.55705,-0.87524 3.52427,3.15458 3.52427,3.15458z" fill="#3e3571" stroke="none" stroke-width="0" stroke-linecap="butt"/><path d="M188.22422,66.89024c0.34111,-0.73296 1.66445,-0.83997 2.95575,-0.23901c1.29131,0.60095 2.06161,1.68231 1.72051,2.41527c-0.34111,0.73296 -1.66445,0.83997 -2.95577,0.23902c-1.29131,-0.60095 -2.06159,-1.68232 -1.72048,-2.41528z" fill="#3e3571" stroke="none" stroke-width="0" stroke-linecap="butt"/><path d="M204.09243,87.42563c-0.7067,-0.39261 -0.71886,-1.72023 -0.02714,-2.96528c0.69171,-1.24505 1.82534,-1.93609 2.53205,-1.54348c0.7067,0.39261 0.71886,1.72024 0.02715,2.96529c-0.69171,1.24505 -1.82535,1.93609 -2.53206,1.54348z" fill="#3e3571" stroke="none" stroke-width="0" stroke-linecap="butt"/><path d="M196.07735,70.99464c0.36731,-0.72017 1.69365,-0.7794 2.96245,-0.13227c1.2688,0.64713 1.9996,1.75554 1.63229,2.47573c-0.36731,0.72017 -1.69366,0.77941 -2.96246,0.13228c-1.2688,-0.64713 -1.9996,-1.75554 -1.63229,-2.47573z" fill="#3e3571" stroke="none" stroke-width="0" stroke-linecap="butt"/><path d="M186.68215,78.92104c0.14755,-0.99906 3.46383,-1.33687 5.56348,-1.02679c2.09965,0.31007 4.82086,1.53953 4.67331,2.53859c-0.14755,0.99906 -3.10798,1.38942 -5.20762,1.07934c-2.09965,-0.31007 -5.17672,-1.59208 -5.02917,-2.59113z" fill="#3e3571" stroke="none" stroke-width="0" stroke-linecap="butt"/><path d="M197.14863,75.30951c0.64946,-0.60979 2.04689,-0.17652 3.12119,0.96771c1.07431,1.14423 1.4187,2.56615 0.76923,3.17593c-0.64946,0.60979 -2.04689,0.17652 -3.1212,-0.9677c-1.07431,-1.14423 -1.41869,-2.56615 -0.76922,-3.17593z" fill="#3e3571" stroke="none" stroke-width="0" stroke-linecap="butt"/><path d="M181.78362,67.37335c-0.07387,-0.73822 0.92059,-1.44217 2.22118,-1.57232c1.3006,-0.13014 2.41482,0.36281 2.48868,1.10103c0.07387,0.73822 -0.92059,1.44218 -2.22117,1.57232c-1.3006,0.13014 -2.41481,-0.36281 -2.48868,-1.10103z" fill="#3e3571" stroke="none" stroke-width="0" stroke-linecap="butt"/><path d="M179.93281,66.04139c0.99931,1.48046 -1.5119,2.71864 -2.92316,3.67124c-1.41127,0.95262 -3.0692,3.13757 -4.01065,1.74283c-0.94144,-1.39473 0.95794,-3.222 2.3692,-4.1746c0,0 3.56529,-2.71993 4.5646,-1.23947z" data-paper-data="{&quot;index&quot;:null}" fill="#3e3571" stroke="none" stroke-width="0" stroke-linecap="butt"/></g><path d="M77.28356,223.92074c0,0 26.40112,-37.36936 41.69251,-62.32237c16.43088,-26.81247 52.84538,-95.44077 52.84538,-95.44077c0,0 8.25823,-10.1941 27.25352,2.10745c16.96045,10.98377 6.28379,25.9393 6.28379,25.9393v-0.00001c-10.80553,20.12721 -80.35631,143.74617 -80.35631,143.74617l-4.16023,11.19305" data-paper-data="{&quot;index&quot;:null}" fill="none" stroke="#a96eb5" stroke-width="3" stroke-linecap="round"/></g><path d="M124.61136,253.92545c-0.90269,1.7493 -15.31174,35.99483 -15.31174,35.99483c0,0 -22.16918,-3.26711 -33.78286,-9.25831c-10.34255,-5.33546 -23.102,-21.00942 -23.102,-21.00942c0,0 19.58794,-31.82121 20.27019,-32.88162c2.85835,-4.44273 26.24922,-34.29887 45.77095,-66.58031c22.53291,-37.26079 41.37564,-77.26816 41.37564,-77.26816c0,0 13.3851,5.05731 20.41965,7.71517c7.52215,2.8421 24.18701,6.81608 24.18701,6.81608c0,0 -23.44953,56.06285 -36.99249,82.60895c-13.0475,25.57494 -42.83433,73.8628 -42.83433,73.8628z" data-paper-data="{&quot;index&quot;:null}" fill="#1e1e1f" stroke="#0a0a0b" stroke-width="3" stroke-linecap="round"/><g stroke="#0a0a0b" stroke-width="3"><path d="M157.06235,83.46204c0,0 -0.62609,-1.85762 -0.19052,-2.89956c0.43558,-1.04194 2.23243,-1.98493 2.23243,-1.98493c0,0 15.80482,7.59753 23.83486,10.44449c7.72802,2.73987 23.47405,6.32834 23.47405,6.32834c0,0 0.79683,2.36424 0.24247,3.69034c-0.55436,1.3261 -2.28438,1.19415 -2.28438,1.19415c0,0 -16.42263,-2.06068 -24.54407,-4.94005c-7.61563,-2.70003 -22.76484,-11.83279 -22.76484,-11.83279z" fill="#1e1e1f" stroke-linecap="butt"/><path d="M162.75372,86.31908c0,0 -0.08504,-1.93177 0.10281,-2.38112c0.28536,-0.6826 1.83808,-2.26171 1.83808,-2.26171" fill="none" stroke-linecap="round"/><path d="M179.91947,94.9759c0,0 0.08397,-2.65165 0.29462,-3.65591c0.16123,-0.76868 0.86114,-1.85406 0.86114,-1.85406" fill="none" stroke-linecap="round"/><path d="M197.62293,93.19571c0,0 0.47239,1.87264 0.24108,2.72073c-0.24641,0.9035 -1.67712,2.54456 -1.67712,2.54456" fill="none" stroke-linecap="round"/></g></g><g stroke="#000000"><path d="M272.99509,95.01328c0,0 -5.54717,-11.30269 0.49927,-19.57359c3.31622,-4.53624 19.49862,-10.08022 21.89653,-10.50049c7.83125,-1.37253 14.82545,8.13366 14.82545,8.13366l18.3171,46.61078l-39.69664,16.80109z" data-paper-data="{&quot;index&quot;:null}" fill="url(#color-8)" stroke-width="0" stroke-linecap="round"/><g stroke-width="3"><path d="M387.1642,272.02232c-1.73593,0.97848 -6.5069,0.66217 -6.5069,0.66217c0,0 -4.70407,6.42322 -8.13995,7.41197c-3.97549,1.14402 -14.33116,-0.94551 -14.33116,-0.94551c0,0 -4.03602,3.0561 -6.23523,3.23434c-1.89808,0.15384 -6.19016,-2.22728 -6.19016,-2.22728c0,0 -3.78277,-10.07039 -5.08094,-16.0604c-1.55194,-7.16094 -3.60606,-24.02297 -3.60606,-24.02297l45.00829,-13.17314c0,0 4.65823,14.10988 6.15326,21.00815c1.3935,6.42988 2.53374,19.07521 2.53374,19.07521c0,0 -1.97719,4.12 -3.60489,5.03746z" fill="#fedfc3" stroke-linecap="butt"/><path d="M375.66598,257.75471l4.75141,14.20418" fill="none" stroke-linecap="round"/><path d="M355.26925,264.18356l2.71603,14.35434" fill="none" stroke-linecap="round"/></g><path d="M272.59245,94.73771c0,0 -8.95059,-16.04824 9.12428,-25.08148c20.2434,-10.11702 27.31903,0.93077 27.31903,0.93077c0,0 17.05422,47.68338 28.66991,72.44961c12.71641,27.11312 44.62577,83.82676 44.62577,83.82676l3.14596,11.00573l-46.08927,20.23182l-2.89207,-11.58566c0,0 -55.39902,-130.5753 -63.90361,-151.77755z" data-paper-data="{&quot;index&quot;:null}" fill="#fedfc3" stroke-width="0" stroke-linecap="round"/><path d="M339.38814,258.10094l-2.89207,-11.58566c0,0 -55.39902,-130.5753 -63.90361,-151.77755v0.00001c0,0 -8.95059,-16.04823 9.12428,-25.08148c20.2434,-10.11702 27.31903,0.93076 27.31903,0.93076c0,0 16.51494,47.79151 28.12563,72.54709c12.71986,27.12048 45.17005,83.72929 45.17005,83.72929l3.14596,11.00573" data-paper-data="{&quot;index&quot;:null}" fill="none" stroke-width="3" stroke-linecap="round"/></g><path d="M272.51653,94.47832c0,0 -8.95059,-16.04823 9.12428,-25.08148c20.2434,-10.11702 27.31903,0.93077 27.31903,0.93077c0,0 11.54386,34.93379 29.25867,70.64643c18.925,38.15236 44.17913,77.4025 46.79123,82.66843c0.56032,1.1296 16.49498,34.92847 16.49498,34.92847c0,0 -14.42044,14.16077 -25.29132,18.31521c-12.20695,4.66503 -34.60178,5.45112 -34.60178,5.45112c0,0 -10.51867,-35.63331 -11.22161,-37.472c-3.97402,-10.39492 -23.26023,-46.13922 -36.76117,-81.2939c-11.56002,-30.1008 -17.53065,-60.16384 -21.11231,-69.09306z" data-paper-data="{&quot;index&quot;:null}" fill="#1e1e1f" stroke="#0a0a0b" stroke-width="3" stroke-linecap="round"/><g><g data-paper-data="{&quot;index&quot;:null}" stroke-linecap="butt"><path d="M239.91408,229.73208l-0.9658,66.53042l-17.73541,120.80729l-5.92356,25.2978l-66.13387,-15.00218l22.98216,-135.59114l3.64869,-76.36369z" data-paper-data="{&quot;index&quot;:null}" fill="url(#color-9)" stroke="#000000" stroke-width="0"/><g fill="none" stroke="none" stroke-width="1" font-family="sans-serif" font-weight="normal" font-size="12" text-anchor="start"/></g><g fill="none" stroke-opacity="0.47039" stroke="#0a0a0b" stroke-width="2.5" stroke-linecap="round"><g><g><path d="M239.51147,304.86678l-64.96754,-63.99058"/><path d="M174.54393,255.33514l60.47387,59.49691"/></g><g><path d="M174.54393,267.84017l39.07202,38.09506"/><path d="M174.54393,282.29911l48.1321,47.15514"/></g></g><g data-paper-data="{&quot;index&quot;:null}"><g><path d="M239.51147,240.8762l-64.96754,63.99058"/><path d="M239.51146,255.33514l-64.96753,63.99058"/></g><g><path d="M174.54393,331.83075l64.96753,-63.99058"/><path d="M174.54393,346.28969l64.96753,-63.99058"/></g></g><g><g><path d="M239.51146,263.44387l-27.98001,-27.00306"/></g><g><path d="M239.51147,275.9489l-64.96754,-63.99058"/><path d="M174.54393,226.41726l64.96754,63.99058"/></g></g><g data-paper-data="{&quot;index&quot;:null}"><g><path d="M174.54393,263.44387l64.96754,-63.99058"/><path d="M174.54393,277.90281l64.96753,-63.99058"/></g><g><path d="M174.54393,290.40784l64.96753,-63.99058"/></g></g></g><path d="M239.91408,229.73208c0,0 -0.19007,41.24095 -0.30767,66.75937c-0.08359,18.13768 -26.38008,30.89361 -26.38008,30.89361c0,0 -41.44178,-15.51304 -40.40203,-40.57614c1.15294,-27.79141 2.96198,-71.39833 2.96198,-71.39833z" data-paper-data="{&quot;index&quot;:null}" fill="none" stroke="#6a4d93" stroke-width="3" stroke-linecap="butt"/><path d="M220.83419,417.85127l-6.246,23.89132l-65.78259,-14.47776l24.39081,-140.9626c0,0 6.17851,4.40701 9.63155,5.73258c3.45303,1.32558 10.65941,3.6549 22.16621,5.62538c8.30557,1.42228 13.11482,2.00645 21.53999,1.56459c8.42517,-0.44186 12.33682,-3.22386 12.33682,-3.22386c0,0 1.23414,3.76226 0.61296,7.95876c-2.34986,15.87488 -18.64974,113.89159 -18.64974,113.89159z" data-paper-data="{&quot;index&quot;:null}" fill="#0a0a0b" stroke="#000000" stroke-width="0" stroke-linecap="butt"/><path d="M239.61633,294.34066c0,0 0.85423,4.25673 0.15976,8.88802c-2.48542,16.57482 -18.56322,113.84111 -18.56322,113.84111l-5.92356,25.2978l-66.13387,-15.00218l23.75137,-142.54548" data-paper-data="{&quot;index&quot;:null}" fill="none" stroke="#14141a" stroke-width="3" stroke-linecap="butt"/><path d="M238.909,295.55564c-2.45119,1.79582 -8.96426,3.73879 -13.10372,4.03291c-8.25022,0.58619 -12.95961,0.00171 -21.09271,-1.46202c-11.26786,-2.0279 -18.3246,-4.5015 -21.70592,-5.91692c-3.38134,-1.41541 -9.43156,-6.18445 -9.43156,-6.18445" data-paper-data="{&quot;index&quot;:null}" fill="none" stroke="#14141a" stroke-width="3" stroke-linecap="butt"/></g><g stroke-linecap="round"><path d="M217.33879,52.30703c3.54583,-0.54357 5.96062,-0.91274 5.96062,-0.91274l-0.30497,-24.07863h34.91904l-0.30497,24.07863c0,0 2.67463,0.41971 6.56422,1.03008" data-paper-data="{&quot;index&quot;:null}" fill="#ffdfc2" stroke="#000000" stroke-width="0"/><path d="M223.2994,51.39428l-0.30497,-24.07863h34.91904l-0.30497,24.07863" data-paper-data="{&quot;index&quot;:null}" fill="none" stroke="#d5a880" stroke-width="3"/><path d="M257.51858,50.85007c0,0 15.42897,4.06208 21.32939,6.64998c4.71175,2.06655 10.93146,8.82205 10.93146,8.82205c0,0 0.91766,2.28838 -0.77454,2.69232c-8.47217,2.02237 -36.62344,8.41198 -51.12266,8.44007c-13.22962,0.02563 -42.88837,-9.68572 -42.88837,-9.68572l1.86739,-3.2187c0,0 3.05937,-5.09101 7.50421,-7.15326c5.16015,-2.39411 19.51678,-6.36492 19.51678,-6.36492" fill="#fedfc3" stroke="#d5a880" stroke-width="3"/></g><path d="M189.07354,-48.39317c7.96189,-6.17958 26.93305,-6.14715 49.25847,-7.65046c33.17158,-2.23365 44.81017,10.36952 44.81017,10.36952c0,0 -86.08851,1.09435 -95.7379,1.21701z" fill="#ae2e2e" stroke="#000000" stroke-width="0" stroke-linecap="round"/><path d="M289.674,66.25145c0,0 5.57904,8.43356 8.00853,12.82533c2.34469,4.23847 6.32308,13.0817 6.32308,13.0817c0,0 -3.27893,9.6133 -5.58301,13.97633c-2.41061,4.56476 -8.57549,12.83443 -8.57549,12.83443h-94.21617c0,0 -6.2687,-7.61521 -8.64392,-12.11297c-2.34386,-4.43837 -5.51457,-14.69779 -5.51457,-14.69779c0,0 4.20327,-9.24976 6.59472,-13.57276c2.38574,-4.31266 7.73688,-12.33427 7.73688,-12.33427" data-paper-data="{&quot;index&quot;:null}" fill="#fedfc3" stroke="#d5a880" stroke-width="3" stroke-linecap="round"/><path d="M186.74748,-9.48684c-0.41726,-29.38185 23.06321,-36.62332 52.44507,-37.04057c29.38185,-0.41726 53.53883,6.14771 53.95607,35.52956c0.41726,29.38185 -23.06319,53.53883 -52.44507,53.95607c-29.38185,0.41726 -53.53883,-23.06321 -53.95607,-52.44505z" fill="#ffdfc2" stroke="#d5a880" stroke-width="3" stroke-linecap="butt"/><path d="M261.65056,65.92439l17.69107,-7.23189c0,0 3.84043,0.52217 5.75146,1.85903c2.18671,1.5297 6.65353,6.81883 6.65353,6.81883" fill="#1e1e1f" stroke="#0a0a0b" stroke-width="3" stroke-linecap="round"/><path d="M203.56198,72.91319l1.55993,-2.48417c0,0 -0.96927,-5.04348 -0.91631,-7.53356c0.05208,-2.44857 1.23146,-7.2845 1.23146,-7.2845c0,0 1.2844,-3.79581 3.88349,-4.17476c2.59909,-0.37895 6.16037,2.71037 6.16037,2.71037c0,0 -1.34567,5.84934 -1.46664,8.47865c-0.10522,2.28681 0.78145,6.41359 0.78145,6.41359l2.73027,1.8846" fill="#000000" stroke="#0a0a0b" stroke-width="3" stroke-linecap="round"/><g fill="#010100" stroke="#0a0a0b" stroke-width="3" stroke-linecap="butt"><path d="M240.26224,86.14998c0.27285,1.20787 -55.43576,6.71628 -55.43576,6.71628l-1.18034,-6.71628c0,0 12.19289,-14.94011 28.86269,-16.74118c16.4356,-1.77577 25.36165,6.15314 27.75341,16.74118z"/><path d="M262.58502,69.4088c16.66979,1.80107 28.86268,16.74118 28.86268,16.74118l-1.18034,6.71628c0,0 -55.70861,-5.50841 -55.43576,-6.71628c2.39176,-10.58804 11.31781,-18.51695 27.75341,-16.74118z" data-paper-data="{&quot;index&quot;:null}"/></g><g stroke="#0a0a0b" stroke-width="3"><path d="M186.68467,86.14521c0,0 7.91123,-0.65056 16.72048,-2.09107c11.79199,-1.92826 25.48104,-4.84008 26.7174,-5.36232c4.2618,-1.8002 12.68487,-3.59164 20.77464,-6.98065c14.11307,-5.91232 28.69789,-13.71444 29.06783,-13.58007c1.67354,0.60789 4.99912,2.1075 8.13652,5.24618c5.12599,5.12809 10.05777,13.76881 11.40451,16.20329c2.42298,4.37999 6.53419,13.51847 6.53419,13.51847c0,0 -3.3884,9.93427 -5.76941,14.44297c-2.49109,4.71716 -8.86181,13.26295 -8.86181,13.26295c0,0 15.3673,56.87438 20.39845,93.92704c1.88468,13.88008 -0.4209,25.38526 -0.4209,25.38526c0,0 -50.54546,10.32674 -83.23015,13.84622c-32.6847,3.51948 -53.43555,-14.12615 -53.43555,-14.12615c0,0 -2.07297,-15.41304 -0.61952,-25.10533c1.45345,-9.69229 19.94584,-93.92703 19.94584,-93.92703c0,0 -6.47799,-7.86947 -8.93252,-12.5174c-2.42211,-4.58656 -5.69869,-15.18852 -5.69869,-15.18852c0,0 2.52543,-2.83131 4.99672,-7.29865" data-paper-data="{&quot;index&quot;:null}" fill="#1e1e1f" stroke-linecap="round"/><g><path d="M182.61823,88.1292c0,0 -0.68697,-1.4724 -0.22129,-2.60173c0.46568,-1.12932 2.40434,-2.6924 2.40434,-2.6924c0,0 31.78169,-0.92626 46.36504,-5.71487c14.7466,-4.84221 41.63025,-23.17935 41.63025,-23.17935c0,0 5.45166,1.35515 6.36385,2.15502c0.94407,0.82782 1.65719,2.73093 1.65719,2.73093c0,0 -31.61159,19.24684 -48.03901,24.14873c-16.30479,4.8653 -50.16037,5.15367 -50.16037,5.15367z" fill="#1e1e1f" stroke-linecap="butt"/><path d="M195.88999,87.27833c0,0 -0.82353,-1.7495 -0.82353,-2.23653c0,-0.73985 0.82353,-2.79565 0.82353,-2.79565" fill="none" stroke-linecap="round"/><path d="M266.63942,59.60981c0,0 1.863,2.0558 2.2371,2.79566c0.24626,0.48703 0.30733,2.23653 0.30733,2.23653" data-paper-data="{&quot;index&quot;:null}" fill="none" stroke-linecap="round"/><path d="M220.43854,84.89611c0,0 -1.27578,-1.45305 -1.41064,-1.92103c-0.20487,-0.71093 0.01719,-2.91438 0.01719,-2.91438" fill="none" stroke-linecap="round"/><path d="M244.41279,72.13615c0,0 1.27578,1.45305 1.41064,1.92104c0.20487,0.71093 -0.01719,2.91438 -0.01719,2.91438" data-paper-data="{&quot;index&quot;:null}" fill="none" stroke-linecap="round"/></g><path d="M299.54463,93.635c0,0 -38.67654,1.22449 -57.7551,1.22449c-18.73845,0 -55.71429,-1.22449 -55.71429,-1.22449" fill="none" stroke-linecap="round"/></g><path d="M249.51351,26.62745c0.08069,0.47442 0.12262,0.9611 0.12262,1.45707c0,5.02274 -4.30053,9.09449 -9.60551,9.09449c-5.30498,0 -9.60551,-4.07174 -9.60551,-9.09449c0,-0.66264 6.41492,-4.90631 10.24284,-3.24689" fill="#850a0a" stroke="#000000" stroke-width="0" stroke-linecap="butt"/><path d="M241.19904,35.45185c-0.00051,0.00493 -0.00105,0.00986 -0.00162,0.01479" fill="none" stroke="#cf8181" stroke-width="1" stroke-linecap="butt"/><g fill="#de9696" stroke="none" stroke-width="0" stroke-linecap="butt"><path d="M241.1643,35.63212c-0.30636,1.07261 -2.28232,1.5764 -4.41343,1.12523c-2.13111,-0.45117 -3.61036,-1.68643 -3.304,-2.75905c0.30636,-1.07261 2.28232,-1.5764 4.41343,-1.12524c2.13111,0.45117 3.61036,1.68644 3.304,2.75905z"/><path d="M241.76379,32.87307c2.13111,-0.45117 4.10707,0.05262 4.41343,1.12524c0.30636,1.07261 -1.17288,2.30788 -3.30399,2.75905c-2.13111,0.45117 -4.10707,-0.05262 -4.41343,-1.12523c-0.30636,-1.07261 1.17288,-2.30788 3.30399,-2.75905z" data-paper-data="{&quot;index&quot;:null}"/></g><path d="M249.51351,26.62745c0.08069,0.47442 0.12262,0.9611 0.12262,1.45707c0,5.02274 -4.30053,9.09449 -9.60551,9.09449c-5.30498,0 -9.60551,-4.07174 -9.60551,-9.09449c0,-0.66264 0.07485,-1.30873 0.21698,-1.9311" fill="none" stroke="#d5a880" stroke-width="3" stroke-linecap="butt"/><path d="M254.9094,24.53834c-2.56723,0.71557 -6.37499,2.1152 -6.37499,2.1152c0,0 -4.99014,-2.46575 -9.29164,-2.13737c-4.3015,0.3284 -7.96168,1.77734 -7.96168,1.77734l-6.68188,-1.85136" data-paper-data="{&quot;index&quot;:null}" fill="none" stroke="#d4a980" stroke-width="3" stroke-linecap="round"/><g stroke-linecap="round"><path d="M181.7379,5.17033l3.80806,-6.12481c0,0 6.884,4.25843 9.2429,9.17506c2.23546,4.65935 5.41705,13.91331 5.41705,13.91331c0,0 5.58185,3.2296 8.79092,4.69221c3.53293,1.61021 11.52864,4.5689 11.52864,4.5689c0,0 -4.52329,9.27649 -7.42417,11.10013c-1.77403,1.11524 -8.72749,0.04124 -8.72749,0.04124" fill="#b62724" stroke="#000000" stroke-width="0"/><path d="M185.93247,-1.01147c0,0 6.89212,4.15243 9.22063,9.00397c2.17451,4.53071 5.09164,13.94947 5.09164,13.94947c0,0 5.07085,3.8904 8.06032,5.2983c3.60358,1.69711 12.06504,4.17977 12.06504,4.17977c0,0 -3.99399,9.14604 -6.00469,10.38304c-1.94734,1.198 -7.5996,0.38218 -7.5996,0.38218" fill="none" stroke="#670808" stroke-width="3"/></g><g stroke-linecap="round"><path d="M307.28313,3.86493c0,0 -7.64038,3.84114 -10.1881,3.18411c-3.68133,-0.94939 -5.73101,-6.70783 -6.08841,-8.59268c-0.87355,-4.60684 -0.02754,-16.93245 -0.02754,-16.93245c0,0 -9.66671,-3.80854 -12.69502,-6.40403c-3.10888,-2.66455 -16.16047,-19.03839 -15.51654,-23.65775c0.87094,-6.24788 24.47663,0.81581 24.47663,0.81581" fill="url(#color-10)" stroke="#000000" stroke-width="0"/><path d="M262.36475,-46.1417c4.01795,6.44881 10.98811,17.03518 15.9193,21.26158c3.02833,2.59549 12.69502,6.40404 12.69502,6.40404c0,0 -0.84599,12.32561 0.02755,16.93245c0.60476,3.1893 4.71065,8.05531 4.71065,8.05531" fill="none" stroke="#670808" stroke-width="3"/></g><g stroke-linecap="round"><path d="M225.55263,-62.86735c-0.85537,5.11818 2.68091,18.03074 -1.3259,22.42539c-4.6312,5.07949 -10.26941,9.3126 -14.37625,11.86007c-3.8216,2.37053 -21.56246,9.86347 -27.48474,9.69004c-5.18163,-0.15175 1.66259,-7.61015 -4.64965,-10.46175" fill="url(#color-11)" stroke="#000000" stroke-width="0"/><path d="M229.30112,-46.61609c0,0 -11.79064,13.28274 -19.45064,18.03422c-7.16528,4.4446 -25.12436,9.61554 -25.12436,9.61554" fill="none" stroke="#670808" stroke-width="3"/></g><g stroke-linecap="round"><path d="M276.86292,-50.78435c1.6817,4.87573 -12.3793,20.82549 -12.3793,20.82549c0,0 4.01699,7.09026 1.90555,10.09017c-8.17123,11.60961 -32.01285,11.98262 -32.01285,11.98262c0,0 7.82603,-9.44279 6.38742,-12.98188c-0.98926,-2.43363 -10.69379,-1.73525 -14.53511,-5.00036c-4.93214,-4.1923 -6.83553,-24.70605 -6.83553,-24.70605" fill="#ae2f2f" stroke="#000000" stroke-width="0"/><path d="M274.03761,-44.52068c1.6817,4.87573 -9.55398,14.56185 -9.55398,14.56185c0,0 4.01698,7.09026 1.90554,10.09017c-8.17123,11.60961 -32.01285,11.98262 -32.01285,11.98262c0,0 7.82603,-9.44279 6.38742,-12.98188c-0.98926,-2.43363 -10.69379,-1.73525 -14.53512,-5.00036c-4.93215,-4.1923 -4.09623,-12.13859 -4.09623,-12.13859" fill="none" stroke="#670808" stroke-width="3"/></g><g fill="none" stroke="none" stroke-width="1" stroke-linecap="butt" font-family="sans-serif" font-weight="normal" font-size="12" text-anchor="start"><g/><g/></g><g fill="none" stroke="none" stroke-width="1" stroke-linecap="butt" font-family="sans-serif" font-weight="normal" font-size="12" text-anchor="start"><g/><g/></g><path d="M185.48337,7.70584c-4.31603,-6.3707 2.88347,-13.08445 12.72188,-13.91718c2.69531,-0.22813 24.10566,4.34986 24.10566,4.34986c0,0 -22.98408,-4.82149 -25.24791,-6.01847c-7.29235,-3.85577 -11.52239,-11.59719 -6.00599,-15.94636c13.06062,-10.29707 38.05919,16.59949 38.05919,16.59949c0,0 4.84872,4.13672 4.90393,7.84798c0.05519,3.71126 -4.66959,7.90825 -4.66959,7.90825c0,0 -34.89556,12.41907 -43.86715,-0.82355z" data-paper-data="{&quot;index&quot;:null}" fill="#26134d" stroke="#100131" stroke-width="3" stroke-linecap="round"/><path d="M294.55801,7.70587c-8.97159,13.24262 -43.86714,0.82355 -43.86714,0.82355c0,0 -4.7248,-4.19698 -4.6696,-7.90825c0.0552,-3.71126 4.90392,-7.84798 4.90392,-7.84798c0,0 24.99858,-26.89657 38.05919,-16.59949c5.5164,4.34917 1.28635,12.09058 -6.00598,15.94636c-2.26383,1.19698 -25.24792,6.01847 -25.24792,6.01847c0,0 21.41035,-4.578 24.10566,-4.34986c9.83841,0.83273 17.03791,7.54649 12.72188,13.91718z" data-paper-data="{&quot;index&quot;:null}" fill="#26134d" stroke="#100131" stroke-width="3" stroke-linecap="round"/></g></g></svg>