<svg version="1.1" xmlns="http://www.w3.org/2000/svg" xmlns:xlink="http://www.w3.org/1999/xlink" width="219.76265" height="528.56399" viewBox="0,0,219.76265,528.56399"><defs><linearGradient x1="243.2931" y1="-72.44592" x2="243.2931" y2="81.24888" gradientUnits="userSpaceOnUse" id="color-1"><stop offset="0" stop-color="#ae2e2e"/><stop offset="1" stop-color="#8e1a1a"/></linearGradient><linearGradient x1="176.0846" y1="67.38547" x2="187.92759" y2="111.49408" gradientUnits="userSpaceOnUse" id="color-2"><stop offset="0" stop-color="#e6b1e5"/><stop offset="1" stop-color="#ffdfc2"/></linearGradient><radialGradient cx="176.69057" cy="83.94708" r="37.74536" gradientUnits="userSpaceOnUse" id="color-3"><stop offset="0" stop-color="#d7a7e1"/><stop offset="1" stop-color="#d7a7e1" stop-opacity="0"/></radialGradient><linearGradient x1="304.16391" y1="67.38547" x2="292.32094" y2="111.49408" gradientUnits="userSpaceOnUse" id="color-4"><stop offset="0" stop-color="#e6b1e5"/><stop offset="1" stop-color="#ffdfc2"/></linearGradient><linearGradient x1="278.71571" y1="167.71962" x2="278.71571" y2="308.52169" gradientUnits="userSpaceOnUse" id="color-5"><stop offset="0" stop-color="#6a56c2"/><stop offset="1" stop-color="#94808c"/></linearGradient><linearGradient x1="207.16869" y1="167.71962" x2="207.16869" y2="308.52169" gradientUnits="userSpaceOnUse" id="color-6"><stop offset="0" stop-color="#6a56c2"/><stop offset="1" stop-color="#94808c"/></linearGradient><linearGradient x1="202.26266" y1="4.46103" x2="202.26266" y2="47.94807" gradientUnits="userSpaceOnUse" id="color-7"><stop offset="0" stop-color="#9f2425"/><stop offset="1" stop-color="#941e1f"/></linearGradient><linearGradient x1="278.38624" y1="-53.34288" x2="278.38624" y2="1.78758" gradientUnits="userSpaceOnUse" id="color-8"><stop offset="0" stop-color="#a92b2b"/><stop offset="1" stop-color="#9f2525"/></linearGradient><linearGradient x1="193.14765" y1="-52.85674" x2="193.14765" y2="-12.21023" gradientUnits="userSpaceOnUse" id="color-9"><stop offset="0" stop-color="#a92b2b"/><stop offset="1" stop-color="#a02726"/></linearGradient><linearGradient x1="231.43357" y1="-56.75672" x2="231.43357" y2="-10.08131" gradientUnits="userSpaceOnUse" id="color-10"><stop offset="0" stop-color="#a92b2b"/><stop offset="1" stop-color="#a02726"/></linearGradient></defs><g transform="translate(-130.11869,84.1358)"><g data-paper-data="{&quot;isPaintingLayer&quot;:true}" fill-rule="nonzero" stroke-linejoin="miter" stroke-miterlimit="10" stroke-dasharray="" stroke-dashoffset="0" style="mix-blend-mode: normal"><g><path d="M236.48944,81.24888c0,0 -5.20002,-4.61518 -7.30689,-7.17828c-2.04214,-2.48435 -5.14622,-7.97145 -5.14622,-7.97145c0,0 -1.71458,1.72244 -2.35986,3.22821c-0.61704,1.43989 -1.4309,5.61757 -1.4309,5.61757c0,0 -5.01277,-3.35522 -7.01508,-6.489c-2.17579,-3.40529 -2.58152,-7.15895 -3.47926,-9.9592c-0.20981,-0.65444 -5.04726,1.88916 -6.27445,5.48288c-1.46821,4.29952 0.65506,9.85328 0.65506,9.85328c0,0 -14.45472,-8.59312 -15.45725,-13.17092c-1.04095,-4.75325 1.30197,-15.18005 1.30197,-15.18005c0,0 -7.23865,-1.06838 -9.94458,-2.12625c-1.86606,-0.72953 -4.7294,-5.31047 -4.7294,-5.31047c0,0 3.41352,-1.461 4.58682,-2.71223c1.10699,-1.18052 2.2656,-4.59534 2.2656,-4.59534c0,0 -9.00128,2.45307 -12.04985,0.60571c-3.83954,-2.32665 -9.16674,-13.46238 -9.16674,-13.46238c0,0 10.11619,-3.40418 13.43839,-11.28907c0.89321,-2.11995 1.64899,-5.39176 0.50643,-7.57108c-2.37571,-4.53142 -8.48489,-8.17423 -7.26223,-13.8055c1.22887,-5.6599 7.56269,-16.88071 7.56269,-16.88071c0,0 -10.44804,-7.33891 -8.47447,-10.37646c0.25541,-0.39311 -0.1508,-3.38505 0.55829,-5.99276c0.76971,-2.83066 2.64785,-5.27716 2.64785,-5.27716c0,0 15.57329,5.20719 15.44422,4.47031c-1.38901,-7.92972 10.31767,-17.2335 11.83336,-18.34866c4.71505,-3.46907 13.22897,-5.22382 18.47594,-5.25557c3.50564,-0.02122 8.92675,1.61822 13.54035,3.29411c4.79113,1.74035 8.71143,3.52007 8.71143,3.52007c0,0 5.45804,-2.45513 12.75647,-3.90964c5.72532,-1.14101 12.58316,-1.66624 18.82711,0.09252c2.56714,0.72308 5.0475,2.11405 7.32486,3.8778c2.56457,1.98616 4.87168,4.4451 6.75546,6.95542c0.22755,0.30324 9.84564,11.63926 20.14045,17.60498c10.61987,6.15409 21.92284,6.9388 21.92284,6.9388c0,0 -2.43599,8.62495 -10.47325,18.79441c-1.13288,1.43342 -2.32568,2.93177 -3.57057,4.48636c-2.10937,2.63412 7.92787,5.65694 7.92787,5.65694l-5.55758,9.20309c0,0 3.40239,13.47456 1.76604,19.95699c-2.78422,11.02966 -9.83439,18.91877 -9.83439,18.91877c0,0 -0.81786,-3.21207 -1.91306,-4.90666c-1.40243,-2.16996 -5.81007,-7.04321 -5.81007,-7.04321c0,0 1.899,6.29332 1.84458,9.65837c-0.0448,2.77095 -2.14786,9.09802 -2.14786,9.09802l-11.80599,1.84006c0,0 -0.47569,6.63485 -1.87725,8.94979c-5.69599,9.40801 -16.08195,15.21246 -16.08195,15.21246c0,0 3.81913,-8.99691 2.97583,-11.86766c-0.80277,-2.73277 -7.92005,-4.96329 -7.92005,-4.96329c0,0 -2.67648,8.48369 -3.61299,9.62319c-3.19575,3.88843 -6.25112,6.21898 -6.25112,6.21898c0,0 -1.0954,-2.42368 -1.67087,-3.63045c-0.61503,-1.28974 -1.90851,-3.87564 -1.90851,-3.87564c0,0 -3.26372,6.14188 -5.26404,8.1609c-3.72182,3.75662 -7.76976,5.29391 -7.66324,5.58163" fill="url(#color-1)" stroke="#000000" stroke-width="0" stroke-linecap="butt"/><path d="M298.50602,30.98649c0,0 2.27256,6.40014 2.17048,9.64614c-0.10404,3.30843 -2.78894,10.02073 -2.78894,10.02073c0,0 -8.40341,0.81218 -11.30559,-0.2197c-2.63883,-0.93825 -4.27949,-3.24365 -4.27949,-3.24365" fill="none" stroke="#670808" stroke-width="3" stroke-linecap="round"/><path d="M313.00054,4.43572c0.91074,1.36342 1.7165,2.81198 2.35831,4.33692c1.02923,2.44543 1.62769,5.71317 1.67617,9.19191c0.05248,3.76565 -0.53945,7.77851 -1.92701,11.26337c-3.00333,7.5428 -9.18503,12.91443 -10.06402,13.77349c-1.03289,1.00947 0.80132,-1.95174 -0.39601,-4.13522c-0.67469,-1.23042 -2.68738,-2.46643 -4.70129,-3.24883" fill="none" stroke="#670808" stroke-width="3" stroke-linecap="round"/><path d="M189.44144,45.899c0,0 -6.70965,-1.94097 -7.85692,-2.208c-2.25143,-0.52408 -7.66696,-5.37262 -7.66696,-5.37262c0,0 4.13226,-1.15804 5.62032,-2.62499c1.58854,-1.566 3.62921,-6.49328 3.62921,-6.49328c0,0 -9.93252,3.9408 -13.72714,1.94383c-3.90103,-2.05298 -9.36874,-14.09829 -9.36874,-14.09829c0,0 5.90766,-1.73947 8.03305,-3.89267c2.77586,-2.81221 7.2917,-4.05605 7.19795,-11.53772c-0.05196,-4.14547 -2.64505,-6.20352 -4.79152,-8.6246c-1.72745,-1.94846 -3.16565,-4.13204 -2.75721,-7.82801c0.36907,-3.33971 2.20009,-6.80081 4.3053,-9.89527" fill="none" stroke="#670808" stroke-width="3" stroke-linecap="round"/><path d="M249.59626,65.65261c0,0 -1.27197,4.65283 -3.09457,7.17287c-3.27239,4.52462 -9.82251,9.02378 -9.82251,9.02378c0,0 -6.55012,-4.49916 -9.82251,-9.02378c-1.8226,-2.52005 -3.09457,-7.17287 -3.09457,-7.17287" data-paper-data="{&quot;index&quot;:null}" fill="none" stroke="#660809" stroke-width="3" stroke-linecap="butt"/><path d="M225.74148,66.55833c-1.09409,0.2942 -3.30552,1.09982 -4.05805,2.93285c-0.92529,2.25391 -1.13638,5.96519 -1.13638,5.96519c0,0 -4.77899,-2.91285 -6.43231,-5.53453c-3.04177,-4.82335 -4.07843,-10.88901 -4.07843,-10.88901c0,0 -5.99059,0.46653 -6.81252,4.4193c-0.90741,4.36387 2.26187,11.65269 2.26187,11.65269c0,0 -13.44237,-6.72345 -16.00345,-14.12372c-1.83467,-5.30133 -1.32164,-9.43372 -0.8406,-11.45525c0.20991,-0.8821 2.88754,-6.92838 2.88754,-6.92838" data-paper-data="{&quot;index&quot;:null}" fill="none" stroke="#670808" stroke-width="2.5" stroke-linecap="butt"/><path d="M284.46437,48.16358c0,0 2.20837,5.20293 -0.42687,12.81753c-2.56108,7.40027 -16.00345,14.12372 -16.00345,14.12372c0,0 3.16928,-7.28882 2.26187,-11.65269c-0.82193,-3.95277 -6.81252,-4.4193 -6.81252,-4.4193c0,0 -1.03666,6.06566 -4.07843,10.88901c-1.65332,2.62167 -6.43231,5.53453 -6.43231,5.53453c0,0 -0.21109,-3.71128 -1.13638,-5.96519c-0.75253,-1.83303 -2.96396,-2.63864 -4.05805,-2.93285" data-paper-data="{&quot;index&quot;:null}" fill="none" stroke="#670808" stroke-width="2.5" stroke-linecap="butt"/><path d="M246.28295,-75.75068c-4.58894,-1.91513 -7.99967,8.67747 -7.99967,8.67747l-0.12328,0.00198c0,0 -0.72855,-9.2759 -2.40673,-11.57821c-2.25697,-3.09632 -5.94257,-5.31877 -9.0657,-3.06974" fill="none" stroke="#670808" stroke-width="3" stroke-linecap="round"/><path d="M283.85434,-58.67876c0,0 3.05095,3.9197 7.65684,7.98994c5.05459,4.46678 12.99655,9.25431 15.72828,10.81307c6.01466,3.43202 18.669,5.35505 18.669,5.35505c0,0 -7.40965,17.76027 -13.16142,22.44037c-0.50122,0.40783 -1.10718,0.80745 -1.79362,1.19676" fill="none" stroke="#670808" stroke-width="3" stroke-linecap="round"/><path d="M309.82487,-14.18151c0.43829,8.6803 10.47611,7.32758 10.47611,7.32758c0,0 -6.29368,12.87501 -12.48708,13.54901" data-paper-data="{&quot;index&quot;:null}" fill="none" stroke="#670808" stroke-width="3" stroke-linecap="butt"/><path d="M171.12682,-23.50072c0,0 5.94295,-7.24626 1.59262,-9.3916c-13.45058,-6.63303 -2.64192,-21.16988 -2.64192,-21.16988c0,0 12.48458,7.67006 15.30458,2.14639" data-paper-data="{&quot;index&quot;:null}" fill="none" stroke="#670808" stroke-width="3" stroke-linecap="butt"/><path d="M185.17808,-51.45108c0,0 1.20824,-3.37794 3.878,-7.33034c1.61385,-2.38917 3.7617,-4.98825 6.49959,-7.17799c2.41902,-1.9347 5.45059,-3.6085 8.72887,-4.8413c3.66822,-1.37944 7.64544,-2.20673 11.41911,-2.22958c3.50564,-0.02122 8.92673,1.61822 13.54033,3.2941c4.79113,1.74035 8.71142,3.52007 8.71142,3.52007c0,0 5.45806,-2.45512 12.75646,-3.90963c5.72532,-1.14101 12.58316,-1.66626 18.82712,0.09251c2.56714,0.72308 5.0475,2.11405 7.32486,3.8778c2.56457,1.98616 4.87171,4.4451 6.75546,6.95542c2.06935,2.75763 8.32874,8.83093 8.32874,8.83093" fill="none" stroke="#670808" stroke-width="3" stroke-linecap="butt"/></g><g data-paper-data="{&quot;index&quot;:null}" stroke="#000000" stroke-width="3"><path d="M143.9835,281.01717c0,0 -2.45771,-12.45649 -2.92646,-19.01892c-0.50289,-7.04048 0.00434,-21.89075 0.00434,-21.89075h46.89646c0,0 2.76511,16.76012 3.28715,24.06868c0.43668,6.11349 -0.36504,16.84099 -0.36504,16.84099c0,0 -3.4504,3.49088 -5.31528,3.87641c-2.16073,0.44669 -6.8927,-1.35265 -6.8927,-1.35265c0,0 -9.35178,4.91429 -13.48856,4.93304c-3.57528,0.01621 -9.89423,-4.82704 -9.89423,-4.82704c0,0 -4.49003,1.64373 -6.43091,1.19227c-1.81988,-0.42331 -4.87477,-3.82203 -4.87477,-3.82203z" fill="#fedfc3" stroke-linecap="butt"/><path d="M155.31562,282.88317l0.57017,-14.96695" fill="none" stroke-linecap="round"/><path d="M177.26716,268.35681l1.42542,14.53933" fill="none" stroke-linecap="round"/></g><g><path d="M209.06338,82.74204c-2.20649,22.73753 -18.69659,163.61704 -18.69659,163.61704l0.47877,11.93158l-49.91669,-6.47083l-0.0722,-11.4463l26.4468,-170.57294c0,0 3.68744,-12.59051 25.95765,-8.56717c19.88455,3.59234 15.80226,21.50864 15.80226,21.50864z" data-paper-data="{&quot;index&quot;:null}" fill="#fedfc3" stroke="#000000" stroke-width="0" stroke-linecap="round"/><g data-paper-data="{&quot;index&quot;:null}"><g><g fill="none" stroke="none" stroke-width="1" stroke-linecap="butt" font-family="sans-serif" font-weight="normal" font-size="12" text-anchor="start"/><path d="M209.50958,82.89032l-3.95052,50.76731l-46.55461,-5.48939c0,0 7.7666,-46.53623 8.79287,-56.98561c0.04453,-0.45338 2.55191,-6.6379 8.05554,-8.95539c4.36796,-1.83929 20.34157,-2.48065 28.90525,2.75004c4.05942,2.47948 4.93692,12.85161 4.93692,12.85161" data-paper-data="{&quot;index&quot;:null}" fill="#ffdfc2" stroke="#000000" stroke-width="0" stroke-linecap="round"/><path d="M209.40673,82.88705l-3.55461,44.25162l-46.95569,-5.14632l8.62464,-49.70694c0,0 4.04232,-11.0881 11.9438,-11.97062c2.41942,-0.27022 19.50757,0.50493 23.9645,3.92701c8.12628,6.23946 5.97736,18.64527 5.97736,18.64527z" data-paper-data="{&quot;index&quot;:null}" fill="url(#color-2)" stroke="#000000" stroke-width="0" stroke-linecap="round"/><path d="M209.31935,82.85189l-4.31002,42.44745c0,0 -1.37931,0.76244 -2.91579,1.61177c-5.79505,3.20334 -47.33986,22.06566 -47.33986,22.06566l13.11026,-79.24849c0,0 4.88442,-6.68544 12.07716,-9.30191c5.14868,-1.87291 12.45533,-0.19809 15.50798,0.76829c2.34716,0.74304 9.248,3.27951 11.47051,6.94448c3.80854,6.28038 2.39977,14.71274 2.39977,14.71274z" data-paper-data="{&quot;index&quot;:null}" fill="url(#color-3)" stroke="#000000" stroke-width="0" stroke-linecap="round"/></g><path d="M177.09992,70.49596c-0.2492,-0.97867 2.6802,-2.56941 4.73698,-3.09315c2.05678,-0.52374 5.04164,-0.43898 5.29084,0.53969c0.2492,0.97867 -2.33161,2.48065 -4.38839,3.00438c-2.05678,0.52374 -5.39023,0.52774 -5.63943,-0.45092z" fill="#3e3571" stroke="none" stroke-width="0" stroke-linecap="butt"/><path d="M203.03274,67.57014c1.34223,1.04763 3.11113,3.0015 2.07577,4.32801c-1.03536,1.32652 -2.53872,-0.96753 -3.88095,-2.01519c-1.34223,-1.04763 -3.7621,-2.45597 -2.6631,-3.86403c1.099,-1.40806 4.46829,1.5512 4.46829,1.5512z" fill="#3e3571" stroke="none" stroke-width="0" stroke-linecap="butt"/><path d="M182.71966,64.15008c0.03202,-0.80781 1.21169,-1.41694 2.63487,-1.36053c1.42318,0.0564 2.55095,0.75699 2.51894,1.5648c-0.03202,0.80781 -1.21169,1.41695 -2.63488,1.36055c-1.42318,-0.0564 -2.55095,-0.757 -2.51893,-1.56481z" fill="#3e3571" stroke="none" stroke-width="0" stroke-linecap="butt"/><path d="M205.28049,76.97627c-0.80345,-0.08966 -1.32672,-1.30987 -1.16873,-2.72538c0.15798,-1.41551 0.93737,-2.49032 1.74082,-2.40066c0.80345,0.08966 1.32673,1.30987 1.16875,2.72538c-0.15798,1.41551 -0.93738,2.49032 -1.74084,2.40066z" fill="#3e3571" stroke="none" stroke-width="0" stroke-linecap="butt"/><path d="M191.54821,64.90799c0.06112,-0.80612 1.262,-1.37232 2.68222,-1.26464c1.42022,0.10768 2.52199,0.84848 2.46087,1.65461c-0.06112,0.80612 -1.262,1.37233 -2.68222,1.26465c-1.42022,-0.10768 -2.52199,-0.84848 -2.46087,-1.65461z" fill="#3e3571" stroke="none" stroke-width="0" stroke-linecap="butt"/><path d="M185.93713,75.84479c-0.2492,-0.97867 2.6802,-2.56941 4.73698,-3.09315c2.05678,-0.52374 5.04164,-0.43898 5.29084,0.53969c0.2492,0.97867 -2.33161,2.48065 -4.38839,3.00438c-2.05678,0.52374 -5.39023,0.52774 -5.63943,-0.45092z" fill="#3e3571" stroke="none" stroke-width="0" stroke-linecap="butt"/><path d="M194.20083,68.47581c0.36402,-0.8131 1.82042,-0.95233 3.25293,-0.31099c1.43251,0.64134 2.29869,1.82041 1.93466,2.63351c-0.36402,0.8131 -1.82043,0.95234 -3.25294,0.311c-1.43251,-0.64134 -2.29868,-1.82041 -1.93465,-2.63351z" fill="#3e3571" stroke="none" stroke-width="0" stroke-linecap="butt"/><path d="M176.96373,67.07993c-0.35288,-0.65261 0.29312,-1.68565 1.44288,-2.30736c1.14977,-0.62171 2.36791,-0.59664 2.72079,0.05597c0.35288,0.65261 -0.29312,1.68566 -1.44288,2.30736c-1.14977,0.62171 -2.3679,0.59664 -2.72078,-0.05597z" fill="#3e3571" stroke="none" stroke-width="0" stroke-linecap="butt"/><path d="M174.74239,66.56488c1.493,0.98049 -0.34635,3.09141 -1.281,4.51463c-0.93465,1.42324 -1.62158,4.07858 -3.02813,3.15487c-1.40654,-0.92371 -0.35889,-3.34217 0.57576,-4.76539c0,0 2.24036,-3.8846 3.73336,-2.90411z" data-paper-data="{&quot;index&quot;:null}" fill="#3e3571" stroke="none" stroke-width="0" stroke-linecap="butt"/></g><path d="M140.92886,251.81984l-0.0722,-11.4463l26.4468,-170.57294c0,0 3.68744,-12.59051 25.95765,-8.56717c19.88455,3.59234 15.80226,21.50864 15.80226,21.50864v-0.00001c-2.20649,22.73753 -18.69659,163.61704 -18.69659,163.61704l0.47877,11.93158" data-paper-data="{&quot;index&quot;:null}" fill="none" stroke="#a96eb5" stroke-width="3" stroke-linecap="round"/></g><path d="M196.1674,261.24885c-0.15815,1.96212 -0.24397,39.11543 -0.24397,39.11543c0,0 -21.71398,5.53623 -34.73984,4.48794c-11.60017,-0.93356 -29.41775,-10.4735 -29.41775,-10.4735c0,0 5.79905,-36.91406 6.01951,-38.15557c1.98975,-11.20518 24.92201,-166.3304 24.92201,-166.3304c0,0 14.30003,-0.49657 21.81541,-0.75755c8.03632,-0.27907 24.9445,-3.04012 24.9445,-3.04012z" data-paper-data="{&quot;index&quot;:null}" fill="#1e1e21" stroke="#0a0a0b" stroke-width="3" stroke-linecap="round"/><g stroke="#0a0a0b" stroke-width="3"><path d="M160.36057,91.45865c0,0 -1.29412,-1.4724 -1.29412,-2.60172c0,-1.12932 1.29412,-2.6924 1.29412,-2.6924c0,0 17.51227,0.91383 26.01905,0.44336c8.18683,-0.45278 24.09859,-3.21514 24.09859,-3.21514c0,0 1.64706,1.87397 1.64706,3.31128c0,1.43731 -1.64706,1.98283 -1.64706,1.98283c0,0 -15.94673,4.4329 -24.55035,4.90872c-8.06778,0.44619 -25.56729,-2.13694 -25.56729,-2.13694z" fill="#1e1e1f" stroke-linecap="butt"/><path d="M166.71352,91.89949c0,0 -0.82353,-1.7495 -0.82353,-2.23653c0,-0.73985 0.82353,-2.79565 0.82353,-2.79565" fill="none" stroke-linecap="round"/><path d="M185.88999,93.26575c0,0 -0.94527,-2.47887 -1.13825,-3.48667c-0.14772,-0.77139 0.07942,-2.04274 0.07942,-2.04274" fill="none" stroke-linecap="round"/><path d="M201.53705,84.79516c0,0 1.15811,1.54555 1.27181,2.41723c0.12113,0.92863 -0.56593,2.99453 -0.56593,2.99453" fill="none" stroke-linecap="round"/></g><g stroke-linecap="round"><g><path d="M223.89239,51.66251c0,0 -3.39774,-7.68108 -4.26366,-11.6223c-0.89646,-4.08018 -1.02666,-12.45633 -1.02666,-12.45633h44.55819c0,0 -1.16322,9.70786 -2.31487,13.99099c-0.97789,3.63691 -4.15939,10.08764 -4.15939,10.08764" data-paper-data="{&quot;index&quot;:null}" fill="#ffdfc2" stroke="#000000" stroke-width="0"/><path d="M223.89238,51.66249c0,0 -3.36827,-6.42696 -4.30487,-10.05722c-1.10589,-4.28643 -1.90736,-14.02141 -1.90736,-14.02141h23.00249" data-paper-data="{&quot;index&quot;:null}" fill="none" stroke="#d4a980" stroke-width="3"/></g><path d="M240.68264,27.58386h23.00249c0,0 -1.04489,9.65868 -2.14837,13.93578c-0.94141,3.64891 -4.06386,10.14285 -4.06386,10.14285" data-paper-data="{&quot;index&quot;:null}" fill="none" stroke="#d4a980" stroke-width="3"/></g><path d="M257.51858,51.11829c0,0 15.42897,4.06208 21.32939,6.64998c4.71175,2.06655 10.93146,8.82205 10.93146,8.82205c0,0 0.91766,2.28838 -0.77454,2.69232c-8.47217,2.02237 -36.62344,8.41198 -51.12266,8.44007c-13.22962,0.02563 -42.88837,-9.68572 -42.88837,-9.68572l1.86739,-3.2187c0,0 3.05937,-5.09101 7.50421,-7.15326c5.16015,-2.39411 19.51678,-6.36492 19.51678,-6.36492" fill="#fedfc3" stroke="#d4a980" stroke-width="3" stroke-linecap="round"/><g stroke="#000000"><path d="M270.84179,82.88706c0,0 -2.14892,-12.40581 5.97736,-18.64527c4.45693,-3.42208 21.54508,-4.19723 23.9645,-3.92701c7.90148,0.88252 11.9438,11.97062 11.9438,11.97062l4.48671,49.87936l-42.81776,4.97391l-3.55461,-44.25162z" data-paper-data="{&quot;index&quot;:null}" fill="url(#color-4)" stroke-width="0" stroke-linecap="round"/><g stroke-width="3"><path d="M330.69257,284.8392c-1.94089,0.45146 -6.43092,-1.19227 -6.43092,-1.19227c0,0 -6.31895,4.84324 -9.89423,4.82704c-4.13678,-0.01875 -13.48856,-4.93304 -13.48856,-4.93304c0,0 -4.73197,1.79934 -6.8927,1.35265c-1.86487,-0.38552 -5.31529,-3.87641 -5.31529,-3.87641c0,0 -0.80171,-10.7275 -0.36503,-16.84099c0.52204,-7.30856 3.28715,-24.06868 3.28715,-24.06868h46.89646c0,0 0.50723,14.85027 0.00435,21.89075c-0.46875,6.56243 -2.92647,19.01892 -2.92647,19.01892c0,0 -3.05489,3.39872 -4.87477,3.82203z" fill="#fedfc3" stroke-linecap="butt"/><path d="M324.23523,282.88317l-0.57017,-14.96695" fill="none" stroke-linecap="round"/><path d="M302.2837,268.35681l-1.42543,14.53933" fill="none" stroke-linecap="round"/></g><path d="M270.53278,82.5095c0,0 -4.08229,-17.9163 15.80226,-21.50864c22.27021,-4.02334 25.95765,8.56717 25.95765,8.56717l26.4468,170.57294l-0.0722,11.4463l-49.91669,6.47083l0.47877,-11.93157c0,0 -16.4901,-140.87951 -18.6966,-163.61704z" data-paper-data="{&quot;index&quot;:null}" fill="#fedfc3" stroke-width="0" stroke-linecap="round"/><path d="M288.75059,258.05811l0.47877,-11.93157c0,0 -16.4901,-140.87951 -18.6966,-163.61704v0.00001c0,0 -4.08229,-17.9163 15.80226,-21.50864c22.27021,-4.02334 25.95765,8.56717 25.95765,8.56717l26.4468,170.57294l-0.0722,11.4463" data-paper-data="{&quot;index&quot;:null}" fill="none" stroke-width="3" stroke-linecap="round"/></g><path d="M270.53278,82.23922c0,0 -4.08229,-17.9163 15.80226,-21.50864c22.27021,-4.02334 25.95765,8.56717 25.95765,8.56717c0,0 27.93226,157.29913 29.92201,168.50432c0.22046,1.24152 6.0195,38.15558 6.0195,38.15558c0,0 -17.81758,9.53994 -29.41775,10.4735c-13.02587,1.04829 -34.73984,-4.48794 -34.73984,-4.48794c0,0 -0.08582,-37.1533 -0.24397,-39.11542c-1.65965,-20.59068 -11.28535,-139.82924 -13.29987,-160.58857z" data-paper-data="{&quot;index&quot;:null}" fill="#1e1e21" stroke="#0a0a0b" stroke-width="3" stroke-linecap="round"/><g><g data-paper-data="{&quot;index&quot;:null}" stroke-linecap="butt"><path d="M310.0981,215.6788l8.79301,211.95483l-66.13387,15.00218l-5.92356,-25.2978l-0.86337,-187.33771z" data-paper-data="{&quot;index&quot;:null}" fill="url(#color-5)" stroke="#000000" stroke-width="0"/><g fill="none" stroke="none" stroke-width="1" font-family="sans-serif" font-weight="normal" font-size="12" text-anchor="start"/></g><g fill="none" stroke-opacity="0.47039" stroke="#0a0a0b" stroke-width="2.5" stroke-linecap="round"><g><g><path d="M246.25799,241.14442l64.96754,63.99058"/><path d="M246.258,255.60336l64.96754,63.99058"/></g><g><path d="M311.22555,332.09897l-64.96754,-63.99058"/><path d="M311.22555,346.55791l-64.96754,-63.99058"/></g></g><g data-paper-data="{&quot;index&quot;:null}"><g><path d="M246.25801,305.135l64.96754,-63.99058"/><path d="M311.22554,255.60336l-64.96754,63.99058"/></g><g><path d="M311.22553,268.10839l-64.96754,63.99058"/><path d="M246.25799,346.55791l64.96754,-63.99058"/></g></g><g><g><path d="M246.25801,185.26257l64.96754,63.99058"/><path d="M311.22553,263.71209l-64.96754,-63.99058"/></g><g><path d="M311.22555,276.21712l-64.96754,-63.99058"/><path d="M311.22553,290.67606l-64.96754,-63.99058"/></g></g><g data-paper-data="{&quot;index&quot;:null}"><g><path d="M246.25801,263.71209l22.78097,-21.80401"/><path d="M246.25801,278.17102l64.96754,-63.99058"/></g><g><path d="M311.22555,226.68548l-64.96754,63.99058"/></g></g></g><path d="M310.0981,215.67881c0,0 1.80904,43.60693 2.96198,71.39834c1.03975,25.06309 -40.40202,40.57614 -40.40202,40.57614c0,0 -26.2965,-12.75593 -26.38009,-30.89361c-0.1176,-25.51842 -0.30767,-66.75937 -0.30767,-66.75937z" data-paper-data="{&quot;index&quot;:null}" fill="none" stroke="#6a4d93" stroke-width="3" stroke-linecap="butt"/><g stroke-linecap="butt"><path d="M247.01344,296.26914c0,0 3.91165,2.782 12.33682,3.22386c8.42517,0.44186 13.23442,-0.14231 21.53999,-1.56459c11.5068,-1.97048 18.71318,-4.2998 22.16621,-5.62538c3.45304,-1.32557 9.63155,-5.73258 9.63155,-5.73258l6.55297,140.9626l-65.7826,14.47776l-6.246,-23.89132z" data-paper-data="{&quot;index&quot;:null}" fill="#0a0a0b" stroke="#000000" stroke-width="0"/><path d="M312.97758,285.08815l5.91354,142.54548l-66.13387,15.00218l-5.92356,-25.2978l-0.56562,-122.72913" data-paper-data="{&quot;index&quot;:null}" fill="none" stroke="#14141a" stroke-width="3"/><path d="M312.30932,286.29337c0,0 -6.05022,4.76904 -9.43156,6.18445c-3.38133,1.41543 -10.43806,3.88903 -21.70592,5.91692c-8.1331,1.46373 -12.84249,2.04821 -21.09271,1.46202c-4.13946,-0.29412 -10.65253,-2.23709 -13.10372,-4.03291" data-paper-data="{&quot;index&quot;:null}" fill="none" stroke="#14141a" stroke-width="3"/></g></g><g><g data-paper-data="{&quot;index&quot;:null}" stroke-linecap="butt"><path d="M239.91408,230.0003l-0.86337,187.33771l-5.92356,25.2978l-66.13387,-15.00218l8.79301,-211.95483z" data-paper-data="{&quot;index&quot;:null}" fill="url(#color-6)" stroke="#000000" stroke-width="0"/><g fill="none" stroke="none" stroke-width="1" font-family="sans-serif" font-weight="normal" font-size="12" text-anchor="start"/></g><g fill="none" stroke-opacity="0.47039" stroke="#0a0a0b" stroke-width="2.5" stroke-linecap="round"><g><g><path d="M174.54393,241.14442l64.96754,63.99058"/><path d="M239.51147,319.59394l-64.96754,-63.99058"/></g><g><path d="M239.51147,332.09897l-64.96754,-63.99058"/><path d="M239.51147,346.55791l-64.96754,-63.99058"/></g></g><g data-paper-data="{&quot;index&quot;:null}"><g><path d="M174.54393,305.135l64.96754,-63.99058"/><path d="M239.51146,255.60336l-64.96753,63.99058"/></g><g><path d="M174.54393,332.09897l64.96753,-63.99058"/><path d="M174.54393,346.55791l64.96753,-63.99058"/></g></g><g><g><path d="M239.51147,263.71209l-27.98002,-27.00306"/></g><g><path d="M239.51147,276.21712l-64.96754,-63.99058"/><path d="M239.51147,290.67606l-64.96754,-63.99058"/></g></g><g data-paper-data="{&quot;index&quot;:null}"><g><path d="M174.54393,263.71209l64.96754,-63.99058"/><path d="M174.54393,278.17102l64.96753,-63.99058"/></g><g><path d="M174.54393,290.67606l64.96753,-63.99058"/></g></g></g><path d="M239.91408,230.0003c0,0 -0.19007,41.24095 -0.30767,66.75937c-0.08359,18.13768 -26.38008,30.89361 -26.38008,30.89361c0,0 -41.44178,-15.51304 -40.40203,-40.57614c1.15294,-27.79141 2.96198,-71.39833 2.96198,-71.39833z" data-paper-data="{&quot;index&quot;:null}" fill="none" stroke="#6a4d93" stroke-width="3" stroke-linecap="butt"/><path d="M238.67203,418.11949l-6.246,23.89132l-65.78259,-14.47776l6.55297,-140.9626c0,0 6.17851,4.40701 9.63155,5.73258c3.45303,1.32558 10.65941,3.6549 22.16621,5.62538c8.30557,1.42228 13.11482,2.00645 21.53999,1.56459c8.42517,-0.44186 12.33682,-3.22386 12.33682,-3.22386z" data-paper-data="{&quot;index&quot;:null}" fill="#0a0a0b" stroke="#000000" stroke-width="0" stroke-linecap="butt"/><path d="M239.61633,294.60888l-0.56562,122.72913l-5.92356,25.2978l-66.13387,-15.00218l5.91353,-142.54548" data-paper-data="{&quot;index&quot;:null}" fill="none" stroke="#14141a" stroke-width="3" stroke-linecap="butt"/><path d="M238.909,295.82386c-2.45119,1.79582 -8.96426,3.73879 -13.10372,4.03291c-8.25022,0.58619 -12.95961,0.00171 -21.09271,-1.46202c-11.26786,-2.0279 -18.3246,-4.5015 -21.70592,-5.91692c-3.38134,-1.41541 -9.43156,-6.18445 -9.43156,-6.18445" data-paper-data="{&quot;index&quot;:null}" fill="none" stroke="#14141a" stroke-width="3" stroke-linecap="butt"/></g><path d="M289.674,66.51967c0,0 5.57904,8.43356 8.00853,12.82533c2.34469,4.23847 6.32308,13.0817 6.32308,13.0817c0,0 -3.27893,9.6133 -5.58301,13.97633c-2.41061,4.56476 -8.57549,12.83443 -8.57549,12.83443h-94.21617c0,0 -6.2687,-7.61521 -8.64392,-12.11297c-2.34386,-4.43837 -5.51457,-14.69779 -5.51457,-14.69779c0,0 4.20327,-9.24976 6.59472,-13.57276c2.38574,-4.31266 7.73688,-12.33427 7.73688,-12.33427" data-paper-data="{&quot;index&quot;:null}" fill="#fedfc3" stroke="#d4a980" stroke-width="3" stroke-linecap="round"/><path d="M261.65056,66.19261l17.69107,-7.23189c0,0 3.84043,0.52217 5.75146,1.85903c2.18671,1.5297 6.65353,6.81883 6.65353,6.81883" fill="#1e1e1f" stroke="#0a0a0b" stroke-width="3" stroke-linecap="round"/><path d="M203.56198,73.18141l1.55993,-2.48417c0,0 -0.96927,-5.04348 -0.91631,-7.53356c0.05208,-2.44857 1.23146,-7.2845 1.23146,-7.2845c0,0 1.2844,-3.79581 3.88349,-4.17476c2.59909,-0.37895 6.16037,2.71037 6.16037,2.71037c0,0 -1.34567,5.84934 -1.46664,8.47865c-0.10522,2.28681 0.78145,6.41359 0.78145,6.41359l2.73027,1.8846" fill="#000000" stroke="#0a0a0b" stroke-width="3" stroke-linecap="round"/><g fill="#010100" stroke="#0a0a0b" stroke-width="3" stroke-linecap="butt"><path d="M240.26224,86.4182c0.27285,1.20787 -55.43576,6.71628 -55.43576,6.71628l-1.18034,-6.71628c0,0 12.19289,-14.94011 28.86269,-16.74118c16.4356,-1.77577 25.36165,6.15314 27.75341,16.74118z"/><path d="M262.58502,69.67702c16.66979,1.80107 28.86268,16.74118 28.86268,16.74118l-1.18034,6.71628c0,0 -55.70861,-5.50841 -55.43576,-6.71628c2.39176,-10.58804 11.31781,-18.51695 27.75341,-16.74118z" data-paper-data="{&quot;index&quot;:null}"/></g><g stroke="#0a0a0b" stroke-width="3"><path d="M186.68467,86.41343c0,0 7.91123,-0.65056 16.72048,-2.09107c11.79199,-1.92826 25.48104,-4.84008 26.7174,-5.36232c4.2618,-1.8002 12.68487,-3.59164 20.77464,-6.98065c14.11307,-5.91232 28.69789,-13.71444 29.06783,-13.58007c1.67354,0.60789 4.99912,2.1075 8.13652,5.24618c5.12599,5.12809 10.05777,13.76881 11.40451,16.20329c2.42298,4.37999 6.53419,13.51847 6.53419,13.51847c0,0 -3.3884,9.93427 -5.76941,14.44297c-2.49109,4.71716 -8.86181,13.26295 -8.86181,13.26295c0,0 15.3673,56.87438 20.39845,93.92704c1.88468,13.88008 -0.4209,25.38526 -0.4209,25.38526c0,0 -50.54546,10.32674 -83.23015,13.84622c-32.6847,3.51948 -53.43555,-14.12615 -53.43555,-14.12615c0,0 -2.07297,-15.41304 -0.61952,-25.10533c1.45345,-9.69229 19.94584,-93.92703 19.94584,-93.92703c0,0 -6.47799,-7.86947 -8.93252,-12.5174c-2.42211,-4.58656 -5.69869,-15.18852 -5.69869,-15.18852c0,0 2.52543,-2.83131 4.99672,-7.29865" data-paper-data="{&quot;index&quot;:null}" fill="#1e1e21" stroke-linecap="round"/><g><path d="M182.61823,88.39742c0,0 -0.68697,-1.4724 -0.22129,-2.60173c0.46568,-1.12932 2.40434,-2.6924 2.40434,-2.6924c0,0 31.78169,-0.92626 46.36504,-5.71487c14.7466,-4.84221 41.63025,-23.17935 41.63025,-23.17935c0,0 5.45166,1.35515 6.36385,2.15502c0.94407,0.82782 1.65719,2.73093 1.65719,2.73093c0,0 -31.61159,19.24684 -48.03901,24.14873c-16.30479,4.8653 -50.16037,5.15367 -50.16037,5.15367z" fill="#1e1e1f" stroke-linecap="butt"/><path d="M195.88999,87.54655c0,0 -0.82353,-1.7495 -0.82353,-2.23653c0,-0.73985 0.82353,-2.79565 0.82353,-2.79565" fill="none" stroke-linecap="round"/><path d="M266.63942,59.87803c0,0 1.863,2.0558 2.2371,2.79566c0.24626,0.48703 0.30733,2.23653 0.30733,2.23653" data-paper-data="{&quot;index&quot;:null}" fill="none" stroke-linecap="round"/><path d="M220.43854,85.16433c0,0 -1.27578,-1.45305 -1.41064,-1.92103c-0.20487,-0.71093 0.01719,-2.91438 0.01719,-2.91438" fill="none" stroke-linecap="round"/><path d="M244.41279,72.40438c0,0 1.27578,1.45305 1.41064,1.92104c0.20487,0.71093 -0.01719,2.91438 -0.01719,2.91438" data-paper-data="{&quot;index&quot;:null}" fill="none" stroke-linecap="round"/></g><path d="M299.54463,93.90322c0,0 -38.67654,1.22449 -57.7551,1.22449c-18.73845,0 -55.71429,-1.22449 -55.71429,-1.22449" fill="none" stroke-linecap="round"/></g><path d="M185.25426,-2.58808c-3.94397,-29.11893 18.49651,-39.12874 47.61546,-43.0727c29.11893,-3.94397 53.88963,-0.3286 57.83358,28.79034c3.94397,29.11893 -16.46438,55.92174 -45.58334,59.8657c-29.11893,3.94397 -55.92174,-16.4644 -59.86569,-45.58333z" fill="#ffdfc2" stroke="#d4a980" stroke-width="3" stroke-linecap="butt"/><g><g stroke-linecap="round"><path d="M216.06632,12.99151c0,0 -11.65818,-0.44599 -16.72482,-1.9757c-4.72797,-1.42745 -13.73426,-5.87217 -13.82404,-8.24067c-0.0621,-1.63867 3.26618,-2.82555 3.26618,-2.82555c0,0 -8.68404,-1.33087 -9.07867,-6.59863c-0.31057,-4.14598 2.40853,-5.5609 2.40853,-5.5609c0,0 2.65741,-9.2015 6.77875,-13.22485c4.12134,-4.02337 12.82168,-10.35659 26.53553,-6.33659c13.71383,4.02 18.71035,13.07222 19.00137,27.18973" fill="#26134d" stroke="#000000" stroke-width="0"/><path d="M216.06632,12.99151c-6.53967,0.76622 -11.65818,-0.44599 -16.72482,-1.9757c-4.72797,-1.42745 -13.73426,-5.87217 -13.82404,-8.24067c-0.0621,-1.63867 3.26618,-2.82555 3.26618,-2.82555c0,0 -8.58693,-1.51681 -8.98156,-6.7846c-0.31057,-4.14597 2.31143,-5.37497 2.31143,-5.37497c0,0 2.65741,-9.2015 6.77875,-13.22485c4.12134,-4.02337 12.82168,-10.35659 26.53553,-6.33659c13.71383,4.02 18.71035,13.07222 19.00137,27.18973z" fill="none" stroke="#100030" stroke-width="2"/></g><path d="M234.59787,-5.82469c-0.19187,10.90893 -10.64479,19.29739 -23.34725,18.73614c-12.70245,-0.56124 -22.84427,-9.85963 -22.65238,-20.76855c0.19187,-10.90893 10.64478,-19.29739 23.34722,-18.73615c12.70245,0.56124 22.84429,9.85963 22.6524,20.76854z" fill="#050010" stroke="#020007" stroke-width="0" stroke-linecap="butt"/></g><g data-paper-data="{&quot;index&quot;:null}"><g stroke-linecap="round"><path d="M241.93221,-4.24054c0.7873,-14.09854 6.09905,-22.96946 19.94579,-26.5047c13.84673,-3.53524 22.31898,3.10003 26.29627,7.26583c3.9773,4.16579 6.30947,13.45505 6.30947,13.45505c0,0 2.66768,1.50968 2.21149,5.64218c-0.57965,5.25062 -9.30511,6.27527 -9.30511,6.27527c0,0 3.28447,1.30318 3.16479,2.93866c-0.17301,2.36388 -9.33005,6.48912 -14.10529,7.74942c-5.11728,1.35061 -16.78396,1.38633 -16.78396,1.38633" fill="#26134d" stroke="#000000" stroke-width="0"/><path d="M241.93221,-4.24056c0.7873,-14.09854 6.09905,-22.96946 19.94579,-26.5047c13.84673,-3.53524 22.31898,3.10003 26.29627,7.26583c3.9773,4.16579 6.30947,13.45505 6.30947,13.45505c0,0 2.57718,1.32046 2.12099,5.45292c-0.57965,5.25062 -9.21459,6.46454 -9.21459,6.46454c0,0 3.28447,1.30318 3.16479,2.93866c-0.17301,2.36388 -9.33005,6.48912 -14.10529,7.74942c-5.11728,1.35061 -10.27526,2.38206 -16.78396,1.38633z" fill="none" stroke="#100030" stroke-width="2"/></g><path d="M265.17607,-25.44783c12.71434,-0.11418 22.86577,8.6367 22.67389,19.54562c-0.19187,10.90893 -10.65441,19.8449 -23.36874,19.95909c-12.71434,0.11418 -22.86579,-8.6367 -22.67391,-19.54561c0.19187,-10.90893 10.65442,-19.8449 23.36876,-19.95909z" fill="#050010" stroke="#020007" stroke-width="0" stroke-linecap="butt"/></g><g fill="none" stroke-width="3"><path d="M262.94675,-16.60181l-13.91732,23.92161" stroke="#ffe200" stroke-linecap="round"/><path d="M262.7872,7.24014l-13.5982,-23.76228" stroke="#00ff31" stroke-linecap="round"/><path d="M249.09677,-16.68342l13.89693,0.001l-0.11418,24.08386l-13.89694,-0.001z" stroke="#ff0000" stroke-linecap="butt"/></g><path d="M287.82617,-4.67933c-0.19187,10.90893 -10.64479,19.29739 -23.34725,18.73614c-12.70245,-0.56124 -22.84427,-9.85963 -22.65238,-20.76855c0.19187,-10.90893 10.64478,-19.29739 23.34722,-18.73615c12.70245,0.56124 22.84429,9.85963 22.6524,20.76854z" fill="none" stroke="#020007" stroke-width="3" stroke-linecap="butt"/><path d="M265.18206,22.01584c0,0 -1.39937,1.75829 -4.14627,2.18717c-2.74688,0.42889 -5.55096,-0.67312 -5.55096,-0.67312c0,0 -2.35513,3.95586 -6.18536,5.08875c-3.83023,1.13291 -8.04152,-0.99836 -8.04152,-0.99836c0,0 -3.26544,2.85103 -4.83153,3.43677c-1.5661,0.58573 -4.41285,0.09231 -4.41285,0.09231" data-paper-data="{&quot;index&quot;:null}" fill="none" stroke="#d5a880" stroke-width="3" stroke-linecap="round"/><g stroke-linecap="round"><path d="M182.62245,10.65732l3.69062,-6.19629c0,0 6.96392,4.12643 9.41611,8.9972c2.32387,4.61588 5.68129,13.80752 5.68129,13.80752c0,0 5.64239,3.12261 8.87876,4.52378c3.56298,1.54257 11.61364,4.3483 11.61364,4.3483c0,0 -4.34564,9.36103 -7.21123,11.23964c-1.75245,1.14886 -8.72511,0.2076 -8.72511,0.2076" fill="url(#color-7)" stroke="#000000" stroke-width="0"/><path d="M183.6372,2.96812c0,0 10.03125,5.44886 12.45181,10.25514c2.26048,4.48843 5.35662,13.84987 5.35662,13.84987c0,0 5.14409,3.79303 8.15986,5.14369c3.63527,1.62811 12.14252,3.94902 12.14252,3.94902c0,0 -3.81891,9.22052 -5.80568,10.49562c-1.92415,1.23491 -7.59094,0.52698 -7.59094,0.52698" fill="none" stroke="#670808" stroke-width="3"/></g><g fill="#ff6a00" stroke="none" stroke-width="0" stroke-linecap="butt"><path d="M227.33643,9.27862l-11.29976,-25.69564l5.33678,-5.33678l11.29976,25.69564z"/><path d="M216.03668,3.94184l11.29976,-25.69564l5.33679,5.33678l-11.29976,25.69564z" data-paper-data="{&quot;index&quot;:null}"/></g><path d="M234.59789,-5.82469c-0.19187,10.90893 -10.64479,19.29739 -23.34725,18.73614c-12.70245,-0.56124 -22.84427,-9.85963 -22.65238,-20.76855c0.19187,-10.90893 10.64478,-19.29739 23.34722,-18.73615c12.70245,0.56124 22.84429,9.85963 22.6524,20.76854z" fill="none" stroke="#020007" stroke-width="3" stroke-linecap="butt"/><g stroke-linecap="round"><g><path d="M303.92528,-2.15715c0,0 -4.80761,4.30852 -7.70291,3.91994c-4.18356,-0.56148 -7.00086,-6.08113 -7.5743,-7.9205c-1.40155,-4.49568 -1.61054,-16.85571 -1.61054,-16.85571c0,0 -11.10828,-2.78422 -14.71906,-5.0527c-3.70683,-2.32884 -19.75277,-17.27067 -19.4675,-21.93701c0.38583,-6.31142 27.3031,-1.73933 27.3031,-1.73933" fill="url(#color-8)" stroke="#000000" stroke-width="0"/><path d="M252.62652,-47.57542c5.07115,6.00183 13.81229,15.8154 19.69194,19.50931c3.61078,2.26848 14.71906,5.0527 14.71906,5.0527c0,0 0.20899,12.36003 1.61054,16.85571c0.97029,3.11235 5.99158,7.5291 5.99158,7.5291" fill="none" stroke="#670808" stroke-width="3"/></g><g><path d="M214.22604,-52.85674c-0.34485,11.11462 -9.0341,22.59112 -14.29988,27.8569c-4.92569,4.92569 -17.20502,16.65352 -27.8569,11.51419" fill="url(#color-9)" stroke="#000000" stroke-width="0"/><path d="M212.74035,-44.31395c0,0 -7.5484,14.04834 -12.81418,19.31412c-4.92569,4.92569 -17.82842,11.32847 -17.82842,11.32847" fill="none" stroke="#670808" stroke-width="3"/></g><g><path d="M259.91137,-56.75672c2.1293,4.69754 -10.38215,21.88971 -10.38215,21.88971c0,0 4.66103,6.68452 2.83871,9.86835c-7.05234,12.32139 -30.75514,14.91735 -30.75514,14.91735c0,0 6.91082,-10.13181 5.14826,-13.52123c-1.21201,-2.33071 -10.80905,-0.72989 -14.93827,-3.62233c-5.30179,-3.71381 -9.11093,-23.96047 -9.11093,-23.96047" fill="url(#color-10)" stroke="#000000" stroke-width="0"/><path d="M257.6828,-50.25676c2.1293,4.69754 -8.15359,15.38977 -8.15359,15.38977c0,0 4.66103,6.68452 2.83871,9.86835c-7.05234,12.32139 -30.75514,14.91735 -30.75514,14.91735c0,0 6.91082,-10.13181 5.14826,-13.52123c-1.21201,-2.33071 -10.80905,-0.72989 -14.93827,-3.62233c-5.3018,-3.71381 -5.21097,-11.70343 -5.21097,-11.70343" fill="none" stroke="#670808" stroke-width="3"/></g></g></g></g></svg>