<svg version="1.1" xmlns="http://www.w3.org/2000/svg" xmlns:xlink="http://www.w3.org/1999/xlink" width="171.65041" height="167.73844" viewBox="0,0,171.65041,167.73844"><g transform="translate(-155.00222,-96.4314)"><g data-paper-data="{&quot;isPaintingLayer&quot;:true}" fill-rule="nonzero" stroke-linejoin="miter" stroke-miterlimit="10" stroke-dasharray="" stroke-dashoffset="0" style="mix-blend-mode: normal"><g data-paper-data="{&quot;index&quot;:null}"><path d="M286.54794,125.20681c0,0 2.82756,7.0549 4.20962,17.85115c2.02535,15.82139 3.05581,39.21261 1.39723,56.43422c-1.48676,15.43727 -29.68383,44.81093 -57.09757,45.3703c-26.73904,0.5456 -47.3438,-27.43053 -48.76655,-41.46912c-0.90331,-8.91321 -2.95991,-17.91727 -4.43428,-26.07435c-2.62701,-14.53424 0.70861,-25.44461 0.60567,-32.54721c-0.00186,-0.12803 0.31735,-5.1127 1.09837,-9.12374c0.6072,-3.11844 1.72029,-5.50142 1.72029,-5.50142" fill="#ae2e2e" stroke="#000000" stroke-width="3" stroke-linecap="butt"/><g stroke-linecap="butt"><g fill="#ae2e2e" stroke="#000000"><g stroke-width="0"><path d="M233.53312,249.34223c-14.66352,0.30536 -27.38706,-8.5952 -35.79101,-18.79846c17.74594,-2.16633 23.67065,9.83501 37.70594,8.9662c10.42088,-0.64508 28.64081,-14.45735 41.91424,-14.36187c-10.46294,12.25694 -27.29587,23.84982 -43.82915,24.19414z"/></g><path d="M217.07457,243.07299c-8.10054,-1.50732 -4.81062,10.38398 -4.81062,10.38398c0,0 -13.20436,-9.32419 -14.89995,-15.7985c-1.54747,-5.90871 -0.26641,-10.31809 -0.02793,-10.84321" data-paper-data="{&quot;index&quot;:null}" stroke-width="3"/><path d="M250.56213,244.56238c-7.10638,4.74012 -12.14597,17.50622 -12.14597,17.50622c0,0 -5.27781,-2.75633 -8.51651,-7.61649c-2.95575,-4.43556 -2.98628,-9.00406 -2.93901,-9.68472" data-paper-data="{&quot;index&quot;:null}" stroke-width="3"/><path d="M231.19132,244.83551c0,0 -4.30195,5.31433 -4.50981,10.77917c-0.10087,2.65156 0.22897,4.46756 0.22897,4.46756c0,0 -6.01187,-3.02142 -7.70106,-4.6902c-4.75589,-4.69848 -2.24993,-13.5959 -2.24993,-13.5959" data-paper-data="{&quot;index&quot;:null}" stroke-width="3"/><path d="M278.12571,222.76139c3.06742,8.44664 3.01707,8.63851 3.01707,8.63851h-0.00001c0,0 3.43428,12.07487 1.20488,18.97302c-2.16666,6.70398 -15.44682,9.82951 -15.44682,9.82951c0,0 2.79222,-6.43047 1.60956,-11.02871c-1.07124,-4.16506 -7.19525,-6.22888 -7.19525,-6.22888c0,0 -0.69463,5.7784 -3.50354,9.78178c-1.52675,2.17599 -6.21703,3.80879 -6.21703,3.80879c0,0 -0.43528,-3.76103 -1.51079,-6.2578c-0.8747,-2.03055 -3.173,-3.42469 -4.30387,-4.01025" stroke-width="2.5"/></g><g fill="none" stroke="none" stroke-width="1" font-family="sans-serif" font-weight="normal" font-size="12" text-anchor="start"/><g fill="none" stroke="none" stroke-width="1" font-family="sans-serif" font-weight="normal" font-size="12" text-anchor="start"/><g fill="none" stroke="none" stroke-width="1" font-family="sans-serif" font-weight="normal" font-size="12" text-anchor="start"/></g><path d="M244.00727,103.81207c-4.6946,-1.63915 -7.47007,9.13736 -7.47007,9.13736c0,0 -1.03561,-8.76333 -3.21321,-11.40549c-2.43692,-2.95678 -6.24803,-4.95637 -9.23204,-2.52578" fill="none" stroke="#000000" stroke-width="3" stroke-linecap="round"/><path d="M295.63415,108.99374c0,-1.58226 1.7672,-1.58226 1.7672,-1.58226h0.40173c1.55913,0.02344 3.18505,0.20078 4.5908,0.80501c6.88062,1.49835 10.81184,13.10922 3.46048,16.5662c-2.24957,1.05788 -5.63108,1.43806 -8.06529,1.9406c-0.11413,0.02357 -3.4382,0.57718 -3.64884,0.73065c-1.77706,1.29487 0.36551,5.47739 0.59157,6.85369c0,0 0.24993,1.56634 -1.49954,1.79013c-1.74945,0.22377 -1.99936,-1.34259 -1.99936,-1.34259c-0.5029,-3.26319 -2.85789,-6.835 0.59157,-9.69186c3.3148,-2.74534 10.46015,-0.63914 13.45985,-3.77505c2.76848,-2.89417 -0.28755,-9.61741 -4.03748,-10.07856c-1.03779,-0.48742 -2.27217,-0.65847 -3.44375,-0.63373h-0.40173c0,0 -1.7672,0 -1.7672,-1.58226z" fill="#000000" stroke="none" stroke-width="0.5" stroke-linecap="butt"/><path d="M278.03593,119.08771c0,0 22.61901,14.33077 28.00771,16.99449c6.20791,3.06867 18.95414,4.23658 18.95414,4.23658c0,0 -6.34151,18.16907 -11.80511,23.18258c-5.04343,4.62798 -31.64003,1.97314 -31.64003,1.97314" fill="#ae2e2e" stroke="#000000" stroke-width="0" stroke-linecap="round"/><path d="M306.03172,232.04132c0,-1.58226 1.7672,-1.58226 1.7672,-1.58226h0.40173c5.26854,0.16663 6.12211,2.72029 3.95951,6.65988c-0.8777,1.29636 -1.89047,2.54453 -3.11163,3.5946c-0.84613,0.72759 -1.50695,1.72082 -2.58196,2.14141c-4.46984,1.74883 -8.73803,-3.59099 -9.96748,-6.67009c-0.75046,-1.87953 -0.48614,-4.06635 -0.88333,-6.01641c-0.11087,-0.54431 -0.62361,-4.4439 -1.19948,-4.69427c-1.10994,-0.48259 -7.31561,0.73939 -8.86421,0.93978c0,0 -1.74944,0.22377 -1.99936,-1.34259c-0.24993,-1.56636 1.49951,-1.79013 1.49951,-1.79013c2.61277,-0.33061 8.92194,-1.71733 11.2222,-0.49897c1.04829,0.55526 2.13707,3.65638 2.39293,4.56141c0.89798,3.17644 0.30195,6.45814 2.21064,9.27886c1.76391,2.60674 3.02134,4.36639 5.67133,1.85334c0.93397,-0.8857 1.81937,-1.83163 2.51257,-2.87974c1.00591,-1.75889 1.7181,-2.11704 -0.86124,-1.97258h-0.40173c0,0 -1.7672,0 -1.7672,-1.58226z" fill="#000000" stroke="none" stroke-width="0.5" stroke-linecap="butt"/><path d="M165.50549,184.56595c-0.42861,1.53502 -2.14304,1.15127 -2.14304,1.15127l-0.88776,-0.33396c-2.87541,0.40528 -3.71464,0.60348 -3.75024,3.3627c-0.00664,0.51392 -0.38737,1.10628 -0.07976,1.54022c0.19716,0.27814 0.73031,-0.12333 1.09763,-0.10438c2.09531,0.10819 4.19044,0.45826 6.285,0.33893c4.98549,-0.28402 4.66146,-5.64249 8.20352,-7.74542c0.78455,-0.4658 1.87818,-0.1169 2.81728,-0.17536c0,0 1.7672,0 1.7672,1.58224c0,1.58226 -1.7672,1.58226 -1.7672,1.58226c-2.6382,-0.38553 -3.73931,4.57324 -5.66645,6.08348c-3.20908,2.51483 -8.30752,2.1489 -12.1743,1.46191c-1.06729,-0.18962 -2.43173,-0.09345 -3.12519,-0.84419c-1.96001,-2.12195 -0.9922,-6.84039 0.83511,-8.68292c1.17519,-1.18496 3.44475,-1.28217 4.97636,-1.52097l2.32605,0.38541c0,0 1.71444,0.38374 1.28584,1.91877z" fill="#000000" stroke="none" stroke-width="0.5" stroke-linecap="butt"/><path d="M184.45382,132.28423c0,0 1.00544,-3.44375 3.4357,-7.54776c1.46907,-2.48082 3.45875,-5.2029 6.06171,-7.55141c2.29982,-2.07498 5.22661,-3.92591 8.42586,-5.35128c3.5798,-1.59493 7.50085,-2.65701 11.2665,-2.90398c3.49819,-0.22943 9.00711,1.08508 13.71212,2.48394c4.88605,1.45267 8.90515,2.99636 8.90515,2.99636c0,0 5.30256,-2.77502 12.50169,-4.66052c5.64743,-1.4791 12.46196,-2.41079 18.79936,-1.02605c2.60556,0.56931 5.16417,1.81048 7.54228,3.43583c2.67803,1.83031 5.12713,4.14785 7.15671,6.54184c2.22951,2.62985 3.85424,5.27704 5.04422,7.98514" fill="#ae2e2e" stroke="#000000" stroke-width="0" stroke-linecap="butt"/><g stroke-linecap="round"><path d="M230.65896,217.045l-26.90732,25.90082c0,0 -2.90838,-0.55269 -3.45288,-3.08838c-0.29944,-1.39447 1.97858,-4.8666 1.48259,-5.71213c-1.60809,-2.74135 -7.13627,-6.72369 -7.13627,-6.72369c0,0 -5.86113,-0.14831 -8.12664,-0.53546c-2.27859,-0.38941 -7.97257,-4.90769 -7.97257,-4.90769c0,0 4.05617,-1.40147 5.45446,-2.95422c1.49271,-1.6576 3.23708,-6.6974 3.23708,-6.6974c0,0 -9.68088,4.52387 -13.58743,2.75584c-4.0161,-1.81762 -10.18969,-13.51685 -10.18969,-13.51685c0,0 5.7939,-2.08734 7.78762,-4.36299c2.6039,-2.97214 7.03788,-4.48204 6.49985,-11.94493c-0.29812,-4.13506 -3.00889,-6.03544 -5.29539,-8.32473c-1.84015,-1.8424 -3.40552,-3.93669 -3.21735,-7.6504c0.19129,-3.77551 2.20359,-7.74558 4.40514,-11.17828c2.65476,-4.13935 2.82945,-9.83933 3.17356,-11.13262c0.62949,-2.36583 -1.11416,-1.9846 -1.11416,-1.9846l20.97861,-3.15847" fill="#ae2e2e" stroke="none" stroke-width="0"/><path d="M196.98713,232.10578c0,0 -1.61228,-3.31666 -3.60627,-4.07842c-2.09639,-0.80088 -5.70134,-0.94279 -6.86245,-1.1412c-2.27859,-0.38941 -7.97257,-4.90769 -7.97257,-4.90769c0,0 4.05617,-1.40147 5.45446,-2.95422c1.49271,-1.6576 3.23708,-6.6974 3.23708,-6.6974c0,0 -9.68088,4.52387 -13.58743,2.75584c-4.0161,-1.81762 -10.18969,-13.51685 -10.18969,-13.51685c0,0 5.7939,-2.08734 7.78762,-4.36299c2.6039,-2.97214 7.03788,-4.48204 6.49985,-11.94493c-0.29812,-4.13506 -3.00889,-6.03544 -5.29539,-8.32473c-1.84015,-1.8424 -3.40552,-3.93669 -3.21735,-7.6504c0.17003,-3.35574 1.79221,-6.91949 3.70988,-10.13355c2.84156,-4.76256 2.48455,-9.80283 2.8604,-11.21537c0.62949,-2.36583 -0.10573,-2.94656 -0.10573,-2.94656" fill="none" stroke="#000000" stroke-width="3"/></g><g stroke="#000000" stroke-linecap="round"><path d="M293.70128,173.1358c0,0 12.6424,7.27587 16.93999,18.20256c0.97112,2.46908 1.49215,5.75005 1.45836,9.22898c-0.03657,3.76583 -0.72322,7.76358 -2.19281,11.21466c-3.18085,7.46968 -9.48784,12.69363 -10.3869,13.53167c-1.05648,0.98476 0.84725,-1.93224 -0.29811,-4.14343c-1.32366,-2.55544 -5.6937,-4.46414 -6.83416,-3.10001c-3.36332,4.023 -6.08313,11.24523 -3.86456,16.18164c1.24383,2.76757 7.67666,5.01927 7.67666,5.01927c0,0 -3.70021,1.66479 -8.44419,3.24178c-1.90332,0.63272 -11.68706,2.0086 -17.66497,-1.10241c-6.21939,-3.23666 -8.60251,-10.9785 -8.60251,-10.9785" fill="#ae2e2e" stroke-width="0"/><path d="M293.93037,173.1358c0,0 12.6424,7.27587 16.93999,18.20256c0.97112,2.46908 1.49215,5.75005 1.45835,9.22898c-0.03657,3.76583 -0.72323,7.76358 -2.19281,11.21466c-3.18085,7.46968 -9.48784,12.69363 -10.38689,13.53167c-1.05648,0.98476 0.84725,-1.93224 -0.29811,-4.14343c-1.32366,-2.55544 -5.69369,-4.46414 -6.83415,-3.10001c-3.36332,4.023 -6.08313,11.24523 -3.86456,16.18164c1.24383,2.76757 7.67665,5.01927 7.67665,5.01927c0,0 -3.30423,2.11107 -8.29751,3.9769c-1.7346,0.64817 -13.63046,0.72589 -19.784,-2.47818c-6.07045,-3.1608 -6.41126,-9.59964 -6.41126,-9.59964" fill="none" stroke-width="3"/></g><path d="M281.18874,118.70156c0,0 3.27841,3.73154 8.11795,7.52098c5.31101,4.15863 13.52334,8.46592 16.34284,9.85965c6.20791,3.06867 18.95414,4.23658 18.95414,4.23658c0,0 -6.34154,18.16907 -11.80513,23.18258c-5.04345,4.62798 -21.87335,9.03334 -21.87335,9.03334" fill="#ae2e2e" stroke="#000000" stroke-width="3" stroke-linecap="round"/><g data-paper-data="{&quot;index&quot;:null}" stroke="#000000" stroke-linecap="butt"><path d="M296.76731,154.66289c0.54609,4.94942 1.79087,11.74385 6.393,13.97089c3.43064,1.66014 7.691,1.7391 7.691,1.7391c0,0 -5.5177,13.22614 -11.66015,14.26686c-5.60581,0.94978 -21.88051,-4.52255 -22.49502,-4.84786" data-paper-data="{&quot;index&quot;:null}" fill="#ae2e2e" stroke-width="0"/><path d="M300.11141,163.4077c0.95316,8.63893 10.8929,6.69232 10.8929,6.69232c0,0 -5.51774,13.22614 -11.66017,14.26686" data-paper-data="{&quot;index&quot;:null}" fill="none" stroke-width="3"/></g><path d="M191.11568,131.83415c0,0 0.90188,-2.82278 3.08183,-6.18678c1.31776,-2.03349 3.10253,-4.26473 5.4374,-6.18975c2.06296,-1.70083 4.68829,-3.21801 7.55803,-4.38637c3.21112,-1.30732 6.72831,-2.17791 10.10611,-2.38034c3.13789,-0.18807 8.07944,0.8894 12.29986,2.03603c4.38283,1.19073 7.98799,2.45606 7.98799,2.45606c0,0 4.75642,-2.27463 11.21408,-3.82017c5.06578,-1.21239 11.17844,-1.9761 16.86315,-0.84103c2.33721,0.46665 4.63229,1.48401 6.76546,2.8163c2.40219,1.50028 4.59908,3.39991 6.41961,5.36222c1.99987,2.15563 3.45728,4.32551 4.5247,6.54528" fill="#ae2e2e" stroke="#000000" stroke-width="0" stroke-linecap="butt"/><g stroke="#000000" stroke-linecap="butt"><path d="M177.60682,158.75644c-0.20162,-3.54838 -4.59714,-5.85124 -7.18401,-9.72904c-1.32907,-1.99231 -3.66245,-4.95563 -3.69158,-7.88754c-0.04891,-4.92329 2.95363,-9.75804 2.95363,-9.75804c0,0 3.05882,5.563 9.42156,4.72643c2.30157,-0.3026 7.3526,-7.48838 9.50019,-8.6864c3.27077,-1.82456 4.72251,10.6879 5.09177,10.88957" data-paper-data="{&quot;index&quot;:null}" fill="#ae2e2e" stroke-width="0"/><path d="M172.08771,160.43434c0,0 5.502,-7.5865 1.03191,-9.46962c-13.82085,-5.8223 -3.89483,-20.97555 -3.89483,-20.97555c0,0 5.05987,10.43609 10.76818,5.69663c4.08074,-3.38816 7.02095,-9.17246 7.02095,-9.17246" data-paper-data="{&quot;index&quot;:null}" fill="none" stroke-width="3"/></g><path d="M184.45382,131.69862c0,0 1.00544,-3.44375 3.4357,-7.54776c1.46907,-2.48082 3.45874,-5.2029 6.06171,-7.55141c2.29982,-2.07498 5.22661,-3.92591 8.42586,-5.35128c3.5798,-1.59491 7.50085,-2.657 11.2665,-2.90398c3.49819,-0.22943 9.00709,1.08508 13.7121,2.48394c4.88605,1.45267 8.90514,2.99636 8.90514,2.99636c0,0 5.30258,-2.77501 12.50169,-4.66051c5.64743,-1.4791 12.46196,-2.41081 18.79937,-1.02606c2.60556,0.56931 5.16417,1.81048 7.54228,3.43583c2.67803,1.83031 5.12716,4.14785 7.15671,6.54184c2.22951,2.62983 3.85424,5.27704 5.04422,7.98514" fill="none" stroke="#000000" stroke-width="3" stroke-linecap="butt"/></g><path d="M187.43538,131.9058c7.96189,-6.17958 26.93305,-6.14715 49.25847,-7.65046c33.17158,-2.23365 44.81017,10.36952 44.81017,10.36952c0,0 -86.08851,1.09435 -95.7379,1.21701z" fill="#ae2e2e" stroke="#000000" stroke-width="0" stroke-linecap="round"/><path d="M183.26466,170.81215c-0.41726,-29.38185 23.06321,-36.62332 52.44507,-37.04057c29.38185,-0.41726 53.53883,6.14771 53.95607,35.52956c0.41726,29.38185 -23.06319,53.53883 -52.44507,53.95607c-29.38185,0.41726 -53.53883,-23.06321 -53.95607,-52.44505z" fill="#ffdfc2" stroke="#000000" stroke-width="3" stroke-linecap="butt"/><path d="M191.69724,199.15366c0,0 6.16419,-4.46424 10.71501,-4.61725c16.5868,-0.55766 15.50071,9.48628 15.50071,9.48628c0,0 -5.56593,0.05863 -7.44551,0.30654c-1.21248,0.15993 -2.73633,1.03646 -2.73633,1.03646c0,0 2.06436,8.25583 2.49929,9.82635c0.17442,0.62984 -5.25718,-2.47298 -5.25718,-2.47298" fill="#000000" stroke="#000000" stroke-width="3" stroke-linecap="round"/><path d="M262.36886,215.87641c0,0 -5.01924,1.95717 -4.79108,1.44261c0.56891,-1.28302 3.37057,-8.05545 3.37057,-8.05545c0,0 -1.18747,-0.93925 -2.20019,-1.22865c-1.56991,-0.44865 -6.38789,2.6913 -6.38789,2.6913c0,0 -0.64296,-8.2157 2.19658,-11.66472c1.36669,-1.66004 6.5692,-2.08927 11.1376,-1.25407c3.85756,0.70526 11.07987,7.61401 11.07987,7.61401" data-paper-data="{&quot;index&quot;:null}" fill="#000000" stroke="#000000" stroke-width="3" stroke-linecap="round"/><path d="M252.52252,204.77561c0,0 -1.80813,1.33435 -4.57213,1.03483c-2.76398,-0.29949 -5.18546,-2.09219 -5.18546,-2.09219c0,0 -3.30202,3.20813 -7.29505,3.307c-3.99304,0.09888 -7.506,-3.05332 -7.506,-3.05332c0,0 -3.89402,1.90474 -5.55852,2.06348c-1.66449,0.15873 -4.2853,-1.05735 -4.2853,-1.05735" data-paper-data="{&quot;index&quot;:null}" fill="none" stroke="#000000" stroke-width="3" stroke-linecap="round"/><path d="M305.37457,204.17249c0,0 -15.56684,12.56613 -15.95101,14.44013c-0.41548,2.0267 -6.99485,3.73498 -6.99485,3.73498c0,0 -7.57646,-5.00915 -8.41288,-8.13868c-0.67907,-2.5408 -0.53762,-6.00729 -1.08023,-5.53327c-0.81709,0.7138 -2.71031,1.59934 -3.33477,3.03885c-1.01513,2.3401 -0.54339,5.32618 -0.54339,5.32618c0,0 -4.1655,-4.55498 -5.07799,-6.50219c-1.08297,-2.31096 -0.9964,-6.46012 -0.9964,-6.46012c0,0 0.14916,-7.47822 3.36664,-10.94456c4.61006,-4.96663 18.69146,-12.18935 21.65106,-16.00817c2.95958,-3.81881 -1.95849,-7.11778 0.34587,-12.37504c2.30437,-5.25727 9.86158,-10.91258 9.86158,-10.91258" fill="#ae2e2e" stroke="#000000" stroke-width="0" stroke-linecap="round"/><g><g stroke-linecap="round"><path d="M216.08687,192.21683c0,0 -11.03346,-0.22787 -15.85082,-1.59036c-4.49535,-1.2714 -13.08724,-5.32529 -13.21155,-7.56387c-0.08599,-1.54879 3.04207,-2.72667 3.04207,-2.72667c0,0 -8.2353,-1.11424 -8.69617,-6.08981c-0.36271,-3.916 2.18544,-5.29945 2.18544,-5.29945c0,0 2.36025,-8.74678 6.19119,-12.62053c3.83094,-3.87377 11.95417,-10.00831 24.99129,-6.43442c13.03711,3.57389 17.91328,12.05216 18.42337,25.39934" fill="#26134d" stroke="#000000" stroke-width="0"/><path d="M216.08687,192.21683c-6.17233,0.83347 -11.03346,-0.22787 -15.85082,-1.59036c-4.49535,-1.2714 -13.08724,-5.32529 -13.21155,-7.56387c-0.08599,-1.54879 3.04207,-2.72667 3.04207,-2.72667c0,0 -8.14656,-1.29173 -8.60742,-6.2673c-0.36271,-3.91599 2.09669,-5.12197 2.09669,-5.12197c0,0 2.36025,-8.74678 6.19119,-12.62053c3.83094,-3.87377 11.95417,-10.00831 24.99129,-6.43442c13.03711,3.57389 17.91328,12.05216 18.42337,25.39934z" fill="none" stroke="#100030" stroke-width="2"/></g><path d="M233.30058,174.11262c0,10.3206 -9.74659,18.42811 -21.76962,18.10861c-12.02303,-0.3195 -21.7696,-8.945 -21.7696,-19.26559c0,-10.3206 9.74658,-18.42811 21.7696,-18.10861c12.02303,0.3195 21.76962,8.945 21.76962,19.26559z" fill="#050010" stroke="#020007" stroke-width="0" stroke-linecap="butt"/></g><path d="M221.67774,170.46893l6.21893,-8.38305l2.98569,4.18113c0,0 -3.20249,4.31693 -4.35739,5.87373c-0.76216,1.02737 -1.89771,2.55808 -1.89771,2.55808l6.44698,8.20965l-2.88809,4.28387l-6.4097,-8.16221l-6.21893,8.38308l-2.9857,-4.18114l6.25508,-8.4318l-6.44697,-8.20967l2.88808,-4.28386z" data-paper-data="{&quot;index&quot;:null}" fill="#ff6a00" stroke="#000000" stroke-width="0" stroke-linecap="round"/><path d="M233.30059,174.11262c0,10.3206 -9.74659,18.42811 -21.76962,18.10861c-12.02303,-0.3195 -21.7696,-8.945 -21.7696,-19.26559c0,-10.3206 9.74658,-18.42811 21.7696,-18.10861c12.02303,0.3195 21.76962,8.945 21.76962,19.26559z" fill="none" stroke="#020007" stroke-width="3" stroke-linecap="butt"/><g data-paper-data="{&quot;index&quot;:null}"><g stroke-linecap="round"><path d="M240.26012,175.29107c0.51008,-13.34718 5.38625,-21.82545 18.42337,-25.39934c13.03712,-3.57389 21.16036,2.56066 24.99129,6.43442c3.83094,3.87375 6.19119,12.62053 6.19119,12.62053c0,0 2.54815,1.38345 2.18544,5.29945c-0.46087,4.97557 -8.69617,6.08981 -8.69617,6.08981c0,0 3.12806,1.17788 3.04207,2.72667c-0.1243,2.23858 -8.7162,6.29247 -13.21155,7.56387c-4.81735,1.36249 -15.85082,1.59036 -15.85082,1.59036" fill="#26134d" stroke="#000000" stroke-width="0"/><path d="M240.26012,175.29105c0.51008,-13.34718 5.38625,-21.82545 18.42337,-25.39934c13.03712,-3.57389 21.16036,2.56066 24.99129,6.43442c3.83094,3.87375 6.19119,12.62053 6.19119,12.62053c0,0 2.45941,1.20598 2.09669,5.12197c-0.46087,4.97557 -8.60742,6.2673 -8.60742,6.2673c0,0 3.12806,1.17788 3.04207,2.72667c-0.1243,2.23858 -8.7162,6.29247 -13.21155,7.56387c-4.81735,1.36249 -9.67849,2.42383 -15.85082,1.59036z" fill="none" stroke="#100030" stroke-width="2"/></g><path d="M261.89086,154.84703c12.02303,-0.3195 21.7696,7.78802 21.7696,18.10861c0,10.3206 -9.74658,18.94609 -21.7696,19.26559c-12.02303,0.3195 -21.76962,-7.78802 -21.76962,-18.10861c0,-10.3206 9.74659,-18.94609 21.76962,-19.26559z" fill="#050010" stroke="#020007" stroke-width="0" stroke-linecap="butt"/></g><g fill="none" stroke-width="3"><path d="M247.52966,186.10011l16.49695,-22.92168" stroke="#ffe200" stroke-linecap="round"/><path d="M264.22951,185.731l-16.90279,-22.18348" stroke="#00ff31" stroke-linecap="round"/><path d="M247.21206,163.39696l16.87016,-0.29578l0.26203,22.78041l-16.87017,0.29578z" stroke="#ff0000" stroke-linecap="butt"/></g><path d="M283.65829,174.11262c0,10.3206 -9.74659,18.42811 -21.76962,18.10861c-12.02303,-0.3195 -21.7696,-8.945 -21.7696,-19.26559c0,-10.3206 9.74658,-18.42811 21.7696,-18.10861c12.02303,0.3195 21.76962,8.945 21.76962,19.26559z" fill="none" stroke="#020007" stroke-width="3" stroke-linecap="butt"/><g data-paper-data="{&quot;index&quot;:null}" stroke="#000000" stroke-linecap="round"><g><path d="M217.42837,130.12295c0,0 1.22501,3.94099 -0.85222,7.78385c-3.04038,5.6247 -10.16903,12.03456 -13.9595,13.77155c-4.38344,2.00876 -22.40449,6.16721 -23.2259,-0.22489c-0.69452,-5.40461 15.5029,-21.39505 15.5029,-21.39505" fill="#ae2e2e" stroke-width="0"/><path d="M245.36117,127.67148c6.09486,2.43083 6.61818,25.76853 5.02875,29.45827c-0.93678,2.17465 -3.03851,6.25501 -6.77035,8.1724c-2.82779,1.45288 -7.62568,1.07291 -7.62568,1.07291c0,0 7.35583,-7.83462 1.38774,-12.48971c-5.96809,-4.65511 -15.75138,-0.49352 -19.08151,-3.46937c-3.33012,-2.97587 -2.42856,-24.82612 -2.42856,-24.82612" fill="#ae2e2e" stroke-width="0"/><g><path d="M287.67092,142.69698c0,0 -0.53442,4.14718 -4.14854,5.18448c-3.97727,1.14152 -13.36012,-5.73214 -17.59848,-7.67441c-8.24031,-3.77618 -21.22835,1.53864 -21.22835,1.53864l-4.05188,-15.23783l38.36862,-2.41034z" data-paper-data="{&quot;index&quot;:null}" fill="#ae2e2e" stroke-width="0"/><g stroke-width="3"><path d="M245.36117,141.39562c6.09486,2.43083 6.61818,12.04437 5.02875,15.73411c-0.93678,2.17465 -3.03851,6.25501 -6.77035,8.1724c-2.82779,1.45288 -7.62568,1.07291 -7.62568,1.07291c0,0 7.35583,-7.83462 1.38774,-12.48971c-5.96809,-4.65511 -15.75138,-0.49352 -19.08151,-3.46937c-3.33012,-2.97587 -2.42856,-11.10196 -2.42856,-11.10196" fill="#ae2e2e"/><path d="M215.24996,139.27238c0,0 -6.25313,9.48223 -12.63327,12.40597c-8.0897,3.70716 -22.75425,1.47148 -22.75425,1.47148" fill="#ae2e2e"/><path d="M288.10658,142.39483c0,0 -0.53442,4.14717 -4.14854,5.18447c-3.97727,1.14152 -13.36012,-5.73214 -17.59848,-7.67439c-8.24031,-3.77618 -21.22835,1.53864 -21.22835,1.53864" data-paper-data="{&quot;index&quot;:null}" fill="none"/></g></g></g><path d="M283.13108,209.86269c0,0 -0.56541,3.94462 -0.94958,5.81862c-0.41548,2.0267 0.24723,6.66629 0.24723,6.66629c0,0 -7.57646,-5.00915 -8.41288,-8.13868c-0.67907,-2.5408 -0.53762,-6.00729 -1.08023,-5.53327c-0.81709,0.7138 -2.71031,1.59934 -3.33477,3.03885c-1.01513,2.3401 -0.54339,5.32618 -0.54339,5.32618c0,0 -4.1655,-4.55498 -5.07799,-6.50219c-1.08297,-2.31096 -0.9964,-6.46012 -0.9964,-6.46012c0,0 0.14916,-7.47822 3.36664,-10.94456c4.61006,-4.96663 18.69146,-12.18935 21.65106,-16.00817c2.95958,-3.81881 -1.95849,-7.11778 0.34587,-12.37504c2.30437,-5.25727 9.86158,-10.91258 9.86158,-10.91258" fill="#ae2e2e" stroke-width="3"/><g><path d="M172.94693,170.60724c0.94096,-0.34486 3.79901,-21.71273 5.46294,-21.87374c3.2371,-0.31325 9.79661,-0.14187 10.97683,1.04624c2.18049,2.19506 3.87394,5.69161 4.46825,10.14848c1.31706,9.8768 -0.8831,23.30066 -1.83341,29.45415c-0.44147,2.85869 -0.47324,5.51959 0.26028,7.7341c0.76199,2.30046 2.34981,4.11923 5.16204,5.17771c4.24118,1.59631 16.40706,1.73867 16.40706,1.73867c0,0 3.89677,15.19569 -4.66932,17.55721c-3.92107,1.08097 -23.66935,-12.59551 -27.77871,-18.86834c-0.41202,-0.62894 -5.7687,-28.99805 -6.09501,-29.61541" fill="#ae2e2e" stroke-width="0"/><path d="M208.84307,221.99782c8.56608,-2.36151 5.00786,-17.96499 5.00786,-17.96499c0,0 -12.1659,-0.14238 -16.40706,-1.73867c-4.9948,-1.87995 -6.78116,-5.33702 -6.78116,-5.33702c0,0 9.11235,-35.65378 0.19407,-47.69987" fill="none" stroke-width="3"/></g></g></g></g></svg>