<svg version="1.1" xmlns="http://www.w3.org/2000/svg" xmlns:xlink="http://www.w3.org/1999/xlink" width="186.08305" height="153.67043" viewBox="0,0,186.08305,153.67043"><defs><linearGradient x1="326.8699" y1="103.49163" x2="325.00614" y2="115.66509" gradientUnits="userSpaceOnUse" id="color-1"><stop offset="0" stop-color="#ffc7c7"></stop><stop offset="1" stop-color="#de4747"></stop></linearGradient><linearGradient x1="333.0339" y1="108.20862" x2="321.8147" y2="113.28767" gradientUnits="userSpaceOnUse" id="color-2"><stop offset="0" stop-color="#ffc7c7"></stop><stop offset="1" stop-color="#de4747"></stop></linearGradient><linearGradient x1="327.79469" y1="106.24773" x2="319.01041" y2="116.40812" gradientUnits="userSpaceOnUse" id="color-3"><stop offset="0" stop-color="#ffc7c7"></stop><stop offset="1" stop-color="#de4747"></stop></linearGradient><linearGradient x1="320.24867" y1="107.30197" x2="322.86466" y2="115.91223" gradientUnits="userSpaceOnUse" id="color-4"><stop offset="0" stop-color="#ffc7c7"></stop><stop offset="1" stop-color="#de4747"></stop></linearGradient><linearGradient x1="330.29187" y1="109.56947" x2="322.87826" y2="120.76926" gradientUnits="userSpaceOnUse" id="color-5"><stop offset="0" stop-color="#ffc7c7"></stop><stop offset="1" stop-color="#de4747"></stop></linearGradient><linearGradient x1="331.31264" y1="117.12006" x2="322.3159" y2="116.92415" gradientUnits="userSpaceOnUse" id="color-6"><stop offset="0" stop-color="#ffc7c7"></stop><stop offset="1" stop-color="#de4747"></stop></linearGradient><linearGradient x1="324.56304" y1="109.91059" x2="313.78807" y2="122.37355" gradientUnits="userSpaceOnUse" id="color-7"><stop offset="0" stop-color="#ffc7c7"></stop><stop offset="1" stop-color="#d91a1a"></stop></linearGradient><linearGradient x1="315.30694" y1="111.20375" x2="318.51576" y2="121.76528" gradientUnits="userSpaceOnUse" id="color-8"><stop offset="0" stop-color="#ffc7c7"></stop><stop offset="1" stop-color="#d91a1a"></stop></linearGradient><linearGradient x1="327.62615" y1="113.9851" x2="318.53245" y2="127.72301" gradientUnits="userSpaceOnUse" id="color-9"><stop offset="0" stop-color="#ffc7c7"></stop><stop offset="1" stop-color="#d91a1a"></stop></linearGradient><linearGradient x1="328.87825" y1="123.24684" x2="317.84264" y2="123.00652" gradientUnits="userSpaceOnUse" id="color-10"><stop offset="0" stop-color="#ffc7c7"></stop><stop offset="1" stop-color="#d91a1a"></stop></linearGradient><linearGradient x1="319.71041" y1="114.93865" x2="307.41689" y2="128.84293" gradientUnits="userSpaceOnUse" id="color-11"><stop offset="0" stop-color="#ffc7c7"></stop><stop offset="1" stop-color="#d91a1a"></stop></linearGradient><linearGradient x1="308.26264" y1="115.61433" x2="313.26894" y2="128.56031" gradientUnits="userSpaceOnUse" id="color-12"><stop offset="0" stop-color="#ffc7c7"></stop><stop offset="1" stop-color="#d91a1a"></stop></linearGradient><linearGradient x1="323.92317" y1="120.1051" x2="313.85132" y2="135.69408" gradientUnits="userSpaceOnUse" id="color-13"><stop offset="0" stop-color="#ffc7c7"></stop><stop offset="1" stop-color="#d91a1a"></stop></linearGradient><linearGradient x1="326.36116" y1="131.31063" x2="312.54456" y2="129.98282" gradientUnits="userSpaceOnUse" id="color-14"><stop offset="0" stop-color="#ffc7c7"></stop><stop offset="1" stop-color="#d91a1a"></stop></linearGradient><linearGradient x1="311.9728" y1="123.10735" x2="300.79759" y2="134.89643" gradientUnits="userSpaceOnUse" id="color-15"><stop offset="0" stop-color="#ffc7c7"></stop><stop offset="1" stop-color="#d91a1a"></stop></linearGradient><linearGradient x1="299.17234" y1="121.56354" x2="307.35337" y2="135.7497" gradientUnits="userSpaceOnUse" id="color-16"><stop offset="0" stop-color="#ffc7c7"></stop><stop offset="1" stop-color="#d91a1a"></stop></linearGradient><linearGradient x1="317.73974" y1="129.20081" x2="309.40294" y2="143.14229" gradientUnits="userSpaceOnUse" id="color-17"><stop offset="0" stop-color="#ffc7c7"></stop><stop offset="1" stop-color="#d91a1a"></stop></linearGradient><linearGradient x1="322.67986" y1="141.11006" x2="306.81256" y2="137.05983" gradientUnits="userSpaceOnUse" id="color-18"><stop offset="0" stop-color="#ffc7c7"></stop><stop offset="1" stop-color="#d91a1a"></stop></linearGradient><linearGradient x1="318.09956" y1="121.8736" x2="305.80362" y2="138.08828" gradientUnits="userSpaceOnUse" id="color-19"><stop offset="0" stop-color="#e65555" stop-opacity="0"></stop><stop offset="1" stop-color="#e65555"></stop></linearGradient><linearGradient x1="302.42212" y1="121.73565" x2="295.04116" y2="136.0507" gradientUnits="userSpaceOnUse" id="color-20"><stop offset="0" stop-color="#ff0000"></stop><stop offset="1" stop-color="#e6cccc"></stop></linearGradient><linearGradient x1="313.74869" y1="130.0888" x2="301.34409" y2="140.36135" gradientUnits="userSpaceOnUse" id="color-21"><stop offset="0" stop-color="#ff0000"></stop><stop offset="1" stop-color="#e6cccc"></stop></linearGradient><linearGradient x1="321.35126" y1="137.49209" x2="309.55844" y2="148.46154" gradientUnits="userSpaceOnUse" id="color-22"><stop offset="0" stop-color="#ff0000"></stop><stop offset="1" stop-color="#e6cccc"></stop></linearGradient><linearGradient x1="234.53898" y1="190.2047" x2="243.23597" y2="240.42618" gradientUnits="userSpaceOnUse" id="color-23"><stop offset="0" stop-color="#400000"></stop><stop offset="1" stop-color="#8b1e1e"></stop></linearGradient><linearGradient x1="234.53898" y1="190.2047" x2="243.23597" y2="240.42618" gradientUnits="userSpaceOnUse" id="color-24"><stop offset="0" stop-color="#4c0000"></stop><stop offset="1" stop-color="#400000"></stop></linearGradient><linearGradient x1="259.61127" y1="184.20604" x2="271.78104" y2="243.43773" gradientUnits="userSpaceOnUse" id="color-25"><stop offset="0" stop-color="#400000"></stop><stop offset="1" stop-color="#8b1e1e"></stop></linearGradient><linearGradient x1="259.61127" y1="184.20604" x2="271.78104" y2="243.43773" gradientUnits="userSpaceOnUse" id="color-26"><stop offset="0" stop-color="#4c0000"></stop><stop offset="1" stop-color="#400000"></stop></linearGradient><linearGradient x1="203.66773" y1="171.91374" x2="147.45847" y2="171.91374" gradientUnits="userSpaceOnUse" id="color-27"><stop offset="0" stop-color="#f06363"></stop><stop offset="1" stop-color="#c31c1c"></stop></linearGradient><radialGradient cx="175.53133" cy="172.65087" r="28.10463" gradientUnits="userSpaceOnUse" id="color-28"><stop offset="0" stop-color="#ff0000" stop-opacity="0"></stop><stop offset="1" stop-color="#ff0000" stop-opacity="0.52419"></stop></radialGradient><radialGradient cx="221.57886" cy="186.84627" r="33.42669" gradientUnits="userSpaceOnUse" id="color-29"><stop offset="0" stop-color="#ff0000" stop-opacity="0"></stop><stop offset="1" stop-color="#ff0000" stop-opacity="0.52419"></stop></radialGradient><linearGradient x1="186.84195" y1="156.81318" x2="196.97891" y2="165.09738" gradientUnits="userSpaceOnUse" id="color-30"><stop offset="0" stop-color="#ff0000"></stop><stop offset="1" stop-color="#e6cccc"></stop></linearGradient><linearGradient x1="250.51876" y1="161.6939" x2="260.65576" y2="169.97811" gradientUnits="userSpaceOnUse" id="color-31"><stop offset="0" stop-color="#ff0000"></stop><stop offset="1" stop-color="#e6cccc"></stop></linearGradient><linearGradient x1="173.3707" y1="170.53629" x2="183.5077" y2="178.8205" gradientUnits="userSpaceOnUse" id="color-32"><stop offset="0" stop-color="#ff0000"></stop><stop offset="1" stop-color="#e6cccc"></stop></linearGradient><linearGradient x1="241.01467" y1="176.29291" x2="251.15168" y2="184.57713" gradientUnits="userSpaceOnUse" id="color-33"><stop offset="0" stop-color="#ff0000"></stop><stop offset="1" stop-color="#e6cccc"></stop></linearGradient><linearGradient x1="170.50422" y1="186.44978" x2="180.64122" y2="194.73399" gradientUnits="userSpaceOnUse" id="color-34"><stop offset="0" stop-color="#ff0000"></stop><stop offset="1" stop-color="#e6cccc"></stop></linearGradient><linearGradient x1="237.99741" y1="191.90486" x2="248.13442" y2="200.18908" gradientUnits="userSpaceOnUse" id="color-35"><stop offset="0" stop-color="#ff0000"></stop><stop offset="1" stop-color="#e6cccc"></stop></linearGradient><linearGradient x1="171.8953" y1="202.15197" x2="182.0323" y2="210.43618" gradientUnits="userSpaceOnUse" id="color-36"><stop offset="0" stop-color="#ff0000"></stop><stop offset="1" stop-color="#e6cccc"></stop></linearGradient><linearGradient x1="209.13724" y1="152.93262" x2="219.27424" y2="163.19484" gradientUnits="userSpaceOnUse" id="color-37"><stop offset="0" stop-color="#ff0000"></stop><stop offset="1" stop-color="#e6cccc"></stop></linearGradient><linearGradient x1="229.73119" y1="148.86468" x2="239.86819" y2="159.12689" gradientUnits="userSpaceOnUse" id="color-38"><stop offset="0" stop-color="#ff0000"></stop><stop offset="1" stop-color="#e6cccc"></stop></linearGradient><linearGradient x1="199.6331" y1="170.65191" x2="209.77016" y2="180.91412" gradientUnits="userSpaceOnUse" id="color-39"><stop offset="0" stop-color="#ff0000"></stop><stop offset="1" stop-color="#e6cccc"></stop></linearGradient><linearGradient x1="221.13176" y1="168.15564" x2="231.26876" y2="178.41785" gradientUnits="userSpaceOnUse" id="color-40"><stop offset="0" stop-color="#ff0000"></stop><stop offset="1" stop-color="#e6cccc"></stop></linearGradient><linearGradient x1="196.76665" y1="189.99149" x2="206.90365" y2="200.2537" gradientUnits="userSpaceOnUse" id="color-41"><stop offset="0" stop-color="#ff0000"></stop><stop offset="1" stop-color="#e6cccc"></stop></linearGradient><linearGradient x1="218.26528" y1="187.49521" x2="228.40228" y2="197.75743" gradientUnits="userSpaceOnUse" id="color-42"><stop offset="0" stop-color="#ff0000"></stop><stop offset="1" stop-color="#e6cccc"></stop></linearGradient><linearGradient x1="194.19058" y1="207.60465" x2="204.32754" y2="217.86685" gradientUnits="userSpaceOnUse" id="color-43"><stop offset="0" stop-color="#ff0000"></stop><stop offset="1" stop-color="#e6cccc"></stop></linearGradient><linearGradient x1="215.6892" y1="205.10837" x2="225.8262" y2="215.37058" gradientUnits="userSpaceOnUse" id="color-44"><stop offset="0" stop-color="#ff0000"></stop><stop offset="1" stop-color="#e6cccc"></stop></linearGradient><linearGradient x1="235.57211" y1="205.83484" x2="245.70911" y2="214.11905" gradientUnits="userSpaceOnUse" id="color-45"><stop offset="0" stop-color="#ff0000"></stop><stop offset="1" stop-color="#e6cccc"></stop></linearGradient><radialGradient cx="275.79734" cy="159.37556" r="39.24289" gradientUnits="userSpaceOnUse" id="color-46"><stop offset="0" stop-color="#ff3838" stop-opacity="0"></stop><stop offset="1" stop-color="#ff3838" stop-opacity="0.51701"></stop></radialGradient><linearGradient x1="280.34854" y1="120.39746" x2="271.24612" y2="198.35364" gradientUnits="userSpaceOnUse" id="color-47"><stop offset="0" stop-color="#c31c1c"></stop><stop offset="1" stop-color="#efb3b3"></stop></linearGradient><linearGradient x1="167.28944" y1="192.33991" x2="186.66078" y2="243.03202" gradientUnits="userSpaceOnUse" id="color-48"><stop offset="0" stop-color="#ff9c9c"></stop><stop offset="1" stop-color="#d94b4b"></stop></linearGradient><linearGradient x1="167.28944" y1="192.33991" x2="186.66078" y2="243.03202" gradientUnits="userSpaceOnUse" id="color-49"><stop offset="0" stop-color="#cb2828"></stop><stop offset="1" stop-color="#d74747"></stop></linearGradient><linearGradient x1="192.18946" y1="200.84719" x2="199.21055" y2="249.08484" gradientUnits="userSpaceOnUse" id="color-50"><stop offset="0" stop-color="#ff9c9c"></stop><stop offset="1" stop-color="#d94b4b"></stop></linearGradient><linearGradient x1="192.18946" y1="200.84719" x2="199.21055" y2="249.08484" gradientUnits="userSpaceOnUse" id="color-51"><stop offset="0" stop-color="#cb2828"></stop><stop offset="1" stop-color="#d74747"></stop></linearGradient><linearGradient x1="221.50298" y1="203.22423" x2="223.83359" y2="253.4457" gradientUnits="userSpaceOnUse" id="color-52"><stop offset="0" stop-color="#ff9c9c"></stop><stop offset="1" stop-color="#d94b4b"></stop></linearGradient><linearGradient x1="221.50298" y1="203.22423" x2="223.83359" y2="253.4457" gradientUnits="userSpaceOnUse" id="color-53"><stop offset="0" stop-color="#cb2828"></stop><stop offset="1" stop-color="#d74747"></stop></linearGradient><linearGradient x1="247.33573" y1="197.22557" x2="251.99693" y2="256.45725" gradientUnits="userSpaceOnUse" id="color-54"><stop offset="0" stop-color="#ff9c9c"></stop><stop offset="1" stop-color="#d94b4b"></stop></linearGradient><linearGradient x1="247.33573" y1="197.22557" x2="251.99693" y2="256.45725" gradientUnits="userSpaceOnUse" id="color-55"><stop offset="0" stop-color="#cb2828"></stop><stop offset="1" stop-color="#d74747"></stop></linearGradient><linearGradient x1="238.71647" y1="106.33172" x2="238.6124" y2="118.64657" gradientUnits="userSpaceOnUse" id="color-56"><stop offset="0" stop-color="#ffc7c7"></stop><stop offset="1" stop-color="#de4747"></stop></linearGradient><linearGradient x1="231.87834" y1="110.00389" x2="242.14252" y2="116.80929" gradientUnits="userSpaceOnUse" id="color-57"><stop offset="0" stop-color="#ffc7c7"></stop><stop offset="1" stop-color="#de4747"></stop></linearGradient><linearGradient x1="237.36345" y1="108.90477" x2="244.41254" y2="120.33751" gradientUnits="userSpaceOnUse" id="color-58"><stop offset="0" stop-color="#ffc7c7"></stop><stop offset="1" stop-color="#de4747"></stop></linearGradient><linearGradient x1="244.64428" y1="111.15047" x2="240.68694" y2="119.23251" gradientUnits="userSpaceOnUse" id="color-59"><stop offset="0" stop-color="#ffc7c7"></stop><stop offset="1" stop-color="#de4747"></stop></linearGradient><linearGradient x1="234.36787" y1="111.78513" x2="239.89792" y2="124.02504" gradientUnits="userSpaceOnUse" id="color-60"><stop offset="0" stop-color="#ffc7c7"></stop><stop offset="1" stop-color="#de4747"></stop></linearGradient><linearGradient x1="232.15448" y1="119.07585" x2="241.06707" y2="120.31908" gradientUnits="userSpaceOnUse" id="color-61"><stop offset="0" stop-color="#ffc7c7"></stop><stop offset="1" stop-color="#de4747"></stop></linearGradient><linearGradient x1="239.96872" y1="113.03668" x2="248.61528" y2="127.06032" gradientUnits="userSpaceOnUse" id="color-62"><stop offset="0" stop-color="#ffc7c7"></stop><stop offset="1" stop-color="#d91a1a"></stop></linearGradient><linearGradient x1="248.89955" y1="115.79131" x2="244.04539" y2="125.7049" gradientUnits="userSpaceOnUse" id="color-63"><stop offset="0" stop-color="#ffc7c7"></stop><stop offset="1" stop-color="#d91a1a"></stop></linearGradient><linearGradient x1="236.29428" y1="116.56978" x2="243.07756" y2="131.58352" gradientUnits="userSpaceOnUse" id="color-64"><stop offset="0" stop-color="#ffc7c7"></stop><stop offset="1" stop-color="#d91a1a"></stop></linearGradient><linearGradient x1="233.57929" y1="125.51273" x2="244.51167" y2="127.03769" gradientUnits="userSpaceOnUse" id="color-65"><stop offset="0" stop-color="#ffc7c7"></stop><stop offset="1" stop-color="#d91a1a"></stop></linearGradient><linearGradient x1="243.95618" y1="118.77511" x2="253.87165" y2="134.46405" gradientUnits="userSpaceOnUse" id="color-66"><stop offset="0" stop-color="#ffc7c7"></stop><stop offset="1" stop-color="#d91a1a"></stop></linearGradient><linearGradient x1="255.14915" y1="121.27016" x2="248.13982" y2="133.25058" gradientUnits="userSpaceOnUse" id="color-67"><stop offset="0" stop-color="#ffc7c7"></stop><stop offset="1" stop-color="#d91a1a"></stop></linearGradient><linearGradient x1="238.97247" y1="123.20253" x2="246.42576" y2="140.19982" gradientUnits="userSpaceOnUse" id="color-68"><stop offset="0" stop-color="#ffc7c7"></stop><stop offset="1" stop-color="#d91a1a"></stop></linearGradient><linearGradient x1="234.77642" y1="133.87498" x2="248.62775" y2="134.77049" gradientUnits="userSpaceOnUse" id="color-69"><stop offset="0" stop-color="#ffc7c7"></stop><stop offset="1" stop-color="#d91a1a"></stop></linearGradient><linearGradient x1="250.29008" y1="128.07458" x2="259.43935" y2="141.49688" gradientUnits="userSpaceOnUse" id="color-70"><stop offset="0" stop-color="#ffc7c7"></stop><stop offset="1" stop-color="#d91a1a"></stop></linearGradient><linearGradient x1="263.17279" y1="128.5946" x2="252.83145" y2="141.29234" gradientUnits="userSpaceOnUse" id="color-71"><stop offset="0" stop-color="#ffc7c7"></stop><stop offset="1" stop-color="#d91a1a"></stop></linearGradient><linearGradient x1="243.62411" y1="133.16895" x2="249.62769" y2="148.26278" gradientUnits="userSpaceOnUse" id="color-72"><stop offset="0" stop-color="#ffc7c7"></stop><stop offset="1" stop-color="#d91a1a"></stop></linearGradient><linearGradient x1="236.84566" y1="144.13651" x2="253.15611" y2="142.67202" gradientUnits="userSpaceOnUse" id="color-73"><stop offset="0" stop-color="#ffc7c7"></stop><stop offset="1" stop-color="#d91a1a"></stop></linearGradient><linearGradient x1="244.43895" y1="125.8783" x2="253.98787" y2="143.84839" gradientUnits="userSpaceOnUse" id="color-74"><stop offset="0" stop-color="#e65555" stop-opacity="0"></stop><stop offset="1" stop-color="#e65555"></stop></linearGradient><linearGradient x1="259.93725" y1="128.24556" x2="264.9376" y2="143.55554" gradientUnits="userSpaceOnUse" id="color-75"><stop offset="0" stop-color="#ff0000"></stop><stop offset="1" stop-color="#e6cccc"></stop></linearGradient><linearGradient x1="247.42215" y1="134.68283" x2="258.02719" y2="146.8044" gradientUnits="userSpaceOnUse" id="color-76"><stop offset="0" stop-color="#ff0000"></stop><stop offset="1" stop-color="#e6cccc"></stop></linearGradient><linearGradient x1="238.73495" y1="140.77712" x2="248.62479" y2="153.48895" gradientUnits="userSpaceOnUse" id="color-77"><stop offset="0" stop-color="#ff0000"></stop><stop offset="1" stop-color="#e6cccc"></stop></linearGradient><linearGradient x1="239.43736" y1="164.98704" x2="253.49951" y2="168.20067" gradientUnits="userSpaceOnUse" id="color-78"><stop offset="0" stop-color="#ff0000"></stop><stop offset="1" stop-color="#e6cccc"></stop></linearGradient><linearGradient x1="241.65815" y1="180.95351" x2="255.92009" y2="178.79278" gradientUnits="userSpaceOnUse" id="color-79"><stop offset="0" stop-color="#ff0000"></stop><stop offset="1" stop-color="#e6cccc"></stop></linearGradient><linearGradient x1="250.87399" y1="149.82743" x2="262.63347" y2="157.35425" gradientUnits="userSpaceOnUse" id="color-80"><stop offset="0" stop-color="#ff0000"></stop><stop offset="1" stop-color="#e6cccc"></stop></linearGradient><linearGradient x1="235.22299" y1="151.48042" x2="244.12143" y2="159.00724" gradientUnits="userSpaceOnUse" id="color-81"><stop offset="0" stop-color="#ff0000"></stop><stop offset="1" stop-color="#e6cccc"></stop></linearGradient><linearGradient x1="269.92976" y1="117.2253" x2="270.41974" y2="126.06661" gradientUnits="userSpaceOnUse" id="color-82"><stop offset="0" stop-color="#ff0000"></stop><stop offset="1" stop-color="#e6cccc"></stop></linearGradient><linearGradient x1="287.51913" y1="118.23434" x2="281.26036" y2="125.21094" gradientUnits="userSpaceOnUse" id="color-83"><stop offset="0" stop-color="#ff0000"></stop><stop offset="1" stop-color="#e6cccc"></stop></linearGradient><linearGradient x1="278.105" y1="131.21423" x2="276.1495" y2="144.15886" gradientUnits="userSpaceOnUse" id="color-84"><stop offset="0" stop-color="#ff0000"></stop><stop offset="1" stop-color="#e6cccc"></stop></linearGradient><linearGradient x1="295.41531" y1="132.69159" x2="287.22678" y2="142.90606" gradientUnits="userSpaceOnUse" id="color-85"><stop offset="0" stop-color="#ff0000"></stop><stop offset="1" stop-color="#e6cccc"></stop></linearGradient><linearGradient x1="283.43649" y1="146.29161" x2="280.52209" y2="159.23623" gradientUnits="userSpaceOnUse" id="color-86"><stop offset="0" stop-color="#ff0000"></stop><stop offset="1" stop-color="#e6cccc"></stop></linearGradient><linearGradient x1="300.63737" y1="147.76896" x2="291.6922" y2="157.98343" gradientUnits="userSpaceOnUse" id="color-87"><stop offset="0" stop-color="#ff0000"></stop><stop offset="1" stop-color="#e6cccc"></stop></linearGradient><linearGradient x1="272.43129" y1="191.04928" x2="268.72158" y2="198.61935" gradientUnits="userSpaceOnUse" id="color-88"><stop offset="0" stop-color="#ffffff"></stop><stop offset="1" stop-color="#ff8080"></stop></linearGradient><linearGradient x1="272.43129" y1="191.04928" x2="268.72158" y2="198.61935" gradientUnits="userSpaceOnUse" id="color-89"><stop offset="0" stop-color="#c31c1c"></stop><stop offset="1" stop-color="#efb3b3"></stop></linearGradient><linearGradient x1="266.88563" y1="178.15239" x2="252.8747" y2="197.46593" gradientUnits="userSpaceOnUse" id="color-90"><stop offset="0" stop-color="#ffffff"></stop><stop offset="1" stop-color="#ff8080"></stop></linearGradient><linearGradient x1="266.88563" y1="178.15239" x2="252.8747" y2="197.46593" gradientUnits="userSpaceOnUse" id="color-91"><stop offset="0" stop-color="#c31c1c"></stop><stop offset="1" stop-color="#efb3b3"></stop></linearGradient><linearGradient x1="292.16885" y1="190.2311" x2="295.87856" y2="197.80117" gradientUnits="userSpaceOnUse" id="color-92"><stop offset="0" stop-color="#ffffff"></stop><stop offset="1" stop-color="#ff8080"></stop></linearGradient><linearGradient x1="292.16885" y1="190.2311" x2="295.87856" y2="197.80117" gradientUnits="userSpaceOnUse" id="color-93"><stop offset="0" stop-color="#c31c1c"></stop><stop offset="1" stop-color="#efb3b3"></stop></linearGradient><linearGradient x1="297.71449" y1="177.33421" x2="311.72544" y2="196.64775" gradientUnits="userSpaceOnUse" id="color-94"><stop offset="0" stop-color="#ffffff"></stop><stop offset="1" stop-color="#ff8080"></stop></linearGradient><linearGradient x1="297.71449" y1="177.33421" x2="311.72544" y2="196.64775" gradientUnits="userSpaceOnUse" id="color-95"><stop offset="0" stop-color="#c31c1c"></stop><stop offset="1" stop-color="#efb3b3"></stop></linearGradient></defs><g transform="translate(-146.45847,-103.71919)"><g data-paper-data="{&quot;isPaintingLayer&quot;:true}" fill-rule="nonzero" stroke-linejoin="miter" stroke-miterlimit="10" stroke-dasharray="" stroke-dashoffset="0" style="mix-blend-mode: normal"><g><g stroke="#5f1717" stroke-width="0"><g stroke-linecap="butt"><path d="M331.32621,104.06863c0,0 -8.91496,11.40175 -8.94818,11.38019c-1.82898,-1.18719 -1.84642,-3.20612 -0.54009,-5.17198c0.49262,-0.74134 1.41739,-2.18846 2.72953,-3.4344c2.16729,-2.05796 5.07964,-3.78068 6.75872,-2.7738z" fill="url(#color-1)"></path><path d="M331.276,104.07326c1.42257,1.34517 0.54949,4.61429 -0.84743,7.25646c-0.84572,1.59965 -1.9897,2.88054 -2.57063,3.55491c-1.54052,1.78829 -3.89902,2.00548 -5.53563,0.56464c-0.02973,-0.02616 8.95366,-11.37604 8.95366,-11.37604z" data-paper-data="{&quot;index&quot;:null}" fill="url(#color-2)"></path></g><g data-paper-data="{&quot;index&quot;:null}" stroke-linecap="butt"><path d="M324.64458,104.8268c1.82932,-0.07295 2.17945,2.47367 1.80862,4.96671c-0.22451,1.50935 -0.84575,3.01155 -1.15262,3.78902c-0.81379,2.06166 -2.46706,3.61002 -4.53326,3.75914c-0.03752,0.0027 3.87727,-12.51486 3.87727,-12.51486z" fill="url(#color-3)"></path><path d="M324.67102,104.85138c0,0 -3.83142,12.50625 -3.87058,12.51396c-2.15689,0.42511 -3.39887,-0.72958 -2.87044,-2.75243c0.19929,-0.76283 0.55338,-2.22872 1.34627,-3.81534c1.30962,-2.62068 3.44446,-5.50518 5.39472,-5.94618z" data-paper-data="{&quot;index&quot;:null}" fill="url(#color-4)"></path></g><g stroke-linecap="butt"><path d="M332.51002,112.2194c0,0 -10.99716,7.14685 -11.00468,7.10999c-0.41386,-2.0298 0.63103,-4.03951 2.39667,-5.37937c0.66583,-0.50526 1.94472,-1.50876 3.33754,-2.13215c2.30053,-1.0297 4.84716,-1.37965 5.27048,0.40152z" fill="url(#color-5)"></path><path d="M332.4792,112.20057c0.10155,1.99692 -2.10001,4.83085 -4.27018,6.79895c-1.31387,1.19155 -2.62986,1.92802 -3.31063,2.32573c-1.80526,1.0546 -3.25222,0.17022 -3.4248,-2.02139c-0.00314,-0.03979 11.00562,-7.10331 11.00562,-7.10331z" data-paper-data="{&quot;index&quot;:null}" fill="url(#color-6)"></path></g><g data-paper-data="{&quot;index&quot;:null}" stroke-linecap="butt"><path d="M320.69906,108.16764c2.24389,-0.08947 2.67335,3.03425 2.21848,6.09227c-0.27539,1.8514 -1.03742,3.69404 -1.41384,4.64769c-0.99821,2.52887 -3.02614,4.42812 -5.56059,4.61105c-0.04602,0.00333 4.75593,-15.351 4.75593,-15.351z" fill="url(#color-7)"></path><path d="M320.7315,108.1978c0,0 -4.6997,15.34043 -4.74774,15.34989c-2.64569,0.52144 -4.16911,-0.89491 -3.52093,-3.37618c0.24445,-0.93571 0.6788,-2.73378 1.65135,-4.67998c1.60639,-3.21459 4.22505,-6.75277 6.61729,-7.29372z" data-paper-data="{&quot;index&quot;:null}" fill="url(#color-8)"></path></g><g stroke-linecap="butt"><path d="M330.34697,117.23556c0,0 -13.48936,8.76649 -13.49858,8.72127c-0.50765,-2.4898 0.77404,-4.95496 2.9398,-6.59845c0.81672,-0.61975 2.38544,-1.85066 4.09389,-2.61535c2.82189,-1.26305 5.94564,-1.6923 6.46489,0.49251z" fill="url(#color-9)"></path><path d="M330.30918,117.21247c0.12456,2.44948 -2.57592,5.92562 -5.23789,8.33975c-1.61163,1.46158 -3.22584,2.36495 -4.0609,2.85278c-2.21438,1.2936 -3.98923,0.2088 -4.20092,-2.47947c-0.00384,-0.04881 13.49971,-8.71307 13.49971,-8.71307z" data-paper-data="{&quot;index&quot;:null}" fill="url(#color-10)"></path></g><g data-paper-data="{&quot;index&quot;:null}" stroke-linecap="butt"><path d="M314.71635,112.48794c2.79631,0.10439 3.62753,3.88437 3.34719,7.50234c-0.16972,2.19042 -0.94855,4.32449 -1.32917,5.43064c-1.00937,2.9333 -3.36517,5.01583 -6.51586,4.99593c-0.05721,-0.00036 4.49782,-17.92893 4.49782,-17.92893z" fill="url(#color-11)"></path><path d="M314.75973,112.52709c0,0 -4.42853,17.92156 -4.48767,17.92837c-3.25782,0.37489 -5.29553,-1.46427 -4.7192,-4.37359c0.21735,-1.09714 0.59079,-3.20874 1.62302,-5.44693c1.70493,-3.69689 4.64463,-7.68575 7.58383,-8.10784z" data-paper-data="{&quot;index&quot;:null}" fill="url(#color-12)"></path></g><g stroke-linecap="butt"><path d="M327.63041,124.25276c0,0 -16.03476,9.22325 -16.05054,9.16825c-0.86921,-3.02847 0.50049,-5.85878 3.05268,-7.62213c0.96244,-0.66495 2.80725,-1.99067 4.87064,-2.74508c3.40818,-1.24607 7.27225,-1.46552 8.1272,1.19893z" fill="url(#color-13)"></path><path d="M327.58099,124.22156c0.38656,2.94409 -2.66125,6.85097 -5.76105,9.4901c-1.8767,1.59781 -3.80924,2.52712 -4.80705,3.03241c-2.64594,1.3399 -4.96665,-0.12605 -5.48464,-3.3642c-0.00941,-0.05879 16.05274,-9.15833 16.05274,-9.15833z" data-paper-data="{&quot;index&quot;:null}" fill="url(#color-14)"></path></g><g data-paper-data="{&quot;index&quot;:null}" stroke-linecap="butt"><path d="M305.85304,119.63251c3.17929,0.65202 4.85571,4.6711 5.24481,8.30804c0.23558,2.2019 -0.22792,4.22746 -0.44211,5.28189c-0.56803,2.79611 -2.82306,4.46145 -6.38619,3.82651c-0.06469,-0.01152 1.58347,-17.41645 1.58347,-17.41645z" fill="url(#color-15)"></path><path d="M305.90968,119.68093c0,0 -1.50662,17.42246 -1.57212,17.41785c-3.60715,-0.25303 -6.26788,-2.52715 -6.18438,-5.38326c0.0315,-1.07707 0.04144,-3.1588 0.77088,-5.24119c1.20482,-3.43955 3.74757,-6.93613 6.98557,-6.79342z" data-paper-data="{&quot;index&quot;:null}" fill="url(#color-16)"></path></g><g stroke-linecap="butt"><path d="M322.73686,134.15613c0,0 -16.3148,6.28291 -16.34335,6.22372c-1.57273,-3.25968 -0.57756,-5.88041 1.9616,-7.18176c0.95753,-0.49072 2.78294,-1.48355 4.96675,-1.85077c3.60705,-0.60656 7.92938,-0.07666 9.415,2.80882z" fill="url(#color-17)"></path><path d="M322.67494,134.11465c1.01103,3.07943 -1.66986,6.47127 -4.65678,8.5594c-1.80836,1.26423 -3.81021,1.83544 -4.83884,2.15637c-2.72764,0.851 -5.6353,-1.09751 -6.85217,-4.50264c-0.02211,-0.06182 16.34777,-6.21316 16.34777,-6.21316z" data-paper-data="{&quot;index&quot;:null}" fill="url(#color-18)"></path></g><path d="M325.40984,112.09058c0,0 -2.24702,4.7558 -5.7418,10.09885c-3.73042,5.7033 -11.75791,17.54315 -11.75791,17.54315l-3.98525,-3.0221c0,0 8.92657,-10.91909 13.22242,-15.96367c4.27304,-5.0178 8.26255,-8.65622 8.26255,-8.65622z" fill="#5f1717" stroke-linecap="round"></path></g><path d="M294.05837,129.18161c0,0 7.66703,-7.72917 9.84589,-9.16092c1.54128,-1.0128 3.56621,0.21755 3.56621,0.21755c0,0 2.61777,-5.79896 6.07128,-7.33972c0.4509,-0.34656 2.20198,-0.37124 2.20198,-0.37124c0,0 2.24721,-2.75555 3.85308,-3.92299c0.37279,-0.27102 1.19479,-0.47349 1.19479,-0.47349c0,0 1.90937,-2.56928 3.47894,-3.21866c1.32014,-0.5462 1.60403,0.73252 1.60403,0.73252c0,0 1.90734,-1.23762 2.80232,-1.58254c0.38825,-0.14963 1.01142,-0.37455 1.52307,-0.33922c0.58759,0.04058 1.04109,0.35488 1.04109,0.35488c0,0 0.67624,0.81705 0.80391,2.02021c0.20683,1.94904 -1.41649,4.85301 -1.41649,4.85301c0,0 2.01199,-0.01524 1.90925,1.44361c-0.12038,1.70927 -2.3815,4.55621 -2.3815,4.55621c0,0 0.36952,1.10044 -0.55493,2.94046c-0.56113,1.11689 -2.48503,3.47929 -2.48503,3.47929c0,0 0.83341,1.90492 0.05118,3.47353c-2.18179,4.37516 -4.95634,6.50749 -4.95634,6.50749c0,0 1.23204,1.37112 0.41365,3.80325c-0.84541,2.51242 -5.22713,9.72543 -5.22713,9.72543l-23.33926,-17.69864z" fill="url(#color-19)" stroke="none" stroke-width="0" stroke-linecap="butt"></path><path d="M295.05764,136.05513l-1.52139,-9.32697l5.68129,-5.85334l4.98845,6.87821l-2.3431,7.30854" data-paper-data="{&quot;index&quot;:null}" fill="url(#color-20)" stroke="#c31c1c" stroke-width="2" stroke-linecap="round"></path><path d="M301.35749,140.37189l2.25911,-9.17624l7.52197,-3.15571l1.89061,8.28372l-5.02213,5.80371" data-paper-data="{&quot;index&quot;:null}" fill="url(#color-21)" stroke="#c31c1c" stroke-width="2" stroke-linecap="round"></path><path d="M308.67039,141.62591l6.40535,-4.22806l7.96903,2.94772l-4.10346,7.04983l-9.39156,1.05145" data-paper-data="{&quot;index&quot;:null}" fill="url(#color-22)" stroke="#c31c1c" stroke-width="2" stroke-linecap="round"></path></g><path d="M253.92557,198.61758l6.14455,36.26956l-16.98777,5.53905l-19.35783,-9.13333l1.68655,-36.10618l15.74386,-4.98197z" data-paper-data="{&quot;index&quot;:null}" fill="url(#color-23)" stroke="url(#color-24)" stroke-width="2" stroke-linecap="round"></path><path d="M261.53006,184.36083l16.36976,7.04315l10.1742,45.67211l-18.48031,6.18519l-17.94045,-12.12597l-2.59299,-38.117z" data-paper-data="{&quot;index&quot;:null}" fill="url(#color-25)" stroke="url(#color-26)" stroke-width="2" stroke-linecap="round"></path><g stroke-linecap="butt"><path d="M175.5631,200.01837c-15.52175,0 -28.10463,-12.58288 -28.10463,-28.10463c0,-15.52175 12.58288,-28.10463 28.10463,-28.10463c15.52175,0 28.10463,12.58288 28.10463,28.10463c0,15.52175 -12.58288,28.10463 -28.10463,28.10463z" data-paper-data="{&quot;index&quot;:null}" fill="#edd3d3" stroke="url(#color-27)" stroke-width="0"></path><path d="M175.5631,200.01837c-15.52175,0 -28.10463,-12.58288 -28.10463,-28.10463c0,-15.52175 12.58288,-28.10463 28.10463,-28.10463c15.52175,0 28.10463,12.58288 28.10463,28.10463c0,15.52175 -12.58288,28.10463 -28.10463,28.10463z" data-paper-data="{&quot;index&quot;:null}" fill="url(#color-28)" stroke="#c31c1c" stroke-width="2"></path></g><g stroke-linecap="butt"><path d="M221.57886,226.08917c-18.42627,1.13253 -48.52154,-8.702 -48.52154,-36.26063c0,-27.55863 30.09526,-41.09262 48.52154,-42.22514c18.42627,-1.13253 52.65549,6.93914 52.65549,36.00655c0,29.06741 -34.22921,41.3467 -52.65549,42.47923z" fill="#edd3d3" stroke="#000000" stroke-width="0"></path><path d="M221.57886,226.08917c-18.42627,1.13253 -48.52154,-8.702 -48.52154,-36.26063c0,-27.55863 30.09526,-41.09262 48.52154,-42.22514c18.42627,-1.13253 52.65549,6.93914 52.65549,36.00655c0,29.06741 -34.22921,41.3467 -52.65549,42.47923z" fill="url(#color-29)" stroke="#c31c1c" stroke-width="2"></path></g><g stroke="#c31c1c" stroke-width="2" stroke-linecap="round"><path d="M196.98728,165.08706l-8.3639,-1.04661l-3.40489,-5.21785l7.24244,-1.88564l5.57149,3.24991" data-paper-data="{&quot;index&quot;:null}" fill="url(#color-30)"></path><path d="M260.66409,169.96779l-8.3639,-1.04661l-3.40489,-5.21784l7.24244,-1.88564l5.57149,3.24991" data-paper-data="{&quot;index&quot;:null}" fill="url(#color-31)"></path><path d="M183.51605,178.81017l-8.3639,-1.04661l-3.40489,-5.21785l7.24244,-1.88564l5.57149,3.24991" data-paper-data="{&quot;index&quot;:null}" fill="url(#color-32)"></path><path d="M251.16002,184.5668l-8.3639,-1.04661l-3.40489,-5.21784l7.24243,-1.88564l5.57149,3.24991" data-paper-data="{&quot;index&quot;:null}" fill="url(#color-33)"></path><path d="M180.64956,194.72366l-8.3639,-1.04661l-3.40489,-5.21785l7.24244,-1.88564l5.57149,3.24991" data-paper-data="{&quot;index&quot;:null}" fill="url(#color-34)"></path><path d="M248.14276,200.17875l-8.3639,-1.04661l-3.40489,-5.21784l7.24244,-1.88564l5.57149,3.24991" data-paper-data="{&quot;index&quot;:null}" fill="url(#color-35)"></path><path d="M182.04065,210.42585l-8.3639,-1.04661l-3.40489,-5.21784l7.24243,-1.88564l5.57149,3.24991" data-paper-data="{&quot;index&quot;:null}" fill="url(#color-36)"></path><path d="M219.28259,163.18205l-8.3639,-1.2965l-3.40489,-6.4637l7.24244,-2.33588l5.57149,4.02589" data-paper-data="{&quot;index&quot;:null}" fill="url(#color-37)"></path><path d="M239.87654,159.1141l-8.3639,-1.2965l-3.40489,-6.4637l7.24244,-2.33588l5.57148,4.02589" data-paper-data="{&quot;index&quot;:null}" fill="url(#color-38)"></path><path d="M209.7785,180.90133l-8.3639,-1.29651l-3.40489,-6.46369l7.24244,-2.33588l5.57148,4.02588" data-paper-data="{&quot;index&quot;:null}" fill="url(#color-39)"></path><path d="M231.27711,178.40506l-8.3639,-1.2965l-3.40489,-6.4637l7.24243,-2.33588l5.57149,4.02588" data-paper-data="{&quot;index&quot;:null}" fill="url(#color-40)"></path><path d="M206.91202,200.24091l-8.3639,-1.29651l-3.40489,-6.46369l7.24244,-2.33588l5.57148,4.02588" data-paper-data="{&quot;index&quot;:null}" fill="url(#color-41)"></path><path d="M228.41063,197.74464l-8.3639,-1.2965l-3.40489,-6.46369l7.24243,-2.33588l5.57149,4.02589" data-paper-data="{&quot;index&quot;:null}" fill="url(#color-42)"></path><path d="M204.33591,217.85406l-8.3639,-1.29651l-3.40489,-6.46369l7.24243,-2.33588l5.57149,4.02588" data-paper-data="{&quot;index&quot;:null}" fill="url(#color-43)"></path><path d="M225.83455,215.35778l-8.3639,-1.2965l-3.40489,-6.46369l7.24243,-2.33588l5.57149,4.02589" data-paper-data="{&quot;index&quot;:null}" fill="url(#color-44)"></path><path d="M245.71746,214.10872l-8.3639,-1.04661l-3.40489,-5.21784l7.24243,-1.88564l5.57149,3.24991" data-paper-data="{&quot;index&quot;:null}" fill="url(#color-45)"></path></g><g data-paper-data="{&quot;index&quot;:null}" stroke-linecap="butt"><path d="M271.24612,198.35364c-21.527,-2.51355 -36.94045,-22.00226 -34.4269,-43.52927c2.51355,-21.527 22.00227,-36.94045 43.52927,-34.4269c21.527,2.51355 36.94045,22.00227 34.4269,43.52927c-2.51355,21.52699 -22.00227,36.94044 -43.52927,34.4269z" fill="#edd3d3" stroke="#000000" stroke-width="0"></path><path d="M271.24612,198.35364c-21.527,-2.51355 -36.94045,-22.00226 -34.4269,-43.52927c2.51355,-21.527 22.00227,-36.94045 43.52927,-34.4269c21.527,2.51355 36.94045,22.00227 34.4269,43.52927c-2.51355,21.52699 -22.00227,36.94044 -43.52927,34.4269z" fill="url(#color-46)" stroke="url(#color-47)" stroke-width="2"></path></g><g stroke="none" stroke-width="0.5" stroke-linecap="butt"><path d="M281.86861,173.55121c2.29811,-0.64935 5.21781,-0.41286 7.16761,-1.46079c0.74751,-0.17137 1.61227,-0.49256 2.36965,-0.6105c0.58556,-0.09119 1.37309,0.22393 1.85376,-0.03351c0.92748,-0.49675 1.67751,-1.3672 2.93195,-1.50684c0.8154,-0.09077 1.89421,0.33601 2.69026,0.47236c1.93171,0.33087 4.45534,0.2094 6.22031,-0.26909c0.64928,-0.26927 2.6171,-0.92486 3.42954,-0.4222c0.30326,0.18763 0.10079,0.54723 0.16489,0.82018c0.18713,0.7968 1.03958,0.74527 0.47594,1.73333c-0.29836,0.52303 -0.73111,0.22301 -1.03757,0.63884c-0.58319,0.79132 -0.51733,2.45743 -2.64297,2.1432c-1.71736,-0.25387 -1.54792,-2.04746 -3.39763,-2.27416c-0.86084,0.27917 -2.07047,0.6758 -3.05649,0.65616c-1.36659,-0.02724 -2.20089,-0.36465 -3.52576,0.15609c-1.23341,0.48479 -1.06537,1.55061 -2.41407,1.99307c-0.31754,0.10417 -0.65636,0.27524 -1.01495,0.21429c-1.22493,-0.20821 -1.92213,-2.03519 -2.41144,-0.37506c-0.08057,0.71132 -0.04143,1.66909 -0.71434,2.22322c-1.00613,0.82854 -2.85796,0.66759 -3.47848,-0.4588c-0.28291,-0.51354 -0.22037,-1.07476 -0.23285,-1.61019c-0.00764,-0.32798 0.33267,-0.84257 -0.10041,-0.98633c-0.1876,-0.06227 -1.54728,0.56643 -1.62968,0.57412c-1.09175,0.10175 -1.72664,-0.44571 -2.42581,-0.95367c0,0 -0.46618,-0.33981 -0.02622,-0.64185c0.31512,-0.21634 0.64368,-0.1034 0.80478,-0.02189z" data-paper-data="{&quot;index&quot;:null}" fill="#ff3333"></path><path d="M308.62505,169.93458l-0.87142,-0.2306l0.4117,-0.02816l-1.03405,0.14995l-8.03956,1.40576l-0.08213,-0.61457l-0.54234,0.15866l-1.5578,-0.45394l-1.81145,0.61615l-3.30767,0.94763l-2.19007,0.87725l-2.03606,0.05881l-3.65159,0.99866l-0.65133,-0.44597l-1.20027,0.19382l-0.80128,-0.3493l0.42392,-0.53982l1.93187,-0.15324l0.53579,0.41937l2.75835,-0.94303l2.36645,-0.13581l1.87076,-0.80415l3.35634,-0.96358l2.46184,-0.67832l1.42867,0.44657l1.27781,0.01561l6.75595,-0.85735l1.58993,-0.25809l0.85743,0.5675z" data-paper-data="{&quot;index&quot;:null}" fill="#ff6161"></path></g><path d="M195.15078,202.73109c0,0 -0.12046,9.50169 -0.18977,14.96913c-0.084,6.62525 -0.27867,21.98023 -0.27867,21.98023l-14.0952,4.34721l-21.39788,-10.36641l12.59219,-42.0577l12.67154,2.07059z" data-paper-data="{&quot;index&quot;:null}" fill="url(#color-48)" stroke="url(#color-49)" stroke-width="2" stroke-linecap="round"></path><path d="M212.60892,209.86668l-2.53363,33.4549l-17.96409,5.76328l-13.40697,-9.61671l5.83244,-33.27975l16.38604,-5.3412z" data-paper-data="{&quot;index&quot;:null}" fill="url(#color-50)" stroke="url(#color-51)" stroke-width="2" stroke-linecap="round"></path><path d="M239.82315,211.63711l1.54681,36.26956l-17.68993,5.53905l-18.20004,-9.13333l6.26358,-36.10618l16.3754,-4.98197z" data-paper-data="{&quot;index&quot;:null}" fill="url(#color-52)" stroke="url(#color-53)" stroke-width="2" stroke-linecap="round"></path><path d="M249.23491,197.38036l15.47693,7.04315l4.38455,45.67211l-19.26438,6.18519l-16.40328,-12.12597l2.23895,-38.117z" data-paper-data="{&quot;index&quot;:null}" fill="url(#color-54)" stroke="url(#color-55)" stroke-width="2" stroke-linecap="round"></path><g data-paper-data="{&quot;index&quot;:null}"><g stroke="#5f1717" stroke-width="0"><g stroke-linecap="butt"><path d="M234.22521,106.18971c1.81832,-0.72584 4.4182,1.43983 6.22906,3.81747c1.09635,1.43948 1.77817,3.01572 2.14609,3.8262c0.97565,2.14924 0.63604,4.13948 -1.35904,5.01937c-0.03623,0.01597 -7.01612,-12.66304 -7.01612,-12.66304z" fill="url(#color-56)"></path><path d="M234.27406,106.20227c0,0 7.05572,12.63874 7.02219,12.65982c-1.84569,1.16101 -4.13924,0.56999 -5.37443,-1.44135c-0.46579,-0.75849 -1.39055,-2.20561 -1.96998,-3.91978c-0.95709,-2.83133 -1.29693,-6.19792 0.32219,-7.29867z" data-paper-data="{&quot;index&quot;:null}" fill="url(#color-57)"></path></g><g data-paper-data="{&quot;index&quot;:null}" stroke-linecap="butt"><path d="M242.52911,120.97852c-2.01587,-0.47715 -3.40069,-2.26964 -3.87482,-4.43479c-0.17879,-0.8165 -0.55216,-2.39863 -0.53278,-3.92446c0.03203,-2.52026 0.78432,-4.97828 2.57851,-4.61416c0,0 1.86569,12.98208 1.82908,12.97342z" fill="url(#color-58)"></path><path d="M240.67002,108.02515c1.85482,0.74677 3.50165,3.93516 4.37599,6.73134c0.52935,1.69287 0.64483,3.19651 0.71975,3.98137c0.19863,2.08127 -1.21179,3.02282 -3.27312,2.25874c-0.03742,-0.01387 -1.82263,-12.97146 -1.82263,-12.97146z" data-paper-data="{&quot;index&quot;:null}" fill="url(#color-59)"></path></g><g stroke-linecap="butt"><path d="M237.02201,114.49209c1.2754,0.83781 2.37763,2.03265 2.95424,2.63775c1.52903,1.6046 2.23958,3.75537 1.50691,5.69304c-0.01331,0.03519 -9.72812,-8.77604 -9.72812,-8.77604c0.70232,-1.69072 3.16039,-0.9386 5.26698,0.44524z" fill="url(#color-60)"></path><path d="M231.78847,114.03317c0,0 9.73955,8.73081 9.7301,8.76959c-0.52034,2.13592 -2.08994,2.77789 -3.70364,1.44856c-0.60854,-0.50131 -1.79002,-1.43846 -2.89677,-2.82454c-1.82805,-2.28939 -3.54883,-5.43851 -3.1297,-7.39359z" data-paper-data="{&quot;index&quot;:null}" fill="url(#color-61)"></path></g><g data-paper-data="{&quot;index&quot;:null}" stroke-linecap="butt"><path d="M244.06146,111.93312c0,0 2.28849,15.92411 2.24359,15.91347c-2.47271,-0.58529 -4.17135,-2.78401 -4.75293,-5.43982c-0.21931,-1.00152 -0.67731,-2.9422 -0.65353,-4.81382c0.03929,-3.09142 0.96205,-6.10647 3.16285,-5.65983z" fill="url(#color-62)"></path><path d="M244.02462,111.95771c2.27517,0.91601 4.29522,4.82695 5.36768,8.25681c0.6493,2.07653 0.79095,3.92088 0.88284,4.88362c0.24364,2.55292 -1.48641,3.70785 -4.01488,2.77062c-0.04591,-0.01701 -2.23567,-15.91106 -2.23567,-15.91106z" data-paper-data="{&quot;index&quot;:null}" fill="url(#color-63)"></path></g><g stroke-linecap="butt"><path d="M233.08933,119.34403c0.86147,-2.07387 3.87659,-1.1513 6.46058,0.54615c1.56441,1.02769 2.91644,2.49331 3.62372,3.23553c1.87553,1.96824 2.74713,4.60643 1.84841,6.98322c-0.01632,0.04316 -11.93272,-10.76488 -11.93272,-10.76488z" fill="url(#color-64)"></path><path d="M233.13032,119.32726c0,0 11.94673,10.70939 11.93515,10.75696c-0.63824,2.61997 -2.56356,3.40743 -4.54295,1.77684c-0.74645,-0.61491 -2.19568,-1.76446 -3.55325,-3.46463c-2.24232,-2.80822 -4.35306,-6.67099 -3.83895,-9.06914z" data-paper-data="{&quot;index&quot;:null}" fill="url(#color-65)"></path></g><g data-paper-data="{&quot;index&quot;:null}" stroke-linecap="butt"><path d="M249.27752,117.15329c0,0 1.63366,18.42588 1.57713,18.41709c-3.11343,-0.48347 -5.10647,-2.91545 -5.63448,-5.9723c-0.1991,-1.15275 -0.62715,-3.3838 -0.44492,-5.57321c0.301,-3.61631 1.72515,-7.21505 4.50225,-6.87157z" fill="url(#color-66)"></path><path d="M249.22844,117.18505c2.83409,0.88601 5.0991,5.29313 6.19182,9.21483c0.66157,2.3743 0.69304,4.51844 0.7324,5.6362c0.10437,2.96401 -2.20088,4.45418 -5.35704,3.56388c-0.0573,-0.01617 -1.5672,-18.41492 -1.5672,-18.41492z" data-paper-data="{&quot;index&quot;:null}" fill="url(#color-67)"></path></g><g stroke-linecap="butt"><path d="M234.65051,126.70497c1.26945,-2.49374 5.0489,-1.66007 8.21436,0.11424c1.91645,1.07422 3.52589,2.67751 4.36979,3.48762c2.23786,2.14827 3.13803,5.16098 1.79637,8.01179c-0.02437,0.05176 -14.38055,-11.61363 -14.38055,-11.61363z" fill="url(#color-68)"></path><path d="M234.70426,126.68207c0,0 14.40299,11.54766 14.38431,11.60419c-1.02842,3.11389 -3.55345,4.19043 -5.95148,2.44522c-0.90431,-0.65814 -2.66366,-1.88413 -4.26113,-3.76111c-2.6386,-3.10027 -5.02343,-7.44369 -4.17171,-10.28827z" data-paper-data="{&quot;index&quot;:null}" fill="url(#color-69)"></path></g><g data-paper-data="{&quot;index&quot;:null}" stroke-linecap="butt"><path d="M256.88621,125.62155c0,0 -1.15229,17.44478 -1.21799,17.44582c-3.61881,0.05781 -5.57896,-1.94625 -5.69321,-4.79719c-0.04307,-1.0751 -0.17717,-3.1487 0.407,-5.28472c0.96488,-3.52813 3.26157,-7.22796 6.50418,-7.36392z" fill="url(#color-70)"></path><path d="M256.82259,125.6603c3.21924,0.37618 5.17101,4.23394 5.81113,7.82174c0.38755,2.17215 0.06495,4.22876 -0.07594,5.29703c-0.37364,2.83279 -3.36338,4.65285 -6.96465,4.32663c-0.0654,-0.00591 1.22941,-17.44539 1.22941,-17.44539z" data-paper-data="{&quot;index&quot;:null}" fill="url(#color-71)"></path></g><g stroke-linecap="butt"><path d="M237.89984,137.2627c1.92731,-2.61123 6.27881,-2.44412 9.74271,-1.26934c2.09714,0.71123 3.74059,1.98281 4.60747,2.62014c2.29877,1.69011 2.86269,4.43613 0.78961,7.40284c-0.03763,0.05387 -15.1398,-8.75364 -15.1398,-8.75364z" fill="url(#color-72)"></path><path d="M237.9676,137.23162c0,0 15.17755,8.68642 15.14585,8.74392c-1.745,3.16712 -4.92649,4.62632 -7.48324,3.35068c-0.96419,-0.48107 -2.84914,-1.36462 -4.43241,-2.90139c-2.61516,-2.5383 -4.72002,-6.31471 -3.23023,-9.19317z" data-paper-data="{&quot;index&quot;:null}" fill="url(#color-73)"></path></g><path d="M238.78467,115.05348c0,0 3.35732,4.2288 6.77427,9.86455c3.43519,5.66583 10.5036,17.87024 10.5036,17.87024l-4.4167,2.34694c0,0 -6.03383,-12.96979 -8.80566,-19.19559c-2.59673,-5.83256 -4.0555,-10.88614 -4.0555,-10.88614z" fill="#5f1717" stroke-linecap="round"></path></g><path d="M267.00469,136.93155l-25.86598,13.74461c0,0 -3.17369,-7.82014 -3.60706,-10.43532c-0.41952,-2.5316 1.01566,-3.6884 1.01566,-3.6884c0,0 -2.39844,-2.54803 -3.85359,-7.21544c-0.52171,-1.67339 0.60519,-3.42078 0.60519,-3.42078c0,0 -1.52197,-2.6393 -1.89755,-3.83146c-0.61876,-1.96403 -0.07826,-2.99134 -0.07826,-2.99134c0,0 -1.77748,-3.17146 -1.62338,-4.87803c0.13153,-1.45654 2.11527,-1.12022 2.11527,-1.12022c0,0 -1.13877,-3.12593 -0.62337,-5.01693c0.31816,-1.16733 1.11619,-1.86592 1.11619,-1.86592c0,0 0.49787,-0.23785 1.0844,-0.18408c0.51072,0.04682 1.08998,0.36837 1.44935,0.57808c0.82842,0.48341 2.51366,2.00972 2.51366,2.00972c0,0 0.48443,-1.21697 1.70041,-0.46698c1.44573,0.89169 2.92033,3.73289 2.92033,3.73289c0,0 0.77912,0.33114 1.10385,0.65821c1.39884,1.4089 3.1772,4.48793 3.1772,4.48793c0,0 1.72467,0.30398 2.11444,0.7181c3.16316,2.07246 4.82133,8.21502 4.82133,8.21502c0,0 2.19541,-0.89121 3.55519,0.35471c1.92228,1.76131 8.25669,10.6156 8.25669,10.6156z" fill="url(#color-74)" stroke="none" stroke-width="0" stroke-linecap="butt"></path><path d="M258.36136,141.48978l-1.14597,-7.58891l6.02278,-5.99338l4.6737,6.68545l-2.99124,8.96434" data-paper-data="{&quot;index&quot;:null}" fill="url(#color-75)" stroke="#c31c1c" stroke-width="2" stroke-linecap="round"></path><path d="M251.16775,147.48378l-4.03093,-6.53119l3.18913,-7.87552l6.92154,4.31636l0.76481,9.41924" data-paper-data="{&quot;index&quot;:null}" fill="url(#color-76)" stroke="#c31c1c" stroke-width="2" stroke-linecap="round"></path><path d="M248.63573,153.47584l-9.10315,-2.53764l-2.92506,-7.61463l8.33748,-1.63736l5.64799,5.19664" data-paper-data="{&quot;index&quot;:null}" fill="url(#color-77)" stroke="#c31c1c" stroke-width="2" stroke-linecap="round"></path></g><g stroke="#c31c1c" stroke-width="2" stroke-linecap="round"><path d="M253.49968,168.1854l-7.7519,3.39761l-6.34325,-3.62431l4.8553,-5.85963l6.86191,0.40436" data-paper-data="{&quot;index&quot;:null}" fill="url(#color-78)"></path><path d="M255.91464,178.77851l-5.96856,6.001l-7.22996,-1.04886l2.37144,-7.23087l6.5331,-2.13727" data-paper-data="{&quot;index&quot;:null}" fill="url(#color-79)"></path><path d="M262.6393,157.34287l-8.41906,-0.27542l-4.48984,-5.02497l6.67113,-2.62396l6.17426,2.8007" data-paper-data="{&quot;index&quot;:null}" fill="url(#color-80)"></path><path d="M244.12589,158.99587l-6.37073,-0.27543l-3.39748,-5.02497l5.04808,-2.62396l4.67209,2.8007" data-paper-data="{&quot;index&quot;:null}" fill="url(#color-81)"></path></g><g stroke="#c31c1c" stroke-width="2" stroke-linecap="round"><g><path d="M270.43326,126.06792l-4.82559,-5.27835l1.69548,-3.81804l6.31104,3.59803l1.26473,4.40536" data-paper-data="{&quot;index&quot;:null}" fill="url(#color-82)"></path><path d="M281.27233,125.21657l-0.614,-5.71911l4.5331,-2.35899l3.31851,4.93434l-2.13907,3.8261" data-paper-data="{&quot;index&quot;:null}" fill="url(#color-83)"></path></g><g><path d="M276.16265,144.16077l-3.36561,-7.72806l2.75155,-5.58999l5.31582,5.26788l0.04621,6.44991" data-paper-data="{&quot;index&quot;:null}" fill="url(#color-84)"></path><path d="M287.23717,142.9143l0.9679,-8.37337l5.18558,-3.45381l1.95368,7.22439l-3.19737,5.60181" data-paper-data="{&quot;index&quot;:null}" fill="url(#color-85)"></path></g><g><path d="M280.53507,159.23813l-2.79313,-7.72805l3.16565,-5.58999l4.9256,5.26788l-0.43159,6.4499" data-paper-data="{&quot;index&quot;:null}" fill="url(#color-86)"></path><path d="M291.702,157.99167l1.58819,-8.37337l5.44144,-3.45381l1.41851,7.22439l-3.61234,5.60181" data-paper-data="{&quot;index&quot;:null}" fill="url(#color-87)"></path></g></g><path d="M268.73932,194.27255c-0.05555,-1.69638 0.18505,-5.43056 0.18505,-5.43056c0,0 3.00167,1.7306 4.18836,2.73611c0.88522,0.75005 2.29634,2.75838 2.29634,2.75838c0,0 -1.19126,2.12654 -2.20522,2.89911c-1.036,0.78938 -3.1683,0.34338 -3.1683,0.34338c0,0 -1.24063,-1.60896 -1.29621,-3.30639z" data-paper-data="{&quot;index&quot;:null}" fill="url(#color-88)" stroke="url(#color-89)" stroke-width="2" stroke-linecap="round"></path><path d="M257.58119,175.74446c0,0 5.94293,-0.01002 8.62482,1.86454c2.68188,1.87455 4.88632,7.57929 4.88632,7.57929c0,0 -4.04619,7.92717 -6.27532,11.0486c-2.0385,2.85451 -6.57875,6.9509 -6.57875,6.9509c0,0 -3.2763,-7.80674 -3.37704,-12.0147c-0.10074,-4.20796 2.71997,-15.42863 2.71997,-15.42863z" data-paper-data="{&quot;index&quot;:null}" fill="url(#color-90)" stroke="url(#color-91)" stroke-width="2" stroke-linecap="round"></path><path d="M295.86081,193.45439c-0.05559,1.69743 -1.29621,3.63972 -1.29621,3.63972c0,0 -2.1323,0.11266 -3.1683,-0.67671c-1.01396,-0.77257 -2.20522,-2.89911 -2.20522,-2.89911c0,0 1.41111,-2.00833 2.29634,-2.75838c1.18669,-1.0055 4.18837,-2.7361 4.18837,-2.7361c0,0 0.2406,3.73418 0.18505,5.43056z" data-paper-data="{&quot;index&quot;:null}" fill="url(#color-92)" stroke="url(#color-93)" stroke-width="2" stroke-linecap="round"></path><path d="M306.36188,202.36961c0,0 -4.54025,-4.09639 -6.57875,-6.9509c-2.22913,-3.12143 -6.27532,-11.0486 -6.27532,-11.0486c0,0 2.20444,-5.70474 4.88632,-7.57929c2.68189,-1.87456 8.62482,-1.86454 8.62482,-1.86454c0,0 2.83607,10.57994 2.71998,15.42865c-0.11609,4.84871 -3.37705,12.01468 -3.37705,12.01468z" data-paper-data="{&quot;index&quot;:null}" fill="url(#color-94)" stroke="url(#color-95)" stroke-width="2" stroke-linecap="round"></path></g></g></svg>