<svg version="1.1" xmlns="http://www.w3.org/2000/svg" xmlns:xlink="http://www.w3.org/1999/xlink" width="271.10077" height="430.75205" viewBox="0,0,271.10077,430.75205"><g transform="translate(-107.17203,20.58855)"><g data-paper-data="{&quot;isPaintingLayer&quot;:true}" fill-rule="nonzero" stroke-linejoin="miter" stroke-miterlimit="10" stroke-dasharray="" stroke-dashoffset="0" style="mix-blend-mode: normal"><g><path d="M289.87005,8.18429c0,0 2.82729,7.05422 4.20922,17.84945c2.02516,15.81988 3.05552,39.20889 1.39709,56.42886c-1.48661,15.4358 -29.68101,44.80668 -57.09215,45.36599c-26.73651,0.54555 -47.3393,-27.42793 -48.76192,-41.46518c-0.90323,-8.91236 -2.95963,-17.91557 -4.43386,-26.07187c-2.62676,-14.53286 0.70854,-25.44219 0.60561,-32.54412c-0.00186,-0.12802 0.31732,-5.11222 1.09827,-9.12287c0.60714,-3.11815 1.72013,-5.5009 1.72013,-5.5009" fill="#ae2e2e" stroke="#000000" stroke-width="3" stroke-linecap="butt"/><g stroke-linecap="butt"><g fill="#ae2e2e" stroke="#000000"><g stroke-width="0"><path d="M236.86023,132.30792c-14.66213,0.30534 -27.38446,-8.59438 -35.78762,-18.79668c17.74425,-2.16612 23.6684,9.83408 37.70237,8.96535c10.41989,-0.64502 28.6381,-14.45598 41.91026,-14.3605c-10.46194,12.25578 -27.29327,23.84756 -43.82499,24.19184z"/></g><path d="M220.40324,126.03928c-8.09977,-1.50717 -4.81016,10.38299 -4.81016,10.38299c0,0 -13.2031,-9.3233 -14.89854,-15.797c-1.54732,-5.90815 -0.26638,-10.31711 -0.02792,-10.84218" data-paper-data="{&quot;index&quot;:null}" stroke-width="3"/><path d="M253.88762,127.52852c-7.10571,4.73967 -12.14482,17.50456 -12.14482,17.50456c0,0 -5.27731,-2.75607 -8.5157,-7.61577c-2.95547,-4.43514 -2.98599,-9.0032 -2.93873,-9.6838" data-paper-data="{&quot;index&quot;:null}" stroke-width="3"/><path d="M234.51865,127.80163c0,0 -4.30154,5.31382 -4.50938,10.77814c-0.10086,2.65131 0.22895,4.46713 0.22895,4.46713c0,0 -6.0113,-3.02114 -7.70033,-4.68975c-4.75544,-4.69803 -2.24971,-13.59461 -2.24971,-13.59461" data-paper-data="{&quot;index&quot;:null}" stroke-width="3"/><path d="M281.44858,105.7296c3.06713,8.44584 3.01678,8.63769 3.01678,8.63769h-0.00001c0,0 3.43395,12.07372 1.20476,18.97122c-2.16646,6.70334 -15.44535,9.82858 -15.44535,9.82858c0,0 2.79195,-6.42987 1.6094,-11.02767c-1.07114,-4.16466 -7.19457,-6.22829 -7.19457,-6.22829c0,0 -0.69457,5.77785 -3.50321,9.78085c-1.5266,2.17578 -6.21645,3.80843 -6.21645,3.80843c0,0 -0.43524,-3.76068 -1.51064,-6.25721c-0.87461,-2.03036 -3.1727,-3.42437 -4.30346,-4.00987" stroke-width="2.5"/></g><g fill="none" stroke="none" stroke-width="1" font-family="sans-serif" font-weight="normal" font-size="12" text-anchor="start"/><g fill="none" stroke="none" stroke-width="1" font-family="sans-serif" font-weight="normal" font-size="12" text-anchor="start"/><g fill="none" stroke="none" stroke-width="1" font-family="sans-serif" font-weight="normal" font-size="12" text-anchor="start"/></g><path d="M247.33338,-13.20843c-4.69416,-1.63899 -7.46936,9.13649 -7.46936,9.13649c0,0 -1.03551,-8.7625 -3.21291,-11.40441c-2.43669,-2.95651 -6.24744,-4.9559 -9.23117,-2.52554" fill="none" stroke="#000000" stroke-width="3" stroke-linecap="round"/><path d="M298.95536,-8.02725c0,-1.58211 1.76704,-1.58211 1.76704,-1.58211h0.40169c1.55898,0.02343 3.18475,0.20077 4.59036,0.80494c6.87997,1.49821 10.81082,13.10798 3.46015,16.56463c-2.24935,1.05777 -5.63054,1.43792 -8.06453,1.94042c-0.11412,0.02357 -3.43787,0.57712 -3.6485,0.73059c-1.77689,1.29474 0.36548,5.47687 0.59152,6.85304c0,0 0.2499,1.5662 -1.49939,1.78996c-1.74928,0.22374 -1.99916,-1.34247 -1.99916,-1.34247c-0.50286,-3.26288 -2.85762,-6.83435 0.59151,-9.69094c3.31448,-2.74508 10.45915,-0.63908 13.45857,-3.77469c2.76822,-2.8939 -0.28752,-9.6165 -4.0371,-10.07761c-1.0377,-0.48738 -2.27195,-0.6584 -3.44342,-0.63367h-0.40169c0,0 -1.76704,0 -1.76704,-1.58211z" fill="#000000" stroke="none" stroke-width="0.5" stroke-linecap="butt"/><path d="M281.35881,2.06577c0,0 22.61686,14.32941 28.00505,16.99287c6.20732,3.06837 18.95233,4.23617 18.95233,4.23617c0,0 -6.34091,18.16734 -11.80399,23.18038c-5.04295,4.62754 -31.63703,1.97295 -31.63703,1.97295" fill="#ae2e2e" stroke="#000000" stroke-width="0" stroke-linecap="round"/><path d="M309.35193,115.00865c0,-1.58211 1.76703,-1.58211 1.76703,-1.58211h0.40169c5.26804,0.16661 6.12153,2.72003 3.95913,6.65925c-0.87762,1.29623 -1.89029,2.54429 -3.11134,3.59426c-0.84605,0.72752 -1.5068,1.72066 -2.58172,2.14121c-4.46942,1.74867 -8.7372,-3.59065 -9.96653,-6.66946c-0.75039,-1.87935 -0.48609,-4.06596 -0.88325,-6.01584c-0.11086,-0.54426 -0.62355,-4.44348 -1.19936,-4.69383c-1.10984,-0.48254 -7.31491,0.73932 -8.86337,0.93969c0,0 -1.74927,0.22374 -1.99916,-1.34247c-0.2499,-1.56621 1.49937,-1.78996 1.49937,-1.78996c2.61253,-0.33058 8.9211,-1.71717 11.22113,-0.49892c1.04819,0.5552 2.13686,3.65603 2.3927,4.56097c0.8979,3.17614 0.30192,6.45753 2.21043,9.27798c1.76374,2.60649 3.02105,4.36598 5.67079,1.85317c0.93388,-0.88561 1.8192,-1.83146 2.51233,-2.87947c1.00581,-1.75872 1.71793,-2.11683 -0.86115,-1.97239h-0.40169c0,0 -1.76703,0 -1.76703,-1.58211z" fill="#000000" stroke="none" stroke-width="0.5" stroke-linecap="butt"/><path d="M168.83906,67.53779c-0.42857,1.53488 -2.14284,1.15116 -2.14284,1.15116l-0.88768,-0.33393c-2.87513,0.40524 -3.71429,0.60342 -3.74988,3.36237c-0.00663,0.51387 -0.38733,1.10618 -0.07975,1.54007c0.19714,0.27811 0.73024,-0.12332 1.09753,-0.10437c2.09511,0.10818 4.19004,0.45822 6.2844,0.3389c4.98501,-0.284 4.66102,-5.64195 8.20274,-7.74469c0.78447,-0.46575 1.87801,-0.11689 2.81701,-0.17534c0,0 1.76703,0 1.76703,1.5821c0,1.58211 -1.76703,1.58211 -1.76703,1.58211c-2.63795,-0.3855 -3.73895,4.5728 -5.66592,6.0829c-3.20878,2.51459 -8.30673,2.14869 -12.17314,1.46177c-1.06719,-0.1896 -2.43149,-0.09344 -3.12489,-0.84411c-1.95982,-2.12174 -0.99211,-6.83974 0.83503,-8.68209c1.17507,-1.18485 3.44442,-1.28205 4.97588,-1.52083l2.32583,0.38537c0,0 1.71428,0.38371 1.28571,1.91859z" fill="#000000" stroke="none" stroke-width="0.5" stroke-linecap="butt"/><path d="M187.78558,15.26104c0,0 1.00534,-3.44342 3.43537,-7.54704c1.46893,-2.48058 3.45842,-5.20241 6.06113,-7.55069c2.2996,-2.07479 5.22611,-3.92554 8.42506,-5.35077c3.57946,-1.59477 7.50014,-2.65676 11.26543,-2.9037c3.49785,-0.22941 9.00625,1.08497 13.71082,2.48371c4.88559,1.45254 8.90431,2.99607 8.90431,2.99607c0,0 5.30205,-2.77476 12.5005,-4.66008c5.64689,-1.47895 12.46077,-2.41056 18.79758,-1.02595c2.60531,0.56925 5.16367,1.8103 7.54156,3.43551c2.67777,1.83014 5.12665,4.14745 7.15603,6.54122c2.2293,2.6296 3.85387,5.27654 5.04374,7.98438" fill="#ae2e2e" stroke="#000000" stroke-width="0" stroke-linecap="butt"/><g stroke-linecap="round"><path d="M233.98634,100.01376l-26.90477,25.89837c0,0 -2.9081,-0.55264 -3.45255,-3.08809c-0.29942,-1.39434 1.9784,-4.86613 1.48244,-5.71159c-1.60794,-2.74109 -7.1356,-6.72305 -7.1356,-6.72305c0,0 -5.86058,-0.14829 -8.12586,-0.53541c-2.27838,-0.38937 -7.97181,-4.90722 -7.97181,-4.90722c0,0 4.05579,-1.40134 5.45394,-2.95394c1.49257,-1.65744 3.23678,-6.69677 3.23678,-6.69677c0,0 -9.67996,4.52344 -13.58614,2.75558c-4.01572,-1.81744 -10.18872,-13.51557 -10.18872,-13.51557c0,0 5.79335,-2.08715 7.78688,-4.36258c2.60366,-2.97186 7.03722,-4.48161 6.49923,-11.9438c-0.29809,-4.13466 -3.0086,-6.03487 -5.29489,-8.32394c-1.83998,-1.84222 -3.4052,-3.93631 -3.21704,-7.64967c0.19127,-3.77516 2.20338,-7.74485 4.40472,-11.17722c2.65451,-4.13895 2.82918,-9.83839 3.17326,-11.13156c0.62943,-2.3656 -1.11406,-1.98441 -1.11406,-1.98441l20.97661,-3.15817" fill="#ae2e2e" stroke="none" stroke-width="0"/><path d="M200.3177,115.07311c0,0 -1.61213,-3.31634 -3.60593,-4.07803c-2.09619,-0.8008 -5.7008,-0.9427 -6.8618,-1.1411c-2.27838,-0.38937 -7.97181,-4.90722 -7.97181,-4.90722c0,0 4.05579,-1.40134 5.45394,-2.95394c1.49257,-1.65744 3.23678,-6.69677 3.23678,-6.69677c0,0 -9.67996,4.52344 -13.58614,2.75558c-4.01572,-1.81744 -10.18872,-13.51557 -10.18872,-13.51557c0,0 5.79335,-2.08715 7.78688,-4.36258c2.60366,-2.97186 7.03722,-4.48161 6.49923,-11.9438c-0.29809,-4.13466 -3.0086,-6.03487 -5.29489,-8.32394c-1.83998,-1.84222 -3.4052,-3.93631 -3.21704,-7.64967c0.17002,-3.35542 1.79204,-6.91883 3.70952,-10.13259c2.84129,-4.76211 2.48431,-9.8019 2.86012,-11.21431c0.62943,-2.3656 -0.10572,-2.94628 -0.10572,-2.94628" fill="none" stroke="#000000" stroke-width="3"/></g><g stroke="#000000" stroke-linecap="round"><path d="M297.02268,56.10873c0,0 12.6412,7.27518 16.93838,18.20083c0.97103,2.46884 1.492,5.74951 1.45822,9.22811c-0.03657,3.76547 -0.72315,7.76284 -2.19261,11.2136c-3.18054,7.46896 -9.48694,12.69243 -10.38591,13.53038c-1.05638,0.98467 0.84717,-1.93206 -0.29808,-4.14304c-1.32353,-2.55519 -5.69316,-4.46372 -6.83351,-3.09972c-3.36301,4.02262 -6.08256,11.24416 -3.8642,16.18011c1.24371,2.76731 7.67594,5.0188 7.67594,5.0188c0,0 -3.69985,1.66463 -8.44339,3.24148c-1.90314,0.63266 -11.68595,2.00841 -17.66329,-1.1023c-6.2188,-3.23636 -8.6017,-10.97745 -8.6017,-10.97745" fill="#ae2e2e" stroke-width="0"/><path d="M297.25176,56.10873c0,0 12.6412,7.27518 16.93838,18.20083c0.97103,2.46884 1.492,5.74951 1.45821,9.22811c-0.03657,3.76547 -0.72316,7.76284 -2.19261,11.2136c-3.18054,7.46896 -9.48694,12.69243 -10.3859,13.53038c-1.05638,0.98467 0.84717,-1.93206 -0.29808,-4.14304c-1.32353,-2.55519 -5.69315,-4.46372 -6.8335,-3.09972c-3.36301,4.02262 -6.08255,11.24416 -3.8642,16.18011c1.24371,2.76731 7.67592,5.0188 7.67592,5.0188c0,0 -3.30391,2.11087 -8.29672,3.97652c-1.73443,0.6481 -13.62917,0.72582 -19.78212,-2.47794c-6.06987,-3.1605 -6.41065,-9.59873 -6.41065,-9.59873" fill="none" stroke-width="3"/></g><path d="M284.51132,1.67965c0,0 3.2781,3.73118 8.11718,7.52027c5.3105,4.15823 13.52205,8.46512 16.34129,9.85871c6.20732,3.06837 18.95233,4.23617 18.95233,4.23617c0,0 -6.34093,18.16734 -11.80401,23.18038c-5.04297,4.62754 -21.87127,9.03248 -21.87127,9.03248" fill="#ae2e2e" stroke="#000000" stroke-width="3" stroke-linecap="round"/><g data-paper-data="{&quot;index&quot;:null}" stroke="#000000" stroke-linecap="butt"><path d="M300.08841,37.63757c0.54604,4.94895 1.79071,11.74274 6.39239,13.96957c3.43031,1.65999 7.69027,1.73894 7.69027,1.73894c0,0 -5.51718,13.22488 -11.65905,14.26551c-5.60528,0.94969 -21.87844,-4.52212 -22.49288,-4.8474" data-paper-data="{&quot;index&quot;:null}" fill="#ae2e2e" stroke-width="0"/><path d="M303.43219,46.38155c0.95307,8.63811 10.89187,6.69168 10.89187,6.69168c0,0 -5.51721,13.22488 -11.65906,14.2655" data-paper-data="{&quot;index&quot;:null}" fill="none" stroke-width="3"/></g><path d="M194.44682,14.81099c0,0 0.9018,-2.82252 3.08154,-6.18619c1.31763,-2.03329 3.10223,-4.26432 5.43688,-6.18916c2.06276,-1.70066 4.68784,-3.21771 7.55732,-4.38595c3.21081,-1.3072 6.72767,-2.1777 10.10515,-2.38011c3.13759,-0.18805 8.07867,0.88932 12.29869,2.03584c4.38241,1.19062 7.98723,2.45583 7.98723,2.45583c0,0 4.75597,-2.27442 11.21302,-3.8198c5.0653,-1.21227 11.17738,-1.97591 16.86155,-0.84095c2.33699,0.46661 4.63185,1.48387 6.76482,2.81603c2.40197,1.50013 4.59864,3.39959 6.419,5.36172c1.99969,2.15543 3.45695,4.3251 4.52426,6.54466" fill="#ae2e2e" stroke="#000000" stroke-width="0" stroke-linecap="butt"/><g stroke="#000000" stroke-linecap="butt"><path d="M180.93924,41.73073c-0.2016,-3.54805 -4.59671,-5.85068 -7.18333,-9.72811c-1.32894,-1.99212 -3.6621,-4.95516 -3.69123,-7.88679c-0.04891,-4.92282 2.95335,-9.75711 2.95335,-9.75711c0,0 3.05853,5.56247 9.42067,4.72598c2.30136,-0.30257 7.3519,-7.48767 9.49929,-8.68557c3.27046,-1.82439 4.72206,10.68688 5.09129,10.88854" data-paper-data="{&quot;index&quot;:null}" fill="#ae2e2e" stroke-width="0"/><path d="M175.42065,43.40847c0,0 5.50147,-7.58579 1.03181,-9.46873c-13.81953,-5.82175 -3.89447,-20.97356 -3.89447,-20.97356c0,0 5.05939,10.4351 10.76716,5.69609c4.08036,-3.38784 7.02028,-9.17159 7.02028,-9.17159" data-paper-data="{&quot;index&quot;:null}" fill="none" stroke-width="3"/></g><path d="M187.78558,14.67547c0,0 1.00534,-3.44342 3.43537,-7.54704c1.46893,-2.48058 3.45841,-5.20241 6.06113,-7.55069c2.2996,-2.07479 5.22611,-3.92554 8.42506,-5.35077c3.57946,-1.59476 7.50014,-2.65675 11.26543,-2.9037c3.49785,-0.22941 9.00624,1.08497 13.7108,2.48371c4.88559,1.45254 8.9043,2.99607 8.9043,2.99607c0,0 5.30208,-2.77474 12.5005,-4.66007c5.64689,-1.47895 12.46077,-2.41057 18.79759,-1.02596c2.60531,0.56925 5.16367,1.8103 7.54156,3.43551c2.67777,1.83014 5.12667,4.14745 7.15603,6.54122c2.2293,2.62958 3.85387,5.27654 5.04374,7.98438" fill="none" stroke="#000000" stroke-width="3" stroke-linecap="butt"/></g><g stroke-width="3"><g data-paper-data="{&quot;index&quot;:null}" stroke="#000000"><g data-paper-data="{&quot;index&quot;:null}" fill="#ffdfc2" stroke-linecap="round"><path d="M243.26402,323.09367l0.42735,-89.32714c0,0 16.26748,-6.4383 24.49016,-7.48718c6.99151,-0.89184 33.24345,1.5883 33.24345,1.5883l4.05784,96.6366" data-paper-data="{&quot;index&quot;:null}"/></g><g data-paper-data="{&quot;index&quot;:null}"><path d="M304.95466,310.66793l18.02337,80.43469l-58.38438,17.18082l-21.35167,-85.23585" data-paper-data="{&quot;index&quot;:null}" fill="#ffdfc2" stroke-linecap="round"/><path d="" data-paper-data="{&quot;index&quot;:null}" fill="#000000" stroke-linecap="butt"/></g></g><path d="M303.64959,268.01874l-60.28671,8.52292c0,0 -0.54522,-7.3713 -1.14701,-8.80305c-0.65553,-1.55961 -2.57888,-1.42622 -2.57888,-1.42622l3.85122,-32.54587c-23.99127,0 59.32453,-5.42542 59.32453,-5.42542z" data-paper-data="{&quot;index&quot;:null}" fill="#000000" stroke="#131119" stroke-linecap="butt"/></g><g data-paper-data="{&quot;index&quot;:null}"><path d="M150.49176,284.55143c12.87204,1.44045 22.35256,11.13617 21.17532,21.65596c-0.88469,7.90576 -8.83716,6.47091 -17.5518,8.41353c-2.88147,0.64233 -4.68812,8.38399 -7.88666,8.02605c-12.87204,-1.44045 -22.35256,-11.13617 -21.17532,-21.65596c1.17724,-10.51979 12.56643,-17.88004 25.43847,-16.43957z" fill="#0d062b" stroke="#07031d" stroke-width="0" stroke-linecap="butt"/><path d="M122.34376,301.36539c0,0 23.73462,-54.32693 29.39436,-82.60679c5.45517,-27.2577 16.06975,-80.29527 16.06975,-80.29527c0,0 4.45042,-16.99038 22.03423,-13.00286c18.99083,4.30658 15.47957,23.17827 15.47957,23.17827c0,0 -8.39066,50.42591 -12.68496,76.23367c-4.43045,26.62598 -22.36353,83.20301 -22.36353,83.20301" fill="#ffdfc2" stroke="#000000" stroke-width="3" stroke-linecap="round"/><path d="M134.25445,317.26306l-10.92037,3.15615c0,0 -1.2165,4.72484 -1.25146,6.86398c-0.02993,1.83098 -0.48371,5.68119 -0.48371,5.68119c0,0 -14.21744,-13.74802 -12.83179,-21.84753c1.38566,-8.09951 18.33916,-10.34449 18.33916,-10.34449" fill="#0d062b" stroke="#07031d" stroke-width="3" stroke-linecap="round"/><path d="M157.85597,311.16399l-7.01784,8.94235c0,0 1.77366,4.54512 2.99524,6.30151c1.04561,1.50336 2.92715,4.89302 2.92715,4.89302c0,0 -19.57106,-2.84908 -23.17936,-10.23164c-3.60828,-7.38256 8.83796,-19.11084 8.83796,-19.11084" fill="#0d062b" stroke="#07031d" stroke-width="3" stroke-linecap="round"/><path d="M125.47938,293.00523l28.61301,-70.7677c0,0 5.67287,3.02552 9.05934,3.2621c1.3995,0.09777 6.13153,-2.10998 5.9169,-5.74017c-0.15982,-2.70305 -3.62989,-7.1396 -3.62989,-7.1396c0,0 10.653,-0.17158 14.58363,1.74413c7.41056,3.61176 10.90733,10.44709 10.90733,10.44709l-19.38346,73.00672z" fill="#050119" stroke="#000000" stroke-width="3" stroke-linecap="butt"/><path d="M170.84481,299.39794l1.64383,11.24784c0,0 4.51587,1.84688 6.63044,2.17205c1.80995,0.27831 5.56286,1.25077 5.56286,1.25077c0,0 -15.55149,12.21863 -23.38778,9.74584c-7.83629,-2.47279 -7.75806,-19.57412 -7.75806,-19.57412" fill="#0d062b" stroke="#07031d" stroke-width="3" stroke-linecap="round"/><path d="M121.84054,302.58889l27.14649,-70.08403c0,0 2.73873,-7.0036 5.80781,-8.50425c2.24436,-1.0974 10.91957,0.32529 10.91957,0.32529c0,0 -5.3134,3.31648 -6.00984,5.06208c-0.63869,1.60085 0.14676,3.77979 1.98944,5.01492c1.84268,1.23514 3.86823,1.04083 5.57788,0.05737c1.50066,-0.86322 -0.18345,-3.91619 -0.18345,-3.91619c0,0 6.10505,2.15398 8.1081,2.61563c6.70712,1.54586 11.31573,-19.2298 11.31573,-19.2298c0,0 6.29355,8.46129 5.77321,14.95618c-1.23728,15.44349 -22.55082,81.53053 -22.55082,81.53053" fill="#0d062b" stroke="#07031d" stroke-width="3" stroke-linecap="butt"/></g><g><path d="M335.04814,284.55145c12.87205,-1.44047 24.26123,5.91978 25.43847,16.43957c1.17724,10.51979 -8.30328,20.21551 -21.17532,21.65596c-3.19854,0.35794 -5.00518,-7.38372 -7.88666,-8.02605c-8.71464,-1.94262 -16.6671,-0.50777 -17.5518,-8.41353c-1.17724,-10.51979 8.30328,-20.21551 21.17532,-21.65596z" fill="#0d062b" stroke="#07031d" stroke-width="0" stroke-linecap="butt"/><path d="M315.26674,308.07543c0,0 -17.93308,-56.57703 -22.36353,-83.20301c-4.2943,-25.80776 -12.68496,-76.23367 -12.68496,-76.23367c0,0 -3.51126,-18.87169 15.47956,-23.17827c17.5838,-3.98752 22.03423,13.00286 22.03423,13.00286c0,0 10.61459,53.03757 16.06976,80.29527c5.65974,28.27986 29.39436,82.60679 29.39436,82.60679" fill="#ffdfc2" stroke="#000000" stroke-width="3" stroke-linecap="round"/><path d="M358.43364,300.77236c0,0 16.95351,2.24499 18.33917,10.34449c1.38565,8.09951 -12.83179,21.84753 -12.83179,21.84753c0,0 -0.45378,-3.85021 -0.4837,-5.68119c-0.03496,-2.13914 -1.25146,-6.86398 -1.25146,-6.86398l-10.92037,-3.15615" fill="#0d062b" stroke="#07031d" stroke-width="3" stroke-linecap="round"/><path d="M343.1208,301.95839c0,0 12.44625,11.72828 8.83797,19.11084c-3.6083,7.38256 -23.17936,10.23164 -23.17936,10.23164c0,0 1.88153,-3.38966 2.92714,-4.89302c1.22158,-1.75639 2.99524,-6.30151 2.99524,-6.30151l-7.01784,-8.94235" fill="#0d062b" stroke="#07031d" stroke-width="3" stroke-linecap="round"/><path d="M313.99368,297.8178l-19.38346,-73.00672c0,0 3.49676,-6.83533 10.90733,-10.44709c3.93063,-1.91571 14.58364,-1.74413 14.58364,-1.74413c0,0 -3.47007,4.43655 -3.62989,7.1396c-0.21463,3.63019 4.5174,5.83794 5.9169,5.74017c3.38647,-0.23658 9.05934,-3.2621 9.05934,-3.2621l28.61301,70.7677z" fill="#050119" stroke="#000000" stroke-width="3" stroke-linecap="butt"/><path d="M332.00381,304.24032c0,0 0.07822,17.10134 -7.75806,19.57412c-7.83628,2.47279 -23.38777,-9.74584 -23.38777,-9.74584c0,0 3.75291,-0.97246 5.56286,-1.25077c2.11456,-0.32517 6.63043,-2.17205 6.63043,-2.17205l1.64384,-11.24784" fill="#0d062b" stroke="#07031d" stroke-width="3" stroke-linecap="round"/><path d="M315.80526,310.41661c0,0 -21.31353,-66.08704 -22.55082,-81.53053c-0.52034,-6.49489 5.77321,-14.95618 5.77321,-14.95618c0,0 4.60861,20.77567 11.31573,19.22981c2.00305,-0.46165 8.1081,-2.61563 8.1081,-2.61563c0,0 -1.68411,3.05296 -0.18345,3.91619c1.70965,0.98346 3.73519,1.17777 5.57788,-0.05737c1.84269,-1.23513 2.62813,-3.41407 1.98944,-5.01492c-0.69644,-1.7456 -6.00984,-5.06208 -6.00984,-5.06208c0,0 8.67521,-1.42269 10.91956,-0.32529c3.06908,1.50065 5.80781,8.50425 5.80781,8.50425l27.14649,70.08403" fill="#0d062b" stroke="#07031d" stroke-width="3" stroke-linecap="butt"/></g><g stroke-width="3"><g data-paper-data="{&quot;index&quot;:null}"><path d="M176.25957,324.50424l4.05784,-96.63659c0,0 26.25194,-2.48014 33.24345,-1.5883c8.22268,1.04888 24.49016,7.48718 24.49016,7.48718l0.42735,89.32714" data-paper-data="{&quot;index&quot;:null}" fill="#ffdfc2" stroke="#000000" stroke-linecap="round"/><path d="M179.32652,228.34111c0,0 83.3158,5.42542 59.32453,5.42542l2.69737,33.44783c0,0 -1.9536,-0.25259 -2.72559,1.05158c-0.57479,0.97103 -0.37524,9.33484 -0.37524,9.33484l-59.75792,-19.26557z" data-paper-data="{&quot;index&quot;:null}" fill="#000000" stroke="#131119" stroke-linecap="butt"/></g><g data-paper-data="{&quot;index&quot;:null}" stroke="#000000"><path d="M238.50041,323.04759l-21.35167,85.23585l-58.38438,-17.18082l18.02337,-80.43469" data-paper-data="{&quot;index&quot;:null}" fill="#ffdfc2" stroke-linecap="round"/><path d="" data-paper-data="{&quot;index&quot;:null}" fill="#000000" stroke-linecap="butt"/></g></g><g fill="#ffdfc2" stroke="#000000" stroke-width="3" stroke-linecap="butt"><path d="M239.61549,110.39707h-0.00001c23.98464,-1.47306 63.15852,25.9856 60.21195,48.52243c-0.64697,4.94829 -10.70097,22.3976 -10.70097,22.3976c0,0 24.1443,56.46112 -3.35474,65.75507c-15.46787,5.22773 -37.19626,6.15926 -46.06159,5.36297"/><path d="M240.28993,252.43513h-0.00001c-8.86533,0.79629 -30.59372,-0.13524 -46.06159,-5.36297c-27.49904,-9.29395 -3.35474,-65.75506 -3.35474,-65.75506c0,0 -10.05401,-17.44931 -10.70097,-22.3976c-2.94657,-22.53683 36.22731,-49.9955 60.21195,-48.52243" data-paper-data="{&quot;index&quot;:null}"/></g><path d="M251.10217,267.33199c0,1.6998 -4.39596,3.07776 -9.81866,3.07776c-5.4227,0 -9.81866,-1.37797 -9.81866,-3.07776c0,-1.6998 4.39596,-3.07776 9.81866,-3.07776c5.4227,0 9.81866,1.37796 9.81866,3.07776z" fill="#000000" stroke="#000000" stroke-width="0" stroke-linecap="butt"/><path d="M246.40001,269.46657c0,0 -3.55805,1.47541 -5.40984,1.47541c-1.95418,0 -6.02459,-1.47541 -6.02459,-1.47541" fill="none" stroke="#131119" stroke-width="3" stroke-linecap="round"/><g fill="#ff7474" stroke="#000000" stroke-width="3" stroke-linecap="butt"><path d="M239.64031,123.43163c4.07065,-0.25001 24.10719,-8.37417 24.54352,-8.17704c20.44369,9.23654 40.0156,28.25338 37.86118,44.73147c-0.67052,5.1285 -11.09067,23.21326 -11.09067,23.21326c0,0 8.46416,28.66286 11.87645,42.3063c3.23775,12.94555 0.73755,37.84338 0.73755,37.84338c0,0 -15.39545,4.97061 -29.55808,3.52818c-13.35352,-1.36003 -34.27187,-1.51536 -34.27187,-1.51536" data-paper-data="{&quot;index&quot;:null}"/><path d="M240.30048,265.36181c0,0 -20.91834,0.15534 -34.27187,1.51536c-14.16263,1.44243 -29.55807,-3.52818 -29.55807,-3.52818c0,0 -2.5002,-24.89782 0.73755,-37.84337c3.41229,-13.64344 11.87645,-42.3063 11.87645,-42.3063c0,0 -10.42015,-18.08476 -11.09067,-23.21326c-2.15442,-16.47809 17.41749,-35.49493 37.86118,-44.73147c0.43633,-0.19713 20.47287,7.92703 24.54352,8.17704" data-paper-data="{&quot;index&quot;:null}"/></g><g stroke="#000000" stroke-linecap="round"><path d="M242.46384,114.67305l-17.2701,0.46452c0,0 -2.79684,-6.84955 -3.38321,-10.66417c-0.66199,-4.3066 -0.38944,-13.87897 -0.38944,-13.87897c0,0 14.8941,-3.02521 21.47966,-3.02521" data-paper-data="{&quot;index&quot;:null}" fill="#ffdfc2" stroke-width="0"/><g><path d="M241.28147,87.56921c5.77608,0 18.83943,3.02521 18.83943,3.02521c0,0 0.23905,9.57238 -0.34157,13.87897c-0.51429,3.81463 -2.96735,10.66418 -2.96735,10.66418l-15.1473,-0.46452" data-paper-data="{&quot;index&quot;:null}" fill="#ffdfc2" stroke-width="0"/><path d="M224.70074,114.29489c0,0 -2.34971,-7.37118 -2.90049,-11.35358c-0.55915,-4.04291 -0.42969,-12.72505 -0.42969,-12.72505c0,0 13.101,-3.27731 19.59574,-3.27731c6.42121,0 19.15461,3.27731 19.15461,3.27731c0,0 0.26443,8.23954 -0.29299,12.26993c-0.5526,3.99553 -3.03719,11.8087 -3.03719,11.8087" data-paper-data="{&quot;index&quot;:null}" fill="none" stroke-width="3"/></g></g><path d="M190.68271,14.87807c7.96189,-6.17958 26.93305,-6.14715 49.25847,-7.65046c33.17158,-2.23365 44.81017,10.36952 44.81017,10.36952c0,0 -86.08851,1.09435 -95.7379,1.21701z" fill="#ae2e2e" stroke="#000000" stroke-width="0" stroke-linecap="round"/><path d="M186.59653,53.7853c-0.41722,-29.37906 23.06102,-36.61984 52.44009,-37.03705c29.37907,-0.41722 53.53374,6.14712 53.95095,35.52619c0.41722,29.37907 -23.061,53.53374 -52.44009,53.95095c-29.37907,0.41722 -53.53374,-23.06102 -53.95095,-52.44008z" fill="#ffdfc2" stroke="#000000" stroke-width="3" stroke-linecap="butt"/><path d="M288.25721,58.66735c0.79877,7.08545 -11.17784,10.39225 -20.85865,10.78558c-9.68083,0.39333 -23.12022,-1.80157 -23.24075,-8.99384c-0.06684,-3.98844 4.87222,-23.18328 18.57351,-23.73995c7.08196,-0.28775 14.77615,2.39153 19.37051,7.14861c4.29422,4.44629 5.70838,10.83436 6.1554,14.79962z" data-paper-data="{&quot;index&quot;:null}" fill="#000000" stroke="#000000" stroke-width="3" stroke-linecap="round"/><g fill="none" stroke-width="4"><path d="M264.30351,42.52457l-16.49538,22.9195" stroke="#ffe200" stroke-linecap="round"/><path d="M247.60521,42.89361l16.90118,22.18138" stroke="#00ff31" stroke-linecap="round"/><path d="M247.49056,42.74307l16.86856,-0.29575l0.26201,22.77825l-16.86857,0.29575z" stroke="#ff0000" stroke-linecap="butt"/></g><path d="M292.50156,61.58794c0.82743,9.53082 -15.80997,13.5019 -29.17007,13.65536c-13.36012,0.15346 -31.80144,-3.3085 -31.68977,-12.95636c0.06191,-5.35018 7.61176,-30.89537 26.52036,-31.11253c10.64225,-0.12223 20.70319,3.67041 26.91645,11.04135c4.82616,5.72538 7.00403,14.54561 7.42305,19.37218zM290.15006,61.47022c0,-5.52285 -2.81476,-23.79302 -25.38844,-23.86765c-15.39511,-0.05089 -19.06593,17.33429 -19.06593,22.85714c0,5.52285 10.83692,9.21739 16.35977,9.21739c5.52285,0 28.09461,-2.68403 28.09461,-8.20687z" data-paper-data="{&quot;index&quot;:null}" fill="#ffdfc2" stroke="#000000" stroke-width="0" stroke-linecap="round"/><path d="M290.20142,59.45599c0.61688,7.10554 -11.78685,10.06611 -21.74725,10.18052c-9.96041,0.11441 -23.70902,-2.4666 -23.62577,-9.65939c0.04616,-3.98874 5.67482,-23.03352 19.7718,-23.19542c7.93415,-0.09113 15.43491,2.73641 20.0671,8.23169c3.59806,4.26846 5.22174,10.84423 5.53413,14.4426z" data-paper-data="{&quot;index&quot;:null}" fill="none" stroke="#000000" stroke-width="3" stroke-linecap="round"/><path d="M189.97103,59.45599c0.31239,-3.59837 1.93607,-10.17414 5.53413,-14.4426c2.04286,-2.4235 4.64364,-4.32814 7.59346,-5.69239c3.7389,-1.72919 8.03856,-2.59024 12.47364,-2.5393c14.09698,0.1619 19.72564,19.20668 19.7718,23.19542c0.08325,7.19279 -13.66536,9.7738 -23.62577,9.65939c-9.9604,-0.11441 -22.36413,-3.07498 -21.74725,-10.18052z" data-paper-data="{&quot;index&quot;:null}" fill="#000000" stroke="#000000" stroke-width="3" stroke-linecap="round"/><path d="M223.82216,49.61438l6.4281,-8.66501l3.08611,4.32176c0,0 -3.31021,4.46213 -4.50395,6.07128c-0.7878,1.06193 -1.96153,2.64411 -1.96153,2.64411l6.66382,8.48579l-2.98523,4.42796l-6.62528,-8.43674l-6.4281,8.66504l-3.08612,-4.32177l6.46546,-8.7154l-6.6638,-8.48579l2.98522,-4.42795z" data-paper-data="{&quot;index&quot;:null}" fill="#ff6a00" stroke="#000000" stroke-width="0" stroke-linecap="round"/><path d="M187.67089,61.58794c0.41902,-4.82657 2.59689,-13.6468 7.42305,-19.37218c6.21326,-7.37094 16.2742,-11.16359 26.91645,-11.04135c18.90859,0.21716 19.11801,25.76235 19.17993,31.11254c0.11166,9.64785 -10.98923,13.10981 -24.34935,12.95636c-13.36011,-0.15346 -29.99751,-4.12454 -29.17007,-13.65536zM218.117,69.67709c5.52284,0 16.35977,-3.69454 16.35977,-9.21739c0,-5.52285 -3.67083,-22.90803 -19.06593,-22.85714c-22.57368,0.07463 -25.38844,18.34481 -25.38844,23.86766c0,5.52285 22.57176,8.20687 28.09461,8.20687z" data-paper-data="{&quot;index&quot;:null}" fill="#ffdfc2" stroke="#000000" stroke-width="0" stroke-linecap="round"/><path d="M190.14545,59.45599c0.31239,-3.59837 1.93607,-10.17414 5.53413,-14.4426c4.63219,-5.49528 12.13295,-8.32282 20.0671,-8.23169c14.09698,0.1619 19.72564,19.20668 19.7718,23.19542c0.08325,7.19279 -13.66536,9.7738 -23.62577,9.65939c-9.9604,-0.11441 -22.36413,-3.07498 -21.74725,-10.18052z" data-paper-data="{&quot;index&quot;:null}" fill="none" stroke="#000000" stroke-width="3" stroke-linecap="round"/><path d="M195.02831,82.12412c0,0 6.1636,-4.46381 10.714,-4.61681c16.58523,-0.55761 15.49924,9.48537 15.49924,9.48537c0,0 -5.5654,0.05862 -7.4448,0.30651c-1.21236,0.15992 -2.73607,1.03636 -2.73607,1.03636c0,0 2.06417,8.25504 2.49905,9.82542c0.17441,0.62978 -5.25668,-2.47274 -5.25668,-2.47274" fill="#000000" stroke="#000000" stroke-width="3" stroke-linecap="round"/><path d="M265.69322,98.84528c0,0 -5.01876,1.95698 -4.79062,1.44247c0.56886,-1.2829 3.37025,-8.05469 3.37025,-8.05469c0,0 -1.18736,-0.93916 -2.19998,-1.22853c-1.56976,-0.44861 -6.38728,2.69104 -6.38728,2.69104c0,0 -0.6429,-8.21492 2.19637,-11.66361c1.36656,-1.65989 6.56858,-2.08907 11.13654,-1.25395c3.85719,0.70519 11.07882,7.61329 11.07882,7.61329" data-paper-data="{&quot;index&quot;:null}" fill="#000000" stroke="#000000" stroke-width="3" stroke-linecap="round"/><path d="M255.84782,87.74553c0,0 -1.80796,1.33422 -4.57169,1.03474c-2.76372,-0.29947 -5.18497,-2.09199 -5.18497,-2.09199c0,0 -3.3017,3.20783 -7.29436,3.30669c-3.99266,0.09887 -7.50529,-3.05303 -7.50529,-3.05303c0,0 -3.89365,1.90456 -5.55799,2.06328c-1.66433,0.15872 -4.28489,-1.05725 -4.28489,-1.05725" data-paper-data="{&quot;index&quot;:null}" fill="none" stroke="#000000" stroke-width="3" stroke-linecap="round"/><path d="M308.69488,87.14248c0,0 -15.56536,12.56494 -15.94949,14.43876c-0.41544,2.02651 -6.99418,3.73462 -6.99418,3.73462c0,0 -7.57574,-5.00867 -8.41208,-8.1379c-0.679,-2.54055 -0.53756,-6.00673 -1.08012,-5.53274c-0.81701,0.71374 -2.71005,1.59919 -3.33445,3.03856c-1.01504,2.33988 -0.54334,5.32568 -0.54334,5.32568c0,0 -4.1651,-4.55455 -5.07751,-6.50157c-1.08286,-2.31074 -0.9963,-6.4595 -0.9963,-6.4595c0,0 0.14915,-7.47751 3.36632,-10.94352c4.60962,-4.96616 18.68969,-12.18819 21.649,-16.00665c2.95931,-3.81845 -1.9583,-7.1171 0.34584,-12.37387c2.30415,-5.25677 9.86064,-10.91154 9.86064,-10.91154" fill="#ae2e2e" stroke="#000000" stroke-width="0" stroke-linecap="round"/><g data-paper-data="{&quot;index&quot;:null}" stroke="#000000" stroke-linecap="round"><g><path d="M220.757,13.09995c0,0 1.22489,3.94062 -0.85214,7.78311c-3.04009,5.62416 -10.16806,12.03342 -13.95817,13.77025c-4.38302,2.00857 -22.40236,6.16662 -23.2237,-0.22487c-0.69446,-5.4041 15.50142,-21.39302 15.50142,-21.39302" fill="#ae2e2e" stroke-width="0"/><path d="M248.68714,10.64872c6.09428,2.4306 6.61755,25.76608 5.02827,29.45548c-0.93669,2.17445 -3.03822,6.25442 -6.76971,8.17162c-2.82752,1.45275 -7.62496,1.07281 -7.62496,1.07281c0,0 7.35513,-7.83387 1.38761,-12.48853c-5.96752,-4.65467 -15.74989,-0.49347 -19.0797,-3.46904c-3.3298,-2.97558 -2.42833,-24.82377 -2.42833,-24.82377" fill="#ae2e2e" stroke-width="0"/><g><path d="M290.99288,25.6728c0,0 -0.53437,4.14679 -4.14814,5.18399c-3.9769,1.14141 -13.35885,-5.7316 -17.59681,-7.67368c-8.23952,-3.77582 -21.22634,1.53849 -21.22634,1.53849l-4.05149,-15.23638l38.36498,-2.41011z" data-paper-data="{&quot;index&quot;:null}" fill="#ae2e2e" stroke-width="0"/><g stroke-width="3"><path d="M248.68714,24.37157c6.09428,2.4306 6.61755,12.04322 5.02827,15.73262c-0.93669,2.17445 -3.03822,6.25442 -6.76971,8.17162c-2.82752,1.45275 -7.62496,1.07281 -7.62496,1.07281c0,0 7.35513,-7.83387 1.38761,-12.48853c-5.96752,-4.65467 -15.74989,-0.49347 -19.0797,-3.46904c-3.3298,-2.97558 -2.42833,-11.10091 -2.42833,-11.10091" fill="#ae2e2e"/><path d="M218.57879,22.24852c0,0 -6.25254,9.48133 -12.63208,12.40479c-8.08894,3.70681 -22.75209,1.47135 -22.75209,1.47135" fill="#ae2e2e"/><path d="M291.42852,25.37067c0,0 -0.53437,4.14678 -4.14814,5.18398c-3.9769,1.14141 -13.35885,-5.7316 -17.59681,-7.67366c-8.23952,-3.77582 -21.22634,1.53849 -21.22634,1.53849" data-paper-data="{&quot;index&quot;:null}" fill="none"/></g></g></g><path d="M286.45349,92.83213c0,0 -0.56536,3.94425 -0.94949,5.81807c-0.41544,2.02651 0.2472,6.66566 0.2472,6.66566c0,0 -7.57574,-5.00867 -8.41208,-8.1379c-0.679,-2.54055 -0.53756,-6.00673 -1.08012,-5.53274c-0.81701,0.71374 -2.71005,1.59919 -3.33445,3.03856c-1.01504,2.33988 -0.54334,5.32568 -0.54334,5.32568c0,0 -4.1651,-4.55455 -5.07751,-6.50157c-1.08286,-2.31074 -0.9963,-6.4595 -0.9963,-6.4595c0,0 0.14915,-7.47751 3.36632,-10.94352c4.60962,-4.96616 18.68969,-12.18819 21.649,-16.00665c2.95931,-3.81845 -1.9583,-7.1171 0.34584,-12.37387c2.30415,-5.25677 9.86064,-10.91154 9.86064,-10.91154" fill="#ae2e2e" stroke-width="3"/><g><path d="M176.27978,53.58041c0.94087,-0.34483 3.79865,-21.71066 5.46243,-21.87166c3.23679,-0.31322 9.79568,-0.14186 10.97579,1.04614c2.18028,2.19485 3.87357,5.69107 4.46782,10.14752c1.31693,9.87587 -0.88301,23.29844 -1.83323,29.45135c-0.44143,2.85842 -0.47319,5.51906 0.26025,7.73337c0.76191,2.30025 2.34958,4.11884 5.16155,5.17722c4.24077,1.59615 16.4055,1.7385 16.4055,1.7385c0,0 3.8964,15.19425 -4.66887,17.55554c-3.9207,1.08087 -23.66711,-12.59432 -27.77607,-18.86655c-0.41198,-0.62888 -5.76815,-28.99529 -6.09443,-29.6126" fill="#ae2e2e" stroke-width="0"/><path d="M212.17251,104.96611c8.56526,-2.36129 5.00739,-17.96329 5.00739,-17.96329c0,0 -12.16474,-0.14236 -16.4055,-1.7385c-4.99432,-1.87977 -6.78051,-5.33652 -6.78051,-5.33652c0,0 9.11149,-35.65039 0.19406,-47.69535" fill="none" stroke-width="3"/></g></g></g></g></svg>