<svg version="1.1" xmlns="http://www.w3.org/2000/svg" xmlns:xlink="http://www.w3.org/1999/xlink" width="203.6534" height="528.07221" viewBox="0,0,203.6534,528.07221"><defs><linearGradient x1="302.3842" y1="72.69238" x2="290.54121" y2="116.80099" gradientUnits="userSpaceOnUse" id="color-1"><stop offset="0" stop-color="#e6b1e5"></stop><stop offset="1" stop-color="#ffdfc2"></stop></linearGradient><radialGradient cx="301.77823" cy="89.25399" r="37.74536" gradientUnits="userSpaceOnUse" id="color-2"><stop offset="0" stop-color="#d7a7e1"></stop><stop offset="1" stop-color="#d7a7e1" stop-opacity="0"></stop></radialGradient><linearGradient x1="181.28352" y1="72.69238" x2="193.12651" y2="116.80099" gradientUnits="userSpaceOnUse" id="color-3"><stop offset="0" stop-color="#e6b1e5"></stop><stop offset="1" stop-color="#ffdfc2"></stop></linearGradient><radialGradient cx="181.88949" cy="89.25399" r="37.74536" gradientUnits="userSpaceOnUse" id="color-4"><stop offset="0" stop-color="#d7a7e1"></stop><stop offset="1" stop-color="#d7a7e1" stop-opacity="0"></stop></radialGradient><linearGradient x1="276.09331" y1="173.69348" x2="276.09331" y2="314.49555" gradientUnits="userSpaceOnUse" id="color-5"><stop offset="0" stop-color="#6a56c2"></stop><stop offset="1" stop-color="#94808c"></stop></linearGradient><linearGradient x1="209.34006" y1="173.69348" x2="209.34006" y2="314.49555" gradientUnits="userSpaceOnUse" id="color-6"><stop offset="0" stop-color="#6a56c2"></stop><stop offset="1" stop-color="#94808c"></stop></linearGradient><linearGradient x1="242.61481" y1="98.40056" x2="242.61481" y2="128.71132" gradientUnits="userSpaceOnUse" id="color-7"><stop offset="0" stop-color="#090c14"></stop><stop offset="1" stop-color="#04060c"></stop></linearGradient><linearGradient x1="241.99438" y1="131.95551" x2="241.99438" y2="159.1866" gradientUnits="userSpaceOnUse" id="color-8"><stop offset="0" stop-color="#04060c"></stop><stop offset="1" stop-color="#12151c"></stop></linearGradient><linearGradient x1="241.22515" y1="209.65431" x2="241.22515" y2="263.1328" gradientUnits="userSpaceOnUse" id="color-9"><stop offset="0" stop-color="#12151c"></stop><stop offset="1" stop-color="#1e232a"></stop></linearGradient></defs><g transform="translate(-140.00716,77.61771)"><g data-paper-data="{&quot;isPaintingLayer&quot;:true}" fill-rule="nonzero" stroke-linejoin="miter" stroke-miterlimit="10" stroke-dasharray="" stroke-dashoffset="0" style="mix-blend-mode: normal"><g><path d="M290.81704,-48.84487c0,0 2.82729,7.05422 4.20922,17.84945c2.02516,15.81988 3.05552,39.20889 1.39709,56.42886c-1.48661,15.4358 -29.68101,44.80668 -57.09215,45.36599c-26.73651,0.54555 -47.3393,-27.42793 -48.76192,-41.46518c-0.90323,-8.91236 -2.95963,-17.91557 -4.43386,-26.07187c-2.62676,-14.53286 0.70854,-25.44219 0.60561,-32.54412c-0.00186,-0.12802 0.31732,-5.11222 1.09827,-9.12287c0.60714,-3.11815 1.72013,-5.5009 1.72013,-5.5009" fill="#ae2e2e" stroke="#000000" stroke-width="3" stroke-linecap="butt"></path><g stroke-linecap="butt"><g fill="#ae2e2e" stroke="#000000"><g stroke-width="0"><path d="M237.80722,75.27876c-14.66213,0.30534 -27.38446,-8.59438 -35.78762,-18.79668c17.74425,-2.16612 23.6684,9.83408 37.70237,8.96535c10.41989,-0.64502 28.6381,-14.45598 41.91026,-14.3605c-10.46194,12.25578 -27.29327,23.84756 -43.82499,24.19184z"></path></g><path d="M221.35023,69.01012c-8.09977,-1.50717 -4.81016,10.38299 -4.81016,10.38299c0,0 -13.2031,-9.3233 -14.89854,-15.797c-1.54732,-5.90815 -0.26638,-10.31711 -0.02792,-10.84218" data-paper-data="{&quot;index&quot;:null}" stroke-width="3"></path><path d="M254.83461,70.49936c-7.10571,4.73967 -12.14482,17.50456 -12.14482,17.50456c0,0 -5.27731,-2.75607 -8.5157,-7.61577c-2.95547,-4.43514 -2.98599,-9.0032 -2.93873,-9.6838" data-paper-data="{&quot;index&quot;:null}" stroke-width="3"></path><path d="M235.46564,70.77247c0,0 -4.30154,5.31382 -4.50938,10.77814c-0.10086,2.65131 0.22895,4.46713 0.22895,4.46713c0,0 -6.0113,-3.02114 -7.70033,-4.68975c-4.75544,-4.69803 -2.24971,-13.59461 -2.24971,-13.59461" data-paper-data="{&quot;index&quot;:null}" stroke-width="3"></path><path d="M282.39558,48.70044c3.06713,8.44584 3.01678,8.63769 3.01678,8.63769h-0.00001c0,0 3.43395,12.07372 1.20476,18.97122c-2.16646,6.70334 -15.44535,9.82858 -15.44535,9.82858c0,0 2.79195,-6.42987 1.6094,-11.02767c-1.07114,-4.16466 -7.19457,-6.22829 -7.19457,-6.22829c0,0 -0.69457,5.77785 -3.50321,9.78085c-1.5266,2.17578 -6.21645,3.80843 -6.21645,3.80843c0,0 -0.43524,-3.76068 -1.51064,-6.25721c-0.87461,-2.03036 -3.1727,-3.42437 -4.30346,-4.00987" stroke-width="2.5"></path></g><g fill="none" stroke="none" stroke-width="1" font-family="sans-serif" font-weight="normal" font-size="12" text-anchor="start"></g><g fill="none" stroke="none" stroke-width="1" font-family="sans-serif" font-weight="normal" font-size="12" text-anchor="start"></g><g fill="none" stroke="none" stroke-width="1" font-family="sans-serif" font-weight="normal" font-size="12" text-anchor="start"></g></g><path d="M248.28037,-70.23759c-4.69416,-1.63899 -7.46936,9.13649 -7.46936,9.13649c0,0 -1.03551,-8.7625 -3.21291,-11.40441c-2.43669,-2.95651 -6.24744,-4.9559 -9.23117,-2.52554" fill="none" stroke="#000000" stroke-width="3" stroke-linecap="round"></path><path d="M299.90236,-65.05641c0,-1.58211 1.76704,-1.58211 1.76704,-1.58211h0.40169c1.55898,0.02343 3.18475,0.20077 4.59036,0.80494c6.87997,1.49821 10.81082,13.10798 3.46015,16.56463c-2.24935,1.05777 -5.63054,1.43792 -8.06453,1.94042c-0.11412,0.02357 -3.43787,0.57712 -3.6485,0.73059c-1.77689,1.29474 0.36548,5.47687 0.59152,6.85304c0,0 0.2499,1.5662 -1.49939,1.78996c-1.74928,0.22374 -1.99916,-1.34247 -1.99916,-1.34247c-0.50286,-3.26288 -2.85762,-6.83435 0.59151,-9.69094c3.31448,-2.74508 10.45915,-0.63908 13.45857,-3.77469c2.76822,-2.8939 -0.28752,-9.6165 -4.0371,-10.07761c-1.0377,-0.48738 -2.27195,-0.6584 -3.44342,-0.63367h-0.40169c0,0 -1.76704,0 -1.76704,-1.58211z" fill="#000000" stroke="none" stroke-width="0.5" stroke-linecap="butt"></path><path d="M282.3058,-54.96339c0,0 22.61686,14.32941 28.00505,16.99287c6.20732,3.06837 18.95233,4.23617 18.95233,4.23617c0,0 -6.34091,18.16734 -11.80399,23.18038c-5.04295,4.62754 -31.63703,1.97295 -31.63703,1.97295" fill="#ae2e2e" stroke="#000000" stroke-width="0" stroke-linecap="round"></path><path d="M310.29892,57.97949c0,-1.58211 1.76703,-1.58211 1.76703,-1.58211h0.40169c5.26804,0.16661 6.12153,2.72003 3.95913,6.65925c-0.87762,1.29623 -1.89029,2.54429 -3.11134,3.59426c-0.84605,0.72752 -1.5068,1.72066 -2.58172,2.14121c-4.46942,1.74867 -8.7372,-3.59065 -9.96653,-6.66946c-0.75039,-1.87935 -0.48609,-4.06596 -0.88325,-6.01584c-0.11086,-0.54426 -0.62355,-4.44348 -1.19936,-4.69383c-1.10984,-0.48254 -7.31491,0.73932 -8.86337,0.93969c0,0 -1.74927,0.22374 -1.99916,-1.34247c-0.2499,-1.56621 1.49937,-1.78996 1.49937,-1.78996c2.61253,-0.33058 8.9211,-1.71717 11.22113,-0.49892c1.04819,0.5552 2.13686,3.65603 2.3927,4.56097c0.8979,3.17614 0.30192,6.45753 2.21043,9.27798c1.76374,2.60649 3.02105,4.36598 5.67079,1.85317c0.93388,-0.88561 1.8192,-1.83146 2.51233,-2.87947c1.00581,-1.75872 1.71793,-2.11683 -0.86115,-1.97239h-0.40169c0,0 -1.76703,0 -1.76703,-1.58211z" fill="#000000" stroke="none" stroke-width="0.5" stroke-linecap="butt"></path><path d="M169.78605,10.50863c-0.42857,1.53488 -2.14284,1.15116 -2.14284,1.15116l-0.88768,-0.33393c-2.87513,0.40524 -3.71429,0.60342 -3.74988,3.36237c-0.00663,0.51387 -0.38733,1.10618 -0.07975,1.54007c0.19714,0.27811 0.73024,-0.12332 1.09753,-0.10437c2.09511,0.10818 4.19004,0.45822 6.2844,0.3389c4.98501,-0.284 4.66102,-5.64195 8.20274,-7.74469c0.78447,-0.46575 1.87801,-0.11689 2.81701,-0.17534c0,0 1.76703,0 1.76703,1.5821c0,1.58211 -1.76703,1.58211 -1.76703,1.58211c-2.63795,-0.3855 -3.73895,4.5728 -5.66592,6.0829c-3.20878,2.51459 -8.30673,2.14869 -12.17314,1.46177c-1.06719,-0.1896 -2.43149,-0.09344 -3.12489,-0.84411c-1.95982,-2.12174 -0.99211,-6.83974 0.83503,-8.68209c1.17507,-1.18485 3.44442,-1.28205 4.97588,-1.52083l2.32583,0.38537c0,0 1.71428,0.38371 1.28571,1.91859z" fill="#000000" stroke="none" stroke-width="0.5" stroke-linecap="butt"></path><path d="M188.73257,-41.76812c0,0 1.00534,-3.44342 3.43537,-7.54704c1.46893,-2.48058 3.45842,-5.20241 6.06113,-7.55069c2.2996,-2.07479 5.22611,-3.92554 8.42506,-5.35077c3.57946,-1.59477 7.50014,-2.65676 11.26543,-2.9037c3.49785,-0.22941 9.00625,1.08497 13.71082,2.48371c4.88559,1.45254 8.90431,2.99607 8.90431,2.99607c0,0 5.30205,-2.77476 12.5005,-4.66008c5.64689,-1.47895 12.46077,-2.41056 18.79758,-1.02595c2.60531,0.56925 5.16367,1.8103 7.54156,3.43551c2.67777,1.83014 5.12665,4.14745 7.15603,6.54122c2.2293,2.6296 3.85387,5.27654 5.04374,7.98438" fill="#ae2e2e" stroke="#000000" stroke-width="0" stroke-linecap="butt"></path><g stroke-linecap="round"><path d="M234.93333,42.9846l-26.90477,25.89837c0,0 -2.9081,-0.55264 -3.45255,-3.08809c-0.29942,-1.39434 1.9784,-4.86613 1.48244,-5.71159c-1.60794,-2.74109 -7.1356,-6.72305 -7.1356,-6.72305c0,0 -5.86058,-0.14829 -8.12586,-0.53541c-2.27838,-0.38937 -7.97181,-4.90722 -7.97181,-4.90722c0,0 4.05579,-1.40134 5.45394,-2.95394c1.49257,-1.65744 3.23678,-6.69677 3.23678,-6.69677c0,0 -9.67996,4.52344 -13.58614,2.75558c-4.01572,-1.81744 -10.18872,-13.51557 -10.18872,-13.51557c0,0 5.79335,-2.08715 7.78688,-4.36258c2.60366,-2.97186 7.03722,-4.48161 6.49923,-11.9438c-0.29809,-4.13466 -3.0086,-6.03487 -5.29489,-8.32394c-1.83998,-1.84222 -3.4052,-3.93631 -3.21704,-7.64967c0.19127,-3.77516 2.20338,-7.74485 4.40472,-11.17722c2.65451,-4.13895 2.82918,-9.83839 3.17326,-11.13156c0.62943,-2.3656 -1.11406,-1.98441 -1.11406,-1.98441l20.97661,-3.15817" fill="#ae2e2e" stroke="none" stroke-width="0"></path><path d="M201.26469,58.04395c0,0 -1.61213,-3.31634 -3.60593,-4.07803c-2.09619,-0.8008 -5.7008,-0.9427 -6.8618,-1.1411c-2.27838,-0.38937 -7.97181,-4.90722 -7.97181,-4.90722c0,0 4.05579,-1.40134 5.45394,-2.95394c1.49257,-1.65744 3.23678,-6.69677 3.23678,-6.69677c0,0 -9.67996,4.52344 -13.58614,2.75558c-4.01572,-1.81744 -10.18872,-13.51557 -10.18872,-13.51557c0,0 5.79335,-2.08715 7.78688,-4.36258c2.60366,-2.97186 7.03722,-4.48161 6.49923,-11.9438c-0.29809,-4.13466 -3.0086,-6.03487 -5.29489,-8.32394c-1.83998,-1.84222 -3.4052,-3.93631 -3.21704,-7.64967c0.17002,-3.35542 1.79204,-6.91883 3.70952,-10.13259c2.84129,-4.76211 2.48431,-9.8019 2.86012,-11.21431c0.62943,-2.3656 -0.10572,-2.94628 -0.10572,-2.94628" fill="none" stroke="#000000" stroke-width="3"></path></g><g stroke="#000000" stroke-linecap="round"><path d="M297.96967,-0.92043c0,0 12.6412,7.27518 16.93838,18.20083c0.97103,2.46884 1.492,5.74951 1.45822,9.22811c-0.03657,3.76547 -0.72315,7.76284 -2.19261,11.2136c-3.18054,7.46896 -9.48694,12.69243 -10.38591,13.53038c-1.05638,0.98467 0.84717,-1.93206 -0.29808,-4.14304c-1.32353,-2.55519 -5.69316,-4.46372 -6.83351,-3.09972c-3.36301,4.02262 -6.08256,11.24416 -3.8642,16.18011c1.24371,2.76731 7.67594,5.0188 7.67594,5.0188c0,0 -3.69985,1.66463 -8.44339,3.24148c-1.90314,0.63266 -11.68595,2.00841 -17.66329,-1.1023c-6.2188,-3.23636 -8.6017,-10.97745 -8.6017,-10.97745" fill="#ae2e2e" stroke-width="0"></path><path d="M298.19876,-0.92043c0,0 12.6412,7.27518 16.93838,18.20083c0.97103,2.46884 1.492,5.74951 1.45821,9.22811c-0.03657,3.76547 -0.72316,7.76284 -2.19261,11.2136c-3.18054,7.46896 -9.48694,12.69243 -10.3859,13.53038c-1.05638,0.98467 0.84717,-1.93206 -0.29808,-4.14304c-1.32353,-2.55519 -5.69315,-4.46372 -6.8335,-3.09972c-3.36301,4.02262 -6.08255,11.24416 -3.8642,16.18011c1.24371,2.76731 7.67592,5.0188 7.67592,5.0188c0,0 -3.30391,2.11087 -8.29672,3.97652c-1.73443,0.6481 -13.62917,0.72582 -19.78212,-2.47794c-6.06987,-3.1605 -6.41065,-9.59873 -6.41065,-9.59873" fill="none" stroke-width="3"></path></g><path d="M285.45831,-55.34951c0,0 3.2781,3.73118 8.11718,7.52027c5.3105,4.15823 13.52205,8.46512 16.34129,9.85871c6.20732,3.06837 18.95233,4.23617 18.95233,4.23617c0,0 -6.34093,18.16734 -11.80401,23.18038c-5.04297,4.62754 -21.87127,9.03248 -21.87127,9.03248" fill="#ae2e2e" stroke="#000000" stroke-width="3" stroke-linecap="round"></path><g data-paper-data="{&quot;index&quot;:null}" stroke="#000000" stroke-linecap="butt"><path d="M301.0354,-19.39159c0.54604,4.94895 1.79071,11.74274 6.39239,13.96957c3.43031,1.65999 7.69027,1.73894 7.69027,1.73894c0,0 -5.51718,13.22488 -11.65905,14.26551c-5.60528,0.94969 -21.87844,-4.52212 -22.49288,-4.8474" data-paper-data="{&quot;index&quot;:null}" fill="#ae2e2e" stroke-width="0"></path><path d="M304.37918,-10.64761c0.95307,8.63811 10.89187,6.69168 10.89187,6.69168c0,0 -5.51721,13.22488 -11.65906,14.2655" data-paper-data="{&quot;index&quot;:null}" fill="none" stroke-width="3"></path></g><path d="M195.39381,-42.21817c0,0 0.9018,-2.82252 3.08154,-6.18619c1.31763,-2.03329 3.10223,-4.26432 5.43688,-6.18916c2.06276,-1.70066 4.68784,-3.21771 7.55732,-4.38595c3.21081,-1.3072 6.72767,-2.1777 10.10515,-2.38011c3.13759,-0.18805 8.07867,0.88932 12.29869,2.03584c4.38241,1.19062 7.98723,2.45583 7.98723,2.45583c0,0 4.75597,-2.27442 11.21302,-3.8198c5.0653,-1.21227 11.17738,-1.97591 16.86155,-0.84095c2.33699,0.46661 4.63185,1.48387 6.76482,2.81603c2.40197,1.50013 4.59864,3.39959 6.419,5.36172c1.99969,2.15543 3.45695,4.3251 4.52426,6.54466" fill="#ae2e2e" stroke="#000000" stroke-width="0" stroke-linecap="butt"></path><g stroke="#000000" stroke-linecap="butt"><path d="M181.88623,-15.29843c-0.2016,-3.54805 -4.59671,-5.85068 -7.18333,-9.72811c-1.32894,-1.99212 -3.6621,-4.95516 -3.69123,-7.88679c-0.04891,-4.92282 2.95335,-9.75711 2.95335,-9.75711c0,0 3.05853,5.56247 9.42067,4.72598c2.30136,-0.30257 7.3519,-7.48767 9.49929,-8.68557c3.27046,-1.82439 4.72206,10.68688 5.09129,10.88854" data-paper-data="{&quot;index&quot;:null}" fill="#ae2e2e" stroke-width="0"></path><path d="M176.36764,-13.62069c0,0 5.50147,-7.58579 1.03181,-9.46873c-13.81953,-5.82175 -3.89447,-20.97356 -3.89447,-20.97356c0,0 5.05939,10.4351 10.76716,5.69609c4.08036,-3.38784 7.02028,-9.17159 7.02028,-9.17159" data-paper-data="{&quot;index&quot;:null}" fill="none" stroke-width="3"></path></g><path d="M188.73257,-42.35369c0,0 1.00534,-3.44342 3.43537,-7.54704c1.46893,-2.48058 3.45841,-5.20241 6.06113,-7.55069c2.2996,-2.07479 5.22611,-3.92554 8.42506,-5.35077c3.57946,-1.59476 7.50014,-2.65675 11.26543,-2.9037c3.49785,-0.22941 9.00624,1.08497 13.7108,2.48371c4.88559,1.45254 8.9043,2.99607 8.9043,2.99607c0,0 5.30208,-2.77474 12.5005,-4.66007c5.64689,-1.47895 12.46077,-2.41057 18.79759,-1.02596c2.60531,0.56925 5.16367,1.8103 7.54156,3.43551c2.67777,1.83014 5.12667,4.14745 7.15603,6.54122c2.2293,2.62958 3.85387,5.27654 5.04374,7.98438" fill="none" stroke="#000000" stroke-width="3" stroke-linecap="butt"></path></g><g data-paper-data="{&quot;index&quot;:null}"><g><g stroke="none" stroke-width="0.5" stroke-linecap="butt"><path d="M333.11898,249.91936c-0.98962,-1.12723 0.13761,-2.11685 0.13761,-2.11685l0.00367,0.23008c2.39916,-6.1325 -3.92519,-7.25616 -8.61087,-7.62901c-7.47045,-1.18952 -14.19206,0.59745 -21.55187,1.59477c-2.57995,0.3496 -5.91846,-0.2106 -8.39365,0.65591c-3.05148,1.06826 -6.16552,4.64698 -7.69021,7.75476l0.25453,0.75369c0.17076,0.21822 0.28005,0.48195 0.31082,0.76173l0.03492,0.262l0.20329,0.60196c0.0978,0.27625 0.11585,0.58394 0.03411,0.88835c-0.00811,0.03022 -0.01708,0.05998 -0.0269,0.08925l0.14628,1.0977l-0.01119,0.0015c0.00519,0.01147 0.01037,0.02295 0.01555,0.03443l-0.00804,0.03699l0.01152,-0.00097l0.24477,2.89915c0.01939,0.17932 0.00652,0.36518 -0.04306,0.54983c-0.08746,0.32573 -0.27568,0.59748 -0.5221,0.79073c-0.06128,0.28175 -0.16589,0.54564 -0.33114,0.7897c0.07535,0.10174 0.13768,0.2127 0.18535,0.33005l0.11882,0.00609l-0.01938,0.37812c0.01204,0.09979 0.0141,0.20169 0.00539,0.30436l-0.09796,1.50699c-0.00484,0.10692 -0.02126,0.21495 -0.05016,0.32258c-0.08953,0.33346 -0.28465,0.61034 -0.53972,0.80435c-0.35317,1.24992 -0.64702,2.08326 -1.09983,2.89085l0.28561,0.11628l-0.92798,2.27913c-0.0477,0.12218 -0.11022,0.23517 -0.1849,0.33742c-0.25699,1.06277 -0.44084,1.93012 -0.69783,3.54414c-0.11368,0.71395 0.13789,1.55503 -0.23621,2.16315c0.01378,0.07991 0.02112,0.16143 0.02162,0.24386l0.04534,1.55479c0.12023,2.01528 0.38222,3.64728 0.49332,5.35374c0.09907,0.07096 0.18825,0.15325 0.26619,0.24448l0.1826,-0.04307l0.10835,0.45937l0.24991,0.37354c0.19135,-0.02583 0.3909,-0.0149 0.58905,0.0383c0.05038,0.01352 0.09946,0.02946 0.14717,0.04765l1.52964,0.56352c0.64529,0.17662 1.25139,0.46494 1.82429,0.8229l0.17323,-0.0585l0.08466,-0.18586l0.19826,0.09032l0.94352,-0.31864c0.38143,-0.15823 0.7322,-0.30003 1.05989,-0.42725c0.10242,-0.11301 0.22111,-0.20924 0.35129,-0.2859l2.00004,-1.17993c1.62247,-0.9851 3.12404,-3.26506 4.71615,-4.58584l0.76535,-1.78921c0.19992,-0.72963 0.51579,-1.41846 0.90267,-2.07509l-0.28602,-0.13734l1.07251,-2.2336c0.29897,-0.65417 1.03495,-1.01618 1.75271,-0.82346c0.66326,0.17809 1.10275,0.77395 1.11128,1.42835l0.07205,1.99007c0.23983,1.51358 1.19178,3.02431 1.72674,4.45425c0.05175,0.08015 0.09583,0.16514 0.13158,0.25376l0.92371,2.2257l0.82085,1.42343c0.0388,0.06727 0.0724,0.13756 0.10044,0.21017c0.26996,0.45649 0.53551,0.86368 0.90577,1.3465c0.21152,-0.03842 0.43467,-0.03174 0.65608,0.0277c0.30442,0.08173 0.56169,0.25147 0.75179,0.47448l1.06698,1.21534c1.13707,1.18033 2.60555,1.64731 3.07284,2.85618c1.90603,-1.21001 3.77693,-2.36892 5.03574,-4.30863c0.83638,-1.28879 0.99173,-3.50363 1.72446,-4.75087c-0.14452,-0.30897 -0.18501,-0.66864 -0.08964,-1.02386l0.36938,-1.37572c0.01863,-0.49861 -0.21507,-1.09415 0.09274,-1.4817c0.01534,-0.01932 0.03135,-0.03774 0.04799,-0.0553c-0.00327,-0.01229 -0.00637,-0.02462 -0.00933,-0.037l-0.02274,-0.0045l0.01036,-0.05224c-0.0181,-0.09148 -0.02778,-0.18525 -0.02835,-0.28022l-0.04584,-1.57183l0.04889,-0.00143l-0.04796,-0.1107c0.0147,-0.03586 0.02938,-0.07172 0.04408,-0.10756l-0.03478,-0.00421l0.25825,-2.13434c0.00816,-0.07795 0.02257,-0.15628 0.04354,-0.2344c0.21482,-0.80009 1.03758,-1.27454 1.83766,-1.05972c0.40005,0.10741 0.71868,0.36681 0.91045,0.69935l0.76083,1.31934c0.14846,0.26143 0.22465,0.57041 0.23846,0.8899c0.11733,0.04319 0.22649,0.09992 0.32612,0.16793l0.00275,-0.00252l0.01105,0.01206c0.10505,0.07346 0.19927,0.15954 0.28106,0.25548l1.06902,1.21766c0.07782,0.08607 0.14529,0.18076 0.20116,0.2819c1.02122,1.033 1.78498,1.8406 2.49322,2.69682l0.16019,-0.18047l2.21929,1.96999c0.14665,0.12477 0.26707,0.27614 0.35579,0.44452c0.31908,0.13069 0.63883,0.25789 0.95918,0.38379l0.01673,-0.12817l1.33963,0.17481l0.84632,-0.53422c2.58533,-1.64735 2.17331,-3.17066 3.72788,-5.29093c0.0339,-0.04624 0.06837,-0.09197 0.1034,-0.13725l-0.03216,-0.01711l0.41205,-0.77418l-0.01167,-0.04085l0.03427,-0.00978l-0.05536,-0.0729c-0.30754,-1.84131 -0.70927,-2.70726 -0.33351,-3.85948l-0.35537,0.03232l-0.03715,-0.40862c-0.16142,-0.18062 -0.27755,-0.39853 -0.33715,-0.63417l-0.55388,-2.0348l0.01653,-0.0045l-0.02846,-0.04232c-0.39994,-1.9563 -1.61222,-4.59209 -1.09533,-6.41614c-0.15177,-0.16722 -0.26438,-0.36709 -0.3287,-0.58378l-0.58078,-1.84858c-0.28483,-0.71207 -0.55251,-1.24958 -0.69742,-1.73681c-0.52968,-0.16428 -0.90696,-0.59892 -1.01989,-1.10978l-0.43143,-1.78589c-0.26238,-0.73211 -0.52478,-1.46423 -0.78716,-2.19634c0,0 -0.04467,-0.12503 -0.07026,-0.314c-0.14866,-0.08418 -0.29844,-0.20479 -0.44518,-0.37194zM333.94786,239.41153c3.01529,1.92328 3.18293,6.70512 2.14635,9.60566c0.25689,0.27529 0.3653,0.57861 0.3653,0.57861c0.10254,0.28771 0.2051,0.57542 0.30765,0.86313c0.37831,0.16235 0.66301,0.46915 0.80546,0.83603l0.85202,2.12585l-0.27151,0.10882c0.30599,0.56864 0.54706,1.15634 0.88165,1.99361c0.53402,0.21437 0.88937,0.71333 0.93482,1.26928l0.22062,2.09624l-0.10069,0.0106c-0.00332,0.11484 -0.01997,0.23111 -0.05106,0.34691c-0.00745,0.02771 -0.01563,0.05505 -0.0245,0.08197c0.57408,1.77836 0.93278,3.55877 1.34369,5.58934c0.5074,0.22961 0.84024,0.72162 0.87685,1.26507l0.2685,2.95282l-0.14549,0.01322c0.24913,0.8326 0.4561,1.68441 0.63951,2.66356c0.38151,0.27815 0.61378,0.72532 0.61671,1.20258l0.0448,1.53698c0.00801,0.15357 -0.00763,0.31099 -0.04966,0.46753c-0.15721,0.58551 -0.63999,0.99665 -1.20123,1.09085c0.02756,2.3322 -3.09896,4.89527 -4.77115,5.99799l-0.01356,-0.00376l0.00558,0.00883l-0.28598,0.18052c-0.15941,0.39073 -0.47157,0.68482 -0.84645,0.83039l-1.39776,0.56021c-0.29436,0.12169 -0.62966,0.15098 -0.96107,0.062c-0.5364,-0.14402 -0.92643,-0.56131 -1.06053,-1.0618c-1.06572,0.21299 -2.00928,-0.49445 -3.41855,-1.16552l-0.09226,-0.16949l-0.05305,0.06554l-1.15106,-0.93183c-0.44273,-0.34228 -0.67138,-0.91741 -0.55153,-1.49225c-0.8258,-0.47298 -1.42746,-1.24523 -2.48781,-2.31669l-0.01936,-0.06464l-0.02143,0.01798l-0.57012,-0.67996l-0.02015,0.10156l-0.09489,-0.01881c0.00464,0.07486 0.00869,0.14972 0.01212,0.22459c0.1748,0.27223 0.26155,0.5999 0.23307,0.93586l-0.09998,1.53789l-0.03388,-0.00221c0.00658,0.04955 0.01227,0.09929 0.01702,0.14922c0.40899,4.30196 -3.73041,9.86888 -7.76961,10.94504l0.0455,0.05802c0.28876,0.36015 0.40795,0.84829 0.27908,1.32828c-0.21482,0.80008 -1.03758,1.27454 -1.83766,1.05972c-0.16017,-0.04301 -0.30726,-0.11038 -0.43842,-0.19704l-1.74242,-1.09438l0.15329,-0.24408c-0.5359,-0.23627 -1.0322,-0.50582 -1.52056,-0.82973c-0.28611,0.11027 -0.60851,0.13411 -0.92732,0.04851c-0.26478,-0.0711 -0.4939,-0.20877 -0.67418,-0.39017l-1.1182,-1.08301l0.21303,-0.21996l-0.0795,-0.11881c-1.52203,-1.03505 -2.56982,-2.30523 -3.63132,-3.96452c-0.0891,-0.09086 -0.16605,-0.19248 -0.22923,-0.30204l-1.08689,-1.88477l0.00379,-0.00219c-0.01143,-0.01983 -0.02288,-0.03971 -0.03436,-0.05963l0.00065,-0.1234l-0.04627,0.01793l-0.45002,-1.16081c-0.55289,-0.8039 -1.00802,-1.65759 -1.37878,-2.58881c-0.33056,1.50104 -1.59373,2.95524 -3.01859,4.18345c0.21272,0.34064 0.2889,0.76531 0.17655,1.18376c-0.1255,0.46742 -0.45848,0.82369 -0.8732,0.99633l-2.50531,1.07005l-0.01943,-0.04548l-0.1041,0.09192c-0.04579,-0.0029 -0.09158,-0.00579 -0.13735,-0.00869l0.01021,0.0441l-1.24214,0.28776c-0.62537,0.31422 -1.38035,0.52316 -2.40653,0.92686c-0.00627,0.03109 -0.01358,0.06217 -0.02191,0.09322c-0.20321,0.75689 -0.95048,1.22235 -1.70793,1.08855l-1.48946,-0.24441c-0.0553,-0.00838 -0.1107,-0.01993 -0.16599,-0.03477c-0.34707,-0.09319 -0.63288,-0.30078 -0.82772,-0.57129c-0.14425,-0.0306 -0.28803,-0.07977 -0.43165,-0.13637c-0.24743,0.06721 -0.51542,0.07182 -0.78091,0.00054c-0.03105,-0.00834 -0.06162,-0.0176 -0.09166,-0.02773l-2.14909,-0.70695c-0.28413,0.10767 -0.60353,0.13029 -0.9194,0.04548c-0.55503,-0.14903 -0.95335,-0.59061 -1.07357,-1.11423l-0.37,-1.48122c-0.02589,-0.09581 -0.04239,-0.19468 -0.04874,-0.29529l-0.10011,-0.42445l0.14219,-0.03354c0.00214,-0.00855 0.00435,-0.0171 0.00665,-0.02565c0.01534,-0.05713 0.03376,-0.11259 0.05507,-0.16626c-1.19226,-0.97759 -1.18125,-2.77445 -1.19109,-4.54567c-0.5472,-0.33979 -0.83238,-1.00913 -0.65673,-1.66333l0.59841,-2.22876l0.21846,0.05865c0.0074,-0.01141 0.01493,-0.0227 0.02261,-0.03388c0.08796,-2.65289 0.56709,-5.10554 1.27847,-8.02814l0.00974,-0.01247l-0.0061,-0.00162l0.4738,-1.79327c0.0006,-0.00226 0.00119,-0.00452 0.0018,-0.00678c0.10169,-0.37871 0.33956,-0.68446 0.64677,-0.87869c0.14808,-0.48696 0.34228,-1.02512 0.51707,-1.67613l0.33113,-1.23331l0.02946,-0.57457l0.16146,0.00827c0.01741,-0.03294 0.03599,-0.06503 0.05563,-0.09628c-0.2889,-1.53285 -0.38145,-3.01986 -0.42811,-5.01212l0.02083,-0.05785l-0.01875,-0.00103l0.01181,-0.21528c-0.61035,-1.38064 -1.12494,-2.8108 -1.65484,-4.49467l0.05076,-0.19005l-0.0735,0.00437l-0.11352,-1.90763c-0.00953,-0.11483 -0.00585,-0.23212 0.01222,-0.34983c-0.07257,-0.06058 -0.1449,-0.13108 -0.21652,-0.21265c-0.98961,-1.12723 0.13761,-2.11686 0.13761,-2.11686l2.87618,0.4613c0.06135,0.30962 0.12271,0.60095 0.18361,0.87761c2.04772,-3.08967 5.04287,-5.96308 8.18045,-7.05764c3.41666,-1.19192 7.71418,-0.46792 11.28988,-1.18805c6.64977,-1.33924 13.15253,-2.24176 19.89807,-1.17413c2.53141,0.2163 6.78396,0.61147 8.93942,1.9863z" fill="#000000"></path><path d="M333.14724,247.73149c0,0 -1.1253,0.99221 -0.13568,2.11944c0.14673,0.16715 0.29715,0.2887 0.44581,0.37288c0.02557,0.18897 0.0706,0.31452 0.0706,0.31452c0.26238,0.73211 0.52714,1.46832 0.78952,2.20043l0.43304,1.78931c0.11293,0.51088 0.49128,0.94825 1.02096,1.11253c0.14492,0.48723 0.41374,1.02842 0.69857,1.74048l0.58169,1.85244c0.06432,0.2167 0.17715,0.41783 0.32892,0.58504c-0.51689,1.82405 0.69583,4.47265 1.09576,6.42897l0.02845,0.04239l-0.01653,0.00451l0.55338,2.03851c0.05959,0.23563 0.17554,0.45457 0.33697,0.6352l0.03701,0.40933l0.35541,-0.0325c-0.37577,1.15223 0.02425,2.02443 0.33178,3.86573l0.05533,0.07298l-0.03428,0.00982l0.01164,0.0409l-0.41257,0.7756l0.03216,0.01712c-0.03502,0.04528 -0.06961,0.09127 -0.10351,0.13751c-1.55458,2.12027 -1.14788,3.65365 -3.73321,5.30099l-0.84729,0.53559l-1.34038,-0.17383l-0.01685,0.12834c-0.32035,-0.1259 -0.64044,-0.25265 -0.95953,-0.38335c-0.08871,-0.16839 -0.28737,-0.38206 -0.43401,-0.50682l-2.14068,-1.90818l-0.23869,0.11852c-0.70824,-0.85623 -1.47294,-1.66261 -2.49415,-2.69562c-0.05588,-0.10114 -0.12351,-0.19559 -0.20133,-0.28166l-1.06963,-1.2168c-0.0818,-0.09594 -0.1761,-0.1819 -0.28115,-0.25536l0.07074,0.0455l-0.00276,0.00253c-0.09963,-0.06801 -0.29046,-0.18244 -0.40779,-0.22562c-0.01381,-0.31948 -0.09113,-0.62681 -0.23959,-0.88824l-0.76217,-1.31715c-0.19177,-0.33254 -0.4236,-0.54231 -0.82364,-0.64972c-0.80008,-0.21482 -1.62733,0.26629 -1.84215,1.06638c-0.02097,0.07812 -0.03596,0.15715 -0.04412,0.23511l-0.26315,2.13945l0.03486,0.00415c-0.0147,0.03586 -0.0297,0.07199 -0.0444,0.10783l0.04786,0.11081l-0.049,0.00152l0.04308,1.5741c0.00057,0.09497 0.00984,0.18905 0.02794,0.28053l-0.01047,0.05231l-0.03705,-0.07564c0.00295,0.01238 0.06585,0.10487 0.06912,0.11714c-0.01664,0.01756 -0.03285,0.03613 -0.04819,0.05545c-0.30781,0.38755 -0.07661,0.98481 -0.09525,1.48343l-0.3721,1.37736c-0.09538,0.35521 -0.05594,0.71546 0.08858,1.02443c-0.73274,1.24723 -0.89619,3.4655 -1.73257,4.75429c-1.25881,1.93971 -3.14198,3.10092 -5.04802,4.31094c-0.46729,-1.20888 -1.94241,-1.67589 -3.07948,-2.85622l-1.06975,-1.21562c-0.1901,-0.22301 -0.44932,-0.39304 -0.75374,-0.47477c-0.2214,-0.05944 -0.44612,-0.06639 -0.65763,-0.02798c-0.37026,-0.48282 -0.63871,-0.89069 -0.90867,-1.34718c-0.02803,-0.07261 -0.06202,-0.143 -0.10081,-0.21027l-0.82395,-1.42439l-0.92825,-2.22752c-0.03574,-0.08862 -0.08045,-0.1739 -0.1322,-0.25405c-0.53495,-1.42994 -1.49792,-2.9478 -1.73775,-4.46138l-0.07613,-1.99397c-0.00854,-0.6544 -0.45275,-1.25617 -1.11602,-1.43426c-0.71775,-0.19271 -1.37063,0.11372 -1.66959,0.7679l-1.07484,2.23032l0.28548,0.13663c-0.38688,0.65663 -0.70465,1.3432 -0.90457,2.07285l-0.76677,1.7877c-1.59212,1.32078 -3.16506,3.67077 -4.78753,4.65587l-2.00073,1.17921c-0.13017,0.07667 -0.24891,0.17285 -0.35133,0.28587c-0.32769,0.12723 -0.67893,0.26851 -1.06036,0.42674l-0.94396,0.31817l-0.19847,-0.09057l-0.00967,0.11973l-0.24821,0.12466c-0.5729,-0.35796 -1.18079,-0.64847 -1.82608,-0.82508l-1.5309,-0.56518c-0.04771,-0.01819 -0.09689,-0.03427 -0.14728,-0.0478c-0.19815,-0.0532 -0.39801,-0.06458 -0.58936,-0.03875l-0.2503,-0.37409l-0.10872,-0.45992l-0.18266,0.04298c-0.07793,-0.09123 -0.16741,-0.17394 -0.26647,-0.24491c-0.1111,-1.70647 -0.37666,-3.3451 -0.4969,-5.36039l-0.04622,-1.55692c-0.0005,-0.08242 -0.00798,-0.16429 -0.02176,-0.24421c0.37409,-0.60812 0.12148,-1.45224 0.23516,-2.16618c0.25699,-1.61402 0.43948,-2.48676 0.69647,-3.54955c0.07469,-0.10225 0.13711,-0.21575 0.18481,-0.33794l0.92744,-2.28292l-0.28562,-0.11655c0.45281,-0.80758 0.74643,-1.64622 1.09959,-2.89615c0.25507,-0.194 0.45024,-0.47247 0.53977,-0.80592c0.02889,-0.10762 0.04534,-0.21629 0.05018,-0.3232l0.09821,-1.50993c0.00871,-0.10267 0.00673,-0.20516 -0.00532,-0.30494l0.01947,-0.37885l-0.11882,-0.00607c-0.04767,-0.11735 -0.10993,-0.22888 -0.18527,-0.33062c0.16525,-0.24408 0.27014,-0.50954 0.33141,-0.79129c0.24642,-0.19325 0.43497,-0.46667 0.52243,-0.79241c0.04958,-0.18464 0.06268,-0.37154 0.04331,-0.55086l-0.24329,-2.90411l-0.01152,0.00097l0.00806,-0.03706c-0.00518,-0.01147 -0.01034,-0.02299 -0.01552,-0.03447l0.01119,-0.00151l-0.14565,-1.0994c0.00981,-0.02927 0.01885,-0.05918 0.02697,-0.0894c0.08173,-0.30441 0.06426,-0.61346 -0.03354,-0.8897l-0.20294,-0.60272l-0.03475,-0.26236c-0.03077,-0.27978 -0.13962,-0.54439 -0.31039,-0.7626l-0.25411,-0.75455c1.52468,-3.10777 4.65042,-6.70137 7.70189,-7.76963c2.47518,-0.86651 5.82566,-0.314 8.40561,-0.6636c7.35981,-0.99732 14.12432,-2.78369 21.59476,-1.59416c4.68569,0.37286 11.02729,1.5105 8.62812,7.643l-0.00389,-0.23036z" data-paper-data="{&quot;noHover&quot;:false,&quot;origItem&quot;:[&quot;Path&quot;,{&quot;applyMatrix&quot;:true,&quot;segments&quot;:[[[211.02749,472.38643],[2.49615,-1.6641],[-0.37013,0.24675]],[[209.97469,472.87398],[0.33083,-0.08551],[-0.14741,0.35174]],[[209.67612,473.44406],[0,0],[-0.88651,1.27806]],[[207.01658,477.27824],[0.88651,-1.27806],[0,0]],[[205.25702,480.5041],[0,0],[-0.48308,0.92821]],[[202.71146,482.1188],[1.10832,-0.04261],[-0.5326,0.86596]],[[200.46359,485.11191],[0.91945,-1.2277],[0,0]],[[198.38302,488.38138],[0,0],[-0.23661,0.38519]],[[197.44535,489.33851],[0.37988,-0.24428],[0.05242,3.79138]],[[192.00206,501.1638],[1.7871,-3.57137],[0,0]],[191.92514,501.23079],[191.95472,501.24805],[[189.82955,504.89119],[0,0],[-0.23731,0.42424]],[[188.84941,505.94129],[0.40547,-0.26518],[0,0]],[188.56572,506.7113],[[187.89606,506.46458],[0,0],[0.12823,2.42051]],[[185.25024,513.74652],[1.54897,-3.39714],[0,0]],[185.10551,513.85863],[185.16663,513.89531],[185.12292,513.96815],[185.51733,515.67724],[[185.44633,515.69362],[0,0],[0.04417,0.10561]],[[185.57489,516.01235],[-0.0415,-0.10689],[1.90319,4.90172]],[[190.03162,528.16561],[-4.13944,-4.52281],[0,0]],[191.38929,529.63641],[194.06757,529.99352],[[194.0334,530.24977],[0,0],[0.68408,-0.07703]],[[196.08518,530.00588],[-0.68412,0.08697],[0.25868,-0.27923]],[[197.00295,529.33178],[-0.34795,0.16494],[0,0]],[202.31138,526.67756],[[202.52721,527.10921],[0,0],[1.81207,-1.28655]],[[208.74171,523.19311],[-2.5083,1.46571],[0.16038,-0.16638]],[[209.27646,522.75293],[-0.19495,0.12591],[0,0]],[[211.97285,520.95534],[0,0],[0.20774,-0.14291]],[[212.64825,520.60762],[-0.24102,0.0874],[0,0]],[212.67584,520.59006],[[212.67984,520.59636],[0,0],[0.22772,-0.07969]],[[213.39685,520.44111],[-0.24904,0.02257],[0.19237,-0.60997]],[[214.31899,518.84588],[-0.42236,0.42797],[0,0]],[[216.47283,516.69204],[0,0],[0.54289,-0.54289]],[[218.59415,515.81336],[-0.82843,0],[1.65685,0]],[[221.59415,518.81336],[0,-1.65685],[0,0.16176]],[[221.5567,519.28871],[0.02465,-0.15482],[0,0]],[220.94862,523.54531],[[220.87924,523.5354],[0,0],[0.00979,0.07687]],[[220.90862,523.76601],[-0.00979,-0.07687],[0,0]],[220.75855,523.95498],[220.85225,523.98309],[[219.94854,526.99546],[0,0],[-0.05037,0.18313]],[[219.74844,527.52203],[0.08243,-0.16732],[0,0]],[219.74136,527.6283],[[219.69509,527.62521],[0,0],[-0.01213,0.02238]],[[219.65789,527.69183],[0.01267,-0.02203],[0.02302,0.04256]],[[219.72191,527.82354],[-0.01962,-0.04528],[0.39356,0.90822]],[[219.13262,530.73368],[0.22259,-0.97279],[0,0]],[[219.13262,533.58259],[0,0],[0,0.73559]],[[218.42847,535.51376],[0.4394,-0.52184],[0.76848,2.78916]],[[219.29549,545.58482],[-0.94714,-2.92317],[1.42551,4.39958]],[[226.78792,556.51899],[-3.05414,-3.32577],[1.52955,-2.0927]],[[234.20465,552.59568],[-2.80849,1.6902],[0,0]],[[236.89593,550.8015],[0,0],[0.48287,-0.33217]],[[238.59415,550.2749],[-0.63039,0],[0.4585,0]],[[239.87578,550.56165],[-0.38864,-0.1839],[0.9656,-0.74057]],[[242.32368,548.43052],[-0.75819,0.74174],[0.09181,-0.12572]],[[242.62668,548.07665],[-0.10983,0.10983],[0,0]],[244.95046,545.75288],[[247.88899,541.93279],[0,0],[0.11501,-0.15263]],[[248.27474,541.51087],[-0.14151,0.12799],[1.77493,-2.48462]],[[253.92019,533.80263],[-1.24825,2.79924],[0,0]],[[255.09146,529.996],[0,0],[0.35587,-1.2596]],[[257.97877,527.81336],[-1.37351,0],[1.48635,0]],[[260.93722,530.31295],[-0.23821,-1.41865],[0,0]],[261.85046,535.18357],[[261.22675,535.30051],[0,0],[0.40674,1.46899]],[[261.89413,539.77688],[-0.00775,-1.51305],[0,0]],[[262.44455,543.62981],[0,0],[2.39031,3.37691]],[[269.17586,554.93367],[-2.62304,-2.74426],[0,0]],[[272.42718,558.25007],[0,0],[0.21169,0.21559]],[[272.95747,558.98451],[-0.13922,-0.27142],[0.56697,0.41568]],[[274.78315,560.35944],[-0.6547,-0.50344],[0,0]],[276.44039,561.46427],[276.87019,561.39264],[276.93734,561.79557],[[277.24159,561.9984],[0,0],[1.29226,-0.3943]],[[281.19213,561.35502],[-1.33802,0.00649],[0,0]],[[284.43901,561.05984],[0,0],[0.10158,-0.01039]],[[284.748,561.04413],[-0.10433,0],[0.41034,0]],[[285.90566,561.27564],[-0.35622,-0.14913],[0,0]],[286.58213,560.68372],[287.02966,559.8526],[[287.36004,560.03049],[0,0],[0.19785,-0.1358]],[[288.001,559.69631],[-0.22816,0.0857],[1.09961,-3.23856]],[[291.73048,549.61095],[-1.27742,3.83033],[0,0]],[[292.62439,546.63125],[0,0],[0.04372,-0.15895]],[[292.79263,546.17142],[-0.06805,0.14722],[-0.40721,-1.36865]],[[293.45822,541.87062],[-0.15069,1.438],[0.34067,-3.25091]],[[293.94839,534.66288],[-0.05478,2.18613],[-0.09122,-0.23624]],[[293.76623,533.91521],[0.02876,0.26075],[0,0]],[293.15578,529.03161],[[293.76775,528.95512],[0,0],[-0.4558,-1.79476]],[[293.1426,522.80078],[0.03393,2.59751],[-0.39207,-0.50702]],[[292.51723,520.9672],[0,0.69052],[0,-0.22288]],[[292.58764,520.31811],[-0.0461,0.20902],[0,0]],[[293.17998,517.35643],[0,0],[0.03643,-0.20284]],[[293.34824,516.77134],[-0.07501,0.18649],[0,0]],[293.5069,516.03092],[[293.73956,516.08078],[0,0],[0.15295,-0.20196]],[[294.26875,515.53938],[-0.19831,0.15744],[-0.19262,-0.55714]],[[294.03869,513.84227],[-0.02775,0.576],[-0.37577,-0.50108]],[[293.44031,512.04413],[0,0.67453],[0,-0.38239]],[[293.64228,510.95975],[-0.13043,0.33631],[0,0]],[295.61865,505.48673],[295.64039,505.49458],[[295.64405,505.41896],[0,0],[0.01596,-0.01948]],[[295.69193,505.36051],[-0.01596,0.01948],[0,0]],[295.67108,505.35182],[[296.52292,503.30739],[0,0],[-0.00378,-0.06163]],[[296.51723,503.12105],[0,0.06258],[0,-0.63039]],[[297.04383,501.42282],[-0.33217,0.48287],[0,0]],[297.74871,500.36551],[[297.95203,499.87753],[0,0],[0.20454,-0.52445]],[[298.94745,498.5674],[-0.44302,0.33293],[0,0]],[[299.82999,497.24358],[0,0],[-1.3333,-6.79367]],[[288.99748,478.27624],[5.34016,3.64601],[-4.33163,-2.95744]],[[273.12457,472.65614],[4.80208,2.01332],[-13.69888,-5.74337]],[[232.32235,458.39839],[15.04673,1.57669],[-9.24417,-1.7099]],[[211.73311,468.66869],[-1.45374,-13.08972],[0,0]],[211.85954,468.22618]],&quot;closed&quot;:true}]}" fill="#ffdfc2"></path></g><path d="M268.77377,83.1358c0,0 0.8775,-10.37213 4.93692,-12.85161c8.56368,-5.23069 24.53729,-4.58933 28.90525,-2.75004c5.50363,2.31749 8.01101,8.50201 8.05554,8.95539c1.02627,10.44938 17.89024,182.15803 17.89024,182.15803l-42.41668,5.31698l-17.18582,-175.76731" data-paper-data="{&quot;index&quot;:null}" fill="#ffdfc2" stroke="#000000" stroke-width="0" stroke-linecap="round"></path><path d="M269.06207,88.19397c0,0 -2.14892,-12.40581 5.97736,-18.64527c4.45693,-3.42208 21.54508,-4.19723 23.9645,-3.92701c7.90148,0.88252 11.9438,11.97062 11.9438,11.97062l4.48671,49.87936l-42.81776,4.97391l-3.55461,-44.25162z" data-paper-data="{&quot;index&quot;:null}" fill="url(#color-1)" stroke="#000000" stroke-width="0" stroke-linecap="round"></path><path d="M269.14944,88.15879c0,0 -1.40877,-8.43236 2.39977,-14.71274c2.22251,-3.66497 9.12335,-6.20144 11.47051,-6.94448c3.05265,-0.96638 10.3593,-2.6412 15.50798,-0.76829c7.19274,2.61647 12.07716,9.30191 12.07716,9.30191l7.24819,80.11056c0,0 -35.68274,-19.72439 -41.47779,-22.92773c-1.53648,-0.84933 -2.91579,-1.61177 -2.91579,-1.61177l-4.31002,-42.44745z" data-paper-data="{&quot;index&quot;:null}" fill="url(#color-2)" stroke="#000000" stroke-width="0" stroke-linecap="round"></path><path d="M268.75305,87.81641c0,0 -4.08229,-17.9163 15.80226,-21.50864c22.27021,-4.02334 25.95765,8.56717 25.95765,8.56717l18.04882,183.77264l-42.41669,5.31698c0,0 -14.72322,-148.64659 -17.39204,-176.14816z" data-paper-data="{&quot;index&quot;:null}" fill="none" stroke="#000000" stroke-width="3" stroke-linecap="round"></path><path d="M272.70206,138.28153c0,0 12.17804,-9.34575 19.63437,-11.03279c7.18592,-1.62586 24.32238,1.08729 24.32238,1.08729c2.04718,18.96541 4.39106,38.80334 6.48882,51.93358c4.33041,27.10476 17.13428,75.70055 17.13428,75.70055c0,0 -19.62319,6.06909 -30.03027,7.27429c-10.80386,1.25115 -33.64712,0.09991 -33.64712,0.09991c0,0 -1.02997,-41.02004 -2.39817,-83.00813c-0.47078,-14.44749 -0.9816,-29.0096 -1.50429,-42.05469z" data-paper-data="{&quot;index&quot;:null}" fill="#12151c" stroke="#000000" stroke-width="3" stroke-linecap="round"></path></g><path d="M295.72945,76.25379c-2.05678,-0.52373 -4.63759,-2.02571 -4.38839,-3.00438c0.2492,-0.97867 3.23406,-1.06343 5.29084,-0.53969c2.05678,0.52374 4.98618,2.11448 4.73698,3.09315c-0.2492,0.97866 -3.58265,0.97466 -5.63943,0.45092z" fill="#3e3571" stroke="none" stroke-width="0" stroke-linecap="butt"></path><path d="M275.43605,72.87704c0,0 3.36929,-2.95926 4.46829,-1.5512c1.099,1.40806 -1.32087,2.8164 -2.6631,3.86403c-1.34223,1.04766 -2.84559,3.34171 -3.88095,2.01519c-1.03536,-1.32651 0.73354,-3.28038 2.07577,-4.32801z" fill="#3e3571" stroke="none" stroke-width="0" stroke-linecap="butt"></path><path d="M295.74914,69.457c0.03202,0.80781 -1.09575,1.50841 -2.51893,1.56481c-1.42319,0.0564 -2.60286,-0.55274 -2.63488,-1.36055c-0.03201,-0.80781 1.09576,-1.5084 2.51894,-1.5648c1.42318,-0.05641 2.60285,0.55272 2.63487,1.36053z" fill="#3e3571" stroke="none" stroke-width="0" stroke-linecap="butt"></path><path d="M271.44747,79.88252c-0.15798,-1.41551 0.3653,-2.63572 1.16875,-2.72538c0.80345,-0.08966 1.58284,0.98515 1.74082,2.40066c0.15799,1.41551 -0.36528,2.63572 -1.16873,2.72538c-0.80346,0.08966 -1.58286,-0.98515 -1.74084,-2.40066z" fill="#3e3571" stroke="none" stroke-width="0" stroke-linecap="butt"></path><path d="M286.92059,70.21491c0.06112,0.80613 -1.04065,1.54693 -2.46087,1.65461c-1.42022,0.10768 -2.6211,-0.45853 -2.68222,-1.26465c-0.06112,-0.80613 1.04065,-1.54693 2.46087,-1.65461c1.42022,-0.10768 2.6211,0.45852 2.68222,1.26464z" fill="#3e3571" stroke="none" stroke-width="0" stroke-linecap="butt"></path><path d="M286.89224,81.60263c-2.05678,-0.52373 -4.63759,-2.02571 -4.38839,-3.00438c0.2492,-0.97867 3.23406,-1.06343 5.29084,-0.53969c2.05678,0.52374 4.98618,2.11448 4.73698,3.09315c-0.2492,0.97866 -3.58265,0.97466 -5.63943,0.45092z" fill="#3e3571" stroke="none" stroke-width="0" stroke-linecap="butt"></path><path d="M284.26797,73.78273c0.36403,0.8131 -0.50214,1.99217 -1.93465,2.63351c-1.43251,0.64134 -2.88892,0.5021 -3.25294,-0.311c-0.36403,-0.8131 0.50215,-1.99217 1.93466,-2.63351c1.43251,-0.64134 2.88891,-0.50211 3.25293,0.31099z" fill="#3e3571" stroke="none" stroke-width="0" stroke-linecap="butt"></path><path d="M301.50506,72.38685c-0.35288,0.65261 -1.57101,0.67768 -2.72078,0.05597c-1.14976,-0.6217 -1.79576,-1.65475 -1.44288,-2.30736c0.35288,-0.65261 1.57102,-0.67768 2.72079,-0.05597c1.14976,0.62171 1.79576,1.65475 1.44288,2.30736z" fill="#3e3571" stroke="none" stroke-width="0" stroke-linecap="butt"></path><path d="M303.72642,71.87179c1.493,-0.98049 3.73336,2.90411 3.73336,2.90411c0.93465,1.42322 1.9823,3.84168 0.57576,4.76539c-1.40655,0.92371 -2.09348,-1.73163 -3.02813,-3.15487c-0.93465,-1.42322 -2.774,-3.53414 -1.281,-4.51463z" data-paper-data="{&quot;index&quot;:null}" fill="#3e3571" stroke="none" stroke-width="0" stroke-linecap="butt"></path></g><g data-paper-data="{&quot;index&quot;:null}"><g><g stroke="none" stroke-width="0.5" stroke-linecap="butt"><path d="M150.54868,249.91939c-0.14674,0.16715 -0.29652,0.28776 -0.44518,0.37194c-0.02559,0.18897 -0.07026,0.314 -0.07026,0.314c-0.26238,0.73211 -0.52478,1.46423 -0.78716,2.19634l-0.43143,1.78589c-0.11293,0.51086 -0.49021,0.9455 -1.01989,1.10978c-0.14491,0.48723 -0.41259,1.02474 -0.69742,1.73681l-0.58078,1.84858c-0.06432,0.21669 -0.17693,0.41656 -0.3287,0.58378c0.51689,1.82405 -0.69539,4.45984 -1.09533,6.41614l-0.02846,0.04232l0.01653,0.0045l-0.55388,2.0348c-0.0596,0.23564 -0.17573,0.45355 -0.33715,0.63417l-0.03715,0.40862l-0.35537,-0.03232c0.37576,1.15222 -0.02597,2.01817 -0.33351,3.85948l-0.05536,0.0729l0.03427,0.00978l-0.01167,0.04085l0.41205,0.77418l-0.03216,0.01711c0.03503,0.04528 0.0695,0.09101 0.1034,0.13725c1.55457,2.12027 1.14255,3.64358 3.72788,5.29093l0.84632,0.53422l1.33963,-0.17481l0.01673,0.12817c0.32035,-0.1259 0.6401,-0.2531 0.95918,-0.38379c0.08872,-0.16838 0.20914,-0.31975 0.35579,-0.44452l2.21929,-1.96999l0.16019,0.18047c0.70824,-0.85622 1.472,-1.66382 2.49322,-2.69682c0.05587,-0.10114 0.12334,-0.19583 0.20116,-0.2819l1.06902,-1.21766c0.08179,-0.09594 0.17601,-0.18202 0.28106,-0.25548l0.01105,-0.01206l0.00275,0.00252c0.09963,-0.06801 0.20879,-0.12474 0.32612,-0.16793c0.01381,-0.31949 0.09,-0.62847 0.23846,-0.8899l0.76083,-1.31934c0.19177,-0.33254 0.5104,-0.59194 0.91045,-0.69935c0.80008,-0.21482 1.62284,0.25963 1.83766,1.05972c0.02097,0.07812 0.03538,0.15645 0.04354,0.2344l0.25825,2.13434l-0.03478,0.00421c0.0147,0.03584 0.02938,0.0717 0.04408,0.10756l-0.04796,0.1107l0.04889,0.00143l-0.04584,1.57183c-0.00057,0.09497 -0.01025,0.18874 -0.02835,0.28022l0.01036,0.05224l-0.02274,0.0045c-0.00296,0.01238 -0.00606,0.02471 -0.00933,0.037c0.01664,0.01756 0.03265,0.03598 0.04799,0.0553c0.30781,0.38755 0.07411,0.98309 0.09274,1.4817l0.36938,1.37572c0.09537,0.35522 0.05488,0.71489 -0.08964,1.02386c0.73273,1.24724 0.88808,3.46208 1.72446,4.75087c1.25881,1.93971 3.12971,3.09862 5.03574,4.30863c0.46729,-1.20887 1.93577,-1.67585 3.07284,-2.85618l1.06698,-1.21534c0.1901,-0.22301 0.44737,-0.39275 0.75179,-0.47448c0.22141,-0.05944 0.44456,-0.06612 0.65608,-0.0277c0.37026,-0.48282 0.63581,-0.89001 0.90577,-1.3465c0.02804,-0.07261 0.06164,-0.1429 0.10044,-0.21017l0.82085,-1.42343l0.92371,-2.2257c0.03575,-0.08862 0.07983,-0.17361 0.13158,-0.25376c0.53496,-1.42994 1.48691,-2.94067 1.72674,-4.45425l0.07205,-1.99007c0.00853,-0.6544 0.44802,-1.25026 1.11128,-1.42835c0.71776,-0.19272 1.45374,0.16929 1.75271,0.82346l1.07251,2.2336l-0.28602,0.13734c0.38688,0.65663 0.70275,1.34546 0.90267,2.07509l0.76535,1.78921c1.59211,1.32078 3.09368,3.60074 4.71615,4.58584l2.00004,1.17993c0.13018,0.07666 0.24887,0.17289 0.35129,0.2859c0.32769,0.12722 0.67846,0.26902 1.05989,0.42725l0.94352,0.31864l0.19826,-0.09032l0.08466,0.18586l0.17323,0.0585c0.5729,-0.35796 1.179,-0.64628 1.82429,-0.8229l1.52964,-0.56352c0.04771,-0.01819 0.09679,-0.03413 0.14717,-0.04765c0.19815,-0.0532 0.3977,-0.06413 0.58905,-0.0383l0.24991,-0.37354l0.10835,-0.45937l0.1826,0.04307c0.07794,-0.09123 0.16712,-0.17352 0.26619,-0.24448c0.1111,-1.70646 0.37309,-3.33846 0.49332,-5.35374l0.04534,-1.55479c0.0005,-0.08243 0.00784,-0.16395 0.02162,-0.24386c-0.3741,-0.60812 -0.12253,-1.4492 -0.23621,-2.16315c-0.25699,-1.61402 -0.44084,-2.48137 -0.69783,-3.54414c-0.07468,-0.10225 -0.1372,-0.21524 -0.1849,-0.33742l-0.92798,-2.27913l0.28561,-0.11628c-0.45281,-0.80759 -0.74666,-1.64093 -1.09983,-2.89085c-0.25507,-0.19401 -0.45019,-0.47089 -0.53972,-0.80435c-0.0289,-0.10763 -0.04532,-0.21566 -0.05016,-0.32258l-0.09796,-1.50699c-0.00871,-0.10267 -0.00665,-0.20457 0.00539,-0.30436l-0.01938,-0.37812l0.11882,-0.00609c0.04767,-0.11735 0.11,-0.22831 0.18535,-0.33005c-0.16525,-0.24406 -0.26986,-0.50795 -0.33114,-0.7897c-0.24642,-0.19325 -0.43464,-0.465 -0.5221,-0.79073c-0.04958,-0.18465 -0.06245,-0.37051 -0.04306,-0.54983l0.24477,-2.89915l0.01152,0.00097l-0.00804,-0.03699c0.00518,-0.01148 0.01036,-0.02296 0.01555,-0.03443l-0.01119,-0.0015l0.14628,-1.0977c-0.00982,-0.02927 -0.01879,-0.05903 -0.0269,-0.08925c-0.08174,-0.30441 -0.06369,-0.6121 0.03411,-0.88835l0.20329,-0.60196l0.03492,-0.262c0.03077,-0.27978 0.14006,-0.54351 0.31082,-0.76173l0.25453,-0.75369c-1.52469,-3.10778 -4.63873,-6.6865 -7.69021,-7.75476c-2.47519,-0.86651 -5.8137,-0.30631 -8.39365,-0.65591c-7.35981,-0.99732 -14.08142,-2.78429 -21.55187,-1.59477c-4.68568,0.37285 -11.01003,1.49651 -8.61087,7.62901l0.00367,-0.23008c0,0 1.12723,0.98962 0.13761,2.11685zM149.71988,239.41146c2.15546,-1.37483 6.40801,-1.77 8.93942,-1.9863c6.74554,-1.06763 13.2483,-0.16511 19.89807,1.17413c3.5757,0.72013 7.87322,-0.00387 11.28988,1.18805c3.13758,1.09456 6.13273,3.96797 8.18045,7.05764c0.0609,-0.27666 0.12226,-0.56799 0.18361,-0.87761l2.87618,-0.4613c0,0 1.12722,0.98963 0.13761,2.11686c-0.07162,0.08157 -0.14395,0.15207 -0.21652,0.21265c0.01807,0.11771 0.02175,0.235 0.01222,0.34983l-0.11352,1.90763l-0.0735,-0.00437l0.05076,0.19005c-0.5299,1.68387 -1.04449,3.11403 -1.65484,4.49467l0.01181,0.21528l-0.01875,0.00103l0.02083,0.05785c-0.04666,1.99226 -0.13921,3.47927 -0.42811,5.01212c0.01964,0.03125 0.03822,0.06334 0.05563,0.09628l0.16146,-0.00827l0.02946,0.57457l0.33113,1.23331c0.17479,0.65101 0.36899,1.18917 0.51707,1.67613c0.30721,0.19423 0.54508,0.49998 0.64677,0.87869c0.00061,0.00226 0.0012,0.00452 0.0018,0.00678l0.4738,1.79327l-0.0061,0.00162l0.00974,0.01247c0.71138,2.9226 1.19051,5.37525 1.27847,8.02814c0.00768,0.01118 0.01521,0.02247 0.02261,0.03388l0.21846,-0.05865l0.59841,2.22876c0.17565,0.6542 -0.10953,1.32354 -0.65673,1.66333c-0.00984,1.77122 0.00117,3.56808 -1.19109,4.54567c0.02131,0.05367 0.03973,0.10913 0.05507,0.16626c0.0023,0.00855 0.00451,0.0171 0.00665,0.02565l0.14219,0.03354l-0.10011,0.42445c-0.00635,0.10061 -0.02285,0.19948 -0.04874,0.29529l-0.37,1.48122c-0.12022,0.52362 -0.51854,0.9652 -1.07357,1.11423c-0.31587,0.08481 -0.63527,0.06219 -0.9194,-0.04548l-2.14909,0.70695c-0.03004,0.01013 -0.06061,0.01939 -0.09166,0.02773c-0.26549,0.07128 -0.53348,0.06667 -0.78091,-0.00054c-0.14362,0.0566 -0.2874,0.10577 -0.43165,0.13637c-0.19484,0.27051 -0.48065,0.4781 -0.82772,0.57129c-0.05529,0.01484 -0.11069,0.02639 -0.16599,0.03477l-1.48946,0.24441c-0.75745,0.1338 -1.50472,-0.33166 -1.70793,-1.08855c-0.00833,-0.03105 -0.01564,-0.06213 -0.02191,-0.09322c-1.02618,-0.4037 -1.78116,-0.61264 -2.40653,-0.92686l-1.24214,-0.28776l0.01021,-0.0441c-0.04577,0.0029 -0.09156,0.00579 -0.13735,0.00869l-0.1041,-0.09192l-0.01943,0.04548l-2.50531,-1.07005c-0.41472,-0.17264 -0.7477,-0.52891 -0.8732,-0.99633c-0.11235,-0.41845 -0.03617,-0.84312 0.17655,-1.18376c-1.42486,-1.22821 -2.68803,-2.68241 -3.01859,-4.18345c-0.37076,0.93122 -0.82589,1.78491 -1.37878,2.58881l-0.45002,1.16081l-0.04627,-0.01793l0.00065,0.1234c-0.01148,0.01992 -0.02293,0.0398 -0.03436,0.05963l0.00379,0.00219l-1.08689,1.88477c-0.06318,0.10956 -0.14013,0.21118 -0.22923,0.30204c-1.0615,1.65929 -2.10929,2.92947 -3.63132,3.96452l-0.0795,0.11881l0.21303,0.21996l-1.1182,1.08301c-0.18028,0.1814 -0.4094,0.31907 -0.67418,0.39017c-0.31881,0.0856 -0.64121,0.06176 -0.92732,-0.04851c-0.48836,0.32391 -0.98466,0.59346 -1.52056,0.82973l0.15329,0.24408l-1.74242,1.09438c-0.13116,0.08666 -0.27825,0.15403 -0.43842,0.19704c-0.80008,0.21482 -1.62284,-0.25964 -1.83766,-1.05972c-0.12887,-0.47999 -0.00968,-0.96813 0.27908,-1.32828l0.0455,-0.05802c-4.0392,-1.07616 -8.1786,-6.64308 -7.76961,-10.94504c0.00475,-0.04993 0.01044,-0.09967 0.01702,-0.14922l-0.03388,0.00221l-0.09998,-1.53789c-0.02848,-0.33596 0.05827,-0.66363 0.23307,-0.93586c0.00343,-0.07487 0.00748,-0.14973 0.01212,-0.22459l-0.09489,0.01881l-0.02015,-0.10156l-0.57012,0.67996l-0.02143,-0.01798l-0.01936,0.06464c-1.06035,1.07146 -1.66201,1.84371 -2.48781,2.31669c0.11985,0.57484 -0.1088,1.14997 -0.55153,1.49225l-1.15106,0.93183l-0.05305,-0.06554l-0.09226,0.16949c-1.40927,0.67107 -2.35283,1.37851 -3.41855,1.16552c-0.1341,0.50049 -0.52413,0.91778 -1.06053,1.0618c-0.33141,0.08898 -0.66671,0.05969 -0.96107,-0.062l-1.39776,-0.56021c-0.37488,-0.14557 -0.68704,-0.43966 -0.84645,-0.83039l-0.28598,-0.18052l0.00558,-0.00883l-0.01356,0.00376c-1.67219,-1.10272 -4.79871,-3.66579 -4.77115,-5.99799c-0.56124,-0.0942 -1.04402,-0.50534 -1.20123,-1.09085c-0.04203,-0.15654 -0.05767,-0.31396 -0.04966,-0.46753l0.0448,-1.53698c0.00293,-0.47726 0.2352,-0.92443 0.61671,-1.20258c0.18341,-0.97915 0.39038,-1.83096 0.63951,-2.66356l-0.14549,-0.01322l0.2685,-2.95282c0.03661,-0.54345 0.36945,-1.03546 0.87685,-1.26507c0.41091,-2.03057 0.76961,-3.81098 1.34369,-5.58934c-0.00887,-0.02692 -0.01705,-0.05426 -0.0245,-0.08197c-0.03109,-0.1158 -0.04774,-0.23207 -0.05106,-0.34691l-0.10069,-0.0106l0.22062,-2.09624c0.04545,-0.55595 0.4008,-1.05491 0.93482,-1.26928c0.33459,-0.83727 0.57566,-1.42497 0.88165,-1.99361l-0.27151,-0.10882l0.85202,-2.12585c0.14245,-0.36688 0.42715,-0.67368 0.80546,-0.83603c0.10255,-0.28771 0.20511,-0.57542 0.30765,-0.86313c0,0 0.10841,-0.30332 0.3653,-0.57861c-1.03658,-2.90054 -0.86894,-7.68238 2.14635,-9.60566z" fill="#000000"></path><path d="M150.52055,247.7315l-0.00389,0.23036c-2.39917,-6.1325 3.94243,-7.27014 8.62812,-7.643c7.47044,-1.18953 14.23495,0.59684 21.59476,1.59416c2.57995,0.3496 5.93043,-0.20291 8.40561,0.6636c3.05147,1.06826 6.17721,4.66186 7.70189,7.76963l-0.25411,0.75455c-0.17077,0.21821 -0.27962,0.48282 -0.31039,0.7626l-0.03475,0.26236l-0.20294,0.60272c-0.0978,0.27624 -0.11527,0.58529 -0.03354,0.8897c0.00812,0.03022 0.01716,0.06013 0.02697,0.0894l-0.14565,1.0994l0.01119,0.00151c-0.00518,0.01148 -0.01034,0.023 -0.01552,0.03447l0.00806,0.03706l-0.01152,-0.00097l-0.24329,2.90411c-0.01937,0.17932 -0.00627,0.36622 0.04331,0.55086c0.08746,0.32574 0.27601,0.59916 0.52243,0.79241c0.06127,0.28175 0.16616,0.54721 0.33141,0.79129c-0.07534,0.10174 -0.1376,0.21327 -0.18527,0.33062l-0.11882,0.00607l0.01947,0.37885c-0.01205,0.09978 -0.01403,0.20227 -0.00532,0.30494l0.09821,1.50993c0.00484,0.10691 0.02129,0.21558 0.05018,0.3232c0.08953,0.33345 0.2847,0.61192 0.53977,0.80592c0.35316,1.24993 0.64678,2.08857 1.09959,2.89615l-0.28562,0.11655l0.92744,2.28292c0.0477,0.12219 0.11012,0.23569 0.18481,0.33794c0.25699,1.06279 0.43948,1.93553 0.69647,3.54955c0.11368,0.71394 -0.13893,1.55806 0.23516,2.16618c-0.01378,0.07992 -0.02126,0.16179 -0.02176,0.24421l-0.04622,1.55692c-0.12024,2.01529 -0.3858,3.65392 -0.4969,5.36039c-0.09906,0.07097 -0.18854,0.15368 -0.26647,0.24491l-0.18266,-0.04298l-0.10872,0.45992l-0.2503,0.37409c-0.19135,-0.02583 -0.39121,-0.01445 -0.58936,0.03875c-0.05039,0.01353 -0.09957,0.02961 -0.14728,0.0478l-1.5309,0.56518c-0.64529,0.17661 -1.25318,0.46712 -1.82608,0.82508l-0.24821,-0.12466l-0.00967,-0.11973l-0.19847,0.09057l-0.94396,-0.31817c-0.38143,-0.15823 -0.73267,-0.29951 -1.06036,-0.42674c-0.10242,-0.11302 -0.22116,-0.2092 -0.35133,-0.28587l-2.00073,-1.17921c-1.62247,-0.9851 -3.19541,-3.33509 -4.78753,-4.65587l-0.76677,-1.7877c-0.19992,-0.72965 -0.51769,-1.41622 -0.90457,-2.07285l0.28548,-0.13663l-1.07484,-2.23032c-0.29896,-0.65418 -0.95184,-0.96061 -1.66959,-0.7679c-0.66327,0.17809 -1.10748,0.77986 -1.11602,1.43426l-0.07613,1.99397c-0.23983,1.51358 -1.2028,3.03144 -1.73775,4.46138c-0.05175,0.08015 -0.09646,0.16543 -0.1322,0.25405l-0.92825,2.22752l-0.82395,1.42439c-0.03879,0.06727 -0.07278,0.13766 -0.10081,0.21027c-0.26996,0.45649 -0.53841,0.86436 -0.90867,1.34718c-0.21151,-0.03841 -0.43623,-0.03146 -0.65763,0.02798c-0.30442,0.08173 -0.56364,0.25176 -0.75374,0.47477l-1.06975,1.21562c-1.13707,1.18033 -2.61219,1.64734 -3.07948,2.85622c-1.90604,-1.21002 -3.78921,-2.37123 -5.04802,-4.31094c-0.83638,-1.28879 -0.99983,-3.50706 -1.73257,-4.75429c0.14452,-0.30897 0.18396,-0.66922 0.08858,-1.02443l-0.3721,-1.37736c-0.01864,-0.49862 0.21256,-1.09588 -0.09525,-1.48343c-0.01534,-0.01932 -0.03155,-0.03789 -0.04819,-0.05545c0.00327,-0.01227 0.06617,-0.10476 0.06912,-0.11714l-0.03705,0.07564l-0.01047,-0.05231c0.0181,-0.09148 0.02737,-0.18556 0.02794,-0.28053l0.04308,-1.5741l-0.049,-0.00152l0.04786,-0.11081c-0.0147,-0.03584 -0.0297,-0.07197 -0.0444,-0.10783l0.03486,-0.00415l-0.26315,-2.13945c-0.00816,-0.07796 -0.02315,-0.15699 -0.04412,-0.23511c-0.21482,-0.80009 -1.04207,-1.2812 -1.84215,-1.06638c-0.40004,0.10741 -0.63187,0.31718 -0.82364,0.64972l-0.76217,1.31715c-0.14846,0.26143 -0.22578,0.56876 -0.23959,0.88824c-0.11733,0.04318 -0.30816,0.15761 -0.40779,0.22562l-0.00276,-0.00253l0.07074,-0.0455c-0.10505,0.07346 -0.19935,0.15942 -0.28115,0.25536l-1.06963,1.2168c-0.07782,0.08607 -0.14545,0.18052 -0.20133,0.28166c-1.02121,1.03301 -1.78591,1.83939 -2.49415,2.69562l-0.23869,-0.11852l-2.14068,1.90818c-0.14664,0.12476 -0.3453,0.33843 -0.43401,0.50682c-0.31909,0.1307 -0.63918,0.25745 -0.95953,0.38335l-0.01685,-0.12834l-1.34038,0.17383l-0.84729,-0.53559c-2.58533,-1.64734 -2.17863,-3.18072 -3.73321,-5.30099c-0.0339,-0.04624 -0.06849,-0.09223 -0.10351,-0.13751l0.03216,-0.01712l-0.41257,-0.7756l0.01164,-0.0409l-0.03428,-0.00982l0.05533,-0.07298c0.30753,-1.8413 0.70755,-2.7135 0.33178,-3.86573l0.35541,0.0325l0.03701,-0.40933c0.16143,-0.18063 0.27738,-0.39957 0.33697,-0.6352l0.55338,-2.03851l-0.01653,-0.00451l0.02845,-0.04239c0.39993,-1.95632 1.61265,-4.60492 1.09576,-6.42897c0.15177,-0.16721 0.2646,-0.36834 0.32892,-0.58504l0.58169,-1.85244c0.28483,-0.71206 0.55365,-1.25325 0.69857,-1.74048c0.52968,-0.16428 0.90803,-0.60165 1.02096,-1.11253l0.43304,-1.78931c0.26238,-0.73211 0.52714,-1.46832 0.78952,-2.20043c0,0 0.04503,-0.12555 0.0706,-0.31452c0.14866,-0.08418 0.29908,-0.20573 0.44581,-0.37288c0.98962,-1.12723 -0.13568,-2.11944 -0.13568,-2.11944z" data-paper-data="{&quot;noHover&quot;:false,&quot;origItem&quot;:[&quot;Path&quot;,{&quot;applyMatrix&quot;:true,&quot;segments&quot;:[[[211.02749,472.38643],[2.49615,-1.6641],[-0.37013,0.24675]],[[209.97469,472.87398],[0.33083,-0.08551],[-0.14741,0.35174]],[[209.67612,473.44406],[0,0],[-0.88651,1.27806]],[[207.01658,477.27824],[0.88651,-1.27806],[0,0]],[[205.25702,480.5041],[0,0],[-0.48308,0.92821]],[[202.71146,482.1188],[1.10832,-0.04261],[-0.5326,0.86596]],[[200.46359,485.11191],[0.91945,-1.2277],[0,0]],[[198.38302,488.38138],[0,0],[-0.23661,0.38519]],[[197.44535,489.33851],[0.37988,-0.24428],[0.05242,3.79138]],[[192.00206,501.1638],[1.7871,-3.57137],[0,0]],[191.92514,501.23079],[191.95472,501.24805],[[189.82955,504.89119],[0,0],[-0.23731,0.42424]],[[188.84941,505.94129],[0.40547,-0.26518],[0,0]],[188.56572,506.7113],[[187.89606,506.46458],[0,0],[0.12823,2.42051]],[[185.25024,513.74652],[1.54897,-3.39714],[0,0]],[185.10551,513.85863],[185.16663,513.89531],[185.12292,513.96815],[185.51733,515.67724],[[185.44633,515.69362],[0,0],[0.04417,0.10561]],[[185.57489,516.01235],[-0.0415,-0.10689],[1.90319,4.90172]],[[190.03162,528.16561],[-4.13944,-4.52281],[0,0]],[191.38929,529.63641],[194.06757,529.99352],[[194.0334,530.24977],[0,0],[0.68408,-0.07703]],[[196.08518,530.00588],[-0.68412,0.08697],[0.25868,-0.27923]],[[197.00295,529.33178],[-0.34795,0.16494],[0,0]],[202.31138,526.67756],[[202.52721,527.10921],[0,0],[1.81207,-1.28655]],[[208.74171,523.19311],[-2.5083,1.46571],[0.16038,-0.16638]],[[209.27646,522.75293],[-0.19495,0.12591],[0,0]],[[211.97285,520.95534],[0,0],[0.20774,-0.14291]],[[212.64825,520.60762],[-0.24102,0.0874],[0,0]],[212.67584,520.59006],[[212.67984,520.59636],[0,0],[0.22772,-0.07969]],[[213.39685,520.44111],[-0.24904,0.02257],[0.19237,-0.60997]],[[214.31899,518.84588],[-0.42236,0.42797],[0,0]],[[216.47283,516.69204],[0,0],[0.54289,-0.54289]],[[218.59415,515.81336],[-0.82843,0],[1.65685,0]],[[221.59415,518.81336],[0,-1.65685],[0,0.16176]],[[221.5567,519.28871],[0.02465,-0.15482],[0,0]],[220.94862,523.54531],[[220.87924,523.5354],[0,0],[0.00979,0.07687]],[[220.90862,523.76601],[-0.00979,-0.07687],[0,0]],[220.75855,523.95498],[220.85225,523.98309],[[219.94854,526.99546],[0,0],[-0.05037,0.18313]],[[219.74844,527.52203],[0.08243,-0.16732],[0,0]],[219.74136,527.6283],[[219.69509,527.62521],[0,0],[-0.01213,0.02238]],[[219.65789,527.69183],[0.01267,-0.02203],[0.02302,0.04256]],[[219.72191,527.82354],[-0.01962,-0.04528],[0.39356,0.90822]],[[219.13262,530.73368],[0.22259,-0.97279],[0,0]],[[219.13262,533.58259],[0,0],[0,0.73559]],[[218.42847,535.51376],[0.4394,-0.52184],[0.76848,2.78916]],[[219.29549,545.58482],[-0.94714,-2.92317],[1.42551,4.39958]],[[226.78792,556.51899],[-3.05414,-3.32577],[1.52955,-2.0927]],[[234.20465,552.59568],[-2.80849,1.6902],[0,0]],[[236.89593,550.8015],[0,0],[0.48287,-0.33217]],[[238.59415,550.2749],[-0.63039,0],[0.4585,0]],[[239.87578,550.56165],[-0.38864,-0.1839],[0.9656,-0.74057]],[[242.32368,548.43052],[-0.75819,0.74174],[0.09181,-0.12572]],[[242.62668,548.07665],[-0.10983,0.10983],[0,0]],[244.95046,545.75288],[[247.88899,541.93279],[0,0],[0.11501,-0.15263]],[[248.27474,541.51087],[-0.14151,0.12799],[1.77493,-2.48462]],[[253.92019,533.80263],[-1.24825,2.79924],[0,0]],[[255.09146,529.996],[0,0],[0.35587,-1.2596]],[[257.97877,527.81336],[-1.37351,0],[1.48635,0]],[[260.93722,530.31295],[-0.23821,-1.41865],[0,0]],[261.85046,535.18357],[[261.22675,535.30051],[0,0],[0.40674,1.46899]],[[261.89413,539.77688],[-0.00775,-1.51305],[0,0]],[[262.44455,543.62981],[0,0],[2.39031,3.37691]],[[269.17586,554.93367],[-2.62304,-2.74426],[0,0]],[[272.42718,558.25007],[0,0],[0.21169,0.21559]],[[272.95747,558.98451],[-0.13922,-0.27142],[0.56697,0.41568]],[[274.78315,560.35944],[-0.6547,-0.50344],[0,0]],[276.44039,561.46427],[276.87019,561.39264],[276.93734,561.79557],[[277.24159,561.9984],[0,0],[1.29226,-0.3943]],[[281.19213,561.35502],[-1.33802,0.00649],[0,0]],[[284.43901,561.05984],[0,0],[0.10158,-0.01039]],[[284.748,561.04413],[-0.10433,0],[0.41034,0]],[[285.90566,561.27564],[-0.35622,-0.14913],[0,0]],[286.58213,560.68372],[287.02966,559.8526],[[287.36004,560.03049],[0,0],[0.19785,-0.1358]],[[288.001,559.69631],[-0.22816,0.0857],[1.09961,-3.23856]],[[291.73048,549.61095],[-1.27742,3.83033],[0,0]],[[292.62439,546.63125],[0,0],[0.04372,-0.15895]],[[292.79263,546.17142],[-0.06805,0.14722],[-0.40721,-1.36865]],[[293.45822,541.87062],[-0.15069,1.438],[0.34067,-3.25091]],[[293.94839,534.66288],[-0.05478,2.18613],[-0.09122,-0.23624]],[[293.76623,533.91521],[0.02876,0.26075],[0,0]],[293.15578,529.03161],[[293.76775,528.95512],[0,0],[-0.4558,-1.79476]],[[293.1426,522.80078],[0.03393,2.59751],[-0.39207,-0.50702]],[[292.51723,520.9672],[0,0.69052],[0,-0.22288]],[[292.58764,520.31811],[-0.0461,0.20902],[0,0]],[[293.17998,517.35643],[0,0],[0.03643,-0.20284]],[[293.34824,516.77134],[-0.07501,0.18649],[0,0]],[293.5069,516.03092],[[293.73956,516.08078],[0,0],[0.15295,-0.20196]],[[294.26875,515.53938],[-0.19831,0.15744],[-0.19262,-0.55714]],[[294.03869,513.84227],[-0.02775,0.576],[-0.37577,-0.50108]],[[293.44031,512.04413],[0,0.67453],[0,-0.38239]],[[293.64228,510.95975],[-0.13043,0.33631],[0,0]],[295.61865,505.48673],[295.64039,505.49458],[[295.64405,505.41896],[0,0],[0.01596,-0.01948]],[[295.69193,505.36051],[-0.01596,0.01948],[0,0]],[295.67108,505.35182],[[296.52292,503.30739],[0,0],[-0.00378,-0.06163]],[[296.51723,503.12105],[0,0.06258],[0,-0.63039]],[[297.04383,501.42282],[-0.33217,0.48287],[0,0]],[297.74871,500.36551],[[297.95203,499.87753],[0,0],[0.20454,-0.52445]],[[298.94745,498.5674],[-0.44302,0.33293],[0,0]],[[299.82999,497.24358],[0,0],[-1.3333,-6.79367]],[[288.99748,478.27624],[5.34016,3.64601],[-4.33163,-2.95744]],[[273.12457,472.65614],[4.80208,2.01332],[-13.69888,-5.74337]],[[232.32235,458.39839],[15.04673,1.57669],[-9.24417,-1.7099]],[[211.73311,468.66869],[-1.45374,-13.08972],[0,0]],[211.85954,468.22618]],&quot;closed&quot;:true}]}" fill="#ffdfc2"></path></g><path d="M214.7085,88.19724l-17.18582,175.76731l-42.41668,-5.31698c0,0 16.86397,-171.70865 17.89024,-182.15803c0.04453,-0.45338 2.55191,-6.6379 8.05554,-8.95539c4.36796,-1.83929 20.34157,-2.48065 28.90525,2.75004c4.05942,2.47948 4.93692,12.85161 4.93692,12.85161" data-paper-data="{&quot;index&quot;:null}" fill="#ffdfc2" stroke="#000000" stroke-width="0" stroke-linecap="round"></path><path d="M214.60565,88.19396l-3.55461,44.25162l-42.81776,-4.97391l4.48671,-49.87936c0,0 4.04232,-11.0881 11.9438,-11.97062c2.41942,-0.27022 19.50757,0.50493 23.9645,3.92701c8.12628,6.23946 5.97736,18.64527 5.97736,18.64527z" data-paper-data="{&quot;index&quot;:null}" fill="url(#color-3)" stroke="#000000" stroke-width="0" stroke-linecap="round"></path><path d="M214.51827,88.1588l-4.31002,42.44745c0,0 -1.37931,0.76244 -2.91579,1.61177c-5.79505,3.20334 -41.47779,22.92773 -41.47779,22.92773l7.24819,-80.11056c0,0 4.88442,-6.68544 12.07716,-9.30191c5.14868,-1.87291 12.45533,-0.19809 15.50798,0.76829c2.34716,0.74304 9.248,3.27951 11.47051,6.94448c3.80854,6.28038 2.39977,14.71274 2.39977,14.71274z" data-paper-data="{&quot;index&quot;:null}" fill="url(#color-4)" stroke="#000000" stroke-width="0" stroke-linecap="round"></path><path d="M214.91467,87.8164c-2.66882,27.50157 -17.39204,176.14816 -17.39204,176.14816l-42.41669,-5.31698l18.04882,-183.77264c0,0 3.68744,-12.59051 25.95765,-8.56717c19.88455,3.59234 15.80226,21.50864 15.80226,21.50864z" data-paper-data="{&quot;index&quot;:null}" fill="none" stroke="#000000" stroke-width="3" stroke-linecap="round"></path><path d="M210.96566,138.28154c-0.52269,13.04509 -1.03351,27.6072 -1.50429,42.05469c-1.3682,41.98809 -2.39817,83.00813 -2.39817,83.00813c0,0 -22.84326,1.15124 -33.64712,-0.09991c-10.40708,-1.2052 -30.03027,-7.27429 -30.03027,-7.27429c0,0 12.80387,-48.59579 17.13428,-75.70055c2.09776,-13.13024 4.44164,-32.96817 6.48882,-51.93358c0,0 17.13646,-2.71315 24.32238,-1.08729c7.45633,1.68704 19.63437,11.03279 19.63437,11.03279z" data-paper-data="{&quot;index&quot;:null}" fill="#12151c" stroke="#000000" stroke-width="3" stroke-linecap="round"></path></g><path d="M182.29884,75.80287c-0.2492,-0.97867 2.6802,-2.56941 4.73698,-3.09315c2.05678,-0.52374 5.04164,-0.43898 5.29084,0.53969c0.2492,0.97867 -2.33161,2.48065 -4.38839,3.00438c-2.05678,0.52374 -5.39023,0.52774 -5.63943,-0.45092z" fill="#3e3571" stroke="none" stroke-width="0" stroke-linecap="butt"></path><path d="M208.23166,72.87705c1.34223,1.04763 3.11113,3.0015 2.07577,4.32801c-1.03536,1.32652 -2.53872,-0.96753 -3.88095,-2.01519c-1.34223,-1.04763 -3.7621,-2.45597 -2.6631,-3.86403c1.099,-1.40806 4.46829,1.5512 4.46829,1.5512z" fill="#3e3571" stroke="none" stroke-width="0" stroke-linecap="butt"></path><path d="M187.91858,69.45699c0.03202,-0.80781 1.21169,-1.41694 2.63487,-1.36053c1.42318,0.0564 2.55095,0.75699 2.51894,1.5648c-0.03202,0.80781 -1.21169,1.41695 -2.63488,1.36055c-1.42318,-0.0564 -2.55095,-0.757 -2.51893,-1.56481z" fill="#3e3571" stroke="none" stroke-width="0" stroke-linecap="butt"></path><path d="M210.47941,82.28318c-0.80345,-0.08966 -1.32672,-1.30987 -1.16873,-2.72538c0.15798,-1.41551 0.93737,-2.49032 1.74082,-2.40066c0.80345,0.08966 1.32673,1.30987 1.16875,2.72538c-0.15798,1.41551 -0.93738,2.49032 -1.74084,2.40066z" fill="#3e3571" stroke="none" stroke-width="0" stroke-linecap="butt"></path><path d="M196.74713,70.2149c0.06112,-0.80612 1.262,-1.37232 2.68222,-1.26464c1.42022,0.10768 2.52199,0.84848 2.46087,1.65461c-0.06112,0.80612 -1.262,1.37233 -2.68222,1.26465c-1.42022,-0.10768 -2.52199,-0.84848 -2.46087,-1.65461z" fill="#3e3571" stroke="none" stroke-width="0" stroke-linecap="butt"></path><path d="M191.13605,81.15171c-0.2492,-0.97867 2.6802,-2.56941 4.73698,-3.09315c2.05678,-0.52374 5.04164,-0.43898 5.29084,0.53969c0.2492,0.97867 -2.33161,2.48065 -4.38839,3.00438c-2.05678,0.52374 -5.39023,0.52774 -5.63943,-0.45092z" fill="#3e3571" stroke="none" stroke-width="0" stroke-linecap="butt"></path><path d="M199.39975,73.78272c0.36402,-0.8131 1.82042,-0.95233 3.25293,-0.31099c1.43251,0.64134 2.29869,1.82041 1.93466,2.63351c-0.36402,0.8131 -1.82043,0.95234 -3.25294,0.311c-1.43251,-0.64134 -2.29868,-1.82041 -1.93465,-2.63351z" fill="#3e3571" stroke="none" stroke-width="0" stroke-linecap="butt"></path><path d="M182.16265,72.38685c-0.35288,-0.65261 0.29312,-1.68565 1.44288,-2.30736c1.14977,-0.62171 2.36791,-0.59664 2.72079,0.05597c0.35288,0.65261 -0.29312,1.68566 -1.44288,2.30736c-1.14977,0.62171 -2.3679,0.59664 -2.72078,-0.05597z" fill="#3e3571" stroke="none" stroke-width="0" stroke-linecap="butt"></path><path d="M179.94131,71.87179c1.493,0.98049 -0.34635,3.09141 -1.281,4.51463c-0.93465,1.42324 -1.62158,4.07858 -3.02813,3.15487c-1.40654,-0.92371 -0.35889,-3.34217 0.57576,-4.76539c0,0 2.24036,-3.8846 3.73336,-2.90411z" data-paper-data="{&quot;index&quot;:null}" fill="#3e3571" stroke="none" stroke-width="0" stroke-linecap="butt"></path></g><g stroke="#000000" stroke-linecap="round"><path d="M217.21453,58.54911c3.54583,-0.54357 5.96062,-0.91274 5.96062,-0.91274l-0.30497,-24.07863h34.91904l-0.30497,24.07863c0,0 2.67463,0.41971 6.56422,1.03008" data-paper-data="{&quot;index&quot;:null}" fill="#ffdfc2" stroke-width="0"></path><path d="M223.17514,57.63636l-0.30497,-24.07863h34.91904l-0.30497,24.07863" data-paper-data="{&quot;index&quot;:null}" fill="none" stroke-width="3"></path><path d="M238.85041,58.64694c5.86333,-0.0317 18.54393,-1.55479 18.54393,-1.55479c0,0 15.42897,4.06208 21.32939,6.64998c4.71175,2.06655 10.93146,8.82205 10.93146,8.82205c0,0 0.91766,2.28838 -0.77454,2.69232c-8.47217,2.02237 -36.62344,8.41198 -51.12266,8.44007c-13.22962,0.02563 -42.88837,-9.68572 -42.88837,-9.68572l1.86739,-3.2187c0,0 3.05937,-5.09101 7.50421,-7.15326c5.16015,-2.39411 19.51678,-6.36492 19.51678,-6.36492c0,0 9.80283,1.40156 15.09243,1.37297z" fill="#12151c" stroke-width="3"></path></g><g data-paper-data="{&quot;index&quot;:null}" stroke-linecap="butt"><g data-paper-data="{&quot;index&quot;:null}"><path d="M306.50817,221.65266l1.55706,211.95483l-57.13009,15.00218l-5.74093,-25.2978l1.97697,-187.33771z" data-paper-data="{&quot;index&quot;:null}" fill="url(#color-5)" stroke="#000000" stroke-width="0"></path><g fill="none" stroke="none" stroke-width="1" font-family="sans-serif" font-weight="normal" font-size="12" text-anchor="start"></g></g><path d="M247.17119,303.2822c0,0 1.62126,2.76216 9.78668,3.20087c8.16542,0.43871 12.82639,-0.14129 20.8759,-1.55343c11.15204,-1.95643 18.13624,-4.26914 21.48282,-5.58527c3.34658,-1.31612 7.19158,-5.69171 7.19158,-5.69171l1.52913,139.95748l-56.78965,14.37453l-6.05343,-18.73958l1.97697,-125.96288z" data-paper-data="{&quot;index&quot;:null}" fill="#12151c" stroke="#000000" stroke-width="3"></path><g fill="#737885" stroke="#000000" stroke-width="0"><path d="M247.25636,310.09952c0,0 1.62126,2.76216 9.7867,3.20087c8.16542,0.43871 12.82639,-0.14129 20.8759,-1.55343c11.15204,-1.95643 18.13625,-4.26914 21.48281,-5.58527c3.34657,-1.31613 7.19159,-5.69171 7.19159,-5.69171l0.90953,9.82143c0,0 -3.84501,4.37559 -7.19159,5.69171c-3.34657,1.31613 -10.33078,3.62884 -21.48281,5.58527c-8.04951,1.41214 -12.71048,1.99215 -20.8759,1.55344c-8.16542,-0.43871 -9.7867,-3.20087 -9.7867,-3.20087z" data-paper-data="{&quot;index&quot;:null}"></path><path d="M247.25636,325.63798c0,0 1.62126,2.76216 9.7867,3.20087c8.16542,0.43871 12.82639,-0.14129 20.8759,-1.55343c11.15204,-1.95643 18.13625,-4.26914 21.48281,-5.58527c3.34657,-1.31613 7.19159,-5.69172 7.19159,-5.69172l0.90953,9.82143c0,0 -3.84501,4.37559 -7.19159,5.69171c-3.34657,1.31613 -10.33078,3.62885 -21.48281,5.58527c-8.04951,1.41214 -12.71048,1.99214 -20.8759,1.55343c-8.16542,-0.43871 -9.7867,-3.20087 -9.7867,-3.20087z" data-paper-data="{&quot;index&quot;:null}"></path></g><path d="M247.17119,303.2822c0,0 1.62126,2.76216 9.78668,3.20087c8.16542,0.43871 12.82639,-0.14129 20.8759,-1.55343c11.15204,-1.95643 18.13624,-4.26914 21.48282,-5.58527c3.34658,-1.31612 7.19158,-5.69171 7.19158,-5.69171l1.20124,139.63491l-57.39927,14.38459l-5.11593,-18.42708l1.97697,-125.96288z" data-paper-data="{&quot;index&quot;:null}" fill="none" stroke="#000000" stroke-width="3"></path><path d="M306.50817,221.65266l1.55706,211.95483l-57.13009,15.00218l-5.74093,-25.2978l1.97697,-187.33771z" data-paper-data="{&quot;index&quot;:null}" fill="none" stroke="#000000" stroke-width="3"></path></g><g stroke-linecap="butt"><g data-paper-data="{&quot;index&quot;:null}"><path d="M238.26218,235.97416l1.97697,187.33771l-5.74093,25.2978l-57.13009,-15.00218l1.55707,-211.95483z" data-paper-data="{&quot;index&quot;:null}" fill="url(#color-6)" stroke="#000000" stroke-width="0"></path><g fill="none" stroke="none" stroke-width="1" font-family="sans-serif" font-weight="normal" font-size="12" text-anchor="start"></g></g><path d="M238.26218,303.28221l1.97697,125.96288l-6.05343,18.73958l-56.78965,-14.37453l1.52912,-139.95748c0,0 3.845,4.37559 7.19158,5.69171c3.34657,1.31613 10.33078,3.62884 21.48282,5.58527c8.04951,1.41214 12.71048,1.99214 20.8759,1.55343c8.16542,-0.43871 9.78669,-3.20087 9.78669,-3.20087z" data-paper-data="{&quot;index&quot;:null}" fill="#12151c" stroke="#000000" stroke-width="3"></path><g fill="#737885" stroke="#000000" stroke-width="0"><path d="M237.26748,319.92096c0,0 -1.62128,2.76216 -9.7867,3.20087c-8.16542,0.43871 -12.82639,-0.1413 -20.8759,-1.55344c-11.15204,-1.95643 -18.13625,-4.26914 -21.48281,-5.58527c-3.34658,-1.31612 -7.19159,-5.69171 -7.19159,-5.69171l0.90953,-9.82143c0,0 3.84501,4.37558 7.19159,5.69171c3.34657,1.31613 10.33077,3.62884 21.48281,5.58527c8.04951,1.41214 12.71048,1.99214 20.8759,1.55343c8.16543,-0.43871 9.7867,-3.20087 9.7867,-3.20087z" data-paper-data="{&quot;index&quot;:null}"></path><path d="M237.26748,335.4594c0,0 -1.62128,2.76216 -9.7867,3.20087c-8.16542,0.43871 -12.82639,-0.14129 -20.8759,-1.55343c-11.15204,-1.95642 -18.13625,-4.26914 -21.48281,-5.58527c-3.34658,-1.31612 -7.19159,-5.69171 -7.19159,-5.69171l0.90953,-9.82143c0,0 3.84501,4.37559 7.19159,5.69172c3.34657,1.31613 10.33077,3.62884 21.48281,5.58527c8.04951,1.41214 12.71048,1.99214 20.8759,1.55343c8.16543,-0.43871 9.7867,-3.20087 9.7867,-3.20087z" data-paper-data="{&quot;index&quot;:null}"></path></g><path d="M238.26218,303.28221l1.97697,125.96288l-5.11593,18.42708l-57.39927,-14.38459l1.20125,-139.63491c0,0 3.845,4.37559 7.19158,5.69171c3.34657,1.31613 10.33078,3.62884 21.48282,5.58527c8.04951,1.41214 12.71048,1.99214 20.8759,1.55343c8.16542,-0.43871 9.78669,-3.20087 9.78669,-3.20087z" data-paper-data="{&quot;index&quot;:null}" fill="none" stroke="#000000" stroke-width="3"></path><path d="M238.26218,235.97416l1.97697,187.33771l-5.74093,25.2978l-57.13009,-15.00218l1.55706,-211.95482z" data-paper-data="{&quot;index&quot;:null}" fill="none" stroke="#000000" stroke-width="3"></path></g><path d="M191.6297,-42.15109c7.96189,-6.17958 26.93305,-6.14715 49.25847,-7.65046c33.17158,-2.23365 44.81017,10.36952 44.81017,10.36952c0,0 -86.08851,1.09435 -95.7379,1.21701z" fill="#ae2e2e" stroke="#000000" stroke-width="0" stroke-linecap="round"></path><path d="M289.54976,72.49353c0,0 5.57904,8.43356 8.00853,12.82533c2.34469,4.23847 6.32308,13.0817 6.32308,13.0817c0,0 -3.27893,9.6133 -5.58301,13.97633c-2.41061,4.56476 -8.57549,12.83443 -8.57549,12.83443l16.45036,90.89234l-0.87242,10.6116l-61.90319,11.53839l-65.16425,-10.64649l-0.59951,-11.5035l17.87284,-90.89234c0,0 -6.2687,-7.61521 -8.64392,-12.11297c-2.34386,-4.43837 -5.51457,-14.69779 -5.51457,-14.69779c0,0 4.20327,-9.24976 6.59472,-13.57276c2.38574,-4.31266 7.73688,-12.33427 7.73688,-12.33427" data-paper-data="{&quot;index&quot;:null}" fill="#000000" stroke="#000000" stroke-width="3" stroke-linecap="round"></path><g stroke="#000000"><path d="M289.09522,72.49353c0,0 5.57904,8.43356 8.00853,12.82533c2.34469,4.23847 6.32308,13.0817 6.32308,13.0817c0,0 -3.27893,9.6133 -5.58301,13.97633c-2.41061,4.56476 -8.57549,12.83443 -8.57549,12.83443l16.45036,90.89234l0.94576,45.15706c0,0 -41.22454,2.10047 -62.47299,2.24597c-22.13197,0.15155 -67.77626,-1.35407 -67.77626,-1.35407l0.76412,-46.04896l17.87284,-90.89234c0,0 -6.2687,-7.61521 -8.64392,-12.11297c-2.34386,-4.43837 -5.51457,-14.69779 -5.51457,-14.69779c0,0 4.20327,-9.24976 6.59472,-13.57276c2.38574,-4.31266 7.73688,-12.33427 7.73688,-12.33427" data-paper-data="{&quot;index&quot;:null}" fill="#12151c" stroke-width="0.5" stroke-linecap="round"></path><path d="M303.88139,98.40056c0,0 -3.27893,9.6133 -5.58301,13.97633c-2.41061,4.56476 -8.57549,12.83443 -8.57549,12.83443c0,0 -34.32375,3.5 -50.55857,3.5c-15.08621,0 -43.65759,-3.5 -43.65759,-3.5c0,0 -6.2687,-7.61521 -8.64392,-12.11297c-2.34386,-4.43837 -5.51457,-14.69779 -5.51457,-14.69779" data-paper-data="{&quot;index&quot;:null}" fill="url(#color-7)" stroke-width="0" stroke-linecap="round"></path><path d="M299.08802,98.42253c0,0 -38.67654,1.22449 -57.7551,1.22449c-18.73845,0 -55.71429,-1.22449 -55.71429,-1.22449" fill="none" stroke-width="3" stroke-linecap="round"></path><path d="M289.72289,124.51365l5.14612,35.72863c0,0 -25.97454,12.91357 -47.22299,12.94221c-22.13197,0.02984 -57.27626,-12.5166 -57.27626,-12.5166l5.13697,-36.15424c0,0 32.27705,3.04946 48.14945,3.04946c15.52532,0 46.06671,-3.04946 46.06671,-3.04946z" data-paper-data="{&quot;index&quot;:null}" fill="url(#color-8)" stroke-width="0" stroke-linecap="butt"></path><path d="M305.40401,216.045c6.70047,37.07906 0.94576,45.90838 0.94576,45.90838c0,0 -41.22454,1.09777 -62.47299,1.17382c-22.13197,0.07921 -65.86137,-0.49491 -65.86137,-0.49491c0,0 -3.46615,-28.53235 -1.15077,-46.58728c1.4188,-11.06355 10.79754,-51.7753 10.79754,-51.7753l108.02841,-0.12022c0,0 6.04936,31.61931 9.71342,51.89551z" data-paper-data="{&quot;index&quot;:null}" fill="url(#color-9)" stroke-width="0" stroke-linecap="butt"></path><path d="M288.64068,71.49353c0,0 1.01939,1.03599 2.20535,2.8002c2.11484,3.14599 5.15568,8.2113 6.71227,11.02513c2.34469,4.23847 6.32308,13.0817 6.32308,13.0817c0,0 -3.27893,9.6133 -5.58301,13.97633c-2.41061,4.56476 -8.57549,12.83443 -8.57549,12.83443c0,0 11.87824,55.13527 16.45036,90.89234c4.57212,35.75707 0.94576,45.15706 0.94576,45.15706c0,0 -41.22454,2.10047 -62.47299,2.24597c-22.13197,0.15155 -66.49966,-1.35407 -66.49966,-1.35407c0,0 -3.57455,-28.23946 -1.15078,-46.04896c2.42378,-17.8095 18.51114,-90.89234 18.51114,-90.89234c0,0 -6.2687,-7.61521 -8.64392,-12.11297c-2.34386,-4.43837 -5.51457,-14.69779 -5.51457,-14.69779c0,0 4.20327,-9.24976 6.59472,-13.57276c2.38574,-4.31266 8.46416,-13.51609 8.46416,-13.51609" data-paper-data="{&quot;index&quot;:null}" fill="none" stroke-width="3" stroke-linecap="round"></path></g><g data-paper-data="{&quot;index&quot;:null}"><path d="M187.54352,-3.24386c-0.41722,-29.37906 23.06102,-36.61984 52.44009,-37.03705c29.37907,-0.41722 53.53374,6.14712 53.95095,35.52619c0.41722,29.37907 -23.061,53.53374 -52.44009,53.95095c-29.37907,0.41722 -53.53374,-23.06102 -53.95095,-52.44008z" fill="#ffdfc2" stroke="#000000" stroke-width="3" stroke-linecap="butt"></path><path d="M195.9753,25.09496c0,0 6.1636,-4.46381 10.714,-4.61681c16.58523,-0.55761 15.49924,9.48537 15.49924,9.48537c0,0 -5.5654,0.05862 -7.4448,0.30651c-1.21236,0.15992 -2.73607,1.03636 -2.73607,1.03636c0,0 2.06417,8.25504 2.49905,9.82542c0.17441,0.62978 -5.25668,-2.47274 -5.25668,-2.47274" fill="#000000" stroke="#000000" stroke-width="3" stroke-linecap="round"></path><path d="M266.64021,41.81612c0,0 -5.01876,1.95698 -4.79062,1.44247c0.56886,-1.2829 3.37025,-8.05469 3.37025,-8.05469c0,0 -1.18736,-0.93916 -2.19998,-1.22853c-1.56976,-0.44861 -6.38728,2.69104 -6.38728,2.69104c0,0 -0.6429,-8.21492 2.19637,-11.66361c1.36656,-1.65989 6.56858,-2.08907 11.13654,-1.25395c3.85719,0.70519 11.07882,7.61329 11.07882,7.61329" data-paper-data="{&quot;index&quot;:null}" fill="#000000" stroke="#000000" stroke-width="3" stroke-linecap="round"></path><path d="M190.91802,2.42683c0.31239,-3.59837 1.93607,-10.17414 5.53413,-14.4426c4.63219,-5.49528 12.13295,-8.32282 20.0671,-8.23169c14.09698,0.1619 19.72564,19.20668 19.7718,23.19542c0.08325,7.19279 -13.66536,9.7738 -23.62577,9.65939c-9.9604,-0.11441 -22.36413,-3.07498 -21.74725,-10.18052z" data-paper-data="{&quot;index&quot;:null}" fill="#000000" stroke="#000000" stroke-width="3" stroke-linecap="round"></path><path d="M289.2042,1.63819c0.79877,7.08545 -11.17784,10.39225 -20.85865,10.78558c-9.68083,0.39333 -23.12022,-1.80157 -23.24075,-8.99384c-0.06684,-3.98844 4.87222,-23.18328 18.57351,-23.73995c7.08196,-0.28775 14.77615,2.39153 19.37051,7.14861c4.29422,4.44629 5.70838,10.83436 6.1554,14.79962z" data-paper-data="{&quot;index&quot;:null}" fill="#000000" stroke="#000000" stroke-width="3" stroke-linecap="round"></path><g fill="none" stroke-width="3"><path d="M269.79686,-14.4891l-16.43663,22.83786" stroke="#ffe200" stroke-linecap="round"></path><path d="M269.99901,7.98099l-16.84097,-22.10237" stroke="#00ff31" stroke-linecap="round"></path><path d="M253.04379,-14.27138l16.80848,-0.2947l0.26107,22.69711l-16.80848,0.2947z" stroke="#ff0000" stroke-linecap="butt"></path></g><path d="M219.87868,-7.63348l6.74582,-9.09328l3.23864,4.53537c0,0 -3.47382,4.68267 -4.72657,6.37136c-0.82674,1.11441 -2.05848,2.7748 -2.05848,2.7748l6.99319,8.90521l-3.13278,4.64682l-6.95274,-8.85374l-6.74582,9.09332l-3.23865,-4.53538l6.78502,-9.14617l-6.99316,-8.90521l3.13276,-4.64681z" data-paper-data="{&quot;index&quot;:null}" fill="#ff6a00" stroke="#000000" stroke-width="0" stroke-linecap="round"></path><path d="M256.79481,30.71637c0,0 -1.80796,1.33422 -4.57169,1.03474c-2.76372,-0.29947 -5.18497,-2.09199 -5.18497,-2.09199c0,0 -3.3017,3.20783 -7.29436,3.30669c-3.99266,0.09887 -7.50529,-3.05303 -7.50529,-3.05303c0,0 -3.89365,1.90456 -5.55799,2.06328c-1.66433,0.15872 -4.28489,-1.05725 -4.28489,-1.05725" data-paper-data="{&quot;index&quot;:null}" fill="none" stroke="#000000" stroke-width="3" stroke-linecap="round"></path></g><g data-paper-data="{&quot;index&quot;:null}" stroke="#000000" stroke-linecap="round"><g><path d="M221.70399,-43.92921c0,0 1.22489,3.94062 -0.85214,7.78311c-3.04009,5.62416 -10.16806,12.03342 -13.95817,13.77025c-4.38302,2.00857 -22.40236,6.16662 -23.2237,-0.22487c-0.69446,-5.4041 15.50142,-21.39302 15.50142,-21.39302" fill="#ae2e2e" stroke-width="0"></path><path d="M249.63413,-46.38044c6.09428,2.4306 6.61755,25.76608 5.02827,29.45548c-0.93669,2.17445 -3.03822,6.25442 -6.76971,8.17162c-2.82752,1.45275 -7.62496,1.07281 -7.62496,1.07281c0,0 7.35513,-7.83387 1.38761,-12.48853c-5.96752,-4.65467 -15.74989,-0.49347 -19.0797,-3.46904c-3.3298,-2.97558 -2.42833,-24.82377 -2.42833,-24.82377" fill="#ae2e2e" stroke-width="0"></path><g><path d="M291.93987,-31.35636c0,0 -0.53437,4.14679 -4.14814,5.18399c-3.9769,1.14141 -13.35885,-5.7316 -17.59681,-7.67368c-8.23952,-3.77582 -21.22634,1.53849 -21.22634,1.53849l-4.05149,-15.23638l38.36498,-2.41011z" data-paper-data="{&quot;index&quot;:null}" fill="#ae2e2e" stroke-width="0"></path><g stroke-width="3"><path d="M249.63413,-32.65759c6.09428,2.4306 6.61755,12.04322 5.02827,15.73262c-0.93669,2.17445 -3.03822,6.25442 -6.76971,8.17162c-2.82752,1.45275 -7.62496,1.07281 -7.62496,1.07281c0,0 7.35513,-7.83387 1.38761,-12.48853c-5.96752,-4.65467 -15.74989,-0.49347 -19.0797,-3.46904c-3.3298,-2.97558 -2.42833,-11.10091 -2.42833,-11.10091" fill="#ae2e2e"></path><path d="M219.52578,-34.78064c0,0 -6.25254,9.48133 -12.63208,12.40479c-8.08894,3.70681 -22.75209,1.47135 -22.75209,1.47135" fill="#ae2e2e"></path><path d="M292.37552,-31.65849c0,0 -0.53437,4.14678 -4.14814,5.18398c-3.9769,1.14141 -13.35885,-5.7316 -17.59681,-7.67366c-8.23952,-3.77582 -21.22634,1.53849 -21.22634,1.53849" data-paper-data="{&quot;index&quot;:null}" fill="none"></path></g></g></g><path d="M287.40049,35.80297c0,0 -0.56536,3.94425 -0.94949,5.81807c-0.41544,2.02651 0.2472,6.66566 0.2472,6.66566c0,0 -7.57574,-5.00867 -8.41208,-8.1379c-0.679,-2.54055 -0.53756,-6.00673 -1.08012,-5.53274c-0.81701,0.71374 -2.71005,1.59919 -3.33445,3.03856c-1.01504,2.33988 -0.54334,5.32568 -0.54334,5.32568c0,0 -4.1651,-4.55455 -5.07751,-6.50157c-1.08286,-2.31074 -0.9963,-6.4595 -0.9963,-6.4595c0,0 0.14915,-7.47751 3.36632,-10.94352c4.60962,-4.96616 18.68969,-12.18819 21.649,-16.00665c2.95931,-3.81845 -1.9583,-7.1171 0.34584,-12.37387c2.30415,-5.25677 9.86064,-10.91154 9.86064,-10.91154" fill="#ae2e2e" stroke-width="3"></path><g><path d="M181.97361,-3.44875c0.94087,-0.34483 -0.94819,-21.71066 0.71559,-21.87166c3.23679,-0.31322 9.79568,-0.14186 10.97579,1.04614c2.18028,2.19485 3.87357,5.69107 4.46782,10.14752c1.31693,9.87587 -0.88301,23.29844 -1.83323,29.45135c-0.44143,2.85842 -0.47319,5.51906 0.26025,7.73337c0.76191,2.30025 2.34958,4.11884 5.16155,5.17722c4.24077,1.59615 16.4055,1.7385 16.4055,1.7385c0,0 3.8964,15.19425 -4.66887,17.55554c-3.9207,1.08087 -11.89496,-5.37913 -16.00392,-11.65136c-0.41198,-0.62888 -8.2365,-17.22314 -8.56278,-17.84045" fill="#ae2e2e" stroke-width="0"></path><path d="M213.1195,47.93695c8.56526,-2.36129 5.00739,-17.96329 5.00739,-17.96329c0,0 -12.16474,-0.14236 -16.4055,-1.7385c-4.99432,-1.87977 -6.78051,-5.33652 -6.78051,-5.33652c0,0 9.11149,-35.65039 0.19406,-47.69535" fill="none" stroke-width="3"></path></g></g></g></g></svg>