<svg version="1.1" xmlns="http://www.w3.org/2000/svg" xmlns:xlink="http://www.w3.org/1999/xlink" width="244.64657" height="527.68566" viewBox="0,0,244.64657,527.68566"><defs><linearGradient x1="308.72607" y1="73.95019" x2="296.8831" y2="118.0588" gradientUnits="userSpaceOnUse" id="color-1"><stop offset="0" stop-color="#e6b1e5"/><stop offset="1" stop-color="#ffdfc2"/></linearGradient><radialGradient cx="307.90272" cy="90.5118" r="37.74536" gradientUnits="userSpaceOnUse" id="color-2"><stop offset="0" stop-color="#d7a7e1"/><stop offset="1" stop-color="#d7a7e1" stop-opacity="0"/></radialGradient><linearGradient x1="315.05601" y1="64.45393" x2="315.05601" y2="264.09727" gradientUnits="userSpaceOnUse" id="color-3"><stop offset="0" stop-color="#6c457c"/><stop offset="1" stop-color="#1b0b45"/></linearGradient><linearGradient x1="170.91278" y1="73.95019" x2="182.75577" y2="118.05881" gradientUnits="userSpaceOnUse" id="color-4"><stop offset="0" stop-color="#e6b1e5"/><stop offset="1" stop-color="#ffdfc2"/></linearGradient><radialGradient cx="171.73614" cy="90.5118" r="37.74536" gradientUnits="userSpaceOnUse" id="color-5"><stop offset="0" stop-color="#d7a7e1"/><stop offset="1" stop-color="#d7a7e1" stop-opacity="0"/></radialGradient><linearGradient x1="164.58286" y1="64.45393" x2="164.58286" y2="264.09727" gradientUnits="userSpaceOnUse" id="color-6"><stop offset="0" stop-color="#6c457c"/><stop offset="1" stop-color="#1b0b45"/></linearGradient><linearGradient x1="207.50624" y1="167.20941" x2="207.50624" y2="308.01148" gradientUnits="userSpaceOnUse" id="color-7"><stop offset="0" stop-color="#d8a9df"/><stop offset="1" stop-color="#ffdfc2"/></linearGradient><linearGradient x1="274.31192" y1="167.20941" x2="274.31192" y2="308.01148" gradientUnits="userSpaceOnUse" id="color-8"><stop offset="0" stop-color="#d9aae0"/><stop offset="1" stop-color="#fddcc4"/></linearGradient><linearGradient x1="241.11653" y1="51.97821" x2="241.11653" y2="258.10796" gradientUnits="userSpaceOnUse" id="color-9"><stop offset="0" stop-color="#6c457c"/><stop offset="1" stop-color="#1b0b45"/></linearGradient></defs><g transform="translate(-117.49615,83.86369)"><g data-paper-data="{&quot;isPaintingLayer&quot;:true}" fill-rule="nonzero" stroke-linejoin="miter" stroke-miterlimit="10" stroke-dasharray="" stroke-dashoffset="0" style="mix-blend-mode: normal"><g data-paper-data="{&quot;index&quot;:null}"><g><g><g fill="#000000" stroke="none" stroke-width="0.5" stroke-linecap="butt"><path d=""/></g><path d="M274.89826,84.39361c0,0 0.8775,-10.37213 4.93692,-12.85161c8.56368,-5.23069 24.53729,-4.58933 28.90525,-2.75004c5.50363,2.31749 8.01101,8.50201 8.05554,8.95539c1.02627,10.44938 28.29024,181.15803 28.29024,181.15803l-52.81669,6.31698l-17.18581,-175.76731" fill="#ffdfc2" stroke="#000000" stroke-width="0" stroke-linecap="round"/><path d="M275.40396,89.45178c0,0 -2.14892,-12.40581 5.97736,-18.64527c4.45693,-3.42208 21.54507,-4.19723 23.9645,-3.92701c7.90148,0.88252 11.9438,11.97062 11.9438,11.97062l6.87801,49.66197l-45.20906,5.1913l-3.55461,-44.25162z" fill="url(#color-1)" stroke="#000000" stroke-width="0" stroke-linecap="round"/><path d="M275.27394,89.4166c0,0 -1.40877,-8.43236 2.39977,-14.71274c2.22251,-3.66497 9.12335,-6.20144 11.47051,-6.94448c3.05265,-0.96638 10.35929,-2.6412 15.50797,-0.76829c7.19274,2.61647 12.07716,9.30191 12.07716,9.30191l11.81341,76.41491c0,0 -40.24796,-16.02874 -46.04301,-19.23208c-1.53648,-0.84933 -2.91579,-1.61177 -2.91579,-1.61177l-4.31002,-42.44745z" fill="url(#color-2)" stroke="#000000" stroke-width="0" stroke-linecap="round"/><path d="M274.87755,89.07422c0,0 -4.08229,-17.9163 15.80226,-21.50864c22.27021,-4.02334 25.95765,8.56717 25.95765,8.56717l28.04882,182.37264l-52.41669,6.71698c0,0 -14.72322,-148.64659 -17.39204,-176.14816z" fill="none" stroke="#000000" stroke-width="3" stroke-linecap="round"/></g><path d="M301.85393,77.5116c-2.05678,-0.52373 -4.63759,-2.02571 -4.38839,-3.00438c0.2492,-0.97867 3.23406,-1.06343 5.29084,-0.53969c2.05678,0.52374 4.98618,2.11448 4.73698,3.09315c-0.2492,0.97866 -3.58265,0.97466 -5.63943,0.45092z" fill="#3e3571" stroke="none" stroke-width="0" stroke-linecap="butt"/><path d="M281.56055,74.13485c0,0 3.36929,-2.95926 4.46829,-1.5512c1.099,1.40806 -1.32087,2.8164 -2.6631,3.86403c-1.34223,1.04766 -2.84559,3.34171 -3.88095,2.01519c-1.03536,-1.32651 0.73354,-3.28038 2.07577,-4.32801z" fill="#3e3571" stroke="none" stroke-width="0" stroke-linecap="butt"/><path d="M301.87363,70.71481c0.03202,0.80781 -1.09575,1.50841 -2.51893,1.56481c-1.42319,0.0564 -2.60287,-0.55274 -2.63488,-1.36055c-0.03201,-0.80781 1.09576,-1.5084 2.51894,-1.5648c1.42318,-0.05641 2.60285,0.55272 2.63487,1.36053z" fill="#3e3571" stroke="none" stroke-width="0" stroke-linecap="butt"/><path d="M277.57196,81.14033c-0.15798,-1.41551 0.3653,-2.63572 1.16875,-2.72538c0.80345,-0.08966 1.58283,0.98515 1.74081,2.40066c0.15799,1.41551 -0.36527,2.63572 -1.16872,2.72538c-0.80346,0.08966 -1.58286,-0.98515 -1.74084,-2.40066z" fill="#3e3571" stroke="none" stroke-width="0" stroke-linecap="butt"/><path d="M293.04508,71.47271c0.06112,0.80613 -1.04065,1.54693 -2.46087,1.65461c-1.42022,0.10768 -2.6211,-0.45853 -2.68222,-1.26465c-0.06112,-0.80613 1.04065,-1.54693 2.46087,-1.65461c1.42022,-0.10768 2.6211,0.45852 2.68222,1.26464z" fill="#3e3571" stroke="none" stroke-width="0" stroke-linecap="butt"/><path d="M293.01674,82.86044c-2.05678,-0.52373 -4.63759,-2.02571 -4.38839,-3.00438c0.2492,-0.97867 3.23406,-1.06343 5.29084,-0.53969c2.05678,0.52374 4.98618,2.11448 4.73698,3.09315c-0.2492,0.97866 -3.58265,0.97466 -5.63943,0.45092z" fill="#3e3571" stroke="none" stroke-width="0" stroke-linecap="butt"/><path d="M290.39246,75.04054c0.36403,0.8131 -0.50214,1.99217 -1.93465,2.63351c-1.43251,0.64134 -2.88892,0.5021 -3.25294,-0.311c-0.36403,-0.8131 0.50215,-1.99217 1.93466,-2.63351c1.43251,-0.64134 2.88891,-0.50211 3.25293,0.31099z" fill="#3e3571" stroke="none" stroke-width="0" stroke-linecap="butt"/><path d="M307.62956,73.64466c-0.35288,0.65261 -1.57101,0.67768 -2.72078,0.05597c-1.14976,-0.6217 -1.79576,-1.65475 -1.44288,-2.30736c0.35288,-0.65261 1.57102,-0.67768 2.72079,-0.05597c1.14976,0.62171 1.79576,1.65475 1.44288,2.30736z" fill="#3e3571" stroke="none" stroke-width="0" stroke-linecap="butt"/><path d="M309.85092,73.12959c1.493,-0.98049 3.73336,2.90411 3.73336,2.90411c0.93465,1.42322 1.9823,3.84168 0.57576,4.76539c-1.40655,0.92371 -2.09348,-1.73163 -3.02813,-3.15487c-0.93465,-1.42322 -2.774,-3.53414 -1.281,-4.51463z" fill="#3e3571" stroke="none" stroke-width="0" stroke-linecap="butt"/></g><path d="M342.17382,256.01912c0,0 22.63885,7.72105 17.78732,15.27219c-4.9363,7.6831 -14.42601,0.48669 -14.42601,0.48669c0,0 2.0149,23.33835 -9.05375,30.94256c-11.06866,7.6042 -10.1305,-17.76289 -10.1305,-17.76289c0,0 -10.71939,15.49017 -21.22725,14.89218c-10.50786,-0.59797 2.29326,-15.96968 2.29326,-15.96968c0,0 -21.22051,19.81144 -27.37365,10.91538c-3.11853,-4.50868 9.58508,-18.99359 9.58508,-18.99359c0,0 0.24208,-5.37167 0.74393,-7.66556c0.47383,-2.16582 2.18792,-5.73565 2.18792,-5.73565" fill="#ffdfc2" stroke="#000000" stroke-width="3" stroke-linecap="round"/></g><path d="M274.89826,81.39286c0,0 0.8775,-10.37213 4.93692,-12.85161c8.56368,-5.23069 24.53729,-4.58933 28.90525,-2.75004c5.50363,2.31749 8.01101,8.50201 8.05554,8.95539c1.02627,10.44938 38.41777,178.53238 38.41777,178.53238c0,0 -23.37092,7.26918 -35.79952,9.05423c-12.67403,1.82029 -39.52278,1.76388 -39.52278,1.76388l-4.80773,-177.64278" data-paper-data="{&quot;index&quot;:null}" fill="url(#color-3)" stroke="#000000" stroke-width="3" stroke-linecap="round"/><g><g><g><g fill="#000000" stroke="none" stroke-width="0.5" stroke-linecap="butt"><path d=""/></g><path d="M204.55515,89.45505l-17.18582,175.76731l-52.81668,-6.31698c0,0 27.26397,-170.70865 28.29024,-181.15803c0.04453,-0.45338 2.55191,-6.6379 8.05554,-8.95539c4.36796,-1.83929 20.34157,-2.48065 28.90525,2.75004c4.05942,2.47948 4.93692,12.85161 4.93692,12.85161" fill="#ffdfc2" stroke="#000000" stroke-width="0" stroke-linecap="round"/><path d="M204.23491,89.45177l-3.55461,44.25162l-45.20906,-5.1913l6.87801,-49.66197c0,0 4.04232,-11.0881 11.9438,-11.97062c2.41942,-0.27022 19.50757,0.50493 23.9645,3.92701c8.12628,6.23946 5.97736,18.64527 5.97736,18.64527z" fill="url(#color-4)" stroke="#000000" stroke-width="0" stroke-linecap="round"/><path d="M204.36492,89.41662l-4.31002,42.44745c0,0 -1.37931,0.76244 -2.91579,1.61177c-5.79505,3.20334 -46.04301,19.23208 -46.04301,19.23208l11.81341,-76.41491c0,0 4.88442,-6.68544 12.07716,-9.30191c5.14868,-1.87291 12.45533,-0.19809 15.50798,0.76829c2.34716,0.74304 9.248,3.27951 11.47051,6.94448c3.80854,6.28038 2.39977,14.71274 2.39977,14.71274z" fill="url(#color-5)" stroke="#000000" stroke-width="0" stroke-linecap="round"/><path d="M204.76132,89.07421c-2.66882,27.50157 -17.39204,176.14816 -17.39204,176.14816l-52.41669,-6.71698l28.04882,-182.37264c0,0 3.68744,-12.59051 25.95765,-8.56717c19.88455,3.59234 15.80226,21.50864 15.80226,21.50864z" fill="none" stroke="#000000" stroke-width="3" stroke-linecap="round"/></g><path d="M172.14549,77.06068c-0.2492,-0.97867 2.6802,-2.56941 4.73698,-3.09315c2.05678,-0.52374 5.04164,-0.43898 5.29084,0.53969c0.2492,0.97867 -2.33161,2.48065 -4.38839,3.00438c-2.05678,0.52374 -5.39023,0.52774 -5.63943,-0.45092z" fill="#3e3571" stroke="none" stroke-width="0" stroke-linecap="butt"/><path d="M198.07831,74.13486c1.34223,1.04763 3.11113,3.0015 2.07577,4.32801c-1.03536,1.32652 -2.53872,-0.96753 -3.88095,-2.01519c-1.34223,-1.04763 -3.7621,-2.45597 -2.6631,-3.86403c1.099,-1.40806 4.46829,1.5512 4.46829,1.5512z" fill="#3e3571" stroke="none" stroke-width="0" stroke-linecap="butt"/><path d="M177.76523,70.71479c0.03202,-0.80781 1.21169,-1.41694 2.63487,-1.36053c1.42318,0.0564 2.55095,0.75699 2.51894,1.5648c-0.03202,0.80781 -1.21169,1.41695 -2.63488,1.36055c-1.42318,-0.0564 -2.55095,-0.757 -2.51893,-1.56481z" fill="#3e3571" stroke="none" stroke-width="0" stroke-linecap="butt"/><path d="M200.32606,83.54099c-0.80345,-0.08966 -1.32672,-1.30987 -1.16873,-2.72538c0.15798,-1.41551 0.93737,-2.49032 1.74082,-2.40066c0.80345,0.08966 1.32673,1.30987 1.16875,2.72538c-0.15798,1.41551 -0.93738,2.49032 -1.74084,2.40066z" fill="#3e3571" stroke="none" stroke-width="0" stroke-linecap="butt"/><path d="M186.59378,71.47271c0.06112,-0.80612 1.262,-1.37232 2.68222,-1.26464c1.42022,0.10768 2.52199,0.84848 2.46087,1.65461c-0.06112,0.80612 -1.262,1.37233 -2.68222,1.26465c-1.42022,-0.10768 -2.52199,-0.84848 -2.46087,-1.65461z" fill="#3e3571" stroke="none" stroke-width="0" stroke-linecap="butt"/><path d="M180.9827,82.40952c-0.2492,-0.97867 2.6802,-2.56941 4.73698,-3.09315c2.05678,-0.52374 5.04164,-0.43898 5.29084,0.53969c0.2492,0.97867 -2.33161,2.48065 -4.38839,3.00438c-2.05678,0.52374 -5.39023,0.52774 -5.63943,-0.45092z" fill="#3e3571" stroke="none" stroke-width="0" stroke-linecap="butt"/><path d="M189.2464,75.04053c0.36402,-0.8131 1.82042,-0.95233 3.25293,-0.31099c1.43251,0.64134 2.29869,1.82041 1.93466,2.63351c-0.36402,0.8131 -1.82043,0.95234 -3.25294,0.311c-1.43251,-0.64134 -2.29868,-1.82041 -1.93465,-2.63351z" fill="#3e3571" stroke="none" stroke-width="0" stroke-linecap="butt"/><path d="M172.0093,73.64466c-0.35288,-0.65261 0.29312,-1.68565 1.44288,-2.30736c1.14977,-0.62171 2.36791,-0.59664 2.72079,0.05597c0.35288,0.65261 -0.29312,1.68566 -1.44288,2.30736c-1.14977,0.62171 -2.3679,0.59664 -2.72078,-0.05597z" fill="#3e3571" stroke="none" stroke-width="0" stroke-linecap="butt"/><path d="M169.78796,73.12959c1.493,0.98049 -0.34635,3.09141 -1.281,4.51463c-0.93465,1.42324 -1.62158,4.07858 -3.02813,3.15487c-1.40654,-0.92371 -0.35889,-3.34217 0.57576,-4.76539c0,0 2.24036,-3.8846 3.73336,-2.90411z" fill="#3e3571" stroke="none" stroke-width="0" stroke-linecap="butt"/></g><path d="M187.07869,262.40074c0,0 1.71409,3.56983 2.18792,5.73565c0.50185,2.29389 0.74393,7.66556 0.74393,7.66556c0,0 12.70361,14.48491 9.58508,18.99359c-6.15314,8.89606 -27.37364,-10.91538 -27.37364,-10.91538c0,0 12.80112,15.37171 2.29326,15.96968c-10.50786,0.59799 -21.22725,-14.89218 -21.22725,-14.89218c0,0 0.93816,25.36709 -10.1305,17.76289c-11.06865,-7.60421 -9.05375,-30.94256 -9.05375,-30.94256c0,0 -9.48971,7.19641 -14.42601,-0.48669c-4.85153,-7.55114 17.78732,-15.27219 17.78732,-15.27219" fill="#ffdfc2" stroke="#000000" stroke-width="3" stroke-linecap="round"/></g><path d="M204.55515,86.4543c0,0 -0.64697,23.90502 -1.13245,41.84319c-0.8746,32.3158 -3.67528,135.79959 -3.67528,135.79959c0,0 -26.84875,0.05643 -39.52278,-1.76387c-12.42861,-1.78505 -35.79953,-9.05423 -35.79953,-9.05423c0,0 37.3915,-168.08299 38.41777,-178.53237c0.04453,-0.45338 2.55191,-6.6379 8.05554,-8.95539c4.36796,-1.83929 20.34157,-2.48065 28.90525,2.75004c4.05942,2.47948 4.93691,12.85161 4.93691,12.85161" fill="url(#color-6)" stroke="#000000" stroke-width="3" stroke-linecap="round"/><g><g stroke-linecap="butt"><g><g><path d="M238.80931,229.49009l-0.40398,187.33771l-5.74093,25.2978l-57.13009,-15.00218l1.55707,-211.95483z" fill="url(#color-7)" stroke="#000000" stroke-width="0"/><g fill="none" stroke="none" stroke-width="1" font-family="sans-serif" font-weight="normal" font-size="12" text-anchor="start"/></g><g fill="none" stroke="#000000" stroke-width="1.5"><g><path d="M177.06202,266.79433v-39.50669l61.97534,32.01403v39.50669z"/><path d="M177.06203,306.3781v-39.50669l61.97534,32.01403v39.50666z"/><path d="M177.06201,345.51208v-39.50669l61.97534,32.01403v39.50669z"/><path d="M177.06202,385.09587v-39.50668l61.97534,32.01403v39.50666z"/></g><g data-paper-data="{&quot;index&quot;:null}"><path d="M177.06202,298.80835v-39.50668l61.97534,-32.01403v39.50668z"/><path d="M177.06201,338.39211v-39.50666l61.97534,-32.01403v39.50668z"/><path d="M177.06203,377.52612v-39.50669l61.97534,-32.01403v39.50669z"/><path d="M177.06203,417.1099v-39.50667l61.97534,-32.01404v39.50669z"/></g></g></g><path d="M238.80931,229.49009l-0.40398,187.33771l-5.74093,25.2978c0,0 -24.68521,-3.68106 -34.85998,-6.35291c-8.60396,-2.25937 -22.27011,-8.64927 -22.27011,-8.64927l1.55707,-211.95483z" fill-opacity="0.5" fill="#000000" stroke="#000000" stroke-width="0"/><path d="M238.80931,229.49009l-0.40398,187.33771l-5.74093,25.2978c0,0 -23.48492,-3.63534 -33.70032,-6.31787c-8.5177,-2.23672 -23.42977,-8.68431 -23.42977,-8.68431l1.55706,-211.95482z" fill="none" stroke="#000000" stroke-width="3"/></g><g><path d="M239.04192,417.10404l-6.40872,25.13482c0,0 -22.00409,-3.03793 -31.98958,-5.56544c-8.79208,-2.22544 -24.80007,-8.80909 -24.80007,-8.80909l1.52912,-107.77352c0,0 17.55461,-4.37448 28.6744,-2.72769c11.11979,1.64679 32.08364,11.72565 32.08364,11.72565z" fill="#000000" stroke="#000000" stroke-width="0" stroke-linecap="butt"/><path d="M178.33532,319.90401c0,0 3.91935,-6.10309 6.46302,-9.09035c2.47271,-2.90393 8.59216,-8.59027 8.59216,-8.59027c0,0 5.5172,4.97909 7.84695,7.71513c2.64782,3.10957 7.20822,9.9655 7.20822,9.9655c0,0 -10.75464,5.00083 -15.90682,5.00083c-4.86853,0 -14.20353,-5.00083 -14.20353,-5.00083z" fill="#000000" stroke="#000000" stroke-width="0" stroke-linecap="butt"/><path d="M208.81123,318.06344c0,0 5.91741,-4.19445 9.39368,-6.01364c3.3793,-1.76845 11.18129,-4.7536 11.18129,-4.7536c0,0 3.25475,6.68113 4.39221,10.08992c1.29275,3.87417 2.95823,11.93811 2.95823,11.93811c0,0 -11.84446,0.61588 -16.62278,-1.31095c-4.51524,-1.82075 -11.30263,-9.94983 -11.30263,-9.94983z" fill="#000000" stroke="#000000" stroke-width="0" stroke-linecap="butt"/><path d="M200.06903,332.47496c0,5.46844 -2.31727,9.90148 -5.17577,9.90148c-2.8585,0 -5.17577,-4.43304 -5.17577,-9.90148c0,-5.46844 2.31727,-9.90148 5.17577,-9.90148c2.8585,0 5.17577,4.43304 5.17577,9.90148z" fill="#ffffff" stroke="#000000" stroke-width="1.5" stroke-linecap="butt"/><path d="M221.72153,333.87442c0,5.46844 -2.31728,9.90149 -5.17578,9.90149c-2.8585,0 -5.17577,-4.43305 -5.17577,-9.90149c0,-5.46844 2.31727,-9.90148 5.17577,-9.90148c2.8585,0 5.17578,4.43304 5.17578,9.90148z" fill="#ffffff" stroke="#000000" stroke-width="1.5" stroke-linecap="butt"/><path d="M226.0153,345.43884c-1.35093,8.79261 -12.91461,1.78784 -21.81021,1.73097c-7.34397,-0.04695 -19.95696,3.59976 -18.69446,-3.63503" fill="none" stroke="#ffffff" stroke-width="1.5" stroke-linecap="round"/></g></g><g><g stroke-linecap="butt"><g><path d="M304.72677,215.16859l1.55707,211.95483l-57.13009,15.00218l-5.74093,-25.2978l-0.40398,-187.33771z" fill="url(#color-8)" stroke="#000000" stroke-width="0"/><g fill="none" stroke="none" stroke-width="1" font-family="sans-serif" font-weight="normal" font-size="12" text-anchor="start"/></g><path d="M304.72677,215.16859l1.55707,211.95483l-57.13009,15.00218l-5.74093,-25.2978l-0.40398,-187.33771z" fill-opacity="0.5" fill="#000000" stroke="#000000" stroke-width="0"/><path d="M304.7268,215.1686l1.55705,211.95482c0,0 -14.44675,6.888 -22.8281,9.08892c-10.27399,2.69792 -34.30198,5.91326 -34.30198,5.91326l-5.74093,-25.2978l-0.40398,-187.33771z" fill="none" stroke="#000000" stroke-width="3"/><g data-paper-data="{&quot;index&quot;:null}" fill="none" stroke="#000000" stroke-width="1.5"><g><path d="M243.56286,266.79433v-39.50669l61.97534,32.01403v39.50669z"/><path d="M243.56287,306.3781v-39.50669l61.97534,32.01403v39.50666z"/><path d="M243.56285,345.51208v-39.50669l61.97534,32.01403v39.50669z"/><path d="M243.56286,385.09587v-39.50668l61.97534,32.01403v39.50666z"/></g><g data-paper-data="{&quot;index&quot;:null}"><path d="M243.56286,298.80835v-39.50668l61.97534,-32.01403v39.50668z"/><path d="M243.56285,338.39211v-39.50666l61.97534,-32.01403v39.50668z"/><path d="M243.56287,377.52612v-39.50669l61.97534,-32.01403v39.50669z"/><path d="M243.56287,417.1099v-39.50667l61.97534,-32.01404v39.50669z"/></g></g></g><g><path d="M243.96876,329.08876c0,0 20.96385,-10.07886 32.08364,-11.72565c11.11979,-1.64679 28.6744,2.72769 28.6744,2.72769l1.52911,107.77353c0,0 -13.77012,5.248 -22.33733,7.41653c-10.107,2.55827 -34.45231,6.958 -34.45231,6.958l-6.05343,-18.73958z" fill="#000000" stroke="#000000" stroke-width="0" stroke-linecap="butt"/><path d="M289.27932,324.90484c-5.15218,0 -15.90683,-5.00083 -15.90683,-5.00083c0,0 4.5604,-6.85593 7.20822,-9.9655c2.32975,-2.73604 7.84696,-7.71512 7.84696,-7.71512c0,0 6.11944,5.68635 8.59215,8.59027c2.54367,2.98726 6.46303,9.09035 6.46303,9.09035c0,0 -9.335,5.00083 -14.20353,5.00083z" fill="#000000" stroke="#000000" stroke-width="0" stroke-linecap="butt"/><path d="M261.7043,328.01328c-4.77832,1.92683 -16.62278,1.31095 -16.62278,1.31095c0,0 1.66547,-8.06394 2.95822,-11.93811c1.13746,-3.40879 4.39222,-10.08992 4.39222,-10.08992c0,0 7.80197,2.98515 11.18128,4.7536c3.47627,1.81919 9.39369,6.01364 9.39369,6.01364c0,0 -6.78739,8.12908 -11.30264,9.94983z" fill="#000000" stroke="#000000" stroke-width="0" stroke-linecap="butt"/><path d="M286.92492,322.57347c2.8585,0 5.17577,4.43305 5.17577,9.90149c0,5.46844 -2.31727,9.90148 -5.17577,9.90148c-2.8585,0 -5.17577,-4.43304 -5.17577,-9.90148c0,-5.46844 2.31727,-9.90149 5.17577,-9.90149z" fill="#ffffff" stroke="#000000" stroke-width="1.5" stroke-linecap="butt"/><path d="M265.27242,323.97294c2.8585,0 5.17577,4.43304 5.17577,9.90148c0,5.46844 -2.31727,9.90149 -5.17577,9.90149c-2.8585,0 -5.17577,-4.43305 -5.17577,-9.90149c0,-5.46844 2.31727,-9.90148 5.17577,-9.90148z" fill="#ffffff" stroke="#000000" stroke-width="1.5" stroke-linecap="butt"/><path d="M296.30753,343.53478c1.2625,7.23479 -11.35049,3.58808 -18.69446,3.63503c-8.8956,0.05687 -20.45928,7.06164 -21.81021,-1.73097" fill="none" stroke="#ffffff" stroke-width="1.5" stroke-linecap="round"/></g></g><g><path d="M288.9832,-55.09085c0,0 2.82729,7.05422 4.20922,17.84945c2.02516,15.81988 3.05552,39.20889 1.39709,56.42886c-1.48661,15.4358 -29.68101,44.80668 -57.09215,45.36599c-26.73651,0.54555 -47.3393,-27.42793 -48.76192,-41.46518c-0.90323,-8.91236 -2.95963,-17.91557 -4.43386,-26.07187c-2.62676,-14.53286 0.70854,-25.44219 0.60562,-32.54412c-0.00186,-0.12802 0.31732,-5.11222 1.09827,-9.12287c0.60714,-3.11815 1.72013,-5.5009 1.72013,-5.5009" fill="#ae2e2e" stroke="#000000" stroke-width="3" stroke-linecap="butt"/><g stroke-linecap="butt"><g fill="#ae2e2e" stroke="#000000"><g stroke-width="0"><path d="M235.9734,69.03278c-14.66213,0.30534 -27.38446,-8.59438 -35.78762,-18.79668c17.74425,-2.16612 23.6684,9.83408 37.70237,8.96535c10.41989,-0.64502 28.6381,-14.45598 41.91026,-14.3605c-10.46194,12.25578 -27.29327,23.84756 -43.82499,24.19184z"/></g><path d="M219.51641,62.76414c-8.09977,-1.50717 -4.81016,10.38299 -4.81016,10.38299c0,0 -13.2031,-9.3233 -14.89854,-15.797c-1.54732,-5.90815 -0.26638,-10.31711 -0.02792,-10.84218" stroke-width="3"/><path d="M253.00079,64.25338c-7.10571,4.73967 -12.14482,17.50456 -12.14482,17.50456c0,0 -5.27731,-2.75607 -8.5157,-7.61577c-2.95547,-4.43514 -2.98599,-9.0032 -2.93873,-9.6838" stroke-width="3"/><path d="M233.63182,64.52649c0,0 -4.30154,5.31382 -4.50938,10.77814c-0.10086,2.65131 0.22895,4.46713 0.22895,4.46713c0,0 -6.0113,-3.02114 -7.70033,-4.68975c-4.75544,-4.69803 -2.24971,-13.59461 -2.24971,-13.59461" stroke-width="3"/><path d="M280.56174,42.45446c3.06713,8.44584 3.01677,8.63769 3.01677,8.63769v0c0,0 3.43395,12.07372 1.20476,18.97122c-2.16646,6.70334 -15.44535,9.82858 -15.44535,9.82858c0,0 2.79195,-6.42987 1.6094,-11.02767c-1.07114,-4.16466 -7.19457,-6.22829 -7.19457,-6.22829c0,0 -0.69457,5.77785 -3.50322,9.78085c-1.5266,2.17578 -6.21645,3.80843 -6.21645,3.80843c0,0 -0.43524,-3.76068 -1.51064,-6.25721c-0.87461,-2.03036 -3.1727,-3.42437 -4.30346,-4.00987" stroke-width="2.5"/></g><g fill="none" stroke="none" stroke-width="1" font-family="sans-serif" font-weight="normal" font-size="12" text-anchor="start"/><g fill="none" stroke="none" stroke-width="1" font-family="sans-serif" font-weight="normal" font-size="12" text-anchor="start"/><g fill="none" stroke="none" stroke-width="1" font-family="sans-serif" font-weight="normal" font-size="12" text-anchor="start"/></g><path d="M246.44655,-76.48357c-4.69416,-1.63899 -7.46936,9.13649 -7.46936,9.13649c0,0 -1.03551,-8.7625 -3.21291,-11.40441c-2.43669,-2.95651 -6.24744,-4.9559 -9.23117,-2.52554" fill="none" stroke="#000000" stroke-width="3" stroke-linecap="round"/><path d="M298.06853,-71.30239c0,-1.58211 1.76704,-1.58211 1.76704,-1.58211h0.40168c1.55898,0.02343 3.18475,0.20077 4.59036,0.80494c6.87997,1.49821 10.81082,13.10798 3.46015,16.56463c-2.24935,1.05777 -5.63054,1.43792 -8.06453,1.94042c-0.11412,0.02357 -3.43787,0.57712 -3.6485,0.73059c-1.77689,1.29474 0.36548,5.47687 0.59152,6.85304c0,0 0.2499,1.5662 -1.49939,1.78996c-1.74928,0.22374 -1.99916,-1.34247 -1.99916,-1.34247c-0.50286,-3.26288 -2.85762,-6.83435 0.59151,-9.69094c3.31448,-2.74508 10.45915,-0.63908 13.45857,-3.77469c2.76822,-2.8939 -0.28752,-9.6165 -4.0371,-10.07761c-1.0377,-0.48738 -2.27195,-0.6584 -3.44342,-0.63367h-0.40169c0,0 -1.76704,0 -1.76704,-1.58211z" fill="#000000" stroke="none" stroke-width="0.5" stroke-linecap="butt"/><path d="M280.47198,-61.20937c0,0 22.61686,14.32941 28.00505,16.99287c6.20732,3.06837 18.95233,4.23617 18.95233,4.23617c0,0 -6.34091,18.16734 -11.80399,23.18038c-5.04295,4.62754 -31.63703,1.97295 -31.63703,1.97295" fill="#ae2e2e" stroke="#000000" stroke-width="0" stroke-linecap="round"/><path d="M308.4651,51.73351c0,-1.58211 1.76703,-1.58211 1.76703,-1.58211h0.40169c5.26804,0.16661 6.12153,2.72003 3.95913,6.65925c-0.87762,1.29623 -1.89029,2.54429 -3.11134,3.59426c-0.84605,0.72752 -1.5068,1.72066 -2.58172,2.14121c-4.46942,1.74867 -8.7372,-3.59065 -9.96653,-6.66946c-0.75039,-1.87935 -0.48609,-4.06596 -0.88324,-6.01584c-0.11086,-0.54426 -0.62356,-4.44348 -1.19937,-4.69383c-1.10984,-0.48254 -7.31491,0.73932 -8.86336,0.93969c0,0 -1.74927,0.22374 -1.99916,-1.34247c-0.2499,-1.56621 1.49937,-1.78996 1.49937,-1.78996c2.61253,-0.33058 8.9211,-1.71717 11.22113,-0.49892c1.04819,0.5552 2.13686,3.65603 2.3927,4.56097c0.8979,3.17614 0.30192,6.45753 2.21042,9.27798c1.76374,2.60649 3.02105,4.36598 5.67079,1.85317c0.93388,-0.88561 1.81921,-1.83146 2.51234,-2.87947c1.00581,-1.75872 1.71793,-2.11683 -0.86115,-1.97239h-0.40169c0,0 -1.76703,0 -1.76703,-1.58211z" fill="#000000" stroke="none" stroke-width="0.5" stroke-linecap="butt"/><path d="M167.95223,4.26265c-0.42857,1.53488 -2.14284,1.15116 -2.14284,1.15116l-0.88768,-0.33393c-2.87513,0.40524 -3.71429,0.60342 -3.74988,3.36237c-0.00663,0.51387 -0.38733,1.10618 -0.07975,1.54007c0.19714,0.27811 0.73024,-0.12332 1.09753,-0.10437c2.09511,0.10818 4.19004,0.45822 6.2844,0.3389c4.98501,-0.284 4.66102,-5.64195 8.20274,-7.74469c0.78447,-0.46575 1.87801,-0.11689 2.81701,-0.17534c0,0 1.76703,0 1.76703,1.5821c0,1.58211 -1.76703,1.58211 -1.76703,1.58211c-2.63795,-0.3855 -3.73895,4.5728 -5.66592,6.0829c-3.20878,2.51459 -8.30673,2.14869 -12.17314,1.46177c-1.06719,-0.1896 -2.43149,-0.09344 -3.12489,-0.84411c-1.95982,-2.12174 -0.99211,-6.83974 0.83503,-8.68209c1.17507,-1.18485 3.44442,-1.28205 4.97588,-1.52083l2.32583,0.38537c0,0 1.71428,0.38371 1.28571,1.91859z" fill="#000000" stroke="none" stroke-width="0.5" stroke-linecap="butt"/><path d="M186.89875,-48.0141c0,0 1.00534,-3.44342 3.43537,-7.54704c1.46893,-2.48058 3.45842,-5.20241 6.06113,-7.55069c2.2996,-2.07479 5.22611,-3.92554 8.42506,-5.35077c3.57946,-1.59477 7.50014,-2.65676 11.26543,-2.9037c3.49785,-0.22941 9.00625,1.08497 13.71082,2.48371c4.88559,1.45254 8.90431,2.99607 8.90431,2.99607c0,0 5.30205,-2.77476 12.5005,-4.66008c5.64689,-1.47895 12.46077,-2.41056 18.79758,-1.02595c2.60531,0.56925 5.16367,1.8103 7.54156,3.43551c2.67777,1.83014 5.12665,4.14745 7.15603,6.54122c2.2293,2.6296 3.85387,5.27654 5.04374,7.98438" fill="#ae2e2e" stroke="#000000" stroke-width="0" stroke-linecap="butt"/><g stroke-linecap="round"><path d="M233.09951,36.73862l-26.90477,25.89837c0,0 -2.9081,-0.55264 -3.45255,-3.08809c-0.29942,-1.39434 1.9784,-4.86613 1.48244,-5.71159c-1.60794,-2.74109 -7.1356,-6.72305 -7.1356,-6.72305c0,0 -5.86058,-0.14829 -8.12586,-0.53541c-2.27838,-0.38937 -7.97181,-4.90722 -7.97181,-4.90722c0,0 4.05579,-1.40134 5.45394,-2.95394c1.49257,-1.65744 3.23678,-6.69677 3.23678,-6.69677c0,0 -9.67996,4.52344 -13.58614,2.75558c-4.01572,-1.81744 -10.18872,-13.51557 -10.18872,-13.51557c0,0 5.79335,-2.08715 7.78688,-4.36258c2.60366,-2.97186 7.03722,-4.48161 6.49923,-11.9438c-0.29809,-4.13466 -3.0086,-6.03487 -5.29489,-8.32394c-1.83998,-1.84222 -3.4052,-3.93631 -3.21704,-7.64967c0.19127,-3.77516 2.20338,-7.74485 4.40472,-11.17722c2.65451,-4.13895 2.82918,-9.83839 3.17326,-11.13156c0.62943,-2.3656 -1.11406,-1.98441 -1.11406,-1.98441l20.97661,-3.15817" fill="#ae2e2e" stroke="none" stroke-width="0"/><path d="M199.75874,51.63404c0,0 -1.61213,-3.31634 -3.60593,-4.07803c-2.09619,-0.8008 -5.7008,-0.9427 -6.8618,-1.1411c-2.27838,-0.38937 -7.97181,-4.90722 -7.97181,-4.90722c0,0 4.05579,-1.40134 5.45394,-2.95394c1.49257,-1.65744 3.23678,-6.69677 3.23678,-6.69677c0,0 -9.67996,4.52344 -13.58614,2.75558c-4.01572,-1.81744 -10.18872,-13.51557 -10.18872,-13.51557c0,0 5.79335,-2.08715 7.78688,-4.36258c2.60366,-2.97186 7.03722,-4.48161 6.49923,-11.9438c-0.29809,-4.13466 -3.0086,-6.03487 -5.29489,-8.32394c-1.83998,-1.84222 -3.4052,-3.93631 -3.21704,-7.64967c0.17002,-3.35542 1.79204,-6.91883 3.70952,-10.13259c2.84129,-4.76211 2.48431,-9.8019 2.86012,-11.21431c0.62943,-2.3656 -0.10572,-2.94628 -0.10572,-2.94628" fill="none" stroke="#000000" stroke-width="3"/></g><g stroke="#000000" stroke-linecap="round"><path d="M296.13584,-7.16641c0,0 12.6412,7.27518 16.93838,18.20083c0.97103,2.46884 1.492,5.74951 1.45822,9.22811c-0.03657,3.76547 -0.72315,7.76284 -2.19261,11.2136c-3.18054,7.46896 -9.48694,12.69243 -10.38591,13.53038c-1.05638,0.98467 0.84717,-1.93206 -0.29808,-4.14304c-1.32353,-2.55519 -5.69316,-4.46372 -6.83351,-3.09972c-3.36301,4.02262 -6.08256,11.24416 -3.8642,16.18011c1.24371,2.76731 7.67594,5.0188 7.67594,5.0188c0,0 -3.69985,1.66463 -8.44339,3.24148c-1.90314,0.63266 -11.68595,2.00841 -17.66329,-1.1023c-6.2188,-3.23636 -8.6017,-10.97745 -8.6017,-10.97745" fill="#ae2e2e" stroke-width="0"/><path d="M296.36493,-7.16641c0,0 12.6412,7.27518 16.93838,18.20083c0.97103,2.46884 1.492,5.74951 1.45821,9.22811c-0.03657,3.76547 -0.72316,7.76284 -2.19261,11.2136c-3.18054,7.46896 -9.48694,12.69243 -10.3859,13.53038c-1.05638,0.98467 0.84716,-1.93206 -0.29809,-4.14304c-1.32353,-2.55519 -5.69315,-4.46372 -6.8335,-3.09972c-3.36301,4.02262 -6.08255,11.24416 -3.8642,16.18011c1.24371,2.76731 7.67593,5.0188 7.67593,5.0188c0,0 -3.30391,2.11087 -8.29672,3.97652c-1.73443,0.6481 -13.62918,0.72582 -19.78213,-2.47794c-6.06987,-3.1605 -6.41064,-9.59873 -6.41064,-9.59873" fill="none" stroke-width="3"/></g><path d="M283.62449,-61.59549c0,0 3.2781,3.73118 8.11718,7.52027c5.3105,4.15823 13.52205,8.46512 16.34129,9.85871c6.20732,3.06837 18.95233,4.23617 18.95233,4.23617c0,0 -6.34093,18.16734 -11.80401,23.18038c-5.04297,4.62754 -21.87127,9.03248 -21.87127,9.03248" fill="#ae2e2e" stroke="#000000" stroke-width="3" stroke-linecap="round"/><g stroke="#000000" stroke-linecap="butt"><path d="M299.20158,-25.63757c0.54604,4.94895 1.79071,11.74274 6.39239,13.96957c3.43031,1.65999 7.69027,1.73894 7.69027,1.73894c0,0 -5.51718,13.22488 -11.65905,14.26551c-5.60528,0.94969 -21.87844,-4.52212 -22.49288,-4.8474" fill="#ae2e2e" stroke-width="0"/><path d="M302.54534,-16.89359c0.95307,8.63811 10.89186,6.69168 10.89186,6.69168c0,0 -5.51721,13.22488 -11.65906,14.2655" fill="none" stroke-width="3"/></g><path d="M193.55999,-48.46415c0,0 0.9018,-2.82252 3.08154,-6.18619c1.31763,-2.03329 3.10223,-4.26432 5.43688,-6.18916c2.06276,-1.70066 4.68784,-3.21771 7.55732,-4.38595c3.21081,-1.3072 6.72767,-2.1777 10.10515,-2.38011c3.13759,-0.18805 8.07867,0.88932 12.29869,2.03584c4.38241,1.19062 7.98723,2.45583 7.98723,2.45583c0,0 4.75597,-2.27442 11.21302,-3.8198c5.0653,-1.21227 11.17738,-1.97591 16.86155,-0.84095c2.33699,0.46661 4.63185,1.48387 6.76482,2.81603c2.40197,1.50013 4.59864,3.39959 6.41899,5.36172c1.99969,2.15543 3.45695,4.3251 4.52427,6.54466" fill="#ae2e2e" stroke="#000000" stroke-width="0" stroke-linecap="butt"/><g stroke="#000000" stroke-linecap="butt"><path d="M180.05241,-21.54441c-0.2016,-3.54805 -4.59671,-5.85068 -7.18333,-9.72811c-1.32894,-1.99212 -3.6621,-4.95516 -3.69123,-7.88679c-0.04891,-4.92282 2.95335,-9.75711 2.95335,-9.75711c0,0 3.05853,5.56247 9.42067,4.72598c2.30136,-0.30257 7.3519,-7.48767 9.49929,-8.68557c3.27046,-1.82439 4.72206,10.68688 5.09129,10.88854" fill="#ae2e2e" stroke-width="0"/><path d="M174.53382,-19.86667c0,0 5.50147,-7.58579 1.03181,-9.46873c-13.81953,-5.82175 -3.89447,-20.97356 -3.89447,-20.97356c0,0 5.05939,10.4351 10.76716,5.69609c4.08036,-3.38784 7.02027,-9.17159 7.02027,-9.17159" fill="none" stroke-width="3"/></g><path d="M186.89875,-48.59967c0,0 1.00534,-3.44342 3.43537,-7.54704c1.46893,-2.48058 3.45841,-5.20241 6.06113,-7.55069c2.2996,-2.07479 5.22611,-3.92554 8.42506,-5.35077c3.57946,-1.59476 7.50014,-2.65675 11.26543,-2.9037c3.49785,-0.22941 9.00624,1.08497 13.7108,2.48371c4.88559,1.45254 8.9043,2.99607 8.9043,2.99607c0,0 5.30208,-2.77474 12.5005,-4.66007c5.64689,-1.47895 12.46077,-2.41057 18.79759,-1.02596c2.60531,0.56925 5.16367,1.8103 7.54156,3.43551c2.67777,1.83014 5.12667,4.14745 7.15603,6.54122c2.2293,2.62958 3.85387,5.27654 5.04374,7.98438" fill="none" stroke="#000000" stroke-width="3" stroke-linecap="butt"/></g><path d="M237.01659,52.40096c5.86333,-0.0317 18.54393,-1.55479 18.54393,-1.55479c0,0 15.42897,4.06208 21.32939,6.64998c4.71175,2.06655 10.93146,8.82205 10.93146,8.82205c0,0 0.91766,2.28838 -0.77454,2.69232c-8.47217,2.02237 -36.62344,8.41198 -51.12266,8.44007c-13.22962,0.02563 -42.88837,-9.68572 -42.88837,-9.68572l1.86739,-3.2187c0,0 3.05937,-5.09101 7.50421,-7.15326c5.16015,-2.39411 19.51678,-6.36492 19.51678,-6.36492c0,0 9.80283,1.40156 15.09243,1.37297z" fill="#ffdfc2" stroke="#0b0a12" stroke-width="3" stroke-linecap="round"/><g fill="#ffdfc2" stroke="#2c2c2c" stroke-width="0" stroke-linecap="butt"><path d="M286.11701,66.24755c0,0 6.48332,6.88943 8.86906,11.20209c2.39145,4.323 7.44386,14.70494 7.44386,14.70494c0,0 -3.87832,10.25942 -6.22218,14.69779c-0.30228,0.57241 -0.66305,1.19532 -1.0625,1.84659c-2.02371,0.16304 -4.02485,0.33424 -5.9799,0.5211c-10.15606,0.97071 -36.61282,3.54655 -49.35337,4.71498c-0.0261,-2.82368 -0.04893,-5.41135 -0.06788,-7.71444c-0.1809,-21.98578 -0.10428,-34.05924 -0.10428,-34.05924z"/><path d="M250.56624,72.16136c0,0 -2.47857,10.99785 -2.29162,32.52612c0.02169,2.49767 0.00826,5.33898 -0.03528,8.4606c-4.66621,0.44096 -8.71143,0.81723 -11.49624,1.06463c-20.42532,1.81458 -20.65246,2.07214 -38.85223,2.26899c-2.10636,0.02278 -4.2824,-0.15279 -6.47193,-0.3498c-2.03999,-2.62757 -4.94024,-6.53426 -6.38999,-9.27954c-2.34386,-4.43837 -5.51457,-14.69779 -5.51457,-14.69779c0,0 4.20327,-9.24976 6.59472,-13.57276c2.38574,-4.31266 8.88466,-14.54124 8.88466,-14.54124z"/></g><g stroke-linecap="round"><g stroke="#000000"><path d="M215.38071,52.30313c3.54583,-0.54357 5.96062,-0.91274 5.96062,-0.91274l-0.30497,-24.07863h34.91904l-0.30497,24.07863c0,0 2.67462,0.41971 6.56421,1.03008" fill="#ffdfc2" stroke-width="0"/><path d="M221.34132,51.39038l-0.30497,-24.07863h34.91904l-0.30497,24.07863" fill="none" stroke-width="3"/></g><path d="M295.44933,92.92888c0,0 -38.48948,2.9146 -57.12621,2.9146c-17.85986,0 -52.46284,-2.9146 -52.46284,-2.9146" fill="none" stroke="#0b0a12" stroke-width="3"/></g><path d="M193.0358,67.76487l1.86739,-3.2187c0,0 3.05937,-5.09101 7.50421,-7.15326c5.16015,-2.39411 19.51678,-6.36492 19.51678,-6.36492c0,0 9.80283,1.40156 15.09243,1.37297h-0.00002c5.86333,-0.0317 18.54393,-1.55479 18.54393,-1.55479c0,0 15.42897,4.06208 21.32939,6.64998c4.71175,2.06655 10.93146,8.82205 10.93146,8.82205" fill="none" stroke="#0b0a12" stroke-width="3" stroke-linecap="round"/><g stroke="#000000" stroke-linecap="round"><path d="M217.22187,58.23576l4.11946,-6.84537l-0.30497,-24.07863h34.91904l-0.30497,24.07863l6.97337,4.91698" fill="#ffdfc2" stroke-width="0"/><path d="M221.34132,51.39038l-0.30497,-24.07863h34.91904l-0.30497,24.07863" fill="none" stroke-width="3"/></g><path d="M253.3009,76.43851c0,0 4.5593,-13.41568 4.67063,-16.28191c0.11706,-3.01383 -0.26047,-9.27432 -0.26047,-9.27432c0,0 4.85577,0.22223 6.68565,0.90844c1.44867,0.54325 3.4196,2.88104 3.4196,2.88104c0,0 1.97254,5.36553 3.03378,7.87744c1.02459,2.42515 3.53791,15.66427 3.53791,15.66427z" fill="#000000" stroke="#0b0a12" stroke-width="0" stroke-linecap="round"/><path d="M255.76459,61.01711c0.23645,-1.54302 1.67127,-4.72884 1.67127,-4.72884c0,0 5.52599,-0.76169 8.23794,-0.80948c2.71197,-0.04779 8.03379,0.52275 8.03379,0.52275c0,0 0.35167,3.08038 0.13522,4.49287c-0.24501,1.59885 -1.53024,4.61063 -1.53024,4.61063c0,0 -5.68783,0.70918 -8.43284,0.75754c-2.67721,0.04717 -7.8389,-0.47082 -7.8389,-0.47082z" fill="#b1b1b1" stroke="#4c4c4c" stroke-width="1.5" stroke-linecap="butt"/><path d="M241.40684,70.39706c0,0 1.10236,8.17252 1.38789,11.82984c0.25064,3.21049 -0.52042,8.94876 -0.52042,8.94876" fill="none" stroke="#000000" stroke-width="2.5" stroke-linecap="round"/><g><path d="M185.7097,-9.48984c-0.41722,-29.37906 23.06102,-36.61984 52.44009,-37.03705c29.37907,-0.41722 53.53374,6.14712 53.95095,35.52619c0.41722,29.37907 -23.061,53.53374 -52.44009,53.95095c-29.37907,0.41722 -53.53374,-23.06102 -53.95095,-52.44008z" fill="#ffdfc2" stroke="#000000" stroke-width="3" stroke-linecap="butt"/><path d="M194.14148,18.84898c0,0 6.1636,-4.46381 10.714,-4.61681c16.58523,-0.55761 15.49924,9.48537 15.49924,9.48537c0,0 -5.5654,0.05862 -7.4448,0.30651c-1.21236,0.15992 -2.73607,1.03636 -2.73607,1.03636c0,0 2.06417,8.25504 2.49905,9.82542c0.17441,0.62978 -5.25668,-2.47274 -5.25668,-2.47274" fill="#000000" stroke="#000000" stroke-width="3" stroke-linecap="round"/><path d="M264.80637,35.57014c0,0 -5.01876,1.95698 -4.79062,1.44247c0.56886,-1.2829 3.37025,-8.05469 3.37025,-8.05469c0,0 -1.18736,-0.93916 -2.19998,-1.22853c-1.56976,-0.44861 -6.38728,2.69104 -6.38728,2.69104c0,0 -0.6429,-8.21492 2.19637,-11.66361c1.36656,-1.65989 6.56858,-2.08907 11.13654,-1.25395c3.85719,0.70519 11.07882,7.61329 11.07882,7.61329" fill="#000000" stroke="#000000" stroke-width="3" stroke-linecap="round"/><path d="M189.0842,-3.81915c0.31239,-3.59837 1.93607,-10.17414 5.53413,-14.4426c4.63219,-5.49528 12.13295,-8.32282 20.0671,-8.23169c14.09698,0.1619 19.72564,19.20668 19.7718,23.19542c0.08325,7.19279 -13.66536,9.7738 -23.62577,9.65939c-9.9604,-0.11441 -22.36413,-3.07498 -21.74725,-10.18052z" fill="#000000" stroke="#000000" stroke-width="3" stroke-linecap="round"/><path d="M287.37038,-4.60779c0.79877,7.08545 -11.17784,10.39225 -20.85865,10.78558c-9.68083,0.39333 -23.12021,-1.80157 -23.24074,-8.99384c-0.06684,-3.98844 4.87222,-23.18328 18.57351,-23.73995c7.08196,-0.28775 14.77615,2.39153 19.37051,7.14861c4.29422,4.44629 5.70838,10.83436 6.1554,14.79962z" fill="#000000" stroke="#000000" stroke-width="3" stroke-linecap="round"/><g fill="none" stroke-width="3"><path d="M267.96304,-20.73508l-16.43663,22.83786" stroke="#ffe200" stroke-linecap="round"/><path d="M251.32422,-20.36736l16.84096,22.10237" stroke="#00ff31" stroke-linecap="round"/><path d="M251.20997,-20.51736l16.80848,-0.2947l0.26107,22.69711l-16.80848,0.2947z" stroke="#ff0000" stroke-linecap="butt"/></g><path d="M218.04486,-13.87946l6.74582,-9.09328l3.23864,4.53537c0,0 -3.47382,4.68267 -4.72657,6.37136c-0.82674,1.11441 -2.05848,2.7748 -2.05848,2.7748l6.99319,8.90521l-3.13278,4.64682l-6.95274,-8.85374l-6.74582,9.09332l-3.23865,-4.53538l6.78502,-9.14617l-6.99316,-8.90521l3.13276,-4.64681z" fill="#ff6a00" stroke="#000000" stroke-width="0" stroke-linecap="round"/><path d="M254.96099,24.47039c0,0 -1.80796,1.33422 -4.57169,1.03474c-2.76372,-0.29947 -5.18497,-2.09199 -5.18497,-2.09199c0,0 -3.3017,3.20783 -7.29436,3.30669c-3.99266,0.09887 -7.50529,-3.05303 -7.50529,-3.05303c0,0 -3.89365,1.90456 -5.55799,2.06328c-1.66433,0.15872 -4.28489,-1.05725 -4.28489,-1.05725" fill="none" stroke="#000000" stroke-width="3" stroke-linecap="round"/></g><g stroke="#000000" stroke-linecap="round"><g><path d="M219.87017,-50.17519c0,0 1.22489,3.94062 -0.85214,7.78311c-3.04009,5.62416 -10.16806,12.03342 -13.95817,13.77025c-4.38302,2.00857 -22.40236,6.16662 -23.2237,-0.22487c-0.69446,-5.4041 15.50142,-21.39302 15.50142,-21.39302" fill="#ae2e2e" stroke-width="0"/><path d="M247.80031,-52.62642c6.09428,2.4306 6.61755,25.76608 5.02827,29.45548c-0.93669,2.17445 -3.03822,6.25442 -6.76971,8.17162c-2.82752,1.45275 -7.62496,1.07281 -7.62496,1.07281c0,0 7.35513,-7.83387 1.38761,-12.48853c-5.96752,-4.65467 -15.74989,-0.49347 -19.0797,-3.46904c-3.3298,-2.97558 -2.42833,-24.82377 -2.42833,-24.82377" fill="#ae2e2e" stroke-width="0"/><g><path d="M290.10604,-37.60234c0,0 -0.53438,4.14679 -4.14814,5.18399c-3.9769,1.14141 -13.35885,-5.7316 -17.59681,-7.67368c-8.23952,-3.77582 -21.22634,1.53849 -21.22634,1.53849l-4.05149,-15.23638l38.36498,-2.41011z" fill="#ae2e2e" stroke-width="0"/><g stroke-width="3"><path d="M247.80031,-38.90357c6.09428,2.4306 6.61755,12.04322 5.02827,15.73262c-0.93669,2.17445 -3.03822,6.25442 -6.76971,8.17162c-2.82752,1.45275 -7.62496,1.07281 -7.62496,1.07281c0,0 7.35513,-7.83387 1.38761,-12.48853c-5.96752,-4.65467 -15.74989,-0.49347 -19.0797,-3.46904c-3.3298,-2.97558 -2.42833,-11.10091 -2.42833,-11.10091" fill="#ae2e2e"/><path d="M217.69196,-41.02662c0,0 -6.25254,9.48133 -12.63208,12.40479c-8.08894,3.70681 -22.75209,1.47135 -22.75209,1.47135" fill="#ae2e2e"/><path d="M290.54168,-37.90447c0,0 -0.53438,4.14678 -4.14814,5.18398c-3.9769,1.14141 -13.35885,-5.7316 -17.59681,-7.67366c-8.23952,-3.77582 -21.22634,1.53849 -21.22634,1.53849" fill="none"/></g></g></g><path d="M285.56666,29.55699c0,0 -0.56536,3.94425 -0.94949,5.81807c-0.41544,2.02651 0.2472,6.66566 0.2472,6.66566c0,0 -7.57574,-5.00867 -8.41208,-8.1379c-0.679,-2.54055 -0.53756,-6.00673 -1.08012,-5.53274c-0.81701,0.71374 -2.71005,1.59919 -3.33445,3.03856c-1.01504,2.33988 -0.54334,5.32568 -0.54334,5.32568c0,0 -4.1651,-4.55455 -5.07751,-6.50157c-1.08286,-2.31074 -0.9963,-6.4595 -0.9963,-6.4595c0,0 0.14915,-7.47751 3.36632,-10.94352c4.60962,-4.96616 18.68969,-12.18819 21.649,-16.00665c2.95931,-3.81845 -1.9583,-7.1171 0.34584,-12.37387c2.30415,-5.25677 9.86064,-10.91154 9.86064,-10.91154" fill="#ae2e2e" stroke-width="3"/><g><path d="M180.13979,-9.69473c0.94087,-0.34483 -0.94819,-21.71066 0.71559,-21.87166c3.23679,-0.31322 9.79568,-0.14186 10.97579,1.04614c2.18028,2.19485 3.87357,5.69107 4.46782,10.14752c1.31693,9.87587 -0.883,23.29844 -1.83322,29.45135c-0.44143,2.85842 -0.47319,5.51906 0.26025,7.73337c0.76191,2.30025 2.34958,4.11884 5.16155,5.17722c4.24077,1.59615 16.4055,1.7385 16.4055,1.7385c0,0 3.8964,15.19425 -4.66887,17.55554c-3.9207,1.08087 -11.89496,-5.37913 -16.00392,-11.65136c-0.41198,-0.62888 -8.2365,-17.22314 -8.56278,-17.84045" fill="#ae2e2e" stroke-width="0"/><path d="M211.28568,41.69097c8.56526,-2.36129 5.00739,-17.96329 5.00739,-17.96329c0,0 -12.16474,-0.14236 -16.4055,-1.7385c-4.99432,-1.87977 -6.78051,-5.33652 -6.78051,-5.33652c0,0 9.11149,-35.65039 0.19406,-47.69535" fill="none" stroke-width="3"/></g></g><path d="M238.06406,266.15088h8.34146" fill="none" stroke="#0b0a12" stroke-width="3" stroke-linecap="round"/><path d="M171.74558,283.03818c0,0 -2.04722,-5.87043 -2.04722,-8.92776c0,-3.22932 2.04722,-9.96044 2.04722,-9.96044c0,0 44.03459,10.20247 67.78253,10.20247c23.43968,0 69.86264,-8.70226 69.86264,-8.70226c0,0 1.71891,6.47995 1.81439,9.85177c0.10073,3.55727 -1.22492,10.96528 -1.22492,10.96528c0,0 -47.01244,6.21517 -70.45211,6.21517c-23.74794,0 -67.78253,-9.64423 -67.78253,-9.64423z" fill="#11003d" stroke="#0b0a12" stroke-width="3" stroke-linecap="butt"/><path d="M185.74858,267.1744l-1.44251,18.28594" fill="none" stroke="#0b0a12" stroke-width="3" stroke-linecap="round"/><path d="M228.06232,273.46666l-0.96167,17.11876" fill="none" stroke="#0b0a12" stroke-width="3" stroke-linecap="round"/><path d="M298.47784,269.12588l1.44251,18.28596" data-paper-data="{&quot;index&quot;:null}" fill="none" stroke="#0b0a12" stroke-width="3" stroke-linecap="round"/><path d="M257.36618,291.319l-1.12196,-17.11876" data-paper-data="{&quot;index&quot;:null}" fill="none" stroke="#0b0a12" stroke-width="3" stroke-linecap="round"/><path d="M241.98511,92.64453l-0.1004,-10.82975" fill="none" stroke="#787878" stroke-width="2.5" stroke-linecap="round"/><g stroke="#0b0a12" stroke-linecap="butt"><path d="M240.68286,121.96568c0,0 -17.34191,1.38997 -25.46054,0.87018c-7.44343,-0.47656 -21.40174,-3.87051 -21.40174,-3.87051l-8.7341,-12.11297l-3.53437,-21.49024c0,0 16.81194,-6.81607 29.77779,-10.508c12.00486,-3.41829 31.10704,5.56866 31.10704,5.56866z" fill="#000000" stroke-width="0"/><path d="M242.31722,80.34502c0,0 19.21083,-9.01046 31.06642,-5.36308c11.85559,3.64739 25.8447,10.2223 25.8447,10.2223l-3.42298,21.49024l-8.82567,12.11297c0,0 -13.04577,3.33517 -20.25934,3.79681c-8.26925,0.52921 -26.623,-0.79649 -26.623,-0.79649z" data-paper-data="{&quot;index&quot;:null}" fill="#000000" stroke-width="0"/><path d="M240.78595,121.96568c0,0 -17.34191,1.38997 -25.46054,0.87018c-7.44343,-0.47656 -21.40174,-3.87051 -21.40174,-3.87051l-8.7341,-12.11297l-3.53437,-21.49024c0,0 16.81194,-6.81607 29.77779,-10.508c12.00486,-3.41829 31.10704,5.56866 31.10704,5.56866" fill="none" stroke-width="2.5"/><path d="M242.42031,80.34502c0,0 19.21083,-9.01046 31.06642,-5.36308c11.85559,3.64739 25.8447,10.2223 25.8447,10.2223l-3.42298,21.49024l-8.82567,12.11297c0,0 -13.04577,3.33517 -20.25934,3.79681c-8.26925,0.52921 -26.623,-0.79649 -26.623,-0.79649" data-paper-data="{&quot;index&quot;:null}" fill="none" stroke-width="2.5"/></g><g><path d="M282.95634,60.00623c0,0 1.3308,0.97036 2.84956,2.5188c1.25747,1.28204 2.84822,3.73623 4.14687,5.58818c2.79498,3.98578 4.57243,8.79177 5.77169,10.95966c2.34469,4.23847 6.32308,13.0817 6.32308,13.0817c0,0 -3.27893,9.6133 -5.58301,13.97633c-2.41061,4.56476 -8.57549,12.83443 -8.57549,12.83443c0,0 16.87803,63.51333 20.53972,90.95034c3.02639,22.67675 -0.11012,62.1287 -0.11012,62.1287c0,0 -42.27017,3.85901 -66.98294,2.60009c-22.27914,-1.13495 -69.14867,-8.54876 -69.14867,-8.54876c0,0 -1.84175,-34.64725 1.19457,-55.43929c3.90483,-26.73941 20.29127,-91.69106 20.29127,-91.69106c0,0 -6.2687,-7.61521 -8.64392,-12.11297c-2.34386,-4.43837 -5.51457,-14.69779 -5.51457,-14.69779c0,0 11.5497,-40.58444 41.04963,-40.17327c0,0 1.60986,13.48384 4.1395,19.67808c1.53633,3.76197 7.21386,17.66496 10.78479,29.5709c2.52251,8.41038 3.46953,16.45337 3.46953,16.45337c0,0 4.05375,-22.78086 12.14154,-33.17936c0,0 10.50673,-10.12876 15.81101,-14.20776c5.31469,-4.08701 16.04596,-10.29032 16.04596,-10.29032z" fill="url(#color-9)" stroke="#0b0a12" stroke-width="0" stroke-linecap="round"/><path d="M238.70482,118.66636c0,0 0.98239,47.78828 1.4646,71.245c0.47051,22.88764 1.3944,83.68943 1.3944,83.68943" fill="none" stroke="#0b0a12" stroke-width="3" stroke-linecap="round"/><path d="M234.98949,133.00778h8.34146" fill="none" stroke="#0b0a12" stroke-width="3" stroke-linecap="round"/><path d="M234.98949,148.28048h8.34146" fill="none" stroke="#0b0a12" stroke-width="3" stroke-linecap="round"/><path d="M244.21847,163.24906h-8.34146" fill="none" stroke="#0b0a12" stroke-width="3" stroke-linecap="round"/><path d="M244.70938,179.08746h-8.34146" fill="none" stroke="#0b0a12" stroke-width="3" stroke-linecap="round"/><path d="M236.13493,194.73601h8.34146" fill="none" stroke="#0b0a12" stroke-width="3" stroke-linecap="round"/><path d="M245.29457,210.29156h-8.34146" fill="none" stroke="#0b0a12" stroke-width="3" stroke-linecap="round"/><path d="M246.54911,225.57437h-8.34146" fill="none" stroke="#0b0a12" stroke-width="3" stroke-linecap="round"/><path d="M238.044,241.08551h8.34146" fill="none" stroke="#0b0a12" stroke-width="3" stroke-linecap="round"/><path d="M246.1821,253.70864h-8.34146" fill="none" stroke="#0b0a12" stroke-width="3" stroke-linecap="round"/><path d="M234.52717,129.86991c-0.05305,-3.70256 4.39157,-12.19879 4.39157,-12.19879c0,0 4.96556,7.39398 5.04217,12.74096c0.0766,5.34699 -1.14856,7.58168 -4.77108,7.37349c-3.62252,-0.20819 -4.60961,-4.2131 -4.66265,-7.91566zM239.23223,136.30563c3.73988,-0.00615 3.50131,-3.26571 3.50131,-3.26571l-6.62565,-0.42408c0,0 0.69816,3.69378 3.12435,3.68979z" fill="#757575" stroke="#0b0a12" stroke-width="1" stroke-linecap="butt"/><path d="M296.36528,92.92888c0,0 -30.61974,2.31867 -50.4619,2.81983" fill="none" stroke="#401e53" stroke-width="3" stroke-linecap="round"/><path d="M231.9451,95.79415c-18.58397,-0.38288 -48.05565,-2.86527 -48.05565,-2.86527" fill="none" stroke="#401e53" stroke-width="3" stroke-linecap="round"/><g fill="none" stroke="#0b0a12" stroke-width="3" stroke-linecap="round"><path d="M237.11672,109.1136l-8.14829,1.78475"/><path d="M225.70807,99.81133l7.72785,-3.14013"/><path d="M218.56692,82.85605l8.01014,-2.32761"/><path d="M221.67447,62.76488l-8.3226,0.56063"/><path d="M242.70481,109.34889l8.14829,1.78475" data-paper-data="{&quot;index&quot;:null}"/><path d="M254.11346,100.04663l-7.72784,-3.14013" data-paper-data="{&quot;index&quot;:null}"/><path d="M256.05574,80.67266l6.0009,5.79389" data-paper-data="{&quot;index&quot;:null}"/><path d="M281.24697,71.62041l-7.10118,-4.37644" data-paper-data="{&quot;index&quot;:null}"/></g><path d="M289.95277,67.84049c2.79498,3.98578 4.57243,8.79177 5.77169,10.95966c2.34469,4.23847 6.32308,13.0817 6.32308,13.0817c0,0 -3.27893,9.6133 -5.58301,13.97633c-2.41061,4.56476 -8.57549,12.83443 -8.57549,12.83443c0,0 16.73788,63.52159 20.59687,90.95233c3.18801,22.66117 0.93098,62.07316 0.93098,62.07316c0,0 -43.36843,3.59106 -68.0812,2.33214c-22.27914,-1.13495 -68.74685,-3.69992 -68.74685,-3.69992c0,0 -1.87825,-37.67277 0.82267,-61.53892c2.70092,-23.86616 7.10209,-52.71805 14.54137,-74.22226c3.31675,-9.58751 5.71998,-15.89651 5.71998,-15.89651c0,0 -6.2687,-7.61521 -8.64392,-12.11297c-2.34386,-4.43837 -5.51457,-14.69779 -5.51457,-14.69779c0,0 11.5497,-40.58444 41.04963,-40.17327c0,0 1.60986,13.48384 4.1395,19.67808c1.53633,3.76197 7.21385,17.66496 10.78479,29.5709c2.52251,8.41038 3.46954,16.45337 3.46954,16.45337c0,0 4.05374,-22.78086 12.14154,-33.17936c8.08779,-10.3985 31.08112,-24.15324 31.08112,-24.15324c0,0 2.72546,1.68754 4.03037,2.99074c1.28557,1.28389 3.74191,4.77141 3.74191,4.77141z" fill="none" stroke="#0b0a12" stroke-width="3" stroke-linecap="round"/></g><path d="M242.19473,80.05709c0.25064,3.21049 0.07958,11.11857 0.07958,11.11857" fill="none" stroke="#0b0a12" stroke-width="2.5" stroke-linecap="round"/></g></g></svg>