<svg version="1.1" xmlns="http://www.w3.org/2000/svg" xmlns:xlink="http://www.w3.org/1999/xlink" width="286.59686" height="522.09775" viewBox="0,0,286.59686,522.09775"><defs><linearGradient x1="208.04146" y1="173.69348" x2="208.04146" y2="314.49555" gradientUnits="userSpaceOnUse" id="color-1"><stop offset="0" stop-color="#6a56c2"/><stop offset="1" stop-color="#94808c"/></linearGradient><linearGradient x1="275.65817" y1="168.69348" x2="275.65817" y2="309.49555" gradientUnits="userSpaceOnUse" id="color-2"><stop offset="0" stop-color="#6a56c2"/><stop offset="1" stop-color="#94808c"/></linearGradient><linearGradient x1="297.7368" y1="65.07367" x2="297.7368" y2="110.74451" gradientUnits="userSpaceOnUse" id="color-3"><stop offset="0" stop-color="#ffc2ee"/><stop offset="1" stop-color="#ffdfc2"/></linearGradient><linearGradient x1="306.83127" y1="72.39056" x2="239.15939" y2="70.45811" gradientUnits="userSpaceOnUse" id="color-4"><stop offset="0" stop-color="#e2c4c2"/><stop offset="1" stop-color="#6a56c2"/></linearGradient><linearGradient x1="171.61102" y1="72.39056" x2="239.28293" y2="70.45811" gradientUnits="userSpaceOnUse" id="color-5"><stop offset="0" stop-color="#e2c4c2"/><stop offset="1" stop-color="#6a56c2"/></linearGradient><linearGradient x1="182.55123" y1="65.07367" x2="182.55123" y2="110.74451" gradientUnits="userSpaceOnUse" id="color-6"><stop offset="0" stop-color="#ffc2ee"/><stop offset="1" stop-color="#ffdfc2"/></linearGradient><radialGradient cx="218.70521" cy="-12.32985" r="15.92569" gradientUnits="userSpaceOnUse" id="color-7"><stop offset="0" stop-color="#ff6a00"/><stop offset="1" stop-color="#ff6a00" stop-opacity="0"/></radialGradient><linearGradient x1="204.9115" y1="367.06843" x2="204.9115" y2="416.93163" gradientUnits="userSpaceOnUse" id="color-8"><stop offset="0" stop-color="#050308" stop-opacity="0"/><stop offset="1" stop-color="#050308"/></linearGradient><linearGradient x1="204.9115" y1="367.06843" x2="204.9115" y2="416.93163" gradientUnits="userSpaceOnUse" id="color-9"><stop offset="0" stop-color="#050308" stop-opacity="0"/><stop offset="1" stop-color="#050308"/></linearGradient><linearGradient x1="280.17135" y1="367.06843" x2="280.17135" y2="416.93163" gradientUnits="userSpaceOnUse" id="color-10"><stop offset="0" stop-color="#050308" stop-opacity="0"/><stop offset="1" stop-color="#050308"/></linearGradient><linearGradient x1="280.17135" y1="367.06843" x2="280.17135" y2="416.93163" gradientUnits="userSpaceOnUse" id="color-11"><stop offset="0" stop-color="#050308" stop-opacity="0"/><stop offset="1" stop-color="#050308"/></linearGradient><linearGradient x1="200.45726" y1="-43.10942" x2="200.45726" y2="-18.41136" gradientUnits="userSpaceOnUse" id="color-12"><stop offset="0" stop-color="#ae2e2e"/><stop offset="1" stop-color="#c44444"/></linearGradient><linearGradient x1="231.2872" y1="-45.64245" x2="231.2872" y2="-22.56388" gradientUnits="userSpaceOnUse" id="color-13"><stop offset="0" stop-color="#ae2e2e"/><stop offset="1" stop-color="#c44444"/></linearGradient><linearGradient x1="276.83897" y1="-43.91423" x2="276.83897" y2="-19.38483" gradientUnits="userSpaceOnUse" id="color-14"><stop offset="0" stop-color="#ae2e2e"/><stop offset="1" stop-color="#c44444"/></linearGradient><linearGradient x1="255.52445" y1="-43.66667" x2="255.52445" y2="-23.80506" gradientUnits="userSpaceOnUse" id="color-15"><stop offset="0" stop-color="#ae2e2e"/><stop offset="1" stop-color="#c44444"/></linearGradient></defs><g transform="translate(-97.88076,80.78095)"><g data-paper-data="{&quot;isPaintingLayer&quot;:true}" fill-rule="nonzero" stroke-linejoin="miter" stroke-miterlimit="10" stroke-dasharray="" stroke-dashoffset="0" style="mix-blend-mode: normal"><g data-paper-data="{&quot;index&quot;:null}" stroke="#000000" stroke-width="3"><path d="M236.43327,235.97416l1.51215,126.48057l-59.80791,-12.36571l0.04676,-128.43636z" data-paper-data="{&quot;index&quot;:null}" fill="url(#color-1)" stroke-linecap="butt"/><path d="M178.69538,237.89863l58.67647,32.82716" fill="none" stroke-linecap="round"/><path d="M236.41739,306.47189l-58.31024,-38.28241" fill="none" stroke-linecap="round"/><path d="M178.6954,268.69673l57.20588,-28.18932" data-paper-data="{&quot;index&quot;:null}" fill="none" stroke-linecap="round"/><path d="M178.9895,309.51628l57.20588,-38.86295" data-paper-data="{&quot;index&quot;:null}" fill="none" stroke-linecap="round"/><g fill="none" stroke-linecap="round"><path d="M178.69538,309.95746l58.67647,32.82716"/><path d="M236.4174,378.53072l-58.31024,-38.28242"/><path d="M235.90128,307.27212l-57.20588,33.48345" data-paper-data="{&quot;index&quot;:null}"/><path d="M237.07775,341.53568l-58.08824,40.03942" data-paper-data="{&quot;index&quot;:null}"/></g></g><g stroke="#000000" stroke-width="3"><path d="M305.51536,216.65266l0.04676,128.43636l-59.80791,12.36571l1.51215,-126.48057z" data-paper-data="{&quot;index&quot;:null}" fill="url(#color-2)" stroke-linecap="butt"/><path d="M305.00425,232.89863l-58.67647,32.82716" fill="none" stroke-linecap="round"/><path d="M247.28224,301.47189l58.31024,-38.28242" fill="none" stroke-linecap="round"/><path d="M247.79836,235.50741l57.20589,28.18933" data-paper-data="{&quot;index&quot;:null}" fill="none" stroke-linecap="round"/><path d="M304.71012,304.51627l-57.20588,-38.86295" data-paper-data="{&quot;index&quot;:null}" fill="none" stroke-linecap="round"/><g fill="none" stroke-linecap="round"><path d="M305.00424,304.95745l-58.67647,32.82716"/><path d="M305.59246,335.2483l-58.31024,38.28241"/><path d="M247.79836,302.27212l57.20588,33.48344" data-paper-data="{&quot;index&quot;:null}"/><path d="M246.62189,336.53567l58.08824,40.03943" data-paper-data="{&quot;index&quot;:null}"/></g></g><g stroke="#000000" stroke-linecap="round"><path d="M279.69114,61.64464l26.46226,3.42903l65.08589,172.80617l-32.30129,10.99141c0,0 -50.30132,-134.02316 -60.01034,-159.89195z" data-paper-data="{&quot;index&quot;:null}" fill="#ffdfc2" stroke-width="3"/><path d="M306.15344,65.07367l17.26755,47.00971l-31.10497,12.22492l-15.10706,-38.454z" data-paper-data="{&quot;index&quot;:null}" fill="url(#color-3)" stroke-width="0"/><path d="M306.15344,65.07367l65.08589,172.80617l-32.30129,10.99141c0,0 -50.30132,-134.02316 -60.01034,-159.89195" data-paper-data="{&quot;index&quot;:null}" fill="none" stroke-width="3"/></g><g stroke="#000000" stroke-linecap="butt"><g><g><path d="M185.37278,-28.88736c0,-0.13292 0.39809,-5.30206 1.25149,-9.45396c0.66348,-3.22796 1.83059,-5.68525 1.83059,-5.68525c0,0 33.33314,-7.26361 50.59797,-7.30792c16.74826,-0.04299 52.46069,3.64327 52.46069,3.64327c0,0 2.77155,7.36332 4.01794,18.58906c1.82652,16.45075 2.52967,40.74414 0.58909,58.59501c-1.73952,16.00134 -30.84808,46.08197 -58.73531,46.26665c-27.20088,0.18013 -47.74295,-29.15475 -48.98293,-43.7464c-0.78727,-9.26434 -2.74607,-18.63965 -4.12522,-27.12744c-2.45736,-15.12349 1.09568,-26.39952 1.09568,-33.77302z" fill="#ae2e2e" stroke-width="3"/><path d="M296.14341,-27.19951c0.15458,10.29764 0.74881,47.82338 -0.21534,56.69234c-1.73952,16.00134 -30.84808,46.08197 -58.73531,46.26665c-27.20088,0.18013 -47.74295,-29.15475 -48.98293,-43.7464c-0.78727,-9.26434 -2.56491,-47.74536 -3.94406,-56.23314l4.22857,-3.85312c0,0 35.99549,14.82721 50.5986,14.43831c18.79877,-0.50064 57.05047,-13.56464 57.05047,-13.56464z" fill="#ad2222" stroke-width="0"/><path d="M297.04921,-0.13305c0.15458,10.29764 -0.15698,20.75692 -1.12113,29.62588c-1.73952,16.00134 -30.84808,46.08197 -58.73531,46.26665c-27.20088,0.18013 -47.74295,-29.15475 -48.98293,-43.7464c-0.78727,-9.26434 -2.74607,-18.63965 -4.12522,-27.12744z" fill="#991111" stroke-width="0"/><path d="M187.58231,-41.81981c0,0 1.07325,-3.55987 3.60525,-7.78445c1.53056,-2.55371 3.59414,-5.3503 6.2759,-7.75029c2.36943,-2.12048 5.37316,-3.99935 8.64773,-5.43258c3.66409,-1.60371 7.6673,-2.64946 11.5005,-2.85141c3.56094,-0.18762 9.14397,1.25631 13.90821,2.77618c4.94757,1.57835 9.01213,3.23863 9.01213,3.23863c0,0 5.43345,-2.80371 12.78254,-4.65675c5.76508,-1.45363 12.70899,-2.32226 19.13355,-0.79345c2.64139,0.62854 5.22512,1.95372 7.61964,3.67507c2.69649,1.93842 5.15302,4.37923 7.18174,6.89333c2.22858,2.76179 3.84187,5.53287 5.01212,8.36087" fill="#ae2e2e" stroke-width="0"/><path d="M237.19278,75.75947c-15.68637,0.10388 -29.15824,-9.60796 -37.9908,-20.64737c19.01108,-2.04724 25.16493,10.87744 40.18801,10.16144c11.15429,-0.53161 30.84915,-15.02629 45.0428,-14.72257c-11.37561,12.94914 -29.55344,25.09137 -47.24,25.2085z" fill="#5e0303" stroke-width="0"/><path d="M187.58231,-41.81981c0,0 1.07325,-3.55987 3.60525,-7.78445c1.53056,-2.55371 3.59413,-5.3503 6.2759,-7.75029c2.36943,-2.12048 5.37316,-3.99935 8.64773,-5.43258c3.66409,-1.60371 7.66731,-2.64946 11.50051,-2.85141c3.56094,-0.18762 9.14396,1.25631 13.9082,2.77618c4.94757,1.57835 9.01213,3.23863 9.01213,3.23863c0,0 5.43346,-2.80371 12.78255,-4.65675c5.76507,-1.45363 12.70898,-2.32226 19.13355,-0.79345c2.64139,0.62854 5.22512,1.95372 7.61964,3.67507c2.69649,1.93842 5.15302,4.37923 7.18174,6.89333c2.22858,2.76179 3.84186,5.53287 5.01212,8.36087" fill="none" stroke-width="3"/><path d="M298.67072,15.96855c-0.37189,9.61063 -4.16941,26.21789 -16.49392,35.64808c-10.23364,7.83035 -28.32317,22.21919 -40.80739,22.20677c-14.60335,-0.01452 -33.78243,-11.53693 -43.92166,-21.52887c-7.95985,-7.84422 -8.01136,-26.30084 -9.07529,-32.84482c-3.43795,-21.14601 32.4254,5.0117 53.82795,4.06085z" fill="#5e0303" stroke-width="0"/><path d="M298.67072,15.96855c-0.37189,9.61063 -2.37682,23.34975 -14.70133,32.77995c-10.23364,7.83035 -29.6681,12.32937 -42.15233,12.31695c-14.60335,-0.01452 -31.32037,-0.56956 -41.4596,-10.5615c-7.95985,-7.84422 -10.92107,-24.51025 -11.985,-31.05424c-3.43795,-21.14601 32.4254,5.0117 53.82795,4.06085z" fill="#660404" stroke-width="0"/><path d="M298.67072,15.96855c-1.3255,34.25387 -105.32524,34.069 -110.29826,3.48116c-0.81475,-5.01132 -1.07369,-7.24427 -1.82821,-11.88782c0,0 36.94765,12.30456 55.32162,11.48826c19.24091,-0.85482 56.7349,-12.01286 56.7349,-12.01286z" fill="#760808" stroke-width="0"/><path d="M291.5135,-47.69123c0,0 2.77155,7.36332 4.01794,18.58906c1.82652,16.45075 2.52967,40.74414 0.58909,58.59501c-1.73952,16.00134 -30.84808,46.08197 -58.73531,46.26665c-27.20088,0.18013 -47.74295,-29.15475 -48.98293,-43.7464c-0.78727,-9.26434 -2.74607,-18.63965 -4.12522,-27.12744c-2.45736,-15.12349 1.09568,-26.39952 1.09568,-33.77302c0,-0.13292 0.39809,-5.30206 1.25149,-9.45396c0.66348,-3.22796 1.83059,-5.68525 1.83059,-5.68525" fill="none" stroke-width="3"/></g><path d="M219.68659,68.80496c-8.64014,-1.735 -5.30236,11.03196 -5.30236,11.03196c0,0 -13.97964,-10.17218 -15.69465,-17.12182c-1.56517,-6.3425 -0.12821,-11.0386 0.13481,-11.59656" data-paper-data="{&quot;index&quot;:null}" fill="#5e0303" stroke-width="3"/><path d="M200.56211,50.74399c0,0 -2.90628,0.68388 -5.56082,0.78466c-2.03822,0.07739 -3.92805,-0.40459 -4.23993,-0.49337c-5.90817,-1.68173 -12.69492,-11.21635 -12.69492,-11.21635c0,0 10.97602,-2.18925 9.86118,-11.20964l-0.85548,-6.82842" data-paper-data="{&quot;index&quot;:null}" fill="#660404" stroke-width="3"/><path d="M255.47683,70.90634c-7.67182,4.96134 -13.25523,18.53736 -13.25523,18.53736c0,0 -5.60244,-3.02789 -8.99222,-8.27471c-3.09363,-4.78845 -3.0569,-9.67463 -2.996,-10.40186" data-paper-data="{&quot;index&quot;:null}" fill="#5e0303" stroke-width="3"/><path d="M234.75681,70.90426c0,0 -4.68138,5.61802 -4.98667,11.45915c-0.14813,2.83415 0.17702,4.78126 0.17702,4.78126c0,0 -6.38344,-3.32254 -8.16456,-5.13284c-5.01478,-5.09695 -2.19968,-14.57415 -2.19968,-14.57415" data-paper-data="{&quot;index&quot;:null}" fill="#5e0303" stroke-width="3"/><path d="M285.28552,48.01012c3.15215,9.07974 3.09538,9.28418 3.09538,9.28418h-0.00001c0,0 3.48935,12.96548 1.00037,20.30877c-2.41893,7.13659 -16.6687,10.27746 -16.6687,10.27746c0,0 3.08375,-6.83459 1.88881,-11.77008c-1.08237,-4.47053 -7.60026,-6.77069 -7.60026,-6.77069c0,0 -0.83063,6.1691 -3.89538,10.40781c-1.66582,2.3039 -6.70659,3.97884 -6.70659,3.97884c0,0 -0.40839,-4.02881 -1.52065,-6.71527c-0.90458,-2.18483 -3.34131,-3.7107 -4.54182,-4.35408" fill="#5e0303" stroke-width="2.5"/><path d="M295.67788,24.37977c0.88558,0.89466 4.48255,4.77367 8.51223,14.84757c4.41542,11.03824 -7.518,18.89191 -7.518,18.89191c0,0 -3.37951,-10.89035 -13.16143,-8.30829" data-paper-data="{&quot;index&quot;:null}" fill="#650404" stroke-width="3"/></g><g><path d="M294.44062,-9.98626l1.31456,0.47803c5.27666,11.39359 21.41963,4.81828 21.41963,4.81828c0,0 2.30746,19.87078 -6.57291,23.31933c-8.10455,3.14727 -14.21324,2.89088 -15.29183,2.65381" data-paper-data="{&quot;index&quot;:null}" fill="#ad2222" stroke-width="0"/><path d="M293.99432,-0.0085c0,0 4.16047,-0.04715 4.3305,0.4114c0.70987,1.91439 2.81799,7.23859 5.62628,8.60205c3.16003,1.53424 12.7002,0.84502 12.7002,0.84502c0,0 -2.44114,5.99802 -6.92147,8.14306c-2.90482,1.39074 -9.46161,2.34457 -13.51899,2.95176" data-paper-data="{&quot;index&quot;:null}" fill="#991111" stroke-width="0"/><path d="M291.84318,8.83494l6.72061,-1.85921c0,0 3.65453,5.68501 6.46282,7.04847c2.31083,1.12194 9.69159,-0.06422 9.69159,-0.06422c0,0 -4.08871,3.60231 -4.98841,4.03306c-6.20811,2.97224 -21.25127,3.5904 -21.87774,3.4527" data-paper-data="{&quot;index&quot;:null}" fill="#760808" stroke-width="0"/><path d="M295.75517,-9.50824v0.00001c7.21071,11.39359 22.23753,4.81828 22.23753,4.81828c0,0 0.8219,19.75822 -7.47307,23.20677c-7.57031,3.14727 -14.30474,1.92788 -15.42358,1.69082" data-paper-data="{&quot;index&quot;:null}" fill="none" stroke-width="3"/></g><g><path d="M184.70259,-3.76095c-0.7102,-0.01507 -4.97031,-0.26177 -9.44092,-3.93509c-4.89856,-4.02496 -2.99722,-18.73445 -2.99722,-18.73445c0,0 10.58324,5.6668 15.85532,-1.65178" data-paper-data="{&quot;index&quot;:null}" fill="#ad2222" stroke-width="0"/><path d="M184.70259,-3.76095c-0.7102,-0.01507 -4.97031,-0.26177 -9.44092,-3.93509c-4.89856,-4.02496 -2.99722,-18.73445 -2.99722,-18.73445c0,0 7.79227,6.75015 13.06435,-0.56842" data-paper-data="{&quot;index&quot;:null}" fill="none" stroke-width="3"/></g><g><path d="M187.59067,16.23899c-5.02349,-7.1851 -15.26388,0.41159 -15.26388,0.41159c0,0 -1.39161,-14.65778 3.65274,-18.80355c4.60366,-3.78358 8.87732,-4.1363 9.58887,-4.16905" data-paper-data="{&quot;index&quot;:null}" fill="#ad2222" stroke-width="0"/><path d="M188.67724,15.53001l-2.20339,0.54944c-5.02349,-7.1851 -14.14706,0.57114 -14.14706,0.57114c0,0 -1.39161,-3.04198 3.65274,-7.18775c4.60366,-3.78358 10.9891,-4.49648 11.70064,-4.52923" data-paper-data="{&quot;index&quot;:null}" fill="#991111" stroke-width="0"/><path d="M188.67724,15.53001l-2.20339,0.54944c-5.02349,-7.1851 -14.14706,0.57114 -14.14706,0.57114c0,0 -1.39161,-3.04198 3.65274,-7.18775c4.60366,-3.78358 12.25567,-1.05883 12.96721,-1.09158" data-paper-data="{&quot;index&quot;:null}" fill="#760808" stroke-width="0"/><path d="M186.47385,16.07946v-0.00001c-5.02349,-7.1851 -14.14706,0.57114 -14.14706,0.57114c0,0 -1.39161,-14.65778 3.65274,-18.80355c4.60366,-3.78358 8.87732,-4.1363 9.58887,-4.16905" data-paper-data="{&quot;index&quot;:null}" fill="none" stroke-width="3"/></g></g><g><path d="M239.15939,84.43086l0.13483,-27.95021l67.53708,9.60026l-0.57969,20.27442z" data-paper-data="{&quot;index&quot;:null}" fill="url(#color-4)" stroke="#000000" stroke-width="0" stroke-linecap="butt"/><g><g><path d="M172.19071,86.35533l-0.57969,-20.27442l67.53708,-9.60026l0.13483,27.95021z" fill="url(#color-5)" stroke="#000000" stroke-width="0" stroke-linecap="butt"/><g fill="#3e3571" stroke="none" stroke-width="0" stroke-linecap="butt"><path d="M194.8658,63.46559c0,-0.80844 1.15463,-1.46382 2.57893,-1.46382c1.4243,0 2.57893,0.65537 2.57893,1.46382c0,0.80845 -1.15463,1.46383 -2.57893,1.46383c-1.4243,0 -2.57893,-0.65538 -2.57893,-1.46382z"/><path d="M193.89256,70.24473c-0.2492,-0.97867 2.6802,-2.56941 4.73698,-3.09315c2.05678,-0.52374 5.04164,-0.43898 5.29084,0.53969c0.2492,0.97867 -2.33161,2.48065 -4.38839,3.00438c-2.05678,0.52374 -5.39023,0.52774 -5.63943,-0.45092z"/><path d="M201.98999,62.45369c-0.03655,-0.63327 1.96009,-1.26361 3.29099,-1.34043c1.3309,-0.07682 3.16124,0.33262 3.1978,0.96589c0.03655,0.63327 -1.73452,1.25059 -3.06543,1.3274c-1.3309,0.07682 -3.38681,-0.31959 -3.42336,-0.95287z"/><path d="M186.95416,66.45699c0.03202,-0.80781 1.21169,-1.41694 2.63487,-1.36053c1.42318,0.0564 2.55095,0.75699 2.51894,1.5648c-0.03202,0.80781 -1.21169,1.41695 -2.63488,1.36055c-1.42318,-0.0564 -2.55095,-0.757 -2.51893,-1.56481z"/><path d="M204.71866,66.10416c-0.26333,-0.76435 0.61486,-1.76007 1.96149,-2.224c1.34663,-0.46393 2.65176,-0.22039 2.91509,0.54396c0.26333,0.76435 -0.61486,1.76008 -1.96149,2.22401c-1.34663,0.46393 -2.65176,0.22038 -2.91509,-0.54398z"/><path d="M210.39683,59.93617c0.40727,-0.69836 1.73484,-0.68281 2.9652,0.03472c1.23036,0.71753 1.8976,1.86534 1.49033,2.5637c-0.40727,0.69836 -1.73485,0.68282 -2.96521,-0.03471c-1.23036,-0.71753 -1.89759,-1.86534 -1.49032,-2.5637z"/></g><path d="M217.21443,58.54911c3.54583,-0.54357 5.96062,-0.91274 5.96062,-0.91274l-0.30497,-24.07863h34.91904l-0.30497,24.07863c0,0 2.67463,0.41971 6.56422,1.03008" data-paper-data="{&quot;index&quot;:null}" fill="#ffdfc2" stroke="#000000" stroke-width="0" stroke-linecap="round"/><g data-paper-data="{&quot;index&quot;:null}" fill="#3e3571" stroke="none" stroke-width="0" stroke-linecap="butt"><path d="M287.5622,64.92942c-1.4243,0 -2.57893,-0.65538 -2.57893,-1.46382c0,-0.80844 1.15463,-1.46382 2.57893,-1.46382c1.4243,0 2.57893,0.65537 2.57893,1.46382c0,0.80845 -1.15463,1.46383 -2.57893,1.46383z"/><path d="M285.47489,70.69566c-2.05678,-0.52374 -4.6376,-2.02572 -4.38839,-3.00438c0.24921,-0.97867 3.23406,-1.06342 5.29084,-0.53969c2.05678,0.52374 4.98619,2.11448 4.73698,3.09315c-0.24921,0.97867 -3.58265,0.97466 -5.63943,0.45092z"/><path d="M279.59354,63.40657c-1.3309,-0.07682 -3.10198,-0.69413 -3.06542,-1.3274c0.03656,-0.63327 1.86689,-1.04271 3.19779,-0.96589c1.3309,0.07682 3.32754,0.70715 3.29099,1.34043c-0.03656,0.63327 -2.09246,1.02969 -3.42336,0.95287z"/><path d="M295.53381,68.02178c-1.42318,0.0564 -2.60287,-0.55273 -2.63488,-1.36055c-0.03202,-0.80781 1.09575,-1.50839 2.51894,-1.5648c1.42318,-0.0564 2.60286,0.55272 2.63488,1.36053c0.03202,0.80781 -1.09575,1.5084 -2.51893,1.56481z"/><path d="M277.37317,66.64815c-1.34663,-0.46393 -2.22482,-1.45966 -1.96149,-2.22401c0.26333,-0.76436 1.56846,-1.00789 2.91509,-0.54396c1.34663,0.46393 2.22482,1.45965 1.96149,2.224c-0.26333,0.76435 -1.56846,1.00791 -2.91509,0.54398z"/><path d="M273.11977,62.49987c-1.23036,0.71753 -2.55793,0.73307 -2.96521,0.03471c-0.40728,-0.69836 0.25997,-1.84616 1.49033,-2.5637c1.23036,-0.71753 2.55792,-0.73308 2.9652,-0.03472c0.40728,0.69836 -0.25996,1.84617 -1.49032,2.5637z"/></g><path d="M173.56475,65.10743l49.61029,-7.47107l-0.30497,-24.07863h34.91904l-0.30497,24.07863l47.63983,7.32865" data-paper-data="{&quot;index&quot;:null}" fill="none" stroke="#000000" stroke-width="3" stroke-linecap="round"/><path d="M239.04262,58.64694c5.86333,-0.0317 18.54393,-1.55479 18.54393,-1.55479l30.54546,13.81818c0,0 -32.78656,9.23902 -50.18182,9.27273c-17.39526,0.03371 -43.63637,-9.09091 -43.63637,-9.09091l29.63637,-13.81818c0,0 9.80283,1.40156 15.09243,1.37297z" fill="#000000" stroke="#000000" stroke-width="0.5" stroke-linecap="round"/></g><path d="M192.81082,62.38017c8.9325,-1.40517 30.15574,-4.7438 30.15574,-4.7438l-0.30497,-24.07863h34.91904l-0.30497,24.07863c0,0 22.58246,3.54371 31.63983,4.96502" data-paper-data="{&quot;index&quot;:null}" fill="none" stroke="#000000" stroke-width="3" stroke-linecap="round"/></g></g><g data-paper-data="{&quot;index&quot;:null}" stroke="#000000" stroke-linecap="round"><path d="M201.36037,88.9793c-9.70902,25.86879 -60.01034,159.89195 -60.01034,159.89195l-32.30129,-10.99141l65.08589,-172.80617z" data-paper-data="{&quot;index&quot;:null}" fill="#ffdfc2" stroke-width="3"/><path d="M203.07911,85.8543l-15.10706,38.454l-31.10497,-12.22492l17.26755,-47.00971z" data-paper-data="{&quot;index&quot;:null}" fill="url(#color-6)" stroke-width="0"/><path d="M201.36037,88.9793c-9.70902,25.86879 -60.01034,159.89195 -60.01034,159.89195l-32.30129,-10.99141l65.08589,-172.80617" data-paper-data="{&quot;index&quot;:null}" fill="none" stroke-width="3"/></g><g fill="#3e3571" stroke="none" stroke-width="0" stroke-linecap="butt"><g><g font-family="&quot;Helvetica Neue&quot;, Helvetica, Arial, sans-serif" font-weight="400" font-size="16" text-anchor="start"/><g data-paper-data="{&quot;index&quot;:null}"><path d=""/><path d=""/></g></g></g><path d="M309.25382,67.2395l66.16635,168.78366c0,0 7.62043,21.173 7.55706,29.55767c-0.04341,5.74371 -7.90063,15.89669 -7.90063,15.89669c0,0 -13.92219,5.80032 -21.08867,6.28129c-7.51263,0.50419 -22.99767,-3.32252 -22.99767,-3.32252c0,0 1.10091,-12.29448 0.53001,-17.75391c-0.45469,-4.3481 -3.68682,-12.43409 -3.68682,-12.43409c0,0 -48.73816,-135.23558 -59.4268,-160.71523z" data-paper-data="{&quot;index&quot;:null}" fill="#ff5353" stroke="#000000" stroke-width="3" stroke-linecap="round"/><path d="M212.45134,93.53306c-10.68864,25.47965 -59.4268,160.71523 -59.4268,160.71523c0,0 -3.23213,8.08599 -3.68682,12.43409c-0.5709,5.45943 0.53001,17.75391 0.53001,17.75391c0,0 -15.48504,3.82671 -22.99767,3.32252c-7.16648,-0.48096 -21.08867,-6.28129 -21.08867,-6.28129c0,0 -7.85722,-10.15297 -7.90063,-15.89668c-0.06338,-8.38467 7.55706,-29.55767 7.55706,-29.55767l66.16635,-168.78366z" data-paper-data="{&quot;index&quot;:null}" fill="#ff5353" stroke="#000000" stroke-width="3" stroke-linecap="round"/><path d="M289.27703,72.32111l14.33161,25.90703l-14.1585,26.81076l12.03859,90.89234l-0.87242,10.6116l-57.49142,11.53839l-59.2819,-10.64649l-0.59951,-11.5035l11.99048,-90.89234l-14.15849,-26.81076l14.3316,-25.90703" data-paper-data="{&quot;index&quot;:null}" fill="#050308" stroke="#000000" stroke-width="3" stroke-linecap="round"/><g stroke-linecap="butt"><path d="M184.56793,-7.15426c0,-12.81269 4.31394,-24.61781 11.56859,-34.04211c0.30788,-0.39995 21.26273,-4.26283 42.87296,-3.87109c22.95363,0.41609 46.64665,5.1201 47.12254,5.79611c6.39558,9.08494 10.15107,20.16245 10.15107,32.11709c0,30.84929 -25.00829,55.85758 -55.85758,55.85758c-30.84929,0 -55.85758,-25.00829 -55.85758,-55.85758z" fill="#ffdfc2" stroke="#000000" stroke-width="0"/><path d="M286.13195,-39.27134c6.39558,9.08494 10.15107,20.16245 10.15107,32.11709c0,30.84929 -25.00829,55.85758 -55.85758,55.85758c-30.84929,0 -55.85758,-25.00829 -55.85758,-55.85758c0,-12.81269 4.31394,-24.61781 11.56859,-34.04211" fill="none" stroke="#000000" stroke-width="3"/><path fill="#050308" stroke="none" stroke-width="0.5"/><path fill="#050308" stroke="none" stroke-width="0.5"/><g stroke="#000000"><path d="M244.8767,-2.17504c0,-21.68361 11.36963,-39.26164 25.39477,-39.26164c14.02514,0 25.39476,17.57803 25.39476,39.26163c0,7.73397 -11.83235,18.13678 -23.88698,18.51104c-13.28066,0.41233 -26.90254,-9.99047 -26.90254,-18.51104z" data-paper-data="{&quot;index&quot;:null}" fill="#000000" stroke-width="2"/><path d="M244.68474,-0.29174c0,-23.90334 50.44854,-23.21152 50.44854,0.69182c0,7.08747 -11.75291,16.45951 -23.72661,16.63828c-13.19149,0.19696 -26.72192,-9.52179 -26.72192,-17.3301z" data-paper-data="{&quot;index&quot;:null}" fill="#230750" stroke-width="0"/><path d="M244.80858,-2.17504c0,-21.68361 11.36963,-39.26164 25.39477,-39.26164c14.02514,0 25.39476,17.57803 25.39476,39.26163c0,7.73397 -11.83235,18.13678 -23.88698,18.51104c-13.28066,0.41233 -26.90254,-9.99047 -26.90254,-18.51104z" data-paper-data="{&quot;index&quot;:null}" fill-opacity="0.83317" fill="#000000" stroke-width="2"/></g><g data-paper-data="{&quot;index&quot;:null}" stroke="#000000"><path d="M234.96578,-2.17505c0,8.52057 -13.62188,18.92337 -26.90254,18.51104c-12.05463,-0.37426 -23.88698,-10.77707 -23.88698,-18.51104c0,-21.6836 11.36962,-39.26163 25.39476,-39.26163c14.02514,0 25.39477,17.57803 25.39477,39.26164z" data-paper-data="{&quot;index&quot;:null}" fill="#000000" stroke-width="2"/><path d="M235.15774,-0.29174c0,7.80831 -13.53043,17.52706 -26.72192,17.3301c-11.9737,-0.17877 -23.72661,-9.55081 -23.72661,-16.63828c0,-23.90334 50.44854,-24.59516 50.44854,-0.69182z" data-paper-data="{&quot;index&quot;:null}" fill="#230750" stroke-width="0"/><path d="M235.03389,-2.17505c0,8.52057 -13.62188,18.92337 -26.90254,18.51104c-12.05463,-0.37426 -23.88698,-10.77707 -23.88698,-18.51104c0,-21.6836 11.36962,-39.26163 25.39476,-39.26163c14.02514,0 25.39477,17.57803 25.39477,39.26164z" data-paper-data="{&quot;index&quot;:null}" fill-opacity="0.83317" fill="#000000" stroke-width="2"/></g></g><g fill="none" stroke-width="2"><path d="M275.3133,-23.66586l-25.1905,25.1905" stroke="#ffe200" stroke-linecap="round"/><path d="M275.22833,1.43972l-25.02069,-25.02067" stroke="#00ff31" stroke-linecap="round"/><path d="M250.03789,-23.75077l11.3661,-1.38298l13.99422,1.38298l1.48936,12.48965l-1.48936,12.87067l-13.24954,1.70213l-12.11078,-1.70213l-1.17022,-13.40258z" stroke="#ff0000" stroke-linecap="butt"/></g><g stroke="#000000" stroke-width="0"><path d="M218.70521,7.29937c-10.72202,-0.2401 -19.6073,-8.96002 -19.6073,-20.49893c0,-11.53891 8.90851,-16.90918 19.6073,-16.66961c10.69879,0.23957 19.23239,6.95894 19.23239,17.53933c0,10.58039 -8.51037,19.86931 -19.23239,19.62921z" fill="url(#color-7)" stroke-linecap="butt"/><path d="M218.15956,-16.20306l8.65471,-8.65471l4.02545,4.42799l-6.06407,6.06406l-2.64097,2.64097l8.70504,8.70503l-4.02545,4.428l-8.65471,-8.65472l-8.65472,8.65472l-4.02544,-4.428l8.70503,-8.70503l-8.70503,-8.70503l4.02544,-4.42799z" data-paper-data="{&quot;index&quot;:null}" fill="#ff6a00" stroke-linecap="round"/></g><g stroke-linecap="butt"><path d="M229.59413,385.61074l9.035,18.19717l0.78582,17.85303l-79.64208,17.62003l16.54765,-49.7459z" data-paper-data="{&quot;index&quot;:null}" fill="#050308" stroke="#000000" stroke-width="3"/><g><path d="M198.89538,415.86851c-14.38057,-3.67449 -29.84544,-13.26394 -29.84544,-13.26394l9.52596,-35.53614l-8.50275,-40.36824c0,0 15.89608,-6.27023 32.11378,-1.03146c16.2177,5.23877 38.70658,25.84114 38.70658,25.84114l-6.8566,33.50269l6.73616,27.50028c0,0 -27.4971,7.03017 -41.87767,3.35568z" data-paper-data="{&quot;index&quot;:null}" fill="#ffffff" stroke="#000000" stroke-width="3"/><path d="M237.7586,399.33366l-0.11455,0.33541l-0.30927,0.15022l-0.72761,0.31296l0.29561,1.26581l0.13418,1.3313l0.39392,2.30351l0.05834,0.37014l0.00368,0.04246l-0.25614,0.25l-0.21532,-0.11455l-0.28196,-0.4128l0.09658,-0.06284l-1.51036,-4.10199l-6.81956,3.96095l-1.3479,0.3343l-10.07067,-1.17608l-10.11742,0.28543l-5.78902,-0.54722l-0.65605,0.8457l-0.26396,0.32205l-0.20149,0.09563l-0.25614,-0.25l0.02047,-0.09811l0.12617,-0.30785l-0.04166,0.06569l-1.12537,1.9869l-0.03423,0.16676l-0.04461,0.35654l-0.25466,0.22293l-0.25614,-0.25v-0.42857h0.05365l0.09769,-0.4776l0.12724,-0.1763l1.32154,-2.72974l-1.05125,-0.36635l-0.25614,-0.25l0.25614,-0.25l1.29607,0.48792l3.25772,-4.46716l0.0272,-0.04061l2.79267,-7.68198l0.16991,-0.70475l0.65755,-6.23246l0.30045,-4.40222l0.02217,-0.93285l0.00143,-0.13178l0.00068,-0.3588v-0.00006l0.03557,-0.1267l-0.28474,-2.02561l-0.01117,-0.06536l-1.10294,-4.56758h-0.10039v-0.32563l-0.42805,-0.86827l-0.194,0.08675l-0.23158,-0.14304l-0.22661,-0.44237l0.04419,-0.02157l-3.26521,-6.70916h-0.00073l-0.21531,-0.11453l-0.282,-0.41278l-0.81234,-1.18596l-0.00077,0.00091l-0.39548,-0.31444l-0.09606,-0.19518l0.0804,-0.18187l-0.07876,-0.91478l5.39397,0.66634l1.06671,0.23236l0.27979,0.1088l0.16688,0.2344l-0.25614,0.25h-0.22711l0.29524,0.11109l6.95517,2.44759l0.52605,0.21828l-0.80588,-1.55422l-0.10723,0.03488l-0.14447,-0.42304l-0.01504,-0.08459l0.25614,-0.25l0.1875,0.07967l0.2218,0.23126l-0.00194,0.00177l0.00691,0.00356l0.61644,0.6834l1.55036,1.55043l0.9302,0.94365l0.01011,-0.01481l0.42294,0.2752l0.11736,0.21017l-0.21275,0.24642l2.58722,3.6755l4.55536,5.89488l-1.94964,-5.36672l-0.1881,-0.45898l-0.02047,-0.09811l0.25614,-0.25l0.21282,0.11084l0.27595,0.38975l-0.03936,0.02655l4.58569,8.03402l1.43116,2.6076l0.25193,-0.20462l0.23158,0.14304l0.20752,0.40508l0.23002,0.44902l2.61926,5.63097l0.12038,0.21702l0.89875,1.62433l0.22935,0.41564l0.31328,0.56817l0.27104,0.41132l0.04274,0.13832l-0.25614,0.25l-0.20955,-0.1062l-0.29809,-0.40266l0.0222,-0.01566l-0.0071,-0.01078l0.00798,-0.00501l-0.0132,-0.00324l-0.06817,-0.12349l-1.31702,-1.86365l0.71455,1.58357l1.31692,3.258l-0.1323,-1.05536l-0.02851,0.00928l-0.16011,-0.4688l-0.01503,-0.0846l0.25614,-0.25l0.23689,0.15474l0.1819,0.40439l1.51203,5.34618l0.6827,3.10011l0.65489,-0.2721l0.27621,-0.1355zM235.90094,400.95867l-0.09979,-0.39703l-0.03804,0.01908zM200.08073,404.26215l-0.04151,0.06542l0.02334,0.00911zM201.57545,402.4611l1.88903,-3.05414l-0.03844,0.00279l-0.06897,-0.00917l-1.70276,2.90363zM204.39283,396.11904l1.06627,-1.94331l-0.04502,-0.01912l0.17401,-0.39024l-0.07633,-0.17804v-0.2602l-1.11074,2.76739zM207.3879,385.12711l-0.0408,1.60658l0.41819,-0.85689l-0.01386,-0.00338l-0.21203,-0.18822l-0.13058,-0.47791z" fill="#050308" stroke="none" stroke-width="0.5"/><path d="M204.30967,383.93772l-0.21634,0.25394l-2.28697,4.51011l-1.15844,1.49073l-1.9875,3.6145l-0.55346,0.55991l-0.1316,-0.60014l-1.95256,1.53535l-3.30738,-2.77744l-0.16341,0.05863l-0.12425,-0.02378l-0.30044,-0.12887l0.00672,-0.01284l-0.04344,-0.00652l-0.31626,-0.70381l-2.6943,-5.10528l0.16013,-2.22582l1.67034,-0.82317l0.22212,-0.28587l0.06131,0.04064l1.71828,0.59547l1.60365,1.27283l0.13473,1.07507l-0.1683,0.63627l0.01568,0.08398l-0.26708,0.26043l-0.25533,-0.16644l-0.14369,-0.39786l-0.83861,-1.24031l-0.17223,-0.07069l-0.11283,-0.12255l-0.13559,-0.05063l0.00162,0.02764l-0.20773,0.25192l-0.43012,0.11746l-0.38661,1.6973l0.0337,0.05154l-0.01133,0.00677l0.02886,0.02526l0.39234,1.147l0.07571,0.09298l0.04335,-0.0173l0.18958,0.45391l0.02001,0.09433l-0.03423,0.1239l0.01357,0.03822l0.34354,0.72058l0.92481,0.41945l1.30418,-0.63934l0.01508,-0.03096l-0.0325,-0.04943l0.08475,-0.05091l0.01662,-0.02984l0.04485,-0.00708l0.03595,-0.0216l-0.01138,-0.02087l0.30044,-0.15235l0.12425,-0.03349l0.23751,0.12622l0.09024,-0.05743l0.10286,-0.27653l0.06755,0.0197l1.10266,-0.89878l0.04004,0.35827l0.70698,-0.63741l-0.4047,-1.42348l-0.26428,0.22386l-0.218,-0.09701l-0.27642,-0.34496l-3.86268,-5.34741l-3.35759,-2.89109l-1.28808,-1.01403l-0.28832,1.32615l0.11359,-0.16581l0.22535,-0.12457l0.26708,0.23957l-0.02631,0.10936l-0.21867,0.45884l-0.3741,0.96174l-0.17359,0.70304l0.25909,0.23977l-0.00943,0.06644l-0.12811,0.48464l-0.01266,-0.00247l0.00093,0.03654l-0.16925,0.28777l-2.39787,5.88271l0.09144,0.11055l-0.01749,0.01296l0.05213,0.04363l0.03442,0.18765l0.17513,-0.06807l0.26617,0.21878l0.04444,0.43991l0.08246,0.28787l0.21742,-0.11326l0.24148,0.1336l0.21639,0.39664l0.40791,0.94704l1.96767,8.76127l0.15266,0.21158l0.91574,0.82137l0.10259,0.07387v0.35355l-0.37773,0.01475l-0.20265,-0.19991l-0.65155,-0.53787l-0.09226,0.10792l0.78987,2.85676l-0.2319,0.28814l-0.29816,-0.20542l-15.5935,-7.44854l-1.67042,-2.89953l1.13672,-0.67777l1.13678,-2.32797l0.30097,-0.95087l0.08959,-0.46353l0.758,-2.32504l0.04025,-0.13471l0.83803,-3.17867l0.50394,-2.37208l0.21099,-0.46134l0.2473,-0.16503l0.26397,0.20137l0.00359,0.01933l1.01864,-2.57602l0.46758,-1.47515l0.18193,-0.471l0.25287,-0.1792l0.26708,0.23843l0.00029,0.05235l1.59194,-2.57657l-0.87484,1.34584l-0.03703,0.02343l0.0092,0.00826l-0.30524,0.29763v0l-0.18887,0.0806l-0.26708,-0.23957v-0.42857l0.16358,-0.00638l5.58265,-7.41249l0.05969,-0.01052l-0.01122,-0.02056l0.30044,-0.15234l0.12425,-0.0335l0.2021,0.07864l1.15848,-0.12468l6.3237,3.67643l2.3613,2.14819l0.42905,0.15431l-0.00972,0.02174l0.06965,0.00904l0.7104,0.66478l0.36852,0.18544l0.02387,0.04813l0.01559,-0.01227l0.30638,0.34689l0.05977,0.1553l-0.09754,0.19699l1.24221,1.66153v-0.04609l0.26708,-0.26043l0.21986,0.09941l0.1835,0.23469l0.62209,0.92864l2.06993,3.49548l0.10971,-0.02628l0.24038,0.13151l0.19788,0.35437l-0.01121,0.00579l0.02564,0.02527l0.04687,0.18405l0.97237,1.88861l0.11372,0.26432l0.16888,0.57397l0.0323,0.19538l0.15638,0.0149l-0.06117,0.40137zM174.09356,393.13826l0.0122,-0.58846l-0.29621,-0.17084l-0.18069,0.22564zM173.78281,393.85503l-0.76807,-0.99989l-0.02414,0.07693l0.10671,0.09211l0.19584,0.23559v0.28089l-0.04241,0.1369l0.46723,0.28758zM173.35525,394.45559l0.08143,-0.0908l-0.6007,-0.37389zM187.92291,397.0542l0.53789,1.4094l0.033,0.02909l-0.51287,-2.48188zM173.19715,392.36209l0.41492,0.22932l-0.15503,-0.2494l-0.25403,0.0059z" fill="#050308" stroke="none" stroke-width="0.5"/><path d="M237.93881,404.82558h-0.08725v-0.5c0,-0.13807 0.11468,-0.25 0.25614,-0.25c0.11983,0 0.22047,0.08033 0.24843,0.18882l0.1281,0.4536c0.01717,0.06088 0.03526,0.12224 0.05411,0.18404c0.03944,-0.0242 0.08611,-0.03819 0.13613,-0.03819c0.11275,0 0.2085,0.07111 0.24271,0.16989l0.17333,0.46431c0.19903,0.5332 0.39741,1.0887 0.58317,1.65684c0.07411,0.10609 0.14449,0.21269 0.2102,0.31939c1.27124,1.60223 2.20365,3.35614 1.24454,3.48061h-0.01767c0,0 -0.25614,0 -0.25614,-0.25c0,-0.25 0.25614,-0.25 0.25614,-0.25h0.01767c0.09284,0.02732 -0.30468,-0.50167 -0.86878,-1.24885c0.20178,0.84711 0.34734,1.69676 0.40027,2.51951c0.02399,0.37286 0.12184,1.16904 -0.04754,1.58042l0.16111,0.02763c0.12246,0.01875 0.21612,0.12219 0.21612,0.24697c0,0.09282 -0.05183,0.17383 -0.12878,0.21695l-0.20805,0.12138c0.09726,0.03546 0.16651,0.12697 0.16651,0.23427c0,0.13807 -0.11468,0.25 -0.25614,0.25h-0.47144c-0.3974,0.17617 -1.52526,0.60637 -2.54606,0.92288c0.0674,0.04503 0.11162,0.1207 0.11162,0.20643c0,0.11744 -0.08297,0.21597 -0.19482,0.24279l-0.4581,0.12053c-0.62706,0.26298 -1.25486,0.50527 -1.89584,0.73415c-1.90646,0.66592 -6.9921,0.73795 -9.47827,0.03998c-0.19758,0.05111 -0.3948,0.10237 -0.59202,0.14988c-2.80179,0.45679 -6.49406,0.8023 -9.38264,0.1359v0.03367h-0.51228c-0.11109,0 -0.20568,-0.06903 -0.24116,-0.16555c-2.2516,0.21104 -4.76231,0.26122 -7.1093,0.18872c0.00695,0.0227 0.01068,0.04676 0.01068,0.07166c0,0.13807 -0.11468,0.25 -0.25614,0.25h-0.35329c-0.98297,0 -2.20265,0.04464 -3.34979,-0.09157c0.10638,0.04349 0.21375,0.08535 0.32229,0.12525l0.46243,0.16996c0.09985,0.03413 0.17147,0.12691 0.17147,0.23602c0,0.0998 -0.05992,0.18595 -0.14655,0.22603l-0.34833,0.16999l-0.10604,-0.20699c-0.92955,0.07387 -2.22146,-0.61048 -2.8984,-1.14975l-0.27615,-0.22573c-0.05057,-0.04077 -0.08484,-0.10011 -0.09182,-0.16734c-0.06351,-0.02717 -0.12735,-0.05383 -0.19155,-0.0799c-2.26261,-0.92015 -4.87223,-1.45552 -6.87954,-2.87744c-0.41794,-0.29605 -0.97765,-0.5627 -1.3331,-0.93161c-0.01769,-0.01047 -0.03543,-0.02141 -0.0532,-0.03285c-0.36305,-0.01355 -0.72223,-0.04967 -1.08965,-0.14532c-1.28812,-0.34008 -2.63436,-0.56372 -3.92962,-0.9076c0.02057,0.036 0.03229,0.07747 0.03229,0.12162c0,0.11897 -0.08515,0.21854 -0.19922,0.24381l-0.49179,0.12l-0.03957,-0.15449c-1.05825,0.13923 -2.72327,0.05383 -2.2365,-1.16144c0.01227,-0.03063 0.02765,-0.05854 0.04582,-0.08392c-1.27498,-0.69201 -2.50612,-1.47181 -3.90159,-1.9312c0.00004,0.0018 0.00006,0.00361 0.00006,0.00542c0,0.13417 -0.1083,0.24366 -0.24423,0.24973l-0.50997,0.02632l-0.00644,-0.11901c-0.83955,0.02279 -1.58241,-0.33997 -2.47999,-0.58242l-0.01917,-0.01737l-0.00384,0.00749l-0.34833,-0.16999c-0.08664,-0.04008 -0.14655,-0.12623 -0.14655,-0.22603c0,-0.13807 0.11468,-0.25 0.25614,-0.25h0.51228v0.05861c0.0409,-0.00413 0.08176,-0.00777 0.12258,-0.01094c-2.03243,-0.98572 -4.31046,-1.80374 -5.95864,-2.99594h-0.32901c-0.14146,0 -0.25614,-0.11193 -0.25614,-0.25c0,-0.13807 0.11468,-0.25 0.25614,-0.25h0.37097c0.8778,0.01394 0.50786,0.00347 -0.07897,-0.26882c-0.80475,-0.38028 -2.22146,-0.95859 -2.64844,-1.7993c-0.21145,-0.41634 0.72038,-2.941 1.3937,-4.45043v-0.128h0.03237c-0.042,-0.27222 0.00971,-0.48573 0.17622,-0.90192l0.16083,-0.39242c0.03245,-0.08481 0.11073,-0.14781 0.20543,-0.1603c0.05647,-0.30464 0.10698,-0.61972 0.16216,-0.92982c-0.07364,0.10474 -0.15087,0.20775 -0.23138,0.30925l0.03208,0.01565l-0.22661,0.44236c-0.04107,0.08456 -0.12933,0.14305 -0.23158,0.14305c-0.14146,0 -0.25614,-0.11193 -0.25614,-0.25c0,-0.0217 0.00283,-0.04276 0.00816,-0.06284l0.11025,-0.45552l0.02581,0.00595l-0.00219,-0.06673c0.09299,-0.09969 0.18647,-0.21557 0.28075,-0.34198c0.218,-0.57339 0.71038,-1.2082 0.82795,-1.7471l0.00979,-0.01039l-0.05408,-0.02639c-0.08664,-0.04008 -0.14655,-0.12623 -0.14655,-0.22603c0,-0.13807 0.11468,-0.25 0.25614,-0.25c0.02343,0 0.04614,0.00307 0.0677,0.00883l0.14143,0.0345c0.04107,-0.02735 0.0907,-0.04333 0.14418,-0.04333c0.12325,0 0.22617,0.08496 0.25063,0.19815c0.03634,0.00419 0.07268,0.00871 0.10901,0.01355c0.16846,-0.12082 0.34264,-0.19784 0.52361,-0.21171c0,0 0.25614,0 0.25614,0.25c0,0.04271 -0.00748,0.07812 -0.01988,0.10748c0.66327,0.16398 1.32448,0.41809 1.98359,0.7168c0.01866,-0.12014 0.12494,-0.21221 0.25323,-0.21221c0.00167,0 0.00335,0.00002 0.00501,0.00005l0.37335,0.00612l-0.00018,0.01081l0.0355,-0.00784c0.3385,0.09835 0.69003,0.21085 1.04711,0.33765l0.03341,0.01087l-0.00032,0.00092c0.00719,0.00257 0.01438,0.00514 0.02158,0.00772l0.00228,0.0003c0.00089,0.00049 0.00177,0.00098 0.00266,0.00147c1.53305,0.55034 3.16021,1.36375 4.29128,2.45351l0.03166,-0.042l0.41011,0.29446c0.04257,0.02983 0.07538,0.07209 0.09285,0.12133c1.14322,0.31921 2.28714,0.42465 3.64826,0.42497c0.79075,0.00019 1.61725,-0.06461 2.41116,0.01623c1.34356,-0.30696 2.79077,-0.15698 3.99046,-0.72564l0.0201,-0.00167l-0.00137,-0.00452l0.46513,-0.13421c0.02468,-0.00773 0.051,-0.0119 0.07832,-0.0119c0.14146,0 0.25614,0.11193 0.25614,0.25c0,0.04199 -0.0106,0.08156 -0.02934,0.1163l-0.05224,0.10198c1.05399,-0.51259 2.22426,-0.88499 3.27607,-1.04677c1.25341,-1.05205 3.17231,-1.5103 4.61056,-2.19927c0.24349,-0.11664 1.00751,-0.67572 1.46421,-0.63675c0.54179,-0.39646 1.14823,-0.71434 1.75632,-0.94342l0.0174,0.00107l-0.00135,-0.00543l0.47163,-0.11205c0.0211,-0.00549 0.04326,-0.00841 0.06613,-0.00841c0.06297,0 0.12064,0.02218 0.16524,0.05898c1.1021,-0.079 2.46151,0.62897 3.73078,1.49657c-0.11988,-0.1674 -0.23254,-0.33605 -0.33702,-0.50576l-0.03569,0.02926l-0.32848,-0.38164c-0.03807,-0.04363 -0.06105,-0.10021 -0.06105,-0.16201c0,-0.13807 0.11468,-0.25 0.25614,-0.25c0.04648,0 0.09007,0.01209 0.12765,0.03321l0.44464,0.23894c1.44104,0.78719 3.7208,2.71131 4.97322,4.20921l0.02806,-0.03195l0.3877,0.32434c0.05549,0.04586 0.09072,0.11435 0.09072,0.19087c0,0.13807 -0.11468,0.25 -0.25614,0.25c-0.03569,0 -0.06966,-0.00712 -0.10052,-0.01999l-0.33417,-0.13046c-0.00535,-0.00209 -0.0107,-0.00417 -0.01605,-0.00625c0.4588,0.35827 0.92775,0.7032 1.40781,1.03206l0.00957,0.01631l0.00429,-0.00446l0.37273,0.34206c0.04995,0.04562 0.08117,0.11054 0.08117,0.18258c0,0.07652 -0.03522,0.14501 -0.0907,0.19087c1.69127,1.8958 2.93934,5.54404 5.21329,3.70116c0.48245,-0.39087 0.98382,-0.82203 1.50563,-1.23922c0.36811,-0.54724 0.85613,-1.11599 1.30368,-1.57315c-0.00008,-0.00252 -0.00011,-0.00505 -0.00011,-0.00759c0,-0.05038 0.01527,-0.09728 0.04154,-0.13653l0.27111,-0.41976l0.06943,0.04272c0.74558,-1.25009 2.33783,-2.80722 3.85834,-3.22114c-0.60041,-0.522 -1.2134,-1.02699 -1.82435,-1.5159l-0.27456,-0.21971c-0.05816,-0.04583 -0.09538,-0.11599 -0.09538,-0.19464c0,-0.13807 0.11468,-0.25 0.25614,-0.25c0.04971,0 0.09611,0.01382 0.1354,0.03774l0.43567,0.25513l-0.03336,0.05426c0.95775,0.38678 1.88201,1.0508 2.76323,1.83234c0.10195,0.0567 0.21232,0.16078 0.32696,0.29692c1.02371,0.95072 1.98622,2.03649 2.872,2.99741c1.02919,0.68777 1.89494,1.62856 2.71678,2.62755l0.26192,0.18833l-0.00399,0.00528l0.01907,0.00643c0.09688,0.09429 0.19724,0.19011 0.3006,0.2874c0.10779,0.08161 0.20993,0.17941 0.30735,0.28586c0.68807,0.63347 1.47687,1.32316 2.2402,2.0532l0.01027,-0.01002l0.36224,0.35356c0.05649,0.05525 0.11507,0.11265 0.1753,0.17205c0.00022,-0.11777 0.00462,-0.23404 0.01358,-0.34861zM185.01744,410.76968c-0.00815,0.0077 -0.01441,0.01674 -0.01861,0.02722c-0.19605,0.48946 0.96647,0.62276 1.60215,0.68426c-0.11934,-0.04759 -0.23866,-0.09518 -0.358,-0.14277c-0.41924,-0.16836 -0.82568,-0.362 -1.22555,-0.56871zM239.73324,408.98329c0.17162,0.80921 0.31923,1.59377 0.46058,2.24054c-0.07186,-0.69603 -0.24788,-1.4788 -0.46058,-2.24054zM231.38605,399.96212c0.02372,0.05478 0.04626,0.10962 0.06757,0.16451l0.05073,-0.02302c-0.03947,-0.04735 -0.07889,-0.09453 -0.11829,-0.14149zM200.74601,393.76477c-0.01382,0.00624 -0.02755,0.01243 -0.04118,0.01854l0.03272,0.03448zM223.76952,400.23563c-0.66202,0.32989 -1.29951,0.79061 -1.90679,1.27683c-0.36173,0.53913 -0.9131,1.33332 -0.51451,1.13423c0.92683,-0.46294 1.57713,-1.70345 2.42131,-2.41106zM200.69748,393.78944l0.00622,-0.00563c-0.00275,0.00123 -0.00548,0.00246 -0.00822,0.00369z" fill="#050308" stroke="none" stroke-width="0.5"/><path d="M198.89538,415.86851c-14.38057,-3.67449 -29.84544,-13.26394 -29.84544,-13.26394l9.52596,-35.53614c0,0 51.39956,-17.99544 60.00261,-15.21196c3.05429,0.9882 -4.54161,33.15609 -4.54161,33.15609l6.73616,27.50028c0,0 -27.4971,7.03017 -41.87767,3.35568z" data-paper-data="{&quot;index&quot;:null}" fill="url(#color-8)" stroke="#000000" stroke-width="0"/><path d="M198.89538,415.86851c-14.38057,-3.67449 -29.84544,-13.26394 -29.84544,-13.26394l9.52596,-35.53614c0,0 51.39956,-17.99544 60.00261,-15.21196c3.05429,0.9882 -4.54161,33.15609 -4.54161,33.15609l6.73616,27.50028c0,0 -27.4971,7.03017 -41.87767,3.35568z" data-paper-data="{&quot;index&quot;:null}" fill="url(#color-9)" stroke="#000000" stroke-width="0"/><path d="M198.89538,415.86851c-14.38057,-3.67449 -29.84544,-13.26394 -29.84544,-13.26394l9.52596,-35.53614l-8.50275,-40.36824c0,0 15.89608,-6.27023 32.11378,-1.03146c16.2177,5.23877 38.70658,25.84114 38.70658,25.84114l-6.8566,33.50269l6.73616,27.50028c0,0 -27.4971,7.03017 -41.87767,3.35568z" data-paper-data="{&quot;index&quot;:null}" fill="none" stroke="#000000" stroke-width="3"/></g></g><g stroke-linecap="butt"><g stroke="#000000"><path d="M308.30173,389.53507l16.54843,49.7459l-79.64584,-17.62003l0.78586,-17.85303l9.03542,-18.19717z" data-paper-data="{&quot;index&quot;:null}" fill="#050308" stroke-width="0"/><path d="M308.60311,389.53507l16.54843,49.7459l-79.64584,-17.62003l0.17783,-14.87374l11.12601,-16.88871c6.78982,-0.08741 14.64278,-0.519 18.67444,-1.01837c9.50517,-1.17734 18.74247,-3.90575 28.16107,-5.6223c0.22969,-0.04186 0.4594,-0.08358 0.68914,-0.12517z" data-paper-data="{&quot;index&quot;:null}" fill="none" stroke-width="3"/></g><g><path d="M286.18774,415.86852c-14.38125,3.67449 -41.87965,-3.35568 -41.87965,-3.35568l6.73648,-27.50028l-6.85692,-33.50269c0,0 22.48994,-20.60237 38.7084,-25.84114c16.21846,-5.23877 32.1153,1.03146 32.1153,1.03146l-8.50315,40.36824l9.52641,35.53614c0,0 -15.46559,9.58945 -29.84685,13.26394z" data-paper-data="{&quot;index&quot;:null}" fill="#ffffff" stroke="#000000" stroke-width="3"/><path d="M247.15607,405.1742c0.06024,-0.05939 0.11881,-0.1168 0.17531,-0.17205l0.36225,-0.35356l0.01027,0.01002c0.76335,-0.73004 1.55219,-1.41974 2.2403,-2.0532c0.09742,-0.10645 0.19956,-0.20425 0.30736,-0.28586c0.10336,-0.09728 0.20372,-0.19311 0.30061,-0.2874l0.01907,-0.00643l-0.00399,-0.00528l0.26193,-0.18833c0.82189,-0.99899 1.68767,-1.93978 2.7169,-2.62755c0.88582,-0.96092 1.84839,-2.04669 2.87213,-2.99741c0.11464,-0.13614 0.22502,-0.24022 0.32698,-0.29692c0.88126,-0.78154 1.80558,-1.44556 2.76336,-1.83234l-0.03336,-0.05426l0.43569,-0.25513c0.03928,-0.02392 0.08569,-0.03774 0.1354,-0.03774c0.14147,0 0.25615,0.11193 0.25615,0.25c0,0.07864 -0.03721,0.14881 -0.09538,0.19464l-0.27457,0.21971c-0.61097,0.48891 -1.22401,0.9939 -1.82443,1.5159c1.52057,0.41392 3.1129,1.97105 3.85852,3.22114l0.06944,-0.04272l0.27112,0.41976c0.02627,0.03925 0.04154,0.08615 0.04154,0.13653c0,0.00254 -0.00004,0.00507 -0.00012,0.00759c0.44757,0.45716 0.93562,1.02591 1.30374,1.57315c0.52184,0.41719 1.02323,0.84836 1.5057,1.23922c2.27405,1.84287 3.52218,-1.80536 5.21353,-3.70116c-0.05548,-0.04586 -0.09071,-0.11435 -0.09071,-0.19087c0,-0.07204 0.03121,-0.13696 0.08117,-0.18258l0.37275,-0.34206l0.00429,0.00446l0.00957,-0.01631c0.48008,-0.32887 0.94905,-0.67379 1.40787,-1.03206c-0.00535,0.00208 -0.01071,0.00416 -0.01606,0.00625l-0.33419,0.13046c-0.03086,0.01286 -0.06485,0.01999 -0.10053,0.01999c-0.14147,0 -0.25615,-0.11193 -0.25615,-0.25c0,-0.07652 0.03523,-0.14501 0.09071,-0.19087l0.38771,-0.32434l0.02806,0.03195c1.25248,-1.4979 3.53235,-3.42202 4.97346,-4.20921l0.44467,-0.23894c0.03758,-0.02112 0.08117,-0.03321 0.12766,-0.03321c0.14147,0 0.25615,0.11193 0.25615,0.25c0,0.0618 -0.02298,0.11838 -0.06106,0.16201l-0.32849,0.38164l-0.03569,-0.02926c-0.10449,0.16971 -0.21715,0.33837 -0.33704,0.50576c1.26932,-0.86759 2.62881,-1.57557 3.73095,-1.49657c0.04461,-0.03679 0.10227,-0.05898 0.16525,-0.05898c0.02286,0 0.04503,0.00293 0.06613,0.00841l0.47165,0.11205l-0.00135,0.00543l0.0174,-0.00107c0.60813,0.22908 1.21459,0.54696 1.75641,0.94342c0.45672,-0.03897 1.22079,0.52011 1.46428,0.63675c1.43833,0.68898 3.35732,1.14723 4.61079,2.19928c1.05184,0.16178 2.22219,0.53418 3.27622,1.04677l-0.05225,-0.10198c-0.01874,-0.03474 -0.02935,-0.07431 -0.02935,-0.1163c0,-0.13807 0.11469,-0.25 0.25615,-0.25c0.02732,0 0.05364,0.00417 0.07832,0.0119l0.46516,0.13421l-0.00137,0.00452l0.02011,0.00167c1.19974,0.56866 2.64702,0.41868 3.99064,0.72564c0.79394,-0.08083 1.62048,-0.01604 2.41127,-0.01623c1.36117,-0.00032 2.50515,-0.10575 3.64842,-0.42497c0.01748,-0.04924 0.05029,-0.0915 0.09286,-0.12133l0.41013,-0.29446l0.03165,0.042c1.13112,-1.08976 2.75836,-1.90317 4.29148,-2.45351c0.00088,-0.00049 0.00177,-0.00098 0.00265,-0.00147l0.00228,-0.0003c0.00719,-0.00258 0.0144,-0.00516 0.02159,-0.00772l-0.00032,-0.00092l0.03342,-0.01087c0.35709,-0.1268 0.70864,-0.2393 1.04716,-0.33765l0.0355,0.00784l-0.00018,-0.01081l0.37337,-0.00612c0.00166,-0.00003 0.00333,-0.00005 0.00501,-0.00005c0.12831,0 0.23459,0.09207 0.25324,0.21221c0.65914,-0.2987 1.32038,-0.55282 1.98369,-0.7168c-0.0124,-0.02936 -0.01988,-0.06477 -0.01988,-0.10748c0,-0.25 0.25615,-0.25 0.25615,-0.25c0.18098,0.01387 0.35516,0.09089 0.52363,0.21171c0.03633,-0.00484 0.07268,-0.00937 0.10902,-0.01355c0.02446,-0.1132 0.12738,-0.19815 0.25064,-0.19815c0.05347,0 0.10312,0.01598 0.14418,0.04333l0.14144,-0.0345c0.02157,-0.00576 0.04427,-0.00883 0.06771,-0.00883c0.14147,0 0.25615,0.11193 0.25615,0.25c0,0.0998 -0.05992,0.18595 -0.14656,0.22603l-0.05408,0.02639l0.00981,0.01039c0.11757,0.5389 0.60997,1.17371 0.82798,1.7471c0.0943,0.12641 0.18778,0.24229 0.28078,0.34198l-0.0022,0.06673l0.02581,-0.00595l0.11026,0.45552c0.00533,0.02008 0.00816,0.04113 0.00816,0.06284c0,0.13807 -0.11469,0.25 -0.25615,0.25c-0.10226,0 -0.19052,-0.05849 -0.23158,-0.14305l-0.22662,-0.44236l0.03207,-0.01565c-0.08051,-0.1015 -0.15774,-0.20451 -0.23138,-0.30925c0.05519,0.31009 0.10569,0.62517 0.16217,0.92982c0.09472,0.01249 0.17299,0.07549 0.20544,0.1603l0.16083,0.39242c0.16651,0.41618 0.21821,0.6297 0.17622,0.90192h0.03237v0.128c0.67335,1.50943 1.60522,4.03409 1.39376,4.45043c-0.427,0.84071 -1.84379,1.41902 -2.64856,1.7993c-0.58685,0.27229 -0.95681,0.28277 -0.07897,0.26882h0.37098c0.14147,0 0.25615,0.11193 0.25615,0.25c0,0.13807 -0.11469,0.25 -0.25615,0.25h-0.32902c-1.64826,1.1922 -3.92639,2.01022 -5.95892,2.99594c0.04082,0.00317 0.08168,0.00682 0.12259,0.01094v-0.05861h0.51231c0.14147,0 0.25615,0.11193 0.25615,0.25c0,0.0998 -0.05992,0.18595 -0.14656,0.22603l-0.34836,0.16999l-0.00384,-0.00749l-0.01916,0.01737c-0.8976,0.24245 -1.6405,0.60521 -2.4801,0.58242l-0.00646,0.11901l-0.50998,-0.02632c-0.13594,-0.00608 -0.24423,-0.11557 -0.24423,-0.24973c0,-0.00181 0.00001,-0.00362 0.00005,-0.00542c-1.39554,0.45938 -2.62674,1.23919 -3.90178,1.9312c0.01817,0.02538 0.03356,0.05329 0.04582,0.08392c0.4868,1.21526 -1.1783,1.30067 -2.2366,1.16144l-0.03957,0.15449l-0.49182,-0.12c-0.11407,-0.02526 -0.19923,-0.12483 -0.19923,-0.24381c0,-0.04415 0.01172,-0.08562 0.0323,-0.12162c-1.29531,0.34389 -2.64162,0.56752 -3.92979,0.9076c-0.36744,0.09565 -0.72664,0.13177 -1.0897,0.14532c-0.01777,0.01144 -0.0355,0.02239 -0.0532,0.03285c-0.35546,0.36891 -0.9152,0.63556 -1.33316,0.93161c-2.00741,1.42192 -4.61714,1.95729 -6.87987,2.87744c-0.0642,0.02607 -0.12804,0.05272 -0.19156,0.0799c-0.00699,0.06723 -0.04125,0.12657 -0.09184,0.16734l-0.27616,0.22573c-0.67697,0.53927 -1.96893,1.22363 -2.89854,1.14975l-0.10605,0.20699l-0.34835,-0.16999c-0.08664,-0.04008 -0.14656,-0.12623 -0.14656,-0.22603c0,-0.10911 0.07162,-0.20189 0.17148,-0.23602l0.46245,-0.16996c0.10856,-0.0399 0.21592,-0.08176 0.3223,-0.12525c-1.1472,0.13621 -2.36693,0.09157 -3.34995,0.09157h-0.35332c-0.14147,0 -0.25615,-0.11193 -0.25615,-0.25c0,-0.0249 0.00373,-0.04896 0.01068,-0.07166c-2.3471,0.0725 -4.85794,0.02232 -7.10965,-0.18872c-0.03548,0.09652 -0.13006,0.16555 -0.24117,0.16555h-0.51231v-0.03367c-2.88872,0.6664 -6.58116,0.3209 -9.38309,-0.1359c-0.19723,-0.04751 -0.39447,-0.09876 -0.59204,-0.14988c-2.48629,0.69797 -7.57217,0.62594 -9.47872,-0.03998c-0.64101,-0.22888 -1.26883,-0.47117 -1.89593,-0.73415l-0.45813,-0.12053c-0.11186,-0.02682 -0.19483,-0.12534 -0.19483,-0.24279c0,-0.08574 0.04422,-0.1614 0.11162,-0.20643c-1.02086,-0.31651 -2.14877,-0.74671 -2.54619,-0.92288h-0.47146c-0.14147,0 -0.25615,-0.11193 -0.25615,-0.25c0,-0.1073 0.06925,-0.19881 0.16652,-0.23427l-0.20806,-0.12138c-0.07696,-0.04312 -0.12878,-0.12413 -0.12878,-0.21695c0,-0.12478 0.09367,-0.22821 0.21613,-0.24697l0.16112,-0.02763c-0.16939,-0.41139 -0.07153,-1.20756 -0.04754,-1.58042c0.05293,-0.82275 0.1985,-1.6724 0.40029,-2.51951c-0.56413,0.74718 -0.96166,1.27617 -0.86882,1.24885h0.01767c0,0 0.25615,0 0.25615,0.25c0,0.25 -0.25615,0.25 -0.25615,0.25h-0.01767c-0.95915,-0.12447 -0.0267,-1.87838 1.2446,-3.48061c0.06571,-0.10669 0.1361,-0.2133 0.21021,-0.31939c0.18577,-0.56813 0.38416,-1.12363 0.5832,-1.65684l0.17332,-0.46431c0.03421,-0.09879 0.12996,-0.16989 0.24272,-0.16989c0.05002,0 0.0967,0.01399 0.13614,0.03819c0.01884,-0.0618 0.03694,-0.12316 0.05411,-0.18404l0.12811,-0.4536c0.02796,-0.1085 0.12859,-0.18882 0.24844,-0.18882c0.14147,0 0.25615,0.11193 0.25615,0.25v0.5h-0.08726c0.00896,0.11458 0.01336,0.23084 0.01358,0.34861zM298.84077,411.33838c-0.11934,0.04759 -0.23867,0.09518 -0.35802,0.14277c0.6357,-0.06151 1.79828,-0.1948 1.60222,-0.68426c-0.0042,-0.01048 -0.01046,-0.01952 -0.01861,-0.02722c-0.39988,0.2067 -0.80634,0.40035 -1.2256,0.56871zM244.8874,411.22384c0.14136,-0.64677 0.28898,-1.43133 0.46061,-2.24054c-0.21271,0.76175 -0.38874,1.54451 -0.46061,2.24054zM253.57727,400.10362l0.05073,0.02302c0.02131,-0.05489 0.04385,-0.10974 0.06757,-0.16451c-0.0394,0.04696 -0.07882,0.09414 -0.11829,0.14149zM284.34552,393.81779l0.03272,-0.03448c-0.01364,-0.00612 -0.02737,-0.0123 -0.04118,-0.01854zM263.73378,402.64669c0.39862,0.19909 -0.15277,-0.5951 -0.51453,-1.13423c-0.60732,-0.48622 -1.24483,-0.94694 -1.90689,-1.27683c0.84422,0.70761 1.49455,1.94813 2.42142,2.41106zM284.38759,393.7875c-0.00274,-0.00122 -0.00548,-0.00245 -0.00823,-0.00369l0.00623,0.00563z" fill="#050308" stroke="none" stroke-width="0.5"/><path d="M286.18774,415.86852c-14.38125,3.67449 -41.87965,-3.35568 -41.87965,-3.35568l6.73648,-27.50028c0,0 -7.59626,-32.16789 -4.54183,-33.15609c8.60345,-2.78348 60.00544,15.21196 60.00544,15.21196l9.52641,35.53614c0,0 -15.46559,9.58945 -29.84685,13.26394z" data-paper-data="{&quot;index&quot;:null}" fill="url(#color-10)" stroke="#000000" stroke-width="0"/><path d="M286.18774,415.86852c-14.38125,3.67449 -41.87965,-3.35568 -41.87965,-3.35568l6.73648,-27.50028c0,0 -7.59626,-32.16789 -4.54183,-33.15609c8.60345,-2.78348 60.00544,15.21196 60.00544,15.21196l9.52641,35.53614c0,0 -15.46559,9.58945 -29.84685,13.26394z" data-paper-data="{&quot;index&quot;:null}" fill="url(#color-11)" stroke="#000000" stroke-width="0"/><g fill="#050308" stroke="none" stroke-width="0.5"><path d="M281.451,415.7219l0.24591,0.72662c-0.03785,-0.00202 -0.07542,-0.00424 -0.1127,-0.00665c-5.57511,-0.36128 -11.13918,0.11049 -16.70457,-0.01751c-2.19437,-0.05047 -4.10732,-0.71009 -5.97733,-1.31369c-0.28002,-0.13336 -0.56718,-0.25463 -0.86079,-0.36312l0.70023,-1.58701l-0.08498,-0.17557l0.16902,-0.07793l0.01597,-0.04892l0.68895,-3.53838l1.08411,-4.70075l1.86182,-6.77167l-0.44479,1.24297l-0.10286,0.38497l-0.24924,0.19208l-0.25615,-0.25v-0.5h0.07649l0.48239,-4.86364v-0.5l0.19462,-0.24273l-0.0069,-1.82175l-1.71591,-6.82518l0.15375,0.65098l1.24178,6.3092l0.08321,0.01226l-0.06627,0.42846l-0.25387,0.21647l-0.22439,-0.12931l-0.25339,-0.42901l-1.38885,-5.66486l-0.14305,-0.31734l-0.09808,-0.14588l-0.04687,-0.18296l-0.54904,-1.63628l-1.1832,-4.10597l-0.00127,-0.00062l0.00142,-0.00277l0.0268,-0.25715l-0.2081,-0.11545l0.20249,-0.34764l-0.33789,-5.98068l1.72768,-5.93606l0.73675,-1.58492l0.49124,-1.26278l0.31012,-0.71205l3.08257,-7.79198l0.41616,-1.02975l2.11801,0.84132l4.5358,3.73818l0.01167,-0.0092l-0.41726,-0.63734l-0.03188,0.02544l-0.32318,-0.38563l-0.05905,-0.15967l0.25615,-0.25l0.11916,0.02864l0.45361,0.22136l4.42124,3.39686l0.02606,-0.02543l0.36225,0.35355l0.07503,0.17678l-0.25615,0.25h-0.37259v-0.0079l-0.01594,0.00383l1.05811,1.16261l0.03252,-0.03269l0.36735,0.34805l0.07796,0.1796l-0.25615,0.25l-0.10763,-0.02307l-0.46438,-0.19785l0.00505,-0.0113l-0.03866,-0.00603l-0.77467,-0.63505v0.17488l3.89459,6.95412l-3.32567,3.94684l-0.30746,0.24701l-1.84049,1.58593l0.47196,-1.32644l-0.10396,0.06088l-0.1354,0.03774l-0.12339,-0.03086l-1.14627,1.74461l0.06319,0.02128l0.85827,-0.40759l-1.04008,0.89622l-2.46918,-1.46501l-1.46202,-1.48093l-0.04341,-0.01753l-0.36798,-0.17957l0.03673,-0.0717l-2.59637,-2.20248l-0.08955,0.0157l-0.14662,-0.04498l-0.42113,-0.27889l0.0039,-0.00562l-0.02328,-0.00857l-0.15284,-1.10071l0.21516,0.14984l6.48673,-2.83833l0.54458,0.55533l0.05296,0.15225l-0.01469,0.08364l-0.87804,1.84218l-0.24139,0.21498l0.01636,0.22283l-0.04549,0.14817l0.97761,0.96261l0.04476,-0.02911l0.15741,0.23044l0.5739,0.10847l0.39515,-0.28048l0.06313,0.08472l0.49225,-0.19419l0.46521,-0.15134l0.06171,-0.01351l0.21742,-2.66167l-0.09337,-0.08742l-0.0848,-0.12977l-0.0112,-0.00007l0.00012,-0.01688l-0.17728,-0.27132l0.00542,-0.00337l-0.01639,-0.01513l-0.53647,-1.7319l-1.25893,-2.33153l-0.31519,-0.3167l-0.00158,-0.0016l-0.19499,-0.02737l0.00053,-0.00363l-0.01167,0.00182l-1.83437,-0.10242l-0.29839,0.31855l-2.94026,0.44643h0.38377l0.25615,0.25l-0.14656,0.22603l-0.36762,0.17939l-0.00998,-0.01948l-0.04573,0.03919l-1.31791,0.74001l0.02487,0.10758l-0.14022,0.22299l-0.41421,0.21576l-0.20024,0.16922l-0.26246,0.31623l-0.98697,2.25461l-0.06881,0.20022l-0.00151,-0.0005l-0.00007,0.00494l-0.27339,1.34048l0.19254,1.65697l0.93387,2.8258l0.03384,-0.00216l0.24981,0.19444l0.12278,0.47933l0.47933,1.61477l0.21725,0.19175l0.12327,0.47509l0.61419,1.64761l0.11936,0.1228l0.21399,0.44811l-0.00336,0.00153l0.00787,0.00847l1.6354,3.65311l3.17643,6.10513l0.02155,0.04343l0.18817,-0.08038l0.23368,0.14747l0.21795,0.44635l-0.00099,0.00045l0.00243,0.00254l0.23917,0.51074l0.38022,0.77935l1.86106,4.56697l0.10923,0.12788l0.18718,0.45916l1.47335,3.15025l0.0535,-0.00546l0.24896,0.1909l0.09797,0.35931l2.20496,6.69078l0.11289,0.26146l0.11028,-0.0327l1.25658,1.20882l0.74431,2.09878l-0.2419,-0.39174l0.24538,0.5643l0.05347,-0.01199l0.37284,1.05131l0.12782,0.38113l-0.04107,-0.1365l0.43046,1.21379l-0.15427,1.39464zM272.22984,359.96414l2.03062,1.52134l0.26397,0.08095l-2.98634,-2.45672l0.547,0.69706zM274.05853,375.49453l0.6867,-0.9682l-0.01434,-0.08272l0.05077,-0.14942l0.10531,-0.14111l-0.43617,0.25798l-0.22405,0.20289l-0.03139,0.00776l0.00577,0.00939l-0.08557,0.0501zM261.14406,403.09952l0.06103,-0.18036l0.10446,-0.5828l-0.13321,0.54219zM268.53712,387.43483l-0.00232,0.16199l0.01016,0.04779h0.06455zM273.07958,395.34884l0.13322,0.42692l0.01711,-0.00835l0.01545,0.03016zM265.7214,382.70745l-0.01477,0.11866l0.06021,0.00899zM260.66374,406.49173l0.05358,-0.12973l0.06916,-0.29041l-0.00088,-0.00018z"/><path d="M282.36779,416.2987l-0.01753,-0.05133l0.48035,-0.15627l0.08667,-0.01468l0.25615,0.25l-0.07936,0.12238c-0.46604,0.01918 -0.90669,0.02239 -1.31535,0.00376z"/><path d="M281.13053,412.67393l-0.08675,-0.24462l-0.19482,-0.58089l0.00046,-0.01505l-0.00775,-0.06127l-0.06286,-0.26717z"/><path d="M280.67099,411.37799l-0.05695,-0.16058l0.09403,0.15227z"/><path d="M273.28185,376.2514l0.1156,-0.09961l-0.01914,0.05381z"/><path d="M303.78345,407.81326l-0.46095,0.29269l-0.21678,0.1852l0.10227,0.19987l-0.18019,0.23883l-0.35805,0.11738l-0.00208,-0.00604l-2.66365,1.44545l-0.30395,0.13446l-0.11076,0.02452l-0.25615,-0.25l0.07502,-0.17678l0.01014,-0.00989l-2.40037,0.87875l0.0203,0.03963l-0.45361,0.22136l-0.11916,0.02864l-0.02834,-0.00151l-0.11741,0.22917l-0.13016,-0.06351l-0.00304,0.00149l-2.00628,1.20544l-1.15355,0.71388l-0.28778,0.18827l-0.17679,0.15371l0.03606,0.12796l-0.0015,0.02711l-0.12467,1.04196l-0.27801,0.02608l-0.22686,0.13047l-0.25615,-0.25l-0.01313,-0.2199l-0.37518,0.2413l-0.01684,0.00351l0.00281,0.00484l-0.33592,0.18562l-0.13016,0.03463l-0.04127,-0.00323l-1.19113,0.8149l-0.35522,-0.06934l0.07105,-0.34669l1.48818,-1.01121l0.14841,-0.18104l0.06641,0.05185l0.02911,-0.01679l0.15783,-0.17194l-0.00475,-0.04822l0.02935,-0.1163l0.02023,-0.03947l-0.01487,-0.01946l-2.01789,-3.4052l-0.00292,0.00095l-0.027,-0.07905h-0.1111v-0.36586l0.25615,-0.25l0.22566,0.13162l-0.27383,-0.88405l-0.20335,-0.18917l-0.12552,-0.47931l0.04112,-0.01026l-1.22634,-3.17614l-0.31843,-0.78921l-0.10711,-0.23771l-0.00028,-0.01372l-0.0043,0.0014l-0.12306,-0.36032l-0.01504,-0.08459l0.25615,-0.25l0.1512,0.04817l-0.02552,-0.59366l-0.00063,-0.00261l-0.12295,-0.48l0.10747,-0.02622l-0.17202,-3.11579l-0.10505,-1.48138l-0.30288,0.57954l-0.17713,0.31565l-0.22716,0.13435l-0.25615,-0.25v-0.5h0.08513l1.65651,-6.01268l0.20378,-3.85399l-0.19606,-0.24309v-0.5h0.04108l-0.47491,-4.23332l-0.06127,-0.34063l-0.00471,-0.04799l0.09069,-0.19085l-0.4314,-0.96883l-0.28323,-0.4849l-0.07403,-0.08495l-0.0247,0.01206l-0.05308,-0.1036l-1.22889,-1.504l-0.07011,-0.06386l-0.01673,-0.02177l-0.0519,-0.04523l-0.36326,-0.23635l-0.05187,-0.04319l-0.88908,-0.43729l-0.28348,-0.11541l-0.02126,-0.02649l-0.00715,0.01047l-0.37155,-0.24175l-0.09023,-0.09804l-0.96265,-0.55643l-0.01136,-0.06619l-0.02572,0.01255l-0.12265,-0.23941l-0.00406,-0.00784l-0.25583,-0.17001l0.34992,0.74939l0.25891,0.35471l0.03645,-0.01524l0.19957,0.4545l0.02294,0.10356l-0.25615,0.25l-0.23543,-0.15132l-0.13461,-0.28779l-2.1434,-2.64815l-0.22016,-0.10744l-0.14656,-0.22602l0.25615,-0.25l0.09265,0.01686l0.30277,0.10679l-0.9415,-1.34992l-0.50973,-0.05427l-0.0729,-0.12685l-0.2354,-0.07022l-0.11455,-0.33541l0.34367,-0.11181l5.3143,-1.115l0.35726,-0.11622l0.08668,-0.01468l0.13976,0.04046l5.98294,-0.04046h0.37487l0.20026,0.0941l2.3808,0.57686l0.16791,-0.0612l0.04059,0.00312l0.5028,0.0701l-0.01458,0.0996l1.12085,0.36088l0.23724,-0.15555l0.18113,0.07322l0.35906,0.35043l0.11069,0.10549l0.32054,0.101l0.0347,0.07354l0.02569,-0.02001l0.3183,0.38921l0.05724,0.15753l-0.2097,0.2459l0.3124,0.50179l1.93269,2.84494l-0.27477,-1.08588l-0.04466,-0.11394l-0.00603,-0.01472l-0.03261,0.01029l-0.15569,-0.47022l-0.01424,-0.08243l0.25615,-0.25l0.24005,0.16256l0.18806,0.45883l0.10035,0.23993l1.57973,3.30753l0.04263,0.0624l0.04496,0.14152l-0.0006,0.01729l0.08318,0.09458l0.13858,0.26087l-0.00872,0.00441l0.09226,0.18842l0.1566,0.33309l0.94019,3.9898l0.09169,-0.0165l0.2498,0.19444l0.12295,0.48l-0.13984,0.03412l-0.22668,2.88683v0.4351l-0.15943,0.23156l-0.20644,0.83826l-0.03118,0.02961l0.01215,0.00725l-0.1502,0.23952l-0.11958,0.103l0.09394,1.49476l0.01601,0.09052l0.65173,1.00702l0.02884,0.01877l-0.01043,0.01527l0.00006,0.00011l0.0477,0.0142l0.12259,0.16725l1.13077,0.98213l4.8698,4.70831l0.00878,0.03588l0.01099,-0.00585l0.14788,0.26444l0.03359,0.12384l-0.25615,0.25l-0.04231,-0.00339l3.01352,2.81473l0.13666,0.12936l0.24532,0.23289l-0.96152,-1.67504l-0.02249,0.01756l-0.31876,-0.38888l-0.05741,-0.15773l0.25615,-0.25l0.16692,0.06036l0.27182,0.2252l1.85355,2.64378c-0.35838,0.12044 -0.70777,0.25974 -1.04692,0.41669c0,0 -1.96837,2.30205 -3.13632,2.84069c-0.76773,0.35407 -5.41059,1.07118 -5.41059,1.07118z"/></g><path d="M286.18774,415.86852c-14.38125,3.67449 -41.87965,-3.35568 -41.87965,-3.35568l6.73648,-27.50028l-6.85692,-33.50269c0,0 22.48994,-20.60237 38.7084,-25.84114c16.21846,-5.23877 32.1153,1.03146 32.1153,1.03146l-8.50315,40.36824l9.52641,35.53614c0,0 -15.46559,9.58945 -29.84685,13.26394z" data-paper-data="{&quot;index&quot;:null}" fill="none" stroke="#000000" stroke-width="3"/></g></g><g fill="none" stroke="#000000" stroke-width="3" stroke-linecap="round"><path d="M226.43115,-72.25801c2.05042,-1.78294 4.31309,-1.39752 8.30274,2.05026c3.98966,3.44778 5.88373,10.20937 5.88373,10.20937"/><path d="M240.67104,-59.71637c0,0 0.15853,-10.73911 4.07517,-16.45868c3.91664,-5.71958 6.06438,-2.33724 6.78612,0.59766"/></g><g stroke="#000000" stroke-width="3" stroke-linecap="round"><path d="M298.74576,71.77082l9.05647,27.10248l-15.12624,29.06882l16.97262,110.85878c0,0 -39.49875,19.81022 -66.52368,19.28033c-27.02493,-0.52989 -68.95932,-21.93681 -68.95932,-21.93681l17.52,-107.55713l-14.80365,-31.00431l6.97866,-25.4706l55.88074,12.92557z" data-paper-data="{&quot;index&quot;:null}" fill="#ff5353"/><g><path d="M311.927,250.23658c0,0 -43.30622,17.89655 -70.49091,17.86008c-27.18469,-0.03647 -72.10064,-18.56517 -72.10064,-18.56517c0,0 -0.81055,-6.97118 -0.21696,-10.14333c0.54963,-2.9372 3.6568,-8.23901 3.6568,-8.23901c0,0 46.69483,18.19745 68.52692,18.20662c21.99468,0.00924 69.03538,-19.1096 69.03538,-19.1096c0,0 2.47075,5.74428 2.74383,9.17879c0.25557,3.21436 -1.15442,10.81162 -1.15442,10.81162z" data-paper-data="{&quot;index&quot;:null}" fill="#ff5353"/><path d="M183.44393,255.18058c0,0 -0.35267,-9.12732 0.01568,-10.60052c0.43889,-1.75534 3.47782,-8.47923 3.47782,-8.47923" fill="none"/><path d="M240.54399,249.91617v16.11547" fill="none"/><path d="M295.92833,236.49649c0,0 1.84856,4.18088 2.2767,6.63873c0.45826,2.63073 0.38864,10.97858 0.38864,10.97858" fill="none"/><path d="M266.77343,246.16966c0,0 1.5553,5.66926 1.87503,7.20541c0.27441,1.3184 0.10066,9.93146 0.10066,9.93146" fill="none"/><path d="M205.13416,260.21402c0,0 -0.16688,-6.39511 0.11601,-8.60229c0.31479,-2.45607 1.68727,-7.78366 1.68727,-7.78366" fill="none"/></g></g><g stroke="#000000" stroke-width="3" stroke-linecap="round"><path d="M307.65928,63.04948c0,0 2.81252,2.51772 3.35904,4.00249c0.60875,1.65383 0.12694,5.46809 0.12694,5.46809c0,0 -43.30622,18.18315 -70.49091,18.14824c-27.18469,-0.03491 -72.10064,-18.82319 -72.10064,-18.82319c0,0 -0.15664,-4.0342 0.4183,-5.59626c0.57165,-1.55314 3.02154,-3.74947 3.02154,-3.74947c0,0 46.69483,17.41988 68.52692,17.42866c21.99468,0.00884 67.13883,-16.87857 67.13883,-16.87857z" data-paper-data="{&quot;index&quot;:null}" fill="#ff5353"/><path d="M183.69673,76.65389c0,0 -0.00784,-2.48046 0.36051,-3.89071c0.43889,-1.68033 2.09851,-5.5237 2.09851,-5.5237" fill="none"/><path d="M239.7623,80.4645v8.96612" fill="none"/><path d="M295.66392,69.03271c0,0 1.16001,2.3819 1.43812,3.69558c0.3177,1.50064 0.36516,4.82223 0.36516,4.82223" fill="none"/><path d="M265.99175,76.87807c0,0 1.21047,3.30529 1.5302,4.7758c0.27441,1.26206 0.27308,3.51785 0.27308,3.51785" fill="none"/><path d="M204.35247,83.15434c0,0 0.28333,-3.11118 0.58587,-4.5402c0.29851,-1.40998 1.21741,-3.97761 1.21741,-3.97761" fill="none"/></g><g fill="#3e3571" stroke="none" stroke-width="0" stroke-linecap="butt" font-family="&quot;Helvetica Neue&quot;, Helvetica, Arial, sans-serif" font-weight="400" font-size="16" text-anchor="start"/><g stroke="#000000"><path d="M191.6296,-42.15109c7.96189,-6.17958 26.93305,-6.14715 49.25847,-7.65046c33.17158,-2.23365 44.81017,10.36952 44.81017,10.36952c0,0 -86.08851,1.09435 -95.7379,1.21701z" fill="#ae2e2e" stroke-width="0" stroke-linecap="round"/><g stroke-linecap="butt"><path d="M214.93445,-39.4295c0,0 -5.20892,1.53355 -6.35097,3.92566c-1.80169,3.77377 -7.50653,17.09248 -7.50653,17.09248c0,0 -15.41574,-4.18193 -15.09184,-11.29674c0.1587,-3.48618 2.07274,-10.40013 4.3745,-15.30622c1.98542,-4.23184 4.39405,-6.73402 4.62,-7.04246" data-paper-data="{&quot;index&quot;:null}" fill="url(#color-12)" stroke-width="0"/><path d="M203.23865,-27.22798c-1.80169,3.77377 -3.19619,7.78214 -3.19619,7.78214c0,0 -15.41574,-4.18193 -15.09184,-11.29674c0,0 8.91952,4.73169 12.07339,5.3378c2.92486,0.5621 6.21464,-1.82319 6.21464,-1.82319z" data-paper-data="{&quot;index&quot;:null}" fill="#c44444" stroke-width="0"/><path d="M216.0352,-39.9569c-9.96995,1.48988 -15.04396,21.54022 -15.04396,21.54022c0,0 -15.45472,-5.08322 -15.30764,-11.79769c0.13423,-6.12789 2.29233,-11.94608 2.29233,-11.94608" data-paper-data="{&quot;index&quot;:null}" fill="none" stroke-width="3"/></g><g stroke-linecap="butt"><path d="M252.63614,-53.93192c0,0 -10.84017,19.40777 -13.31193,22.48074c-2.49818,3.1058 -8.88406,8.8873 -8.88406,8.8873c0,0 -3.60312,-3.74769 -7.41625,-8.99452c-3.47999,-4.78845 -13.34879,-17.80495 -13.34879,-17.80495" data-paper-data="{&quot;index&quot;:null}" fill="url(#color-13)" stroke-width="0"/><path d="M238.80697,-31.96842c-2.33963,3.1058 -8.32024,8.8873 -8.32024,8.8873c0,0 -3.37445,-3.74769 -6.94558,-8.99452c0,0 3.79949,2.50841 6.49858,2.52736c2.69908,0.01895 8.76725,-2.42014 8.76725,-2.42014z" data-paper-data="{&quot;index&quot;:null}" fill="#c44444" stroke-width="0"/><path d="M245.35081,-41.10124c0,0 -3.55484,6.57709 -6.02661,9.65006c-2.49818,3.1058 -8.88406,8.8873 -8.88406,8.8873c0,0 -3.60312,-3.74769 -7.41625,-8.99452c-3.47999,-4.78845 -8.08563,-8.72601 -8.08563,-8.72601" data-paper-data="{&quot;index&quot;:null}" fill="none" stroke-width="3"/></g><g stroke-linecap="butt"><path d="M283.67925,-52.73001c0,0 4.4618,3.7822 6.14503,6.81898c1.65521,2.98624 3.8717,11.25261 3.8717,11.25261c0,0 -1.02418,3.84243 -1.1687,4.14016c-2.73752,5.64024 -14.36226,11.13344 -14.36226,11.13344c0,0 1.17717,-7.50786 -4.02506,-13.28149c-1.97827,-2.19556 -4.58941,-3.81888 -7.06602,-4.9877c-4.03612,-1.9048 -8.57989,-12.96913 -8.57989,-12.96913" data-paper-data="{&quot;index&quot;:null}" fill="url(#color-14)" stroke-width="0"/><path d="M292.44107,-30.60447c-2.73752,5.64024 -14.36226,11.13344 -14.36226,11.13344c0,0 1.17717,-7.50786 -4.02506,-13.28149c0,0 5.20463,5.02793 8.49912,5.4128c2.7265,0.31852 9.8882,-3.26475 9.8882,-3.26475z" data-paper-data="{&quot;index&quot;:null}" fill="#c44444" stroke-width="0"/><path d="M292.75821,-43.91423c0,0 1.21255,6.6106 0.93778,9.2558c-0.21096,2.03105 -1.02418,3.84243 -1.1687,4.14016c-2.73752,5.64024 -14.36226,11.13344 -14.36226,11.13344c0,0 1.17717,-7.50786 -4.02506,-13.28149c-1.97827,-2.19556 -4.58941,-3.81888 -7.06602,-4.9877c-4.03612,-1.9048 -7.13252,-2.31124 -7.13252,-2.31124" data-paper-data="{&quot;index&quot;:null}" fill="none" stroke-width="3"/></g><g stroke-linecap="butt"><path d="M273.46352,-56.20785c-0.02033,0.72955 -4.38919,20.72265 -8.43107,25.14862c-4.42879,4.84965 -11.06218,7.25418 -11.06218,7.25418c0,0 -2.42147,-6.69226 -6.75274,-13.50921c-3.67996,-5.79187 -8.99471,-11.60055 -12.65853,-14.24713" data-paper-data="{&quot;index&quot;:null}" fill="url(#color-15)" stroke-width="0"/><path d="M264.94625,-31.14544c-4.42879,4.84965 -11.06218,7.25418 -11.06218,7.25418c0,0 -0.83607,-2.56661 -2.41424,-5.9572c-1.9848,0 3.04315,1.21252 5.00354,0.90217c4.18209,-0.66207 9.27254,-3.07481 8.47288,-2.19915z" data-paper-data="{&quot;index&quot;:null}" fill="#c44444" stroke-width="0"/><path d="M269.64773,-41.07628c-0.02033,0.72955 -0.5734,5.59107 -4.61528,10.01704c-4.42879,4.84965 -11.06218,7.25418 -11.06218,7.25418c0,0 -4.59308,-14.10003 -12.56916,-19.86161" data-paper-data="{&quot;index&quot;:null}" fill="none" stroke-width="3"/></g></g><path d="M198.43405,30.93325l-0.52527,-0.51782l-0.14603,-0.97743l-0.03939,-0.0907l0.47071,-1.05909l12.03593,-1.42457l10.51606,0.9491l1.10989,0.1883l-0.16976,-0.54323l-0.043,-0.26269l0.81952,-0.81952l0.67299,0.35173l0.48255,0.67489l-0.08834,0.06317l3.05838,3.22504l0.40373,0.59433l0.37548,0.5055l0.28887,1.05921l-0.00898,0.00245l0.01594,0.02489l0.03575,0.1891l0.21175,1.82169l-1.11419,4.79213l-0.01041,0.19963l0.00242,0.00048l-0.00294,0.01471l0.01072,0.62472l-0.08426,0.09223l0.00149,0.06583l0.03872,0.01452l-0.03798,0.10129l-0.22794,1.02034l-1.29166,0.75816l-8.47142,-2.07505l-0.96383,-0.16687l-0.65971,-0.9529l0.95291,-0.65971l0.02142,0.00405l0.41909,-0.11512h0.97853l2.01186,-0.13522l0.15385,-0.10354l-0.00984,-0.08127l0.0603,-0.07595l-0.07729,-0.11784l-0.96035,-1.77305l-0.08404,0.06002l-0.48372,-0.67721l-0.15819,-0.48409l0.0005,-0.02876l-1.59389,0.52203l-5.17144,1.58212l-0.17702,0.15225l0.00817,0.01181l-0.11523,0.07977l-0.3629,0.3038l-0.05642,0.00794l0.01315,0.02105l-0.77211,0.48257l-0.44506,0.13126l-0.27505,-0.04729l-0.02387,0.07405l-1.03663,0.51831l-0.51831,-1.03662l0.03457,-0.09635z" fill="#050308" stroke="none" stroke-width="0.5" stroke-linecap="butt"/><g fill="#050308" stroke="none" stroke-width="0.5" stroke-linecap="butt"><path d="M252.33582,41.63446l0.29326,-0.87913l1.17848,0.61388l-0.28543,1.80264l-2.02614,0.51727l-2.40927,-1.45381l-1.44587,-3.64508l3.72401,-3.71158l3.53297,0.18421l9.29521,6.74614l0.02279,0.80076l-0.80077,0.0228l-8.42807,-6.39226l-3.28511,-0.28003l-2.9394,2.78938l1.53315,3.24402z"/><path d="M259.74696,38.62185l0.27011,-0.00499l1.19262,0.76588l0.02569,0.05215l0.01402,-0.01282l0.48852,0.53415l0.14709,0.30179l-0.1726,0.4997l0.50757,0.32986l0.92791,0.7146l0.01091,0.23962l0.37907,-0.21628l0.64608,0.47363l-0.29072,0.65694l-2.46634,1.74791l-3.80141,1.22364l-4.12201,1.66869l-0.02563,0.00435l-0.42816,-0.09343l-0.21792,-0.3802l-0.00151,-0.01015l-0.06608,-0.44709l1.12038,-2.77935l2.41829,-1.51278l-1.27907,-3.18005l-3.54274,0.32344l-0.5942,0.47749l1.7543,2.08085l-2.13983,0.64497l-0.74072,-0.59554l-1.10896,-3.53064l2.60541,-2.75124l0.30209,-0.03728l0.9409,-0.05637l1.5081,-0.26161l0.66848,-0.10295l0.64608,0.47363l-0.06335,0.35897z"/></g><path d="M271.90747,38.11886l-0.94658,-0.07513l-3.92204,-3.82531l-1.89687,-2.05714l-11.66578,-1.83256l-9.64566,-4.08653l-0.21961,-4.72712l6.89007,-5.79992l3.58496,1.95992l-2.1169,1.44976l1.1914,4.70132l3.4053,-0.58593l0.51476,-2.3019l3.34749,-0.13731l3.3729,1.97407l3.03823,3.66973l7.97977,1.63342l2.06006,-0.0185l4.56256,-1.6182l2.25969,-0.19074l2.66328,-0.08535l-8.35676,7.57575l-4.66081,3.85083l-0.99175,0.45161z" fill="#050308" stroke="none" stroke-width="0.5" stroke-linecap="butt"/></g></g></svg>