<svg version="1.1" xmlns="http://www.w3.org/2000/svg" xmlns:xlink="http://www.w3.org/1999/xlink" width="535.58433" height="416.64768" viewBox="0,0,535.58433,416.64768"><defs><linearGradient x1="249.03134" y1="325.59886" x2="243.09923" y2="384.14115" gradientUnits="userSpaceOnUse" id="color-1"><stop offset="0" stop-color="#ff6666" stop-opacity="0"/><stop offset="1" stop-color="#ff6666"/></linearGradient><linearGradient x1="243.86601" y1="168.77326" x2="243.86601" y2="227.61533" gradientUnits="userSpaceOnUse" id="color-2"><stop offset="0" stop-color="#ff6666" stop-opacity="0"/><stop offset="1" stop-color="#ff6666"/></linearGradient><linearGradient x1="336.92278" y1="285.50636" x2="423.06431" y2="371.6479" gradientUnits="userSpaceOnUse" id="color-3"><stop offset="0" stop-color="#ff6666" stop-opacity="0"/><stop offset="1" stop-color="#ff6666"/></linearGradient></defs><g transform="translate(27.79216,-18.43674)"><g data-paper-data="{&quot;isPaintingLayer&quot;:true}" fill-rule="nonzero" stroke-linejoin="miter" stroke-miterlimit="10" stroke-dasharray="" stroke-dashoffset="0" style="mix-blend-mode: normal"><path d="M-27.79215,435.08442v-416.64767h535.58433v416.64768z" fill="#ff6666" stroke="none" stroke-width="NaN" stroke-linecap="butt"/><path d="M79.45352,386.443l-41.85953,-57.47211h409.29331l-45.34784,57.47211z" fill="#840000" stroke="#610000" stroke-width="0" stroke-linecap="butt"/><path d="M447.51672,327.67798l-45.48732,58.49475h-323.07657l-41.98827,-58.49475" fill="none" stroke="#610000" stroke-width="3" stroke-linecap="butt"/><path d="M48.41491,401.3796l-17.29732,-97.86199l422.94236,23.2512l-19.59052,92.9312z" fill="url(#color-1)" stroke="#610000" stroke-width="0" stroke-linecap="butt"/><path d="M130.7512,226.86812l-27.20378,-57.47211h265.9926l-29.47077,57.47211z" fill="#840000" stroke="#610000" stroke-width="0" stroke-linecap="butt"/><path d="M369.94907,168.1031l-29.56142,58.49475h-209.96184l-27.28745,-58.49475" fill="none" stroke="#610000" stroke-width="3" stroke-linecap="butt"/><path d="M115.92793,247.50151l-18.04558,-78.72824h288.47465l-14.55289,78.72824z" fill="url(#color-2)" stroke="#610000" stroke-width="0" stroke-linecap="butt"/><path d="M307.78667,314.64247l127.37322,-44.96387l17.04052,72.83319c0,0 -13.95467,34.97974 -42.22721,43.98223c-26.13022,8.32034 -121.99989,3.02909 -121.99989,3.02909z" fill="url(#color-3)" stroke="none" stroke-width="0" stroke-linecap="butt"/><path d="M369.73175,166.29885c0,19.64325 -59.63032,35.56726 -133.18804,35.56726c-73.55772,0 -133.18804,-15.92401 -133.18804,-35.56726c0,-19.64325 59.63032,-35.56726 133.18804,-35.56726c73.55773,0 133.18804,15.92401 133.18804,35.56726z" fill="#ff0000" stroke="#cc0000" stroke-width="3" stroke-linecap="butt"/><path d="M162.96517,192.11015l-55.79267,82.92121l81.8975,20.98623c0,0 -7.22638,28.53582 -18.19178,38.64454c-10.87316,10.02369 -47.32622,21.75486 -47.32622,21.75486l-98.78886,-74.2196l82.92121,-125.9174" fill="#ff0000" stroke="#cc0000" stroke-width="3" stroke-linecap="round"/><path d="M447.58511,325.55726c0,22.43962 -92.11216,40.63054 -205.73825,40.63054c-113.6261,0 -205.73826,-18.19091 -205.73826,-40.63054c0,-22.43962 92.11216,-40.63054 205.73826,-40.63054c113.6261,0 205.73826,18.19091 205.73826,40.63054z" fill="#ff0000" stroke="#cc0000" stroke-width="3" stroke-linecap="butt"/><path d="M156.47281,293.20893c0,10.59157 -30.64717,32.50121 -43.30131,32.50121c-12.31003,0 -54.24826,-8.12554 -54.78534,-18.31826c-1.16836,-22.17311 32.58146,-20.03721 54.78534,-20.03721c12.65414,0 43.30131,-4.73732 43.30131,5.85425z" fill="#ff0000" stroke="#cc0000" stroke-width="0" stroke-linecap="butt"/></g></g></svg>