<svg version="1.1" xmlns="http://www.w3.org/2000/svg" xmlns:xlink="http://www.w3.org/1999/xlink" width="139.14134" height="139.22819" viewBox="0,0,139.14134,139.22819"><defs><linearGradient x1="240.00001" y1="113.67935" x2="240.00001" y2="246.3207" gradientUnits="userSpaceOnUse" id="color-1"><stop offset="0" stop-color="#ff6666"/><stop offset="1" stop-color="#a90000"/></linearGradient><linearGradient x1="175.4438" y1="237.40183" x2="178.29334" y2="282.98368" gradientUnits="userSpaceOnUse" id="color-2"><stop offset="0" stop-color="#e6b1e5"/><stop offset="1" stop-color="#ffdfc2"/></linearGradient><radialGradient cx="172.74943" cy="253.75403" r="37.74536" gradientUnits="userSpaceOnUse" id="color-3"><stop offset="0" stop-color="#d7a7e1"/><stop offset="1" stop-color="#d7a7e1" stop-opacity="0"/></radialGradient></defs><g transform="translate(-170.91576,-110.42934)"><g data-paper-data="{&quot;isPaintingLayer&quot;:true}" fill-rule="nonzero" stroke-linejoin="miter" stroke-miterlimit="10" stroke-dasharray="" stroke-dashoffset="0" style="mix-blend-mode: normal"><path d="M173.67934,246.32069v-132.64134h132.64134v132.64135z" fill="url(#color-1)" stroke="none" stroke-width="NaN" stroke-linecap="butt"/><g fill="none" stroke="#000000" stroke-width="3" stroke-linecap="round"><path d=""/><path d=""/></g><g data-paper-data="{&quot;index&quot;:null}"><path d="M287.72285,128.3724c0,0 3.21014,6.88924 5.18211,17.59347c2.88984,15.68653 5.20137,38.98605 4.48959,56.2727c-0.54553,13.24857 -20.02855,37.74009 -42.75632,45.85307c-9.69827,-0.01998 -19.39653,-0.03464 -29.09474,-0.03656c-18.37712,-6.91257 -31.94825,-25.35098 -33.63988,-36.11634c-1.39069,-8.85027 -3.93792,-17.72801 -5.85735,-25.79198c-3.42002,-14.36833 -0.68766,-25.44518 -1.17991,-32.53145c-0.00888,-0.12774 0.03653,-5.12241 0.59644,-9.17024c0.43529,-3.14704 1.41604,-5.58747 1.41604,-5.58747z" fill="#ae2e2e" stroke="#000000" stroke-width="3" stroke-linecap="butt"/><g stroke-linecap="butt"><g fill="#ae2e2e" stroke="#000000"><g stroke-width="0"><path d="M204.82657,238.42039c17.60046,-3.13613 24.17433,8.52228 38.14086,6.88518c10.36983,-1.21552 27.80498,-16.00607 41.06367,-16.63855c-5.52208,7.23777 -13.08554,14.37541 -21.59445,19.4417c-15.42822,-0.03548 -30.8564,-0.06253 -46.28445,-0.05125c-4.24695,-2.75903 -8.06733,-6.09618 -11.32564,-9.63708z"/></g><path d="M204.83916,245.54513c-1.86913,-5.81497 -0.83178,-10.28796 -0.62246,-10.82536l18.13141,13.33516c-5.40278,0.00054 -10.80554,0.0053 -16.20829,0.01554c-0.58816,-0.86288 -1.03928,-1.71215 -1.30066,-2.52534z" data-paper-data="{&quot;index&quot;:null}" stroke-width="3"/><path d="" data-paper-data="{&quot;index&quot;:null}" stroke-width="3"/><path d="" data-paper-data="{&quot;index&quot;:null}" stroke-width="3"/><path d="M284.66251,226.24204c3.52596,8.26574 3.4862,8.46008 3.4862,8.46008h-0.00001c0,0 2.42583,7.0372 2.69794,13.47457c-6.57051,-0.01473 -13.14103,-0.03126 -19.71155,-0.04727c-1.2186,-0.55424 -2.15116,-0.81253 -2.15116,-0.81253c0,0 -0.01933,0.29795 -0.07927,0.80711c-3.69632,-0.00893 -7.39265,-0.01761 -11.08897,-0.02563z" stroke-width="2.5"/></g><g fill="none" stroke="none" stroke-width="1" font-family="sans-serif" font-weight="normal" font-size="12" text-anchor="start"/><g fill="none" stroke="none" stroke-width="1" font-family="sans-serif" font-weight="normal" font-size="12" text-anchor="start"/><g fill="none" stroke="none" stroke-width="1" font-family="sans-serif" font-weight="normal" font-size="12" text-anchor="start"/></g><path d="M237.64754,116.78319c-0.35801,1.2202 -0.5323,2.09252 -0.5323,2.09252c0,0 -0.14776,-0.84808 -0.42163,-2.09122" fill="none" stroke="#000000" stroke-width="3" stroke-linecap="round"/><path d="M307.32741,126.68978c-0.11354,0.06891 -0.23034,0.13578 -0.35045,0.20053c-2.18818,1.17964 -5.54376,1.74466 -7.94675,2.37992c-0.11267,0.0298 -3.40138,0.76484 -3.60329,0.92963c-1.70339,1.39037 0.6653,5.44911 0.96649,6.81095c0,0 0.33544,1.55028 -1.39913,1.86966c-1.73455,0.31936 -2.06997,-1.23094 -2.06997,-1.23094c-0.68107,-3.23071 -3.22838,-6.66801 0.05925,-9.70972c3.15928,-2.92297 10.40937,-1.21174 13.2326,-4.50741c1.50842,-1.76082 0.9974,-4.69593 -0.43178,-6.90505c0.52354,-0.00317 1.04707,-0.00637 1.57061,-0.0096c-0.01048,3.39067 -0.01967,6.78135 -0.02758,10.17203z" fill="#000000" stroke="none" stroke-width="0.5" stroke-linecap="butt"/><path d="M278.88811,122.72926c0,0 22.14034,12.38088 28.41775,15.22153c-0.01507,10.06285 -0.01895,20.12572 -0.01196,30.18859c-9.47116,1.28923 -22.35084,0.71405 -22.35084,0.71405z" fill="#ae2e2e" stroke="#000000" stroke-width="0" stroke-linecap="round"/><path d="M303.7443,238.63785c-0.8524,-1.83555 -0.70839,-4.03358 -1.21191,-5.95893c-0.14055,-0.53741 -0.86634,-4.40301 -1.45507,-4.62143c-1.13473,-0.42101 -7.26407,1.13941 -8.79935,1.42442c0,0 -1.73455,0.31936 -2.06997,-1.23094c-0.33544,-1.5503 1.3991,-1.86966 1.3991,-1.86966c2.59071,-0.47338 8.81435,-2.20396 11.17796,-1.11357c1.07716,0.49694 2.33434,3.5337 2.63944,4.42334c0.94546,2.75692 0.73246,5.65965 2.08794,8.16808c0.01015,1.83984 0.02065,3.67969 0.03148,5.51953c-1.74423,-1.39004 -3.1324,-3.30408 -3.79961,-4.74083z" fill="#000000" stroke="none" stroke-width="0.5" stroke-linecap="butt"/><path d="M178.73139,192.01301c0.75783,-0.50812 1.86895,-0.21971 2.80343,-0.32958c0,0 1.76453,-0.0969 1.85129,1.48296c0.08676,1.57988 -1.67778,1.67678 -1.67778,1.67678c-2.65537,-0.24029 -3.48292,4.77139 -5.32435,6.38503c-0.27481,0.24082 -0.56605,0.45936 -0.87136,0.65735c-0.00222,-1.76015 -0.0047,-3.5203 -0.00744,-5.28045c0.85702,-1.65103 1.56632,-3.47916 3.22621,-4.59209z" fill="#000000" stroke="none" stroke-width="0.5" stroke-linecap="butt"/><path d="M186.1704,141.03732c0,0 0.8151,-3.49369 3.01667,-7.72479c1.33083,-2.55764 3.16825,-5.38473 5.63852,-7.87243c0.77724,-0.78272 1.63543,-1.54143 2.55908,-2.26617c1.67006,-1.3104 3.55414,-2.50973 5.56067,-3.53908c2.37135,-1.21651 4.91379,-2.1956 7.47623,-2.84008c4.16573,0.00231 8.33147,0.00274 12.49721,0.00129c1.66542,0.30321 3.34953,0.66931 4.94458,1.04973c4.95836,1.18257 9.05605,2.50356 9.05605,2.50356c0,0 4.30904,-2.7394 7.40846,-3.57706c12.19954,-3.29708 10.08957,-2.76778 22.67205,-1.03438c12.58248,1.73341 14.21766,4.4008 16.08561,6.37376c2.37036,2.50364 4.1378,5.05776 5.47448,7.69654z" fill="#ae2e2e" stroke="#000000" stroke-width="3" stroke-linecap="butt"/><g><path d="M236.95372,223.137l-23.1989,24.92254c-1.89783,0.00189 -3.79565,0.00437 -5.69347,0.00752c-0.06663,-0.15278 -0.12429,-0.31499 -0.17128,-0.4872c-0.37545,-1.37595 1.70875,-4.96777 1.16715,-5.78484c-1.75599,-2.64905 -7.49421,-6.32227 -7.49421,-6.32227c0,0 -5.86044,0.17331 -8.14377,-0.08904c-2.29651,-0.26388 -8.22968,-4.46315 -8.22968,-4.46315c0,0 3.97322,-1.62178 5.28426,-3.24886c1.39957,-1.73695 2.86497,-6.86482 2.86497,-6.86482c0,0 -9.41825,5.0479 -13.41587,3.49674c-1.29666,-0.50314 -2.86171,-1.9767 -4.39671,-3.75824c-0.00083,-4.31037 -0.00328,-8.62075 -0.0073,-12.93112c0.40266,-0.33943 0.75406,-0.68587 1.02515,-1.03187c2.43701,-3.11045 6.78153,-4.8612 5.83509,-12.28336c-0.52441,-4.11249 -3.3353,-5.86138 -5.74389,-8.02185c-0.39899,-0.35789 -0.78693,-0.72707 -1.15162,-1.12016c-0.01116,-5.06618 -0.02446,-10.13235 -0.03989,-15.19851c0.42331,-0.87047 0.8783,-1.72283 1.34508,-2.54682c2.42379,-4.27869 2.28567,-9.97967 2.55835,-11.28988c0.428,-2.05651 -0.77761,-1.99784 -1.12857,-1.93974l20.68112,-4.28482z" fill="#ae2e2e" stroke="none" stroke-width="0" stroke-linecap="butt"/><path d="M178.2186,154.18204l-0.09274,0.01922c0,0 0.03467,-0.0096 0.09274,-0.01922z" fill="#ae2e2e" stroke="none" stroke-width="0" stroke-linecap="butt"/><path d="M175.52621,220.54542c1.53499,1.78152 3.10003,3.25507 4.39668,3.7582c3.99762,1.55117 13.41587,-3.49672 13.41587,-3.49672c0,0 -1.4654,5.12787 -2.86497,6.86482c-1.31104,1.62708 -5.28427,3.24886 -5.28427,3.24886c0,0 5.93317,4.19926 8.22968,4.46314c1.17025,0.13444 4.77755,0.07847 6.9147,0.76319c2.03276,0.65128 3.82448,3.87454 3.82448,3.87454" fill="none" stroke="#000000" stroke-width="3" stroke-linecap="round"/><path d="M175.48364,185.15705c0.36467,0.39308 0.75261,0.76225 1.15158,1.12012c2.40859,2.16047 5.21949,3.90936 5.7439,8.02185c0.94643,7.42216 -3.39809,9.17292 -5.8351,12.28337c-0.27108,0.346 -0.62247,0.69242 -1.02511,1.03184" fill="none" stroke="#000000" stroke-width="3" stroke-linecap="round"/><path d="M178.12585,154.20129c0,0 0.76596,0.53954 0.26714,2.93633c-0.29783,1.43102 0.33502,6.44414 -2.24112,11.35534c-0.24328,0.46379 -0.48041,0.93409 -0.7083,1.40922" fill="none" stroke="#000000" stroke-width="3" stroke-linecap="round"/></g><g stroke="#000000" stroke-linecap="round"><path d="M297.49352,175.83706c0,0 4.90049,2.47303 9.81802,6.84917c0.02514,14.54195 0.07267,29.08385 0.14164,43.62559c-0.63156,0.65792 -1.09439,1.10342 -1.2887,1.30556c-1.0009,1.04121 0.74003,-1.9758 -0.52486,-4.12086c-1.46179,-2.47902 -5.92991,-4.14521 -6.99386,-2.7206c-3.13767,4.20137 -5.45737,11.56186 -2.97146,16.36919c1.39371,2.6952 7.94034,4.59079 7.94034,4.59079c0,0 -3.60336,1.86518 -8.25373,3.69993c-1.86576,0.73613 -11.55934,2.64641 -17.69885,-0.13213c-6.38751,-2.89076 -9.19155,-10.49028 -9.19155,-10.49028z" fill="#ae2e2e" stroke-width="0"/><path d="M297.72227,175.8245c0,0 4.74944,2.3968 9.5889,6.64662" fill="none" stroke-width="3"/><path d="M307.45424,226.53487c-0.51488,0.52938 -0.89088,0.89294 -1.06102,1.06994c-1.0009,1.04121 0.74003,-1.97579 -0.52486,-4.12085c-1.46179,-2.47902 -5.9299,-4.14522 -6.99385,-2.72061c-3.13767,4.20137 -5.45737,11.56187 -2.97146,16.3692c1.39371,2.6952 7.94032,4.59078 7.94032,4.59078c0,0 -3.1835,2.28907 -8.06696,4.42589c-1.69645,0.74231 -13.57015,1.47221 -19.89013,-1.38963c-6.23464,-2.82318 -6.92799,-9.23365 -6.92799,-9.23365" fill="none" stroke-width="3"/></g><path d="M282.01501,122.17081c0,0 3.47809,3.54617 8.51814,7.06454c5.47693,3.82337 13.80239,7.6363 16.77242,8.91162c-0.01599,10.78494 -0.01914,21.56991 -0.00983,32.35487c-6.05287,2.78141 -12.6071,4.88724 -12.6071,4.88724z" fill="#ae2e2e" stroke="#000000" stroke-width="0" stroke-linecap="round"/><path d="M307.30557,138.14697c-2.97003,-1.27532 -11.29549,-5.08825 -16.77242,-8.91162c-5.04005,-3.51837 -8.51814,-7.06454 -8.51814,-7.06454" fill="#ae2e2e" stroke="#000000" stroke-width="3" stroke-linecap="round"/><g data-paper-data="{&quot;index&quot;:null}" stroke="#000000" stroke-linecap="butt"><path d="M299.54201,157.22382c0.81666,4.91203 2.43213,11.62798 7.14946,13.59932c0.1995,0.08337 0.40139,0.16151 0.60476,0.23475c0.00411,4.54852 0.01043,9.09704 0.01894,13.64555c-1.15333,1.16473 -2.40135,2.02304 -3.70923,2.31922c-5.5453,1.25573 -22.09557,-3.31597 -22.727,-3.6071z" data-paper-data="{&quot;index&quot;:null}" fill="#ae2e2e" stroke-width="0"/><path d="M307.2965,171.35498c-1.83176,-0.85369 -3.42434,-2.50584 -3.93592,-5.58287" data-paper-data="{&quot;index&quot;:null}" fill="none" stroke-width="3"/><path d="M307.31491,184.5601c-1.11465,1.09462 -2.31532,1.89733 -3.57119,2.18173" data-paper-data="{&quot;index&quot;:null}" fill="none" stroke-width="3"/></g><g stroke="#000000" stroke-linecap="butt"><path d="M180.78526,167.84515c-0.29659,-2.64612 -2.90528,-4.46514 -5.37078,-6.77968c-0.01962,-5.5524 -0.04178,-11.10478 -0.06642,-16.65715c1.49433,0.73257 3.39848,1.17122 5.69268,0.74048c2.28152,-0.42835 6.93092,-7.88028 9.00959,-9.19425c3.16581,-2.00116 5.30146,10.41287 5.68122,10.59399z" data-paper-data="{&quot;index&quot;:null}" fill="#ae2e2e" stroke-width="0"/><path d="M175.41118,160.13709c0.15257,0.05934 0.30802,0.11738 0.46638,0.17409c4.23084,1.51494 0.18348,8.38733 -0.4346,9.3898" data-paper-data="{&quot;index&quot;:null}" fill="none" stroke-width="3"/><path d="M188.41022,135.13473c0,0 -2.61862,5.93682 -6.50744,9.54364c-2.29713,2.13054 -4.62719,1.55271 -6.55275,0.17397" data-paper-data="{&quot;index&quot;:null}" fill="none" stroke-width="3"/></g></g><g><path d="M175.52456,232.16203c4.16508,-0.85181 9.9966,-0.55331 17.97527,2.6206c8.41306,3.34671 11.53874,8.55674 12.42628,13.28825c-10.13899,0.0195 -20.27792,0.0584 -30.41674,0.12518c0.00758,-5.34467 0.01263,-10.68935 0.01519,-16.03403z" data-paper-data="{&quot;index&quot;:null}" fill="#fedfc3" stroke="#000000" stroke-width="0" stroke-linecap="butt"/><g data-paper-data="{&quot;index&quot;:null}" stroke-linecap="butt"><g><g fill="none" stroke="none" stroke-width="1" font-family="sans-serif" font-weight="normal" font-size="12" text-anchor="start"/><path d="M175.52441,232.46869c0.23501,-0.06321 0.47385,-0.11957 0.71641,-0.16841c4.64619,-0.93543 20.42912,1.60751 27.78377,8.43436c1.61476,1.49888 2.22432,4.52173 2.41342,7.33526c-10.30963,0.01916 -20.61919,0.05824 -30.92864,0.12615c0.00744,-5.24245 0.01244,-10.48491 0.01504,-15.72736z" data-paper-data="{&quot;index&quot;:null}" fill="#ffdfc2" stroke="#000000" stroke-width="0"/><path d="M175.52469,231.89845c1.44491,-0.58785 3.00311,-0.90051 4.63595,-0.75539c2.4249,0.21553 19.01895,4.36806 22.7077,8.60692c2.20035,2.5285 3.19178,5.4855 3.5298,8.32c-10.29634,0.01919 -20.59261,0.05825 -30.88877,0.12607c0.00771,-5.43253 0.0128,-10.86507 0.01532,-16.29761z" data-paper-data="{&quot;index&quot;:null}" fill="url(#color-2)" stroke="#000000" stroke-width="0"/><path d="M175.52426,232.77323c1.57021,-0.63648 3.28463,-1.15659 5.08098,-1.42626c5.41804,-0.81337 12.24668,2.27884 15.04669,3.83208c2.1529,1.19427 8.41275,5.05039 9.86334,9.08366c0.45023,1.25184 0.71869,2.53889 0.85646,3.80733c-10.28754,0.01921 -20.57501,0.05826 -30.86236,0.12602c0.00729,-5.14094 0.01225,-10.28188 0.01489,-15.42283z" data-paper-data="{&quot;index&quot;:null}" fill="url(#color-3)" stroke="#000000" stroke-width="0"/></g><path d="M175.82133,240.65198c-0.04993,-1.00867 3.13699,-1.98611 5.25681,-2.09105c2.11982,-0.10494 5.02842,0.57076 5.07835,1.57943c0.04993,1.00867 -2.77772,1.96833 -4.89753,2.07326c-2.11982,0.10494 -5.3877,-0.55299 -5.43763,-1.56164z" fill="#3e3571" stroke="none" stroke-width="0"/><path d="M201.81877,242.93332c1.10751,1.29327 2.45325,3.55945 1.17513,4.65399c-1.27812,1.09454 -2.29608,-1.45233 -3.40357,-2.74563c-1.10751,-1.29327 -3.19957,-3.15403 -1.84288,-4.31585c1.35669,-1.16182 4.07134,2.40749 4.07134,2.40749z" fill="#3e3571" stroke="none" stroke-width="0"/><path d="M182.58914,235.54823c0.19177,-0.78537 1.4689,-1.14815 2.85254,-0.8103c1.38365,0.33784 2.34986,1.24841 2.15811,2.03378c-0.19177,0.78537 -1.4689,1.14817 -2.85256,0.81032c-1.38365,-0.33784 -2.34986,-1.24842 -2.15809,-2.03379z" fill="#3e3571" stroke="none" stroke-width="0"/><path d="M203.73267,247.68807c0.19918,0.06403 0.36494,0.19854 0.49367,0.38626c-0.5656,0.00121 -1.1312,0.00248 -1.6968,0.00382c0.39146,-0.35462 0.82266,-0.51238 1.20312,-0.39008z" fill="#3e3571" stroke="none" stroke-width="0"/><path d="M191.09145,238.04394c0.21995,-0.77794 1.50934,-1.09443 2.87991,-0.70691c1.37056,0.38752 2.30332,1.33232 2.08336,2.11027c-0.21995,0.77794 -1.50935,1.09445 -2.87992,0.70693c-1.37056,-0.38752 -2.30332,-1.33233 -2.08336,-2.11027z" fill="#3e3571" stroke="none" stroke-width="0"/><path d="M183.4206,247.64894c-0.04993,-1.00867 3.13699,-1.98611 5.25681,-2.09106c2.11982,-0.10494 5.02842,0.57076 5.07835,1.57943c0.01678,0.33897 -0.29141,0.6724 -0.7885,0.96971c-3.08121,0.01142 -6.1624,0.02496 -9.24359,0.04087c-0.18524,-0.15389 -0.29426,-0.32096 -0.30307,-0.49896z" fill="#3e3571" stroke="none" stroke-width="0"/><path d="M192.98287,242.0674c0.51821,-0.72464 1.97326,-0.57193 3.24991,0.34107c1.27666,0.91299 1.89149,2.24057 1.37327,2.9652c-0.51821,0.72463 -1.97327,0.57193 -3.24992,-0.34106c-1.27666,-0.91299 -1.89148,-2.24057 -1.37326,-2.9652z" fill="#3e3571" stroke="none" stroke-width="0"/><path d="M176.36609,237.27693c-0.21628,-0.70968 0.62197,-1.59389 1.87228,-1.97494c1.25032,-0.38105 2.43922,-0.11462 2.65551,0.59506c0.21628,0.70968 -0.62197,1.5939 -1.87228,1.97494c-1.25032,0.38105 -2.43922,0.11462 -2.6555,-0.59506z" fill="#3e3571" stroke="none" stroke-width="0"/><path d="" data-paper-data="{&quot;index&quot;:null}" fill="#3e3571" stroke="none" stroke-width="0"/></g><path d="M175.52456,232.16203c4.16508,-0.85181 9.9966,-0.55331 17.97527,2.6206c8.41306,3.34671 11.53874,8.55674 12.42628,13.28825" data-paper-data="{&quot;index&quot;:null}" fill="none" stroke="#000000" stroke-width="3" stroke-linecap="round"/></g><g fill="#1e1e1f" stroke="#0a0a0b" stroke-width="3" stroke-linecap="butt"><path d=""/><path d=""/></g><g stroke="#000000" stroke-linecap="round"><path d="M218.81721,231.07739c3.58316,0.17127 6.02317,0.2889 6.02317,0.2889l1.32783,-23.23927l34.43411,6.09202l-2.13589,23.95924c0,0 2.53805,0.94239 6.22902,2.31288" data-paper-data="{&quot;index&quot;:null}" fill="#ffdfc2" stroke-width="0"/><path d="M224.84037,231.36628l-0.98514,-23.65981l37.37788,7.56391l-2.7667,22.90789" data-paper-data="{&quot;index&quot;:null}" fill="none" stroke-width="3"/><path d="M258.48636,237.62705c0,0 13.72999,6.75657 19.24651,10.51854c-24.05567,-0.05894 -48.11136,-0.12136 -72.16665,-0.07401c-2.70536,-1.38463 -10.7694,-0.79117 -12.70183,-1.83416c-2.87206,-1.55013 0.98287,-4.44264 0.98287,-4.44264l2.46928,-2.78385c0,0 4.00927,-4.38223 8.77507,-5.5209c5.53277,-1.32191 20.39197,-2.36319 20.39197,-2.36319z" fill="#fedfc3" stroke-width="0"/></g><path d="M189.12673,140.49597c7.61106,-6.60685 26.55546,-7.61472 48.76486,-10.33994c32.99919,-4.04919 45.31135,7.89684 45.31135,7.89684c0,0 -85.89899,5.8132 -95.52713,6.46478z" fill="#ae2e2e" stroke="#000000" stroke-width="0" stroke-linecap="round"/><path d="M194.94257,240.46852l-2.03225,5.99974l10.2454,0.41248c-2.53236,0.19694 -5.07695,0.32283 -7.64345,0.36401c-2.41695,0.03879 -4.71633,-0.10517 -6.98909,-0.19702c3.0955,-3.27371 6.41939,-6.57922 6.41939,-6.57922z" data-paper-data="{&quot;index&quot;:null}" fill="#fedfc3" stroke="#000000" stroke-width="3" stroke-linecap="butt"/><path d="M187.09564,179.57248c-2.02773,-29.31477 21.02034,-37.83285 50.33512,-39.86057c29.31477,-2.02773 53.79537,3.20276 55.82308,32.51753c2.02773,29.31477 -20.09279,54.72291 -49.40758,56.75062c-29.31477,2.02773 -54.72291,-20.09281 -56.75062,-49.40757z" fill="#ffdfc2" stroke="#000000" stroke-width="3" stroke-linecap="butt"/><path d="M197.06958,207.40897c0,0 5.91013,-4.79553 10.44571,-5.19784c16.53127,-1.46633 15.99755,8.62206 15.99755,8.62206c0,0 -5.55434,0.36374 -7.4175,0.71434c-1.20189,0.22618 -2.67539,1.18494 -2.67539,1.18494c0,0 2.51395,8.13021 3.03434,9.67452c0.2087,0.61933 -5.38487,-2.18099 -5.38487,-2.18099" fill="#000000" stroke="#000000" stroke-width="3" stroke-linecap="round"/><path d="M268.55184,220.23142c0,0 -4.90436,2.22944 -4.70477,1.70315c0.4977,-1.31229 2.92379,-8.22815 2.92379,-8.22815c0,0 -1.23719,-0.87273 -2.26425,-1.10616c-1.59215,-0.36189 -6.2307,3.03752 -6.2307,3.03752c0,0 -1.09249,-8.16808 1.55366,-11.76761c1.27361,-1.73248 6.44475,-2.44634 11.05208,-1.8629c3.89043,0.49267 11.4807,6.99501 11.4807,6.99501" data-paper-data="{&quot;index&quot;:null}" fill="#000000" stroke="#000000" stroke-width="3" stroke-linecap="round"/><path d="M258.11162,209.68723c0,0 -1.73224,1.43149 -4.50851,1.28397c-2.77625,-0.14748 -5.29238,-1.80471 -5.29238,-1.80471c0,0 -3.12114,3.38437 -7.10274,3.70203c-3.98161,0.31768 -7.66213,-2.63714 -7.66213,-2.63714c0,0 -3.78372,2.11539 -5.43701,2.36516c-1.65328,0.24976 -4.33683,-0.82079 -4.33683,-0.82079" data-paper-data="{&quot;index&quot;:null}" fill="none" stroke="#000000" stroke-width="3" stroke-linecap="round"/><g><g stroke-linecap="round"><path d="M221.04215,199.14522c0,0 -11.02936,0.37747 -15.91418,-0.71882c-4.5583,-1.023 -13.35955,-4.59966 -13.60642,-6.82806c-0.17078,-1.54174 2.88798,-2.88937 2.88798,-2.88937c0,0 -8.28401,-0.661 -9.01701,-5.60381c-0.57689,-3.89022 1.89157,-5.41131 1.89157,-5.41131c0,0 1.87708,-8.86304 5.48985,-12.94102c3.61276,-4.078 11.3874,-10.64874 24.60087,-7.79509c13.21347,2.85365 18.54719,11.05179 19.78838,24.35092" fill="#26134d" stroke="#000000" stroke-width="0"/><path d="M221.04215,199.14522c-6.11734,1.17067 -11.02936,0.37747 -15.91418,-0.71882c-4.5583,-1.023 -13.35955,-4.59966 -13.60642,-6.82806c-0.17078,-1.54174 2.88798,-2.88937 2.88798,-2.88937c0,0 -8.20514,-0.84309 -8.93813,-5.7859c-0.57689,-3.89022 1.81268,-5.22923 1.81268,-5.22923c0,0 1.87709,-8.86304 5.48986,-12.94102c3.61276,-4.078 11.3874,-10.64874 24.60087,-7.79509c13.21347,2.85365 18.54719,11.05179 19.78838,24.35092z" fill="none" stroke="#100030" stroke-width="2"/></g><path d="M237.23725,180.12436c0.56591,10.30507 -8.72146,18.93482 -20.74392,19.27506c-12.02246,0.34024 -22.22733,-7.73784 -22.79324,-18.04291c-0.56591,-10.30507 8.72145,-18.93482 20.7439,-19.27506c12.02246,-0.34024 22.22735,7.73784 22.79326,18.04291z" fill="#050010" stroke="#020007" stroke-width="0" stroke-linecap="butt"/></g><path d="M225.43211,177.12347l5.74991,-8.71144l3.21046,4.01112c0,0 -2.96096,4.48604 -4.02876,6.10383c-0.70468,1.06761 -1.75459,2.65829 -1.75459,2.65829l6.88744,7.84379l-2.64884,4.43579l-6.84762,-7.79846l-5.7499,8.71147l-3.21047,-4.01113l5.78333,-8.7621l-6.88744,-7.84382l2.64884,-4.43578z" data-paper-data="{&quot;index&quot;:null}" fill="#ff6a00" stroke="#000000" stroke-width="0" stroke-linecap="round"/><path d="M237.23726,180.12436c0.56591,10.30507 -8.72146,18.93482 -20.74392,19.27506c-12.02246,0.34024 -22.22733,-7.73784 -22.79324,-18.04291c-0.56591,-10.30507 8.72145,-18.93482 20.7439,-19.27506c12.02246,-0.34024 22.22735,7.73785 22.79326,18.04291z" fill="none" stroke="#020007" stroke-width="3" stroke-linecap="butt"/><g data-paper-data="{&quot;index&quot;:null}"><g stroke-linecap="round"><path d="M244.25094,180.91943c-0.22255,-13.35507 4.18139,-22.08795 17.00294,-26.37133c12.82154,-4.28338 21.26893,1.39652 25.3065,5.05439c4.03758,3.65786 6.8739,12.26206 6.8739,12.26206c0,0 2.62018,1.24165 2.47274,5.17165c-0.18735,4.99336 -8.34917,6.55749 -8.34917,6.55749c0,0 3.18794,1.00459 3.187,2.55576c-0.00137,2.24203 -8.35805,6.76093 -12.77693,8.27692c-4.73539,1.62459 -15.73977,2.45712 -15.73977,2.45712" fill="#26134d" stroke="#000000" stroke-width="0"/><path d="M244.25094,180.91941c-0.22255,-13.35507 4.18139,-22.08795 17.00293,-26.37133c12.82154,-4.28338 21.26894,1.39652 25.30651,5.05439c4.03758,3.65786 6.8739,12.26206 6.8739,12.26206c0,0 2.52184,1.0693 2.37439,4.99929c-0.18735,4.99336 -8.25081,6.72985 -8.25081,6.72985c0,0 3.18794,1.00459 3.187,2.55576c-0.00137,2.24203 -8.35805,6.76093 -12.77693,8.27692c-4.73539,1.62459 -9.53101,2.95089 -15.73976,2.45712z" fill="none" stroke="#100030" stroke-width="2"/></g><path d="M264.72813,159.32006c11.98742,-0.97827 22.16389,6.58261 22.7298,16.88768c0.56591,10.30507 -8.69305,19.45202 -20.68046,20.4303c-11.98742,0.97827 -22.16391,-6.58261 -22.72982,-16.88767c-0.56591,-10.30507 8.69306,-19.45203 20.68048,-20.43031z" fill="#050010" stroke="#020007" stroke-width="0" stroke-linecap="butt"/></g><g fill="none" stroke-width="3"><path d="M267.3175,167.52182l-15.21526,23.79178" stroke="#ffe200" stroke-linecap="round"/><path d="M250.66297,168.80606l18.09375,21.22327" stroke="#00ff31" stroke-linecap="round"/><path d="M250.54023,168.66201l16.82857,-1.22037l1.51076,22.73177l-16.82857,1.22038z" stroke="#ff0000" stroke-linecap="butt"/></g><path d="M287.5192,177.36309c0.56591,10.30507 -8.72146,18.93482 -20.74392,19.27506c-12.02246,0.34024 -22.22733,-7.73785 -22.79324,-18.04291c-0.56591,-10.30507 8.72145,-18.93482 20.7439,-19.27506c12.02246,-0.34024 22.22735,7.73784 22.79326,18.04291z" fill="none" stroke="#020007" stroke-width="3" stroke-linecap="butt"/><path d="" fill="#1e1e1f" stroke="#0a0a0b" stroke-width="3" stroke-linecap="round"/><g stroke="#0a0a0b" stroke-width="3"><path d="M272.8465,243.6897c0,0 5.07407,2.41059 5.80928,3.37565c0.22717,0.29819 0.41514,0.68623 0.56707,1.08389c-5.84383,-0.01427 -11.68765,-0.02888 -17.53148,-0.04222c6.53995,-2.47295 11.15513,-4.41732 11.15513,-4.41732z" fill="#1e1e1f" stroke-linecap="butt"/><path d="M265.68637,248.02332c0,0 0.01975,0.03322 0.05494,0.09312" data-paper-data="{&quot;index&quot;:null}" fill="none" stroke-linecap="round"/></g><path d="M295.71587,221.48001c-0.30372,2.04644 -6.77953,4.11291 -6.77953,4.11291c0,0 -7.83973,-4.58617 -8.84649,-7.66513c-0.81737,-2.49974 -0.86621,-5.96877 -1.38201,-5.46571c-0.77672,0.75753 -2.61853,1.74555 -3.16312,3.21714c-0.88529,2.39224 -0.25052,5.34796 -0.25052,5.34796c0,0 -4.409,-4.31972 -5.42689,-6.21397c-1.20806,-2.2481 -1.34913,-6.39577 -1.34913,-6.39577c0,0 -0.26112,-7.47514 2.76145,-11.1127c4.33079,-5.21195 17.99496,-13.19592 20.74071,-17.17128c2.74573,-3.97535 -2.34583,-6.99968 -0.33321,-12.37539c2.01263,-5.37572 9.24837,-11.4369 9.24837,-11.4369l6.38716,32.12126c0.01488,6.97469 0.03489,13.94937 0.05991,20.92402c-4.40802,4.08712 -11.47385,10.81409 -11.6667,12.11356z" fill="#ae2e2e" stroke="#000000" stroke-width="0" stroke-linecap="round"/><g data-paper-data="{&quot;index&quot;:null}" stroke="#000000" stroke-linecap="round"><g><path d="M218.97683,137.07119c0,0 1.43926,3.86789 -0.42413,7.81886c-2.72738,5.78295 -9.49384,12.57406 -13.18336,14.51628c-4.2667,2.24609 -22.03262,7.38644 -23.20329,1.04899c-0.98982,-5.3584 14.30642,-22.21294 14.30642,-22.21294" fill="#ae2e2e" stroke-width="0"/><path d="M246.73319,133.09177c6.21898,2.09297 8.02118,25.36686 6.63647,29.13821c-0.81613,2.22275 -2.69096,6.41221 -6.31204,8.53135c-2.74387,1.60575 -7.55537,1.48943 -7.55537,1.48943c0,0 6.91517,-8.22617 0.70081,-12.54701c-6.21436,-4.32086 -15.75475,0.37092 -19.24304,-2.41785c-3.48828,-2.78879 -3.7862,-24.6556 -3.7862,-24.6556" fill="#ae2e2e" stroke-width="0"/><g><path d="M289.80318,145.7747c0,0 -0.30621,4.17024 -3.85802,5.40416c-3.9087,1.35789 -13.65433,-4.99095 -17.99282,-6.69789c-8.43498,-3.31866 -21.11204,2.70034 -21.11204,2.70034l-4.88133,-14.99273l43.17873,-4.35433z" data-paper-data="{&quot;index&quot;:null}" fill="#ae2e2e" stroke-width="0"/><g stroke-width="3"><path d="M247.48573,146.79526c6.21898,2.09297 7.26865,11.66335 5.88393,15.4347c-0.81612,2.22275 -2.69097,6.41221 -6.31205,8.53135c-2.74387,1.60575 -7.55537,1.48943 -7.55537,1.48943c0,0 6.91516,-8.22617 0.7008,-12.54701c-6.21436,-4.32086 -15.75474,0.37092 -19.24303,-2.41786c-3.48828,-2.78879 -3.03366,-10.95209 -3.03366,-10.95209" fill="#ae2e2e"/><path d="M217.30339,146.32629c0,0 -5.72379,9.81084 -11.93401,13.08003c-7.87426,4.14516 -22.63932,2.71695 -22.63932,2.71695" fill="#ae2e2e"/><path d="M290.22162,145.44911c0,0 -0.30621,4.17023 -3.85802,5.40415c-3.90869,1.35789 -13.65433,-4.99094 -17.99281,-6.69787c-8.43498,-3.31866 -21.11204,2.70034 -21.11204,2.70034" data-paper-data="{&quot;index&quot;:null}" fill="none"/></g></g></g><path d="M288.95307,213.08829c0,0 -0.34826,3.96968 -0.6291,5.86193c-0.30372,2.04644 0.61239,6.6427 0.61239,6.6427c0,0 -7.83973,-4.58617 -8.84649,-7.66513c-0.81737,-2.49974 -0.8662,-5.96877 -1.38201,-5.46571c-0.77672,0.75753 -2.61853,1.74555 -3.16313,3.21714c-0.88528,2.39224 -0.25053,5.34796 -0.25053,5.34796c0,0 -4.40899,-4.31972 -5.42688,-6.21397c-1.20806,-2.2481 -1.34913,-6.39577 -1.34913,-6.39577c0,0 -0.26112,-7.47514 2.76145,-11.1127c4.33079,-5.21195 17.99496,-13.19592 20.74071,-17.17128c2.74573,-3.97535 -2.34583,-6.99968 -0.33321,-12.37539c2.01263,-5.37572 9.24837,-11.4369 9.24837,-11.4369" fill="#ae2e2e" stroke-width="3"/><g><path d="M176.78219,179.93363c0.92064,-0.39594 2.60272,-21.88838 4.25531,-22.14039c3.21506,-0.49028 9.77409,-0.67882 11.01769,0.44278c2.29757,2.07219 4.1802,5.47062 5.018,9.8882c1.85665,9.78973 0.39588,23.31403 -0.21559,29.51037c-0.28405,2.8786 -0.16987,5.53724 0.68398,7.70819c0.88699,2.25521 2.57215,3.98418 5.43819,4.88687c4.32233,1.36135 16.47771,0.83641 16.47771,0.83641c0,0 4.72414,14.95916 -3.69957,17.78683c-3.8559,1.29435 -24.3244,-11.2787 -28.77153,-17.31676c-0.44589,-0.6054 -7.35007,-28.63811 -7.70974,-29.23665" fill="#ae2e2e" stroke-width="0"/><path d="M215.44223,229.2786c8.4237,-2.82766 4.01524,-18.21256 4.01524,-18.21256c0,0 -12.1554,0.52493 -16.47771,-0.8364c-5.09037,-1.60324 -7.0636,-4.95717 -7.0636,-4.95717c0,0 7.14363,-36.0998 -2.42175,-47.63875" fill="none" stroke-width="3"/></g></g><path d="M254.67262,236.87589l3.81374,0.75115c0,0 13.72999,6.75657 19.24651,10.51854c-24.05567,-0.05894 -48.11136,-0.12136 -72.16665,-0.07401c-2.70536,-1.38464 -10.7694,-0.79117 -12.70183,-1.83415c-2.87206,-1.55013 0.98288,-4.44264 0.98288,-4.44264l2.46928,-2.78385c0,0 4.00927,-4.38223 8.77507,-5.5209c5.53277,-1.32191 20.39197,-2.36319 20.39197,-2.36319" fill="none" stroke="#000000" stroke-width="3" stroke-linecap="round"/><path d="M203.24547,246.41297c0.59889,-4.66069 3.25096,-14.46048 3.25096,-14.46048c0,0 2.01248,-3.46523 4.63506,-3.32059c2.62258,0.14464 5.49959,3.87954 5.49959,3.87954c0,0 -2.91278,9.81661 -3.62838,14.45971c-0.05239,0.33995 -0.09934,0.70519 -0.14139,1.08932c-3.25805,0.00356 -6.51609,0.00893 -9.77413,0.01638c0.04127,-0.59668 0.09331,-1.15822 0.15829,-1.66389z" fill="#000000" stroke="#0a0a0b" stroke-width="3" stroke-linecap="round"/><path d="M174.16576,246.32069v-132.64134h132.64134v132.64135z" fill="none" stroke="#000000" stroke-width="6.5" stroke-linecap="butt"/></g></g></svg>