<svg version="1.1" xmlns="http://www.w3.org/2000/svg" xmlns:xlink="http://www.w3.org/1999/xlink" width="185.68154" height="446.54125" viewBox="0,0,185.68154,446.54125"><g transform="translate(-162.30346,86.23512)"><g data-paper-data="{&quot;isPaintingLayer&quot;:true}" fill-rule="nonzero" stroke-linejoin="miter" stroke-miterlimit="10" stroke-dasharray="" stroke-dashoffset="0" style="mix-blend-mode: normal"><g fill="#ffa0a0" stroke="#000000" stroke-width="2.5" stroke-linecap="butt"><path d="M261.11109,128.44523c0,-12.25786 9.93696,-22.19482 22.19482,-22.19482c12.25786,0 20.00777,5.76973 23.22236,22.19482c0.44876,2.29296 1.08814,28.9438 1.64399,56.81406c0.03175,1.59197 -4.11345,4.78354 -4.11345,4.78354l5.28278,61.01646c0,0 -13.21343,6.04332 -19.8499,6.97269c-6.43691,0.90142 -28.83947,-1.47776 -28.83947,-1.47776l-3.96209,-68.36067c0,0 4.21748,-2.68779 4.22228,-4.02548c0.1036,-28.86636 0.19868,-55.43677 0.19868,-55.72283z"/><path d="M276.60056,257.08005c0,0 -7.31661,12.24944 -16.40847,15.37363c-9.24529,2.67197 -17.46731,0.49163 -17.46731,0.49163c0,0 8.67282,-6.63588 12.03424,-10.89946c1.73252,-2.19751 4.21915,-5.7754 6.48969,-9.13819"/><path d="M292.49658,253.7715c0,0 -2.96656,13.41553 -10.67644,18.44499c-8.00793,4.62844 -16.64502,4.35988 -16.64502,4.35988c0,0 6.13867,-8.31547 7.95527,-13.16622c0.93631,-2.50014 2.13916,-6.49642 3.20562,-10.23762"/><path d="M309.47024,249.20169c0,0 -0.43263,13.62861 -7.1155,19.56029c-7.05214,5.5725 -15.6384,6.3836 -15.6384,6.3836c0,0 4.51782,-8.98347 5.40953,-14.00401c0.45959,-2.58765 0.90391,-6.68716 1.26095,-10.51761"/></g><path d="M293.55581,190.06871l7.8977,91.38025l-7.04901,-3.81888l13.76362,69.28532l-5.00674,12.00218c0,0 -19.84547,-3.14721 -28.86737,-6.28885c-8.99477,-3.1322 -25.18288,-12.53276 -25.18288,-12.53276l-6.41715,-73.88289l5.60523,6.77978c0,0 -4.3139,-65.66379 -6.57697,-83.48822c-1.06618,-8.3974 -0.79763,-18.53034 -0.79763,-18.53034" data-paper-data="{&quot;index&quot;:null}" fill="#ffa0a0" stroke="#000000" stroke-width="2.5" stroke-linecap="round"/><path d="M240.79333,190.06871l4.23639,91.38025l-6.72256,-3.81888l3.15262,69.28532c0,0 -7.73696,5.74391 -11.43323,7.80079c-3.48008,1.93658 -10.13493,4.20139 -10.13493,4.20139c0,0 -16.13929,-4.75556 -22.5611,-8.03061c-5.82105,-2.96868 -14.34479,-10.791 -14.34479,-10.791l4.58688,-73.88289l5.02567,6.77978c0,0 -2.85092,-65.66379 -3.59029,-83.48822c-0.34834,-8.3974 0.24839,-18.53034 0.24839,-18.53034" fill="#ffa0a0" stroke="#000000" stroke-width="2.5" stroke-linecap="round"/><path d="M230.2622,201.75188v-13.76273h23.39664v13.76273z" fill="#ffa0a0" stroke="#000000" stroke-width="0" stroke-linecap="butt"/><path d="M253.54463,200.00221c0,0 -6.63496,1.91148 -11.37488,1.97824c-4.73993,0.06675 -12.03429,-1.64854 -12.03429,-1.64854" fill="none" stroke="#000000" stroke-width="2.5" stroke-linecap="round"/><path d="M292.31501,136.61477c0.33601,2.97171 0.59363,5.62088 0.66297,7.26076c0.13791,3.26123 -1.56816,7.59249 -1.56816,7.59249c0,0 5.45737,12.78241 5.95275,21.19113c0.49538,8.40873 -3.15772,26.25274 -3.15772,26.25274c0,0 2.71798,6.37279 3.23513,9.74564c0.5583,3.64124 0.00069,11.35835 0.00069,11.35835c0,0 -36.18852,16.11084 -54.08675,21.62141c-17.64061,5.43126 -52.54099,11.20754 -52.54099,11.20754l-2.31749,-67.40198c0,0 -0.81193,-17.95493 0.40362,-23.92962c0.71434,-3.51113 5.51695,-7.93778 5.51695,-7.93778c0,0 -1.45205,-1.84031 -1.79854,-4.06575c-0.25138,-1.61459 0.68159,-3.43191 0.26035,-4.89624c-0.30857,-1.07266 -0.61702,-2.54949 -0.91642,-4.26163z" fill="#6f0101" stroke="#000000" stroke-width="2.5" stroke-linecap="butt"/><g stroke="#000000" stroke-linecap="butt"><path d="M201.39615,110.7647c9.53701,-12.70568 17.48395,-16.69203 36.07781,-18.40897c18.59386,-1.71694 34.13103,-0.55608 45.83341,10.18837c3.63277,3.3354 8.037,9.33425 10.92988,14.96083" fill="#ffa0a0" stroke-width="0"/><path d="M202.90702,123.01669c-6.16315,-19.78 15.97307,-28.94401 34.56693,-30.66095c18.59386,-1.71694 34.13103,-0.55609 45.83341,10.18837c3.63277,3.3354 8.037,9.33425 10.92988,14.96084c1.96122,3.81451 3.64941,7.14435 4.06245,9.89439" fill="none" stroke-width="2.5"/><g><path d="M220.50841,161.98589c-0.56208,-0.11182 -20.85462,-7.00691 -22.40755,-7.6176c-2.11468,-0.83159 -5.76462,-4.62394 -8.34801,-8.53311c-2.75353,-4.16663 -4.37713,-8.43731 -4.37713,-8.43731c0,0 -2.17954,-5.40191 1.50589,-14.91854c0.00014,-0.00037 25.69,-9.91221 52.85795,-12.43814c27.62827,-2.56873 54.14514,1.7796 54.14514,1.7796c0,0 6.21117,12.08516 6.6406,14.94428c-2.75726,11.80801 -9.64296,17.39147 -13.55593,19.68877c-1.69662,0.99609 -11.28629,8.53779 -11.28629,8.53779" fill="#6f0101" stroke-width="0"/><path d="M201.38574,155.22984c-0.98985,-0.19693 -6.61578,-2.70665 -10.26231,-6.77598c-4.24893,-4.74158 -6.51566,-11.127 -6.51566,-11.127c0,0 0.26558,-7.27242 2.20127,-15.02712c0.32509,-1.30237 25.44986,-9.4809 50.83828,-11.88241c27.56976,-2.60784 55.59126,0.64257 56.22902,1.67187c0.87313,1.40918 1.6883,2.83997 2.4124,4.24832c2.039,3.9658 3.79415,7.42771 4.22358,10.28683c-3.95279,16.92784 -16.39028,21.06315 -16.39028,21.06315" fill="none" stroke-width="2.5"/></g></g><path d="M224.21969,104.26204c0,0 6.79581,11.9761 8.80461,20.4298c1.9606,8.25084 -0.0282,21.69697 -0.0282,21.69697" fill="none" stroke="#000000" stroke-width="2" stroke-linecap="round"/><path d="M203.54172,127.20609c0,-7.96306 -2.57183,-26.57999 13.7915,-26.07848c7.95932,0.24394 16.65647,21.50191 16.80056,29.46366c0.25075,13.85579 -2.56864,29.08753 -10.53169,29.08753c-7.96306,0 -20.06037,-24.50966 -20.06037,-32.47272z" fill-opacity="0.26436" fill="#000000" stroke="#000000" stroke-width="0" stroke-linecap="butt"/><g fill="#ffa0a0" stroke="#000000" stroke-width="2.5" stroke-linecap="butt"><g data-paper-data="{&quot;index&quot;:null}"><path d="M184.8081,128.57061c0,-12.25786 9.93696,-22.19482 22.19482,-22.19482c12.25786,0 20.00777,5.76973 23.22236,22.19482c0.44876,2.29296 1.08814,28.9438 1.64399,56.81406c0.03175,1.59197 -4.11345,4.78354 -4.11345,4.78354l5.28278,61.01646c0,0 -13.21343,6.04332 -19.8499,6.97269c-6.43691,0.90142 -28.83947,-1.47776 -28.83947,-1.47776l-3.96209,-68.36067c0,0 4.21748,-2.68779 4.22228,-4.02548c0.1036,-28.86636 0.19868,-55.43677 0.19868,-55.72283z"/><path d="M200.29759,257.20543c0,0 -10.10429,13.79353 -12.13608,14.69199c-2.59685,1.14833 -17.63175,-1.52856 -17.63175,-1.52856c0,0 2.08043,-3.76459 3.60296,-4.97048c1.67384,-1.32574 6.02919,-2.65853 6.02919,-2.65853c0,0 0.99697,-6.53356 4.78383,-9.70681"/></g><path d="M232.86887,248.2634c0,0 2.60869,16.8983 1.8073,18.97031c-1.02425,2.64824 -13.54839,11.38668 -13.54839,11.38668c0,0 -1.19088,-4.13305 -0.96699,-6.06234c0.24614,-2.12102 2.38342,-6.14315 2.38342,-6.14315c0,0 -3.91496,-5.32489 -3.48107,-10.24643"/><path d="M217.84605,256.00955c0,0 -5.57613,16.16368 -7.25161,17.62251c-2.14143,1.86454 -17.29584,3.75089 -17.29584,3.75089c0,0 0.87484,-4.21129 1.97294,-5.8133c1.20723,-1.76122 4.97411,-4.32172 4.97411,-4.32172c0,0 -0.9786,-6.53634 1.70121,-10.68705"/></g><g stroke-linecap="butt"><path d="M231.42934,98.26434c0,0 -2.99794,-3.88056 -4.10828,-6.19178c-1.34611,-2.80197 -3.39811,-9.43303 -3.39811,-9.43303l37.51678,-4.72701c0,0 0.17966,7.52664 -0.44098,10.63326c-0.46716,2.33835 -2.95494,6.36523 -2.95494,6.36523z" fill="#ffa0a0" stroke="none" stroke-width="0"/><path d="M231.42934,98.26434c0,0 -3.28846,-3.94075 -4.41149,-6.27836c-1.34043,-2.79015 -3.0949,-9.34646 -3.0949,-9.34646l37.51678,-4.72701c0,0 0.39669,7.24273 -0.22011,10.33016c-0.48111,2.40823 -3.17581,6.66831 -3.17581,6.66831" fill="none" stroke="#000000" stroke-width="2.5"/></g><g stroke-linecap="butt"><g stroke="#000000"><path d="M199.94839,37.63661c3.77056,-23.65674 26.0048,-39.77769 49.66154,-36.00712c23.65675,3.77057 39.77769,26.0048 36.00712,49.66154c-3.77057,23.65675 -26.0048,39.77769 -49.66154,36.00712c-20.47125,-3.26284 -35.29953,-20.3517 -36.47845,-40.22406c-0.18345,-3.0923 -0.03639,-6.25199 0.47134,-9.43748z" fill="#ffa0a0" stroke-width="2"/><path d="M199.94839,37.63661c3.77056,-23.65674 26.0048,-39.77769 49.66154,-36.00712c23.65675,3.77057 39.77769,26.0048 36.00712,49.66154c-3.77057,23.65675 -26.0048,39.77769 -49.66154,36.00712c-20.47127,-3.26284 -35.29953,-20.3517 -36.47844,-40.22406c-0.18345,-3.09229 -0.03639,-6.252 0.47133,-9.43748z" fill="none" stroke-width="2.5"/></g><g fill="none" stroke="none" stroke-width="1" font-family="sans-serif" font-weight="normal" font-size="12" text-anchor="start"/></g><g><path d="M251.10623,2.06914c0,0 -2.55247,6.98369 -2.99584,15.59556c-0.48659,9.4515 0.34168,21.3341 0.68458,28.75938c0.59153,12.80889 13.31686,36.39747 13.31686,36.39747c0,0 -6.25052,6.31722 -25.3013,4.5808c-1.66472,-0.15173 -9.47218,-2.06961 -16.19344,-6.01503c-6.12076,-3.59291 -11.27934,-9.25256 -11.27934,-9.25256c0,0 20.31977,-12.45332 27.65617,-26.10389c3.40009,-6.32642 7.04023,-18.79158 8.50546,-29.01155c1.22429,-8.53951 0.55078,-15.57194 0.55078,-15.57194z" fill="#000000" stroke="#000000" stroke-width="2" stroke-linecap="round"/><g><path d="M262.11182,82.82154c0,0 -6.25052,6.31722 -25.3013,4.5808c-1.66472,-0.15173 -9.47218,-2.06961 -16.19345,-6.01503c-6.12076,-3.59291 -11.27934,-9.25256 -11.27934,-9.25256c0,0 13.97089,-8.5623 22.92626,-19.26972c0.0832,0.01214 1.15517,1.0089 2.65121,1.30794c2.24312,0.44835 5.12097,0.24542 6.01215,0.38612c0.26189,0.04135 4.25312,0.71858 6.35364,1.0069c2.29869,0.31551 2.89711,0.27219 3.35301,0.34747c3.66735,12.43002 11.47784,26.90809 11.47784,26.90809z" fill="#440000" stroke="#000000" stroke-width="0" stroke-linecap="butt"/><path d="M231.68187,54.10197c0,0 2.18367,-0.97914 3.33279,-0.79599c0.79239,0.12629 3.25293,1.67278 3.25293,1.67278c0,0 1.7042,-1.31116 2.90416,-1.11986c0.69373,0.1106 2.93721,2.20342 2.93721,2.20342c0,0 2.87953,-1.01631 4.13169,-0.81298c0.87725,0.14245 2.66523,1.91669 2.66523,1.91669" fill="none" stroke="#440000" stroke-width="2" stroke-linecap="round"/><path d="M251.10623,2.06914c0,0 -2.55247,6.98369 -2.99584,15.59556c-0.48659,9.4515 0.34168,21.3341 0.68458,28.75938c0.59153,12.80889 13.31686,36.39747 13.31686,36.39747c0,0 -6.25052,6.31722 -25.3013,4.5808c-1.66472,-0.15173 -9.47218,-2.06961 -16.19344,-6.01503c-6.12076,-3.59291 -11.27934,-9.25256 -11.27934,-9.25256c0,0 20.31977,-12.45332 27.65617,-26.10389c3.40009,-6.32642 7.04023,-18.79158 8.50546,-29.01155c1.22429,-8.53951 0.55078,-15.57194 0.55078,-15.57194z" fill="none" stroke="#000000" stroke-width="2.5" stroke-linecap="round"/></g></g><g fill="#ccaaaa" stroke="#000000" stroke-width="1" stroke-linecap="butt"><path d="M229.11651,64.05078l-4.03073,5.03379l-2.26903,-6.03788l3.65494,-2.62588z"/><path d="M235.86499,67.44167l-4.03073,5.03379l-2.26902,-6.03787l3.65494,-2.62589z"/><path d="M244.57927,69.25941l-4.03073,5.03379l-2.26902,-6.03787l3.65494,-2.62589z"/><path d="M254.05457,68.45432l-4.03073,5.03379l-2.26902,-6.03788l3.65494,-2.62588z"/></g><g fill="#ccaaaa" stroke="#000000" stroke-width="1" stroke-linecap="butt"><path d="M235.95703,83.51648l-2.4304,-3.3216l3.6889,-4.60315l2.07246,5.52144z"/><path d="M243.92656,85.17884l-2.4304,-3.3216l3.6889,-4.60314l2.07246,5.52144z"/><path d="M252.59206,84.44256l-2.4304,-3.3216l3.6889,-4.60314l2.07246,5.52144z"/><path d="M224.97633,79.2242l3.68625,-4.60358l2.07511,5.52185l-3.34257,2.40147z"/><path d="M216.96907,75.83049l3.68626,-4.60358l2.07511,5.52186l-3.34258,2.40146z"/></g><g><path d="M227.17362,52.08578l-4.37613,1.2044" fill="none" stroke="#ff6969" stroke-width="2" stroke-linecap="round"/><g stroke-linecap="butt"><path d="M206.75819,35.26511c1.17922,-7.39849 8.13282,-12.44018 15.53129,-11.26097c7.39847,1.17921 12.44018,8.1328 11.26096,15.53129c-1.17922,7.39849 -8.13281,12.44018 -15.53128,11.26096c-7.39847,-1.17921 -12.44018,-8.13281 -11.26097,-15.53128z" fill="#ccaaaa" stroke="#000000" stroke-width="2.5"/><path d="M215.25391,36.94148c1.04676,-6.56743 6.09835,-11.22149 11.28305,-10.39512c5.18468,0.82637 8.53915,6.82024 7.49239,13.38767c-1.04676,6.56744 -6.09836,11.22149 -11.28305,10.39512c-5.18469,-0.82637 -8.53915,-6.82022 -7.49239,-13.38767z" fill="#000000" stroke="none" stroke-width="0"/></g></g><g><path d="M256.50403,58.66255l-3.78488,-2.50516" fill="none" stroke="#ff6969" stroke-width="2" stroke-linecap="round"/><g stroke-linecap="butt"><path d="M263.44574,58.03678c-7.39848,-1.17921 -12.44018,-8.13279 -11.26096,-15.53128c1.17922,-7.39849 8.1328,-12.44019 15.53128,-11.26097c7.39848,1.17921 12.44019,8.13281 11.26096,15.53129c-1.17921,7.39847 -8.13281,12.44017 -15.53128,11.26096z" fill="#ccaaaa" stroke="#000000" stroke-width="2.5"/><path d="M267.72342,57.71447c-5.18469,-0.82637 -8.53915,-6.82023 -7.49239,-13.38767c1.04676,-6.56744 6.09835,-11.22148 11.28304,-10.39511c5.1847,0.82637 8.53916,6.82024 7.4924,13.38767c-1.04676,6.56744 -6.09837,11.22148 -11.28305,10.39511z" fill="#000000" stroke="none" stroke-width="0"/></g></g><path d="M162.30346,-78.99223v-7.24289h185.68154v7.24289z" fill="none" stroke="none" stroke-width="NaN" stroke-linecap="butt"/></g></g></svg>