<svg version="1.1" xmlns="http://www.w3.org/2000/svg" xmlns:xlink="http://www.w3.org/1999/xlink" width="121.47882" height="121.73543" viewBox="0,0,121.47882,121.73543"><g transform="translate(-194.43386,-125.753)"><g data-paper-data="{&quot;isPaintingLayer&quot;:true}" fill-rule="nonzero" stroke-linejoin="miter" stroke-miterlimit="10" stroke-dasharray="" stroke-dashoffset="0" style="mix-blend-mode: normal"><g fill="#ffa0a0" stroke="#000000" stroke-width="2.5" stroke-linecap="butt"><path d=""/><path d="M293.19547,232.17098c9.90981,0 16.8733,3.771 20.876,13.89451c-13.81101,-0.05351 -27.62218,-0.0805 -41.43337,-0.08209c3.30723,-8.10249 11.26549,-13.81242 20.55737,-13.81242z"/><path d=""/><path d=""/><path d=""/></g><path d="" data-paper-data="{&quot;index&quot;:null}" fill="#ffa0a0" stroke="#000000" stroke-width="2.5" stroke-linecap="round"/><path d="" fill="#ffa0a0" stroke="#000000" stroke-width="2.5" stroke-linecap="round"/><path d="" fill="#ffa0a0" stroke="#000000" stroke-width="0" stroke-linecap="butt"/><path d="" fill="none" stroke="#000000" stroke-width="2.5" stroke-linecap="round"/><path d="" fill="#6f0101" stroke="#000000" stroke-width="2.5" stroke-linecap="butt"/><g stroke="#000000" stroke-linecap="butt"><path d="M211.28572,236.68527c9.53701,-12.70568 17.48395,-16.69203 36.07781,-18.40897c18.59386,-1.71694 34.13103,-0.55608 45.83341,10.18837c3.63277,3.3354 8.037,9.33425 10.92988,14.96083" fill="#ffa0a0" stroke-width="0"/><path d="M212.09627,246.13575c-3.32546,-17.84928 17.57455,-26.22571 35.26725,-27.85943c18.59386,-1.71694 34.13103,-0.55609 45.83341,10.18837c3.63277,3.3354 8.037,9.33425 10.92988,14.96084c0.46131,0.89723 0.90751,1.76765 1.32557,2.61001" fill="none" stroke-width="2.5"/><g><path d="" fill="#6f0101" stroke-width="0"/><path d="M249.62913,235.96176c27.62827,-2.56873 54.14514,1.7796 54.14514,1.7796c0,0 2.18289,4.2473 4.04999,8.30174c-34.91793,-0.11513 -69.83671,-0.06185 -104.75407,0.14198c9.26961,-3.07425 27.55257,-8.4562 46.55894,-10.22331z" fill="#6f0101" stroke-width="0"/><path d="" fill="none" stroke-width="2.5"/><path d="M201.08218,246.19684c8.32888,-2.95582 27.31689,-8.04868 46.45471,-9.85894c27.56976,-2.60784 55.59126,0.64257 56.22902,1.67187c0.87313,1.40918 1.6883,2.83997 2.4124,4.24832c0.67811,1.31889 1.32481,2.58205 1.9018,3.78585" fill="none" stroke-width="2.5"/><path d="" fill="none" stroke-width="2.5"/></g></g><path d="M234.10926,230.18261c0,0 4.66147,8.21481 7.40425,15.83977" fill="none" stroke="#000000" stroke-width="2" stroke-linecap="round"/><path d="" fill="none" stroke="#000000" stroke-width="2" stroke-linecap="round"/><path d="M227.22279,227.04818c5.43567,0.1666 11.21546,10.13404 14.38008,18.97396c-9.43957,0.02451 -18.87912,0.0605 -28.31856,0.10762c-0.01561,-8.66383 1.42259,-19.46517 13.93849,-19.08158z" fill-opacity="0.26436" fill="#000000" stroke="#000000" stroke-width="0" stroke-linecap="butt"/><path d="" fill-opacity="0.26436" fill="#000000" stroke="#000000" stroke-width="0" stroke-linecap="butt"/><g fill="#ffa0a0" stroke="#000000" stroke-width="2.5" stroke-linecap="butt"><g data-paper-data="{&quot;index&quot;:null}"><path d=""/><path d="M216.89249,232.29636c9.8581,0 16.80054,3.73175 20.81309,13.73655c-13.8062,0.04046 -27.61229,0.10537 -41.41814,0.19364c3.27793,-8.16487 11.26821,-13.93019 20.60505,-13.93019z"/><path d=""/></g><path d=""/><path d=""/></g><g stroke-linecap="butt"><path d="M243.81991,223.58789c0,0 -2.40093,-3.88056 -3.51127,-6.19178c-1.34611,-2.80197 -2.95035,-9.43303 -2.95035,-9.43303l32.88992,-4.13c0,0 0.17966,7.52664 -0.44098,10.63326c-0.46716,2.33835 -2.95494,6.36523 -2.95494,6.36523z" fill="#ffa0a0" stroke="none" stroke-width="0"/><path d="M243.2229,223.73715c0,0 -2.24368,-3.94075 -3.36671,-6.27836c-1.34043,-2.79015 -2.19938,-9.34646 -2.19938,-9.34646l32.5914,-4.27925c0,0 0.39669,7.24273 -0.22011,10.33016c-0.48111,2.40823 -3.17581,6.66831 -3.17581,6.66831" fill="none" stroke="#000000" stroke-width="2.5"/></g><g stroke-linecap="butt"><g stroke="#000000"><path d="M209.83796,163.55718c3.77056,-23.65674 26.0048,-39.77769 49.66154,-36.00712c23.65675,3.77057 39.77769,26.0048 36.00712,49.66154c-3.77057,23.65675 -26.0048,39.77769 -49.66154,36.00712c-20.47125,-3.26284 -35.29953,-20.3517 -36.47845,-40.22406c-0.18345,-3.0923 -0.03639,-6.25199 0.47134,-9.43748z" fill="#ffa0a0" stroke-width="2"/><path d="M209.83796,163.55718c3.77056,-23.65674 26.0048,-39.77769 49.66154,-36.00712c23.65675,3.77057 39.77769,26.0048 36.00712,49.66154c-3.77057,23.65675 -26.0048,39.77769 -49.66154,36.00712c-20.47127,-3.26284 -35.29953,-20.3517 -36.47844,-40.22406c-0.18345,-3.09229 -0.03639,-6.252 0.47133,-9.43748z" fill="none" stroke-width="2.5"/></g><g fill="none" stroke="none" stroke-width="1" font-family="sans-serif" font-weight="normal" font-size="12" text-anchor="start"/></g><g><path d="M260.9958,127.98971c0,0 -2.55247,6.98369 -2.99584,15.59556c-0.48659,9.4515 0.34168,21.3341 0.68458,28.75938c0.59153,12.80889 13.31686,36.39747 13.31686,36.39747c0,0 -6.25052,6.31722 -25.3013,4.5808c-1.66472,-0.15173 -9.47218,-2.06961 -16.19344,-6.01503c-6.12076,-3.59291 -11.27934,-9.25256 -11.27934,-9.25256c0,0 20.31977,-12.45332 27.65617,-26.10389c3.40009,-6.32642 7.04023,-18.79158 8.50546,-29.01155c1.22429,-8.53951 0.55078,-15.57194 0.55078,-15.57194z" fill="#000000" stroke="#000000" stroke-width="2" stroke-linecap="round"/><g><path d="M272.00139,208.74211c0,0 -6.25052,6.31722 -25.3013,4.5808c-1.66472,-0.15173 -9.47218,-2.06961 -16.19345,-6.01503c-6.12076,-3.59291 -11.27934,-9.25256 -11.27934,-9.25256c0,0 13.97089,-8.5623 22.92626,-19.26972c0.0832,0.01214 1.15517,1.0089 2.65121,1.30794c2.24312,0.44835 5.12097,0.24542 6.01215,0.38612c0.26189,0.04135 4.25312,0.71858 6.35364,1.0069c2.29869,0.31551 2.89711,0.27219 3.35301,0.34747c3.66735,12.43002 11.47784,26.90809 11.47784,26.90809z" fill="#440000" stroke="#000000" stroke-width="0" stroke-linecap="butt"/><path d="M241.57144,180.02254c0,0 2.18367,-0.97914 3.33279,-0.79599c0.79239,0.12629 3.25293,1.67278 3.25293,1.67278c0,0 1.7042,-1.31116 2.90416,-1.11986c0.69373,0.1106 2.93721,2.20342 2.93721,2.20342c0,0 2.87953,-1.01631 4.13169,-0.81298c0.87725,0.14245 2.66523,1.91669 2.66523,1.91669" fill="none" stroke="#440000" stroke-width="2" stroke-linecap="round"/><path d="M260.9958,127.98971c0,0 -2.55247,6.98369 -2.99584,15.59556c-0.48659,9.4515 0.34168,21.3341 0.68458,28.75938c0.59153,12.80889 13.31686,36.39747 13.31686,36.39747c0,0 -6.25052,6.31722 -25.3013,4.5808c-1.66472,-0.15173 -9.47218,-2.06961 -16.19344,-6.01503c-6.12076,-3.59291 -11.27934,-9.25256 -11.27934,-9.25256c0,0 20.31977,-12.45332 27.65617,-26.10389c3.40009,-6.32642 7.04023,-18.79158 8.50546,-29.01155c1.22429,-8.53951 0.55078,-15.57194 0.55078,-15.57194z" fill="none" stroke="#000000" stroke-width="2.5" stroke-linecap="round"/></g></g><g fill="#ccaaaa" stroke="#000000" stroke-width="1" stroke-linecap="butt"><path d="M239.00608,189.97135l-4.03073,5.03379l-2.26903,-6.03788l3.65494,-2.62588z"/><path d="M245.75456,193.36224l-4.03073,5.03379l-2.26902,-6.03787l3.65494,-2.62589z"/><path d="M254.46884,195.17998l-4.03073,5.03379l-2.26902,-6.03787l3.65494,-2.62589z"/><path d="M263.94414,194.37489l-4.03073,5.03379l-2.26902,-6.03788l3.65494,-2.62588z"/></g><g fill="#ccaaaa" stroke="#000000" stroke-width="1" stroke-linecap="butt"><path d="M245.8466,209.43705l-2.4304,-3.3216l3.6889,-4.60315l2.07246,5.52144z"/><path d="M253.81613,211.09941l-2.4304,-3.3216l3.6889,-4.60314l2.07246,5.52144z"/><path d="M262.48163,210.36313l-2.4304,-3.3216l3.6889,-4.60314l2.07246,5.52144z"/><path d="M234.8659,205.14477l3.68625,-4.60358l2.07511,5.52185l-3.34257,2.40147z"/><path d="M226.85864,201.75106l3.68626,-4.60358l2.07511,5.52186l-3.34258,2.40146z"/></g><g><path d="M237.06319,178.00635l-4.37613,1.2044" fill="none" stroke="#ff6969" stroke-width="2" stroke-linecap="round"/><g fill="#ccaaaa" stroke="#000000" stroke-width="2.5" stroke-linecap="butt"><path d="M216.64776,161.18568c1.17922,-7.39849 8.13282,-12.44018 15.53129,-11.26097c7.39847,1.17921 12.44018,8.1328 11.26096,15.53129c-1.17922,7.39849 -8.13281,12.44018 -15.53128,11.26096c-7.39847,-1.17921 -12.44018,-8.13281 -11.26097,-15.53128z"/></g></g><g><path d="M266.3936,184.58312l-3.78488,-2.50516" fill="none" stroke="#ff6969" stroke-width="2" stroke-linecap="round"/><g fill="#ccaaaa" stroke="#000000" stroke-width="2.5" stroke-linecap="butt"><path d="M273.33531,183.95735c-7.39848,-1.17921 -12.44018,-8.13279 -11.26096,-15.53128c1.17922,-7.39849 8.1328,-12.44019 15.53128,-11.26097c7.39848,1.17921 12.44019,8.13281 11.26096,15.53129c-1.17921,7.39847 -8.13281,12.44017 -15.53128,11.26096z"/></g></g><path d="M218.7189,161.51579c0.9969,-6.25463 6.87542,-10.51683 13.13003,-9.51993c6.25461,0.99689 10.51683,6.8754 9.51993,13.13003c-0.9969,6.25463 -6.87542,10.51684 -13.13002,9.51993c-6.25461,-0.99689 -10.51683,-6.87542 -9.51994,-13.13003z" fill="#000000" stroke="#000000" stroke-width="0" stroke-linecap="butt"/><path d="M264.14549,168.98352c0.9969,-6.25463 6.87542,-10.51683 13.13003,-9.51994c6.25461,0.99689 10.51684,6.87541 9.51993,13.13003c-0.99691,6.25463 -6.87542,10.51684 -13.13003,9.51993c-6.25461,-0.99689 -10.51683,-6.87542 -9.51994,-13.13003z" fill="#000000" stroke="#000000" stroke-width="0" stroke-linecap="butt"/></g></g></svg>