<svg version="1.1" xmlns="http://www.w3.org/2000/svg" xmlns:xlink="http://www.w3.org/1999/xlink" width="352.73681" height="528.02756" viewBox="0,0,352.73681,528.02756"><defs><linearGradient x1="278.50323" y1="167.4514" x2="278.50323" y2="308.25347" gradientUnits="userSpaceOnUse" id="color-1"><stop offset="0" stop-color="#6a56c2"/><stop offset="1" stop-color="#94808c"/></linearGradient><linearGradient x1="180.85466" y1="67.31618" x2="174.76882" y2="112.57973" gradientUnits="userSpaceOnUse" id="color-2"><stop offset="0" stop-color="#e6b1e5"/><stop offset="1" stop-color="#ffdfc2"/></linearGradient><radialGradient cx="175.026" cy="82.83007" r="37.74536" gradientUnits="userSpaceOnUse" id="color-3"><stop offset="0" stop-color="#d7a7e1"/><stop offset="1" stop-color="#d7a7e1" stop-opacity="0"/></radialGradient><linearGradient x1="300.6212" y1="70.77569" x2="301.6451" y2="116.43505" gradientUnits="userSpaceOnUse" id="color-4"><stop offset="0" stop-color="#e6b1e5"/><stop offset="1" stop-color="#ffdfc2"/></linearGradient><linearGradient x1="207.16868" y1="167.4514" x2="207.16868" y2="308.25347" gradientUnits="userSpaceOnUse" id="color-5"><stop offset="0" stop-color="#6a56c2"/><stop offset="1" stop-color="#94808c"/></linearGradient></defs><g transform="translate(-50.57895,83.86759)"><g data-paper-data="{&quot;isPaintingLayer&quot;:true}" fill-rule="nonzero" stroke-linejoin="miter" stroke-miterlimit="10" stroke-dasharray="" stroke-dashoffset="0" style="mix-blend-mode: normal"><g data-paper-data="{&quot;index&quot;:null}"><g data-paper-data="{&quot;index&quot;:null}" stroke-linecap="butt"><path d="M309.88563,215.41058l3.64869,76.36369l22.98216,135.59114l-66.13387,15.00218l-5.92356,-25.2978l-17.73541,-120.80729l-0.9658,-66.53042z" data-paper-data="{&quot;index&quot;:null}" fill="url(#color-1)" stroke="#000000" stroke-width="0"/><g fill="none" stroke="none" stroke-width="1" font-family="sans-serif" font-weight="normal" font-size="12" text-anchor="start"/></g><g fill="none" stroke-opacity="0.47039" stroke="#0a0a0b" stroke-width="2.5" stroke-linecap="round"><g><g><path d="M246.16045,304.86678l64.96754,-63.99058"/><path d="M311.12799,255.33514l-59.39792,58.42096"/></g><g><path d="M272.05597,305.93523l39.07202,-38.09506"/><path d="M311.12799,282.29911l-48.32197,47.34501"/></g></g><g data-paper-data="{&quot;index&quot;:null}"><g><path d="M246.16045,240.8762l64.96754,63.99058"/><path d="M311.12799,319.32572l-64.96753,-63.99058"/></g><g><path d="M246.16046,267.84017l64.96753,63.99058"/><path d="M246.16046,282.29911l64.96753,63.99058"/></g></g><g><g><path d="M246.16046,263.44387l27.98001,-27.00306"/></g><g><path d="M311.12799,211.95832l-64.96754,63.99058"/><path d="M311.12799,226.41726l-64.96754,63.99058"/></g></g><g data-paper-data="{&quot;index&quot;:null}"><g><path d="M246.16045,199.45329l64.96754,63.99058"/><path d="M246.16046,213.91223l64.96753,63.99058"/></g><g><path d="M311.12799,290.40784l-64.96753,-63.99058"/></g></g></g><path d="M309.88564,215.41059c0,0 1.80904,43.60692 2.96198,71.39833c1.03975,25.0631 -40.40203,40.57614 -40.40203,40.57614c0,0 -26.29649,-12.75593 -26.38008,-30.89361c-0.1176,-25.51842 -0.30767,-66.75937 -0.30767,-66.75937z" data-paper-data="{&quot;index&quot;:null}" fill="none" stroke="#6a4d93" stroke-width="3" stroke-linecap="butt"/><path d="M246.18799,303.95968c-0.62118,-4.1965 0.61295,-7.95875 0.61295,-7.95875c0,0 3.91165,2.782 12.33682,3.22386c8.42517,0.44186 13.23442,-0.14231 21.53999,-1.56459c11.5068,-1.97048 18.71318,-4.2998 22.16621,-5.62538c3.45304,-1.32557 9.63155,-5.73258 9.63155,-5.73258l24.39081,140.9626l-65.78259,14.47776l-6.246,-23.89132c0,0 -16.29988,-98.01671 -18.64974,-113.89159z" data-paper-data="{&quot;index&quot;:null}" fill="#0a0a0b" stroke="#000000" stroke-width="0" stroke-linecap="butt"/><path d="M312.76511,284.81993l23.75137,142.54548l-66.13387,15.00218l-5.92356,-25.2978c0,0 -16.0778,-97.2663 -18.56322,-113.84111c-0.69447,-4.63128 0.15976,-8.88802 0.15976,-8.88802" data-paper-data="{&quot;index&quot;:null}" fill="none" stroke="#14141a" stroke-width="3" stroke-linecap="butt"/><path d="M312.09683,286.02516c0,0 -6.05022,4.76904 -9.43156,6.18445c-3.38132,1.41542 -10.43806,3.88902 -21.70592,5.91692c-8.1331,1.46373 -12.84249,2.04821 -21.09271,1.46202c-4.13946,-0.29412 -10.65253,-2.23709 -13.10372,-4.03291" data-paper-data="{&quot;index&quot;:null}" fill="none" stroke="#14141a" stroke-width="3" stroke-linecap="butt"/></g><g><g data-paper-data="{&quot;index&quot;:null}" stroke="#000000" stroke-width="3"><path d="M71.8703,255.59103c0,0 1.57994,-12.59794 3.19652,-18.97539c1.73435,-6.84203 6.88115,-20.78112 6.88115,-20.78112l44.52222,14.73262c0,0 -2.64011,16.78027 -4.44049,23.88281c-1.50599,5.94116 -5.63719,15.8737 -5.63719,15.8737c0,0 -4.37238,2.23019 -6.26396,2.01035c-2.19167,-0.25472 -6.11881,-3.44952 -6.11881,-3.44952c0,0 -10.42216,1.72761 -14.35539,0.44584c-3.39937,-1.10779 -7.87689,-7.69095 -7.87689,-7.69095c0,0 -4.7791,0.14996 -6.47989,-0.88837c-1.59476,-0.9736 -3.42727,-5.15995 -3.42727,-5.15995z" fill="#fedfc3" stroke-linecap="butt"/><path d="M87.2857,246.89246l-5.2432,14.03009" fill="none" stroke-linecap="round"/><path d="M104.23187,268.27879l3.2143,-14.25104" fill="none" stroke-linecap="round"/></g><g><path d="M205.35879,94.20431c-10.80553,20.12721 -80.35632,143.74617 -80.35632,143.74617l-4.16022,11.19305l-43.55868,-25.2228l4.34818,-10.5885c0,0 24.46824,-30.72223 36.98791,-51.15225c16.45466,-26.85128 53.20181,-96.02239 53.20181,-96.02239c0,0 8.25824,-10.1941 27.25353,2.10746c16.96045,10.98377 6.28379,25.93929 6.28379,25.93929z" data-paper-data="{&quot;index&quot;:null}" fill="#fedfc3" stroke="#000000" stroke-width="0" stroke-linecap="round"/><g data-paper-data="{&quot;index&quot;:null}"><g><g fill="none" stroke="none" stroke-width="1" stroke-linecap="butt" font-family="sans-serif" font-weight="normal" font-size="12" text-anchor="start"/><path d="M205.71327,94.51322l-23.22557,45.31555l-40.83527,-23.02056c0,0 25.11449,-39.94 30.09162,-49.18504c0.21596,-0.40112 4.91467,-5.14004 10.88631,-5.15549c4.7394,-0.01228 19.72444,5.55694 25.60806,13.68589c2.789,3.85334 -0.40187,13.76138 -0.40187,13.76138" data-paper-data="{&quot;index&quot;:null}" fill="#ffdfc2" stroke="#000000" stroke-width="0" stroke-linecap="round"/><path d="M205.61964,94.47054l-20.34722,39.4567l-41.33764,-22.85873l27.12906,-42.53443c0,0 8.00618,-8.67106 15.63667,-6.43774c2.33644,0.68385 17.80344,7.98985 20.59564,12.86617c5.09098,8.89096 -1.67653,19.50805 -1.67653,19.50805z" data-paper-data="{&quot;index&quot;:null}" fill="url(#color-2)" stroke="#000000" stroke-width="0" stroke-linecap="round"/><path d="M205.55258,94.4044l-20.34832,37.50077c0,0 -1.56667,0.17145 -3.31184,0.36245c-6.58218,0.72036 -52.18762,2.09959 -52.18762,2.09959l42.66165,-68.06016c0,0 7.08504,-4.28427 14.73041,-3.92408c5.47268,0.25782 11.56801,4.6212 14.01174,6.6902c1.87896,1.59083 7.26756,6.59268 7.90454,10.83129c1.09154,7.26338 -3.46055,14.49993 -3.46055,14.49993z" data-paper-data="{&quot;index&quot;:null}" fill="url(#color-3)" stroke="#000000" stroke-width="0" stroke-linecap="round"/></g><path d="M180.59172,70.5776c0.14755,-0.99906 3.46382,-1.33686 5.56347,-1.02679c2.09965,0.31007 4.82086,1.53952 4.67332,2.53858c-0.14755,0.99906 -3.10798,1.38942 -5.20762,1.07934c-2.09965,-0.31007 -5.17671,-1.59208 -5.02917,-2.59113z" fill="#3e3571" stroke="none" stroke-width="0" stroke-linecap="butt"/><path d="M205.64649,77.88034c0.83431,1.48426 1.71275,3.96921 0.24587,4.79375c-1.46688,0.82455 -1.96912,-1.87184 -2.80342,-3.35613c-0.83431,-1.48426 -2.52375,-3.71697 -0.9667,-4.5922c1.55705,-0.87524 3.52427,3.15458 3.52427,3.15458z" fill="#3e3571" stroke="none" stroke-width="0" stroke-linecap="butt"/><path d="M188.22421,66.89024c0.34111,-0.73296 1.66445,-0.83997 2.95575,-0.23901c1.29131,0.60095 2.06161,1.68231 1.72051,2.41527c-0.34111,0.73296 -1.66445,0.83997 -2.95577,0.23902c-1.29131,-0.60095 -2.06159,-1.68232 -1.72048,-2.41528z" fill="#3e3571" stroke="none" stroke-width="0" stroke-linecap="butt"/><path d="M204.09242,87.42563c-0.7067,-0.39261 -0.71886,-1.72023 -0.02714,-2.96528c0.69171,-1.24505 1.82534,-1.93609 2.53205,-1.54348c0.7067,0.39261 0.71886,1.72024 0.02715,2.96529c-0.69171,1.24505 -1.82535,1.93609 -2.53206,1.54348z" fill="#3e3571" stroke="none" stroke-width="0" stroke-linecap="butt"/><path d="M196.07734,70.99464c0.36731,-0.72017 1.69365,-0.7794 2.96245,-0.13227c1.2688,0.64713 1.9996,1.75554 1.63229,2.47573c-0.36731,0.72017 -1.69366,0.77941 -2.96246,0.13228c-1.2688,-0.64713 -1.9996,-1.75554 -1.63229,-2.47573z" fill="#3e3571" stroke="none" stroke-width="0" stroke-linecap="butt"/><path d="M186.68214,78.92104c0.14755,-0.99906 3.46383,-1.33687 5.56348,-1.02679c2.09965,0.31007 4.82086,1.53953 4.67331,2.53859c-0.14755,0.99906 -3.10798,1.38942 -5.20762,1.07934c-2.09965,-0.31007 -5.17672,-1.59208 -5.02917,-2.59113z" fill="#3e3571" stroke="none" stroke-width="0" stroke-linecap="butt"/><path d="M197.14862,75.30951c0.64946,-0.60979 2.04689,-0.17652 3.12119,0.96771c1.07431,1.14423 1.4187,2.56615 0.76923,3.17593c-0.64946,0.60979 -2.04689,0.17652 -3.1212,-0.9677c-1.07431,-1.14423 -1.41869,-2.56615 -0.76922,-3.17593z" fill="#3e3571" stroke="none" stroke-width="0" stroke-linecap="butt"/><path d="M181.78361,67.37335c-0.07387,-0.73822 0.92059,-1.44217 2.22118,-1.57232c1.3006,-0.13014 2.41482,0.36281 2.48868,1.10103c0.07387,0.73822 -0.92059,1.44218 -2.22117,1.57232c-1.3006,0.13014 -2.41481,-0.36281 -2.48868,-1.10103z" fill="#3e3571" stroke="none" stroke-width="0" stroke-linecap="butt"/><path d="M179.9328,66.04139c0.99931,1.48046 -1.5119,2.71864 -2.92316,3.67124c-1.41127,0.95262 -3.0692,3.13757 -4.01065,1.74283c-0.94144,-1.39473 0.95794,-3.222 2.3692,-4.1746c0,0 3.56529,-2.71993 4.5646,-1.23947z" data-paper-data="{&quot;index&quot;:null}" fill="#3e3571" stroke="none" stroke-width="0" stroke-linecap="butt"/></g><path d="M77.28355,223.92074l4.34817,-10.58849c0,0 24.73618,-31.15945 37.34434,-51.73388c16.43088,-26.81247 52.84538,-95.44077 52.84538,-95.44077c0,0 8.25823,-10.1941 27.25352,2.10745c16.96045,10.98377 6.28379,25.9393 6.28379,25.9393v-0.00001c-10.80553,20.12721 -80.35631,143.74617 -80.35631,143.74617l-4.16023,11.19305" data-paper-data="{&quot;index&quot;:null}" fill="none" stroke="#000000" stroke-width="3" stroke-linecap="round"/></g><path d="M124.61135,253.92545c-0.90269,1.7493 -15.31174,35.99483 -15.31174,35.99483c0,0 -22.16918,-3.26711 -33.78286,-9.25831c-10.34255,-5.33546 -23.102,-21.00942 -23.102,-21.00942c0,0 19.58794,-31.82121 20.27019,-32.88162c2.85835,-4.44273 26.24922,-34.29887 45.77095,-66.58031c22.53291,-37.26079 41.37564,-77.26816 41.37564,-77.26816c0,0 13.3851,5.05731 20.41965,7.71517c7.52215,2.8421 24.18701,6.81608 24.18701,6.81608c0,0 -23.44953,56.06285 -36.99249,82.60895c-13.0475,25.57494 -42.83433,73.8628 -42.83433,73.8628z" data-paper-data="{&quot;index&quot;:null}" fill="#1e1e1f" stroke="#0a0a0b" stroke-width="3" stroke-linecap="round"/><g stroke="#0a0a0b" stroke-width="3"><path d="M157.06234,83.46204c0,0 -0.62609,-1.85762 -0.19052,-2.89956c0.43558,-1.04194 2.23243,-1.98493 2.23243,-1.98493c0,0 15.80482,7.59753 23.83486,10.44449c7.72802,2.73987 23.47405,6.32834 23.47405,6.32834c0,0 0.79683,2.36424 0.24247,3.69034c-0.55436,1.3261 -2.28438,1.19415 -2.28438,1.19415c0,0 -16.42263,-2.06068 -24.54407,-4.94005c-7.61563,-2.70003 -22.76484,-11.83279 -22.76484,-11.83279z" fill="#1e1e1f" stroke-linecap="butt"/><path d="M162.75371,86.31908c0,0 -0.08504,-1.93177 0.10281,-2.38112c0.28536,-0.6826 1.83808,-2.26171 1.83808,-2.26171" fill="none" stroke-linecap="round"/><path d="M179.91946,94.9759c0,0 0.08397,-2.65165 0.29462,-3.65591c0.16123,-0.76868 0.86114,-1.85406 0.86114,-1.85406" fill="none" stroke-linecap="round"/><path d="M197.62292,93.19571c0,0 0.47239,1.87264 0.24108,2.72073c-0.24641,0.9035 -1.67712,2.54456 -1.67712,2.54456" fill="none" stroke-linecap="round"/></g></g><g stroke="#000000"><path d="M272.99508,95.01328c0,0 -5.54717,-11.30269 0.49927,-19.57359c3.31622,-4.53624 19.49862,-10.08022 21.89653,-10.50049c7.83125,-1.37253 14.82545,8.13366 14.82545,8.13366l18.3171,46.61078l-39.69664,16.80109z" data-paper-data="{&quot;index&quot;:null}" fill="url(#color-4)" stroke-width="0" stroke-linecap="round"/><g stroke-width="3"><path d="M387.16419,272.02232c-1.73593,0.97848 -6.5069,0.66217 -6.5069,0.66217c0,0 -4.70407,6.42322 -8.13995,7.41197c-3.97549,1.14402 -14.33116,-0.94551 -14.33116,-0.94551c0,0 -4.03602,3.0561 -6.23523,3.23434c-1.89808,0.15384 -6.19016,-2.22728 -6.19016,-2.22728c0,0 -3.78277,-10.07039 -5.08094,-16.0604c-1.55194,-7.16094 -3.60606,-24.02297 -3.60606,-24.02297l45.00829,-13.17314c0,0 4.65823,14.10988 6.15326,21.00815c1.3935,6.42988 2.53374,19.07521 2.53374,19.07521c0,0 -1.97719,4.12 -3.60489,5.03746z" fill="#fedfc3" stroke-linecap="butt"/><path d="M380.41738,271.95889l-4.75141,-14.20418" fill="none" stroke-linecap="round"/><path d="M355.26924,264.18356l2.71603,14.35434" fill="none" stroke-linecap="round"/></g><path d="M272.59245,94.73771c0,0 -8.95059,-16.04824 9.12428,-25.08148c20.2434,-10.11702 27.31903,0.93077 27.31903,0.93077c0,0 17.05422,47.68338 28.66991,72.44961c12.71641,27.11312 44.62577,83.82676 44.62577,83.82676l3.14596,11.00573l-46.08927,20.23182l-2.89207,-11.58566c0,0 -55.39902,-130.5753 -63.90361,-151.77755z" data-paper-data="{&quot;index&quot;:null}" fill="#fedfc3" stroke-width="0" stroke-linecap="round"/><path d="M339.38813,258.10094l-2.89207,-11.58566c0,0 -55.39902,-130.5753 -63.90361,-151.77755v0.00001c0,0 -8.95059,-16.04823 9.12428,-25.08148c20.2434,-10.11702 27.31903,0.93076 27.31903,0.93076c0,0 16.51494,47.79151 28.12563,72.54709c12.71986,27.12048 45.17005,83.72929 45.17005,83.72929l3.14596,11.00573" data-paper-data="{&quot;index&quot;:null}" fill="none" stroke-width="3" stroke-linecap="round"/></g><path d="M272.51653,94.47832c0,0 -8.95059,-16.04823 9.12428,-25.08148c20.2434,-10.11702 27.31903,0.93077 27.31903,0.93077c0,0 11.54386,34.93379 29.25867,70.64643c18.925,38.15236 44.17913,77.4025 46.79123,82.66843c0.56032,1.1296 16.49498,34.92847 16.49498,34.92847c0,0 -14.42044,14.16077 -25.29132,18.31521c-12.20695,4.66503 -34.60178,5.45112 -34.60178,5.45112c0,0 -10.51867,-35.63331 -11.22161,-37.472c-3.97402,-10.39492 -23.26023,-46.13922 -36.76117,-81.2939c-11.56002,-30.1008 -17.53065,-60.16384 -21.11231,-69.09306z" data-paper-data="{&quot;index&quot;:null}" fill="#1e1e1f" stroke="#0a0a0b" stroke-width="3" stroke-linecap="round"/><g><g data-paper-data="{&quot;index&quot;:null}" stroke-linecap="butt"><path d="M239.91407,229.73208l-0.9658,66.53042l-17.73541,120.80729l-5.92356,25.2978l-66.13387,-15.00218l22.98216,-135.59114l3.64869,-76.36369z" data-paper-data="{&quot;index&quot;:null}" fill="url(#color-5)" stroke="#000000" stroke-width="0"/><g fill="none" stroke="none" stroke-width="1" font-family="sans-serif" font-weight="normal" font-size="12" text-anchor="start"/></g><g fill="none" stroke-opacity="0.47039" stroke="#0a0a0b" stroke-width="2.5" stroke-linecap="round"><g><g><path d="M239.51146,304.86678l-64.96754,-63.99058"/><path d="M174.54392,255.33514l60.47387,59.49691"/></g><g><path d="M174.54392,267.84017l39.07202,38.09506"/><path d="M174.54392,282.29911l48.1321,47.15514"/></g></g><g data-paper-data="{&quot;index&quot;:null}"><g><path d="M174.54392,304.86678l64.96754,-63.99058"/><path d="M239.51145,255.33514l-64.96753,63.99058"/></g><g><path d="M239.51145,267.84017l-64.96753,63.99058"/><path d="M239.51145,282.29911l-64.96753,63.99058"/></g></g><g><g><path d="M211.53144,236.44081l27.98001,27.00306"/></g><g><path d="M239.51146,275.9489l-64.96754,-63.99058"/><path d="M239.51146,290.40784l-64.96754,-63.99058"/></g></g><g data-paper-data="{&quot;index&quot;:null}"><g><path d="M174.54392,263.44387l64.96754,-63.99058"/><path d="M174.54392,277.90281l64.96753,-63.99058"/></g><g><path d="M174.54392,290.40784l64.96753,-63.99058"/></g></g></g><path d="M239.91407,229.73208c0,0 -0.19007,41.24095 -0.30767,66.75937c-0.08359,18.13768 -26.38008,30.89361 -26.38008,30.89361c0,0 -41.44178,-15.51304 -40.40203,-40.57614c1.15294,-27.79141 2.96198,-71.39833 2.96198,-71.39833z" data-paper-data="{&quot;index&quot;:null}" fill="none" stroke="#6a4d93" stroke-width="3" stroke-linecap="butt"/><path d="M220.83418,417.85127l-6.246,23.89132l-65.78259,-14.47776l24.39081,-140.9626c0,0 6.17851,4.40701 9.63155,5.73258c3.45303,1.32558 10.65941,3.6549 22.16621,5.62538c8.30557,1.42228 13.11482,2.00645 21.53999,1.56459c8.42517,-0.44186 12.33682,-3.22386 12.33682,-3.22386c0,0 1.23414,3.76226 0.61296,7.95876c-2.34986,15.87488 -18.64974,113.89159 -18.64974,113.89159z" data-paper-data="{&quot;index&quot;:null}" fill="#0a0a0b" stroke="#000000" stroke-width="0" stroke-linecap="butt"/><path d="M239.61632,294.34066c0,0 0.85423,4.25673 0.15976,8.88802c-2.48542,16.57482 -18.56322,113.84111 -18.56322,113.84111l-5.92356,25.2978l-66.13387,-15.00218l23.75137,-142.54548" data-paper-data="{&quot;index&quot;:null}" fill="none" stroke="#14141a" stroke-width="3" stroke-linecap="butt"/><path d="M238.90899,295.55564c-2.45119,1.79582 -8.96426,3.73879 -13.10372,4.03291c-8.25022,0.58619 -12.95961,0.00171 -21.09271,-1.46202c-11.26786,-2.0279 -18.3246,-4.5015 -21.70592,-5.91692c-3.38134,-1.41541 -9.43156,-6.18445 -9.43156,-6.18445" data-paper-data="{&quot;index&quot;:null}" fill="none" stroke="#14141a" stroke-width="3" stroke-linecap="butt"/></g><g data-paper-data="{&quot;index&quot;:null}"><path d="M290.86651,-55.09216c0,0 2.82756,7.0549 4.20962,17.85115c2.02535,15.82139 3.05581,39.21261 1.39723,56.43422c-1.48676,15.43727 -29.68383,44.81093 -57.09757,45.3703c-26.73904,0.5456 -47.3438,-27.43053 -48.76655,-41.46912c-0.90331,-8.91321 -2.95991,-17.91727 -4.43428,-26.07435c-2.62701,-14.53424 0.70861,-25.44461 0.60567,-32.54721c-0.00186,-0.12803 0.31735,-5.1127 1.09837,-9.12374c0.6072,-3.11844 1.72029,-5.50142 1.72029,-5.50142" fill="#ae2e2e" stroke="#000000" stroke-width="3" stroke-linecap="butt"/><g stroke-linecap="butt"><g fill="#ae2e2e" stroke="#000000"><g stroke-width="0"><path d="M237.85169,69.04325c-14.66352,0.30536 -27.38706,-8.5952 -35.79101,-18.79846c17.74594,-2.16633 23.67065,9.83501 37.70594,8.9662c10.42088,-0.64508 28.64081,-14.45735 41.91424,-14.36187c-10.46294,12.25694 -27.29587,23.84982 -43.82915,24.19414z"/></g><path d="M221.39314,62.77402c-8.10054,-1.50732 -4.81062,10.38398 -4.81062,10.38398c0,0 -13.20436,-9.32419 -14.89995,-15.7985c-1.54747,-5.90871 -0.26641,-10.31809 -0.02793,-10.84321" data-paper-data="{&quot;index&quot;:null}" stroke-width="3"/><path d="M254.8807,64.26339c-7.10638,4.74012 -12.14597,17.50622 -12.14597,17.50622c0,0 -5.27781,-2.75633 -8.51651,-7.61649c-2.95575,-4.43556 -2.98628,-9.00406 -2.93901,-9.68472" data-paper-data="{&quot;index&quot;:null}" stroke-width="3"/><path d="M235.50989,64.53654c0,0 -4.30195,5.31433 -4.50981,10.77917c-0.10087,2.65156 0.22897,4.46756 0.22897,4.46756c0,0 -6.01187,-3.02142 -7.70106,-4.6902c-4.75589,-4.69848 -2.24993,-13.5959 -2.24993,-13.5959" data-paper-data="{&quot;index&quot;:null}" stroke-width="3"/><path d="M282.44428,42.46242c3.06742,8.44664 3.01707,8.63851 3.01707,8.63851h-0.00001c0,0 3.43428,12.07487 1.20488,18.97302c-2.16666,6.70398 -15.44682,9.82951 -15.44682,9.82951c0,0 2.79222,-6.43047 1.60956,-11.02871c-1.07124,-4.16506 -7.19525,-6.22888 -7.19525,-6.22888c0,0 -0.69463,5.7784 -3.50354,9.78178c-1.52675,2.17599 -6.21703,3.80879 -6.21703,3.80879c0,0 -0.43528,-3.76103 -1.51079,-6.2578c-0.8747,-2.03055 -3.173,-3.42469 -4.30387,-4.01025" stroke-width="2.5"/></g><g fill="none" stroke="none" stroke-width="1" font-family="sans-serif" font-weight="normal" font-size="12" text-anchor="start"/><g fill="none" stroke="none" stroke-width="1" font-family="sans-serif" font-weight="normal" font-size="12" text-anchor="start"/><g fill="none" stroke="none" stroke-width="1" font-family="sans-serif" font-weight="normal" font-size="12" text-anchor="start"/></g><path d="M248.32584,-76.48692c-4.6946,-1.63915 -7.47007,9.13736 -7.47007,9.13736c0,0 -1.03561,-8.76333 -3.21321,-11.40549c-2.43692,-2.95678 -6.24803,-4.95637 -9.23204,-2.52578" fill="none" stroke="#000000" stroke-width="3" stroke-linecap="round"/><path d="M299.95272,-71.30523c0,-1.58226 1.7672,-1.58226 1.7672,-1.58226h0.40173c1.55913,0.02344 3.18505,0.20078 4.5908,0.80501c6.88062,1.49835 10.81184,13.10922 3.46048,16.5662c-2.24957,1.05788 -5.63108,1.43806 -8.06529,1.9406c-0.11413,0.02357 -3.4382,0.57718 -3.64884,0.73065c-1.77706,1.29487 0.36551,5.47739 0.59157,6.85369c0,0 0.24993,1.56634 -1.49954,1.79013c-1.74945,0.22377 -1.99936,-1.34259 -1.99936,-1.34259c-0.5029,-3.26319 -2.85789,-6.835 0.59157,-9.69186c3.3148,-2.74534 10.46015,-0.63914 13.45985,-3.77505c2.76848,-2.89417 -0.28755,-9.61741 -4.03748,-10.07856c-1.03779,-0.48742 -2.27217,-0.65847 -3.44375,-0.63373h-0.40173c0,0 -1.7672,0 -1.7672,-1.58226z" fill="#000000" stroke="none" stroke-width="0.5" stroke-linecap="butt"/><path d="M282.3545,-61.21126c0,0 22.61901,14.33077 28.00771,16.99449c6.20791,3.06867 18.95414,4.23658 18.95414,4.23658c0,0 -6.34151,18.16907 -11.80511,23.18258c-5.04343,4.62798 -31.64003,1.97314 -31.64003,1.97314" fill="#ae2e2e" stroke="#000000" stroke-width="0" stroke-linecap="round"/><path d="M310.35029,51.74235c0,-1.58226 1.7672,-1.58226 1.7672,-1.58226h0.40173c5.26854,0.16663 6.12211,2.72029 3.95951,6.65988c-0.8777,1.29636 -1.89047,2.54453 -3.11163,3.5946c-0.84613,0.72759 -1.50695,1.72082 -2.58196,2.14141c-4.46984,1.74883 -8.73803,-3.59099 -9.96748,-6.67009c-0.75046,-1.87953 -0.48614,-4.06635 -0.88333,-6.01641c-0.11087,-0.54431 -0.62361,-4.4439 -1.19948,-4.69427c-1.10994,-0.48259 -7.31561,0.73939 -8.86421,0.93978c0,0 -1.74944,0.22377 -1.99936,-1.34259c-0.24993,-1.56636 1.49951,-1.79013 1.49951,-1.79013c2.61277,-0.33061 8.92194,-1.71733 11.2222,-0.49897c1.04829,0.55526 2.13707,3.65638 2.39293,4.56141c0.89798,3.17644 0.30195,6.45814 2.21064,9.27886c1.76391,2.60674 3.02134,4.36639 5.67133,1.85334c0.93397,-0.8857 1.81937,-1.83163 2.51257,-2.87974c1.00591,-1.75889 1.7181,-2.11704 -0.86124,-1.97258h-0.40173c0,0 -1.7672,0 -1.7672,-1.58226z" fill="#000000" stroke="none" stroke-width="0.5" stroke-linecap="butt"/><path d="M169.82406,4.26698c-0.42861,1.53502 -2.14304,1.15127 -2.14304,1.15127l-0.88776,-0.33396c-2.87541,0.40528 -3.71464,0.60348 -3.75024,3.3627c-0.00664,0.51392 -0.38737,1.10628 -0.07976,1.54022c0.19716,0.27814 0.73031,-0.12333 1.09763,-0.10438c2.09531,0.10819 4.19044,0.45826 6.285,0.33893c4.98549,-0.28402 4.66146,-5.64249 8.20352,-7.74542c0.78455,-0.4658 1.87818,-0.1169 2.81728,-0.17536c0,0 1.7672,0 1.7672,1.58224c0,1.58226 -1.7672,1.58226 -1.7672,1.58226c-2.6382,-0.38553 -3.73931,4.57324 -5.66645,6.08348c-3.20908,2.51483 -8.30752,2.1489 -12.1743,1.46191c-1.06729,-0.18962 -2.43173,-0.09345 -3.12519,-0.84419c-1.96001,-2.12195 -0.9922,-6.84039 0.83511,-8.68292c1.17519,-1.18496 3.44475,-1.28217 4.97636,-1.52097l2.32605,0.38541c0,0 1.71444,0.38374 1.28584,1.91877z" fill="#000000" stroke="none" stroke-width="0.5" stroke-linecap="butt"/><path d="M188.77239,-48.01474c0,0 1.00544,-3.44375 3.4357,-7.54776c1.46907,-2.48082 3.45875,-5.2029 6.06171,-7.55141c2.29982,-2.07498 5.22661,-3.92591 8.42586,-5.35128c3.5798,-1.59493 7.50085,-2.65701 11.2665,-2.90398c3.49819,-0.22943 9.00711,1.08508 13.71212,2.48394c4.88605,1.45267 8.90515,2.99636 8.90515,2.99636c0,0 5.30256,-2.77502 12.50169,-4.66052c5.64743,-1.4791 12.46196,-2.41079 18.79936,-1.02605c2.60556,0.56931 5.16417,1.81048 7.54228,3.43583c2.67803,1.83031 5.12713,4.14785 7.15671,6.54184c2.22951,2.62985 3.85424,5.27704 5.04422,7.98514" fill="#ae2e2e" stroke="#000000" stroke-width="0" stroke-linecap="butt"/><g stroke-linecap="round"><path d="M234.97753,36.74603l-26.90732,25.90082c0,0 -2.90838,-0.55269 -3.45288,-3.08838c-0.29944,-1.39447 1.97858,-4.8666 1.48259,-5.71213c-1.60809,-2.74135 -7.13627,-6.72369 -7.13627,-6.72369c0,0 -5.86113,-0.14831 -8.12664,-0.53546c-2.27859,-0.38941 -7.97257,-4.90769 -7.97257,-4.90769c0,0 4.05617,-1.40147 5.45446,-2.95422c1.49271,-1.6576 3.23708,-6.6974 3.23708,-6.6974c0,0 -9.68088,4.52387 -13.58743,2.75584c-4.0161,-1.81762 -10.18969,-13.51685 -10.18969,-13.51685c0,0 5.7939,-2.08734 7.78762,-4.36299c2.6039,-2.97214 7.03788,-4.48204 6.49985,-11.94493c-0.29812,-4.13506 -3.00889,-6.03544 -5.29539,-8.32473c-1.84015,-1.8424 -3.40552,-3.93669 -3.21735,-7.6504c0.19129,-3.77551 2.20359,-7.74558 4.40514,-11.17828c2.65476,-4.13935 2.82945,-9.83933 3.17356,-11.13262c0.62949,-2.36583 -1.11416,-1.9846 -1.11416,-1.9846l20.97861,-3.15847" fill="#ae2e2e" stroke="none" stroke-width="0"/><path d="M201.3057,51.80681c0,0 -1.61228,-3.31666 -3.60627,-4.07842c-2.09639,-0.80088 -5.70134,-0.94279 -6.86245,-1.1412c-2.27859,-0.38941 -7.97257,-4.90769 -7.97257,-4.90769c0,0 4.05617,-1.40147 5.45446,-2.95422c1.49271,-1.6576 3.23708,-6.6974 3.23708,-6.6974c0,0 -9.68088,4.52387 -13.58743,2.75584c-4.0161,-1.81762 -10.18969,-13.51685 -10.18969,-13.51685c0,0 5.7939,-2.08734 7.78762,-4.36299c2.6039,-2.97214 7.03788,-4.48204 6.49985,-11.94493c-0.29812,-4.13506 -3.00889,-6.03544 -5.29539,-8.32473c-1.84015,-1.8424 -3.40552,-3.93669 -3.21735,-7.6504c0.17003,-3.35574 1.79221,-6.91949 3.70988,-10.13355c2.84156,-4.76256 2.48455,-9.80283 2.8604,-11.21537c0.62949,-2.36583 -0.10573,-2.94656 -0.10573,-2.94656" fill="none" stroke="#000000" stroke-width="3"/></g><g stroke="#000000" stroke-linecap="round"><path d="M298.01984,-7.16317c0,0 12.6424,7.27587 16.93999,18.20256c0.97112,2.46908 1.49215,5.75005 1.45836,9.22898c-0.03657,3.76583 -0.72322,7.76358 -2.19281,11.21466c-3.18085,7.46968 -9.48784,12.69363 -10.3869,13.53167c-1.05648,0.98476 0.84725,-1.93224 -0.29811,-4.14343c-1.32366,-2.55544 -5.6937,-4.46414 -6.83416,-3.10001c-3.36332,4.023 -6.08313,11.24523 -3.86456,16.18164c1.24383,2.76757 7.67666,5.01927 7.67666,5.01927c0,0 -3.70021,1.66479 -8.44419,3.24178c-1.90332,0.63272 -11.68706,2.0086 -17.66497,-1.10241c-6.21939,-3.23666 -8.60251,-10.9785 -8.60251,-10.9785" fill="#ae2e2e" stroke-width="0"/><path d="M298.24894,-7.16317c0,0 12.6424,7.27587 16.93999,18.20256c0.97112,2.46908 1.49215,5.75005 1.45835,9.22898c-0.03657,3.76583 -0.72323,7.76358 -2.19281,11.21466c-3.18085,7.46968 -9.48784,12.69363 -10.38689,13.53167c-1.05648,0.98476 0.84725,-1.93224 -0.29811,-4.14343c-1.32366,-2.55544 -5.69369,-4.46414 -6.83415,-3.10001c-3.36332,4.023 -6.08313,11.24523 -3.86456,16.18164c1.24383,2.76757 7.67665,5.01927 7.67665,5.01927c0,0 -3.30423,2.11107 -8.29751,3.9769c-1.7346,0.64817 -13.63046,0.72589 -19.784,-2.47818c-6.07045,-3.1608 -6.41126,-9.59964 -6.41126,-9.59964" fill="none" stroke-width="3"/></g><path d="M285.5073,-61.59741c0,0 3.27841,3.73154 8.11795,7.52098c5.31101,4.15863 13.52334,8.46592 16.34284,9.85965c6.20791,3.06867 18.95414,4.23658 18.95414,4.23658c0,0 -6.34154,18.16907 -11.80513,23.18258c-5.04345,4.62798 -21.87335,9.03334 -21.87335,9.03334" fill="#ae2e2e" stroke="#000000" stroke-width="3" stroke-linecap="round"/><g data-paper-data="{&quot;index&quot;:null}" stroke="#000000" stroke-linecap="butt"><path d="M301.08588,-25.63608c0.54609,4.94942 1.79087,11.74385 6.393,13.97089c3.43064,1.66014 7.691,1.7391 7.691,1.7391c0,0 -5.5177,13.22614 -11.66015,14.26686c-5.60581,0.94978 -21.88051,-4.52255 -22.49502,-4.84786" data-paper-data="{&quot;index&quot;:null}" fill="#ae2e2e" stroke-width="0"/><path d="M304.42998,-16.89129c0.95316,8.63893 10.8929,6.69232 10.8929,6.69232c0,0 -5.51774,13.22614 -11.66017,14.26686" data-paper-data="{&quot;index&quot;:null}" fill="none" stroke-width="3"/></g><path d="M195.43425,-48.46482c0,0 0.90188,-2.82278 3.08183,-6.18678c1.31776,-2.03349 3.10253,-4.26473 5.4374,-6.18975c2.06296,-1.70083 4.68829,-3.21801 7.55803,-4.38637c3.21112,-1.30732 6.72831,-2.17791 10.10611,-2.38034c3.13789,-0.18807 8.07944,0.8894 12.29986,2.03603c4.38283,1.19073 7.98799,2.45606 7.98799,2.45606c0,0 4.75642,-2.27463 11.21408,-3.82017c5.06578,-1.21239 11.17844,-1.9761 16.86315,-0.84103c2.33721,0.46665 4.63229,1.48401 6.76546,2.8163c2.40219,1.50028 4.59908,3.39991 6.41961,5.36222c1.99987,2.15563 3.45728,4.32551 4.5247,6.54528" fill="#ae2e2e" stroke="#000000" stroke-width="0" stroke-linecap="butt"/><g stroke="#000000" stroke-linecap="butt"><path d="M181.92539,-21.54253c-0.20162,-3.54838 -4.59714,-5.85124 -7.18401,-9.72904c-1.32907,-1.99231 -3.66245,-4.95563 -3.69158,-7.88754c-0.04891,-4.92329 2.95363,-9.75804 2.95363,-9.75804c0,0 3.05882,5.563 9.42156,4.72643c2.30157,-0.3026 7.3526,-7.48838 9.50019,-8.6864c3.27077,-1.82456 4.72251,10.6879 5.09177,10.88957" data-paper-data="{&quot;index&quot;:null}" fill="#ae2e2e" stroke-width="0"/><path d="M176.40628,-19.86464c0,0 5.502,-7.5865 1.03191,-9.46962c-13.82085,-5.8223 -3.89483,-20.97555 -3.89483,-20.97555c0,0 5.05987,10.43609 10.76818,5.69663c4.08074,-3.38816 7.02095,-9.17246 7.02095,-9.17246" data-paper-data="{&quot;index&quot;:null}" fill="none" stroke-width="3"/></g><path d="M188.77239,-48.60035c0,0 1.00544,-3.44375 3.4357,-7.54776c1.46907,-2.48082 3.45874,-5.2029 6.06171,-7.55141c2.29982,-2.07498 5.22661,-3.92591 8.42586,-5.35128c3.5798,-1.59491 7.50085,-2.657 11.2665,-2.90398c3.49819,-0.22943 9.00709,1.08508 13.7121,2.48394c4.88605,1.45267 8.90514,2.99636 8.90514,2.99636c0,0 5.30258,-2.77501 12.50169,-4.66051c5.64743,-1.4791 12.46196,-2.41081 18.79937,-1.02606c2.60556,0.56931 5.16417,1.81048 7.54228,3.43583c2.67803,1.83031 5.12716,4.14785 7.15671,6.54184c2.22951,2.62983 3.85424,5.27704 5.04422,7.98514" fill="none" stroke="#000000" stroke-width="3" stroke-linecap="butt"/></g><g stroke="#000000" stroke-linecap="round"><path d="M217.33878,52.30703c3.54583,-0.54357 5.96062,-0.91274 5.96062,-0.91274l-0.30497,-24.07863h34.91904l-0.30497,24.07863c0,0 2.67463,0.41971 6.56422,1.03008" data-paper-data="{&quot;index&quot;:null}" fill="#ffdfc2" stroke-width="0"/><path d="M223.29939,51.39428l-0.30497,-24.07863h34.91904l-0.30497,24.07863" data-paper-data="{&quot;index&quot;:null}" fill="none" stroke-width="3"/><path d="M257.51858,50.85007c0,0 15.42897,4.06208 21.32939,6.64998c4.71175,2.06655 10.93146,8.82205 10.93146,8.82205c0,0 0.91766,2.28838 -0.77454,2.69232c-8.47217,2.02237 -36.62344,8.41198 -51.12266,8.44007c-13.22962,0.02563 -42.88837,-9.68572 -42.88837,-9.68572l1.86739,-3.2187c0,0 3.05937,-5.09101 7.50421,-7.15326c5.16015,-2.39411 19.51678,-6.36492 19.51678,-6.36492" fill="#fedfc3" stroke-width="3"/></g><path d="M191.75395,-48.39317c7.96189,-6.17958 26.93305,-6.14715 49.25847,-7.65046c33.17158,-2.23365 44.81017,10.36952 44.81017,10.36952c0,0 -86.08851,1.09435 -95.7379,1.21701z" fill="#ae2e2e" stroke="#000000" stroke-width="0" stroke-linecap="round"/><path d="M289.67399,66.25145c0,0 5.57904,8.43356 8.00853,12.82533c2.34469,4.23847 6.32308,13.0817 6.32308,13.0817c0,0 -3.27893,9.6133 -5.58301,13.97633c-2.41061,4.56476 -8.57549,12.83443 -8.57549,12.83443h-94.21617c0,0 -6.2687,-7.61521 -8.64392,-12.11297c-2.34386,-4.43837 -5.51457,-14.69779 -5.51457,-14.69779c0,0 4.20327,-9.24976 6.59472,-13.57276c2.38574,-4.31266 7.73688,-12.33427 7.73688,-12.33427" data-paper-data="{&quot;index&quot;:null}" fill="#fedfc3" stroke="#0a0a0b" stroke-width="3" stroke-linecap="round"/><path d="M187.58323,-9.48684c-0.41726,-29.38185 23.06321,-36.62332 52.44507,-37.04057c29.38185,-0.41726 53.53883,6.14771 53.95607,35.52956c0.41726,29.38185 -23.06319,53.53883 -52.44507,53.95607c-29.38185,0.41726 -53.53883,-23.06321 -53.95607,-52.44505z" fill="#ffdfc2" stroke="#000000" stroke-width="3" stroke-linecap="butt"/><path d="M196.01581,18.85468c0,0 6.16419,-4.46424 10.71501,-4.61725c16.5868,-0.55766 15.50071,9.48628 15.50071,9.48628c0,0 -5.56593,0.05863 -7.44551,0.30654c-1.21248,0.15993 -2.73633,1.03646 -2.73633,1.03646c0,0 2.06436,8.25583 2.49929,9.82635c0.17442,0.62984 -5.25718,-2.47298 -5.25718,-2.47298" fill="#000000" stroke="#000000" stroke-width="3" stroke-linecap="round"/><path d="M266.68743,35.57742c0,0 -5.01924,1.95717 -4.79108,1.44261c0.56891,-1.28302 3.37057,-8.05545 3.37057,-8.05545c0,0 -1.18747,-0.93925 -2.20019,-1.22865c-1.56991,-0.44865 -6.38789,2.6913 -6.38789,2.6913c0,0 -0.64296,-8.2157 2.19658,-11.66472c1.36669,-1.66004 6.5692,-2.08927 11.1376,-1.25407c3.85756,0.70526 11.07987,7.61401 11.07987,7.61401" data-paper-data="{&quot;index&quot;:null}" fill="#000000" stroke="#000000" stroke-width="3" stroke-linecap="round"/><path d="M309.69314,23.87352c0,0 -15.56684,12.56613 -15.95101,14.44013c-0.41548,2.0267 -6.99485,3.73498 -6.99485,3.73498c0,0 -7.57646,-5.00915 -8.41288,-8.13868c-0.67907,-2.5408 -0.53762,-6.00729 -1.08023,-5.53327c-0.81709,0.7138 -2.71031,1.59934 -3.33477,3.03885c-1.01513,2.3401 -0.54339,5.32618 -0.54339,5.32618c0,0 -4.1655,-4.55498 -5.07799,-6.50219c-1.08297,-2.31096 -0.9964,-6.46012 -0.9964,-6.46012c0,0 0.14916,-7.47822 3.36664,-10.94456c4.61006,-4.96663 18.69146,-12.18935 21.65106,-16.00817c2.95958,-3.81881 -1.95849,-7.11778 0.34587,-12.37504c2.30437,-5.25727 9.86158,-10.91258 9.86158,-10.91258" fill="#ae2e2e" stroke="#000000" stroke-width="0" stroke-linecap="round"/><g data-paper-data="{&quot;index&quot;:null}" stroke="#000000" stroke-linecap="round"><g><path d="M221.74694,-50.17602c0,0 1.22501,3.94099 -0.85222,7.78385c-3.04038,5.6247 -10.16903,12.03456 -13.9595,13.77155c-4.38344,2.00876 -22.40449,6.16721 -23.2259,-0.22489c-0.69452,-5.40461 15.5029,-21.39505 15.5029,-21.39505" fill="#ae2e2e" stroke-width="0"/><path d="M249.67974,-52.62749c6.09486,2.43083 6.61818,25.76853 5.02875,29.45827c-0.93678,2.17465 -3.03851,6.25501 -6.77035,8.1724c-2.82779,1.45288 -7.62568,1.07291 -7.62568,1.07291c0,0 7.35583,-7.83462 1.38774,-12.48971c-5.96809,-4.65511 -15.75138,-0.49352 -19.08151,-3.46937c-3.33012,-2.97587 -2.42856,-24.82612 -2.42856,-24.82612" fill="#ae2e2e" stroke-width="0"/><g><path d="M291.98949,-37.60199c0,0 -0.53442,4.14718 -4.14854,5.18448c-3.97727,1.14152 -13.36012,-5.73214 -17.59848,-7.67441c-8.24031,-3.77618 -21.22835,1.53864 -21.22835,1.53864l-4.05188,-15.23783l38.36862,-2.41034z" data-paper-data="{&quot;index&quot;:null}" fill="#ae2e2e" stroke-width="0"/><g stroke-width="3"><path d="M249.67974,-38.90335c6.09486,2.43083 6.61818,12.04437 5.02875,15.73411c-0.93678,2.17465 -3.03851,6.25501 -6.77035,8.1724c-2.82779,1.45288 -7.62568,1.07291 -7.62568,1.07291c0,0 7.35583,-7.83462 1.38774,-12.48971c-5.96809,-4.65511 -15.75138,-0.49352 -19.08151,-3.46937c-3.33012,-2.97587 -2.42856,-11.10196 -2.42856,-11.10196" fill="#ae2e2e"/><path d="M219.56853,-41.02659c0,0 -6.25313,9.48223 -12.63327,12.40597c-8.0897,3.70716 -22.75425,1.47148 -22.75425,1.47148" fill="#ae2e2e"/><path d="M292.42515,-37.90414c0,0 -0.53442,4.14717 -4.14854,5.18447c-3.97727,1.14152 -13.36012,-5.73214 -17.59848,-7.67439c-8.24031,-3.77618 -21.22835,1.53864 -21.22835,1.53864" data-paper-data="{&quot;index&quot;:null}" fill="none"/></g></g></g><path d="M287.44964,29.56372c0,0 -0.56541,3.94462 -0.94958,5.81862c-0.41548,2.0267 0.24723,6.66629 0.24723,6.66629c0,0 -7.57646,-5.00915 -8.41288,-8.13868c-0.67907,-2.5408 -0.53762,-6.00729 -1.08023,-5.53327c-0.81709,0.7138 -2.71031,1.59934 -3.33477,3.03885c-1.01513,2.3401 -0.54339,5.32618 -0.54339,5.32618c0,0 -4.1655,-4.55498 -5.07799,-6.50219c-1.08297,-2.31096 -0.9964,-6.46012 -0.9964,-6.46012c0,0 0.14916,-7.47822 3.36664,-10.94456c4.61006,-4.96663 18.69146,-12.18935 21.65106,-16.00817c2.95958,-3.81881 -1.95849,-7.11778 0.34587,-12.37504c2.30437,-5.25727 9.86158,-10.91258 9.86158,-10.91258" fill="#ae2e2e" stroke-width="3"/><g><path d="M177.2655,-9.69173c0.94096,-0.34486 3.79901,-21.71273 5.46294,-21.87374c3.2371,-0.31325 9.79661,-0.14187 10.97683,1.04624c2.18049,2.19506 3.87394,5.69161 4.46825,10.14848c1.31706,9.8768 -0.8831,23.30066 -1.83341,29.45415c-0.44147,2.85869 -0.47324,5.51959 0.26028,7.7341c0.76199,2.30046 2.34981,4.11923 5.16204,5.17771c4.24118,1.59631 16.40706,1.73867 16.40706,1.73867c0,0 3.89677,15.19569 -4.66932,17.55721c-3.92107,1.08097 -23.66935,-12.59551 -27.77871,-18.86834c-0.41202,-0.62894 -5.7687,-28.99805 -6.09501,-29.61541" fill="#ae2e2e" stroke-width="0"/><path d="M213.16164,41.69884c8.56608,-2.36151 5.00786,-17.96499 5.00786,-17.96499c0,0 -12.1659,-0.14238 -16.40706,-1.73867c-4.9948,-1.87995 -6.78116,-5.33702 -6.78116,-5.33702c0,0 9.11235,-35.65378 0.19407,-47.69987" fill="none" stroke-width="3"/></g></g><path d="M261.65056,65.92439l17.69107,-7.23189c0,0 3.84043,0.52217 5.75146,1.85903c2.18671,1.5297 6.65353,6.81883 6.65353,6.81883" fill="#1e1e1f" stroke="#0a0a0b" stroke-width="3" stroke-linecap="round"/><path d="M203.56197,72.91319l1.55993,-2.48417c0,0 -0.96927,-5.04348 -0.91631,-7.53356c0.05208,-2.44857 1.23146,-7.2845 1.23146,-7.2845c0,0 1.2844,-3.79581 3.88349,-4.17476c2.59909,-0.37895 6.16037,2.71037 6.16037,2.71037c0,0 -1.34567,5.84934 -1.46664,8.47865c-0.10522,2.28681 0.78145,6.41359 0.78145,6.41359l2.73027,1.8846" fill="#000000" stroke="#0a0a0b" stroke-width="3" stroke-linecap="round"/><g fill="#010100" stroke="#0a0a0b" stroke-width="3" stroke-linecap="butt"><path d="M240.26223,86.14998c0.27285,1.20787 -55.43576,6.71628 -55.43576,6.71628l-1.18034,-6.71628c0,0 12.19289,-14.94011 28.86269,-16.74118c16.4356,-1.77577 25.36165,6.15314 27.75341,16.74118z"/><path d="M262.58502,69.4088c16.66979,1.80107 28.86268,16.74118 28.86268,16.74118l-1.18034,6.71628c0,0 -55.70861,-5.50841 -55.43576,-6.71628c2.39176,-10.58804 11.31781,-18.51695 27.75341,-16.74118z" data-paper-data="{&quot;index&quot;:null}"/></g><g stroke="#0a0a0b" stroke-width="3"><path d="M186.68466,86.14521c0,0 7.91123,-0.65056 16.72048,-2.09107c11.79199,-1.92826 25.48104,-4.84008 26.7174,-5.36232c4.2618,-1.8002 12.68487,-3.59164 20.77464,-6.98065c14.11307,-5.91232 28.69789,-13.71444 29.06783,-13.58007c1.67354,0.60789 4.99912,2.1075 8.13652,5.24618c5.12599,5.12809 10.05777,13.76881 11.40451,16.20329c2.42298,4.37999 6.53419,13.51847 6.53419,13.51847c0,0 -3.3884,9.93427 -5.76941,14.44297c-2.49109,4.71716 -8.86181,13.26295 -8.86181,13.26295c0,0 15.3673,56.87438 20.39845,93.92704c1.88468,13.88008 -0.4209,25.38526 -0.4209,25.38526c0,0 -50.54546,10.32674 -83.23015,13.84622c-32.6847,3.51948 -53.43555,-14.12615 -53.43555,-14.12615c0,0 -2.07297,-15.41304 -0.61952,-25.10533c1.45345,-9.69229 19.94584,-93.92703 19.94584,-93.92703c0,0 -6.47799,-7.86947 -8.93252,-12.5174c-2.42211,-4.58656 -5.69869,-15.18852 -5.69869,-15.18852c0,0 2.52543,-2.83131 4.99672,-7.29865" data-paper-data="{&quot;index&quot;:null}" fill="#1e1e1f" stroke-linecap="round"/><g><path d="M182.61822,88.1292c0,0 -0.68697,-1.4724 -0.22129,-2.60173c0.46568,-1.12932 2.40434,-2.6924 2.40434,-2.6924c0,0 31.78169,-0.92626 46.36504,-5.71487c14.7466,-4.84221 41.63025,-23.17935 41.63025,-23.17935c0,0 5.45166,1.35515 6.36385,2.15502c0.94407,0.82782 1.65719,2.73093 1.65719,2.73093c0,0 -31.61159,19.24684 -48.03901,24.14873c-16.30479,4.8653 -50.16037,5.15367 -50.16037,5.15367z" fill="#1e1e1f" stroke-linecap="butt"/><path d="M195.88998,87.27833c0,0 -0.82353,-1.7495 -0.82353,-2.23653c0,-0.73985 0.82353,-2.79565 0.82353,-2.79565" fill="none" stroke-linecap="round"/><path d="M266.63941,59.60981c0,0 1.863,2.0558 2.2371,2.79566c0.24626,0.48703 0.30733,2.23653 0.30733,2.23653" data-paper-data="{&quot;index&quot;:null}" fill="none" stroke-linecap="round"/><path d="M220.43853,84.89611c0,0 -1.27578,-1.45305 -1.41064,-1.92103c-0.20487,-0.71093 0.01719,-2.91438 0.01719,-2.91438" fill="none" stroke-linecap="round"/><path d="M244.41278,72.13615c0,0 1.27578,1.45305 1.41064,1.92104c0.20487,0.71093 -0.01719,2.91438 -0.01719,2.91438" data-paper-data="{&quot;index&quot;:null}" fill="none" stroke-linecap="round"/></g><path d="M299.54462,93.635c0,0 -38.67654,1.22449 -57.7551,1.22449c-18.73845,0 -55.71429,-1.22449 -55.71429,-1.22449" fill="none" stroke-linecap="round"/></g><path d="M249.5135,26.62745c0.08069,0.47442 0.12262,0.9611 0.12262,1.45707c0,5.02274 -4.30053,9.09449 -9.60551,9.09449c-5.30498,0 -9.60551,-4.07174 -9.60551,-9.09449c0,-0.66264 6.41492,-4.90631 10.24284,-3.24689" fill="#850a0a" stroke="#000000" stroke-width="0" stroke-linecap="butt"/><path d="M247.99666,34.13998c0,1.50008 -3.66438,2.71614 -8.18462,2.71614c-4.52024,0 -8.18462,-1.21606 -8.18462,-2.71614c0,-1.50008 3.66438,-2.71614 8.18462,-2.71614c4.52024,0 8.18462,1.21606 8.18462,2.71614z" fill="#520505" stroke="none" stroke-width="0" stroke-linecap="butt"/><path d="M241.19903,35.45185c-0.00051,0.00493 -0.00105,0.00986 -0.00162,0.01479" fill="none" stroke="#cf8181" stroke-width="1" stroke-linecap="butt"/><g stroke-linecap="butt"><g fill="#de9696" stroke="none" stroke-width="0"><path d="M241.16429,35.63212c-0.30636,1.07261 -2.28232,1.5764 -4.41343,1.12523c-2.13111,-0.45117 -3.61036,-1.68643 -3.304,-2.75905c0.30636,-1.07261 2.28232,-1.5764 4.41343,-1.12524c2.13111,0.45117 3.61036,1.68644 3.304,2.75905z"/><path d="M241.76378,32.87307c2.13111,-0.45117 4.10707,0.05262 4.41343,1.12524c0.30636,1.07261 -1.17288,2.30788 -3.30399,2.75905c-2.13111,0.45117 -4.10707,-0.05262 -4.41343,-1.12523c-0.30636,-1.07261 1.17288,-2.30788 3.30399,-2.75905z" data-paper-data="{&quot;index&quot;:null}"/></g><path d="M240.80525,36.19239c-0.72472,0.67265 -2.33931,0.92805 -4.0544,0.56496c-2.13111,-0.45117 -3.61036,-1.68643 -3.304,-2.75905c0.30636,-1.07261 2.28232,-1.5764 4.41343,-1.12524c0.90712,0.19204 2.00769,0.80845 2.00769,0.80845" fill="none" stroke="#cf8181" stroke-width="1"/><path d="M239.55606,33.75375c0.57568,-0.38135 1.33734,-0.69641 2.20773,-0.88068c2.13111,-0.45117 4.10707,0.05262 4.41343,1.12524c0.30636,1.07261 -1.17288,2.30788 -3.30399,2.75905c-1.80092,0.38126 -3.49104,0.08057 -4.15642,-0.66906" data-paper-data="{&quot;index&quot;:null}" fill="none" stroke="#cf8181" stroke-width="1"/></g><path d="M254.6386,24.88907l-6.36995,1.83949c0,0 -3.8354,-1.93695 -8.47344,-2.03582c-4.63805,-0.09888 -8.71847,1.78214 -8.71847,1.78214c0,0 -4.23987,-1.45958 -6.22209,-1.825" data-paper-data="{&quot;index&quot;:null}" fill="none" stroke="#000000" stroke-width="3" stroke-linecap="round"/><path d="M249.5135,26.62745c0.08069,0.47442 0.12262,0.9611 0.12262,1.45707c0,5.02274 -4.30053,9.09449 -9.60551,9.09449c-5.30498,0 -9.60551,-4.07174 -9.60551,-9.09449c0,-0.66264 0.07485,-1.30873 0.21698,-1.9311" fill="none" stroke="#000000" stroke-width="3" stroke-linecap="butt"/><path d="M186.75343,-2.38744c-0.62499,-0.72826 -1.5766,-2.16343 -1.5766,-2.16343c0,0 1.09135,-0.63218 1.61197,-1.17965c0.48922,-0.51445 1.4234,-2.01229 1.4234,-2.01229c0,0 -3.72975,-0.52615 -5.5075,-1.33995c-1.73155,-0.79265 -5.02408,-3.48108 -5.02408,-3.48108c0,0 16.50154,-3.67631 24.54937,-4.24481c7.47717,-0.52819 22.15166,0.94584 22.15166,0.94584c0,0 4.89284,3.22894 6.08981,4.97588c1.3316,1.94342 2.06079,6.15814 2.06079,6.15814c0,0 -0.57108,-2.45471 -4.83495,-3.82892c-3.9633,-1.27734 -10.09251,-1.68709 -13.06506,-1.31913c-7.1502,0.8486 -14.64423,3.45215 -19.94176,7.93446c-3.00924,2.24871 -3.93681,4.90612 -3.93681,4.90612z" fill="#26134d" stroke="#100131" stroke-width="2" stroke-linecap="butt"/><path d="M190.9339,3.24927c2.71533,-8.96036 20.72526,-12.69542 20.72526,-12.69542c0,0 18.1592,-2.99439 20.98903,5.05272" fill="none" stroke="#000000" stroke-width="6" stroke-linecap="round"/><path d="M289.02719,2.96373c0,0 -0.92757,-2.65741 -3.93681,-4.90611c-5.29753,-4.48231 -12.79156,-7.08585 -19.94176,-7.93445c-2.97256,-0.36796 -9.10176,0.04179 -13.06506,1.31913c-4.26387,1.37421 -4.83495,3.82892 -4.83495,3.82892c0,0 0.72919,-4.21472 2.06079,-6.15814c1.19697,-1.74694 6.08981,-4.97588 6.08981,-4.97588c0,0 14.67449,-1.47403 22.15166,-0.94584c8.04783,0.5685 24.54937,4.24481 24.54937,4.24481c0,0 -3.29253,2.68843 -5.02408,3.48108c-1.77775,0.8138 -5.5075,1.33995 -5.5075,1.33995c0,0 0.93418,1.49784 1.4234,2.01229c0.52062,0.54747 1.61197,1.17965 1.61197,1.17965c0,0 -0.95161,1.43517 -1.5766,2.16343z" data-paper-data="{&quot;index&quot;:null}" fill="#26134d" stroke="#100131" stroke-width="2" stroke-linecap="butt"/><path d="M247.13267,-4.39343c2.82983,-8.04711 20.98903,-5.05272 20.98903,-5.05272c0,0 18.00993,3.73506 20.72526,12.69542" data-paper-data="{&quot;index&quot;:null}" fill="none" stroke="#000000" stroke-width="6" stroke-linecap="round"/></g></g></svg>