<svg version="1.1" xmlns="http://www.w3.org/2000/svg" xmlns:xlink="http://www.w3.org/1999/xlink" width="139.98437" height="360.46083" viewBox="0,0,139.98437,360.46083"><g transform="translate(-170.00781,0.23041)"><g data-paper-data="{&quot;isPaintingLayer&quot;:true}" fill-rule="nonzero" stroke-linejoin="miter" stroke-miterlimit="10" stroke-dasharray="" stroke-dashoffset="0" style="mix-blend-mode: normal"><g fill="#ffa0a0" stroke-width="2.5" stroke-linecap="butt"><path d="M219.617,128.37601c0,0.28606 0.09508,26.85647 0.19868,55.72283c0.0048,1.33769 4.22228,4.02548 4.22228,4.02548l-3.96209,68.36067c0,0 -22.40256,2.37918 -28.83947,1.47776c-6.63647,-0.92937 -19.8499,-6.97269 -19.8499,-6.97269l5.28278,-61.01646c0,0 -4.1452,-3.19157 -4.11345,-4.78354c0.55585,-27.87026 1.19523,-54.5211 1.64399,-56.81406c3.21459,-16.42509 10.9645,-22.19482 23.22236,-22.19482c12.25786,0 22.19482,9.93696 22.19482,22.19482z" stroke="#da6e6e"/><path d="M219.47936,252.83843c2.27054,3.36279 4.75717,6.94068 6.48969,9.13819c3.36142,4.26358 12.03424,10.89946 12.03424,10.89946c0,0 -8.22202,2.18034 -17.46731,-0.49163c-9.09186,-3.12419 -16.40847,-15.37363 -16.40847,-15.37363" stroke="#000000"/><path d="M204.39207,253.1033c1.06646,3.7412 2.26931,7.73748 3.20562,10.23762c1.8166,4.85075 7.95527,13.16622 7.95527,13.16622c0,0 -8.63709,0.26856 -16.64502,-4.35988c-7.70988,-5.02946 -10.67644,-18.44499 -10.67644,-18.44499" stroke="#da6e6e"/><path d="M187.34124,250.55473c0.35704,3.83045 0.80136,7.92996 1.26095,10.51761c0.89171,5.02054 5.40953,14.00401 5.40953,14.00401c0,0 -8.58626,-0.8111 -15.6384,-6.3836c-6.68287,-5.93168 -7.1155,-19.56029 -7.1155,-19.56029" stroke="#da6e6e"/></g><g fill="#ffa0a0" stroke-width="2.5" stroke-linecap="butt"><path d="M260.38367,128.376c0,-12.25786 9.93696,-22.19482 22.19482,-22.19482c12.25786,0 20.00777,5.76973 23.22236,22.19482c0.44876,2.29296 1.08814,28.9438 1.64399,56.81406c0.03175,1.59197 -4.11345,4.78354 -4.11345,4.78354l5.28278,61.01646c0,0 -13.21343,6.04332 -19.8499,6.97269c-6.43691,0.90142 -28.83947,-1.47776 -28.83947,-1.47776l-3.96209,-68.36067c0,0 4.21748,-2.68779 4.22228,-4.02548c0.1036,-28.86636 0.19869,-55.43677 0.19869,-55.72283z" stroke="#da6e6e"/><path d="M275.87314,257.01082c0,0 -7.31661,12.24944 -16.40847,15.37363c-9.24529,2.67197 -17.46731,0.49163 -17.46731,0.49163c0,0 8.67282,-6.63588 12.03424,-10.89946c1.73252,-2.19751 4.21915,-5.7754 6.48969,-9.13819" stroke="#000000"/><path d="M291.76916,253.70227c0,0 -2.96657,13.41553 -10.67644,18.44499c-8.00793,4.62844 -16.64501,4.35988 -16.64501,4.35988c0,0 6.13867,-8.31547 7.95526,-13.16622c0.93631,-2.50014 2.13916,-6.49642 3.20562,-10.23762" stroke="#000000"/><path d="M308.74282,249.13246c0,0 -0.43263,13.62861 -7.1155,19.56029c-7.05214,5.5725 -15.63841,6.3836 -15.63841,6.3836c0,0 4.51783,-8.98347 5.40954,-14.00401c0.45959,-2.58765 0.90391,-6.68716 1.26094,-10.51761" stroke="#da6e6e"/></g><path d="M239.8729,92.01225c28.39941,0 50.29828,12.07363 51.42167,27.57955c1.62859,22.47905 -11.63684,31.63261 -11.63684,31.63261c0,0 18.81084,8.97054 12.65608,32.6787c-7.14689,19.49439 -43.02878,17.69676 -52.44092,17.69676h0.00001h-0.01648h0.00001c-9.41214,0 -42.95436,1.79763 -50.10126,-17.69676c-2.99015,-11.51808 -0.63994,-19.55766 2.56741,-24.78005c3.39448,-5.52708 7.74901,-7.89865 7.74901,-7.89865c0,0 -13.26543,-9.15356 -11.63685,-31.63261c1.12339,-15.50592 23.02226,-27.57955 51.42168,-27.57955z" fill="#ffa0a0" stroke="#000000" stroke-width="2.5" stroke-linecap="butt"/><path d="M292.90683,170.90507c0,0 0.33972,10.13294 -0.22161,18.53034c-1.19147,17.82443 -1.01966,83.48822 -1.01966,83.48822l5.19763,-6.77978l-1.97534,73.88289c0,0 -15.62296,9.40056 -24.42942,12.53276c-8.83303,3.14164 -28.48929,6.28885 -28.48929,6.28885l-5.72831,-12.00218l9.59821,-69.28532l-6.81942,3.81888l2.40396,-91.38025" fill="#ffa0a0" stroke="#da6e6e" stroke-width="2.5" stroke-linecap="round"/><path d="M240.0122,189.99948l7.0922,91.38025l-6.81943,-3.81888l4.90998,69.28532l-5.72831,12.00218c0,0 -19.65626,-3.14721 -28.48929,-6.28885c-8.80646,-3.1322 -24.42942,-12.53276 -24.42942,-12.53276l2.7129,-73.88289l5.19763,6.77978c0,0 -4.51643,-65.66379 -5.7079,-83.48822c-0.56133,-8.3974 -0.22162,-18.53034 -0.22162,-18.53034" fill="#ffa0a0" stroke="#da6e6e" stroke-width="2.5" stroke-linecap="round"/><path d="M229.53478,201.68265v-13.76273h23.39664v13.76273z" fill="#ffa0a0" stroke="#000000" stroke-width="0" stroke-linecap="butt"/><path d="M252.81721,199.93298c0,0 -6.63496,1.91148 -11.37488,1.97824c-4.73993,0.06675 -12.03429,-1.64854 -12.03429,-1.64854" fill="none" stroke="#000000" stroke-width="2.5" stroke-linecap="round"/><path d="M186.12521,121.77855c2.32386,-5.72926 5.81105,-11.85418 9.02876,-15.40682c10.66487,-11.77495 26.02949,-14.3595 44.70245,-14.3595c18.67296,0 34.03758,2.58455 44.70245,14.3595c3.3107,3.6553 7.14469,10.0337 9.50796,15.90244" fill="#ffa0a0" stroke="#000000" stroke-width="0" stroke-linecap="butt"/><path d="M188.93569,118.10165c3.03336,-19.83043 32.24776,-26.08941 50.92072,-26.08941c18.67296,0 34.03758,2.58455 44.70245,14.3595c3.3107,3.6553 7.14469,10.0337 9.50796,15.90244c1.60217,3.97868 2.97705,7.44964 3.13548,10.22601" fill="none" stroke="#da6e6e" stroke-width="2.5" stroke-linecap="butt"/><path d="M291.58759,136.54554c0.33601,2.97171 0.59363,5.62088 0.66297,7.26076c0.1379,3.26123 -1.56816,7.59249 -1.56816,7.59249c0,0 3.49745,11.69503 4.05363,18.34246c0.66246,7.91778 -0.34165,26.02304 -0.34165,26.02304c0,0 -32.31545,19.22946 -49.17587,27.26673c-17.85246,8.51018 -55.133,22.45675 -55.133,22.45675l-2.31749,-60.11415c0,0 -0.81194,-17.95493 0.40362,-23.92962c0.71434,-3.51113 5.51696,-7.93778 5.51696,-7.93778c0,0 -1.45206,-1.84031 -1.79855,-4.06575c-0.25138,-1.61459 0.68159,-3.43191 0.26035,-4.89624c-0.30857,-1.07266 -0.61701,-2.5495 -0.91641,-4.26164z" fill="#6f0101" stroke="#4d0000" stroke-width="2.5" stroke-linecap="butt"/><g stroke-linecap="butt"><path d="M216.56038,159.78748c-0.54941,-0.16303 -20.122,-8.89476 -21.61221,-9.64566c-2.02926,-1.02251 -5.31504,-5.13441 -7.52804,-9.26454c-2.35876,-4.40215 -3.5828,-8.80403 -3.5828,-8.80403c0,0 -1.6736,-5.57943 2.87125,-14.71688c0.00018,-0.00035 26.49258,-7.50807 53.7777,-7.52527c27.74741,-0.01749 53.75213,6.75059 53.75213,6.75059c0,0 5.07366,12.60507 5.23838,15.49156c-3.8313,11.50446 -11.20123,16.43115 -15.30885,18.35893c-1.78102,0.83587 -12.0235,7.46387 -12.0235,7.46387" fill="#6f0101" stroke="#000000" stroke-width="0"/><path d="M198.13992,151.30176c-0.96756,-0.28711 -6.33888,-3.30349 -9.5958,-7.69088c-3.79495,-5.11218 -5.46496,-11.67897 -5.46496,-11.67897c0,0 0.93313,-7.2172 3.57366,-14.76106c0.44346,-1.26696 26.21379,-7.10068 51.71548,-7.1576c27.69276,-0.06181 55.29668,5.75134 55.83709,6.83493c0.73986,1.48349 1.42002,2.98317 2.01156,4.45213c1.66571,4.13648 3.09511,7.74511 3.25983,10.6316c-5.49252,16.49268 -18.25756,19.46687 -18.25756,19.46687" fill="none" stroke="#4d0000" stroke-width="2.5"/></g><g stroke-linecap="butt"><path d="M229.5691,96.58292c0,0 -2.48932,-4.22489 -3.30203,-6.65678c-0.98528,-2.94827 -2.19224,-9.78383 -2.19224,-9.78383h37.8134c0,0 -0.76265,7.49006 -1.76677,10.49472c-0.75581,2.26161 -3.72747,5.9459 -3.72747,5.9459z" fill="#ffa0a0" stroke="none" stroke-width="0"/><path d="M229.5691,96.58292c0,0 -2.77004,-4.32092 -3.59203,-6.78059c-0.98112,-2.93583 -1.90223,-9.66003 -1.90223,-9.66003h37.8134c0,0 -0.51183,7.2355 -1.50975,10.22161c-0.77839,2.3292 -3.9845,6.219 -3.9845,6.219" fill="none" stroke="#da6e6e" stroke-width="2"/></g><g stroke-linecap="butt"><g><path d="M198.6803,44.39459c0,-23.95535 19.41965,-43.375 43.375,-43.375c23.95535,0 43.375,19.41965 43.375,43.375c0,23.95535 -19.41965,43.375 -43.375,43.375c-20.72965,0 -38.06287,-14.54188 -42.355,-33.98097c-0.66789,-3.02488 -1.02,-6.16833 -1.02,-9.39403z" fill="#ffa0a0" stroke="#000000" stroke-width="2"/><path d="M198.6803,44.39459c0,-23.95535 19.41965,-43.375 43.375,-43.375c23.95535,0 43.375,19.41965 43.375,43.375c0,23.95535 -19.41965,43.375 -43.375,43.375c-20.72966,0 -38.06287,-14.54188 -42.35499,-33.98097c-0.66789,-3.02487 -1.02,-6.16834 -1.02,-9.39403z" fill="none" stroke="#da6e6e" stroke-width="2.5"/></g><g fill="none" stroke="none" stroke-width="1" font-family="sans-serif" font-weight="normal" font-size="12" text-anchor="start"/></g><path d="M243.60215,1.21824c0,0 -1.42142,7.29839 -0.50376,15.8727c1.00713,9.41027 3.6954,21.01439 5.20276,28.29314c2.60027,12.55612 18.87982,33.8477 18.87982,33.8477c0,0 -5.17828,7.22231 -24.2649,8.50612c-1.66785,0.11219 -9.67987,-0.5529 -16.93836,-3.39121c-6.60999,-2.58472 -12.59509,-7.36186 -12.59509,-7.36186c0,0 18.10633,-15.49641 23.20269,-30.13158c2.36193,-6.78274 3.99469,-19.66547 3.83303,-29.98868c-0.13508,-8.62577 -1.90711,-15.46453 -1.90711,-15.46453z" fill="#000000" stroke="#000000" stroke-width="2" stroke-linecap="round"/><path d="M267.18095,79.23178c0,0 -5.17829,7.22231 -24.2649,8.50612c-1.66785,0.11219 -9.67987,-0.5529 -16.93836,-3.39121c-6.60999,-2.58472 -12.59509,-7.36186 -12.59509,-7.36186c0,0 12.44903,-10.65458 19.60742,-22.6381c0.08407,-0.00111 1.29958,0.8145 2.82403,0.87433c2.28573,0.0897 5.09577,-0.56368 5.99799,-0.565c0.26514,-0.00039 4.31321,0.04018 6.43293,-0.00572c2.3197,-0.05023 2.90384,-0.1872 3.3659,-0.18462c5.57812,11.69784 15.5701,24.76607 15.5701,24.76607z" fill="#440000" stroke="#000000" stroke-width="0" stroke-linecap="butt"/><path d="M232.60986,55.65987c0,0 2.00233,-1.31064 3.16596,-1.31064c0.80239,0 3.47568,1.13991 3.47568,1.13991c0,0 1.47658,-1.56306 2.69169,-1.56301c0.70249,0.00003 3.24742,1.71364 3.24742,1.71364c0,0 2.68367,-1.45688 3.95222,-1.45318c0.88873,0.0026 2.9337,1.47329 2.9337,1.47329" fill="none" stroke="#2b0000" stroke-width="2" stroke-linecap="round"/><g><path d="M227.96573,55.00479l-4.13201,1.87819" fill="none" stroke="#ff6969" stroke-width="2" stroke-linecap="round"/><g stroke-width="2.5" stroke-linecap="butt"><path d="M205.03194,40.98079c0,-7.49187 6.07336,-13.56522 13.56522,-13.56522c7.49186,0 13.56521,6.07335 13.56521,13.56522c0,7.49187 -6.07335,13.56521 -13.56521,13.56521c-7.49186,0 -13.56522,-6.07335 -13.56522,-13.56521z" fill="#ccaaaa" stroke="#957878"/><path d="M213.04404,41.29904c0,-6.65033 4.25608,-12.04149 9.50622,-12.04149c5.25013,0 9.50621,5.39116 9.50621,12.04149c0,6.65034 -4.25608,12.04149 -9.50621,12.04149c-5.25013,0 -9.50622,-5.39115 -9.50622,-12.04149z" fill="#000000" stroke="#2c093e"/></g></g><g><path d="M257.84045,56.88298l-4.13201,-1.87819" fill="none" stroke="#ff6969" stroke-width="2" stroke-linecap="round"/><g stroke-width="2.5" stroke-linecap="butt"><path d="M264.59712,54.54601c-7.49186,0 -13.56521,-6.07334 -13.56521,-13.56521c0,-7.49187 6.07335,-13.56522 13.56521,-13.56522c7.49186,0 13.56522,6.07335 13.56522,13.56522c0,7.49186 -6.07337,13.56521 -13.56522,13.56521z" fill="#ccaaaa" stroke="#957878"/><path d="M260.64403,53.34055c-5.25013,0 -9.50621,-5.39115 -9.50621,-12.04149c0,-6.65033 4.25608,-12.04149 9.50621,-12.04149c5.25014,0 9.50622,5.39116 9.50622,12.04149c0,6.65034 -4.25609,12.04149 -9.50622,12.04149z" fill="#000000" stroke="#2c093e"/></g></g><path d="M245.39316,57.86028l1.24247,5.04295" fill="none" stroke="#2b0000" stroke-width="2" stroke-linecap="round"/><path d="M223.23414,67.16029l1.403,0.24584c0,0 2.16393,-0.43112 3.563,-0.21308c1.25621,0.19577 4.02627,1.38103 4.02627,1.38103c0,0 2.52859,-0.87837 3.72675,-0.7499c2.00356,0.21483 4.87121,1.56086 4.87121,1.56086c0,0 0.61593,0.45681 0.9355,0.4494c0.33584,-0.00778 1.03314,-0.49501 1.03314,-0.49501c0,0 2.70583,-1.26399 3.78183,-1.35544c1.38397,-0.11764 4.85255,0.56367 4.85255,0.56367c0,0 2.02452,-1.16229 3.12,-1.30402c1.34431,-0.17392 4.35323,0.33714 4.35323,0.33714l7.75449,11.11965c0,0 -0.8397,1.36985 -2.23125,1.47449c-4.98921,0.37516 -17.07239,1.23524 -22.98326,1.23473c-5.48889,-0.00048 -15.10871,-1.10867 -20.81191,-1.52628c-2.70321,-0.19795 -7.12741,-2.95774 -7.12741,-2.95774z" fill="#000000" stroke="#2b0000" stroke-width="2" stroke-linecap="round"/><g fill="#ccaaaa" stroke="#a17171" stroke-width="1" stroke-linecap="butt"><path d="M231.88999,65.88845l-3.3119,5.60548l-3.31495,-5.60547l3.3201,-3.16844z"/><path d="M239.36743,68.17487l-3.31191,5.60548l-3.31494,-5.60547l3.32011,-3.16844z"/></g><path d="M243.68848,1.13191c0,0 -1.24874,7.38473 -0.33108,15.95904c1.00713,9.41027 3.43639,21.01439 4.94375,28.29314c2.60027,12.55612 19.15298,34.12087 19.15298,34.12087c0,0 -2.91195,2.64904 -7.03436,4.34609c-2.62763,1.0817 -5.73253,2.23837 -8.8046,2.89477c-3.10972,0.66445 -6.1858,0.82304 -8.6991,0.99209c-1.66785,0.11219 -9.67987,-0.18868 -16.93836,-3.02699c-6.60999,-2.58472 -12.50403,-7.81713 -12.50403,-7.81713c0,0 18.01528,-15.40535 23.11164,-30.04053c2.36193,-6.78274 3.73568,-19.66547 3.57402,-29.98868c-0.13508,-8.62577 -1.73443,-15.80988 -1.73443,-15.80988c0,0 1.52819,-0.22108 2.2948,-0.24846c0.90673,-0.03238 2.96878,0.32567 2.96878,0.32567z" fill="none" stroke="#430000" stroke-width="2.5" stroke-linecap="round"/><path d="M238.29343,62.90324l1.24247,-5.04295" data-paper-data="{&quot;index&quot;:null}" fill="none" stroke="#2b0000" stroke-width="2" stroke-linecap="round"/><g data-paper-data="{&quot;index&quot;:null}" fill="#ccaaaa" stroke="#a17171" stroke-width="1" stroke-linecap="butt"><path d="M254.75314,62.72002l3.3201,3.16844l-3.31495,5.60547l-3.3119,-5.60548z"/><path d="M247.27569,65.00644l3.3201,3.16844l-3.31494,5.60547l-3.3119,-5.60548z"/></g><g fill="#ccaaaa" stroke="#a17171" stroke-width="1" stroke-linecap="butt"><g><path d="M241.46157,84.03482l-2.92293,-2.89765l2.91839,-5.1264l2.91569,5.12641z"/><path d="M229.94214,80.82103l2.91569,-5.12641l2.91839,5.1264l-2.92293,2.89765z"/><path d="M221.50052,77.1068l2.91569,-5.12641l2.91839,5.1264l-2.92293,2.89765z"/></g><path d="M250.03158,83.71867l-2.92292,-2.89765l2.91839,-5.1264l2.91569,5.12641z" data-paper-data="{&quot;index&quot;:null}"/><path d="M258.47319,80.00444l-2.92292,-2.89765l2.91839,-5.1264l2.91569,5.12641z" data-paper-data="{&quot;index&quot;:null}"/></g></g></g></svg>