<svg version="1.1" xmlns="http://www.w3.org/2000/svg" xmlns:xlink="http://www.w3.org/1999/xlink" width="152.00829" height="360.47783" viewBox="0,0,152.00829,360.47783"><g transform="translate(-163.67645,0.16965)"><g data-paper-data="{&quot;isPaintingLayer&quot;:true}" fill-rule="nonzero" stroke-linejoin="miter" stroke-miterlimit="10" stroke-dasharray="" stroke-dashoffset="0" style="mix-blend-mode: normal"><g fill="#ffa0a0" stroke="#da6e6e" stroke-width="2.5" stroke-linecap="butt"><path d="M260.09178,128.44726c0,-12.25786 9.93696,-22.19482 22.19482,-22.19482c12.25786,0 20.00777,5.76973 23.22236,22.19482c0.44876,2.29296 1.08814,28.9438 1.64399,56.81406c0.03175,1.59197 -4.11345,4.78354 -4.11345,4.78354l5.28278,61.01646c0,0 -13.21343,6.04332 -19.8499,6.97269c-6.43691,0.90142 -28.83947,-1.47776 -28.83947,-1.47776l-3.96209,-68.36067c0,0 4.21748,-2.68779 4.22228,-4.02548c0.1036,-28.86636 0.19868,-55.43677 0.19868,-55.72283z"/><path d="M275.58125,257.08209c0,0 -7.31661,12.24944 -16.40847,15.37363c-9.24529,2.67197 -17.46731,0.49163 -17.46731,0.49163c0,0 8.67282,-6.63588 12.03424,-10.89946c1.73252,-2.19751 4.21915,-5.7754 6.48969,-9.13819"/><path d="M291.47727,253.77355c0,0 -2.96656,13.41553 -10.67644,18.44499c-8.00793,4.62844 -16.64502,4.35988 -16.64502,4.35988c0,0 6.13867,-8.31547 7.95527,-13.16622c0.93631,-2.50014 2.13916,-6.49642 3.20562,-10.23762"/><path d="M308.45093,249.20374c0,0 -0.43263,13.62861 -7.1155,19.56029c-7.05214,5.5725 -15.6384,6.3836 -15.6384,6.3836c0,0 4.51782,-8.98347 5.40953,-14.00401c0.45959,-2.58765 0.90391,-6.68716 1.26095,-10.51761"/></g><g><path d="M299.7722,190.07076l7.8977,91.38025l-7.04901,-3.81888l13.76362,69.28532l-5.00674,12.00218c0,0 -19.84547,-3.14721 -28.86737,-6.28885c-8.99477,-3.1322 -25.18288,-12.53276 -25.18288,-12.53276l-6.41715,-73.88289l5.60523,6.77978c0,0 -4.3139,-65.66379 -6.57697,-83.48822c-1.06618,-8.3974 -0.79763,-18.53034 -0.79763,-18.53034" data-paper-data="{&quot;index&quot;:null}" fill="#ffa0a0" stroke="#da6e6e" stroke-width="2.5" stroke-linecap="round"/><path d="M250.55185,190.07076l3.74649,91.38025l-6.72256,-3.81888l3.15262,69.28532c0,0 -7.73696,5.74391 -11.43323,7.80079c-3.48008,1.93658 -10.13493,4.20139 -10.13493,4.20139c0,0 -16.13929,-4.75556 -22.5611,-8.03061c-5.82105,-2.96868 -14.34479,-10.791 -14.34479,-10.791l4.58688,-73.88289l5.02567,6.77978l-2.852,-102.01856" fill="#ffa0a0" stroke="#da6e6e" stroke-width="2.5" stroke-linecap="round"/><path d="M229.24289,201.75393v-13.76273h23.39664v13.76273z" fill="#ffa0a0" stroke="#000000" stroke-width="0" stroke-linecap="butt"/><path d="M252.52532,200.00426c0,0 -6.63496,1.91148 -11.37488,1.97824c-4.73993,0.06675 -12.03429,-1.64854 -12.03429,-1.64854" fill="none" stroke="#000000" stroke-width="2.5" stroke-linecap="round"/></g><path d="M291.2957,136.61682c0.33601,2.97171 0.59363,5.62088 0.66297,7.26076c0.13791,3.26123 -1.56816,7.59249 -1.56816,7.59249c0,0 7.15618,13.93726 8.19599,20.98506c2.71043,18.37118 5.44287,47.56279 5.44287,47.56279c0,0 -43.79653,16.11084 -61.69476,21.62141c-17.64061,5.43126 -42.17117,11.20754 -42.17117,11.20754l-2.31749,-67.40198c0,0 -0.81193,-17.95493 0.40362,-23.92962c0.71434,-3.51113 5.51695,-7.93778 5.51695,-7.93778c0,0 -1.45205,-1.84031 -1.79854,-4.06575c-0.76454,-4.91061 3.04664,-12.31606 3.04664,-12.31606z" fill="#6f0101" stroke="#4d0000" stroke-width="2.5" stroke-linecap="butt"/><g><g stroke-linecap="butt"><path d="M202.13778,123.36418c-7.12412,-20.02032 15.72302,-29.28947 34.31688,-31.00641c18.59386,-1.71694 34.13103,-0.55608 45.83341,10.18837c3.63277,3.3354 8.037,9.33425 10.92988,14.96083" fill="#ffa0a0" stroke="#000000" stroke-width="0"/><path d="M201.88771,123.01874c-6.16315,-19.78 15.97307,-28.94401 34.56693,-30.66095c18.59386,-1.71694 34.13103,-0.55609 45.83341,10.18837c3.63277,3.3354 8.037,9.33425 10.92988,14.96084c1.96122,3.81451 3.64941,7.14435 4.06245,9.89439" fill="none" stroke="#da6e6e" stroke-width="2.5"/></g><g><g stroke-linecap="butt"><path d="M244.91072,153.69015c-0.56208,-0.11182 -34.08517,-4.12737 -35.6381,-4.73806c-2.11468,-0.83159 -3.68195,-1.36977 -6.26534,-5.27894c-5.07404,-7.67802 -0.55267,-9.84714 -0.55267,-9.84714c0,0 3.85652,-9.86735 7.91486,-13.60849c4.05506,-3.73811 16.42536,-8.82925 16.42536,-8.82925c0,0 7.55462,-0.93865 11.92542,-1.34503c27.62827,-2.56873 54.14514,1.7796 54.14514,1.7796c0,0 6.21117,12.08516 6.6406,14.94428c-2.75726,11.80801 -9.64296,17.39147 -13.55593,19.68877c-1.69662,0.99609 -11.28629,8.53779 -11.28629,8.53779" fill="#6f0101" stroke="#000000" stroke-width="0"/><path d="M210.08433,148.64214c-9.60384,-1.91068 -10.89916,-15.91804 -10.74563,-24.68027c0.07217,-4.11858 2.64658,9.28779 2.64658,9.28779c0,0 2.70362,-8.33545 6.32725,-11.54543c4.4136,-3.90977 18.25485,-10.23055 18.25485,-10.23055c0,0 6.61795,-0.72865 10.06062,-1.05429c27.56976,-2.60784 55.59126,0.64257 56.22902,1.67187c0.87313,1.40918 1.6883,2.83997 2.4124,4.24832c2.039,3.9658 3.79415,7.42771 4.22358,10.28683c-3.95279,16.92784 -16.39028,21.06315 -16.39028,21.06315" fill="none" stroke="#4d0000" stroke-width="2.5"/></g><path d="M223.20038,104.26409c0,0 6.79581,11.9761 8.80461,20.4298c1.9606,8.25084 -0.0282,21.69697 -0.0282,21.69697" fill="none" stroke="#4d0000" stroke-width="2.5" stroke-linecap="round"/></g></g><g stroke-linecap="butt"><path d="M230.41003,98.26639c0,0 -2.99794,-3.88056 -4.10828,-6.19178c-1.34611,-2.80197 -3.39811,-9.43303 -3.39811,-9.43303l37.51678,-4.72701c0,0 0.17966,7.52664 -0.44098,10.63326c-0.46716,2.33835 -2.95494,6.36523 -2.95494,6.36523z" fill="#ffa0a0" stroke="none" stroke-width="0"/><path d="M230.41003,98.26639c0,0 -3.28846,-3.94075 -4.41149,-6.27836c-1.34043,-2.79015 -3.0949,-9.34646 -3.0949,-9.34646l37.51678,-4.72701c0,0 0.39669,7.24273 -0.22011,10.33016c-0.48111,2.40823 -3.17581,6.66831 -3.17581,6.66831" fill="none" stroke="#da6e6e" stroke-width="2.5"/></g><g stroke-linecap="butt"><g><path d="M199.40544,34.87774c5.2948,-23.36287 28.52643,-38.00996 51.88931,-32.71515c23.36287,5.2948 38.00995,28.52643 32.71515,51.88931c-3.00509,13.25968 -11.78792,23.71185 -23.09332,29.30419c-2.98481,1.47647 -16.71684,-20.14572 -23.31927,-21.64205c-11.33723,-2.56939 -30.77302,8.53418 -31.02253,8.18929c-5.30012,-7.32594 -8.30294,-16.27261 -8.2509,-25.63844c0.01721,-3.09769 0.3686,-6.24122 1.08156,-9.38714z" fill="#ffa0a0" stroke="#000000" stroke-width="0"/><path d="M199.40544,34.87774c5.2948,-23.36287 28.52643,-38.00996 51.88931,-32.71515c23.36287,5.2948 38.00995,28.52643 32.71515,51.88931c-2.9008,12.79957 -11.18535,22.98311 -21.92569,28.70456c-8.86384,4.72183 -15.27635,-20.27487 -25.83965,-22.66886c-11.59829,-2.62855 -25.17248,17.00175 -31.10118,7.71052c-4.40562,-6.90431 -6.86664,-15.0467 -6.81948,-23.53323c0.01721,-3.09768 0.36859,-6.24123 1.08156,-9.38714z" fill="none" stroke="#da6e6e" stroke-width="2.5"/></g><g fill="none" stroke="none" stroke-width="1" font-family="sans-serif" font-weight="normal" font-size="12" text-anchor="start"/></g><path d="M252.75943,2.69823c0,0 -2.99941,6.80371 -3.99961,15.36878c-1.0977,9.40013 -1.04076,21.31145 -1.17949,28.74334c-0.23929,12.82031 10.9316,37.18353 10.9316,37.18353c0,0 -6.64653,5.89914 -25.54486,2.93253c-1.6514,-0.25923 -9.31826,-2.67874 -15.76989,-7.05119c-5.87521,-3.98178 -10.65641,-9.96364 -10.65641,-9.96364c0,0 21.08366,-11.11114 29.28874,-24.25791c3.80269,-6.09293 8.2425,-18.29616 10.36656,-28.39978c1.7748,-8.44229 1.55815,-15.50358 1.55815,-15.50358z" fill="#000000" stroke="#000000" stroke-width="2" stroke-linecap="round"/><path d="M258.51192,83.99388c0,0 -6.64655,5.89914 -25.54486,2.93253c-1.6514,-0.25923 -9.31826,-2.67875 -15.76989,-7.05119c-5.87521,-3.98178 -10.65641,-9.96364 -10.65641,-9.96364c0,0 14.4961,-7.63949 24.12613,-17.74441c0.08223,0.0175 1.08741,1.0816 2.56094,1.4769c2.20937,0.59269 5.09433,0.57657 5.97453,0.77469c0.25867,0.05823 4.19765,0.99252 6.27509,1.41628c2.27344,0.46373 2.8734,0.45925 3.32346,0.5639c2.85462,12.64144 9.71103,27.59497 9.71103,27.59497z" fill="#440000" stroke="#000000" stroke-width="0" stroke-linecap="butt"/><path d="M230.0059,53.36379c0,0 2.2425,-0.83565 3.37735,-0.57847c0.78254,0.17735 3.13776,1.87995 3.13776,1.87995c0,0 1.78553,-1.19804 2.97059,-0.92942c0.68511,0.15531 2.78834,2.38903 2.78834,2.38903c0,0 2.93931,-0.82769 4.17566,-0.54369c0.86617,0.19898 2.5355,2.08528 2.5355,2.08528" fill="none" stroke="#2b0000" stroke-width="2" stroke-linecap="round"/><g><path d="M225.62142,51.69843l-4.44495,0.91845" fill="none" stroke="#ff6969" stroke-width="2" stroke-linecap="round"/><g stroke-width="2.5" stroke-linecap="butt"><path d="M206.35454,32.95226c1.65591,-7.30657 8.92144,-11.88733 16.22801,-10.23142c7.30657,1.6559 11.88733,8.92143 10.23141,16.22801c-1.65592,7.30658 -8.92143,11.88733 -16.228,10.23142c-7.30656,-1.65591 -11.88734,-8.92144 -10.23143,-16.228z" fill="#ccaaaa" stroke="#957878"/><path d="M226.03074,25.39101c5.12028,1.16043 8.0795,7.35896 6.6096,13.8448c-1.46991,6.48586 -6.81232,10.80297 -11.93261,9.64254c-5.12028,-1.16043 -8.07951,-7.35895 -6.6096,-13.84481c1.46991,-6.48586 6.81233,-10.80296 11.93261,-9.64253z" fill="#000000" stroke="#2c093e"/></g></g><path d="M250.72745,57.38828l3.61469,2.74503" fill="none" stroke="#ff6969" stroke-width="2" stroke-linecap="round"/><g data-paper-data="{&quot;index&quot;:null}" stroke-width="2.5" stroke-linecap="butt"><path d="M251.14321,43.46512c1.46506,-7.34723 8.60882,-12.11566 15.95604,-10.6506c7.34722,1.46505 12.11565,8.6088 10.65059,15.95604c-1.46506,7.34723 -8.6088,12.11565 -15.95603,10.65059c-7.34721,-1.46505 -12.11566,-8.60881 -10.6506,-15.95603z" fill="#ccaaaa" stroke="#957878"/><path d="M258.93838,45.34403c1.30049,-6.52193 6.52865,-10.97672 11.67743,-9.95004c5.14877,1.02668 8.26842,7.14604 6.96792,13.66798c-1.30049,6.52194 -6.52865,10.97673 -11.67742,9.95004c-5.14877,-1.02668 -8.26843,-7.14604 -6.96793,-13.66798z" fill="#000000" stroke="#2c093e"/></g><path d="M242.08379,63.52809l-0.09711,-5.19285" fill="none" stroke="#2b0000" stroke-width="2" stroke-linecap="round"/><path d="M218.32016,62.50748l1.31396,0.54986c0,0 2.2057,0.05784 3.52197,0.57972c1.18188,0.46858 3.62145,2.23679 3.62145,2.23679c0,0 2.66019,-0.29775 3.80032,0.09236c1.90653,0.65236 4.40573,2.59892 4.40573,2.59892c0,0 0.49973,0.58165 0.81304,0.64506c0.32925,0.06665 1.11699,-0.25442 1.11699,-0.25442c0,0 2.91829,-0.63467 3.98788,-0.48603c1.37574,0.19116 4.60795,1.62228 4.60795,1.62228c0,0 2.23135,-0.68607 3.33106,-0.58216c1.3495,0.12751 4.17104,1.29098 4.17104,1.29098l5.10495,12.55859c0,0 -1.12171,1.15038 -2.50197,0.94486c-4.94874,-0.73687 -16.92317,-2.56878 -22.68775,-3.87574c-5.35302,-1.21367 -14.48998,-4.42069 -19.95983,-6.08854c-2.5926,-0.79054 -6.29739,-4.45994 -6.29739,-4.45994z" fill="#000000" stroke="#2b0000" stroke-width="2" stroke-linecap="round"/><g fill="#ccaaaa" stroke="#a17171" stroke-width="1" stroke-linecap="butt"><path d="M227.04303,63.18029l-4.46896,4.73483l-1.994,-6.19953l3.9383,-2.35624z"/><path d="M233.83018,67.06288l-4.46896,4.73483l-1.99399,-6.19953l3.93832,-2.35624z"/></g><path d="M249.01243,18.12429c-1.0977,9.40013 -1.29337,21.25419 -1.43209,28.68609c-0.23929,12.82031 11.13762,37.51031 11.13762,37.51031c0,0 -3.42543,1.9399 -7.82098,2.68382c-2.80173,0.47417 -6.08549,0.91596 -9.22666,0.87712c-3.17967,-0.03932 -6.21473,-0.56455 -8.70323,-0.95518c-1.6514,-0.25923 -9.39876,-2.32354 -15.85038,-6.69597c-5.87521,-3.98178 -10.46697,-10.38752 -10.46697,-10.38752c0,0 20.97473,-11.04246 29.17982,-24.18924c3.80269,-6.09293 7.9899,-18.35341 10.11395,-28.45703c1.7748,-8.44229 1.8029,-15.80222 1.8029,-15.80222c0,0 1.79829,0.2085 2.55199,0.35125c0.89146,0.16884 2.56436,0.71477 2.56436,0.71477c0,0 -2.75262,6.26368 -3.85032,15.66381z" fill="none" stroke="#300000" stroke-width="2.5" stroke-linecap="round"/><path d="M233.94791,61.68425l2.32638,-4.64361" data-paper-data="{&quot;index&quot;:null}" fill="none" stroke="#2b0000" stroke-width="2" stroke-linecap="round"/><g data-paper-data="{&quot;index&quot;:null}" fill="#ccaaaa" stroke="#a17171" stroke-width="1" stroke-linecap="butt"><path d="M250.04103,65.1436l2.53767,3.82391l-4.47193,4.73414l-1.99102,-6.19887z"/><path d="M242.24316,65.72074l2.53768,3.82391l-4.47192,4.73414l-1.99102,-6.19887z"/></g><g fill="#ccaaaa" stroke="#a17171" stroke-width="1" stroke-linecap="butt"><g><path d="M232.36704,82.99343l-2.21018,-3.47203l3.97928,-4.35457l1.7105,5.64408z"/><path d="M221.84285,77.31301l3.97666,-4.35517l1.71314,5.64465l-3.49111,2.17994z"/><path d="M214.43096,71.82482l3.97666,-4.35517l1.71313,5.64465l-3.4911,2.17994z"/></g><path d="M240.79497,84.57931l-2.21016,-3.47203l3.97928,-4.35457l1.7105,5.64408z" data-paper-data="{&quot;index&quot;:null}"/><path d="M249.84873,82.82277l-2.21016,-3.47203l3.97928,-4.35457l1.71049,5.64406z" data-paper-data="{&quot;index&quot;:null}"/></g><g fill="#ffa0a0" stroke="#da6e6e" stroke-width="2.5" stroke-linecap="butt"><g data-paper-data="{&quot;index&quot;:null}"><path d="M179.89383,128.57266c0,-12.25786 9.93696,-22.19482 22.19482,-22.19482c12.25786,0 20.00777,5.76973 23.22236,22.19482c0.44876,2.29296 1.08814,28.9438 1.64399,56.81406c0.03175,1.59197 -4.11345,4.78354 -4.11345,4.78354l5.28278,61.01646c0,0 -13.21343,6.04332 -19.8499,6.97269c-6.43691,0.90142 -28.83947,-1.47776 -28.83947,-1.47776l-3.96209,-68.36067c0,0 4.21748,-2.68779 4.22228,-4.02548c0.1036,-28.86636 0.19868,-55.43677 0.19868,-55.72283z"/><path d="M195.38332,257.20748c0,0 -10.10429,13.79353 -12.13608,14.69199c-2.59685,1.14833 -17.63175,-1.52856 -17.63175,-1.52856c0,0 2.08043,-3.76459 3.60296,-4.97048c1.67384,-1.32574 6.02919,-2.65853 6.02919,-2.65853c0,0 0.99697,-6.53356 4.78383,-9.70681"/></g><path d="M227.9546,248.26545c0,0 2.60869,16.8983 1.8073,18.97031c-1.02425,2.64824 -13.54839,11.38668 -13.54839,11.38668c0,0 -1.19088,-4.13305 -0.96699,-6.06234c0.24614,-2.12102 2.38342,-6.14315 2.38342,-6.14315c0,0 -3.91496,-5.32489 -3.48107,-10.24643"/><path d="M212.93178,256.0116c0,0 -5.57613,16.16368 -7.25161,17.62251c-2.14143,1.86454 -17.29584,3.75089 -17.29584,3.75089c0,0 0.87484,-4.21129 1.97294,-5.8133c1.20723,-1.76122 4.97411,-4.32172 4.97411,-4.32172c0,0 -0.9786,-6.53634 1.70121,-10.68705"/></g></g></g></svg>