<svg version="1.1" xmlns="http://www.w3.org/2000/svg" xmlns:xlink="http://www.w3.org/1999/xlink" width="230.68845" height="27.52945" viewBox="0,0,230.68845,27.52945"><g transform="translate(-112.38365,-76.11541)"><g data-paper-data="{&quot;isPaintingLayer&quot;:true}" fill-rule="nonzero" stroke-linejoin="miter" stroke-miterlimit="10" stroke-dasharray="" stroke-dashoffset="0" style="mix-blend-mode: normal"><path d="M336.32077,101.14486h-221.43712" fill="none" stroke="#ff4a4a" stroke-width="5" stroke-linecap="round"/><path d="M312.86929,91.11037l9.04352,-10.68354l5.50579,-0.65601l-2.71774,10.87097l2.7646,-0.09372l-1.17144,3.67833l-2.15547,-0.04686l-0.79658,4.49833h-4.82634l1.24173,-4.56861l-7.82522,0.04686zM321.60827,85.39374l-4.35776,5.24805l3.32689,-0.02342z" fill="#ff4a4a" stroke="#d91818" stroke-width="1.5" stroke-linecap="square"/><path d="M295.68898,90.17532c-0.39047,1.84307 -1.4526,3.41279 -3.18633,4.7092c-1.73373,1.28078 -3.64708,1.92116 -5.74005,1.92116c-0.98401,0 -1.89773,-0.11714 -2.74116,-0.35142c-0.82783,-0.24991 -1.43698,-0.49981 -1.82745,-0.74972l-0.84344,-0.60915l2.34288,-4.02976c0.70286,0.64038 1.42134,1.14021 2.15545,1.49944c0.74972,0.34363 1.4604,0.51543 2.13203,0.51543c0.67162,0 1.31983,-0.21085 1.9446,-0.63257c0.62476,-0.42172 0.99962,-0.92153 1.12458,-1.49944c0.29675,-1.40573 -0.50762,-2.26479 -2.41316,-2.57717l-4.02976,-0.70286l2.13203,-10.05095l5.08406,0.35144l6.34923,-0.328l-1.75715,4.75606l-7.00524,-0.63257l-0.51543,2.48345l2.48345,0.44515c1.62441,0.31238 2.81928,0.96059 3.58463,1.9446c0.76533,0.98401 1.00745,2.16326 0.7263,3.53776z" fill="#ff4a4a" stroke="#d91818" stroke-width="1.5" stroke-linecap="square"/><path d="M332.61243,78.9205l3.72517,1.19488c-1.01524,2.46785 -1.83526,4.70137 -2.46003,6.70064l-2.78804,-0.77314z" fill="#ff4a4a" stroke="#d91818" stroke-width="1.5" stroke-linecap="square"/><path d="M302.09777,80.84328l1.19488,-3.72517c2.46785,1.01524 4.70137,1.83526 6.70064,2.46003l-0.77314,2.78804z" fill="#ff4a4a" stroke="#d91818" stroke-width="1.5" stroke-linecap="square"/><path d="M338.34423,83.37165l3.72517,1.19488c-1.01524,2.46785 -1.83526,4.70137 -2.46003,6.70064l-2.78804,-0.77314z" fill="#ff4a4a" stroke="#d91818" stroke-width="1.5" stroke-linecap="square"/><path d="M336.32077,101.14486h-221.43712" fill="none" stroke="#7d0f0f" stroke-width="2.5" stroke-linecap="round"/></g></g></svg>